<?xml version="1.0" encoding="UTF-8" standalone="no"?>
<svg
   width="297mm"
   height="210mm"
   viewBox="0 0 296.99999 209.99999"
   version="1.1"
   id="svg25"
   sodipodi:docname="ergoSHIFT-stencil-with-OLED-reversed.svg"
   inkscape:version="1.3.1 (91b66b0783, 2023-11-16)"
   inkscape:export-filename="ergoSHIFT-stencil-with-OLED-reversed.png"
   inkscape:export-xdpi="300"
   inkscape:export-ydpi="300"
   xml:space="preserve"
   xmlns:inkscape="http://www.inkscape.org/namespaces/inkscape"
   xmlns:sodipodi="http://sodipodi.sourceforge.net/DTD/sodipodi-0.dtd"
   xmlns="http://www.w3.org/2000/svg"
   xmlns:svg="http://www.w3.org/2000/svg"><defs
     id="defs25" /><sodipodi:namedview
     id="namedview25"
     pagecolor="#ffffff"
     bordercolor="#000000"
     borderopacity="0.25"
     inkscape:showpageshadow="2"
     inkscape:pageopacity="0.0"
     inkscape:pagecheckerboard="0"
     inkscape:deskcolor="#d1d1d1"
     inkscape:document-units="mm"
     inkscape:zoom="4.3579716"
     inkscape:cx="754.70891"
     inkscape:cy="278.91416"
     inkscape:window-width="3840"
     inkscape:window-height="2054"
     inkscape:window-x="5749"
     inkscape:window-y="577"
     inkscape:window-maximized="1"
     inkscape:current-layer="g2" /><g
     id="g3"
     transform="matrix(-1,0,0,1,297,0)"><g
       id="Sketch006"
       transform="matrix(1,0,0,-1,31.915,31.165)"><path
         id="Sketch006_w0000"
         d="m 233.17,-4 a 4,4 0 0 1 -4,4 H 4 A 4,4 0 0 1 0,-4 v -139.67 a 4,4 0 0 1 4,-4 h 225.17 a 4,4 0 0 1 4,4 V -4"
         stroke="#000000"
         stroke-width="0.35 px"
         style="fill:none;fill-opacity:1;fill-rule:evenodd;stroke-width:0.35;stroke-linecap:square;stroke-miterlimit:4;stroke-dasharray:none" /><circle
         cx="7.5500002"
         cy="-7.5500002"
         r="1.6"
         stroke="#000000"
         stroke-width="0.35 px"
         style="fill:none;stroke-width:0.35;stroke-linecap:square;stroke-miterlimit:4;stroke-dasharray:none"
         id="circle1" /><circle
         cx="20"
         cy="-13"
         r="2.25"
         stroke="#000000"
         stroke-width="0.35 px"
         style="fill:none;stroke-width:0.35;stroke-linecap:square;stroke-miterlimit:4;stroke-dasharray:none"
         id="circle2" /><circle
         cx="30"
         cy="-13"
         r="2.25"
         stroke="#000000"
         stroke-width="0.35 px"
         style="fill:none;stroke-width:0.35;stroke-linecap:square;stroke-miterlimit:4;stroke-dasharray:none"
         id="circle3" /><circle
         cx="40"
         cy="-13"
         r="2.25"
         stroke="#000000"
         stroke-width="0.35 px"
         style="fill:none;stroke-width:0.35;stroke-linecap:square;stroke-miterlimit:4;stroke-dasharray:none"
         id="circle4" /><circle
         cx="105"
         cy="-7.5500002"
         r="1.6"
         stroke="#000000"
         stroke-width="0.35 px"
         style="fill:none;stroke-width:0.35;stroke-linecap:square;stroke-miterlimit:4;stroke-dasharray:none"
         id="circle5" /><circle
         cx="21.75"
         cy="-62.75"
         r="11.75"
         stroke="#000000"
         stroke-width="0.35 px"
         style="fill:none;stroke-width:0.35;stroke-linecap:square;stroke-miterlimit:4;stroke-dasharray:none"
         id="circle6" /><circle
         cx="50.369999"
         cy="-62.75"
         r="11.75"
         stroke="#000000"
         stroke-width="0.35 px"
         style="fill:none;stroke-width:0.35;stroke-linecap:square;stroke-miterlimit:4;stroke-dasharray:none"
         id="circle7" /><circle
         cx="132.53999"
         cy="-21.75"
         r="11.75"
         stroke="#000000"
         stroke-width="0.35 px"
         style="fill:none;stroke-width:0.35;stroke-linecap:square;stroke-miterlimit:4;stroke-dasharray:none"
         id="circle8" /><circle
         cx="129.39999"
         cy="-52.290001"
         r="11.75"
         stroke="#000000"
         stroke-width="0.35 px"
         style="fill:none;stroke-width:0.35;stroke-linecap:square;stroke-miterlimit:4;stroke-dasharray:none"
         id="circle9" /><circle
         cx="103.05"
         cy="-63.700001"
         r="11.75"
         stroke="#000000"
         stroke-width="0.35 px"
         style="fill:none;stroke-width:0.35;stroke-linecap:square;stroke-miterlimit:4;stroke-dasharray:none"
         id="circle10" /><circle
         cx="75.82"
         cy="-76.290001"
         r="11.75"
         stroke="#000000"
         stroke-width="0.35 px"
         style="fill:none;stroke-width:0.35;stroke-linecap:square;stroke-miterlimit:4;stroke-dasharray:none"
         id="circle11" /><circle
         cx="100.89"
         cy="-93.809998"
         r="11.75"
         stroke="#000000"
         stroke-width="0.35 px"
         style="fill:none;stroke-width:0.35;stroke-linecap:square;stroke-miterlimit:4;stroke-dasharray:none"
         id="circle12" /><circle
         cx="127.87"
         cy="-82.370003"
         r="11.75"
         stroke="#000000"
         stroke-width="0.35 px"
         style="fill:none;stroke-width:0.35;stroke-linecap:square;stroke-miterlimit:4;stroke-dasharray:none"
         id="circle13" /><circle
         cx="154.85001"
         cy="-70.93"
         r="11.75"
         stroke="#000000"
         stroke-width="0.35 px"
         style="fill:none;stroke-width:0.35;stroke-linecap:square;stroke-miterlimit:4;stroke-dasharray:none"
         id="circle14" /><circle
         cx="155.75"
         cy="-40.880001"
         r="11.75"
         stroke="#000000"
         stroke-width="0.35 px"
         style="fill:none;stroke-width:0.35;stroke-linecap:square;stroke-miterlimit:4;stroke-dasharray:none"
         id="circle15" /><circle
         cx="184.85001"
         cy="-36.939999"
         r="11.75"
         stroke="#000000"
         stroke-width="0.35 px"
         style="fill:none;stroke-width:0.35;stroke-linecap:square;stroke-miterlimit:4;stroke-dasharray:none"
         id="circle16" /><circle
         cx="212.42"
         cy="-51.110001"
         r="11.75"
         stroke="#000000"
         stroke-width="0.35 px"
         style="fill:none;stroke-width:0.35;stroke-linecap:square;stroke-miterlimit:4;stroke-dasharray:none"
         id="circle17" /><circle
         cx="186.22"
         cy="-66.389999"
         r="11.75"
         stroke="#000000"
         stroke-width="0.35 px"
         style="fill:none;stroke-width:0.35;stroke-linecap:square;stroke-miterlimit:4;stroke-dasharray:none"
         id="circle18" /><circle
         cx="80.139999"
         cy="-98.580002"
         r="1.6"
         stroke="#000000"
         stroke-width="0.35 px"
         style="fill:none;stroke-width:0.35;stroke-linecap:square;stroke-miterlimit:4;stroke-dasharray:none"
         id="circle19" /><circle
         cx="57.220001"
         cy="-120.47"
         r="11.75"
         stroke="#000000"
         stroke-width="0.35 px"
         style="fill:none;stroke-width:0.35;stroke-linecap:square;stroke-miterlimit:4;stroke-dasharray:none"
         id="circle20" /><circle
         cx="7.5500002"
         cy="-140.12"
         r="1.6"
         stroke="#000000"
         stroke-width="0.35 px"
         style="fill:none;stroke-width:0.35;stroke-linecap:square;stroke-miterlimit:4;stroke-dasharray:none"
         id="circle21" /><circle
         cx="88.790001"
         cy="-128.67"
         r="14"
         stroke="#000000"
         stroke-width="0.35 px"
         style="fill:none;stroke-width:0.35;stroke-linecap:square;stroke-miterlimit:4;stroke-dasharray:none"
         id="circle22" /><circle
         cx="105"
         cy="-140.12"
         r="1.6"
         stroke="#000000"
         stroke-width="0.35 px"
         style="fill:none;stroke-width:0.35;stroke-linecap:square;stroke-miterlimit:4;stroke-dasharray:none"
         id="circle23" /><circle
         cx="225.62"
         cy="-140.12"
         r="1.6"
         stroke="#000000"
         stroke-width="0.35 px"
         style="fill:none;stroke-width:0.35;stroke-linecap:square;stroke-miterlimit:4;stroke-dasharray:none"
         id="circle24" /><circle
         cx="225.62"
         cy="-7.5500002"
         r="1.6"
         stroke="#000000"
         stroke-width="0.35 px"
         style="fill:none;stroke-width:0.35;stroke-linecap:square;stroke-miterlimit:4;stroke-dasharray:none"
         id="circle25" /><path
         id="Sketch006_w0026"
         d="M 43.75,-41.8 H 16.25 V -24 h 27.5 v -17.8"
         stroke="#000000"
         stroke-width="0.35 px"
         style="fill:none;fill-opacity:1;fill-rule:evenodd;stroke-width:0.35;stroke-linecap:square;stroke-miterlimit:4;stroke-dasharray:none" /><title
         id="title25">b'Art Stencil'</title></g><g
       id="g2"
       transform="translate(-0.59516,-0.49745)"><text
         xml:space="preserve"
         style="font-size:3.175px;fill:#000000;fill-opacity:1;stroke:none;stroke-width:0.264583;stroke-opacity:0.481183"
         x="-58.983734"
         y="110.73492"
         id="text25"
         transform="scale(-1,1)"><tspan
           sodipodi:role="line"
           id="tspan25"
           style="fill:#000000;fill-opacity:1;stroke:none;stroke-width:0.264583;stroke-opacity:0.481183"
           x="-58.983734"
           y="110.73492">RIGHT</tspan></text><text
         xml:space="preserve"
         style="font-size:3.175px;fill:#000000;fill-opacity:1;stroke:none;stroke-width:0.264583;stroke-opacity:0.3"
         x="-88.200981"
         y="110.45655"
         id="text26"
         transform="scale(-1,1)"><tspan
           sodipodi:role="line"
           style="fill:#000000;fill-opacity:1;stroke:none;stroke-width:0.264583"
           x="-88.200981"
           y="110.45655"
           id="tspan27">DOWN</tspan></text><text
         xml:space="preserve"
         style="font-size:3.175px;fill:#000000;fill-opacity:1;stroke:none;stroke-width:0.264583;stroke-opacity:0.3"
         x="-112.08414"
         y="123.31851"
         id="text26-3"
         transform="scale(-1,1)"><tspan
           sodipodi:role="line"
           style="fill:#000000;fill-opacity:1;stroke:none;stroke-width:0.264583"
           x="-112.08414"
           y="123.31851"
           id="tspan27-6">LEFT</tspan></text><text
         xml:space="preserve"
         style="font-size:3.175px;fill:#000000;fill-opacity:1;stroke:none;stroke-width:0.264583;stroke-opacity:0.3"
         x="-123.83533"
         y="144.26488"
         id="text26-3-3"
         transform="scale(-1,1)"><tspan
           sodipodi:role="line"
           style="fill:#000000;fill-opacity:1;stroke:none;stroke-width:0.264583"
           x="-123.83533"
           y="144.26488"
           id="tspan28">UP</tspan></text><text
         xml:space="preserve"
         style="font-size:3.175px;fill:#000000;fill-opacity:1;stroke:none;stroke-width:0.264583;stroke-opacity:0.3"
         x="-163.55803"
         y="129.54445"
         id="text26-3-3-6"
         transform="scale(-1,1)"><tspan
           sodipodi:role="line"
           style="fill:#000000;fill-opacity:1;stroke:none;stroke-width:0.264583"
           x="-163.55803"
           y="129.54445"
           id="tspan28-7">A/✕</tspan></text><text
         xml:space="preserve"
         style="font-size:3.175px;fill:#000000;fill-opacity:1;stroke:none;stroke-width:0.264583;stroke-opacity:0.3"
         x="-190.77316"
         y="117.93861"
         id="text26-3-3-6-4"
         transform="scale(-1,1)"><tspan
           sodipodi:role="line"
           style="fill:#000000;fill-opacity:1;stroke:none;stroke-width:0.264583"
           x="-190.77316"
           y="117.93861"
           id="tspan28-7-1">B/<tspan
   style="font-size:2.82222px"
   id="tspan3">◯</tspan></tspan></text><text
         xml:space="preserve"
         style="font-size:3.175px;fill:#000000;fill-opacity:1;stroke:none;stroke-width:0.264583;stroke-opacity:0.3"
         x="-138.11362"
         y="140.93604"
         id="text26-3-3-6-4-0"
         transform="scale(-1,1)"><tspan
           sodipodi:role="line"
           style="fill:#000000;fill-opacity:1;stroke:none;stroke-width:0.264583"
           x="-138.11362"
           y="140.93604"
           id="tspan28-7-1-1">LT/L2</tspan></text><text
         xml:space="preserve"
         style="font-size:3.175px;fill:#000000;fill-opacity:1;stroke:none;stroke-width:0.264583;stroke-opacity:0.3"
         x="-140.51799"
         y="111.38181"
         id="text26-3-3-6-4-7"
         transform="scale(-1,1)"><tspan
           sodipodi:role="line"
           style="fill:#000000;fill-opacity:1;stroke:none;stroke-width:0.264583"
           x="-140.51799"
           y="111.38181"
           id="tspan28-7-1-7">RS/R3</tspan></text><text
         xml:space="preserve"
         style="font-size:3.175px;fill:#000000;fill-opacity:1;stroke:none;stroke-width:0.264583;stroke-opacity:0.3"
         x="-164.8239"
         y="99.274101"
         id="text26-3-3-6-4-8"
         transform="scale(-1,1)"><tspan
           sodipodi:role="line"
           style="fill:#000000;fill-opacity:1;stroke:none;stroke-width:0.264583"
           x="-164.8239"
           y="99.274101"
           id="tspan28-7-1-9">X/<tspan
   style="font-size:4.93889px"
   id="tspan1">□</tspan></tspan></text><text
         xml:space="preserve"
         style="font-size:3.175px;fill:#000000;fill-opacity:1;stroke:none;stroke-width:0.264583;stroke-opacity:0.3"
         x="-94.691368"
         y="138.3779"
         id="text26-3-3-6-4-8-2"
         transform="scale(-1,1)"><tspan
           sodipodi:role="line"
           style="fill:#000000;fill-opacity:1;stroke:none;stroke-width:0.264583"
           x="-94.691368"
           y="138.3779"
           id="tspan28-7-1-9-6">LS/L3</tspan></text><text
         xml:space="preserve"
         style="font-size:3.175px;fill:#000000;fill-opacity:1;stroke:none;stroke-width:0.264583;stroke-opacity:0.3"
         x="-173.84285"
         y="68.78862"
         id="text26-3-3-6-4-8-9"
         transform="scale(-1,1)"><tspan
           sodipodi:role="line"
           style="fill:#000000;fill-opacity:1;stroke:none;stroke-width:0.264583"
           x="-173.84285"
           y="68.78862"
           id="tspan28-7-1-9-9">❏/SELECT</tspan></text><text
         xml:space="preserve"
         style="font-size:1.87771px;fill:#000000;fill-opacity:1;stroke:none;stroke-width:0.156476;stroke-opacity:0.3"
         x="-77.002136"
         y="38.896961"
         id="text26-3-3-6-4-8-9-8"
         transform="scale(-1,1)"><tspan
           sodipodi:role="line"
           style="fill:#000000;fill-opacity:1;stroke:none;stroke-width:0.156476"
           x="-77.002136"
           y="38.896961"
           id="tspan28-7-1-9-9-8">≡/START</tspan></text><text
         xml:space="preserve"
         style="font-size:1.87771px;fill:#000000;fill-opacity:1;stroke:none;stroke-width:0.156476;stroke-opacity:0.3"
         x="-63.809875"
         y="38.896961"
         id="text26-3-3-6-4-8-9-8-0"
         transform="scale(-1,1)"><tspan
           sodipodi:role="line"
           style="fill:#000000;fill-opacity:1;stroke:none;stroke-width:0.156476"
           x="-63.809875"
           y="38.896961"
           id="tspan28-7-1-9-9-8-7">FN</tspan></text><text
         xml:space="preserve"
         style="font-size:1.87771px;fill:#000000;fill-opacity:1;stroke:none;stroke-width:0.156476;stroke-opacity:0.3"
         x="-57.208393"
         y="38.896961"
         id="text26-3-3-6-4-8-9-8-6"
         transform="scale(-1,1)"><tspan
           sodipodi:role="line"
           style="fill:#000000;fill-opacity:1;stroke:none;stroke-width:0.156476"
           x="-57.208393"
           y="38.896961"
           id="tspan28-7-1-9-9-8-0">GUIDE/PS</tspan></text><text
         xml:space="preserve"
         style="font-size:3.175px;fill:#000000;fill-opacity:1;stroke:none;stroke-width:0.264583;stroke-opacity:0.3"
         x="-191.42117"
         y="87.759796"
         id="text26-3-3-6-4-6"
         transform="scale(-1,1)"><tspan
           sodipodi:role="line"
           style="fill:#000000;fill-opacity:1;stroke:none;stroke-width:0.264583"
           x="-191.42117"
           y="87.759796"
           id="tspan28-7-1-2">Y/<tspan
   style="font-size:4.23333px"
   id="tspan4">△</tspan></tspan></text><text
         xml:space="preserve"
         style="font-size:3.175px;fill:#000000;fill-opacity:1;stroke:none;stroke-width:0.264583;stroke-opacity:0.3"
         x="-223.65819"
         y="114.01997"
         id="text26-3-3-6-4-3"
         transform="scale(-1,1)"><tspan
           sodipodi:role="line"
           style="fill:#000000;fill-opacity:1;stroke:none;stroke-width:0.264583"
           x="-223.65819"
           y="114.01997"
           id="tspan28-7-1-98">RT/R2</tspan></text><text
         xml:space="preserve"
         style="font-size:3.175px;fill:#000000;fill-opacity:1;stroke:none;stroke-width:0.264583;stroke-opacity:0.3"
         x="-222.6528"
         y="84.180588"
         id="text26-3-3-6-4-1"
         transform="scale(-1,1)"><tspan
           sodipodi:role="line"
           style="fill:#000000;fill-opacity:1;stroke:none;stroke-width:0.264583"
           x="-222.6528"
           y="84.180588"
           id="tspan28-7-1-5">RB/R1</tspan></text><text
         xml:space="preserve"
         style="font-size:3.175px;fill:#000000;fill-opacity:1;stroke:none;stroke-width:0.264583;stroke-opacity:0.3"
         x="-249.74666"
         y="98.7612"
         id="text26-3-3-6-4-9"
         transform="scale(-1,1)"><tspan
           sodipodi:role="line"
           style="fill:#000000;fill-opacity:1;stroke:none;stroke-width:0.264583"
           x="-249.74666"
           y="98.7612"
           id="tspan28-7-1-76">LB/L1</tspan></text></g></g><g
     id="g6"
     transform="translate(176.18766)"><g
       id="g1"
       transform="matrix(0.21020465,0,0,0.21020161,37.502656,151.83307)"><ellipse
         style="fill:#000000;stroke-width:0.289758"
         id="path1"
         cx="34.736526"
         cy="76.736809"
         rx="12.230336"
         ry="5.2829537"
         transform="matrix(0.97504177,-0.22202149,0.17728453,0.98415964,0,0)" /><ellipse
         style="fill:#000000;stroke-width:0.265371"
         id="path2"
         cx="62.758617"
         cy="72.507576"
         rx="10.853693"
         ry="4.8591728"
         transform="matrix(0.9874115,-0.15817244,0.17541676,0.98449427,0,0)" /><ellipse
         style="fill:#000000;stroke-width:0.275045"
         id="path3"
         cx="97.335571"
         cy="66.152435"
         rx="10.599855"
         ry="5.0368104"
         transform="rotate(-2.785622)" /><ellipse
         style="fill:#000000;stroke-width:0.262432"
         id="path4"
         cx="95.26432"
         cy="96.597595"
         rx="14.922208"
         ry="9.7733221"
         transform="matrix(0.99789049,-0.06491968,0.06456334,0.99791361,0,0)" /><ellipse
         style="fill:#000000;stroke-width:0.27163"
         id="path5"
         cx="154.02444"
         cy="57.630775"
         rx="17.539755"
         ry="10.389667"
         transform="matrix(0.98321575,0.18244665,-0.19299985,0.98119879,0,0)" /><ellipse
         style="fill:#000000;stroke-width:0.269643"
         id="path6"
         cx="131.68517"
         cy="55.865437"
         rx="11.125955"
         ry="5.3752098"
         transform="matrix(0.99857559,0.0533553,-0.05408238,0.99853648,0,0)" /><ellipse
         style="fill:#000000;stroke-width:0.25348"
         id="path7"
         cx="116.22253"
         cy="52.209927"
         rx="9.3970356"
         ry="3.9467549" /><ellipse
         style="fill:#000000;stroke-width:0.276114"
         id="path8"
         cx="145.87152"
         cy="41.111668"
         rx="10.111209"
         ry="4.2474594"
         transform="rotate(4.9876718)" /><ellipse
         style="fill:#000000;stroke-width:0.277606"
         id="path9"
         cx="130.0472"
         cy="40.891087"
         rx="8.6079426"
         ry="3.1570251"
         transform="matrix(0.99939147,0.03488101,-0.03188677,0.99949149,0,0)" /><ellipse
         style="fill:#000000;stroke-width:0.2766"
         id="path10"
         cx="119.37994"
         cy="38.828548"
         rx="7.5176282"
         ry="2.4432292" /><ellipse
         style="fill:#000000;stroke-width:0.288061"
         id="path11"
         cx="140.37029"
         cy="33.261932"
         rx="7.9321184"
         ry="2.5918446"
         transform="matrix(0.99890288,0.04682987,-0.04218835,0.99910968,0,0)" /><ellipse
         style="fill:#000000;stroke-width:0.276018"
         id="path12"
         cx="155.89088"
         cy="32.724113"
         rx="9.1971884"
         ry="3.287174"
         transform="matrix(0.99610593,0.08816449,-0.09234462,0.99572711,0,0)" /><ellipse
         style="fill:#000000;stroke-width:0.267979"
         id="path13"
         cx="170.30183"
         cy="23.754974"
         rx="8.7867661"
         ry="2.732899"
         transform="matrix(0.99455702,0.10419372,-0.1177663,0.99304134,0,0)" /><ellipse
         style="fill:#000000;stroke-width:0.248958"
         id="path14"
         cx="173.43393"
         cy="20.855686"
         rx="7.9355998"
         ry="2.2226317"
         transform="matrix(0.99620399,0.0870495,-0.11017568,0.99391213,0,0)" /><ellipse
         style="fill:#000000;stroke-width:0.282996"
         id="path15"
         cx="153.71599"
         cy="25.851662"
         rx="7.5962582"
         ry="2.2974365"
         transform="rotate(3.8428585)" /><path
         d="m 93.193724,74.352162 h -5.530737 q 0,0.692182 0.208327,1.209639 0.208327,0.510736 0.571218,0.840026 0.349452,0.322571 0.826587,0.483856 0.483855,0.161285 1.061794,0.161285 0.766104,0 1.538929,-0.30241 0.779545,-0.30913 1.108835,-0.604819 h 0.0672 v 1.377644 q -0.63842,0.268809 -1.303721,0.450254 -0.665301,0.181446 -1.397805,0.181446 -1.86822,0 -2.916573,-1.008032 -1.048354,-1.014752 -1.048354,-2.876252 0,-1.841339 1.001312,-2.923293 1.008033,-1.081955 2.647765,-1.081955 1.518769,0 2.338635,0.887069 0.826586,0.887068 0.826586,2.52008 z m -1.229799,-0.967711 q -0.0067,-0.994592 -0.504016,-1.538929 -0.490576,-0.544338 -1.498608,-0.544338 -1.014753,0 -1.619572,0.5981 -0.598099,0.598099 -0.678742,1.485167 z m 7.82905,-1.538929 h -0.0672 q -0.282249,-0.0672 -0.551058,-0.09408 -0.262088,-0.0336 -0.62498,-0.0336 -0.584659,0 -1.128996,0.262088 -0.544337,0.255368 -1.048353,0.665301 v 5.329131 h -1.263401 v -7.50648 h 1.263401 v 1.108835 q 0.752664,-0.604819 1.323882,-0.853467 0.577938,-0.255368 1.176037,-0.255368 0.329291,0 0.477136,0.02016 0.147844,0.01344 0.443534,0.06048 z m 7.277995,5.275368 q 0,1.908541 -0.86691,2.80233 -0.86691,0.893788 -2.66793,0.893788 -0.59809,0 -1.16931,-0.08736 -0.5645,-0.08064 -1.11556,-0.235208 v -1.290281 h 0.0672 q 0.30913,0.120964 0.98115,0.295689 0.67203,0.181446 1.34405,0.181446 0.64514,0 1.06851,-0.154565 0.42338,-0.154565 0.65858,-0.430094 0.23521,-0.262088 0.33601,-0.6317 0.10081,-0.369612 0.10081,-0.826586 v -0.685462 q -0.57122,0.456975 -1.0954,0.685462 -0.51745,0.221767 -1.32388,0.221767 -1.34404,0 -2.13703,-0.967711 -0.78626,-0.974431 -0.78626,-2.741848 0,-0.96771 0.2688,-1.666613 0.27553,-0.705622 0.74595,-1.216359 0.43681,-0.477135 1.06179,-0.739223 0.62498,-0.268809 1.24324,-0.268809 0.65186,0 1.08868,0.134405 0.44353,0.127684 0.93411,0.396492 l 0.0806,-0.32257 h 1.18276 z m -1.2634,-1.209638 v -4.092611 q -0.50402,-0.228487 -0.94083,-0.32257 -0.4301,-0.100804 -0.86019,-0.100804 -1.04163,0 -1.63973,0.698903 -0.5981,0.698902 -0.5981,2.029505 0,1.2634 0.44353,1.915261 0.44354,0.651861 1.47173,0.651861 0.55106,0 1.10211,-0.208327 0.55778,-0.215047 1.02148,-0.571218 z m 10.14752,-1.686774 q 0,1.834618 -0.94083,2.896412 -0.94083,1.061794 -2.52008,1.061794 -1.59269,0 -2.53352,-1.061794 -0.93411,-1.061794 -0.93411,-2.896412 0,-1.834619 0.93411,-2.896413 0.94083,-1.068514 2.53352,-1.068514 1.57925,0 2.52008,1.068514 0.94083,1.061794 0.94083,2.896413 z m -1.30372,0 q 0,-1.458287 -0.57122,-2.163909 -0.57122,-0.712343 -1.58597,-0.712343 -1.02819,0 -1.59941,0.712343 -0.5645,0.705622 -0.5645,2.163909 0,1.411245 0.57122,2.143748 0.57122,0.725783 1.59269,0.725783 1.00803,0 1.57925,-0.719062 0.57794,-0.725784 0.57794,-2.150469 z"
         id="text15"
         style="font-size:13.763px;stroke-width:1.14692"
         transform="matrix(1.2210575,-0.18476843,-0.44359063,0.88608566,0,0)"
         aria-label="ergo" /><path
         d="m 89.13936,106.87746 q 0,0.8616 -0.406042,1.7034 -0.396139,0.84179 -1.119092,1.4261 -0.792277,0.63382 -1.851948,0.99034 -1.049768,0.35653 -2.535288,0.35653 -1.594458,0 -2.872005,-0.29711 -1.267644,-0.2971 -2.584805,-0.88141 v -2.45606 h 0.138648 q 1.119092,0.93093 2.584805,1.43601 1.465713,0.50507 2.753164,0.50507 1.822238,0 2.832392,-0.68334 1.020057,-0.68333 1.020057,-1.82223 0,-0.98045 -0.48527,-1.44591 -0.475366,-0.46546 -1.45581,-0.72295 -0.74276,-0.19807 -1.614265,-0.32682 -0.861601,-0.12874 -1.832141,-0.32681 -1.960887,-0.41595 -2.91162,-1.4162 -0.940829,-1.01015 -0.940829,-2.62442 0,-1.851944 1.564748,-3.030457 1.564748,-1.188416 3.97129,-1.188416 1.554845,0 2.852199,0.297104 1.297354,0.297104 2.297604,0.732857 v 2.317411 h -0.138648 q -0.841795,-0.71305 -2.218377,-1.178513 -1.366678,-0.475366 -2.802681,-0.475366 -1.574652,0 -2.535288,0.653629 -0.950733,0.653629 -0.950733,1.683591 0,0.92102 0.475367,1.4459 0.475366,0.52489 1.673686,0.80219 0.633822,0.13864 1.802431,0.33671 1.168609,0.19807 1.980693,0.40605 1.643976,0.43575 2.475867,1.31716 0.831891,0.88141 0.831891,2.46596 z m 14.42935,4.20897 h -1.96088 v -7.21962 h -7.358281 v 7.21962 H 92.288663 V 96.340171 h 1.960886 v 5.783629 h 7.358281 v -5.783629 h 1.96088 z m 9.16071,0 h -5.82324 v -1.50532 h 1.93118 V 97.845498 h -1.93118 v -1.505327 h 5.82324 v 1.505327 h -1.93118 v 11.735612 h 1.93118 z m 12.75566,-13.003249 h -7.45731 v 4.159459 h 6.40755 v 1.74301 h -6.40755 v 7.10078 h -1.96088 V 96.340171 h 9.41819 z m 13.05278,0 h -5.26865 v 13.003249 h -1.96088 V 98.083181 h -5.26865 v -1.74301 h 12.49818 z"
         id="text16"
         style="font-size:20.2823px;stroke-width:1.69019"
         transform="matrix(1.0900966,-0.21420789,-0.3767602,0.99138465,0,0)"
         aria-label="SHIFT" /></g><text
       xml:space="preserve"
       style="font-size:1.43755px;fill:#000000;stroke:#000000;stroke-width:0.0898467"
       x="45.027256"
       y="174.74684"
       id="text2"><tspan
         sodipodi:role="line"
         id="tspan2"
         style="stroke-width:0.0898467"
         x="45.027256"
         y="174.74684">http://github.com/mizma/ergoSHIFT/</tspan></text><text
       xml:space="preserve"
       style="font-size:1.30691px;fill:#000000;stroke:#000000;stroke-width:0.0816822"
       x="51.453018"
       y="172.40756"
       id="text5"><tspan
         sodipodi:role="line"
         id="tspan5"
         style="stroke-width:0.0816822"
         x="51.453018"
         y="172.40756">Rev.2</tspan></text><text
       xml:space="preserve"
       style="font-size:1.30424px;fill:#000000;stroke:#000000;stroke-width:0.0815145"
       x="67.530571"
       y="166.13383"
       id="text6"><tspan
         sodipodi:role="line"
         id="tspan6"
         style="stroke-width:0.0815145"
         x="67.530571"
         y="166.13383">by @mizma</tspan></text></g></svg>
