G04 #@! TF.GenerationSoftware,KiCad,Pcbnew,7.0.9*
G04 #@! TF.CreationDate,2023-12-17T00:29:00+09:00*
G04 #@! TF.ProjectId,ergoSHIFT-rev1-kicad,6572676f-5348-4494-9654-2d726576312d,rev.1*
G04 #@! TF.SameCoordinates,Original*
G04 #@! TF.FileFunction,Legend,Bot*
G04 #@! TF.FilePolarity,Positive*
%FSLAX46Y46*%
G04 Gerber Fmt 4.6, Leading zero omitted, Abs format (unit mm)*
G04 Created by KiCad (PCBNEW 7.0.9) date 2023-12-17 00:29:00*
%MOMM*%
%LPD*%
G01*
G04 APERTURE LIST*
%ADD10C,0.200000*%
%ADD11C,0.000000*%
%ADD12C,0.150000*%
%ADD13C,1.701800*%
%ADD14C,3.000000*%
%ADD15C,3.429000*%
%ADD16R,2.600000X2.600000*%
%ADD17C,2.032000*%
%ADD18C,1.524000*%
%ADD19C,1.800000*%
%ADD20R,1.600000X1.600000*%
%ADD21C,1.600000*%
%ADD22C,2.000000*%
G04 APERTURE END LIST*
D10*
X92250000Y-63000000D02*
G75*
G03*
X92250000Y-63000000I-2250000J0D01*
G01*
X82250000Y-63000000D02*
G75*
G03*
X82250000Y-63000000I-2250000J0D01*
G01*
X72250000Y-63000000D02*
G75*
G03*
X72250000Y-63000000I-2250000J0D01*
G01*
X247970000Y-116390000D02*
G75*
G03*
X247970000Y-116390000I-11750000J0D01*
G01*
X216600000Y-120930000D02*
G75*
G03*
X216600000Y-120930000I-11750000J0D01*
G01*
X164800000Y-113700000D02*
G75*
G03*
X164800000Y-113700000I-11750000J0D01*
G01*
X137570000Y-126290000D02*
G75*
G03*
X137570000Y-126290000I-11750000J0D01*
G01*
X152790000Y-178670000D02*
G75*
G03*
X152790000Y-178670000I-14000000J0D01*
G01*
X118970000Y-170470000D02*
G75*
G03*
X118970000Y-170470000I-11750000J0D01*
G01*
X189620000Y-132370000D02*
G75*
G03*
X189620000Y-132370000I-11750000J0D01*
G01*
X83500000Y-112750000D02*
G75*
G03*
X83500000Y-112750000I-11750000J0D01*
G01*
X191150000Y-102290000D02*
G75*
G03*
X191150000Y-102290000I-11750000J0D01*
G01*
X217500000Y-90880000D02*
G75*
G03*
X217500000Y-90880000I-11750000J0D01*
G01*
X246600000Y-86940000D02*
G75*
G03*
X246600000Y-86940000I-11750000J0D01*
G01*
X274170000Y-101110000D02*
G75*
G03*
X274170000Y-101110000I-11750000J0D01*
G01*
X112120000Y-112750000D02*
G75*
G03*
X112120000Y-112750000I-11750000J0D01*
G01*
X162640000Y-143810000D02*
G75*
G03*
X162640000Y-143810000I-11750000J0D01*
G01*
X194290000Y-71750000D02*
G75*
G03*
X194290000Y-71750000I-11750000J0D01*
G01*
D11*
G36*
X76787376Y-177897856D02*
G01*
X76887690Y-177901059D01*
X76986546Y-177906335D01*
X77083819Y-177913631D01*
X77179386Y-177922894D01*
X77273121Y-177934074D01*
X77364902Y-177947117D01*
X77454604Y-177961971D01*
X77542102Y-177978585D01*
X77627273Y-177996906D01*
X77709993Y-178016882D01*
X77790137Y-178038461D01*
X77867581Y-178061591D01*
X77942202Y-178086219D01*
X78013875Y-178112295D01*
X78082476Y-178139764D01*
X78147880Y-178168576D01*
X78209965Y-178198678D01*
X78268605Y-178230019D01*
X78323677Y-178262545D01*
X78375057Y-178296205D01*
X78422619Y-178330946D01*
X78466241Y-178366718D01*
X78505798Y-178403467D01*
X78541167Y-178441141D01*
X78572222Y-178479688D01*
X78598839Y-178519056D01*
X78620896Y-178559194D01*
X78638267Y-178600048D01*
X78650829Y-178641567D01*
X78658457Y-178683698D01*
X78661027Y-178726390D01*
X78658457Y-178769082D01*
X78650829Y-178811213D01*
X78638267Y-178852732D01*
X78620896Y-178893586D01*
X78598839Y-178933723D01*
X78572222Y-178973092D01*
X78505798Y-179049313D01*
X78422619Y-179121833D01*
X78323677Y-179190235D01*
X78209965Y-179254102D01*
X78082476Y-179313016D01*
X77942202Y-179366561D01*
X77790137Y-179414319D01*
X77627273Y-179455874D01*
X77454604Y-179490809D01*
X77273121Y-179518707D01*
X77083819Y-179539150D01*
X76887690Y-179551721D01*
X76685727Y-179556004D01*
X76584078Y-179554925D01*
X76483764Y-179551721D01*
X76384908Y-179546445D01*
X76287635Y-179539150D01*
X76192069Y-179529886D01*
X76098333Y-179518707D01*
X76006552Y-179505664D01*
X75916851Y-179490809D01*
X75829353Y-179474195D01*
X75744182Y-179455874D01*
X75661462Y-179435898D01*
X75581318Y-179414319D01*
X75503873Y-179391189D01*
X75429253Y-179366561D01*
X75357580Y-179340485D01*
X75288979Y-179313016D01*
X75223574Y-179284204D01*
X75161490Y-179254102D01*
X75102849Y-179222761D01*
X75047777Y-179190235D01*
X74996398Y-179156575D01*
X74948835Y-179121833D01*
X74905213Y-179086062D01*
X74865656Y-179049313D01*
X74830288Y-179011639D01*
X74799233Y-178973092D01*
X74772615Y-178933723D01*
X74750558Y-178893586D01*
X74733187Y-178852732D01*
X74720626Y-178811213D01*
X74712998Y-178769082D01*
X74710427Y-178726390D01*
X74712998Y-178683698D01*
X74720626Y-178641567D01*
X74733187Y-178600048D01*
X74750558Y-178559194D01*
X74772615Y-178519056D01*
X74799233Y-178479688D01*
X74865656Y-178403467D01*
X74948835Y-178330946D01*
X75047777Y-178262545D01*
X75161490Y-178198678D01*
X75288979Y-178139764D01*
X75429253Y-178086219D01*
X75581318Y-178038461D01*
X75744182Y-177996906D01*
X75916851Y-177961971D01*
X76098333Y-177934074D01*
X76287635Y-177913631D01*
X76483764Y-177901059D01*
X76685727Y-177896776D01*
X76787376Y-177897856D01*
G37*
G36*
X82328677Y-177882722D02*
G01*
X82335275Y-177914820D01*
X82339718Y-177945526D01*
X82342007Y-177974839D01*
X82342343Y-177988974D01*
X82342141Y-178002760D01*
X82341401Y-178016198D01*
X82340121Y-178029288D01*
X82338303Y-178042030D01*
X82335947Y-178054424D01*
X82333052Y-178066470D01*
X82329618Y-178078167D01*
X82325646Y-178089517D01*
X82321135Y-178100518D01*
X82316086Y-178111171D01*
X82310498Y-178121476D01*
X82304371Y-178131433D01*
X82297706Y-178141042D01*
X82282638Y-178158934D01*
X82265760Y-178175252D01*
X82247072Y-178189994D01*
X82226574Y-178203161D01*
X82204266Y-178214753D01*
X82180148Y-178224769D01*
X82154221Y-178233210D01*
X82126483Y-178240075D01*
X82096936Y-178245365D01*
X82065578Y-178249080D01*
X82032411Y-178251219D01*
X81997434Y-178251783D01*
X81960647Y-178250772D01*
X81922049Y-178248185D01*
X81881642Y-178244023D01*
X81839425Y-178238286D01*
X81788514Y-178229986D01*
X81739274Y-178220745D01*
X81691706Y-178210565D01*
X81645809Y-178199445D01*
X81601584Y-178187385D01*
X81559032Y-178174384D01*
X81518151Y-178160444D01*
X81478942Y-178145563D01*
X81439458Y-178129141D01*
X81398932Y-178111331D01*
X81357362Y-178092135D01*
X81314749Y-178071551D01*
X81271094Y-178049581D01*
X81226395Y-178026223D01*
X81180653Y-178001478D01*
X81133868Y-177975346D01*
X81197784Y-178103019D01*
X81208713Y-178124104D01*
X81220196Y-178144804D01*
X81232234Y-178165117D01*
X81244825Y-178185044D01*
X81257971Y-178204585D01*
X81271670Y-178223739D01*
X81285924Y-178242508D01*
X81300733Y-178260891D01*
X81308371Y-178269928D01*
X81316200Y-178278849D01*
X81324220Y-178287655D01*
X81332431Y-178296345D01*
X81340834Y-178304919D01*
X81349428Y-178313377D01*
X81358213Y-178321720D01*
X81367189Y-178329947D01*
X81376356Y-178338059D01*
X81385715Y-178346055D01*
X81395264Y-178353935D01*
X81405005Y-178361699D01*
X81425060Y-178376881D01*
X81445880Y-178391600D01*
X81467973Y-178406475D01*
X81491224Y-178420875D01*
X81515632Y-178434799D01*
X81541196Y-178448248D01*
X81567917Y-178461221D01*
X81595796Y-178473718D01*
X81624831Y-178485740D01*
X81655023Y-178497286D01*
X81686457Y-178508278D01*
X81719220Y-178518640D01*
X81753311Y-178528372D01*
X81788730Y-178537473D01*
X81825478Y-178545944D01*
X81863554Y-178553784D01*
X81902959Y-178560994D01*
X81943692Y-178567573D01*
X81986550Y-178573571D01*
X82028878Y-178578512D01*
X82070679Y-178582397D01*
X82111951Y-178585225D01*
X82152694Y-178586998D01*
X82192909Y-178587715D01*
X82232595Y-178587375D01*
X82271752Y-178585979D01*
X82309425Y-178584304D01*
X82344343Y-178582502D01*
X82376507Y-178580572D01*
X82405916Y-178578515D01*
X82432572Y-178576330D01*
X82456474Y-178574018D01*
X82477621Y-178571578D01*
X82496015Y-178569011D01*
X82513263Y-178571621D01*
X82633575Y-178811945D01*
X82601655Y-178813568D01*
X82569413Y-178814745D01*
X82536847Y-178815475D01*
X82503958Y-178815758D01*
X82470747Y-178815595D01*
X82437212Y-178814986D01*
X82403354Y-178813929D01*
X82369172Y-178812426D01*
X82334320Y-178810677D01*
X82298997Y-178808387D01*
X82263205Y-178805556D01*
X82226941Y-178802183D01*
X82190208Y-178798270D01*
X82153005Y-178793815D01*
X82115331Y-178788820D01*
X82077188Y-178783283D01*
X82020015Y-178774031D01*
X81964064Y-178763762D01*
X81909336Y-178752475D01*
X81855829Y-178740171D01*
X81803544Y-178726851D01*
X81752481Y-178712513D01*
X81702641Y-178697158D01*
X81654022Y-178680785D01*
X81606625Y-178663396D01*
X81560451Y-178644989D01*
X81515498Y-178625566D01*
X81471767Y-178605125D01*
X81429258Y-178583667D01*
X81387972Y-178561191D01*
X81347907Y-178537699D01*
X81309064Y-178513189D01*
X81271332Y-178487564D01*
X81234599Y-178460726D01*
X81198865Y-178432674D01*
X81164130Y-178403409D01*
X81130395Y-178372930D01*
X81097659Y-178341237D01*
X81065921Y-178308331D01*
X81035184Y-178274212D01*
X81005445Y-178238879D01*
X80976705Y-178202332D01*
X80948965Y-178164572D01*
X80922224Y-178125598D01*
X80896481Y-178085411D01*
X80871738Y-178044010D01*
X80847995Y-178001395D01*
X80825250Y-177957567D01*
X80355418Y-177019056D01*
X80655122Y-177019056D01*
X81036737Y-177781332D01*
X81036735Y-177781332D01*
X81074964Y-177802065D01*
X81113537Y-177822091D01*
X81152453Y-177841410D01*
X81191712Y-177860022D01*
X81231315Y-177877927D01*
X81271260Y-177895124D01*
X81311549Y-177911614D01*
X81352182Y-177927397D01*
X81392094Y-177941842D01*
X81431400Y-177955074D01*
X81470098Y-177967094D01*
X81508190Y-177977901D01*
X81545675Y-177987496D01*
X81582553Y-177995878D01*
X81618824Y-178003047D01*
X81654489Y-178009004D01*
X81686654Y-178013433D01*
X81717172Y-178016736D01*
X81746042Y-178018913D01*
X81773265Y-178019964D01*
X81786259Y-178020067D01*
X81798841Y-178019889D01*
X81811012Y-178019429D01*
X81822770Y-178018688D01*
X81834117Y-178017665D01*
X81845052Y-178016361D01*
X81855575Y-178014775D01*
X81865686Y-178012908D01*
X81875385Y-178010760D01*
X81884673Y-178008329D01*
X81893549Y-178005618D01*
X81902013Y-178002625D01*
X81910065Y-177999350D01*
X81917705Y-177995794D01*
X81924934Y-177991956D01*
X81931750Y-177987837D01*
X81938155Y-177983437D01*
X81944148Y-177978754D01*
X81949729Y-177973791D01*
X81954899Y-177968546D01*
X81959656Y-177963019D01*
X81964002Y-177957211D01*
X81967936Y-177951122D01*
X81971458Y-177944751D01*
X81977423Y-177931215D01*
X81982053Y-177916655D01*
X81985348Y-177901070D01*
X81987309Y-177884461D01*
X81987934Y-177866828D01*
X81987225Y-177848170D01*
X81985181Y-177828487D01*
X81981802Y-177807781D01*
X81977088Y-177786049D01*
X81971039Y-177763294D01*
X81963655Y-177739514D01*
X81954936Y-177714709D01*
X81944883Y-177688881D01*
X81933494Y-177662027D01*
X81920771Y-177634150D01*
X81906713Y-177605247D01*
X81890834Y-177574637D01*
X81874216Y-177544764D01*
X81856860Y-177515629D01*
X81838763Y-177487232D01*
X81819928Y-177459572D01*
X81800354Y-177432651D01*
X81780040Y-177406467D01*
X81758987Y-177381020D01*
X81737195Y-177356312D01*
X81714664Y-177332341D01*
X81691394Y-177309108D01*
X81667385Y-177286613D01*
X81642636Y-177264855D01*
X81617149Y-177243835D01*
X81590922Y-177223553D01*
X81563956Y-177204009D01*
X81536431Y-177185275D01*
X81508525Y-177167423D01*
X81480238Y-177150453D01*
X81451572Y-177134366D01*
X81422525Y-177119161D01*
X81393098Y-177104839D01*
X81363291Y-177091399D01*
X81333103Y-177078842D01*
X81302536Y-177067167D01*
X81271588Y-177056374D01*
X81240259Y-177046464D01*
X81208551Y-177037436D01*
X81176462Y-177029290D01*
X81143993Y-177022027D01*
X81111144Y-177015647D01*
X81077914Y-177010149D01*
X81050463Y-177006266D01*
X81023305Y-177002970D01*
X80996441Y-177000261D01*
X80969871Y-176998138D01*
X80943594Y-176996602D01*
X80917611Y-176995653D01*
X80891922Y-176995291D01*
X80866527Y-176995516D01*
X80840617Y-176996006D01*
X80814559Y-176997196D01*
X80788355Y-176999088D01*
X80762003Y-177001680D01*
X80735504Y-177004973D01*
X80708857Y-177008967D01*
X80682063Y-177013661D01*
X80655122Y-177019056D01*
X80355418Y-177019056D01*
X80204908Y-176718405D01*
X80508489Y-176764341D01*
X80559255Y-176827553D01*
X80584485Y-176820181D01*
X80609749Y-176813574D01*
X80635047Y-176807731D01*
X80660379Y-176802653D01*
X80685745Y-176798339D01*
X80711144Y-176794790D01*
X80736577Y-176792004D01*
X80762044Y-176789984D01*
X80787998Y-176788488D01*
X80816069Y-176788035D01*
X80846257Y-176788626D01*
X80878562Y-176790261D01*
X80912983Y-176792938D01*
X80949520Y-176796660D01*
X80988174Y-176801424D01*
X81028945Y-176807232D01*
X81069036Y-176814021D01*
X81109964Y-176822383D01*
X81151730Y-176832318D01*
X81194332Y-176843826D01*
X81237772Y-176856906D01*
X81282049Y-176871559D01*
X81327163Y-176887785D01*
X81373115Y-176905584D01*
X81418886Y-176924368D01*
X81463774Y-176944175D01*
X81507781Y-176965005D01*
X81550905Y-176986859D01*
X81593146Y-177009736D01*
X81634505Y-177033636D01*
X81674981Y-177058560D01*
X81714574Y-177084507D01*
X81756168Y-177113306D01*
X81796768Y-177143002D01*
X81836371Y-177173597D01*
X81874980Y-177205089D01*
X81912592Y-177237479D01*
X81949210Y-177270766D01*
X81984832Y-177304951D01*
X82019458Y-177340034D01*
X82036057Y-177357766D01*
X82052312Y-177375807D01*
X82068224Y-177394158D01*
X82083793Y-177412818D01*
X82099019Y-177431788D01*
X82113901Y-177451068D01*
X82128441Y-177470657D01*
X82142637Y-177490556D01*
X82156490Y-177510764D01*
X82170000Y-177531282D01*
X82183166Y-177552110D01*
X82195990Y-177573247D01*
X82220607Y-177616450D01*
X82243852Y-177660891D01*
X82263375Y-177701344D01*
X82280744Y-177740405D01*
X82295959Y-177778073D01*
X82309019Y-177814348D01*
X82319925Y-177849231D01*
X82324524Y-177866828D01*
X82328677Y-177882722D01*
G37*
G36*
X85463310Y-183253089D02*
G01*
X85921355Y-184458345D01*
X87607457Y-184789665D01*
X87149412Y-183584410D01*
X87598736Y-183672702D01*
X88766591Y-186745684D01*
X88317268Y-186657392D01*
X87745498Y-185152891D01*
X86059396Y-184821569D01*
X86631166Y-186326071D01*
X86181844Y-186237779D01*
X85013990Y-183164797D01*
X85463310Y-183253089D01*
G37*
G36*
X85138079Y-179612192D02*
G01*
X85364474Y-179632785D01*
X85595732Y-179664490D01*
X85711426Y-179684368D01*
X85825140Y-179706578D01*
X85936743Y-179731032D01*
X86046104Y-179757646D01*
X86153095Y-179786333D01*
X86257583Y-179817008D01*
X86359439Y-179849585D01*
X86458533Y-179883977D01*
X86554735Y-179920100D01*
X86647913Y-179957866D01*
X86737938Y-179997191D01*
X86824680Y-180037988D01*
X86908008Y-180080172D01*
X86987792Y-180123656D01*
X87063901Y-180168355D01*
X87136206Y-180214184D01*
X87204576Y-180261055D01*
X87268880Y-180308884D01*
X87328989Y-180357584D01*
X87384773Y-180407070D01*
X87436100Y-180457255D01*
X87482841Y-180508054D01*
X87524865Y-180559382D01*
X87562042Y-180611151D01*
X87594242Y-180663277D01*
X87621334Y-180715673D01*
X87643189Y-180768254D01*
X87659675Y-180820933D01*
X87670663Y-180873626D01*
X87676022Y-180926245D01*
X87675623Y-180978706D01*
X87669334Y-181030922D01*
X87657182Y-181082199D01*
X87639383Y-181131872D01*
X87616090Y-181179902D01*
X87587455Y-181226247D01*
X87553632Y-181270868D01*
X87514772Y-181313723D01*
X87422557Y-181393976D01*
X87312031Y-181466681D01*
X87184417Y-181531514D01*
X87040938Y-181588153D01*
X86882815Y-181636271D01*
X86711273Y-181675546D01*
X86527532Y-181705653D01*
X86332816Y-181726268D01*
X86128346Y-181737067D01*
X85915346Y-181737727D01*
X85695037Y-181727922D01*
X85468642Y-181707330D01*
X85237384Y-181675625D01*
X85121689Y-181655746D01*
X85007976Y-181633537D01*
X84896373Y-181609082D01*
X84787011Y-181582468D01*
X84680020Y-181553781D01*
X84575532Y-181523106D01*
X84473675Y-181490530D01*
X84374581Y-181456138D01*
X84278380Y-181420015D01*
X84185201Y-181382249D01*
X84095176Y-181342924D01*
X84008434Y-181302127D01*
X83925106Y-181259943D01*
X83845322Y-181216459D01*
X83769213Y-181171759D01*
X83696908Y-181125931D01*
X83628538Y-181079060D01*
X83564234Y-181031231D01*
X83504124Y-180982531D01*
X83448341Y-180933045D01*
X83397014Y-180882860D01*
X83350273Y-180832060D01*
X83308249Y-180780733D01*
X83271072Y-180728963D01*
X83238872Y-180676838D01*
X83211780Y-180624441D01*
X83189926Y-180571861D01*
X83173439Y-180519181D01*
X83162451Y-180466489D01*
X83157092Y-180413869D01*
X83157492Y-180361408D01*
X83163781Y-180309193D01*
X83175933Y-180257916D01*
X83193732Y-180208242D01*
X83217025Y-180160212D01*
X83245660Y-180113867D01*
X83279483Y-180069246D01*
X83318343Y-180026391D01*
X83410558Y-179946139D01*
X83521084Y-179873434D01*
X83648698Y-179808600D01*
X83792177Y-179751962D01*
X83950300Y-179703844D01*
X84121842Y-179664569D01*
X84305583Y-179634462D01*
X84500300Y-179613847D01*
X84704769Y-179603047D01*
X84917770Y-179602388D01*
X85138079Y-179612192D01*
G37*
G36*
X80137682Y-177573077D02*
G01*
X80143230Y-177606639D01*
X80145091Y-177622891D01*
X80146343Y-177638792D01*
X80146986Y-177654341D01*
X80147020Y-177669538D01*
X80146444Y-177684383D01*
X80145260Y-177698876D01*
X80143467Y-177713016D01*
X80141065Y-177726805D01*
X80138053Y-177740242D01*
X80134433Y-177753327D01*
X80130203Y-177766060D01*
X80125365Y-177778441D01*
X80119918Y-177790470D01*
X80113861Y-177802146D01*
X80107196Y-177813471D01*
X80099921Y-177824444D01*
X80092037Y-177835065D01*
X80083545Y-177845334D01*
X80064695Y-177864616D01*
X80043764Y-177882155D01*
X80020753Y-177897951D01*
X79995661Y-177912004D01*
X79968488Y-177924315D01*
X79939235Y-177934882D01*
X79907901Y-177943707D01*
X79874487Y-177950789D01*
X79838991Y-177956128D01*
X79801415Y-177959724D01*
X79761759Y-177961578D01*
X79720022Y-177961688D01*
X79676204Y-177960056D01*
X79630306Y-177956681D01*
X79582327Y-177951563D01*
X79532268Y-177944702D01*
X79481852Y-177936359D01*
X79431944Y-177926665D01*
X79382542Y-177915620D01*
X79333647Y-177903223D01*
X79285258Y-177889475D01*
X79237376Y-177874375D01*
X79190001Y-177857925D01*
X79143133Y-177840123D01*
X79096771Y-177820970D01*
X79050916Y-177800465D01*
X79005567Y-177778609D01*
X78960726Y-177755402D01*
X78916391Y-177730843D01*
X78872562Y-177704933D01*
X78829241Y-177677672D01*
X78786426Y-177649059D01*
X78744526Y-177619351D01*
X78703950Y-177588804D01*
X78664697Y-177557418D01*
X78626769Y-177525193D01*
X78590164Y-177492129D01*
X78554882Y-177458226D01*
X78520925Y-177423484D01*
X78488290Y-177387902D01*
X78456980Y-177351482D01*
X78426993Y-177314222D01*
X78398330Y-177276123D01*
X78370990Y-177237186D01*
X78344974Y-177197409D01*
X78320282Y-177156793D01*
X78296913Y-177115338D01*
X78274867Y-177073044D01*
X78254708Y-177031035D01*
X78236999Y-176990436D01*
X78221739Y-176951247D01*
X78208929Y-176913468D01*
X78198569Y-176877100D01*
X78191890Y-176847586D01*
X78524210Y-176847586D01*
X78525117Y-176869487D01*
X78527718Y-176892656D01*
X78532012Y-176917094D01*
X78538000Y-176942801D01*
X78545682Y-176969776D01*
X78555057Y-176998019D01*
X78566126Y-177027531D01*
X78578889Y-177058312D01*
X78593346Y-177090361D01*
X78609496Y-177123678D01*
X78626427Y-177156427D01*
X78644007Y-177188334D01*
X78662237Y-177219400D01*
X78681117Y-177249624D01*
X78700647Y-177279006D01*
X78720826Y-177307546D01*
X78741656Y-177335245D01*
X78763135Y-177362103D01*
X78785263Y-177388119D01*
X78808042Y-177413293D01*
X78831470Y-177437625D01*
X78855548Y-177461116D01*
X78880276Y-177483765D01*
X78905654Y-177505573D01*
X78931681Y-177526539D01*
X78958358Y-177546663D01*
X78985242Y-177565721D01*
X79012478Y-177583865D01*
X79040066Y-177601095D01*
X79068007Y-177617411D01*
X79096299Y-177632813D01*
X79124944Y-177647302D01*
X79153940Y-177660877D01*
X79183289Y-177673538D01*
X79212990Y-177685285D01*
X79243043Y-177696119D01*
X79273448Y-177706038D01*
X79304205Y-177715044D01*
X79335314Y-177723136D01*
X79366776Y-177730315D01*
X79398589Y-177736579D01*
X79430755Y-177741930D01*
X79462812Y-177746292D01*
X79493437Y-177749462D01*
X79522631Y-177751439D01*
X79550393Y-177752224D01*
X79576724Y-177751816D01*
X79601623Y-177750215D01*
X79613536Y-177748967D01*
X79625091Y-177747421D01*
X79636287Y-177745577D01*
X79647127Y-177743434D01*
X79657608Y-177740994D01*
X79667731Y-177738255D01*
X79677496Y-177735218D01*
X79686904Y-177731883D01*
X79695954Y-177728250D01*
X79704645Y-177724319D01*
X79712979Y-177720089D01*
X79720955Y-177715561D01*
X79728573Y-177710736D01*
X79735833Y-177705611D01*
X79742736Y-177700189D01*
X79749280Y-177694469D01*
X79755466Y-177688450D01*
X79761295Y-177682133D01*
X79766766Y-177675518D01*
X79771878Y-177668605D01*
X79780847Y-177653743D01*
X79788177Y-177637721D01*
X79793866Y-177620538D01*
X79797916Y-177602193D01*
X79800325Y-177582688D01*
X79801095Y-177562022D01*
X79800225Y-177540195D01*
X79797716Y-177517206D01*
X79793566Y-177493057D01*
X79787776Y-177467747D01*
X79780347Y-177441276D01*
X79771277Y-177413643D01*
X79760568Y-177384850D01*
X79748219Y-177354896D01*
X79734230Y-177323780D01*
X79718600Y-177291504D01*
X79701311Y-177258014D01*
X79683439Y-177225448D01*
X79664982Y-177193806D01*
X79645942Y-177163088D01*
X79626319Y-177133294D01*
X79606111Y-177104423D01*
X79585320Y-177076477D01*
X79563946Y-177049455D01*
X79541988Y-177023356D01*
X79519446Y-176998181D01*
X79496320Y-176973931D01*
X79472611Y-176950604D01*
X79448318Y-176928201D01*
X79423442Y-176906723D01*
X79397982Y-176886168D01*
X79371938Y-176866537D01*
X79345109Y-176847628D01*
X79317884Y-176829617D01*
X79290260Y-176812504D01*
X79262239Y-176796289D01*
X79233821Y-176780971D01*
X79205006Y-176766552D01*
X79175792Y-176753030D01*
X79146182Y-176740406D01*
X79116174Y-176728680D01*
X79085769Y-176717852D01*
X79054966Y-176707922D01*
X79023765Y-176698890D01*
X78992168Y-176690755D01*
X78960173Y-176683519D01*
X78927780Y-176677180D01*
X78894990Y-176671739D01*
X78863137Y-176667399D01*
X78832692Y-176664229D01*
X78803655Y-176662231D01*
X78776027Y-176661403D01*
X78749807Y-176661747D01*
X78724996Y-176663262D01*
X78701593Y-176665948D01*
X78690419Y-176667730D01*
X78679598Y-176669805D01*
X78669128Y-176672173D01*
X78659011Y-176674833D01*
X78649246Y-176677786D01*
X78639833Y-176681032D01*
X78630772Y-176684571D01*
X78622063Y-176688403D01*
X78613706Y-176692527D01*
X78605701Y-176696944D01*
X78598049Y-176701654D01*
X78590748Y-176706657D01*
X78583799Y-176711952D01*
X78577203Y-176717540D01*
X78570958Y-176723421D01*
X78565066Y-176729595D01*
X78559526Y-176736061D01*
X78554338Y-176742821D01*
X78545082Y-176757110D01*
X78537520Y-176772668D01*
X78531652Y-176789495D01*
X78527478Y-176807590D01*
X78524997Y-176826954D01*
X78524210Y-176847586D01*
X78191890Y-176847586D01*
X78190658Y-176842141D01*
X78185196Y-176808592D01*
X78183384Y-176792347D01*
X78182184Y-176776454D01*
X78181597Y-176760913D01*
X78181622Y-176745725D01*
X78182260Y-176730890D01*
X78183509Y-176716407D01*
X78185372Y-176702276D01*
X78187846Y-176688498D01*
X78190933Y-176675073D01*
X78194633Y-176662000D01*
X78198944Y-176649280D01*
X78203869Y-176636912D01*
X78209405Y-176624896D01*
X78215554Y-176613233D01*
X78222316Y-176601923D01*
X78229689Y-176590965D01*
X78237676Y-176580359D01*
X78246274Y-176570106D01*
X78265035Y-176550671D01*
X78285855Y-176532985D01*
X78308733Y-176517047D01*
X78333670Y-176502857D01*
X78360665Y-176490416D01*
X78389719Y-176479723D01*
X78420831Y-176470779D01*
X78454002Y-176463584D01*
X78489231Y-176458137D01*
X78526519Y-176454438D01*
X78565866Y-176452488D01*
X78607271Y-176452287D01*
X78650735Y-176453834D01*
X78696257Y-176457130D01*
X78743838Y-176462174D01*
X78793477Y-176468967D01*
X78844313Y-176477378D01*
X78894620Y-176487146D01*
X78944398Y-176498271D01*
X78993647Y-176510753D01*
X79042367Y-176524591D01*
X79090559Y-176539787D01*
X79138222Y-176556340D01*
X79185356Y-176574250D01*
X79231961Y-176593517D01*
X79278038Y-176614141D01*
X79323586Y-176636122D01*
X79368605Y-176659460D01*
X79413095Y-176684155D01*
X79457057Y-176710207D01*
X79500489Y-176737616D01*
X79543393Y-176766382D01*
X79585085Y-176796058D01*
X79625466Y-176826576D01*
X79664536Y-176857935D01*
X79702297Y-176890134D01*
X79738747Y-176923175D01*
X79773888Y-176957057D01*
X79807718Y-176991781D01*
X79840238Y-177027345D01*
X79871447Y-177063750D01*
X79901347Y-177100997D01*
X79929936Y-177139084D01*
X79957216Y-177178013D01*
X79983185Y-177217783D01*
X80007844Y-177258394D01*
X80031193Y-177299846D01*
X80053231Y-177342139D01*
X80073397Y-177384149D01*
X80091126Y-177424750D01*
X80106419Y-177463944D01*
X80119276Y-177501730D01*
X80129697Y-177538107D01*
X80135157Y-177562022D01*
X80137682Y-177573077D01*
G37*
G36*
X82114043Y-177017479D02*
G01*
X82143270Y-177018937D01*
X82168145Y-177020460D01*
X82188668Y-177022047D01*
X82198442Y-177022713D01*
X82209730Y-177023716D01*
X82236848Y-177026735D01*
X82270023Y-177031104D01*
X82309255Y-177036824D01*
X82347925Y-177043362D01*
X82387178Y-177051362D01*
X82427013Y-177060824D01*
X82467430Y-177071748D01*
X82508430Y-177084134D01*
X82550012Y-177097982D01*
X82592177Y-177113292D01*
X82634923Y-177130064D01*
X82678620Y-177148335D01*
X82724810Y-177168899D01*
X82773494Y-177191757D01*
X82824670Y-177216908D01*
X82878340Y-177244353D01*
X82934503Y-177274091D01*
X82993158Y-177306122D01*
X83054307Y-177340446D01*
X82950915Y-177133919D01*
X83275195Y-177182987D01*
X83975135Y-178581118D01*
X83650855Y-178532050D01*
X83153941Y-177539464D01*
X83112107Y-177515907D01*
X83070400Y-177493201D01*
X83028820Y-177471346D01*
X82987368Y-177450342D01*
X82946041Y-177430188D01*
X82904842Y-177410885D01*
X82863770Y-177392433D01*
X82822824Y-177374831D01*
X82782005Y-177358080D01*
X82741627Y-177342806D01*
X82701689Y-177329008D01*
X82662191Y-177316687D01*
X82623133Y-177305842D01*
X82584516Y-177296474D01*
X82546339Y-177288582D01*
X82508603Y-177282167D01*
X82463844Y-177275756D01*
X82442824Y-177273027D01*
X82422711Y-177270616D01*
X82403504Y-177268523D01*
X82385203Y-177266748D01*
X82367810Y-177265291D01*
X82351323Y-177264151D01*
X82334706Y-177262903D01*
X82318098Y-177261872D01*
X82301499Y-177261060D01*
X82284911Y-177260465D01*
X82268332Y-177260089D01*
X82251763Y-177259932D01*
X82235203Y-177259993D01*
X82218654Y-177260272D01*
X82201406Y-177257662D01*
X82080464Y-177016085D01*
X82114043Y-177017479D01*
G37*
G36*
X69684125Y-174847138D02*
G01*
X69831588Y-174853509D01*
X69972217Y-174864444D01*
X70105196Y-174879756D01*
X70229708Y-174899256D01*
X70344935Y-174922755D01*
X70398811Y-174935946D01*
X70450060Y-174950066D01*
X70498579Y-174965091D01*
X70544266Y-174980999D01*
X70587019Y-174997765D01*
X70626736Y-175015366D01*
X70663315Y-175033779D01*
X70696653Y-175052979D01*
X70726649Y-175072944D01*
X70753201Y-175093650D01*
X70776205Y-175115073D01*
X70795561Y-175137190D01*
X70811165Y-175159977D01*
X70822916Y-175183410D01*
X70830712Y-175207467D01*
X70834451Y-175232123D01*
X70834043Y-175257057D01*
X70829535Y-175281941D01*
X70821023Y-175306735D01*
X70808606Y-175331404D01*
X70772450Y-175380218D01*
X70721850Y-175428086D01*
X70657591Y-175474712D01*
X70580458Y-175519800D01*
X70491235Y-175563054D01*
X70390707Y-175604178D01*
X70279659Y-175642877D01*
X70158874Y-175678853D01*
X70029138Y-175711812D01*
X69891234Y-175741456D01*
X69745948Y-175767491D01*
X69594064Y-175789620D01*
X69436367Y-175807547D01*
X69273641Y-175820976D01*
X69110581Y-175829430D01*
X68951903Y-175832754D01*
X68798424Y-175831136D01*
X68650961Y-175824765D01*
X68510331Y-175813830D01*
X68377352Y-175798518D01*
X68252841Y-175779018D01*
X68137614Y-175755519D01*
X68083737Y-175742328D01*
X68032489Y-175728209D01*
X67983969Y-175713183D01*
X67938282Y-175697276D01*
X67895529Y-175680509D01*
X67855812Y-175662908D01*
X67819233Y-175644495D01*
X67785894Y-175625295D01*
X67755898Y-175605330D01*
X67729346Y-175584624D01*
X67706342Y-175563201D01*
X67686986Y-175541084D01*
X67671381Y-175518297D01*
X67659630Y-175494864D01*
X67651834Y-175470807D01*
X67648095Y-175446151D01*
X67648503Y-175421217D01*
X67653011Y-175396333D01*
X67661523Y-175371539D01*
X67673940Y-175346870D01*
X67710097Y-175298056D01*
X67760697Y-175250188D01*
X67824956Y-175203562D01*
X67902090Y-175158474D01*
X67991313Y-175115220D01*
X68091841Y-175074096D01*
X68202890Y-175035398D01*
X68323675Y-174999422D01*
X68453412Y-174966463D01*
X68591315Y-174936818D01*
X68736601Y-174910784D01*
X68888485Y-174888655D01*
X69046182Y-174870728D01*
X69208907Y-174857298D01*
X69371968Y-174848844D01*
X69530646Y-174845520D01*
X69684125Y-174847138D01*
G37*
G36*
X74324908Y-176631049D02*
G01*
X74414145Y-176633774D01*
X74501869Y-176638127D01*
X74587967Y-176644070D01*
X74672322Y-176651565D01*
X74754820Y-176660575D01*
X74835346Y-176671062D01*
X74913784Y-176682988D01*
X74990021Y-176696316D01*
X75063941Y-176711008D01*
X75135429Y-176727026D01*
X75204371Y-176744332D01*
X75270650Y-176762889D01*
X75334153Y-176782659D01*
X75394764Y-176803604D01*
X75452368Y-176825687D01*
X75506851Y-176848870D01*
X75558098Y-176873115D01*
X75605992Y-176898384D01*
X75650421Y-176924641D01*
X75691268Y-176951846D01*
X75728419Y-176979963D01*
X75761758Y-177008953D01*
X75791171Y-177038779D01*
X75816543Y-177069404D01*
X75837759Y-177100788D01*
X75854704Y-177132896D01*
X75867263Y-177165689D01*
X75875320Y-177199129D01*
X75878762Y-177233179D01*
X75877498Y-177267393D01*
X75871590Y-177301321D01*
X75861149Y-177334916D01*
X75846288Y-177368134D01*
X75827120Y-177400928D01*
X75803756Y-177433254D01*
X75744892Y-177496315D01*
X75670593Y-177556952D01*
X75581760Y-177614801D01*
X75479289Y-177669495D01*
X75364079Y-177720670D01*
X75237028Y-177767961D01*
X75099035Y-177811003D01*
X74950998Y-177849429D01*
X74793816Y-177882877D01*
X74628386Y-177910979D01*
X74455607Y-177933372D01*
X74276378Y-177949690D01*
X74091596Y-177959567D01*
X73998512Y-177961952D01*
X73906596Y-177962596D01*
X73815962Y-177961536D01*
X73726725Y-177958811D01*
X73639001Y-177954458D01*
X73552903Y-177948516D01*
X73468548Y-177941020D01*
X73386050Y-177932010D01*
X73305525Y-177921523D01*
X73227086Y-177909597D01*
X73150849Y-177896269D01*
X73076929Y-177881577D01*
X73005441Y-177865560D01*
X72936500Y-177848253D01*
X72870220Y-177829696D01*
X72806717Y-177809926D01*
X72746106Y-177788981D01*
X72688502Y-177766898D01*
X72634019Y-177743715D01*
X72582772Y-177719470D01*
X72534877Y-177694201D01*
X72490449Y-177667945D01*
X72449602Y-177640739D01*
X72412451Y-177612623D01*
X72379112Y-177583632D01*
X72349698Y-177553806D01*
X72324326Y-177523182D01*
X72303110Y-177491797D01*
X72286166Y-177459689D01*
X72273607Y-177426896D01*
X72265549Y-177393456D01*
X72262107Y-177359406D01*
X72263371Y-177325192D01*
X72269280Y-177291265D01*
X72279721Y-177257669D01*
X72294581Y-177224451D01*
X72313750Y-177191657D01*
X72337114Y-177159332D01*
X72395978Y-177096270D01*
X72470276Y-177035633D01*
X72559110Y-176977785D01*
X72661581Y-176923090D01*
X72776791Y-176871915D01*
X72903842Y-176824624D01*
X73041835Y-176781583D01*
X73189872Y-176743156D01*
X73347054Y-176709709D01*
X73512484Y-176681606D01*
X73685263Y-176659213D01*
X73864492Y-176642896D01*
X74049274Y-176633018D01*
X74142358Y-176630634D01*
X74234274Y-176629990D01*
X74324908Y-176631049D01*
G37*
G36*
X65880422Y-174798089D02*
G01*
X66027852Y-174804949D01*
X66167443Y-174816237D01*
X66298335Y-174831790D01*
X66419666Y-174851449D01*
X66530575Y-174875053D01*
X66581852Y-174888284D01*
X66630201Y-174902441D01*
X66675514Y-174917505D01*
X66717683Y-174933454D01*
X66756600Y-174950270D01*
X66792159Y-174967931D01*
X66824251Y-174986418D01*
X66852768Y-175005712D01*
X66877604Y-175025790D01*
X66898650Y-175046635D01*
X66915798Y-175068225D01*
X66928942Y-175090541D01*
X66937973Y-175113562D01*
X66942784Y-175137269D01*
X66943271Y-175161354D01*
X66939468Y-175185496D01*
X66931477Y-175209659D01*
X66919398Y-175233803D01*
X66883383Y-175281882D01*
X66832232Y-175329428D01*
X66766755Y-175376134D01*
X66687762Y-175421694D01*
X66596061Y-175465800D01*
X66492463Y-175508148D01*
X66377777Y-175548430D01*
X66252812Y-175586340D01*
X66118377Y-175621572D01*
X65975283Y-175653819D01*
X65824338Y-175682774D01*
X65666352Y-175708132D01*
X65502134Y-175729587D01*
X65332494Y-175746830D01*
X65162322Y-175759279D01*
X64996545Y-175766660D01*
X64836022Y-175769133D01*
X64681615Y-175766859D01*
X64534186Y-175759998D01*
X64394595Y-175748711D01*
X64263703Y-175733158D01*
X64142372Y-175713499D01*
X64031463Y-175689895D01*
X63980186Y-175676663D01*
X63931837Y-175662506D01*
X63886525Y-175647443D01*
X63844356Y-175631493D01*
X63805438Y-175614678D01*
X63769880Y-175597016D01*
X63737788Y-175578529D01*
X63709270Y-175559236D01*
X63684434Y-175539157D01*
X63663388Y-175518313D01*
X63646239Y-175496723D01*
X63633095Y-175474407D01*
X63624064Y-175451386D01*
X63619252Y-175427679D01*
X63618766Y-175403594D01*
X63622569Y-175379451D01*
X63630561Y-175355289D01*
X63642640Y-175331145D01*
X63678656Y-175283065D01*
X63729807Y-175235519D01*
X63795283Y-175188813D01*
X63874277Y-175143254D01*
X63965977Y-175099147D01*
X64069575Y-175056800D01*
X64184261Y-175016518D01*
X64309226Y-174978608D01*
X64443660Y-174943376D01*
X64586755Y-174911129D01*
X64737699Y-174882174D01*
X64895685Y-174856815D01*
X65059903Y-174835361D01*
X65229543Y-174818117D01*
X65399714Y-174805669D01*
X65565492Y-174798288D01*
X65726015Y-174795814D01*
X65880422Y-174798089D01*
G37*
G36*
X89055097Y-183951179D02*
G01*
X89127402Y-183953751D01*
X89202288Y-183958619D01*
X89279752Y-183965785D01*
X89359795Y-183975248D01*
X89442418Y-183987007D01*
X89527620Y-184001064D01*
X89615401Y-184017418D01*
X89683946Y-184031782D01*
X89751719Y-184047785D01*
X89818721Y-184065426D01*
X89884950Y-184084707D01*
X89950408Y-184105625D01*
X90015094Y-184128183D01*
X90079009Y-184152379D01*
X90142152Y-184178214D01*
X90204523Y-184205688D01*
X90266123Y-184234801D01*
X90326951Y-184265552D01*
X90387007Y-184297941D01*
X90446292Y-184331970D01*
X90504805Y-184367637D01*
X90562546Y-184404943D01*
X90619516Y-184443888D01*
X90674809Y-184483666D01*
X90727718Y-184523991D01*
X90778243Y-184564862D01*
X90826383Y-184606278D01*
X90872138Y-184648241D01*
X90915509Y-184690749D01*
X90956495Y-184733804D01*
X90995097Y-184777404D01*
X91031315Y-184821551D01*
X91065147Y-184866243D01*
X91096596Y-184911481D01*
X91125659Y-184957266D01*
X91152339Y-185003596D01*
X91176633Y-185050472D01*
X91198544Y-185097894D01*
X91218069Y-185145862D01*
X91233021Y-185187255D01*
X91245914Y-185227333D01*
X91256750Y-185266097D01*
X91265528Y-185303546D01*
X91272247Y-185339680D01*
X91276909Y-185374500D01*
X91279512Y-185408006D01*
X91280058Y-185440197D01*
X91278545Y-185471073D01*
X91274974Y-185500635D01*
X91272417Y-185514923D01*
X91269346Y-185528883D01*
X91265760Y-185542514D01*
X91261659Y-185555816D01*
X91257044Y-185568789D01*
X91251914Y-185581435D01*
X91246270Y-185593751D01*
X91240111Y-185605739D01*
X91233438Y-185617398D01*
X91226250Y-185628728D01*
X91218548Y-185639730D01*
X91210331Y-185650404D01*
X91191916Y-185670455D01*
X91171332Y-185689199D01*
X91148577Y-185706637D01*
X91123653Y-185722768D01*
X91096559Y-185737592D01*
X91067295Y-185751110D01*
X91035861Y-185763321D01*
X91002257Y-185774226D01*
X90966483Y-185783824D01*
X90928540Y-185792115D01*
X90888427Y-185799100D01*
X90846143Y-185804778D01*
X90801690Y-185809150D01*
X90755067Y-185812215D01*
X90706274Y-185813973D01*
X90655312Y-185814424D01*
X90553176Y-185812616D01*
X90453474Y-185809615D01*
X90356206Y-185805421D01*
X90261372Y-185800033D01*
X90214543Y-185797248D01*
X90168807Y-185795094D01*
X90124165Y-185793573D01*
X90080616Y-185792685D01*
X90038161Y-185792428D01*
X89996799Y-185792805D01*
X89956531Y-185793813D01*
X89917357Y-185795454D01*
X89892339Y-185796901D01*
X89868355Y-185798865D01*
X89845403Y-185801344D01*
X89823484Y-185804340D01*
X89802598Y-185807853D01*
X89782745Y-185811881D01*
X89763925Y-185816426D01*
X89746137Y-185821487D01*
X89729383Y-185827064D01*
X89713661Y-185833158D01*
X89698973Y-185839768D01*
X89685317Y-185846894D01*
X89672694Y-185854536D01*
X89661104Y-185862695D01*
X89650547Y-185871370D01*
X89641023Y-185880562D01*
X89632325Y-185890459D01*
X89624814Y-185901366D01*
X89618491Y-185913282D01*
X89613355Y-185926208D01*
X89609406Y-185940142D01*
X89606645Y-185955085D01*
X89605071Y-185971038D01*
X89604685Y-185988000D01*
X89605486Y-186005971D01*
X89607474Y-186024951D01*
X89610650Y-186044941D01*
X89615012Y-186065939D01*
X89620563Y-186087947D01*
X89627300Y-186110964D01*
X89635225Y-186134989D01*
X89644338Y-186160025D01*
X89656385Y-186189500D01*
X89669976Y-186218593D01*
X89685111Y-186247303D01*
X89701790Y-186275630D01*
X89720014Y-186303574D01*
X89739782Y-186331135D01*
X89761094Y-186358313D01*
X89783950Y-186385109D01*
X89808351Y-186411521D01*
X89834295Y-186437551D01*
X89861784Y-186463198D01*
X89890817Y-186488462D01*
X89921395Y-186513343D01*
X89953516Y-186537841D01*
X89987182Y-186561957D01*
X90022392Y-186585689D01*
X90058606Y-186608762D01*
X90095852Y-186631007D01*
X90134128Y-186652426D01*
X90173435Y-186673018D01*
X90213773Y-186692783D01*
X90255141Y-186711721D01*
X90297541Y-186729832D01*
X90340972Y-186747117D01*
X90385434Y-186763574D01*
X90430927Y-186779205D01*
X90477451Y-186794009D01*
X90525005Y-186807986D01*
X90573591Y-186821136D01*
X90623208Y-186833459D01*
X90673855Y-186844956D01*
X90725534Y-186855625D01*
X90799300Y-186868598D01*
X90873092Y-186878534D01*
X90946911Y-186885430D01*
X91020756Y-186889289D01*
X91094628Y-186890109D01*
X91168526Y-186887890D01*
X91242451Y-186882633D01*
X91316403Y-186874338D01*
X91352943Y-186869023D01*
X91388599Y-186862893D01*
X91423371Y-186855948D01*
X91457259Y-186848188D01*
X91490264Y-186839612D01*
X91522384Y-186830221D01*
X91553620Y-186820015D01*
X91583973Y-186808993D01*
X91613441Y-186797157D01*
X91642026Y-186784505D01*
X91669726Y-186771038D01*
X91696542Y-186756755D01*
X91722475Y-186741658D01*
X91747523Y-186725745D01*
X91771687Y-186709018D01*
X91794968Y-186691475D01*
X91826738Y-186697718D01*
X92021251Y-187209537D01*
X91957187Y-187224252D01*
X91892767Y-187237165D01*
X91827990Y-187248278D01*
X91762857Y-187257590D01*
X91697368Y-187265101D01*
X91631522Y-187270811D01*
X91565320Y-187274720D01*
X91498762Y-187276829D01*
X91429958Y-187276736D01*
X91358148Y-187274263D01*
X91283334Y-187269409D01*
X91205515Y-187262174D01*
X91124692Y-187252558D01*
X91040863Y-187240561D01*
X90954030Y-187226184D01*
X90864192Y-187209427D01*
X90780212Y-187191851D01*
X90698470Y-187172566D01*
X90618966Y-187151572D01*
X90541700Y-187128870D01*
X90466671Y-187104459D01*
X90393880Y-187078339D01*
X90323328Y-187050511D01*
X90255013Y-187020973D01*
X90187864Y-186989756D01*
X90121943Y-186957109D01*
X90057251Y-186923033D01*
X89993788Y-186887527D01*
X89931553Y-186850591D01*
X89870546Y-186812226D01*
X89810768Y-186772431D01*
X89752218Y-186731207D01*
X89725939Y-186711765D01*
X89700086Y-186692019D01*
X89674659Y-186671969D01*
X89649657Y-186651614D01*
X89625081Y-186630956D01*
X89600931Y-186609993D01*
X89577206Y-186588726D01*
X89553907Y-186567155D01*
X89531034Y-186545280D01*
X89508587Y-186523100D01*
X89486565Y-186500616D01*
X89464969Y-186477828D01*
X89443799Y-186454735D01*
X89423054Y-186431339D01*
X89402735Y-186407638D01*
X89382842Y-186383633D01*
X89363236Y-186359475D01*
X89344344Y-186335427D01*
X89326167Y-186311491D01*
X89308704Y-186287664D01*
X89291956Y-186263949D01*
X89275923Y-186240344D01*
X89260604Y-186216850D01*
X89246001Y-186193466D01*
X89232111Y-186170193D01*
X89218937Y-186147030D01*
X89206477Y-186123978D01*
X89194731Y-186101036D01*
X89183700Y-186078205D01*
X89173384Y-186055485D01*
X89163783Y-186032875D01*
X89154897Y-186010378D01*
X89140173Y-185969821D01*
X89127373Y-185930701D01*
X89116497Y-185893019D01*
X89107545Y-185856774D01*
X89100518Y-185821967D01*
X89095415Y-185788597D01*
X89092237Y-185756665D01*
X89090983Y-185726169D01*
X89091653Y-185697112D01*
X89092709Y-185683122D01*
X89094247Y-185669491D01*
X89096266Y-185656220D01*
X89098766Y-185643308D01*
X89101747Y-185630756D01*
X89105209Y-185618563D01*
X89109152Y-185606729D01*
X89113576Y-185595255D01*
X89118481Y-185584140D01*
X89123868Y-185573384D01*
X89129735Y-185562988D01*
X89136084Y-185552950D01*
X89142913Y-185543273D01*
X89150224Y-185533954D01*
X89166191Y-185516182D01*
X89183887Y-185499422D01*
X89203313Y-185483672D01*
X89224468Y-185468934D01*
X89247353Y-185455207D01*
X89271968Y-185442491D01*
X89298312Y-185430786D01*
X89326385Y-185420093D01*
X89356188Y-185410411D01*
X89387721Y-185401740D01*
X89420983Y-185394080D01*
X89455975Y-185387432D01*
X89492696Y-185381795D01*
X89531147Y-185377169D01*
X89571328Y-185373554D01*
X89613238Y-185370951D01*
X89656929Y-185369539D01*
X89703199Y-185368694D01*
X89803469Y-185368703D01*
X89914050Y-185370977D01*
X90034941Y-185375517D01*
X90153623Y-185380458D01*
X90257575Y-185383937D01*
X90346798Y-185385954D01*
X90421291Y-185386509D01*
X90452145Y-185385701D01*
X90481552Y-185384236D01*
X90509512Y-185382114D01*
X90536024Y-185379334D01*
X90561088Y-185375897D01*
X90584706Y-185371802D01*
X90606876Y-185367050D01*
X90627598Y-185361640D01*
X90646873Y-185355573D01*
X90664701Y-185348849D01*
X90681081Y-185341467D01*
X90688728Y-185337530D01*
X90696014Y-185333428D01*
X90702938Y-185329162D01*
X90709500Y-185324732D01*
X90715700Y-185320137D01*
X90721538Y-185315378D01*
X90727014Y-185310455D01*
X90732129Y-185305367D01*
X90736881Y-185300115D01*
X90741272Y-185294699D01*
X90749144Y-185283295D01*
X90755920Y-185271080D01*
X90761599Y-185258053D01*
X90766183Y-185244213D01*
X90769670Y-185229561D01*
X90772061Y-185214097D01*
X90773356Y-185197821D01*
X90773555Y-185180733D01*
X90772658Y-185162832D01*
X90770665Y-185144120D01*
X90767576Y-185124595D01*
X90763391Y-185104258D01*
X90758109Y-185083109D01*
X90751732Y-185061148D01*
X90744258Y-185038375D01*
X90735688Y-185014789D01*
X90724757Y-184988099D01*
X90712357Y-184961687D01*
X90698488Y-184935554D01*
X90683150Y-184909698D01*
X90666343Y-184884121D01*
X90648066Y-184858822D01*
X90628320Y-184833802D01*
X90607106Y-184809059D01*
X90584422Y-184784595D01*
X90560269Y-184760409D01*
X90534647Y-184736502D01*
X90507555Y-184712872D01*
X90478995Y-184689521D01*
X90448966Y-184666448D01*
X90417467Y-184643654D01*
X90384500Y-184621138D01*
X90350166Y-184599129D01*
X90315138Y-184577968D01*
X90279415Y-184557655D01*
X90242997Y-184538191D01*
X90205885Y-184519574D01*
X90168077Y-184501806D01*
X90129575Y-184484886D01*
X90090378Y-184468814D01*
X90050487Y-184453590D01*
X90009900Y-184439214D01*
X89968619Y-184425687D01*
X89926642Y-184413007D01*
X89883972Y-184401176D01*
X89840606Y-184390193D01*
X89796545Y-184380058D01*
X89751790Y-184370771D01*
X89670364Y-184356203D01*
X89590611Y-184344829D01*
X89512531Y-184336647D01*
X89436123Y-184331659D01*
X89398547Y-184330362D01*
X89361388Y-184329864D01*
X89324648Y-184330164D01*
X89288327Y-184331262D01*
X89252423Y-184333159D01*
X89216938Y-184335853D01*
X89181871Y-184339346D01*
X89147222Y-184343637D01*
X89112956Y-184348310D01*
X89079800Y-184353574D01*
X89047755Y-184359429D01*
X89016821Y-184365875D01*
X88986997Y-184372912D01*
X88958284Y-184380541D01*
X88930681Y-184388761D01*
X88904189Y-184397572D01*
X88878807Y-184406974D01*
X88854536Y-184416968D01*
X88831375Y-184427552D01*
X88809325Y-184438728D01*
X88788385Y-184450495D01*
X88768556Y-184462853D01*
X88749838Y-184475803D01*
X88732230Y-184489344D01*
X88700460Y-184483099D01*
X88516929Y-184000173D01*
X88566836Y-183989391D01*
X88619215Y-183979929D01*
X88674064Y-183971789D01*
X88731384Y-183964970D01*
X88791174Y-183959472D01*
X88853435Y-183955295D01*
X88918167Y-183952439D01*
X88985370Y-183950905D01*
X89055097Y-183951179D01*
G37*
G36*
X66753603Y-175839723D02*
G01*
X66917029Y-175846923D01*
X67071875Y-175859630D01*
X67217185Y-175877654D01*
X67352002Y-175900807D01*
X67415176Y-175914247D01*
X67475367Y-175928897D01*
X67532456Y-175944734D01*
X67586324Y-175961734D01*
X67636850Y-175979874D01*
X67683915Y-175999130D01*
X67727399Y-176019477D01*
X67767183Y-176040892D01*
X67803146Y-176063352D01*
X67835170Y-176086833D01*
X67863134Y-176111310D01*
X67886919Y-176136761D01*
X67906406Y-176163160D01*
X67921474Y-176190486D01*
X67932003Y-176218713D01*
X67937875Y-176247819D01*
X67938966Y-176277425D01*
X67935308Y-176307139D01*
X67927012Y-176336912D01*
X67914189Y-176366697D01*
X67896950Y-176396445D01*
X67875407Y-176426109D01*
X67819851Y-176484992D01*
X67748411Y-176542962D01*
X67661976Y-176599636D01*
X67561436Y-176654631D01*
X67447679Y-176707562D01*
X67321596Y-176758047D01*
X67184075Y-176805702D01*
X67036005Y-176850144D01*
X66878277Y-176890988D01*
X66711780Y-176927852D01*
X66537403Y-176960352D01*
X66356034Y-176988104D01*
X66168565Y-177010726D01*
X65980396Y-177027457D01*
X65796977Y-177037920D01*
X65619265Y-177042306D01*
X65448217Y-177040804D01*
X65284791Y-177033605D01*
X65129945Y-177020898D01*
X64984634Y-177002873D01*
X64849817Y-176979720D01*
X64786643Y-176966281D01*
X64726452Y-176951630D01*
X64669362Y-176935793D01*
X64615495Y-176918793D01*
X64564969Y-176900653D01*
X64517904Y-176881398D01*
X64474420Y-176861050D01*
X64434636Y-176839635D01*
X64398672Y-176817175D01*
X64366649Y-176793695D01*
X64338684Y-176769217D01*
X64314899Y-176743767D01*
X64295413Y-176717367D01*
X64280345Y-176690041D01*
X64269816Y-176661814D01*
X64263944Y-176632708D01*
X64262853Y-176603102D01*
X64266510Y-176573388D01*
X64274807Y-176543615D01*
X64287630Y-176513831D01*
X64304868Y-176484082D01*
X64326412Y-176454418D01*
X64381967Y-176395535D01*
X64453407Y-176337565D01*
X64539843Y-176280891D01*
X64640383Y-176225896D01*
X64754140Y-176172965D01*
X64880224Y-176122480D01*
X65017745Y-176074825D01*
X65165815Y-176030384D01*
X65323543Y-175989539D01*
X65490041Y-175952675D01*
X65664419Y-175920175D01*
X65845787Y-175892423D01*
X66033258Y-175869801D01*
X66221426Y-175853070D01*
X66404844Y-175842607D01*
X66582556Y-175838221D01*
X66753603Y-175839723D01*
G37*
G36*
X82150113Y-182602043D02*
G01*
X83317968Y-185675026D01*
X82868646Y-185586733D01*
X82306287Y-184106996D01*
X80838040Y-183818485D01*
X80700000Y-183455257D01*
X82168246Y-183743770D01*
X81838830Y-182876977D01*
X80130036Y-182541198D01*
X79991998Y-182177972D01*
X82150113Y-182602043D01*
G37*
G36*
X80055688Y-179588858D02*
G01*
X80170145Y-179595807D01*
X80282968Y-179605390D01*
X80394018Y-179617534D01*
X80503160Y-179632166D01*
X80610257Y-179649213D01*
X80715173Y-179668602D01*
X80817770Y-179690259D01*
X80917912Y-179714111D01*
X81015464Y-179740085D01*
X81110287Y-179768107D01*
X81202245Y-179798105D01*
X81291202Y-179830005D01*
X81377022Y-179863733D01*
X81459567Y-179899218D01*
X81538701Y-179936384D01*
X81614288Y-179975160D01*
X81686190Y-180015472D01*
X81754272Y-180057246D01*
X81818396Y-180100409D01*
X81878427Y-180144889D01*
X81934226Y-180190611D01*
X81985659Y-180237503D01*
X82032588Y-180285492D01*
X82074876Y-180334503D01*
X82112387Y-180384465D01*
X82144985Y-180435303D01*
X82172533Y-180486944D01*
X82194894Y-180539315D01*
X82211931Y-180592344D01*
X82223509Y-180645956D01*
X82229490Y-180700078D01*
X82229737Y-180754638D01*
X82224194Y-180808915D01*
X82212986Y-180862201D01*
X82196259Y-180914436D01*
X82174153Y-180965560D01*
X82146813Y-181015513D01*
X82114382Y-181064236D01*
X82077003Y-181111669D01*
X82034818Y-181157753D01*
X81936605Y-181245633D01*
X81820888Y-181327399D01*
X81688811Y-181402575D01*
X81541519Y-181470683D01*
X81380156Y-181531246D01*
X81205867Y-181583787D01*
X81019796Y-181627829D01*
X80823089Y-181662894D01*
X80616888Y-181688505D01*
X80402340Y-181704186D01*
X80180588Y-181709460D01*
X79952777Y-181703848D01*
X79838320Y-181696900D01*
X79725498Y-181687317D01*
X79614447Y-181675173D01*
X79505305Y-181660540D01*
X79398208Y-181643493D01*
X79293293Y-181624105D01*
X79190696Y-181602448D01*
X79090553Y-181578596D01*
X78993002Y-181552622D01*
X78898179Y-181524600D01*
X78806221Y-181494602D01*
X78717263Y-181462702D01*
X78631444Y-181428973D01*
X78548898Y-181393489D01*
X78469764Y-181356322D01*
X78394178Y-181317547D01*
X78322275Y-181277235D01*
X78254193Y-181235461D01*
X78190069Y-181192298D01*
X78130039Y-181147818D01*
X78074239Y-181102096D01*
X78022806Y-181055203D01*
X77975877Y-181007215D01*
X77933589Y-180958204D01*
X77896077Y-180908242D01*
X77863479Y-180857404D01*
X77835931Y-180805763D01*
X77813570Y-180753392D01*
X77796533Y-180700363D01*
X77784955Y-180646751D01*
X77778974Y-180592629D01*
X77778726Y-180538070D01*
X77784270Y-180483792D01*
X77795477Y-180430506D01*
X77812205Y-180378271D01*
X77834311Y-180327147D01*
X77861651Y-180277194D01*
X77894082Y-180228471D01*
X77931462Y-180181038D01*
X77973647Y-180134954D01*
X78071860Y-180047074D01*
X78187577Y-179965307D01*
X78319655Y-179890131D01*
X78466947Y-179822023D01*
X78628310Y-179761460D01*
X78802599Y-179708919D01*
X78988670Y-179664878D01*
X79185377Y-179629812D01*
X79391577Y-179604201D01*
X79606126Y-179588520D01*
X79827877Y-179583247D01*
X80055688Y-179588858D01*
G37*
G36*
X90342706Y-180776161D02*
G01*
X90579632Y-180791851D01*
X90824712Y-180819621D01*
X91076589Y-180859733D01*
X91333902Y-180912450D01*
X91462640Y-180943244D01*
X91589181Y-180976451D01*
X91713380Y-181011967D01*
X91835091Y-181049686D01*
X91954169Y-181089504D01*
X92070469Y-181131317D01*
X92183846Y-181175020D01*
X92294154Y-181220508D01*
X92401249Y-181267678D01*
X92504986Y-181316424D01*
X92605219Y-181366642D01*
X92701803Y-181418228D01*
X92794593Y-181471076D01*
X92883444Y-181525083D01*
X92968211Y-181580144D01*
X93048749Y-181636154D01*
X93124912Y-181693009D01*
X93196556Y-181750604D01*
X93263534Y-181808835D01*
X93325703Y-181867597D01*
X93382917Y-181926786D01*
X93435031Y-181986296D01*
X93481900Y-182046025D01*
X93523378Y-182105866D01*
X93559321Y-182165716D01*
X93589583Y-182225470D01*
X93614020Y-182285024D01*
X93632485Y-182344272D01*
X93644835Y-182403111D01*
X93650923Y-182461436D01*
X93650605Y-182519142D01*
X93643736Y-182576125D01*
X93630343Y-182631622D01*
X93610664Y-182684920D01*
X93584871Y-182735985D01*
X93553131Y-182784785D01*
X93515616Y-182831286D01*
X93472494Y-182875457D01*
X93370113Y-182956674D01*
X93247347Y-183028173D01*
X93105555Y-183089692D01*
X92946095Y-183140968D01*
X92770326Y-183181739D01*
X92579608Y-183211743D01*
X92375300Y-183230718D01*
X92158760Y-183238399D01*
X91931348Y-183234526D01*
X91694422Y-183218836D01*
X91449341Y-183191066D01*
X91197465Y-183150954D01*
X90940152Y-183098238D01*
X90811414Y-183067443D01*
X90684872Y-183034236D01*
X90560674Y-182998721D01*
X90438963Y-182961002D01*
X90319885Y-182921183D01*
X90203585Y-182879370D01*
X90090208Y-182835667D01*
X89979899Y-182790179D01*
X89872804Y-182743009D01*
X89769067Y-182694263D01*
X89668834Y-182644045D01*
X89572250Y-182592459D01*
X89479460Y-182539611D01*
X89390609Y-182485604D01*
X89305842Y-182430543D01*
X89225304Y-182374533D01*
X89149141Y-182317678D01*
X89077497Y-182260083D01*
X89010519Y-182201852D01*
X88948350Y-182143090D01*
X88891136Y-182083901D01*
X88839022Y-182024391D01*
X88792153Y-181964662D01*
X88750675Y-181904821D01*
X88714732Y-181844971D01*
X88684470Y-181785217D01*
X88660033Y-181725663D01*
X88641568Y-181666415D01*
X88629219Y-181607576D01*
X88623130Y-181549251D01*
X88623448Y-181491545D01*
X88630318Y-181434563D01*
X88643711Y-181379065D01*
X88663389Y-181325767D01*
X88689183Y-181274702D01*
X88720922Y-181225903D01*
X88758438Y-181179401D01*
X88801559Y-181135231D01*
X88903940Y-181054014D01*
X89026706Y-180982515D01*
X89168499Y-180920996D01*
X89327959Y-180869719D01*
X89503727Y-180828948D01*
X89694445Y-180798944D01*
X89898754Y-180779970D01*
X90115293Y-180772288D01*
X90342706Y-180776161D01*
G37*
G36*
X85744381Y-178024899D02*
G01*
X85772389Y-178064164D01*
X85798942Y-178104230D01*
X85824041Y-178145097D01*
X85847685Y-178186766D01*
X85869874Y-178229236D01*
X85890212Y-178271800D01*
X85907830Y-178312814D01*
X85922729Y-178352278D01*
X85929159Y-178371429D01*
X85934909Y-178390192D01*
X85939980Y-178408567D01*
X85944371Y-178426555D01*
X85948082Y-178444155D01*
X85951113Y-178461368D01*
X85953464Y-178478193D01*
X85955136Y-178494631D01*
X85956128Y-178510681D01*
X85956440Y-178526344D01*
X85956072Y-178541619D01*
X85955025Y-178556507D01*
X85953298Y-178571006D01*
X85950891Y-178585119D01*
X85947804Y-178598844D01*
X85944038Y-178612181D01*
X85939592Y-178625131D01*
X85934466Y-178637693D01*
X85928660Y-178649868D01*
X85922174Y-178661655D01*
X85915009Y-178673054D01*
X85907164Y-178684066D01*
X85898639Y-178694691D01*
X85889435Y-178704928D01*
X85879550Y-178714777D01*
X85868986Y-178724239D01*
X85845911Y-178741761D01*
X85820457Y-178757567D01*
X85792625Y-178771657D01*
X85762414Y-178784032D01*
X85729825Y-178794692D01*
X85694858Y-178803635D01*
X85657513Y-178810864D01*
X85617789Y-178816376D01*
X85575687Y-178820173D01*
X85531206Y-178822255D01*
X85484347Y-178822621D01*
X85435110Y-178821271D01*
X85383495Y-178818206D01*
X85329501Y-178813425D01*
X85273129Y-178806928D01*
X85214378Y-178798716D01*
X85167380Y-178791117D01*
X85120393Y-178782543D01*
X85073415Y-178772994D01*
X85026448Y-178762471D01*
X84979491Y-178750973D01*
X84932544Y-178738501D01*
X84885608Y-178725054D01*
X84838681Y-178710632D01*
X84744763Y-178679863D01*
X84650688Y-178647191D01*
X84556457Y-178612614D01*
X84462072Y-178576135D01*
X84333612Y-178319539D01*
X84350860Y-178322149D01*
X84380707Y-178339427D01*
X84414206Y-178357330D01*
X84451355Y-178375858D01*
X84492154Y-178395010D01*
X84536605Y-178414787D01*
X84584706Y-178435189D01*
X84636458Y-178456215D01*
X84691861Y-178477866D01*
X84748035Y-178498567D01*
X84803273Y-178517500D01*
X84857576Y-178534664D01*
X84910943Y-178550061D01*
X84963376Y-178563688D01*
X85014873Y-178575548D01*
X85065435Y-178585639D01*
X85115062Y-178593962D01*
X85151534Y-178599046D01*
X85186782Y-178603078D01*
X85220805Y-178606057D01*
X85253604Y-178607983D01*
X85285178Y-178608857D01*
X85315528Y-178608677D01*
X85344653Y-178607445D01*
X85372554Y-178605160D01*
X85385796Y-178603584D01*
X85398665Y-178601735D01*
X85411159Y-178599613D01*
X85423281Y-178597217D01*
X85435028Y-178594548D01*
X85446402Y-178591606D01*
X85457403Y-178588390D01*
X85468030Y-178584900D01*
X85478283Y-178581138D01*
X85488163Y-178577101D01*
X85497669Y-178572792D01*
X85506802Y-178568208D01*
X85515561Y-178563352D01*
X85523947Y-178558222D01*
X85531959Y-178552818D01*
X85539598Y-178547141D01*
X85547182Y-178541081D01*
X85554324Y-178534710D01*
X85561024Y-178528028D01*
X85567281Y-178521035D01*
X85573097Y-178513731D01*
X85578470Y-178506116D01*
X85583401Y-178498190D01*
X85587890Y-178489954D01*
X85591937Y-178481406D01*
X85595542Y-178472547D01*
X85598704Y-178463378D01*
X85601425Y-178453897D01*
X85603703Y-178444106D01*
X85605539Y-178434004D01*
X85606933Y-178423591D01*
X85607885Y-178412866D01*
X85608265Y-178401672D01*
X85608100Y-178390159D01*
X85607391Y-178378329D01*
X85606136Y-178366182D01*
X85604336Y-178353717D01*
X85601991Y-178340935D01*
X85599102Y-178327836D01*
X85595667Y-178314419D01*
X85591687Y-178300684D01*
X85587162Y-178286632D01*
X85582091Y-178272263D01*
X85576476Y-178257576D01*
X85570316Y-178242572D01*
X85563611Y-178227250D01*
X85556360Y-178211610D01*
X85548565Y-178195654D01*
X84128980Y-177980848D01*
X84065065Y-177853176D01*
X84047131Y-177815824D01*
X84031398Y-177779809D01*
X84017867Y-177745130D01*
X84006536Y-177711787D01*
X83997406Y-177679780D01*
X83995833Y-177672818D01*
X84305129Y-177672818D01*
X84305356Y-177689108D01*
X84306895Y-177706201D01*
X84309746Y-177724098D01*
X84313909Y-177742800D01*
X84319383Y-177762305D01*
X84326170Y-177782615D01*
X84334268Y-177803728D01*
X84343678Y-177825646D01*
X84354400Y-177848368D01*
X85458331Y-178015410D01*
X85444991Y-177994498D01*
X85430823Y-177973849D01*
X85415829Y-177953464D01*
X85400007Y-177933342D01*
X85383359Y-177913483D01*
X85365883Y-177893888D01*
X85347580Y-177874556D01*
X85328450Y-177855488D01*
X85308493Y-177836683D01*
X85287709Y-177818142D01*
X85266097Y-177799864D01*
X85243659Y-177781850D01*
X85220393Y-177764099D01*
X85196300Y-177746611D01*
X85171380Y-177729387D01*
X85145633Y-177712427D01*
X85119063Y-177695939D01*
X85092107Y-177680196D01*
X85064765Y-177665200D01*
X85037037Y-177650949D01*
X85008922Y-177637444D01*
X84980421Y-177624686D01*
X84951534Y-177612673D01*
X84922261Y-177601406D01*
X84892601Y-177590885D01*
X84862555Y-177581110D01*
X84832122Y-177572081D01*
X84801303Y-177563798D01*
X84770098Y-177556261D01*
X84738507Y-177549470D01*
X84706529Y-177543424D01*
X84674165Y-177538125D01*
X84642540Y-177533706D01*
X84612350Y-177530235D01*
X84583593Y-177527714D01*
X84556271Y-177526142D01*
X84530383Y-177525519D01*
X84505929Y-177525845D01*
X84482909Y-177527120D01*
X84461323Y-177529345D01*
X84441171Y-177532518D01*
X84422454Y-177536641D01*
X84413633Y-177539058D01*
X84405171Y-177541712D01*
X84397067Y-177544604D01*
X84389322Y-177547733D01*
X84381935Y-177551099D01*
X84374907Y-177554703D01*
X84368238Y-177558544D01*
X84361927Y-177562622D01*
X84355974Y-177566937D01*
X84350380Y-177571489D01*
X84345145Y-177576279D01*
X84340268Y-177581306D01*
X84331313Y-177591967D01*
X84323670Y-177603433D01*
X84317338Y-177615702D01*
X84312318Y-177628775D01*
X84308610Y-177642652D01*
X84306214Y-177657333D01*
X84305129Y-177672818D01*
X83995833Y-177672818D01*
X83990478Y-177649110D01*
X83987839Y-177634275D01*
X83985750Y-177619775D01*
X83984211Y-177605609D01*
X83983223Y-177591777D01*
X83982785Y-177578280D01*
X83982897Y-177565116D01*
X83983560Y-177552286D01*
X83984772Y-177539790D01*
X83986535Y-177527629D01*
X83988848Y-177515801D01*
X83991711Y-177504308D01*
X83995125Y-177493148D01*
X83999089Y-177482323D01*
X84003603Y-177471832D01*
X84008667Y-177461674D01*
X84014281Y-177451851D01*
X84020446Y-177442362D01*
X84027161Y-177433207D01*
X84034426Y-177424386D01*
X84042241Y-177415899D01*
X84059230Y-177399978D01*
X84078267Y-177385560D01*
X84099352Y-177372644D01*
X84122484Y-177361232D01*
X84147664Y-177351322D01*
X84174891Y-177342915D01*
X84204167Y-177336012D01*
X84235490Y-177330611D01*
X84268860Y-177326712D01*
X84304279Y-177324317D01*
X84341745Y-177323425D01*
X84381258Y-177324035D01*
X84422819Y-177326149D01*
X84466428Y-177329765D01*
X84512085Y-177334884D01*
X84559789Y-177341506D01*
X84612159Y-177350158D01*
X84664050Y-177360193D01*
X84715463Y-177371610D01*
X84766398Y-177384410D01*
X84816853Y-177398593D01*
X84866831Y-177414158D01*
X84916329Y-177431106D01*
X84965350Y-177449437D01*
X85013891Y-177469151D01*
X85061954Y-177490247D01*
X85109539Y-177512726D01*
X85156645Y-177536588D01*
X85203272Y-177561833D01*
X85249421Y-177588460D01*
X85295091Y-177616470D01*
X85340283Y-177645862D01*
X85384292Y-177676315D01*
X85426848Y-177707568D01*
X85467948Y-177739622D01*
X85507594Y-177772478D01*
X85545785Y-177806134D01*
X85582521Y-177840592D01*
X85617802Y-177875851D01*
X85651629Y-177911911D01*
X85684001Y-177948773D01*
X85714918Y-177986435D01*
X85737113Y-178015410D01*
X85744381Y-178024899D01*
G37*
G36*
X79864907Y-182152999D02*
G01*
X80002950Y-182516227D01*
X78795674Y-182278996D01*
X79825488Y-184988752D01*
X79376166Y-184900459D01*
X78346353Y-182190702D01*
X77139077Y-181953472D01*
X77001035Y-181590245D01*
X79864907Y-182152999D01*
G37*
G36*
X72250248Y-175570029D02*
G01*
X72410430Y-175575959D01*
X72564226Y-175587090D01*
X72710786Y-175603185D01*
X72849261Y-175624013D01*
X72978803Y-175649337D01*
X73039958Y-175663612D01*
X73098563Y-175678924D01*
X73154509Y-175695242D01*
X73207692Y-175712539D01*
X73258005Y-175730784D01*
X73305342Y-175749948D01*
X73349596Y-175770002D01*
X73390663Y-175790916D01*
X73428435Y-175812662D01*
X73462808Y-175835210D01*
X73493673Y-175858531D01*
X73520926Y-175882595D01*
X73544461Y-175907373D01*
X73564171Y-175932836D01*
X73579950Y-175958954D01*
X73591692Y-175985699D01*
X73599291Y-176013040D01*
X73602641Y-176040950D01*
X73601657Y-176069062D01*
X73596392Y-176097007D01*
X73586951Y-176124745D01*
X73573435Y-176152236D01*
X73555950Y-176179443D01*
X73534597Y-176206325D01*
X73480701Y-176258961D01*
X73412575Y-176309831D01*
X73331044Y-176358622D01*
X73236933Y-176405021D01*
X73131069Y-176448715D01*
X73014276Y-176489391D01*
X72887380Y-176526737D01*
X72751208Y-176560440D01*
X72606584Y-176590187D01*
X72454335Y-176615665D01*
X72295285Y-176636561D01*
X72130261Y-176652562D01*
X71960088Y-176663356D01*
X71789678Y-176668529D01*
X71623957Y-176668033D01*
X71463775Y-176662103D01*
X71309980Y-176650973D01*
X71163420Y-176634877D01*
X71024945Y-176614050D01*
X70895403Y-176588726D01*
X70834247Y-176574450D01*
X70775643Y-176559139D01*
X70719697Y-176542820D01*
X70666514Y-176525524D01*
X70616201Y-176507279D01*
X70568864Y-176488115D01*
X70524610Y-176468061D01*
X70483543Y-176447146D01*
X70445770Y-176425400D01*
X70411398Y-176402852D01*
X70380533Y-176379532D01*
X70353280Y-176355468D01*
X70329745Y-176330690D01*
X70310035Y-176305227D01*
X70294257Y-176279108D01*
X70282514Y-176252364D01*
X70274915Y-176225022D01*
X70271566Y-176197113D01*
X70272550Y-176169000D01*
X70277814Y-176141056D01*
X70287256Y-176113318D01*
X70300771Y-176085826D01*
X70318256Y-176058619D01*
X70339609Y-176031737D01*
X70393505Y-175979101D01*
X70461631Y-175928231D01*
X70543162Y-175879440D01*
X70637272Y-175833041D01*
X70743137Y-175789347D01*
X70859930Y-175748671D01*
X70986825Y-175711325D01*
X71122998Y-175677622D01*
X71267622Y-175647875D01*
X71419871Y-175622397D01*
X71578921Y-175601501D01*
X71743944Y-175585500D01*
X71914117Y-175574706D01*
X72084527Y-175569533D01*
X72250248Y-175570029D01*
G37*
G36*
X71774799Y-178119009D02*
G01*
X71876322Y-178122226D01*
X71975924Y-178127624D01*
X72073468Y-178135158D01*
X72168814Y-178144785D01*
X72261825Y-178156459D01*
X72352364Y-178170138D01*
X72440291Y-178185776D01*
X72525470Y-178203329D01*
X72607762Y-178222753D01*
X72687030Y-178244004D01*
X72763135Y-178267037D01*
X72835940Y-178291808D01*
X72905307Y-178318273D01*
X72971097Y-178346388D01*
X73033174Y-178376108D01*
X73091398Y-178407389D01*
X73145632Y-178440187D01*
X73195739Y-178474457D01*
X73241580Y-178510155D01*
X73283017Y-178547238D01*
X73319912Y-178585660D01*
X73352128Y-178625377D01*
X73379527Y-178666345D01*
X73401970Y-178708521D01*
X73419320Y-178751858D01*
X73431438Y-178796314D01*
X73438188Y-178841844D01*
X73439427Y-178887855D01*
X73435193Y-178933739D01*
X73425612Y-178979427D01*
X73410814Y-179024852D01*
X73390927Y-179069947D01*
X73366078Y-179114645D01*
X73302009Y-179202577D01*
X73219633Y-179288108D01*
X73119975Y-179370698D01*
X73004059Y-179449808D01*
X72872913Y-179524897D01*
X72727560Y-179595426D01*
X72569026Y-179660854D01*
X72398336Y-179720641D01*
X72216516Y-179774248D01*
X72024591Y-179821135D01*
X71823586Y-179860761D01*
X71614527Y-179892587D01*
X71398439Y-179916072D01*
X71289378Y-179924423D01*
X71181549Y-179930373D01*
X71075089Y-179933964D01*
X70970137Y-179935242D01*
X70866831Y-179934250D01*
X70765307Y-179931033D01*
X70665705Y-179925636D01*
X70568162Y-179918101D01*
X70472815Y-179908475D01*
X70379804Y-179896800D01*
X70289266Y-179883122D01*
X70201338Y-179867484D01*
X70116159Y-179849930D01*
X70033867Y-179830506D01*
X69954599Y-179809255D01*
X69878494Y-179786222D01*
X69805689Y-179761451D01*
X69736322Y-179734986D01*
X69670531Y-179706871D01*
X69608455Y-179677151D01*
X69550230Y-179645870D01*
X69495996Y-179613072D01*
X69445889Y-179578802D01*
X69400048Y-179543104D01*
X69358611Y-179506021D01*
X69321715Y-179467599D01*
X69289499Y-179427882D01*
X69262101Y-179386913D01*
X69239657Y-179344738D01*
X69222307Y-179301400D01*
X69210189Y-179256944D01*
X69203439Y-179211414D01*
X69202200Y-179165403D01*
X69206434Y-179119520D01*
X69216015Y-179073832D01*
X69230813Y-179028407D01*
X69250700Y-178983312D01*
X69275549Y-178938614D01*
X69339619Y-178850682D01*
X69421995Y-178765151D01*
X69521654Y-178682561D01*
X69637569Y-178603451D01*
X69768716Y-178528362D01*
X69914070Y-178457834D01*
X70072604Y-178392406D01*
X70243293Y-178332618D01*
X70425113Y-178279011D01*
X70617038Y-178232125D01*
X70818043Y-178192499D01*
X71027102Y-178160673D01*
X71243190Y-178137188D01*
X71352251Y-178128836D01*
X71460080Y-178122887D01*
X71566540Y-178119295D01*
X71671492Y-178118018D01*
X71774799Y-178119009D01*
G37*
G36*
X74405193Y-179820268D02*
G01*
X74520737Y-179824045D01*
X74634407Y-179830606D01*
X74746054Y-179839888D01*
X74855527Y-179851828D01*
X74962675Y-179866362D01*
X75067348Y-179883429D01*
X75169395Y-179902964D01*
X75268666Y-179924904D01*
X75365010Y-179949188D01*
X75458276Y-179975751D01*
X75548314Y-180004530D01*
X75634974Y-180035463D01*
X75718104Y-180068487D01*
X75797554Y-180103538D01*
X75873174Y-180140553D01*
X75944813Y-180179469D01*
X76012320Y-180220224D01*
X76075545Y-180262754D01*
X76134338Y-180306996D01*
X76188547Y-180352887D01*
X76238022Y-180400364D01*
X76282613Y-180449364D01*
X76322168Y-180499825D01*
X76356538Y-180551682D01*
X76385572Y-180604873D01*
X76409120Y-180659334D01*
X76427029Y-180715004D01*
X76439151Y-180771818D01*
X76445335Y-180829714D01*
X76445440Y-180887934D01*
X76439525Y-180945712D01*
X76427732Y-181002969D01*
X76410203Y-181059626D01*
X76387082Y-181115603D01*
X76358511Y-181170823D01*
X76324634Y-181225207D01*
X76285593Y-181278676D01*
X76192593Y-181382553D01*
X76080652Y-181481826D01*
X75950914Y-181575864D01*
X75804523Y-181664037D01*
X75642621Y-181745716D01*
X75466353Y-181820270D01*
X75276860Y-181887071D01*
X75075286Y-181945488D01*
X74862775Y-181994891D01*
X74640469Y-182034650D01*
X74409512Y-182064137D01*
X74171046Y-182082720D01*
X74050788Y-182087673D01*
X73931950Y-182089653D01*
X73814684Y-182088723D01*
X73699141Y-182084946D01*
X73585470Y-182078385D01*
X73473823Y-182069103D01*
X73364350Y-182057163D01*
X73257202Y-182042629D01*
X73152529Y-182025562D01*
X73050482Y-182006027D01*
X72951211Y-181984087D01*
X72854867Y-181959803D01*
X72761601Y-181933240D01*
X72671563Y-181904461D01*
X72584903Y-181873528D01*
X72501773Y-181840505D01*
X72422322Y-181805454D01*
X72346702Y-181768439D01*
X72275063Y-181729522D01*
X72207556Y-181688768D01*
X72144331Y-181646238D01*
X72085538Y-181601996D01*
X72031329Y-181556105D01*
X71981854Y-181508628D01*
X71937263Y-181459627D01*
X71897707Y-181409167D01*
X71863337Y-181357310D01*
X71834303Y-181304119D01*
X71810756Y-181249658D01*
X71792846Y-181193988D01*
X71780724Y-181137174D01*
X71774541Y-181079278D01*
X71774435Y-181021057D01*
X71780351Y-180963279D01*
X71792144Y-180906023D01*
X71809673Y-180849366D01*
X71832794Y-180793388D01*
X71861364Y-180738168D01*
X71895242Y-180683785D01*
X71934282Y-180630316D01*
X72027283Y-180526438D01*
X72139225Y-180427166D01*
X72268962Y-180333128D01*
X72415354Y-180244955D01*
X72577255Y-180163276D01*
X72753524Y-180088721D01*
X72943017Y-180021920D01*
X73144591Y-179963503D01*
X73357103Y-179914100D01*
X73579409Y-179874340D01*
X73810366Y-179844854D01*
X74048831Y-179826271D01*
X74169090Y-179821318D01*
X74287927Y-179819338D01*
X74405193Y-179820268D01*
G37*
G36*
X79955146Y-184664305D02*
G01*
X80116048Y-184677451D01*
X80274496Y-184695709D01*
X80430301Y-184718937D01*
X80583276Y-184746994D01*
X80733231Y-184779737D01*
X80879979Y-184817026D01*
X81023331Y-184858718D01*
X81163099Y-184904673D01*
X81299094Y-184954748D01*
X81431129Y-185008801D01*
X81559014Y-185066692D01*
X81682562Y-185128278D01*
X81801584Y-185193419D01*
X81915892Y-185261972D01*
X82025298Y-185333796D01*
X82129612Y-185408749D01*
X82228648Y-185486689D01*
X82322216Y-185567476D01*
X82410128Y-185650966D01*
X82492195Y-185737020D01*
X82568231Y-185825495D01*
X82638045Y-185916249D01*
X82701450Y-186009142D01*
X82758258Y-186104031D01*
X82808280Y-186200774D01*
X82851327Y-186299231D01*
X82887212Y-186399259D01*
X82915746Y-186500718D01*
X82936741Y-186603464D01*
X82950009Y-186707358D01*
X82955360Y-186812256D01*
X82952607Y-186918018D01*
X82941709Y-187023250D01*
X82922885Y-187126576D01*
X82896342Y-187227879D01*
X82862284Y-187327044D01*
X82820915Y-187423955D01*
X82772442Y-187518495D01*
X82717068Y-187610549D01*
X82655000Y-187700000D01*
X82586441Y-187786733D01*
X82511598Y-187870632D01*
X82343876Y-188029462D01*
X82153474Y-188175561D01*
X81942032Y-188308003D01*
X81711191Y-188425859D01*
X81462590Y-188528200D01*
X81197869Y-188614098D01*
X80918668Y-188682626D01*
X80626627Y-188732855D01*
X80323387Y-188763858D01*
X80010587Y-188774705D01*
X79689868Y-188764469D01*
X79528966Y-188751323D01*
X79370518Y-188733064D01*
X79214713Y-188709836D01*
X79061738Y-188681780D01*
X78911782Y-188649036D01*
X78765035Y-188611747D01*
X78621682Y-188570055D01*
X78481914Y-188524101D01*
X78345919Y-188474026D01*
X78213884Y-188419972D01*
X78085999Y-188362081D01*
X77962451Y-188300495D01*
X77843429Y-188235354D01*
X77729121Y-188166801D01*
X77619715Y-188094977D01*
X77515401Y-188020024D01*
X77416365Y-187942084D01*
X77322798Y-187861297D01*
X77234886Y-187777806D01*
X77152818Y-187691753D01*
X77076782Y-187603278D01*
X77006968Y-187512523D01*
X76943563Y-187419631D01*
X76886755Y-187324742D01*
X76836733Y-187227999D01*
X76793686Y-187129542D01*
X76757800Y-187029514D01*
X76729266Y-186928055D01*
X76708271Y-186825309D01*
X76695004Y-186721416D01*
X76689652Y-186616517D01*
X76692405Y-186510755D01*
X76703303Y-186405523D01*
X76722127Y-186302197D01*
X76748671Y-186200894D01*
X76782729Y-186101729D01*
X76824098Y-186004818D01*
X76872571Y-185910278D01*
X76927945Y-185818224D01*
X76990013Y-185728773D01*
X77058572Y-185642039D01*
X77133415Y-185558141D01*
X77301137Y-185399311D01*
X77491539Y-185253211D01*
X77702981Y-185120770D01*
X77933822Y-185002915D01*
X78182423Y-184900574D01*
X78447145Y-184814675D01*
X78726345Y-184746147D01*
X79018386Y-184695918D01*
X79321626Y-184664916D01*
X79634426Y-184654069D01*
X79955146Y-184664305D01*
G37*
G36*
X69621798Y-176782298D02*
G01*
X69800875Y-176789774D01*
X69971901Y-176803847D01*
X70133877Y-176824256D01*
X70211158Y-176836756D01*
X70285802Y-176850742D01*
X70357683Y-176866182D01*
X70426676Y-176883044D01*
X70492657Y-176901295D01*
X70555500Y-176920902D01*
X70615080Y-176941833D01*
X70671273Y-176964056D01*
X70723952Y-176987537D01*
X70772995Y-177012245D01*
X70818274Y-177038147D01*
X70859665Y-177065210D01*
X70897044Y-177093402D01*
X70930285Y-177122691D01*
X70959264Y-177153043D01*
X70983854Y-177184426D01*
X71003932Y-177216809D01*
X71019372Y-177250157D01*
X71030049Y-177284439D01*
X71035838Y-177319623D01*
X71036616Y-177355250D01*
X71032420Y-177390849D01*
X71023366Y-177426365D01*
X71009573Y-177461745D01*
X70991157Y-177496935D01*
X70968234Y-177531881D01*
X70909339Y-177600825D01*
X70833824Y-177668145D01*
X70742624Y-177733409D01*
X70636675Y-177796187D01*
X70516914Y-177856047D01*
X70384277Y-177912557D01*
X70239698Y-177965285D01*
X70084115Y-178013801D01*
X69918462Y-178057673D01*
X69743677Y-178096468D01*
X69560695Y-178129757D01*
X69370451Y-178157106D01*
X69173883Y-178178085D01*
X68976655Y-178191960D01*
X68784478Y-178198458D01*
X68598351Y-178197839D01*
X68419275Y-178190362D01*
X68248249Y-178176290D01*
X68086274Y-178155880D01*
X68008992Y-178143381D01*
X67934349Y-178129395D01*
X67862468Y-178113954D01*
X67793474Y-178097093D01*
X67727494Y-178078842D01*
X67664651Y-178059235D01*
X67605071Y-178038304D01*
X67548878Y-178016081D01*
X67496198Y-177992599D01*
X67447156Y-177967892D01*
X67401877Y-177941990D01*
X67360485Y-177914926D01*
X67323106Y-177886734D01*
X67289865Y-177857446D01*
X67260887Y-177827094D01*
X67236296Y-177795710D01*
X67216218Y-177763328D01*
X67200778Y-177729979D01*
X67190101Y-177695697D01*
X67184312Y-177660514D01*
X67183534Y-177624887D01*
X67187730Y-177589288D01*
X67196784Y-177553772D01*
X67210577Y-177518392D01*
X67228994Y-177483202D01*
X67251916Y-177448256D01*
X67310811Y-177379312D01*
X67386327Y-177311992D01*
X67477526Y-177246728D01*
X67583475Y-177183950D01*
X67703236Y-177124090D01*
X67835873Y-177067580D01*
X67980452Y-177014852D01*
X68136035Y-176966336D01*
X68301687Y-176922464D01*
X68476472Y-176883669D01*
X68659454Y-176850380D01*
X68849697Y-176823031D01*
X69046266Y-176802051D01*
X69243494Y-176788177D01*
X69435671Y-176781679D01*
X69621798Y-176782298D01*
G37*
G36*
X76183595Y-175402683D02*
G01*
X76340499Y-175410466D01*
X76491940Y-175423121D01*
X76637126Y-175440391D01*
X76775261Y-175462017D01*
X76905552Y-175487742D01*
X76967508Y-175502060D01*
X77027204Y-175517307D01*
X77084543Y-175533448D01*
X77139423Y-175550453D01*
X77191747Y-175568289D01*
X77241415Y-175586924D01*
X77288327Y-175606325D01*
X77332385Y-175626461D01*
X77373489Y-175647298D01*
X77411539Y-175668804D01*
X77446436Y-175690949D01*
X77478082Y-175713698D01*
X77506377Y-175737020D01*
X77531221Y-175760883D01*
X77552515Y-175785253D01*
X77570161Y-175810100D01*
X77584058Y-175835391D01*
X77594107Y-175861093D01*
X77600209Y-175887174D01*
X77602265Y-175913603D01*
X77600209Y-175940031D01*
X77594107Y-175966112D01*
X77584058Y-175991814D01*
X77570161Y-176017105D01*
X77531221Y-176066323D01*
X77478082Y-176113508D01*
X77411539Y-176158401D01*
X77332385Y-176200745D01*
X77241415Y-176240281D01*
X77139423Y-176276752D01*
X77027204Y-176309899D01*
X76905552Y-176339464D01*
X76775261Y-176365188D01*
X76637126Y-176386815D01*
X76491940Y-176404084D01*
X76340499Y-176416740D01*
X76183595Y-176424522D01*
X76022025Y-176427173D01*
X75860455Y-176424522D01*
X75703552Y-176416740D01*
X75552110Y-176404084D01*
X75406925Y-176386815D01*
X75268789Y-176365188D01*
X75138498Y-176339464D01*
X75076543Y-176325145D01*
X75016846Y-176309899D01*
X74959508Y-176293757D01*
X74904627Y-176276752D01*
X74852303Y-176258916D01*
X74802635Y-176240281D01*
X74755723Y-176220880D01*
X74711665Y-176200745D01*
X74670562Y-176179908D01*
X74632512Y-176158401D01*
X74597614Y-176136257D01*
X74565968Y-176113508D01*
X74537674Y-176090185D01*
X74512830Y-176066323D01*
X74491535Y-176041952D01*
X74473890Y-176017105D01*
X74459993Y-175991814D01*
X74449944Y-175966112D01*
X74443841Y-175940031D01*
X74441785Y-175913603D01*
X74443841Y-175887174D01*
X74449944Y-175861093D01*
X74459993Y-175835391D01*
X74473890Y-175810100D01*
X74512830Y-175760883D01*
X74565968Y-175713698D01*
X74632512Y-175668804D01*
X74711665Y-175626461D01*
X74802635Y-175586924D01*
X74904627Y-175550453D01*
X75016846Y-175517307D01*
X75138498Y-175487742D01*
X75268789Y-175462017D01*
X75406925Y-175440391D01*
X75552110Y-175423121D01*
X75703552Y-175410466D01*
X75860455Y-175402683D01*
X76022025Y-175400032D01*
X76183595Y-175402683D01*
G37*
G36*
X72471545Y-183300910D02*
G01*
X72643712Y-183308732D01*
X72812729Y-183321848D01*
X72978343Y-183340167D01*
X73140299Y-183363595D01*
X73298342Y-183392041D01*
X73452219Y-183425412D01*
X73601676Y-183463616D01*
X73746457Y-183506560D01*
X73886310Y-183554152D01*
X74020978Y-183606300D01*
X74150210Y-183662911D01*
X74273749Y-183723892D01*
X74391342Y-183789153D01*
X74502735Y-183858599D01*
X74607673Y-183932139D01*
X74705902Y-184009680D01*
X74797168Y-184091130D01*
X74881217Y-184176397D01*
X74957793Y-184265388D01*
X75026644Y-184358011D01*
X75087515Y-184454173D01*
X75140151Y-184553783D01*
X75184298Y-184656747D01*
X75219703Y-184762973D01*
X75246110Y-184872370D01*
X75263084Y-184983516D01*
X75270491Y-185094938D01*
X75268532Y-185206457D01*
X75257410Y-185317898D01*
X75237324Y-185429082D01*
X75208477Y-185539833D01*
X75171070Y-185649975D01*
X75125304Y-185759330D01*
X75071380Y-185867721D01*
X75009499Y-185974972D01*
X74939864Y-186080906D01*
X74862675Y-186185345D01*
X74686440Y-186389033D01*
X74482405Y-186584621D01*
X74252180Y-186770693D01*
X73997376Y-186945835D01*
X73719603Y-187108631D01*
X73420471Y-187257666D01*
X73101591Y-187391525D01*
X72764572Y-187508793D01*
X72411026Y-187608054D01*
X72042562Y-187687893D01*
X71855468Y-187719720D01*
X71669744Y-187745605D01*
X71485645Y-187765642D01*
X71303423Y-187779922D01*
X71123333Y-187788538D01*
X70945631Y-187791582D01*
X70770569Y-187789147D01*
X70598402Y-187781325D01*
X70429385Y-187768209D01*
X70263771Y-187749890D01*
X70101815Y-187726462D01*
X69943772Y-187698016D01*
X69789895Y-187664645D01*
X69640438Y-187626441D01*
X69495657Y-187583497D01*
X69355804Y-187535905D01*
X69221135Y-187483757D01*
X69091904Y-187427146D01*
X68968364Y-187366164D01*
X68850771Y-187300904D01*
X68739378Y-187231458D01*
X68634440Y-187157918D01*
X68536211Y-187080377D01*
X68444945Y-186998926D01*
X68360897Y-186913660D01*
X68284320Y-186824669D01*
X68215469Y-186732046D01*
X68154599Y-186635883D01*
X68101962Y-186536274D01*
X68057815Y-186433310D01*
X68022411Y-186327084D01*
X67996003Y-186217687D01*
X67979029Y-186106541D01*
X67971622Y-185995119D01*
X67973581Y-185883600D01*
X67984703Y-185772159D01*
X68004789Y-185660975D01*
X68033636Y-185550224D01*
X68071043Y-185440082D01*
X68116809Y-185330727D01*
X68170733Y-185222336D01*
X68232613Y-185115085D01*
X68302249Y-185009151D01*
X68379438Y-184904712D01*
X68555673Y-184701024D01*
X68759708Y-184505437D01*
X68989933Y-184319364D01*
X69244737Y-184144222D01*
X69522511Y-183981426D01*
X69821643Y-183832391D01*
X70140523Y-183698532D01*
X70477542Y-183581264D01*
X70831089Y-183482003D01*
X71199554Y-183402164D01*
X71386647Y-183370338D01*
X71572370Y-183344452D01*
X71756470Y-183324415D01*
X71938692Y-183310135D01*
X72118781Y-183301519D01*
X72296484Y-183298475D01*
X72471545Y-183300910D01*
G37*
G36*
X84249231Y-183014521D02*
G01*
X84368447Y-183328216D01*
X83925927Y-183241262D01*
X84855352Y-185686853D01*
X85297869Y-185773807D01*
X85417085Y-186087503D01*
X84082727Y-185825302D01*
X83963510Y-185511606D01*
X84406030Y-185598560D01*
X83476606Y-183152969D01*
X83034089Y-183066015D01*
X82914872Y-182752319D01*
X84249231Y-183014521D01*
G37*
D12*
X92251190Y-56712200D02*
X92108333Y-56759819D01*
X92108333Y-56759819D02*
X91870238Y-56759819D01*
X91870238Y-56759819D02*
X91775000Y-56712200D01*
X91775000Y-56712200D02*
X91727381Y-56664580D01*
X91727381Y-56664580D02*
X91679762Y-56569342D01*
X91679762Y-56569342D02*
X91679762Y-56474104D01*
X91679762Y-56474104D02*
X91727381Y-56378866D01*
X91727381Y-56378866D02*
X91775000Y-56331247D01*
X91775000Y-56331247D02*
X91870238Y-56283628D01*
X91870238Y-56283628D02*
X92060714Y-56236009D01*
X92060714Y-56236009D02*
X92155952Y-56188390D01*
X92155952Y-56188390D02*
X92203571Y-56140771D01*
X92203571Y-56140771D02*
X92251190Y-56045533D01*
X92251190Y-56045533D02*
X92251190Y-55950295D01*
X92251190Y-55950295D02*
X92203571Y-55855057D01*
X92203571Y-55855057D02*
X92155952Y-55807438D01*
X92155952Y-55807438D02*
X92060714Y-55759819D01*
X92060714Y-55759819D02*
X91822619Y-55759819D01*
X91822619Y-55759819D02*
X91679762Y-55807438D01*
X91394047Y-55759819D02*
X90822619Y-55759819D01*
X91108333Y-56759819D02*
X91108333Y-55759819D01*
X90536904Y-56474104D02*
X90060714Y-56474104D01*
X90632142Y-56759819D02*
X90298809Y-55759819D01*
X90298809Y-55759819D02*
X89965476Y-56759819D01*
X89060714Y-56759819D02*
X89394047Y-56283628D01*
X89632142Y-56759819D02*
X89632142Y-55759819D01*
X89632142Y-55759819D02*
X89251190Y-55759819D01*
X89251190Y-55759819D02*
X89155952Y-55807438D01*
X89155952Y-55807438D02*
X89108333Y-55855057D01*
X89108333Y-55855057D02*
X89060714Y-55950295D01*
X89060714Y-55950295D02*
X89060714Y-56093152D01*
X89060714Y-56093152D02*
X89108333Y-56188390D01*
X89108333Y-56188390D02*
X89155952Y-56236009D01*
X89155952Y-56236009D02*
X89251190Y-56283628D01*
X89251190Y-56283628D02*
X89632142Y-56283628D01*
X88774999Y-55759819D02*
X88203571Y-55759819D01*
X88489285Y-56759819D02*
X88489285Y-55759819D01*
X73193333Y-126609819D02*
X73526666Y-126133628D01*
X73764761Y-126609819D02*
X73764761Y-125609819D01*
X73764761Y-125609819D02*
X73383809Y-125609819D01*
X73383809Y-125609819D02*
X73288571Y-125657438D01*
X73288571Y-125657438D02*
X73240952Y-125705057D01*
X73240952Y-125705057D02*
X73193333Y-125800295D01*
X73193333Y-125800295D02*
X73193333Y-125943152D01*
X73193333Y-125943152D02*
X73240952Y-126038390D01*
X73240952Y-126038390D02*
X73288571Y-126086009D01*
X73288571Y-126086009D02*
X73383809Y-126133628D01*
X73383809Y-126133628D02*
X73764761Y-126133628D01*
X72764761Y-126609819D02*
X72764761Y-125609819D01*
X71764762Y-125657438D02*
X71860000Y-125609819D01*
X71860000Y-125609819D02*
X72002857Y-125609819D01*
X72002857Y-125609819D02*
X72145714Y-125657438D01*
X72145714Y-125657438D02*
X72240952Y-125752676D01*
X72240952Y-125752676D02*
X72288571Y-125847914D01*
X72288571Y-125847914D02*
X72336190Y-126038390D01*
X72336190Y-126038390D02*
X72336190Y-126181247D01*
X72336190Y-126181247D02*
X72288571Y-126371723D01*
X72288571Y-126371723D02*
X72240952Y-126466961D01*
X72240952Y-126466961D02*
X72145714Y-126562200D01*
X72145714Y-126562200D02*
X72002857Y-126609819D01*
X72002857Y-126609819D02*
X71907619Y-126609819D01*
X71907619Y-126609819D02*
X71764762Y-126562200D01*
X71764762Y-126562200D02*
X71717143Y-126514580D01*
X71717143Y-126514580D02*
X71717143Y-126181247D01*
X71717143Y-126181247D02*
X71907619Y-126181247D01*
X71288571Y-126609819D02*
X71288571Y-125609819D01*
X71288571Y-126086009D02*
X70717143Y-126086009D01*
X70717143Y-126609819D02*
X70717143Y-125609819D01*
X70383809Y-125609819D02*
X69812381Y-125609819D01*
X70098095Y-126609819D02*
X70098095Y-125609819D01*
X108991428Y-157089819D02*
X109467618Y-157089819D01*
X109467618Y-157089819D02*
X109467618Y-156089819D01*
X108705713Y-157042200D02*
X108562856Y-157089819D01*
X108562856Y-157089819D02*
X108324761Y-157089819D01*
X108324761Y-157089819D02*
X108229523Y-157042200D01*
X108229523Y-157042200D02*
X108181904Y-156994580D01*
X108181904Y-156994580D02*
X108134285Y-156899342D01*
X108134285Y-156899342D02*
X108134285Y-156804104D01*
X108134285Y-156804104D02*
X108181904Y-156708866D01*
X108181904Y-156708866D02*
X108229523Y-156661247D01*
X108229523Y-156661247D02*
X108324761Y-156613628D01*
X108324761Y-156613628D02*
X108515237Y-156566009D01*
X108515237Y-156566009D02*
X108610475Y-156518390D01*
X108610475Y-156518390D02*
X108658094Y-156470771D01*
X108658094Y-156470771D02*
X108705713Y-156375533D01*
X108705713Y-156375533D02*
X108705713Y-156280295D01*
X108705713Y-156280295D02*
X108658094Y-156185057D01*
X108658094Y-156185057D02*
X108610475Y-156137438D01*
X108610475Y-156137438D02*
X108515237Y-156089819D01*
X108515237Y-156089819D02*
X108277142Y-156089819D01*
X108277142Y-156089819D02*
X108134285Y-156137438D01*
X106991428Y-156042200D02*
X107848570Y-157327914D01*
X106181904Y-157089819D02*
X106658094Y-157089819D01*
X106658094Y-157089819D02*
X106658094Y-156089819D01*
X105943808Y-156089819D02*
X105324761Y-156089819D01*
X105324761Y-156089819D02*
X105658094Y-156470771D01*
X105658094Y-156470771D02*
X105515237Y-156470771D01*
X105515237Y-156470771D02*
X105419999Y-156518390D01*
X105419999Y-156518390D02*
X105372380Y-156566009D01*
X105372380Y-156566009D02*
X105324761Y-156661247D01*
X105324761Y-156661247D02*
X105324761Y-156899342D01*
X105324761Y-156899342D02*
X105372380Y-156994580D01*
X105372380Y-156994580D02*
X105419999Y-157042200D01*
X105419999Y-157042200D02*
X105515237Y-157089819D01*
X105515237Y-157089819D02*
X105800951Y-157089819D01*
X105800951Y-157089819D02*
X105896189Y-157042200D01*
X105896189Y-157042200D02*
X105943808Y-156994580D01*
X72907380Y-55807438D02*
X73002618Y-55759819D01*
X73002618Y-55759819D02*
X73145475Y-55759819D01*
X73145475Y-55759819D02*
X73288332Y-55807438D01*
X73288332Y-55807438D02*
X73383570Y-55902676D01*
X73383570Y-55902676D02*
X73431189Y-55997914D01*
X73431189Y-55997914D02*
X73478808Y-56188390D01*
X73478808Y-56188390D02*
X73478808Y-56331247D01*
X73478808Y-56331247D02*
X73431189Y-56521723D01*
X73431189Y-56521723D02*
X73383570Y-56616961D01*
X73383570Y-56616961D02*
X73288332Y-56712200D01*
X73288332Y-56712200D02*
X73145475Y-56759819D01*
X73145475Y-56759819D02*
X73050237Y-56759819D01*
X73050237Y-56759819D02*
X72907380Y-56712200D01*
X72907380Y-56712200D02*
X72859761Y-56664580D01*
X72859761Y-56664580D02*
X72859761Y-56331247D01*
X72859761Y-56331247D02*
X73050237Y-56331247D01*
X72431189Y-55759819D02*
X72431189Y-56569342D01*
X72431189Y-56569342D02*
X72383570Y-56664580D01*
X72383570Y-56664580D02*
X72335951Y-56712200D01*
X72335951Y-56712200D02*
X72240713Y-56759819D01*
X72240713Y-56759819D02*
X72050237Y-56759819D01*
X72050237Y-56759819D02*
X71954999Y-56712200D01*
X71954999Y-56712200D02*
X71907380Y-56664580D01*
X71907380Y-56664580D02*
X71859761Y-56569342D01*
X71859761Y-56569342D02*
X71859761Y-55759819D01*
X71383570Y-56759819D02*
X71383570Y-55759819D01*
X70907380Y-56759819D02*
X70907380Y-55759819D01*
X70907380Y-55759819D02*
X70669285Y-55759819D01*
X70669285Y-55759819D02*
X70526428Y-55807438D01*
X70526428Y-55807438D02*
X70431190Y-55902676D01*
X70431190Y-55902676D02*
X70383571Y-55997914D01*
X70383571Y-55997914D02*
X70335952Y-56188390D01*
X70335952Y-56188390D02*
X70335952Y-56331247D01*
X70335952Y-56331247D02*
X70383571Y-56521723D01*
X70383571Y-56521723D02*
X70431190Y-56616961D01*
X70431190Y-56616961D02*
X70526428Y-56712200D01*
X70526428Y-56712200D02*
X70669285Y-56759819D01*
X70669285Y-56759819D02*
X70907380Y-56759819D01*
X69907380Y-56236009D02*
X69574047Y-56236009D01*
X69431190Y-56759819D02*
X69907380Y-56759819D01*
X69907380Y-56759819D02*
X69907380Y-55759819D01*
X69907380Y-55759819D02*
X69431190Y-55759819D01*
X68288333Y-55712200D02*
X69145475Y-56997914D01*
X67954999Y-56759819D02*
X67954999Y-55759819D01*
X67954999Y-55759819D02*
X67574047Y-55759819D01*
X67574047Y-55759819D02*
X67478809Y-55807438D01*
X67478809Y-55807438D02*
X67431190Y-55855057D01*
X67431190Y-55855057D02*
X67383571Y-55950295D01*
X67383571Y-55950295D02*
X67383571Y-56093152D01*
X67383571Y-56093152D02*
X67431190Y-56188390D01*
X67431190Y-56188390D02*
X67478809Y-56236009D01*
X67478809Y-56236009D02*
X67574047Y-56283628D01*
X67574047Y-56283628D02*
X67954999Y-56283628D01*
X67002618Y-56712200D02*
X66859761Y-56759819D01*
X66859761Y-56759819D02*
X66621666Y-56759819D01*
X66621666Y-56759819D02*
X66526428Y-56712200D01*
X66526428Y-56712200D02*
X66478809Y-56664580D01*
X66478809Y-56664580D02*
X66431190Y-56569342D01*
X66431190Y-56569342D02*
X66431190Y-56474104D01*
X66431190Y-56474104D02*
X66478809Y-56378866D01*
X66478809Y-56378866D02*
X66526428Y-56331247D01*
X66526428Y-56331247D02*
X66621666Y-56283628D01*
X66621666Y-56283628D02*
X66812142Y-56236009D01*
X66812142Y-56236009D02*
X66907380Y-56188390D01*
X66907380Y-56188390D02*
X66954999Y-56140771D01*
X66954999Y-56140771D02*
X67002618Y-56045533D01*
X67002618Y-56045533D02*
X67002618Y-55950295D01*
X67002618Y-55950295D02*
X66954999Y-55855057D01*
X66954999Y-55855057D02*
X66907380Y-55807438D01*
X66907380Y-55807438D02*
X66812142Y-55759819D01*
X66812142Y-55759819D02*
X66574047Y-55759819D01*
X66574047Y-55759819D02*
X66431190Y-55807438D01*
X238023428Y-130673819D02*
X238356761Y-130197628D01*
X238594856Y-130673819D02*
X238594856Y-129673819D01*
X238594856Y-129673819D02*
X238213904Y-129673819D01*
X238213904Y-129673819D02*
X238118666Y-129721438D01*
X238118666Y-129721438D02*
X238071047Y-129769057D01*
X238071047Y-129769057D02*
X238023428Y-129864295D01*
X238023428Y-129864295D02*
X238023428Y-130007152D01*
X238023428Y-130007152D02*
X238071047Y-130102390D01*
X238071047Y-130102390D02*
X238118666Y-130150009D01*
X238118666Y-130150009D02*
X238213904Y-130197628D01*
X238213904Y-130197628D02*
X238594856Y-130197628D01*
X237737713Y-129673819D02*
X237166285Y-129673819D01*
X237451999Y-130673819D02*
X237451999Y-129673819D01*
X236118666Y-129626200D02*
X236975808Y-130911914D01*
X235213904Y-130673819D02*
X235547237Y-130197628D01*
X235785332Y-130673819D02*
X235785332Y-129673819D01*
X235785332Y-129673819D02*
X235404380Y-129673819D01*
X235404380Y-129673819D02*
X235309142Y-129721438D01*
X235309142Y-129721438D02*
X235261523Y-129769057D01*
X235261523Y-129769057D02*
X235213904Y-129864295D01*
X235213904Y-129864295D02*
X235213904Y-130007152D01*
X235213904Y-130007152D02*
X235261523Y-130102390D01*
X235261523Y-130102390D02*
X235309142Y-130150009D01*
X235309142Y-130150009D02*
X235404380Y-130197628D01*
X235404380Y-130197628D02*
X235785332Y-130197628D01*
X234832951Y-129769057D02*
X234785332Y-129721438D01*
X234785332Y-129721438D02*
X234690094Y-129673819D01*
X234690094Y-129673819D02*
X234451999Y-129673819D01*
X234451999Y-129673819D02*
X234356761Y-129721438D01*
X234356761Y-129721438D02*
X234309142Y-129769057D01*
X234309142Y-129769057D02*
X234261523Y-129864295D01*
X234261523Y-129864295D02*
X234261523Y-129959533D01*
X234261523Y-129959533D02*
X234309142Y-130102390D01*
X234309142Y-130102390D02*
X234880570Y-130673819D01*
X234880570Y-130673819D02*
X234261523Y-130673819D01*
X92277139Y-190809789D02*
X92277139Y-189809789D01*
X91848568Y-190809789D02*
X91848568Y-190285979D01*
X91848568Y-190285979D02*
X91896187Y-190190741D01*
X91896187Y-190190741D02*
X91991425Y-190143122D01*
X91991425Y-190143122D02*
X92134282Y-190143122D01*
X92134282Y-190143122D02*
X92229520Y-190190741D01*
X92229520Y-190190741D02*
X92277139Y-190238360D01*
X91515234Y-190143122D02*
X91134282Y-190143122D01*
X91372377Y-189809789D02*
X91372377Y-190666931D01*
X91372377Y-190666931D02*
X91324758Y-190762170D01*
X91324758Y-190762170D02*
X91229520Y-190809789D01*
X91229520Y-190809789D02*
X91134282Y-190809789D01*
X90943805Y-190143122D02*
X90562853Y-190143122D01*
X90800948Y-189809789D02*
X90800948Y-190666931D01*
X90800948Y-190666931D02*
X90753329Y-190762170D01*
X90753329Y-190762170D02*
X90658091Y-190809789D01*
X90658091Y-190809789D02*
X90562853Y-190809789D01*
X90229519Y-190143122D02*
X90229519Y-191143122D01*
X90229519Y-190190741D02*
X90134281Y-190143122D01*
X90134281Y-190143122D02*
X89943805Y-190143122D01*
X89943805Y-190143122D02*
X89848567Y-190190741D01*
X89848567Y-190190741D02*
X89800948Y-190238360D01*
X89800948Y-190238360D02*
X89753329Y-190333598D01*
X89753329Y-190333598D02*
X89753329Y-190619312D01*
X89753329Y-190619312D02*
X89800948Y-190714550D01*
X89800948Y-190714550D02*
X89848567Y-190762170D01*
X89848567Y-190762170D02*
X89943805Y-190809789D01*
X89943805Y-190809789D02*
X90134281Y-190809789D01*
X90134281Y-190809789D02*
X90229519Y-190762170D01*
X89372376Y-190762170D02*
X89277138Y-190809789D01*
X89277138Y-190809789D02*
X89086662Y-190809789D01*
X89086662Y-190809789D02*
X88991424Y-190762170D01*
X88991424Y-190762170D02*
X88943805Y-190666931D01*
X88943805Y-190666931D02*
X88943805Y-190619312D01*
X88943805Y-190619312D02*
X88991424Y-190524074D01*
X88991424Y-190524074D02*
X89086662Y-190476455D01*
X89086662Y-190476455D02*
X89229519Y-190476455D01*
X89229519Y-190476455D02*
X89324757Y-190428836D01*
X89324757Y-190428836D02*
X89372376Y-190333598D01*
X89372376Y-190333598D02*
X89372376Y-190285979D01*
X89372376Y-190285979D02*
X89324757Y-190190741D01*
X89324757Y-190190741D02*
X89229519Y-190143122D01*
X89229519Y-190143122D02*
X89086662Y-190143122D01*
X89086662Y-190143122D02*
X88991424Y-190190741D01*
X88515233Y-190714550D02*
X88467614Y-190762170D01*
X88467614Y-190762170D02*
X88515233Y-190809789D01*
X88515233Y-190809789D02*
X88562852Y-190762170D01*
X88562852Y-190762170D02*
X88515233Y-190714550D01*
X88515233Y-190714550D02*
X88515233Y-190809789D01*
X88515233Y-190190741D02*
X88467614Y-190238360D01*
X88467614Y-190238360D02*
X88515233Y-190285979D01*
X88515233Y-190285979D02*
X88562852Y-190238360D01*
X88562852Y-190238360D02*
X88515233Y-190190741D01*
X88515233Y-190190741D02*
X88515233Y-190285979D01*
X87324758Y-189762170D02*
X88181900Y-191047884D01*
X86277139Y-189762170D02*
X87134281Y-191047884D01*
X85515234Y-190143122D02*
X85515234Y-190952646D01*
X85515234Y-190952646D02*
X85562853Y-191047884D01*
X85562853Y-191047884D02*
X85610472Y-191095503D01*
X85610472Y-191095503D02*
X85705710Y-191143122D01*
X85705710Y-191143122D02*
X85848567Y-191143122D01*
X85848567Y-191143122D02*
X85943805Y-191095503D01*
X85515234Y-190762170D02*
X85610472Y-190809789D01*
X85610472Y-190809789D02*
X85800948Y-190809789D01*
X85800948Y-190809789D02*
X85896186Y-190762170D01*
X85896186Y-190762170D02*
X85943805Y-190714550D01*
X85943805Y-190714550D02*
X85991424Y-190619312D01*
X85991424Y-190619312D02*
X85991424Y-190333598D01*
X85991424Y-190333598D02*
X85943805Y-190238360D01*
X85943805Y-190238360D02*
X85896186Y-190190741D01*
X85896186Y-190190741D02*
X85800948Y-190143122D01*
X85800948Y-190143122D02*
X85610472Y-190143122D01*
X85610472Y-190143122D02*
X85515234Y-190190741D01*
X85039043Y-190809789D02*
X85039043Y-190143122D01*
X85039043Y-189809789D02*
X85086662Y-189857408D01*
X85086662Y-189857408D02*
X85039043Y-189905027D01*
X85039043Y-189905027D02*
X84991424Y-189857408D01*
X84991424Y-189857408D02*
X85039043Y-189809789D01*
X85039043Y-189809789D02*
X85039043Y-189905027D01*
X84705710Y-190143122D02*
X84324758Y-190143122D01*
X84562853Y-189809789D02*
X84562853Y-190666931D01*
X84562853Y-190666931D02*
X84515234Y-190762170D01*
X84515234Y-190762170D02*
X84419996Y-190809789D01*
X84419996Y-190809789D02*
X84324758Y-190809789D01*
X83991424Y-190809789D02*
X83991424Y-189809789D01*
X83562853Y-190809789D02*
X83562853Y-190285979D01*
X83562853Y-190285979D02*
X83610472Y-190190741D01*
X83610472Y-190190741D02*
X83705710Y-190143122D01*
X83705710Y-190143122D02*
X83848567Y-190143122D01*
X83848567Y-190143122D02*
X83943805Y-190190741D01*
X83943805Y-190190741D02*
X83991424Y-190238360D01*
X82658091Y-190143122D02*
X82658091Y-190809789D01*
X83086662Y-190143122D02*
X83086662Y-190666931D01*
X83086662Y-190666931D02*
X83039043Y-190762170D01*
X83039043Y-190762170D02*
X82943805Y-190809789D01*
X82943805Y-190809789D02*
X82800948Y-190809789D01*
X82800948Y-190809789D02*
X82705710Y-190762170D01*
X82705710Y-190762170D02*
X82658091Y-190714550D01*
X82181900Y-190809789D02*
X82181900Y-189809789D01*
X82181900Y-190190741D02*
X82086662Y-190143122D01*
X82086662Y-190143122D02*
X81896186Y-190143122D01*
X81896186Y-190143122D02*
X81800948Y-190190741D01*
X81800948Y-190190741D02*
X81753329Y-190238360D01*
X81753329Y-190238360D02*
X81705710Y-190333598D01*
X81705710Y-190333598D02*
X81705710Y-190619312D01*
X81705710Y-190619312D02*
X81753329Y-190714550D01*
X81753329Y-190714550D02*
X81800948Y-190762170D01*
X81800948Y-190762170D02*
X81896186Y-190809789D01*
X81896186Y-190809789D02*
X82086662Y-190809789D01*
X82086662Y-190809789D02*
X82181900Y-190762170D01*
X81277138Y-190714550D02*
X81229519Y-190762170D01*
X81229519Y-190762170D02*
X81277138Y-190809789D01*
X81277138Y-190809789D02*
X81324757Y-190762170D01*
X81324757Y-190762170D02*
X81277138Y-190714550D01*
X81277138Y-190714550D02*
X81277138Y-190809789D01*
X80372377Y-190762170D02*
X80467615Y-190809789D01*
X80467615Y-190809789D02*
X80658091Y-190809789D01*
X80658091Y-190809789D02*
X80753329Y-190762170D01*
X80753329Y-190762170D02*
X80800948Y-190714550D01*
X80800948Y-190714550D02*
X80848567Y-190619312D01*
X80848567Y-190619312D02*
X80848567Y-190333598D01*
X80848567Y-190333598D02*
X80800948Y-190238360D01*
X80800948Y-190238360D02*
X80753329Y-190190741D01*
X80753329Y-190190741D02*
X80658091Y-190143122D01*
X80658091Y-190143122D02*
X80467615Y-190143122D01*
X80467615Y-190143122D02*
X80372377Y-190190741D01*
X79800948Y-190809789D02*
X79896186Y-190762170D01*
X79896186Y-190762170D02*
X79943805Y-190714550D01*
X79943805Y-190714550D02*
X79991424Y-190619312D01*
X79991424Y-190619312D02*
X79991424Y-190333598D01*
X79991424Y-190333598D02*
X79943805Y-190238360D01*
X79943805Y-190238360D02*
X79896186Y-190190741D01*
X79896186Y-190190741D02*
X79800948Y-190143122D01*
X79800948Y-190143122D02*
X79658091Y-190143122D01*
X79658091Y-190143122D02*
X79562853Y-190190741D01*
X79562853Y-190190741D02*
X79515234Y-190238360D01*
X79515234Y-190238360D02*
X79467615Y-190333598D01*
X79467615Y-190333598D02*
X79467615Y-190619312D01*
X79467615Y-190619312D02*
X79515234Y-190714550D01*
X79515234Y-190714550D02*
X79562853Y-190762170D01*
X79562853Y-190762170D02*
X79658091Y-190809789D01*
X79658091Y-190809789D02*
X79800948Y-190809789D01*
X79039043Y-190809789D02*
X79039043Y-190143122D01*
X79039043Y-190238360D02*
X78991424Y-190190741D01*
X78991424Y-190190741D02*
X78896186Y-190143122D01*
X78896186Y-190143122D02*
X78753329Y-190143122D01*
X78753329Y-190143122D02*
X78658091Y-190190741D01*
X78658091Y-190190741D02*
X78610472Y-190285979D01*
X78610472Y-190285979D02*
X78610472Y-190809789D01*
X78610472Y-190285979D02*
X78562853Y-190190741D01*
X78562853Y-190190741D02*
X78467615Y-190143122D01*
X78467615Y-190143122D02*
X78324758Y-190143122D01*
X78324758Y-190143122D02*
X78229519Y-190190741D01*
X78229519Y-190190741D02*
X78181900Y-190285979D01*
X78181900Y-190285979D02*
X78181900Y-190809789D01*
X76991425Y-189762170D02*
X77848567Y-191047884D01*
X76658091Y-190809789D02*
X76658091Y-190143122D01*
X76658091Y-190238360D02*
X76610472Y-190190741D01*
X76610472Y-190190741D02*
X76515234Y-190143122D01*
X76515234Y-190143122D02*
X76372377Y-190143122D01*
X76372377Y-190143122D02*
X76277139Y-190190741D01*
X76277139Y-190190741D02*
X76229520Y-190285979D01*
X76229520Y-190285979D02*
X76229520Y-190809789D01*
X76229520Y-190285979D02*
X76181901Y-190190741D01*
X76181901Y-190190741D02*
X76086663Y-190143122D01*
X76086663Y-190143122D02*
X75943806Y-190143122D01*
X75943806Y-190143122D02*
X75848567Y-190190741D01*
X75848567Y-190190741D02*
X75800948Y-190285979D01*
X75800948Y-190285979D02*
X75800948Y-190809789D01*
X75324758Y-190809789D02*
X75324758Y-190143122D01*
X75324758Y-189809789D02*
X75372377Y-189857408D01*
X75372377Y-189857408D02*
X75324758Y-189905027D01*
X75324758Y-189905027D02*
X75277139Y-189857408D01*
X75277139Y-189857408D02*
X75324758Y-189809789D01*
X75324758Y-189809789D02*
X75324758Y-189905027D01*
X74943806Y-190143122D02*
X74419997Y-190143122D01*
X74419997Y-190143122D02*
X74943806Y-190809789D01*
X74943806Y-190809789D02*
X74419997Y-190809789D01*
X74039044Y-190809789D02*
X74039044Y-190143122D01*
X74039044Y-190238360D02*
X73991425Y-190190741D01*
X73991425Y-190190741D02*
X73896187Y-190143122D01*
X73896187Y-190143122D02*
X73753330Y-190143122D01*
X73753330Y-190143122D02*
X73658092Y-190190741D01*
X73658092Y-190190741D02*
X73610473Y-190285979D01*
X73610473Y-190285979D02*
X73610473Y-190809789D01*
X73610473Y-190285979D02*
X73562854Y-190190741D01*
X73562854Y-190190741D02*
X73467616Y-190143122D01*
X73467616Y-190143122D02*
X73324759Y-190143122D01*
X73324759Y-190143122D02*
X73229520Y-190190741D01*
X73229520Y-190190741D02*
X73181901Y-190285979D01*
X73181901Y-190285979D02*
X73181901Y-190809789D01*
X72277140Y-190809789D02*
X72277140Y-190285979D01*
X72277140Y-190285979D02*
X72324759Y-190190741D01*
X72324759Y-190190741D02*
X72419997Y-190143122D01*
X72419997Y-190143122D02*
X72610473Y-190143122D01*
X72610473Y-190143122D02*
X72705711Y-190190741D01*
X72277140Y-190762170D02*
X72372378Y-190809789D01*
X72372378Y-190809789D02*
X72610473Y-190809789D01*
X72610473Y-190809789D02*
X72705711Y-190762170D01*
X72705711Y-190762170D02*
X72753330Y-190666931D01*
X72753330Y-190666931D02*
X72753330Y-190571693D01*
X72753330Y-190571693D02*
X72705711Y-190476455D01*
X72705711Y-190476455D02*
X72610473Y-190428836D01*
X72610473Y-190428836D02*
X72372378Y-190428836D01*
X72372378Y-190428836D02*
X72277140Y-190381217D01*
X71086664Y-189762170D02*
X71943806Y-191047884D01*
X70372378Y-190762170D02*
X70467616Y-190809789D01*
X70467616Y-190809789D02*
X70658092Y-190809789D01*
X70658092Y-190809789D02*
X70753330Y-190762170D01*
X70753330Y-190762170D02*
X70800949Y-190666931D01*
X70800949Y-190666931D02*
X70800949Y-190285979D01*
X70800949Y-190285979D02*
X70753330Y-190190741D01*
X70753330Y-190190741D02*
X70658092Y-190143122D01*
X70658092Y-190143122D02*
X70467616Y-190143122D01*
X70467616Y-190143122D02*
X70372378Y-190190741D01*
X70372378Y-190190741D02*
X70324759Y-190285979D01*
X70324759Y-190285979D02*
X70324759Y-190381217D01*
X70324759Y-190381217D02*
X70800949Y-190476455D01*
X69896187Y-190809789D02*
X69896187Y-190143122D01*
X69896187Y-190333598D02*
X69848568Y-190238360D01*
X69848568Y-190238360D02*
X69800949Y-190190741D01*
X69800949Y-190190741D02*
X69705711Y-190143122D01*
X69705711Y-190143122D02*
X69610473Y-190143122D01*
X68848568Y-190143122D02*
X68848568Y-190952646D01*
X68848568Y-190952646D02*
X68896187Y-191047884D01*
X68896187Y-191047884D02*
X68943806Y-191095503D01*
X68943806Y-191095503D02*
X69039044Y-191143122D01*
X69039044Y-191143122D02*
X69181901Y-191143122D01*
X69181901Y-191143122D02*
X69277139Y-191095503D01*
X68848568Y-190762170D02*
X68943806Y-190809789D01*
X68943806Y-190809789D02*
X69134282Y-190809789D01*
X69134282Y-190809789D02*
X69229520Y-190762170D01*
X69229520Y-190762170D02*
X69277139Y-190714550D01*
X69277139Y-190714550D02*
X69324758Y-190619312D01*
X69324758Y-190619312D02*
X69324758Y-190333598D01*
X69324758Y-190333598D02*
X69277139Y-190238360D01*
X69277139Y-190238360D02*
X69229520Y-190190741D01*
X69229520Y-190190741D02*
X69134282Y-190143122D01*
X69134282Y-190143122D02*
X68943806Y-190143122D01*
X68943806Y-190143122D02*
X68848568Y-190190741D01*
X68229520Y-190809789D02*
X68324758Y-190762170D01*
X68324758Y-190762170D02*
X68372377Y-190714550D01*
X68372377Y-190714550D02*
X68419996Y-190619312D01*
X68419996Y-190619312D02*
X68419996Y-190333598D01*
X68419996Y-190333598D02*
X68372377Y-190238360D01*
X68372377Y-190238360D02*
X68324758Y-190190741D01*
X68324758Y-190190741D02*
X68229520Y-190143122D01*
X68229520Y-190143122D02*
X68086663Y-190143122D01*
X68086663Y-190143122D02*
X67991425Y-190190741D01*
X67991425Y-190190741D02*
X67943806Y-190238360D01*
X67943806Y-190238360D02*
X67896187Y-190333598D01*
X67896187Y-190333598D02*
X67896187Y-190619312D01*
X67896187Y-190619312D02*
X67943806Y-190714550D01*
X67943806Y-190714550D02*
X67991425Y-190762170D01*
X67991425Y-190762170D02*
X68086663Y-190809789D01*
X68086663Y-190809789D02*
X68229520Y-190809789D01*
X67515234Y-190762170D02*
X67372377Y-190809789D01*
X67372377Y-190809789D02*
X67134282Y-190809789D01*
X67134282Y-190809789D02*
X67039044Y-190762170D01*
X67039044Y-190762170D02*
X66991425Y-190714550D01*
X66991425Y-190714550D02*
X66943806Y-190619312D01*
X66943806Y-190619312D02*
X66943806Y-190524074D01*
X66943806Y-190524074D02*
X66991425Y-190428836D01*
X66991425Y-190428836D02*
X67039044Y-190381217D01*
X67039044Y-190381217D02*
X67134282Y-190333598D01*
X67134282Y-190333598D02*
X67324758Y-190285979D01*
X67324758Y-190285979D02*
X67419996Y-190238360D01*
X67419996Y-190238360D02*
X67467615Y-190190741D01*
X67467615Y-190190741D02*
X67515234Y-190095503D01*
X67515234Y-190095503D02*
X67515234Y-190000265D01*
X67515234Y-190000265D02*
X67467615Y-189905027D01*
X67467615Y-189905027D02*
X67419996Y-189857408D01*
X67419996Y-189857408D02*
X67324758Y-189809789D01*
X67324758Y-189809789D02*
X67086663Y-189809789D01*
X67086663Y-189809789D02*
X66943806Y-189857408D01*
X66515234Y-190809789D02*
X66515234Y-189809789D01*
X66515234Y-190285979D02*
X65943806Y-190285979D01*
X65943806Y-190809789D02*
X65943806Y-189809789D01*
X65467615Y-190809789D02*
X65467615Y-189809789D01*
X64658092Y-190285979D02*
X64991425Y-190285979D01*
X64991425Y-190809789D02*
X64991425Y-189809789D01*
X64991425Y-189809789D02*
X64515235Y-189809789D01*
X64277139Y-189809789D02*
X63705711Y-189809789D01*
X63991425Y-190809789D02*
X63991425Y-189809789D01*
X186175428Y-85874580D02*
X185413524Y-85874580D01*
X186175428Y-85588866D02*
X185413524Y-85588866D01*
X186175428Y-85303152D02*
X185413524Y-85303152D01*
X184223048Y-84922200D02*
X185080190Y-86207914D01*
X183937333Y-85922200D02*
X183794476Y-85969819D01*
X183794476Y-85969819D02*
X183556381Y-85969819D01*
X183556381Y-85969819D02*
X183461143Y-85922200D01*
X183461143Y-85922200D02*
X183413524Y-85874580D01*
X183413524Y-85874580D02*
X183365905Y-85779342D01*
X183365905Y-85779342D02*
X183365905Y-85684104D01*
X183365905Y-85684104D02*
X183413524Y-85588866D01*
X183413524Y-85588866D02*
X183461143Y-85541247D01*
X183461143Y-85541247D02*
X183556381Y-85493628D01*
X183556381Y-85493628D02*
X183746857Y-85446009D01*
X183746857Y-85446009D02*
X183842095Y-85398390D01*
X183842095Y-85398390D02*
X183889714Y-85350771D01*
X183889714Y-85350771D02*
X183937333Y-85255533D01*
X183937333Y-85255533D02*
X183937333Y-85160295D01*
X183937333Y-85160295D02*
X183889714Y-85065057D01*
X183889714Y-85065057D02*
X183842095Y-85017438D01*
X183842095Y-85017438D02*
X183746857Y-84969819D01*
X183746857Y-84969819D02*
X183508762Y-84969819D01*
X183508762Y-84969819D02*
X183365905Y-85017438D01*
X182937333Y-85446009D02*
X182604000Y-85446009D01*
X182461143Y-85969819D02*
X182937333Y-85969819D01*
X182937333Y-85969819D02*
X182937333Y-84969819D01*
X182937333Y-84969819D02*
X182461143Y-84969819D01*
X181556381Y-85969819D02*
X182032571Y-85969819D01*
X182032571Y-85969819D02*
X182032571Y-84969819D01*
X181223047Y-85446009D02*
X180889714Y-85446009D01*
X180746857Y-85969819D02*
X181223047Y-85969819D01*
X181223047Y-85969819D02*
X181223047Y-84969819D01*
X181223047Y-84969819D02*
X180746857Y-84969819D01*
X179746857Y-85874580D02*
X179794476Y-85922200D01*
X179794476Y-85922200D02*
X179937333Y-85969819D01*
X179937333Y-85969819D02*
X180032571Y-85969819D01*
X180032571Y-85969819D02*
X180175428Y-85922200D01*
X180175428Y-85922200D02*
X180270666Y-85826961D01*
X180270666Y-85826961D02*
X180318285Y-85731723D01*
X180318285Y-85731723D02*
X180365904Y-85541247D01*
X180365904Y-85541247D02*
X180365904Y-85398390D01*
X180365904Y-85398390D02*
X180318285Y-85207914D01*
X180318285Y-85207914D02*
X180270666Y-85112676D01*
X180270666Y-85112676D02*
X180175428Y-85017438D01*
X180175428Y-85017438D02*
X180032571Y-84969819D01*
X180032571Y-84969819D02*
X179937333Y-84969819D01*
X179937333Y-84969819D02*
X179794476Y-85017438D01*
X179794476Y-85017438D02*
X179746857Y-85065057D01*
X179461142Y-84969819D02*
X178889714Y-84969819D01*
X179175428Y-85969819D02*
X179175428Y-84969819D01*
X209924380Y-104797628D02*
X209924380Y-105273819D01*
X210257713Y-104273819D02*
X209924380Y-104797628D01*
X209924380Y-104797628D02*
X209591047Y-104273819D01*
X208543428Y-104226200D02*
X209400570Y-105511914D01*
X208352951Y-104273819D02*
X207781523Y-104273819D01*
X208067237Y-105273819D02*
X208067237Y-104273819D01*
X206876761Y-105273819D02*
X207210094Y-104797628D01*
X207448189Y-105273819D02*
X207448189Y-104273819D01*
X207448189Y-104273819D02*
X207067237Y-104273819D01*
X207067237Y-104273819D02*
X206971999Y-104321438D01*
X206971999Y-104321438D02*
X206924380Y-104369057D01*
X206924380Y-104369057D02*
X206876761Y-104464295D01*
X206876761Y-104464295D02*
X206876761Y-104607152D01*
X206876761Y-104607152D02*
X206924380Y-104702390D01*
X206924380Y-104702390D02*
X206971999Y-104750009D01*
X206971999Y-104750009D02*
X207067237Y-104797628D01*
X207067237Y-104797628D02*
X207448189Y-104797628D01*
X206448189Y-105273819D02*
X206448189Y-104273819D01*
X206019618Y-104988104D02*
X205543428Y-104988104D01*
X206114856Y-105273819D02*
X205781523Y-104273819D01*
X205781523Y-104273819D02*
X205448190Y-105273819D01*
X205114856Y-105273819D02*
X205114856Y-104273819D01*
X205114856Y-104273819D02*
X204543428Y-105273819D01*
X204543428Y-105273819D02*
X204543428Y-104273819D01*
X203543428Y-104321438D02*
X203638666Y-104273819D01*
X203638666Y-104273819D02*
X203781523Y-104273819D01*
X203781523Y-104273819D02*
X203924380Y-104321438D01*
X203924380Y-104321438D02*
X204019618Y-104416676D01*
X204019618Y-104416676D02*
X204067237Y-104511914D01*
X204067237Y-104511914D02*
X204114856Y-104702390D01*
X204114856Y-104702390D02*
X204114856Y-104845247D01*
X204114856Y-104845247D02*
X204067237Y-105035723D01*
X204067237Y-105035723D02*
X204019618Y-105130961D01*
X204019618Y-105130961D02*
X203924380Y-105226200D01*
X203924380Y-105226200D02*
X203781523Y-105273819D01*
X203781523Y-105273819D02*
X203686285Y-105273819D01*
X203686285Y-105273819D02*
X203543428Y-105226200D01*
X203543428Y-105226200D02*
X203495809Y-105178580D01*
X203495809Y-105178580D02*
X203495809Y-104845247D01*
X203495809Y-104845247D02*
X203686285Y-104845247D01*
X202591047Y-105273819D02*
X203067237Y-105273819D01*
X203067237Y-105273819D02*
X203067237Y-104273819D01*
X202257713Y-104750009D02*
X201924380Y-104750009D01*
X201781523Y-105273819D02*
X202257713Y-105273819D01*
X202257713Y-105273819D02*
X202257713Y-104273819D01*
X202257713Y-104273819D02*
X201781523Y-104273819D01*
X183317904Y-115449819D02*
X182651238Y-116449819D01*
X182651238Y-115449819D02*
X183317904Y-116449819D01*
X181556000Y-115402200D02*
X182413142Y-116687914D01*
X181270285Y-116402200D02*
X181127428Y-116449819D01*
X181127428Y-116449819D02*
X180889333Y-116449819D01*
X180889333Y-116449819D02*
X180794095Y-116402200D01*
X180794095Y-116402200D02*
X180746476Y-116354580D01*
X180746476Y-116354580D02*
X180698857Y-116259342D01*
X180698857Y-116259342D02*
X180698857Y-116164104D01*
X180698857Y-116164104D02*
X180746476Y-116068866D01*
X180746476Y-116068866D02*
X180794095Y-116021247D01*
X180794095Y-116021247D02*
X180889333Y-115973628D01*
X180889333Y-115973628D02*
X181079809Y-115926009D01*
X181079809Y-115926009D02*
X181175047Y-115878390D01*
X181175047Y-115878390D02*
X181222666Y-115830771D01*
X181222666Y-115830771D02*
X181270285Y-115735533D01*
X181270285Y-115735533D02*
X181270285Y-115640295D01*
X181270285Y-115640295D02*
X181222666Y-115545057D01*
X181222666Y-115545057D02*
X181175047Y-115497438D01*
X181175047Y-115497438D02*
X181079809Y-115449819D01*
X181079809Y-115449819D02*
X180841714Y-115449819D01*
X180841714Y-115449819D02*
X180698857Y-115497438D01*
X179603619Y-116545057D02*
X179698857Y-116497438D01*
X179698857Y-116497438D02*
X179794095Y-116402200D01*
X179794095Y-116402200D02*
X179936952Y-116259342D01*
X179936952Y-116259342D02*
X180032190Y-116211723D01*
X180032190Y-116211723D02*
X180127428Y-116211723D01*
X180079809Y-116449819D02*
X180175047Y-116402200D01*
X180175047Y-116402200D02*
X180270285Y-116306961D01*
X180270285Y-116306961D02*
X180317904Y-116116485D01*
X180317904Y-116116485D02*
X180317904Y-115783152D01*
X180317904Y-115783152D02*
X180270285Y-115592676D01*
X180270285Y-115592676D02*
X180175047Y-115497438D01*
X180175047Y-115497438D02*
X180079809Y-115449819D01*
X180079809Y-115449819D02*
X179889333Y-115449819D01*
X179889333Y-115449819D02*
X179794095Y-115497438D01*
X179794095Y-115497438D02*
X179698857Y-115592676D01*
X179698857Y-115592676D02*
X179651238Y-115783152D01*
X179651238Y-115783152D02*
X179651238Y-116116485D01*
X179651238Y-116116485D02*
X179698857Y-116306961D01*
X179698857Y-116306961D02*
X179794095Y-116402200D01*
X179794095Y-116402200D02*
X179889333Y-116449819D01*
X179889333Y-116449819D02*
X180079809Y-116449819D01*
X179222666Y-115449819D02*
X179222666Y-116259342D01*
X179222666Y-116259342D02*
X179175047Y-116354580D01*
X179175047Y-116354580D02*
X179127428Y-116402200D01*
X179127428Y-116402200D02*
X179032190Y-116449819D01*
X179032190Y-116449819D02*
X178841714Y-116449819D01*
X178841714Y-116449819D02*
X178746476Y-116402200D01*
X178746476Y-116402200D02*
X178698857Y-116354580D01*
X178698857Y-116354580D02*
X178651238Y-116259342D01*
X178651238Y-116259342D02*
X178651238Y-115449819D01*
X178222666Y-116164104D02*
X177746476Y-116164104D01*
X178317904Y-116449819D02*
X177984571Y-115449819D01*
X177984571Y-115449819D02*
X177651238Y-116449819D01*
X176746476Y-116449819D02*
X177079809Y-115973628D01*
X177317904Y-116449819D02*
X177317904Y-115449819D01*
X177317904Y-115449819D02*
X176936952Y-115449819D01*
X176936952Y-115449819D02*
X176841714Y-115497438D01*
X176841714Y-115497438D02*
X176794095Y-115545057D01*
X176794095Y-115545057D02*
X176746476Y-115640295D01*
X176746476Y-115640295D02*
X176746476Y-115783152D01*
X176746476Y-115783152D02*
X176794095Y-115878390D01*
X176794095Y-115878390D02*
X176841714Y-115926009D01*
X176841714Y-115926009D02*
X176936952Y-115973628D01*
X176936952Y-115973628D02*
X177317904Y-115973628D01*
X176317904Y-115926009D02*
X175984571Y-115926009D01*
X175841714Y-116449819D02*
X176317904Y-116449819D01*
X176317904Y-116449819D02*
X176317904Y-115449819D01*
X176317904Y-115449819D02*
X175841714Y-115449819D01*
X236618476Y-101209819D02*
X236951809Y-100733628D01*
X237189904Y-101209819D02*
X237189904Y-100209819D01*
X237189904Y-100209819D02*
X236808952Y-100209819D01*
X236808952Y-100209819D02*
X236713714Y-100257438D01*
X236713714Y-100257438D02*
X236666095Y-100305057D01*
X236666095Y-100305057D02*
X236618476Y-100400295D01*
X236618476Y-100400295D02*
X236618476Y-100543152D01*
X236618476Y-100543152D02*
X236666095Y-100638390D01*
X236666095Y-100638390D02*
X236713714Y-100686009D01*
X236713714Y-100686009D02*
X236808952Y-100733628D01*
X236808952Y-100733628D02*
X237189904Y-100733628D01*
X235856571Y-100686009D02*
X235713714Y-100733628D01*
X235713714Y-100733628D02*
X235666095Y-100781247D01*
X235666095Y-100781247D02*
X235618476Y-100876485D01*
X235618476Y-100876485D02*
X235618476Y-101019342D01*
X235618476Y-101019342D02*
X235666095Y-101114580D01*
X235666095Y-101114580D02*
X235713714Y-101162200D01*
X235713714Y-101162200D02*
X235808952Y-101209819D01*
X235808952Y-101209819D02*
X236189904Y-101209819D01*
X236189904Y-101209819D02*
X236189904Y-100209819D01*
X236189904Y-100209819D02*
X235856571Y-100209819D01*
X235856571Y-100209819D02*
X235761333Y-100257438D01*
X235761333Y-100257438D02*
X235713714Y-100305057D01*
X235713714Y-100305057D02*
X235666095Y-100400295D01*
X235666095Y-100400295D02*
X235666095Y-100495533D01*
X235666095Y-100495533D02*
X235713714Y-100590771D01*
X235713714Y-100590771D02*
X235761333Y-100638390D01*
X235761333Y-100638390D02*
X235856571Y-100686009D01*
X235856571Y-100686009D02*
X236189904Y-100686009D01*
X234475619Y-100162200D02*
X235332761Y-101447914D01*
X233570857Y-101209819D02*
X233904190Y-100733628D01*
X234142285Y-101209819D02*
X234142285Y-100209819D01*
X234142285Y-100209819D02*
X233761333Y-100209819D01*
X233761333Y-100209819D02*
X233666095Y-100257438D01*
X233666095Y-100257438D02*
X233618476Y-100305057D01*
X233618476Y-100305057D02*
X233570857Y-100400295D01*
X233570857Y-100400295D02*
X233570857Y-100543152D01*
X233570857Y-100543152D02*
X233618476Y-100638390D01*
X233618476Y-100638390D02*
X233666095Y-100686009D01*
X233666095Y-100686009D02*
X233761333Y-100733628D01*
X233761333Y-100733628D02*
X234142285Y-100733628D01*
X232618476Y-101209819D02*
X233189904Y-101209819D01*
X232904190Y-101209819D02*
X232904190Y-100209819D01*
X232904190Y-100209819D02*
X232999428Y-100352676D01*
X232999428Y-100352676D02*
X233094666Y-100447914D01*
X233094666Y-100447914D02*
X233189904Y-100495533D01*
X181270094Y-146136104D02*
X180793904Y-146136104D01*
X181365332Y-146421819D02*
X181031999Y-145421819D01*
X181031999Y-145421819D02*
X180698666Y-146421819D01*
X179651047Y-145374200D02*
X180508189Y-146659914D01*
X178746285Y-146326580D02*
X178793904Y-146374200D01*
X178793904Y-146374200D02*
X178936761Y-146421819D01*
X178936761Y-146421819D02*
X179031999Y-146421819D01*
X179031999Y-146421819D02*
X179174856Y-146374200D01*
X179174856Y-146374200D02*
X179270094Y-146278961D01*
X179270094Y-146278961D02*
X179317713Y-146183723D01*
X179317713Y-146183723D02*
X179365332Y-145993247D01*
X179365332Y-145993247D02*
X179365332Y-145850390D01*
X179365332Y-145850390D02*
X179317713Y-145659914D01*
X179317713Y-145659914D02*
X179270094Y-145564676D01*
X179270094Y-145564676D02*
X179174856Y-145469438D01*
X179174856Y-145469438D02*
X179031999Y-145421819D01*
X179031999Y-145421819D02*
X178936761Y-145421819D01*
X178936761Y-145421819D02*
X178793904Y-145469438D01*
X178793904Y-145469438D02*
X178746285Y-145517057D01*
X177746285Y-146421819D02*
X178079618Y-145945628D01*
X178317713Y-146421819D02*
X178317713Y-145421819D01*
X178317713Y-145421819D02*
X177936761Y-145421819D01*
X177936761Y-145421819D02*
X177841523Y-145469438D01*
X177841523Y-145469438D02*
X177793904Y-145517057D01*
X177793904Y-145517057D02*
X177746285Y-145612295D01*
X177746285Y-145612295D02*
X177746285Y-145755152D01*
X177746285Y-145755152D02*
X177793904Y-145850390D01*
X177793904Y-145850390D02*
X177841523Y-145898009D01*
X177841523Y-145898009D02*
X177936761Y-145945628D01*
X177936761Y-145945628D02*
X178317713Y-145945628D01*
X177127237Y-145421819D02*
X176936761Y-145421819D01*
X176936761Y-145421819D02*
X176841523Y-145469438D01*
X176841523Y-145469438D02*
X176746285Y-145564676D01*
X176746285Y-145564676D02*
X176698666Y-145755152D01*
X176698666Y-145755152D02*
X176698666Y-146088485D01*
X176698666Y-146088485D02*
X176746285Y-146278961D01*
X176746285Y-146278961D02*
X176841523Y-146374200D01*
X176841523Y-146374200D02*
X176936761Y-146421819D01*
X176936761Y-146421819D02*
X177127237Y-146421819D01*
X177127237Y-146421819D02*
X177222475Y-146374200D01*
X177222475Y-146374200D02*
X177317713Y-146278961D01*
X177317713Y-146278961D02*
X177365332Y-146088485D01*
X177365332Y-146088485D02*
X177365332Y-145755152D01*
X177365332Y-145755152D02*
X177317713Y-145564676D01*
X177317713Y-145564676D02*
X177222475Y-145469438D01*
X177222475Y-145469438D02*
X177127237Y-145421819D01*
X176317713Y-146374200D02*
X176174856Y-146421819D01*
X176174856Y-146421819D02*
X175936761Y-146421819D01*
X175936761Y-146421819D02*
X175841523Y-146374200D01*
X175841523Y-146374200D02*
X175793904Y-146326580D01*
X175793904Y-146326580D02*
X175746285Y-146231342D01*
X175746285Y-146231342D02*
X175746285Y-146136104D01*
X175746285Y-146136104D02*
X175793904Y-146040866D01*
X175793904Y-146040866D02*
X175841523Y-145993247D01*
X175841523Y-145993247D02*
X175936761Y-145945628D01*
X175936761Y-145945628D02*
X176127237Y-145898009D01*
X176127237Y-145898009D02*
X176222475Y-145850390D01*
X176222475Y-145850390D02*
X176270094Y-145802771D01*
X176270094Y-145802771D02*
X176317713Y-145707533D01*
X176317713Y-145707533D02*
X176317713Y-145612295D01*
X176317713Y-145612295D02*
X176270094Y-145517057D01*
X176270094Y-145517057D02*
X176222475Y-145469438D01*
X176222475Y-145469438D02*
X176127237Y-145421819D01*
X176127237Y-145421819D02*
X175889142Y-145421819D01*
X175889142Y-145421819D02*
X175746285Y-145469438D01*
X175365332Y-146374200D02*
X175222475Y-146421819D01*
X175222475Y-146421819D02*
X174984380Y-146421819D01*
X174984380Y-146421819D02*
X174889142Y-146374200D01*
X174889142Y-146374200D02*
X174841523Y-146326580D01*
X174841523Y-146326580D02*
X174793904Y-146231342D01*
X174793904Y-146231342D02*
X174793904Y-146136104D01*
X174793904Y-146136104D02*
X174841523Y-146040866D01*
X174841523Y-146040866D02*
X174889142Y-145993247D01*
X174889142Y-145993247D02*
X174984380Y-145945628D01*
X174984380Y-145945628D02*
X175174856Y-145898009D01*
X175174856Y-145898009D02*
X175270094Y-145850390D01*
X175270094Y-145850390D02*
X175317713Y-145802771D01*
X175317713Y-145802771D02*
X175365332Y-145707533D01*
X175365332Y-145707533D02*
X175365332Y-145612295D01*
X175365332Y-145612295D02*
X175317713Y-145517057D01*
X175317713Y-145517057D02*
X175270094Y-145469438D01*
X175270094Y-145469438D02*
X175174856Y-145421819D01*
X175174856Y-145421819D02*
X174936761Y-145421819D01*
X174936761Y-145421819D02*
X174793904Y-145469438D01*
X263955238Y-115433819D02*
X264431428Y-115433819D01*
X264431428Y-115433819D02*
X264431428Y-114433819D01*
X263288571Y-114910009D02*
X263145714Y-114957628D01*
X263145714Y-114957628D02*
X263098095Y-115005247D01*
X263098095Y-115005247D02*
X263050476Y-115100485D01*
X263050476Y-115100485D02*
X263050476Y-115243342D01*
X263050476Y-115243342D02*
X263098095Y-115338580D01*
X263098095Y-115338580D02*
X263145714Y-115386200D01*
X263145714Y-115386200D02*
X263240952Y-115433819D01*
X263240952Y-115433819D02*
X263621904Y-115433819D01*
X263621904Y-115433819D02*
X263621904Y-114433819D01*
X263621904Y-114433819D02*
X263288571Y-114433819D01*
X263288571Y-114433819D02*
X263193333Y-114481438D01*
X263193333Y-114481438D02*
X263145714Y-114529057D01*
X263145714Y-114529057D02*
X263098095Y-114624295D01*
X263098095Y-114624295D02*
X263098095Y-114719533D01*
X263098095Y-114719533D02*
X263145714Y-114814771D01*
X263145714Y-114814771D02*
X263193333Y-114862390D01*
X263193333Y-114862390D02*
X263288571Y-114910009D01*
X263288571Y-114910009D02*
X263621904Y-114910009D01*
X261907619Y-114386200D02*
X262764761Y-115671914D01*
X261098095Y-115433819D02*
X261574285Y-115433819D01*
X261574285Y-115433819D02*
X261574285Y-114433819D01*
X260240952Y-115433819D02*
X260812380Y-115433819D01*
X260526666Y-115433819D02*
X260526666Y-114433819D01*
X260526666Y-114433819D02*
X260621904Y-114576676D01*
X260621904Y-114576676D02*
X260717142Y-114671914D01*
X260717142Y-114671914D02*
X260812380Y-114719533D01*
X102188951Y-126609819D02*
X102188951Y-125609819D01*
X102188951Y-125609819D02*
X101950856Y-125609819D01*
X101950856Y-125609819D02*
X101807999Y-125657438D01*
X101807999Y-125657438D02*
X101712761Y-125752676D01*
X101712761Y-125752676D02*
X101665142Y-125847914D01*
X101665142Y-125847914D02*
X101617523Y-126038390D01*
X101617523Y-126038390D02*
X101617523Y-126181247D01*
X101617523Y-126181247D02*
X101665142Y-126371723D01*
X101665142Y-126371723D02*
X101712761Y-126466961D01*
X101712761Y-126466961D02*
X101807999Y-126562200D01*
X101807999Y-126562200D02*
X101950856Y-126609819D01*
X101950856Y-126609819D02*
X102188951Y-126609819D01*
X100998475Y-125609819D02*
X100807999Y-125609819D01*
X100807999Y-125609819D02*
X100712761Y-125657438D01*
X100712761Y-125657438D02*
X100617523Y-125752676D01*
X100617523Y-125752676D02*
X100569904Y-125943152D01*
X100569904Y-125943152D02*
X100569904Y-126276485D01*
X100569904Y-126276485D02*
X100617523Y-126466961D01*
X100617523Y-126466961D02*
X100712761Y-126562200D01*
X100712761Y-126562200D02*
X100807999Y-126609819D01*
X100807999Y-126609819D02*
X100998475Y-126609819D01*
X100998475Y-126609819D02*
X101093713Y-126562200D01*
X101093713Y-126562200D02*
X101188951Y-126466961D01*
X101188951Y-126466961D02*
X101236570Y-126276485D01*
X101236570Y-126276485D02*
X101236570Y-125943152D01*
X101236570Y-125943152D02*
X101188951Y-125752676D01*
X101188951Y-125752676D02*
X101093713Y-125657438D01*
X101093713Y-125657438D02*
X100998475Y-125609819D01*
X100236570Y-125609819D02*
X99998475Y-126609819D01*
X99998475Y-126609819D02*
X99807999Y-125895533D01*
X99807999Y-125895533D02*
X99617523Y-126609819D01*
X99617523Y-126609819D02*
X99379428Y-125609819D01*
X98998475Y-126609819D02*
X98998475Y-125609819D01*
X98998475Y-125609819D02*
X98427047Y-126609819D01*
X98427047Y-126609819D02*
X98427047Y-125609819D01*
X86625711Y-188269789D02*
X86959044Y-187793598D01*
X87197139Y-188269789D02*
X87197139Y-187269789D01*
X87197139Y-187269789D02*
X86816187Y-187269789D01*
X86816187Y-187269789D02*
X86720949Y-187317408D01*
X86720949Y-187317408D02*
X86673330Y-187365027D01*
X86673330Y-187365027D02*
X86625711Y-187460265D01*
X86625711Y-187460265D02*
X86625711Y-187603122D01*
X86625711Y-187603122D02*
X86673330Y-187698360D01*
X86673330Y-187698360D02*
X86720949Y-187745979D01*
X86720949Y-187745979D02*
X86816187Y-187793598D01*
X86816187Y-187793598D02*
X87197139Y-187793598D01*
X85816187Y-188222170D02*
X85911425Y-188269789D01*
X85911425Y-188269789D02*
X86101901Y-188269789D01*
X86101901Y-188269789D02*
X86197139Y-188222170D01*
X86197139Y-188222170D02*
X86244758Y-188126931D01*
X86244758Y-188126931D02*
X86244758Y-187745979D01*
X86244758Y-187745979D02*
X86197139Y-187650741D01*
X86197139Y-187650741D02*
X86101901Y-187603122D01*
X86101901Y-187603122D02*
X85911425Y-187603122D01*
X85911425Y-187603122D02*
X85816187Y-187650741D01*
X85816187Y-187650741D02*
X85768568Y-187745979D01*
X85768568Y-187745979D02*
X85768568Y-187841217D01*
X85768568Y-187841217D02*
X86244758Y-187936455D01*
X85435234Y-187603122D02*
X85197139Y-188269789D01*
X85197139Y-188269789D02*
X84959044Y-187603122D01*
X84578091Y-188174550D02*
X84530472Y-188222170D01*
X84530472Y-188222170D02*
X84578091Y-188269789D01*
X84578091Y-188269789D02*
X84625710Y-188222170D01*
X84625710Y-188222170D02*
X84578091Y-188174550D01*
X84578091Y-188174550D02*
X84578091Y-188269789D01*
X83578092Y-188269789D02*
X84149520Y-188269789D01*
X83863806Y-188269789D02*
X83863806Y-187269789D01*
X83863806Y-187269789D02*
X83959044Y-187412646D01*
X83959044Y-187412646D02*
X84054282Y-187507884D01*
X84054282Y-187507884D02*
X84149520Y-187555503D01*
X152584190Y-158105819D02*
X153060380Y-158105819D01*
X153060380Y-158105819D02*
X153060380Y-157105819D01*
X152393713Y-157105819D02*
X151822285Y-157105819D01*
X152107999Y-158105819D02*
X152107999Y-157105819D01*
X150774666Y-157058200D02*
X151631808Y-158343914D01*
X149965142Y-158105819D02*
X150441332Y-158105819D01*
X150441332Y-158105819D02*
X150441332Y-157105819D01*
X149679427Y-157201057D02*
X149631808Y-157153438D01*
X149631808Y-157153438D02*
X149536570Y-157105819D01*
X149536570Y-157105819D02*
X149298475Y-157105819D01*
X149298475Y-157105819D02*
X149203237Y-157153438D01*
X149203237Y-157153438D02*
X149155618Y-157201057D01*
X149155618Y-157201057D02*
X149107999Y-157296295D01*
X149107999Y-157296295D02*
X149107999Y-157391533D01*
X149107999Y-157391533D02*
X149155618Y-157534390D01*
X149155618Y-157534390D02*
X149727046Y-158105819D01*
X149727046Y-158105819D02*
X149107999Y-158105819D01*
X154806666Y-128133819D02*
X155139999Y-127657628D01*
X155378094Y-128133819D02*
X155378094Y-127133819D01*
X155378094Y-127133819D02*
X154997142Y-127133819D01*
X154997142Y-127133819D02*
X154901904Y-127181438D01*
X154901904Y-127181438D02*
X154854285Y-127229057D01*
X154854285Y-127229057D02*
X154806666Y-127324295D01*
X154806666Y-127324295D02*
X154806666Y-127467152D01*
X154806666Y-127467152D02*
X154854285Y-127562390D01*
X154854285Y-127562390D02*
X154901904Y-127610009D01*
X154901904Y-127610009D02*
X154997142Y-127657628D01*
X154997142Y-127657628D02*
X155378094Y-127657628D01*
X154425713Y-128086200D02*
X154282856Y-128133819D01*
X154282856Y-128133819D02*
X154044761Y-128133819D01*
X154044761Y-128133819D02*
X153949523Y-128086200D01*
X153949523Y-128086200D02*
X153901904Y-128038580D01*
X153901904Y-128038580D02*
X153854285Y-127943342D01*
X153854285Y-127943342D02*
X153854285Y-127848104D01*
X153854285Y-127848104D02*
X153901904Y-127752866D01*
X153901904Y-127752866D02*
X153949523Y-127705247D01*
X153949523Y-127705247D02*
X154044761Y-127657628D01*
X154044761Y-127657628D02*
X154235237Y-127610009D01*
X154235237Y-127610009D02*
X154330475Y-127562390D01*
X154330475Y-127562390D02*
X154378094Y-127514771D01*
X154378094Y-127514771D02*
X154425713Y-127419533D01*
X154425713Y-127419533D02*
X154425713Y-127324295D01*
X154425713Y-127324295D02*
X154378094Y-127229057D01*
X154378094Y-127229057D02*
X154330475Y-127181438D01*
X154330475Y-127181438D02*
X154235237Y-127133819D01*
X154235237Y-127133819D02*
X153997142Y-127133819D01*
X153997142Y-127133819D02*
X153854285Y-127181438D01*
X152711428Y-127086200D02*
X153568570Y-128371914D01*
X151806666Y-128133819D02*
X152139999Y-127657628D01*
X152378094Y-128133819D02*
X152378094Y-127133819D01*
X152378094Y-127133819D02*
X151997142Y-127133819D01*
X151997142Y-127133819D02*
X151901904Y-127181438D01*
X151901904Y-127181438D02*
X151854285Y-127229057D01*
X151854285Y-127229057D02*
X151806666Y-127324295D01*
X151806666Y-127324295D02*
X151806666Y-127467152D01*
X151806666Y-127467152D02*
X151854285Y-127562390D01*
X151854285Y-127562390D02*
X151901904Y-127610009D01*
X151901904Y-127610009D02*
X151997142Y-127657628D01*
X151997142Y-127657628D02*
X152378094Y-127657628D01*
X151473332Y-127133819D02*
X150854285Y-127133819D01*
X150854285Y-127133819D02*
X151187618Y-127514771D01*
X151187618Y-127514771D02*
X151044761Y-127514771D01*
X151044761Y-127514771D02*
X150949523Y-127562390D01*
X150949523Y-127562390D02*
X150901904Y-127610009D01*
X150901904Y-127610009D02*
X150854285Y-127705247D01*
X150854285Y-127705247D02*
X150854285Y-127943342D01*
X150854285Y-127943342D02*
X150901904Y-128038580D01*
X150901904Y-128038580D02*
X150949523Y-128086200D01*
X150949523Y-128086200D02*
X151044761Y-128133819D01*
X151044761Y-128133819D02*
X151330475Y-128133819D01*
X151330475Y-128133819D02*
X151425713Y-128086200D01*
X151425713Y-128086200D02*
X151473332Y-128038580D01*
X70687139Y-181755723D02*
X70687139Y-180755723D01*
X70687139Y-181136675D02*
X70591901Y-181089056D01*
X70591901Y-181089056D02*
X70401425Y-181089056D01*
X70401425Y-181089056D02*
X70306187Y-181136675D01*
X70306187Y-181136675D02*
X70258568Y-181184294D01*
X70258568Y-181184294D02*
X70210949Y-181279532D01*
X70210949Y-181279532D02*
X70210949Y-181565246D01*
X70210949Y-181565246D02*
X70258568Y-181660484D01*
X70258568Y-181660484D02*
X70306187Y-181708104D01*
X70306187Y-181708104D02*
X70401425Y-181755723D01*
X70401425Y-181755723D02*
X70591901Y-181755723D01*
X70591901Y-181755723D02*
X70687139Y-181708104D01*
X69877615Y-181089056D02*
X69639520Y-181755723D01*
X69401425Y-181089056D02*
X69639520Y-181755723D01*
X69639520Y-181755723D02*
X69734758Y-181993818D01*
X69734758Y-181993818D02*
X69782377Y-182041437D01*
X69782377Y-182041437D02*
X69877615Y-182089056D01*
X67639520Y-181279532D02*
X67687139Y-181231913D01*
X67687139Y-181231913D02*
X67782377Y-181184294D01*
X67782377Y-181184294D02*
X67877615Y-181184294D01*
X67877615Y-181184294D02*
X67972853Y-181231913D01*
X67972853Y-181231913D02*
X68020472Y-181279532D01*
X68020472Y-181279532D02*
X68068091Y-181374770D01*
X68068091Y-181374770D02*
X68068091Y-181470008D01*
X68068091Y-181470008D02*
X68020472Y-181565246D01*
X68020472Y-181565246D02*
X67972853Y-181612865D01*
X67972853Y-181612865D02*
X67877615Y-181660484D01*
X67877615Y-181660484D02*
X67782377Y-181660484D01*
X67782377Y-181660484D02*
X67687139Y-181612865D01*
X67687139Y-181612865D02*
X67639520Y-181565246D01*
X67639520Y-181184294D02*
X67639520Y-181565246D01*
X67639520Y-181565246D02*
X67591901Y-181612865D01*
X67591901Y-181612865D02*
X67544282Y-181612865D01*
X67544282Y-181612865D02*
X67449043Y-181565246D01*
X67449043Y-181565246D02*
X67401424Y-181470008D01*
X67401424Y-181470008D02*
X67401424Y-181231913D01*
X67401424Y-181231913D02*
X67496663Y-181089056D01*
X67496663Y-181089056D02*
X67639520Y-180993818D01*
X67639520Y-180993818D02*
X67829996Y-180946199D01*
X67829996Y-180946199D02*
X68020472Y-180993818D01*
X68020472Y-180993818D02*
X68163329Y-181089056D01*
X68163329Y-181089056D02*
X68258567Y-181231913D01*
X68258567Y-181231913D02*
X68306186Y-181422389D01*
X68306186Y-181422389D02*
X68258567Y-181612865D01*
X68258567Y-181612865D02*
X68163329Y-181755723D01*
X68163329Y-181755723D02*
X68020472Y-181850961D01*
X68020472Y-181850961D02*
X67829996Y-181898580D01*
X67829996Y-181898580D02*
X67639520Y-181850961D01*
X67639520Y-181850961D02*
X67496663Y-181755723D01*
X66972853Y-181755723D02*
X66972853Y-181089056D01*
X66972853Y-181184294D02*
X66925234Y-181136675D01*
X66925234Y-181136675D02*
X66829996Y-181089056D01*
X66829996Y-181089056D02*
X66687139Y-181089056D01*
X66687139Y-181089056D02*
X66591901Y-181136675D01*
X66591901Y-181136675D02*
X66544282Y-181231913D01*
X66544282Y-181231913D02*
X66544282Y-181755723D01*
X66544282Y-181231913D02*
X66496663Y-181136675D01*
X66496663Y-181136675D02*
X66401425Y-181089056D01*
X66401425Y-181089056D02*
X66258568Y-181089056D01*
X66258568Y-181089056D02*
X66163329Y-181136675D01*
X66163329Y-181136675D02*
X66115710Y-181231913D01*
X66115710Y-181231913D02*
X66115710Y-181755723D01*
X65639520Y-181755723D02*
X65639520Y-181089056D01*
X65639520Y-180755723D02*
X65687139Y-180803342D01*
X65687139Y-180803342D02*
X65639520Y-180850961D01*
X65639520Y-180850961D02*
X65591901Y-180803342D01*
X65591901Y-180803342D02*
X65639520Y-180755723D01*
X65639520Y-180755723D02*
X65639520Y-180850961D01*
X65258568Y-181089056D02*
X64734759Y-181089056D01*
X64734759Y-181089056D02*
X65258568Y-181755723D01*
X65258568Y-181755723D02*
X64734759Y-181755723D01*
X64353806Y-181755723D02*
X64353806Y-181089056D01*
X64353806Y-181184294D02*
X64306187Y-181136675D01*
X64306187Y-181136675D02*
X64210949Y-181089056D01*
X64210949Y-181089056D02*
X64068092Y-181089056D01*
X64068092Y-181089056D02*
X63972854Y-181136675D01*
X63972854Y-181136675D02*
X63925235Y-181231913D01*
X63925235Y-181231913D02*
X63925235Y-181755723D01*
X63925235Y-181231913D02*
X63877616Y-181136675D01*
X63877616Y-181136675D02*
X63782378Y-181089056D01*
X63782378Y-181089056D02*
X63639521Y-181089056D01*
X63639521Y-181089056D02*
X63544282Y-181136675D01*
X63544282Y-181136675D02*
X63496663Y-181231913D01*
X63496663Y-181231913D02*
X63496663Y-181755723D01*
X62591902Y-181755723D02*
X62591902Y-181231913D01*
X62591902Y-181231913D02*
X62639521Y-181136675D01*
X62639521Y-181136675D02*
X62734759Y-181089056D01*
X62734759Y-181089056D02*
X62925235Y-181089056D01*
X62925235Y-181089056D02*
X63020473Y-181136675D01*
X62591902Y-181708104D02*
X62687140Y-181755723D01*
X62687140Y-181755723D02*
X62925235Y-181755723D01*
X62925235Y-181755723D02*
X63020473Y-181708104D01*
X63020473Y-181708104D02*
X63068092Y-181612865D01*
X63068092Y-181612865D02*
X63068092Y-181517627D01*
X63068092Y-181517627D02*
X63020473Y-181422389D01*
X63020473Y-181422389D02*
X62925235Y-181374770D01*
X62925235Y-181374770D02*
X62687140Y-181374770D01*
X62687140Y-181374770D02*
X62591902Y-181327151D01*
X139701713Y-161677819D02*
X139701713Y-162487342D01*
X139701713Y-162487342D02*
X139654094Y-162582580D01*
X139654094Y-162582580D02*
X139606475Y-162630200D01*
X139606475Y-162630200D02*
X139511237Y-162677819D01*
X139511237Y-162677819D02*
X139320761Y-162677819D01*
X139320761Y-162677819D02*
X139225523Y-162630200D01*
X139225523Y-162630200D02*
X139177904Y-162582580D01*
X139177904Y-162582580D02*
X139130285Y-162487342D01*
X139130285Y-162487342D02*
X139130285Y-161677819D01*
X138654094Y-162677819D02*
X138654094Y-161677819D01*
X138654094Y-161677819D02*
X138273142Y-161677819D01*
X138273142Y-161677819D02*
X138177904Y-161725438D01*
X138177904Y-161725438D02*
X138130285Y-161773057D01*
X138130285Y-161773057D02*
X138082666Y-161868295D01*
X138082666Y-161868295D02*
X138082666Y-162011152D01*
X138082666Y-162011152D02*
X138130285Y-162106390D01*
X138130285Y-162106390D02*
X138177904Y-162154009D01*
X138177904Y-162154009D02*
X138273142Y-162201628D01*
X138273142Y-162201628D02*
X138654094Y-162201628D01*
X208003618Y-134722009D02*
X207860761Y-134769628D01*
X207860761Y-134769628D02*
X207813142Y-134817247D01*
X207813142Y-134817247D02*
X207765523Y-134912485D01*
X207765523Y-134912485D02*
X207765523Y-135055342D01*
X207765523Y-135055342D02*
X207813142Y-135150580D01*
X207813142Y-135150580D02*
X207860761Y-135198200D01*
X207860761Y-135198200D02*
X207955999Y-135245819D01*
X207955999Y-135245819D02*
X208336951Y-135245819D01*
X208336951Y-135245819D02*
X208336951Y-134245819D01*
X208336951Y-134245819D02*
X208003618Y-134245819D01*
X208003618Y-134245819D02*
X207908380Y-134293438D01*
X207908380Y-134293438D02*
X207860761Y-134341057D01*
X207860761Y-134341057D02*
X207813142Y-134436295D01*
X207813142Y-134436295D02*
X207813142Y-134531533D01*
X207813142Y-134531533D02*
X207860761Y-134626771D01*
X207860761Y-134626771D02*
X207908380Y-134674390D01*
X207908380Y-134674390D02*
X208003618Y-134722009D01*
X208003618Y-134722009D02*
X208336951Y-134722009D01*
X206622666Y-134198200D02*
X207479808Y-135483914D01*
X205717904Y-135150580D02*
X205765523Y-135198200D01*
X205765523Y-135198200D02*
X205908380Y-135245819D01*
X205908380Y-135245819D02*
X206003618Y-135245819D01*
X206003618Y-135245819D02*
X206146475Y-135198200D01*
X206146475Y-135198200D02*
X206241713Y-135102961D01*
X206241713Y-135102961D02*
X206289332Y-135007723D01*
X206289332Y-135007723D02*
X206336951Y-134817247D01*
X206336951Y-134817247D02*
X206336951Y-134674390D01*
X206336951Y-134674390D02*
X206289332Y-134483914D01*
X206289332Y-134483914D02*
X206241713Y-134388676D01*
X206241713Y-134388676D02*
X206146475Y-134293438D01*
X206146475Y-134293438D02*
X206003618Y-134245819D01*
X206003618Y-134245819D02*
X205908380Y-134245819D01*
X205908380Y-134245819D02*
X205765523Y-134293438D01*
X205765523Y-134293438D02*
X205717904Y-134341057D01*
X205289332Y-135245819D02*
X205289332Y-134245819D01*
X204241714Y-135245819D02*
X204575047Y-134769628D01*
X204813142Y-135245819D02*
X204813142Y-134245819D01*
X204813142Y-134245819D02*
X204432190Y-134245819D01*
X204432190Y-134245819D02*
X204336952Y-134293438D01*
X204336952Y-134293438D02*
X204289333Y-134341057D01*
X204289333Y-134341057D02*
X204241714Y-134436295D01*
X204241714Y-134436295D02*
X204241714Y-134579152D01*
X204241714Y-134579152D02*
X204289333Y-134674390D01*
X204289333Y-134674390D02*
X204336952Y-134722009D01*
X204336952Y-134722009D02*
X204432190Y-134769628D01*
X204432190Y-134769628D02*
X204813142Y-134769628D01*
X203241714Y-135150580D02*
X203289333Y-135198200D01*
X203289333Y-135198200D02*
X203432190Y-135245819D01*
X203432190Y-135245819D02*
X203527428Y-135245819D01*
X203527428Y-135245819D02*
X203670285Y-135198200D01*
X203670285Y-135198200D02*
X203765523Y-135102961D01*
X203765523Y-135102961D02*
X203813142Y-135007723D01*
X203813142Y-135007723D02*
X203860761Y-134817247D01*
X203860761Y-134817247D02*
X203860761Y-134674390D01*
X203860761Y-134674390D02*
X203813142Y-134483914D01*
X203813142Y-134483914D02*
X203765523Y-134388676D01*
X203765523Y-134388676D02*
X203670285Y-134293438D01*
X203670285Y-134293438D02*
X203527428Y-134245819D01*
X203527428Y-134245819D02*
X203432190Y-134245819D01*
X203432190Y-134245819D02*
X203289333Y-134293438D01*
X203289333Y-134293438D02*
X203241714Y-134341057D01*
X202336952Y-135245819D02*
X202813142Y-135245819D01*
X202813142Y-135245819D02*
X202813142Y-134245819D01*
X202003618Y-134722009D02*
X201670285Y-134722009D01*
X201527428Y-135245819D02*
X202003618Y-135245819D01*
X202003618Y-135245819D02*
X202003618Y-134245819D01*
X202003618Y-134245819D02*
X201527428Y-134245819D01*
X126660381Y-140833819D02*
X127136571Y-140833819D01*
X127136571Y-140833819D02*
X127136571Y-139833819D01*
X126327047Y-140310009D02*
X125993714Y-140310009D01*
X125850857Y-140833819D02*
X126327047Y-140833819D01*
X126327047Y-140833819D02*
X126327047Y-139833819D01*
X126327047Y-139833819D02*
X125850857Y-139833819D01*
X125088952Y-140310009D02*
X125422285Y-140310009D01*
X125422285Y-140833819D02*
X125422285Y-139833819D01*
X125422285Y-139833819D02*
X124946095Y-139833819D01*
X124707999Y-139833819D02*
X124136571Y-139833819D01*
X124422285Y-140833819D02*
X124422285Y-139833819D01*
X207559523Y-82397200D02*
X207416666Y-82444819D01*
X207416666Y-82444819D02*
X207178571Y-82444819D01*
X207178571Y-82444819D02*
X207083333Y-82397200D01*
X207083333Y-82397200D02*
X207035714Y-82349580D01*
X207035714Y-82349580D02*
X206988095Y-82254342D01*
X206988095Y-82254342D02*
X206988095Y-82159104D01*
X206988095Y-82159104D02*
X207035714Y-82063866D01*
X207035714Y-82063866D02*
X207083333Y-82016247D01*
X207083333Y-82016247D02*
X207178571Y-81968628D01*
X207178571Y-81968628D02*
X207369047Y-81921009D01*
X207369047Y-81921009D02*
X207464285Y-81873390D01*
X207464285Y-81873390D02*
X207511904Y-81825771D01*
X207511904Y-81825771D02*
X207559523Y-81730533D01*
X207559523Y-81730533D02*
X207559523Y-81635295D01*
X207559523Y-81635295D02*
X207511904Y-81540057D01*
X207511904Y-81540057D02*
X207464285Y-81492438D01*
X207464285Y-81492438D02*
X207369047Y-81444819D01*
X207369047Y-81444819D02*
X207130952Y-81444819D01*
X207130952Y-81444819D02*
X206988095Y-81492438D01*
X206654761Y-81444819D02*
X206416666Y-82444819D01*
X206416666Y-82444819D02*
X206226190Y-81730533D01*
X206226190Y-81730533D02*
X206035714Y-82444819D01*
X206035714Y-82444819D02*
X205797619Y-81444819D01*
X204892857Y-82444819D02*
X205464285Y-82444819D01*
X205178571Y-82444819D02*
X205178571Y-81444819D01*
X205178571Y-81444819D02*
X205273809Y-81587676D01*
X205273809Y-81587676D02*
X205369047Y-81682914D01*
X205369047Y-81682914D02*
X205464285Y-81730533D01*
X203940476Y-82444819D02*
X204511904Y-82444819D01*
X204226190Y-82444819D02*
X204226190Y-81444819D01*
X204226190Y-81444819D02*
X204321428Y-81587676D01*
X204321428Y-81587676D02*
X204416666Y-81682914D01*
X204416666Y-81682914D02*
X204511904Y-81730533D01*
X184349523Y-63267200D02*
X184206666Y-63314819D01*
X184206666Y-63314819D02*
X183968571Y-63314819D01*
X183968571Y-63314819D02*
X183873333Y-63267200D01*
X183873333Y-63267200D02*
X183825714Y-63219580D01*
X183825714Y-63219580D02*
X183778095Y-63124342D01*
X183778095Y-63124342D02*
X183778095Y-63029104D01*
X183778095Y-63029104D02*
X183825714Y-62933866D01*
X183825714Y-62933866D02*
X183873333Y-62886247D01*
X183873333Y-62886247D02*
X183968571Y-62838628D01*
X183968571Y-62838628D02*
X184159047Y-62791009D01*
X184159047Y-62791009D02*
X184254285Y-62743390D01*
X184254285Y-62743390D02*
X184301904Y-62695771D01*
X184301904Y-62695771D02*
X184349523Y-62600533D01*
X184349523Y-62600533D02*
X184349523Y-62505295D01*
X184349523Y-62505295D02*
X184301904Y-62410057D01*
X184301904Y-62410057D02*
X184254285Y-62362438D01*
X184254285Y-62362438D02*
X184159047Y-62314819D01*
X184159047Y-62314819D02*
X183920952Y-62314819D01*
X183920952Y-62314819D02*
X183778095Y-62362438D01*
X183444761Y-62314819D02*
X183206666Y-63314819D01*
X183206666Y-63314819D02*
X183016190Y-62600533D01*
X183016190Y-62600533D02*
X182825714Y-63314819D01*
X182825714Y-63314819D02*
X182587619Y-62314819D01*
X181682857Y-63314819D02*
X182254285Y-63314819D01*
X181968571Y-63314819D02*
X181968571Y-62314819D01*
X181968571Y-62314819D02*
X182063809Y-62457676D01*
X182063809Y-62457676D02*
X182159047Y-62552914D01*
X182159047Y-62552914D02*
X182254285Y-62600533D01*
X180825714Y-62648152D02*
X180825714Y-63314819D01*
X181063809Y-62267200D02*
X181301904Y-62981485D01*
X181301904Y-62981485D02*
X180682857Y-62981485D01*
X179679523Y-123887200D02*
X179536666Y-123934819D01*
X179536666Y-123934819D02*
X179298571Y-123934819D01*
X179298571Y-123934819D02*
X179203333Y-123887200D01*
X179203333Y-123887200D02*
X179155714Y-123839580D01*
X179155714Y-123839580D02*
X179108095Y-123744342D01*
X179108095Y-123744342D02*
X179108095Y-123649104D01*
X179108095Y-123649104D02*
X179155714Y-123553866D01*
X179155714Y-123553866D02*
X179203333Y-123506247D01*
X179203333Y-123506247D02*
X179298571Y-123458628D01*
X179298571Y-123458628D02*
X179489047Y-123411009D01*
X179489047Y-123411009D02*
X179584285Y-123363390D01*
X179584285Y-123363390D02*
X179631904Y-123315771D01*
X179631904Y-123315771D02*
X179679523Y-123220533D01*
X179679523Y-123220533D02*
X179679523Y-123125295D01*
X179679523Y-123125295D02*
X179631904Y-123030057D01*
X179631904Y-123030057D02*
X179584285Y-122982438D01*
X179584285Y-122982438D02*
X179489047Y-122934819D01*
X179489047Y-122934819D02*
X179250952Y-122934819D01*
X179250952Y-122934819D02*
X179108095Y-122982438D01*
X178774761Y-122934819D02*
X178536666Y-123934819D01*
X178536666Y-123934819D02*
X178346190Y-123220533D01*
X178346190Y-123220533D02*
X178155714Y-123934819D01*
X178155714Y-123934819D02*
X177917619Y-122934819D01*
X177012857Y-123934819D02*
X177584285Y-123934819D01*
X177298571Y-123934819D02*
X177298571Y-122934819D01*
X177298571Y-122934819D02*
X177393809Y-123077676D01*
X177393809Y-123077676D02*
X177489047Y-123172914D01*
X177489047Y-123172914D02*
X177584285Y-123220533D01*
X176155714Y-122934819D02*
X176346190Y-122934819D01*
X176346190Y-122934819D02*
X176441428Y-122982438D01*
X176441428Y-122982438D02*
X176489047Y-123030057D01*
X176489047Y-123030057D02*
X176584285Y-123172914D01*
X176584285Y-123172914D02*
X176631904Y-123363390D01*
X176631904Y-123363390D02*
X176631904Y-123744342D01*
X176631904Y-123744342D02*
X176584285Y-123839580D01*
X176584285Y-123839580D02*
X176536666Y-123887200D01*
X176536666Y-123887200D02*
X176441428Y-123934819D01*
X176441428Y-123934819D02*
X176250952Y-123934819D01*
X176250952Y-123934819D02*
X176155714Y-123887200D01*
X176155714Y-123887200D02*
X176108095Y-123839580D01*
X176108095Y-123839580D02*
X176060476Y-123744342D01*
X176060476Y-123744342D02*
X176060476Y-123506247D01*
X176060476Y-123506247D02*
X176108095Y-123411009D01*
X176108095Y-123411009D02*
X176155714Y-123363390D01*
X176155714Y-123363390D02*
X176250952Y-123315771D01*
X176250952Y-123315771D02*
X176441428Y-123315771D01*
X176441428Y-123315771D02*
X176536666Y-123363390D01*
X176536666Y-123363390D02*
X176584285Y-123411009D01*
X176584285Y-123411009D02*
X176631904Y-123506247D01*
X238029523Y-107907200D02*
X237886666Y-107954819D01*
X237886666Y-107954819D02*
X237648571Y-107954819D01*
X237648571Y-107954819D02*
X237553333Y-107907200D01*
X237553333Y-107907200D02*
X237505714Y-107859580D01*
X237505714Y-107859580D02*
X237458095Y-107764342D01*
X237458095Y-107764342D02*
X237458095Y-107669104D01*
X237458095Y-107669104D02*
X237505714Y-107573866D01*
X237505714Y-107573866D02*
X237553333Y-107526247D01*
X237553333Y-107526247D02*
X237648571Y-107478628D01*
X237648571Y-107478628D02*
X237839047Y-107431009D01*
X237839047Y-107431009D02*
X237934285Y-107383390D01*
X237934285Y-107383390D02*
X237981904Y-107335771D01*
X237981904Y-107335771D02*
X238029523Y-107240533D01*
X238029523Y-107240533D02*
X238029523Y-107145295D01*
X238029523Y-107145295D02*
X237981904Y-107050057D01*
X237981904Y-107050057D02*
X237934285Y-107002438D01*
X237934285Y-107002438D02*
X237839047Y-106954819D01*
X237839047Y-106954819D02*
X237600952Y-106954819D01*
X237600952Y-106954819D02*
X237458095Y-107002438D01*
X237124761Y-106954819D02*
X236886666Y-107954819D01*
X236886666Y-107954819D02*
X236696190Y-107240533D01*
X236696190Y-107240533D02*
X236505714Y-107954819D01*
X236505714Y-107954819D02*
X236267619Y-106954819D01*
X235362857Y-107954819D02*
X235934285Y-107954819D01*
X235648571Y-107954819D02*
X235648571Y-106954819D01*
X235648571Y-106954819D02*
X235743809Y-107097676D01*
X235743809Y-107097676D02*
X235839047Y-107192914D01*
X235839047Y-107192914D02*
X235934285Y-107240533D01*
X234791428Y-107383390D02*
X234886666Y-107335771D01*
X234886666Y-107335771D02*
X234934285Y-107288152D01*
X234934285Y-107288152D02*
X234981904Y-107192914D01*
X234981904Y-107192914D02*
X234981904Y-107145295D01*
X234981904Y-107145295D02*
X234934285Y-107050057D01*
X234934285Y-107050057D02*
X234886666Y-107002438D01*
X234886666Y-107002438D02*
X234791428Y-106954819D01*
X234791428Y-106954819D02*
X234600952Y-106954819D01*
X234600952Y-106954819D02*
X234505714Y-107002438D01*
X234505714Y-107002438D02*
X234458095Y-107050057D01*
X234458095Y-107050057D02*
X234410476Y-107145295D01*
X234410476Y-107145295D02*
X234410476Y-107192914D01*
X234410476Y-107192914D02*
X234458095Y-107288152D01*
X234458095Y-107288152D02*
X234505714Y-107335771D01*
X234505714Y-107335771D02*
X234600952Y-107383390D01*
X234600952Y-107383390D02*
X234791428Y-107383390D01*
X234791428Y-107383390D02*
X234886666Y-107431009D01*
X234886666Y-107431009D02*
X234934285Y-107478628D01*
X234934285Y-107478628D02*
X234981904Y-107573866D01*
X234981904Y-107573866D02*
X234981904Y-107764342D01*
X234981904Y-107764342D02*
X234934285Y-107859580D01*
X234934285Y-107859580D02*
X234886666Y-107907200D01*
X234886666Y-107907200D02*
X234791428Y-107954819D01*
X234791428Y-107954819D02*
X234600952Y-107954819D01*
X234600952Y-107954819D02*
X234505714Y-107907200D01*
X234505714Y-107907200D02*
X234458095Y-107859580D01*
X234458095Y-107859580D02*
X234410476Y-107764342D01*
X234410476Y-107764342D02*
X234410476Y-107573866D01*
X234410476Y-107573866D02*
X234458095Y-107478628D01*
X234458095Y-107478628D02*
X234505714Y-107431009D01*
X234505714Y-107431009D02*
X234600952Y-107383390D01*
X127153332Y-117777200D02*
X127010475Y-117824819D01*
X127010475Y-117824819D02*
X126772380Y-117824819D01*
X126772380Y-117824819D02*
X126677142Y-117777200D01*
X126677142Y-117777200D02*
X126629523Y-117729580D01*
X126629523Y-117729580D02*
X126581904Y-117634342D01*
X126581904Y-117634342D02*
X126581904Y-117539104D01*
X126581904Y-117539104D02*
X126629523Y-117443866D01*
X126629523Y-117443866D02*
X126677142Y-117396247D01*
X126677142Y-117396247D02*
X126772380Y-117348628D01*
X126772380Y-117348628D02*
X126962856Y-117301009D01*
X126962856Y-117301009D02*
X127058094Y-117253390D01*
X127058094Y-117253390D02*
X127105713Y-117205771D01*
X127105713Y-117205771D02*
X127153332Y-117110533D01*
X127153332Y-117110533D02*
X127153332Y-117015295D01*
X127153332Y-117015295D02*
X127105713Y-116920057D01*
X127105713Y-116920057D02*
X127058094Y-116872438D01*
X127058094Y-116872438D02*
X126962856Y-116824819D01*
X126962856Y-116824819D02*
X126724761Y-116824819D01*
X126724761Y-116824819D02*
X126581904Y-116872438D01*
X126248570Y-116824819D02*
X126010475Y-117824819D01*
X126010475Y-117824819D02*
X125819999Y-117110533D01*
X125819999Y-117110533D02*
X125629523Y-117824819D01*
X125629523Y-117824819D02*
X125391428Y-116824819D01*
X124581904Y-116824819D02*
X124772380Y-116824819D01*
X124772380Y-116824819D02*
X124867618Y-116872438D01*
X124867618Y-116872438D02*
X124915237Y-116920057D01*
X124915237Y-116920057D02*
X125010475Y-117062914D01*
X125010475Y-117062914D02*
X125058094Y-117253390D01*
X125058094Y-117253390D02*
X125058094Y-117634342D01*
X125058094Y-117634342D02*
X125010475Y-117729580D01*
X125010475Y-117729580D02*
X124962856Y-117777200D01*
X124962856Y-117777200D02*
X124867618Y-117824819D01*
X124867618Y-117824819D02*
X124677142Y-117824819D01*
X124677142Y-117824819D02*
X124581904Y-117777200D01*
X124581904Y-117777200D02*
X124534285Y-117729580D01*
X124534285Y-117729580D02*
X124486666Y-117634342D01*
X124486666Y-117634342D02*
X124486666Y-117396247D01*
X124486666Y-117396247D02*
X124534285Y-117301009D01*
X124534285Y-117301009D02*
X124581904Y-117253390D01*
X124581904Y-117253390D02*
X124677142Y-117205771D01*
X124677142Y-117205771D02*
X124867618Y-117205771D01*
X124867618Y-117205771D02*
X124962856Y-117253390D01*
X124962856Y-117253390D02*
X125010475Y-117301009D01*
X125010475Y-117301009D02*
X125058094Y-117396247D01*
X264229523Y-92627200D02*
X264086666Y-92674819D01*
X264086666Y-92674819D02*
X263848571Y-92674819D01*
X263848571Y-92674819D02*
X263753333Y-92627200D01*
X263753333Y-92627200D02*
X263705714Y-92579580D01*
X263705714Y-92579580D02*
X263658095Y-92484342D01*
X263658095Y-92484342D02*
X263658095Y-92389104D01*
X263658095Y-92389104D02*
X263705714Y-92293866D01*
X263705714Y-92293866D02*
X263753333Y-92246247D01*
X263753333Y-92246247D02*
X263848571Y-92198628D01*
X263848571Y-92198628D02*
X264039047Y-92151009D01*
X264039047Y-92151009D02*
X264134285Y-92103390D01*
X264134285Y-92103390D02*
X264181904Y-92055771D01*
X264181904Y-92055771D02*
X264229523Y-91960533D01*
X264229523Y-91960533D02*
X264229523Y-91865295D01*
X264229523Y-91865295D02*
X264181904Y-91770057D01*
X264181904Y-91770057D02*
X264134285Y-91722438D01*
X264134285Y-91722438D02*
X264039047Y-91674819D01*
X264039047Y-91674819D02*
X263800952Y-91674819D01*
X263800952Y-91674819D02*
X263658095Y-91722438D01*
X263324761Y-91674819D02*
X263086666Y-92674819D01*
X263086666Y-92674819D02*
X262896190Y-91960533D01*
X262896190Y-91960533D02*
X262705714Y-92674819D01*
X262705714Y-92674819D02*
X262467619Y-91674819D01*
X261562857Y-92674819D02*
X262134285Y-92674819D01*
X261848571Y-92674819D02*
X261848571Y-91674819D01*
X261848571Y-91674819D02*
X261943809Y-91817676D01*
X261943809Y-91817676D02*
X262039047Y-91912914D01*
X262039047Y-91912914D02*
X262134285Y-91960533D01*
X261229523Y-91674819D02*
X260610476Y-91674819D01*
X260610476Y-91674819D02*
X260943809Y-92055771D01*
X260943809Y-92055771D02*
X260800952Y-92055771D01*
X260800952Y-92055771D02*
X260705714Y-92103390D01*
X260705714Y-92103390D02*
X260658095Y-92151009D01*
X260658095Y-92151009D02*
X260610476Y-92246247D01*
X260610476Y-92246247D02*
X260610476Y-92484342D01*
X260610476Y-92484342D02*
X260658095Y-92579580D01*
X260658095Y-92579580D02*
X260705714Y-92627200D01*
X260705714Y-92627200D02*
X260800952Y-92674819D01*
X260800952Y-92674819D02*
X261086666Y-92674819D01*
X261086666Y-92674819D02*
X261181904Y-92627200D01*
X261181904Y-92627200D02*
X261229523Y-92579580D01*
X152699523Y-135327200D02*
X152556666Y-135374819D01*
X152556666Y-135374819D02*
X152318571Y-135374819D01*
X152318571Y-135374819D02*
X152223333Y-135327200D01*
X152223333Y-135327200D02*
X152175714Y-135279580D01*
X152175714Y-135279580D02*
X152128095Y-135184342D01*
X152128095Y-135184342D02*
X152128095Y-135089104D01*
X152128095Y-135089104D02*
X152175714Y-134993866D01*
X152175714Y-134993866D02*
X152223333Y-134946247D01*
X152223333Y-134946247D02*
X152318571Y-134898628D01*
X152318571Y-134898628D02*
X152509047Y-134851009D01*
X152509047Y-134851009D02*
X152604285Y-134803390D01*
X152604285Y-134803390D02*
X152651904Y-134755771D01*
X152651904Y-134755771D02*
X152699523Y-134660533D01*
X152699523Y-134660533D02*
X152699523Y-134565295D01*
X152699523Y-134565295D02*
X152651904Y-134470057D01*
X152651904Y-134470057D02*
X152604285Y-134422438D01*
X152604285Y-134422438D02*
X152509047Y-134374819D01*
X152509047Y-134374819D02*
X152270952Y-134374819D01*
X152270952Y-134374819D02*
X152128095Y-134422438D01*
X151794761Y-134374819D02*
X151556666Y-135374819D01*
X151556666Y-135374819D02*
X151366190Y-134660533D01*
X151366190Y-134660533D02*
X151175714Y-135374819D01*
X151175714Y-135374819D02*
X150937619Y-134374819D01*
X150032857Y-135374819D02*
X150604285Y-135374819D01*
X150318571Y-135374819D02*
X150318571Y-134374819D01*
X150318571Y-134374819D02*
X150413809Y-134517676D01*
X150413809Y-134517676D02*
X150509047Y-134612914D01*
X150509047Y-134612914D02*
X150604285Y-134660533D01*
X149128095Y-134374819D02*
X149604285Y-134374819D01*
X149604285Y-134374819D02*
X149651904Y-134851009D01*
X149651904Y-134851009D02*
X149604285Y-134803390D01*
X149604285Y-134803390D02*
X149509047Y-134755771D01*
X149509047Y-134755771D02*
X149270952Y-134755771D01*
X149270952Y-134755771D02*
X149175714Y-134803390D01*
X149175714Y-134803390D02*
X149128095Y-134851009D01*
X149128095Y-134851009D02*
X149080476Y-134946247D01*
X149080476Y-134946247D02*
X149080476Y-135184342D01*
X149080476Y-135184342D02*
X149128095Y-135279580D01*
X149128095Y-135279580D02*
X149175714Y-135327200D01*
X149175714Y-135327200D02*
X149270952Y-135374819D01*
X149270952Y-135374819D02*
X149509047Y-135374819D01*
X149509047Y-135374819D02*
X149604285Y-135327200D01*
X149604285Y-135327200D02*
X149651904Y-135279580D01*
X154383332Y-105217200D02*
X154240475Y-105264819D01*
X154240475Y-105264819D02*
X154002380Y-105264819D01*
X154002380Y-105264819D02*
X153907142Y-105217200D01*
X153907142Y-105217200D02*
X153859523Y-105169580D01*
X153859523Y-105169580D02*
X153811904Y-105074342D01*
X153811904Y-105074342D02*
X153811904Y-104979104D01*
X153811904Y-104979104D02*
X153859523Y-104883866D01*
X153859523Y-104883866D02*
X153907142Y-104836247D01*
X153907142Y-104836247D02*
X154002380Y-104788628D01*
X154002380Y-104788628D02*
X154192856Y-104741009D01*
X154192856Y-104741009D02*
X154288094Y-104693390D01*
X154288094Y-104693390D02*
X154335713Y-104645771D01*
X154335713Y-104645771D02*
X154383332Y-104550533D01*
X154383332Y-104550533D02*
X154383332Y-104455295D01*
X154383332Y-104455295D02*
X154335713Y-104360057D01*
X154335713Y-104360057D02*
X154288094Y-104312438D01*
X154288094Y-104312438D02*
X154192856Y-104264819D01*
X154192856Y-104264819D02*
X153954761Y-104264819D01*
X153954761Y-104264819D02*
X153811904Y-104312438D01*
X153478570Y-104264819D02*
X153240475Y-105264819D01*
X153240475Y-105264819D02*
X153049999Y-104550533D01*
X153049999Y-104550533D02*
X152859523Y-105264819D01*
X152859523Y-105264819D02*
X152621428Y-104264819D01*
X152192856Y-105264819D02*
X152002380Y-105264819D01*
X152002380Y-105264819D02*
X151907142Y-105217200D01*
X151907142Y-105217200D02*
X151859523Y-105169580D01*
X151859523Y-105169580D02*
X151764285Y-105026723D01*
X151764285Y-105026723D02*
X151716666Y-104836247D01*
X151716666Y-104836247D02*
X151716666Y-104455295D01*
X151716666Y-104455295D02*
X151764285Y-104360057D01*
X151764285Y-104360057D02*
X151811904Y-104312438D01*
X151811904Y-104312438D02*
X151907142Y-104264819D01*
X151907142Y-104264819D02*
X152097618Y-104264819D01*
X152097618Y-104264819D02*
X152192856Y-104312438D01*
X152192856Y-104312438D02*
X152240475Y-104360057D01*
X152240475Y-104360057D02*
X152288094Y-104455295D01*
X152288094Y-104455295D02*
X152288094Y-104693390D01*
X152288094Y-104693390D02*
X152240475Y-104788628D01*
X152240475Y-104788628D02*
X152192856Y-104836247D01*
X152192856Y-104836247D02*
X152097618Y-104883866D01*
X152097618Y-104883866D02*
X151907142Y-104883866D01*
X151907142Y-104883866D02*
X151811904Y-104836247D01*
X151811904Y-104836247D02*
X151764285Y-104788628D01*
X151764285Y-104788628D02*
X151716666Y-104693390D01*
X108553332Y-161987200D02*
X108410475Y-162034819D01*
X108410475Y-162034819D02*
X108172380Y-162034819D01*
X108172380Y-162034819D02*
X108077142Y-161987200D01*
X108077142Y-161987200D02*
X108029523Y-161939580D01*
X108029523Y-161939580D02*
X107981904Y-161844342D01*
X107981904Y-161844342D02*
X107981904Y-161749104D01*
X107981904Y-161749104D02*
X108029523Y-161653866D01*
X108029523Y-161653866D02*
X108077142Y-161606247D01*
X108077142Y-161606247D02*
X108172380Y-161558628D01*
X108172380Y-161558628D02*
X108362856Y-161511009D01*
X108362856Y-161511009D02*
X108458094Y-161463390D01*
X108458094Y-161463390D02*
X108505713Y-161415771D01*
X108505713Y-161415771D02*
X108553332Y-161320533D01*
X108553332Y-161320533D02*
X108553332Y-161225295D01*
X108553332Y-161225295D02*
X108505713Y-161130057D01*
X108505713Y-161130057D02*
X108458094Y-161082438D01*
X108458094Y-161082438D02*
X108362856Y-161034819D01*
X108362856Y-161034819D02*
X108124761Y-161034819D01*
X108124761Y-161034819D02*
X107981904Y-161082438D01*
X107648570Y-161034819D02*
X107410475Y-162034819D01*
X107410475Y-162034819D02*
X107219999Y-161320533D01*
X107219999Y-161320533D02*
X107029523Y-162034819D01*
X107029523Y-162034819D02*
X106791428Y-161034819D01*
X106505713Y-161034819D02*
X105839047Y-161034819D01*
X105839047Y-161034819D02*
X106267618Y-162034819D01*
X181209523Y-93807200D02*
X181066666Y-93854819D01*
X181066666Y-93854819D02*
X180828571Y-93854819D01*
X180828571Y-93854819D02*
X180733333Y-93807200D01*
X180733333Y-93807200D02*
X180685714Y-93759580D01*
X180685714Y-93759580D02*
X180638095Y-93664342D01*
X180638095Y-93664342D02*
X180638095Y-93569104D01*
X180638095Y-93569104D02*
X180685714Y-93473866D01*
X180685714Y-93473866D02*
X180733333Y-93426247D01*
X180733333Y-93426247D02*
X180828571Y-93378628D01*
X180828571Y-93378628D02*
X181019047Y-93331009D01*
X181019047Y-93331009D02*
X181114285Y-93283390D01*
X181114285Y-93283390D02*
X181161904Y-93235771D01*
X181161904Y-93235771D02*
X181209523Y-93140533D01*
X181209523Y-93140533D02*
X181209523Y-93045295D01*
X181209523Y-93045295D02*
X181161904Y-92950057D01*
X181161904Y-92950057D02*
X181114285Y-92902438D01*
X181114285Y-92902438D02*
X181019047Y-92854819D01*
X181019047Y-92854819D02*
X180780952Y-92854819D01*
X180780952Y-92854819D02*
X180638095Y-92902438D01*
X180304761Y-92854819D02*
X180066666Y-93854819D01*
X180066666Y-93854819D02*
X179876190Y-93140533D01*
X179876190Y-93140533D02*
X179685714Y-93854819D01*
X179685714Y-93854819D02*
X179447619Y-92854819D01*
X178542857Y-93854819D02*
X179114285Y-93854819D01*
X178828571Y-93854819D02*
X178828571Y-92854819D01*
X178828571Y-92854819D02*
X178923809Y-92997676D01*
X178923809Y-92997676D02*
X179019047Y-93092914D01*
X179019047Y-93092914D02*
X179114285Y-93140533D01*
X177923809Y-92854819D02*
X177828571Y-92854819D01*
X177828571Y-92854819D02*
X177733333Y-92902438D01*
X177733333Y-92902438D02*
X177685714Y-92950057D01*
X177685714Y-92950057D02*
X177638095Y-93045295D01*
X177638095Y-93045295D02*
X177590476Y-93235771D01*
X177590476Y-93235771D02*
X177590476Y-93473866D01*
X177590476Y-93473866D02*
X177638095Y-93664342D01*
X177638095Y-93664342D02*
X177685714Y-93759580D01*
X177685714Y-93759580D02*
X177733333Y-93807200D01*
X177733333Y-93807200D02*
X177828571Y-93854819D01*
X177828571Y-93854819D02*
X177923809Y-93854819D01*
X177923809Y-93854819D02*
X178019047Y-93807200D01*
X178019047Y-93807200D02*
X178066666Y-93759580D01*
X178066666Y-93759580D02*
X178114285Y-93664342D01*
X178114285Y-93664342D02*
X178161904Y-93473866D01*
X178161904Y-93473866D02*
X178161904Y-93235771D01*
X178161904Y-93235771D02*
X178114285Y-93045295D01*
X178114285Y-93045295D02*
X178066666Y-92950057D01*
X178066666Y-92950057D02*
X178019047Y-92902438D01*
X178019047Y-92902438D02*
X177923809Y-92854819D01*
X206659523Y-112447200D02*
X206516666Y-112494819D01*
X206516666Y-112494819D02*
X206278571Y-112494819D01*
X206278571Y-112494819D02*
X206183333Y-112447200D01*
X206183333Y-112447200D02*
X206135714Y-112399580D01*
X206135714Y-112399580D02*
X206088095Y-112304342D01*
X206088095Y-112304342D02*
X206088095Y-112209104D01*
X206088095Y-112209104D02*
X206135714Y-112113866D01*
X206135714Y-112113866D02*
X206183333Y-112066247D01*
X206183333Y-112066247D02*
X206278571Y-112018628D01*
X206278571Y-112018628D02*
X206469047Y-111971009D01*
X206469047Y-111971009D02*
X206564285Y-111923390D01*
X206564285Y-111923390D02*
X206611904Y-111875771D01*
X206611904Y-111875771D02*
X206659523Y-111780533D01*
X206659523Y-111780533D02*
X206659523Y-111685295D01*
X206659523Y-111685295D02*
X206611904Y-111590057D01*
X206611904Y-111590057D02*
X206564285Y-111542438D01*
X206564285Y-111542438D02*
X206469047Y-111494819D01*
X206469047Y-111494819D02*
X206230952Y-111494819D01*
X206230952Y-111494819D02*
X206088095Y-111542438D01*
X205754761Y-111494819D02*
X205516666Y-112494819D01*
X205516666Y-112494819D02*
X205326190Y-111780533D01*
X205326190Y-111780533D02*
X205135714Y-112494819D01*
X205135714Y-112494819D02*
X204897619Y-111494819D01*
X203992857Y-112494819D02*
X204564285Y-112494819D01*
X204278571Y-112494819D02*
X204278571Y-111494819D01*
X204278571Y-111494819D02*
X204373809Y-111637676D01*
X204373809Y-111637676D02*
X204469047Y-111732914D01*
X204469047Y-111732914D02*
X204564285Y-111780533D01*
X203659523Y-111494819D02*
X202992857Y-111494819D01*
X202992857Y-111494819D02*
X203421428Y-112494819D01*
X140123332Y-170187200D02*
X139980475Y-170234819D01*
X139980475Y-170234819D02*
X139742380Y-170234819D01*
X139742380Y-170234819D02*
X139647142Y-170187200D01*
X139647142Y-170187200D02*
X139599523Y-170139580D01*
X139599523Y-170139580D02*
X139551904Y-170044342D01*
X139551904Y-170044342D02*
X139551904Y-169949104D01*
X139551904Y-169949104D02*
X139599523Y-169853866D01*
X139599523Y-169853866D02*
X139647142Y-169806247D01*
X139647142Y-169806247D02*
X139742380Y-169758628D01*
X139742380Y-169758628D02*
X139932856Y-169711009D01*
X139932856Y-169711009D02*
X140028094Y-169663390D01*
X140028094Y-169663390D02*
X140075713Y-169615771D01*
X140075713Y-169615771D02*
X140123332Y-169520533D01*
X140123332Y-169520533D02*
X140123332Y-169425295D01*
X140123332Y-169425295D02*
X140075713Y-169330057D01*
X140075713Y-169330057D02*
X140028094Y-169282438D01*
X140028094Y-169282438D02*
X139932856Y-169234819D01*
X139932856Y-169234819D02*
X139694761Y-169234819D01*
X139694761Y-169234819D02*
X139551904Y-169282438D01*
X139218570Y-169234819D02*
X138980475Y-170234819D01*
X138980475Y-170234819D02*
X138789999Y-169520533D01*
X138789999Y-169520533D02*
X138599523Y-170234819D01*
X138599523Y-170234819D02*
X138361428Y-169234819D01*
X137837618Y-169663390D02*
X137932856Y-169615771D01*
X137932856Y-169615771D02*
X137980475Y-169568152D01*
X137980475Y-169568152D02*
X138028094Y-169472914D01*
X138028094Y-169472914D02*
X138028094Y-169425295D01*
X138028094Y-169425295D02*
X137980475Y-169330057D01*
X137980475Y-169330057D02*
X137932856Y-169282438D01*
X137932856Y-169282438D02*
X137837618Y-169234819D01*
X137837618Y-169234819D02*
X137647142Y-169234819D01*
X137647142Y-169234819D02*
X137551904Y-169282438D01*
X137551904Y-169282438D02*
X137504285Y-169330057D01*
X137504285Y-169330057D02*
X137456666Y-169425295D01*
X137456666Y-169425295D02*
X137456666Y-169472914D01*
X137456666Y-169472914D02*
X137504285Y-169568152D01*
X137504285Y-169568152D02*
X137551904Y-169615771D01*
X137551904Y-169615771D02*
X137647142Y-169663390D01*
X137647142Y-169663390D02*
X137837618Y-169663390D01*
X137837618Y-169663390D02*
X137932856Y-169711009D01*
X137932856Y-169711009D02*
X137980475Y-169758628D01*
X137980475Y-169758628D02*
X138028094Y-169853866D01*
X138028094Y-169853866D02*
X138028094Y-170044342D01*
X138028094Y-170044342D02*
X137980475Y-170139580D01*
X137980475Y-170139580D02*
X137932856Y-170187200D01*
X137932856Y-170187200D02*
X137837618Y-170234819D01*
X137837618Y-170234819D02*
X137647142Y-170234819D01*
X137647142Y-170234819D02*
X137551904Y-170187200D01*
X137551904Y-170187200D02*
X137504285Y-170139580D01*
X137504285Y-170139580D02*
X137456666Y-170044342D01*
X137456666Y-170044342D02*
X137456666Y-169853866D01*
X137456666Y-169853866D02*
X137504285Y-169758628D01*
X137504285Y-169758628D02*
X137551904Y-169711009D01*
X137551904Y-169711009D02*
X137647142Y-169663390D01*
X236659523Y-78457200D02*
X236516666Y-78504819D01*
X236516666Y-78504819D02*
X236278571Y-78504819D01*
X236278571Y-78504819D02*
X236183333Y-78457200D01*
X236183333Y-78457200D02*
X236135714Y-78409580D01*
X236135714Y-78409580D02*
X236088095Y-78314342D01*
X236088095Y-78314342D02*
X236088095Y-78219104D01*
X236088095Y-78219104D02*
X236135714Y-78123866D01*
X236135714Y-78123866D02*
X236183333Y-78076247D01*
X236183333Y-78076247D02*
X236278571Y-78028628D01*
X236278571Y-78028628D02*
X236469047Y-77981009D01*
X236469047Y-77981009D02*
X236564285Y-77933390D01*
X236564285Y-77933390D02*
X236611904Y-77885771D01*
X236611904Y-77885771D02*
X236659523Y-77790533D01*
X236659523Y-77790533D02*
X236659523Y-77695295D01*
X236659523Y-77695295D02*
X236611904Y-77600057D01*
X236611904Y-77600057D02*
X236564285Y-77552438D01*
X236564285Y-77552438D02*
X236469047Y-77504819D01*
X236469047Y-77504819D02*
X236230952Y-77504819D01*
X236230952Y-77504819D02*
X236088095Y-77552438D01*
X235754761Y-77504819D02*
X235516666Y-78504819D01*
X235516666Y-78504819D02*
X235326190Y-77790533D01*
X235326190Y-77790533D02*
X235135714Y-78504819D01*
X235135714Y-78504819D02*
X234897619Y-77504819D01*
X233992857Y-78504819D02*
X234564285Y-78504819D01*
X234278571Y-78504819D02*
X234278571Y-77504819D01*
X234278571Y-77504819D02*
X234373809Y-77647676D01*
X234373809Y-77647676D02*
X234469047Y-77742914D01*
X234469047Y-77742914D02*
X234564285Y-77790533D01*
X233611904Y-77600057D02*
X233564285Y-77552438D01*
X233564285Y-77552438D02*
X233469047Y-77504819D01*
X233469047Y-77504819D02*
X233230952Y-77504819D01*
X233230952Y-77504819D02*
X233135714Y-77552438D01*
X233135714Y-77552438D02*
X233088095Y-77600057D01*
X233088095Y-77600057D02*
X233040476Y-77695295D01*
X233040476Y-77695295D02*
X233040476Y-77790533D01*
X233040476Y-77790533D02*
X233088095Y-77933390D01*
X233088095Y-77933390D02*
X233659523Y-78504819D01*
X233659523Y-78504819D02*
X233040476Y-78504819D01*
X101703332Y-104267200D02*
X101560475Y-104314819D01*
X101560475Y-104314819D02*
X101322380Y-104314819D01*
X101322380Y-104314819D02*
X101227142Y-104267200D01*
X101227142Y-104267200D02*
X101179523Y-104219580D01*
X101179523Y-104219580D02*
X101131904Y-104124342D01*
X101131904Y-104124342D02*
X101131904Y-104029104D01*
X101131904Y-104029104D02*
X101179523Y-103933866D01*
X101179523Y-103933866D02*
X101227142Y-103886247D01*
X101227142Y-103886247D02*
X101322380Y-103838628D01*
X101322380Y-103838628D02*
X101512856Y-103791009D01*
X101512856Y-103791009D02*
X101608094Y-103743390D01*
X101608094Y-103743390D02*
X101655713Y-103695771D01*
X101655713Y-103695771D02*
X101703332Y-103600533D01*
X101703332Y-103600533D02*
X101703332Y-103505295D01*
X101703332Y-103505295D02*
X101655713Y-103410057D01*
X101655713Y-103410057D02*
X101608094Y-103362438D01*
X101608094Y-103362438D02*
X101512856Y-103314819D01*
X101512856Y-103314819D02*
X101274761Y-103314819D01*
X101274761Y-103314819D02*
X101131904Y-103362438D01*
X100798570Y-103314819D02*
X100560475Y-104314819D01*
X100560475Y-104314819D02*
X100369999Y-103600533D01*
X100369999Y-103600533D02*
X100179523Y-104314819D01*
X100179523Y-104314819D02*
X99941428Y-103314819D01*
X99084285Y-103314819D02*
X99560475Y-103314819D01*
X99560475Y-103314819D02*
X99608094Y-103791009D01*
X99608094Y-103791009D02*
X99560475Y-103743390D01*
X99560475Y-103743390D02*
X99465237Y-103695771D01*
X99465237Y-103695771D02*
X99227142Y-103695771D01*
X99227142Y-103695771D02*
X99131904Y-103743390D01*
X99131904Y-103743390D02*
X99084285Y-103791009D01*
X99084285Y-103791009D02*
X99036666Y-103886247D01*
X99036666Y-103886247D02*
X99036666Y-104124342D01*
X99036666Y-104124342D02*
X99084285Y-104219580D01*
X99084285Y-104219580D02*
X99131904Y-104267200D01*
X99131904Y-104267200D02*
X99227142Y-104314819D01*
X99227142Y-104314819D02*
X99465237Y-104314819D01*
X99465237Y-104314819D02*
X99560475Y-104267200D01*
X99560475Y-104267200D02*
X99608094Y-104219580D01*
X73083332Y-104267200D02*
X72940475Y-104314819D01*
X72940475Y-104314819D02*
X72702380Y-104314819D01*
X72702380Y-104314819D02*
X72607142Y-104267200D01*
X72607142Y-104267200D02*
X72559523Y-104219580D01*
X72559523Y-104219580D02*
X72511904Y-104124342D01*
X72511904Y-104124342D02*
X72511904Y-104029104D01*
X72511904Y-104029104D02*
X72559523Y-103933866D01*
X72559523Y-103933866D02*
X72607142Y-103886247D01*
X72607142Y-103886247D02*
X72702380Y-103838628D01*
X72702380Y-103838628D02*
X72892856Y-103791009D01*
X72892856Y-103791009D02*
X72988094Y-103743390D01*
X72988094Y-103743390D02*
X73035713Y-103695771D01*
X73035713Y-103695771D02*
X73083332Y-103600533D01*
X73083332Y-103600533D02*
X73083332Y-103505295D01*
X73083332Y-103505295D02*
X73035713Y-103410057D01*
X73035713Y-103410057D02*
X72988094Y-103362438D01*
X72988094Y-103362438D02*
X72892856Y-103314819D01*
X72892856Y-103314819D02*
X72654761Y-103314819D01*
X72654761Y-103314819D02*
X72511904Y-103362438D01*
X72178570Y-103314819D02*
X71940475Y-104314819D01*
X71940475Y-104314819D02*
X71749999Y-103600533D01*
X71749999Y-103600533D02*
X71559523Y-104314819D01*
X71559523Y-104314819D02*
X71321428Y-103314819D01*
X70511904Y-103648152D02*
X70511904Y-104314819D01*
X70749999Y-103267200D02*
X70988094Y-103981485D01*
X70988094Y-103981485D02*
X70369047Y-103981485D01*
X198750000Y-83880000D02*
X199750000Y-83880000D01*
X198750000Y-84880000D02*
X198750000Y-83880000D01*
X198750000Y-97880000D02*
X198750000Y-96880000D01*
X199750000Y-97880000D02*
X198750000Y-97880000D01*
X203750000Y-83180000D02*
X204250000Y-82680000D01*
X203750000Y-86680000D02*
X204250000Y-87180000D01*
X204250000Y-82680000D02*
X207250000Y-82680000D01*
X204250000Y-87180000D02*
X206750000Y-87180000D01*
X207250000Y-82680000D02*
X207750000Y-83180000D01*
X207750000Y-84180000D02*
X207750000Y-83180000D01*
X208250000Y-88680000D02*
X208250000Y-89380000D01*
X208250000Y-89380000D02*
X212750000Y-89380000D01*
X211750000Y-83880000D02*
X212750000Y-83880000D01*
X212750000Y-83880000D02*
X212750000Y-84880000D01*
X212750000Y-84680000D02*
X208250000Y-84680000D01*
X212750000Y-85280000D02*
X212750000Y-84680000D01*
X212750000Y-89380000D02*
X212750000Y-88880000D01*
X212750000Y-96880000D02*
X212750000Y-97880000D01*
X212750000Y-97880000D02*
X211750000Y-97880000D01*
X208250000Y-88680000D02*
G75*
G03*
X206750000Y-87180000I-1500000J0D01*
G01*
X207750000Y-84180000D02*
G75*
G03*
X208250000Y-84680000I500000J0D01*
G01*
X175540000Y-64750000D02*
X176540000Y-64750000D01*
X175540000Y-65750000D02*
X175540000Y-64750000D01*
X175540000Y-78750000D02*
X175540000Y-77750000D01*
X176540000Y-78750000D02*
X175540000Y-78750000D01*
X180540000Y-64050000D02*
X181040000Y-63550000D01*
X180540000Y-67550000D02*
X181040000Y-68050000D01*
X181040000Y-63550000D02*
X184040000Y-63550000D01*
X181040000Y-68050000D02*
X183540000Y-68050000D01*
X184040000Y-63550000D02*
X184540000Y-64050000D01*
X184540000Y-65050000D02*
X184540000Y-64050000D01*
X185040000Y-69550000D02*
X185040000Y-70250000D01*
X185040000Y-70250000D02*
X189540000Y-70250000D01*
X188540000Y-64750000D02*
X189540000Y-64750000D01*
X189540000Y-64750000D02*
X189540000Y-65750000D01*
X189540000Y-65550000D02*
X185040000Y-65550000D01*
X189540000Y-66150000D02*
X189540000Y-65550000D01*
X189540000Y-70250000D02*
X189540000Y-69750000D01*
X189540000Y-77750000D02*
X189540000Y-78750000D01*
X189540000Y-78750000D02*
X188540000Y-78750000D01*
X185040000Y-69550000D02*
G75*
G03*
X183540000Y-68050000I-1500000J0D01*
G01*
X184540000Y-65050000D02*
G75*
G03*
X185040000Y-65550000I500000J0D01*
G01*
X170870000Y-125370000D02*
X171870000Y-125370000D01*
X170870000Y-126370000D02*
X170870000Y-125370000D01*
X170870000Y-139370000D02*
X170870000Y-138370000D01*
X171870000Y-139370000D02*
X170870000Y-139370000D01*
X175870000Y-124670000D02*
X176370000Y-124170000D01*
X175870000Y-128170000D02*
X176370000Y-128670000D01*
X176370000Y-124170000D02*
X179370000Y-124170000D01*
X176370000Y-128670000D02*
X178870000Y-128670000D01*
X179370000Y-124170000D02*
X179870000Y-124670000D01*
X179870000Y-125670000D02*
X179870000Y-124670000D01*
X180370000Y-130170000D02*
X180370000Y-130870000D01*
X180370000Y-130870000D02*
X184870000Y-130870000D01*
X183870000Y-125370000D02*
X184870000Y-125370000D01*
X184870000Y-125370000D02*
X184870000Y-126370000D01*
X184870000Y-126170000D02*
X180370000Y-126170000D01*
X184870000Y-126770000D02*
X184870000Y-126170000D01*
X184870000Y-130870000D02*
X184870000Y-130370000D01*
X184870000Y-138370000D02*
X184870000Y-139370000D01*
X184870000Y-139370000D02*
X183870000Y-139370000D01*
X180370000Y-130170000D02*
G75*
G03*
X178870000Y-128670000I-1500000J0D01*
G01*
X179870000Y-125670000D02*
G75*
G03*
X180370000Y-126170000I500000J0D01*
G01*
X229220000Y-109390000D02*
X230220000Y-109390000D01*
X229220000Y-110390000D02*
X229220000Y-109390000D01*
X229220000Y-123390000D02*
X229220000Y-122390000D01*
X230220000Y-123390000D02*
X229220000Y-123390000D01*
X234220000Y-108690000D02*
X234720000Y-108190000D01*
X234220000Y-112190000D02*
X234720000Y-112690000D01*
X234720000Y-108190000D02*
X237720000Y-108190000D01*
X234720000Y-112690000D02*
X237220000Y-112690000D01*
X237720000Y-108190000D02*
X238220000Y-108690000D01*
X238220000Y-109690000D02*
X238220000Y-108690000D01*
X238720000Y-114190000D02*
X238720000Y-114890000D01*
X238720000Y-114890000D02*
X243220000Y-114890000D01*
X242220000Y-109390000D02*
X243220000Y-109390000D01*
X243220000Y-109390000D02*
X243220000Y-110390000D01*
X243220000Y-110190000D02*
X238720000Y-110190000D01*
X243220000Y-110790000D02*
X243220000Y-110190000D01*
X243220000Y-114890000D02*
X243220000Y-114390000D01*
X243220000Y-122390000D02*
X243220000Y-123390000D01*
X243220000Y-123390000D02*
X242220000Y-123390000D01*
X238720000Y-114190000D02*
G75*
G03*
X237220000Y-112690000I-1500000J0D01*
G01*
X238220000Y-109690000D02*
G75*
G03*
X238720000Y-110190000I500000J0D01*
G01*
X132310000Y-50490000D02*
X132310000Y-53030000D01*
X124690000Y-50490000D02*
X132310000Y-50490000D01*
X137390000Y-53030000D02*
X137390000Y-83510000D01*
X132310000Y-53030000D02*
X137390000Y-53030000D01*
X124690000Y-53030000D02*
X124690000Y-50490000D01*
X119610000Y-53030000D02*
X124690000Y-53030000D01*
X137390000Y-83510000D02*
X119610000Y-83510000D01*
X119610000Y-83510000D02*
X119610000Y-53030000D01*
X118820000Y-119260000D02*
X119820000Y-119260000D01*
X118820000Y-120260000D02*
X118820000Y-119260000D01*
X118820000Y-133260000D02*
X118820000Y-132260000D01*
X119820000Y-133260000D02*
X118820000Y-133260000D01*
X123820000Y-118560000D02*
X124320000Y-118060000D01*
X123820000Y-122060000D02*
X124320000Y-122560000D01*
X124320000Y-118060000D02*
X127320000Y-118060000D01*
X124320000Y-122560000D02*
X126820000Y-122560000D01*
X127320000Y-118060000D02*
X127820000Y-118560000D01*
X127820000Y-119560000D02*
X127820000Y-118560000D01*
X128320000Y-124060000D02*
X128320000Y-124760000D01*
X128320000Y-124760000D02*
X132820000Y-124760000D01*
X131820000Y-119260000D02*
X132820000Y-119260000D01*
X132820000Y-119260000D02*
X132820000Y-120260000D01*
X132820000Y-120060000D02*
X128320000Y-120060000D01*
X132820000Y-120660000D02*
X132820000Y-120060000D01*
X132820000Y-124760000D02*
X132820000Y-124260000D01*
X132820000Y-132260000D02*
X132820000Y-133260000D01*
X132820000Y-133260000D02*
X131820000Y-133260000D01*
X128320000Y-124060000D02*
G75*
G03*
X126820000Y-122560000I-1500000J0D01*
G01*
X127820000Y-119560000D02*
G75*
G03*
X128320000Y-120060000I500000J0D01*
G01*
X255420000Y-94110000D02*
X256420000Y-94110000D01*
X255420000Y-95110000D02*
X255420000Y-94110000D01*
X255420000Y-108110000D02*
X255420000Y-107110000D01*
X256420000Y-108110000D02*
X255420000Y-108110000D01*
X260420000Y-93410000D02*
X260920000Y-92910000D01*
X260420000Y-96910000D02*
X260920000Y-97410000D01*
X260920000Y-92910000D02*
X263920000Y-92910000D01*
X260920000Y-97410000D02*
X263420000Y-97410000D01*
X263920000Y-92910000D02*
X264420000Y-93410000D01*
X264420000Y-94410000D02*
X264420000Y-93410000D01*
X264920000Y-98910000D02*
X264920000Y-99610000D01*
X264920000Y-99610000D02*
X269420000Y-99610000D01*
X268420000Y-94110000D02*
X269420000Y-94110000D01*
X269420000Y-94110000D02*
X269420000Y-95110000D01*
X269420000Y-94910000D02*
X264920000Y-94910000D01*
X269420000Y-95510000D02*
X269420000Y-94910000D01*
X269420000Y-99610000D02*
X269420000Y-99110000D01*
X269420000Y-107110000D02*
X269420000Y-108110000D01*
X269420000Y-108110000D02*
X268420000Y-108110000D01*
X264920000Y-98910000D02*
G75*
G03*
X263420000Y-97410000I-1500000J0D01*
G01*
X264420000Y-94410000D02*
G75*
G03*
X264920000Y-94910000I500000J0D01*
G01*
X143890000Y-136810000D02*
X144890000Y-136810000D01*
X143890000Y-137810000D02*
X143890000Y-136810000D01*
X143890000Y-150810000D02*
X143890000Y-149810000D01*
X144890000Y-150810000D02*
X143890000Y-150810000D01*
X148890000Y-136110000D02*
X149390000Y-135610000D01*
X148890000Y-139610000D02*
X149390000Y-140110000D01*
X149390000Y-135610000D02*
X152390000Y-135610000D01*
X149390000Y-140110000D02*
X151890000Y-140110000D01*
X152390000Y-135610000D02*
X152890000Y-136110000D01*
X152890000Y-137110000D02*
X152890000Y-136110000D01*
X153390000Y-141610000D02*
X153390000Y-142310000D01*
X153390000Y-142310000D02*
X157890000Y-142310000D01*
X156890000Y-136810000D02*
X157890000Y-136810000D01*
X157890000Y-136810000D02*
X157890000Y-137810000D01*
X157890000Y-137610000D02*
X153390000Y-137610000D01*
X157890000Y-138210000D02*
X157890000Y-137610000D01*
X157890000Y-142310000D02*
X157890000Y-141810000D01*
X157890000Y-149810000D02*
X157890000Y-150810000D01*
X157890000Y-150810000D02*
X156890000Y-150810000D01*
X153390000Y-141610000D02*
G75*
G03*
X151890000Y-140110000I-1500000J0D01*
G01*
X152890000Y-137110000D02*
G75*
G03*
X153390000Y-137610000I500000J0D01*
G01*
X146050000Y-106700000D02*
X147050000Y-106700000D01*
X146050000Y-107700000D02*
X146050000Y-106700000D01*
X146050000Y-120700000D02*
X146050000Y-119700000D01*
X147050000Y-120700000D02*
X146050000Y-120700000D01*
X151050000Y-106000000D02*
X151550000Y-105500000D01*
X151050000Y-109500000D02*
X151550000Y-110000000D01*
X151550000Y-105500000D02*
X154550000Y-105500000D01*
X151550000Y-110000000D02*
X154050000Y-110000000D01*
X154550000Y-105500000D02*
X155050000Y-106000000D01*
X155050000Y-107000000D02*
X155050000Y-106000000D01*
X155550000Y-111500000D02*
X155550000Y-112200000D01*
X155550000Y-112200000D02*
X160050000Y-112200000D01*
X159050000Y-106700000D02*
X160050000Y-106700000D01*
X160050000Y-106700000D02*
X160050000Y-107700000D01*
X160050000Y-107500000D02*
X155550000Y-107500000D01*
X160050000Y-108100000D02*
X160050000Y-107500000D01*
X160050000Y-112200000D02*
X160050000Y-111700000D01*
X160050000Y-119700000D02*
X160050000Y-120700000D01*
X160050000Y-120700000D02*
X159050000Y-120700000D01*
X155550000Y-111500000D02*
G75*
G03*
X154050000Y-110000000I-1500000J0D01*
G01*
X155050000Y-107000000D02*
G75*
G03*
X155550000Y-107500000I500000J0D01*
G01*
X100220000Y-163470000D02*
X101220000Y-163470000D01*
X100220000Y-164470000D02*
X100220000Y-163470000D01*
X100220000Y-177470000D02*
X100220000Y-176470000D01*
X101220000Y-177470000D02*
X100220000Y-177470000D01*
X105220000Y-162770000D02*
X105720000Y-162270000D01*
X105220000Y-166270000D02*
X105720000Y-166770000D01*
X105720000Y-162270000D02*
X108720000Y-162270000D01*
X105720000Y-166770000D02*
X108220000Y-166770000D01*
X108720000Y-162270000D02*
X109220000Y-162770000D01*
X109220000Y-163770000D02*
X109220000Y-162770000D01*
X109720000Y-168270000D02*
X109720000Y-168970000D01*
X109720000Y-168970000D02*
X114220000Y-168970000D01*
X113220000Y-163470000D02*
X114220000Y-163470000D01*
X114220000Y-163470000D02*
X114220000Y-164470000D01*
X114220000Y-164270000D02*
X109720000Y-164270000D01*
X114220000Y-164870000D02*
X114220000Y-164270000D01*
X114220000Y-168970000D02*
X114220000Y-168470000D01*
X114220000Y-176470000D02*
X114220000Y-177470000D01*
X114220000Y-177470000D02*
X113220000Y-177470000D01*
X109720000Y-168270000D02*
G75*
G03*
X108220000Y-166770000I-1500000J0D01*
G01*
X109220000Y-163770000D02*
G75*
G03*
X109720000Y-164270000I500000J0D01*
G01*
X172400000Y-95290000D02*
X173400000Y-95290000D01*
X172400000Y-96290000D02*
X172400000Y-95290000D01*
X172400000Y-109290000D02*
X172400000Y-108290000D01*
X173400000Y-109290000D02*
X172400000Y-109290000D01*
X177400000Y-94590000D02*
X177900000Y-94090000D01*
X177400000Y-98090000D02*
X177900000Y-98590000D01*
X177900000Y-94090000D02*
X180900000Y-94090000D01*
X177900000Y-98590000D02*
X180400000Y-98590000D01*
X180900000Y-94090000D02*
X181400000Y-94590000D01*
X181400000Y-95590000D02*
X181400000Y-94590000D01*
X181900000Y-100090000D02*
X181900000Y-100790000D01*
X181900000Y-100790000D02*
X186400000Y-100790000D01*
X185400000Y-95290000D02*
X186400000Y-95290000D01*
X186400000Y-95290000D02*
X186400000Y-96290000D01*
X186400000Y-96090000D02*
X181900000Y-96090000D01*
X186400000Y-96690000D02*
X186400000Y-96090000D01*
X186400000Y-100790000D02*
X186400000Y-100290000D01*
X186400000Y-108290000D02*
X186400000Y-109290000D01*
X186400000Y-109290000D02*
X185400000Y-109290000D01*
X181900000Y-100090000D02*
G75*
G03*
X180400000Y-98590000I-1500000J0D01*
G01*
X181400000Y-95590000D02*
G75*
G03*
X181900000Y-96090000I500000J0D01*
G01*
X197850000Y-113930000D02*
X198850000Y-113930000D01*
X197850000Y-114930000D02*
X197850000Y-113930000D01*
X197850000Y-127930000D02*
X197850000Y-126930000D01*
X198850000Y-127930000D02*
X197850000Y-127930000D01*
X202850000Y-113230000D02*
X203350000Y-112730000D01*
X202850000Y-116730000D02*
X203350000Y-117230000D01*
X203350000Y-112730000D02*
X206350000Y-112730000D01*
X203350000Y-117230000D02*
X205850000Y-117230000D01*
X206350000Y-112730000D02*
X206850000Y-113230000D01*
X206850000Y-114230000D02*
X206850000Y-113230000D01*
X207350000Y-118730000D02*
X207350000Y-119430000D01*
X207350000Y-119430000D02*
X211850000Y-119430000D01*
X210850000Y-113930000D02*
X211850000Y-113930000D01*
X211850000Y-113930000D02*
X211850000Y-114930000D01*
X211850000Y-114730000D02*
X207350000Y-114730000D01*
X211850000Y-115330000D02*
X211850000Y-114730000D01*
X211850000Y-119430000D02*
X211850000Y-118930000D01*
X211850000Y-126930000D02*
X211850000Y-127930000D01*
X211850000Y-127930000D02*
X210850000Y-127930000D01*
X207350000Y-118730000D02*
G75*
G03*
X205850000Y-117230000I-1500000J0D01*
G01*
X206850000Y-114230000D02*
G75*
G03*
X207350000Y-114730000I500000J0D01*
G01*
X131790000Y-171670000D02*
X132790000Y-171670000D01*
X131790000Y-172670000D02*
X131790000Y-171670000D01*
X131790000Y-185670000D02*
X131790000Y-184670000D01*
X132790000Y-185670000D02*
X131790000Y-185670000D01*
X136790000Y-170970000D02*
X137290000Y-170470000D01*
X136790000Y-174470000D02*
X137290000Y-174970000D01*
X137290000Y-170470000D02*
X140290000Y-170470000D01*
X137290000Y-174970000D02*
X139790000Y-174970000D01*
X140290000Y-170470000D02*
X140790000Y-170970000D01*
X140790000Y-171970000D02*
X140790000Y-170970000D01*
X141290000Y-176470000D02*
X141290000Y-177170000D01*
X141290000Y-177170000D02*
X145790000Y-177170000D01*
X144790000Y-171670000D02*
X145790000Y-171670000D01*
X145790000Y-171670000D02*
X145790000Y-172670000D01*
X145790000Y-172470000D02*
X141290000Y-172470000D01*
X145790000Y-173070000D02*
X145790000Y-172470000D01*
X145790000Y-177170000D02*
X145790000Y-176670000D01*
X145790000Y-184670000D02*
X145790000Y-185670000D01*
X145790000Y-185670000D02*
X144790000Y-185670000D01*
X141290000Y-176470000D02*
G75*
G03*
X139790000Y-174970000I-1500000J0D01*
G01*
X140790000Y-171970000D02*
G75*
G03*
X141290000Y-172470000I500000J0D01*
G01*
X227850000Y-79940000D02*
X228850000Y-79940000D01*
X227850000Y-80940000D02*
X227850000Y-79940000D01*
X227850000Y-93940000D02*
X227850000Y-92940000D01*
X228850000Y-93940000D02*
X227850000Y-93940000D01*
X232850000Y-79240000D02*
X233350000Y-78740000D01*
X232850000Y-82740000D02*
X233350000Y-83240000D01*
X233350000Y-78740000D02*
X236350000Y-78740000D01*
X233350000Y-83240000D02*
X235850000Y-83240000D01*
X236350000Y-78740000D02*
X236850000Y-79240000D01*
X236850000Y-80240000D02*
X236850000Y-79240000D01*
X237350000Y-84740000D02*
X237350000Y-85440000D01*
X237350000Y-85440000D02*
X241850000Y-85440000D01*
X240850000Y-79940000D02*
X241850000Y-79940000D01*
X241850000Y-79940000D02*
X241850000Y-80940000D01*
X241850000Y-80740000D02*
X237350000Y-80740000D01*
X241850000Y-81340000D02*
X241850000Y-80740000D01*
X241850000Y-85440000D02*
X241850000Y-84940000D01*
X241850000Y-92940000D02*
X241850000Y-93940000D01*
X241850000Y-93940000D02*
X240850000Y-93940000D01*
X237350000Y-84740000D02*
G75*
G03*
X235850000Y-83240000I-1500000J0D01*
G01*
X236850000Y-80240000D02*
G75*
G03*
X237350000Y-80740000I500000J0D01*
G01*
X93370000Y-105750000D02*
X94370000Y-105750000D01*
X93370000Y-106750000D02*
X93370000Y-105750000D01*
X93370000Y-119750000D02*
X93370000Y-118750000D01*
X94370000Y-119750000D02*
X93370000Y-119750000D01*
X98370000Y-105050000D02*
X98870000Y-104550000D01*
X98370000Y-108550000D02*
X98870000Y-109050000D01*
X98870000Y-104550000D02*
X101870000Y-104550000D01*
X98870000Y-109050000D02*
X101370000Y-109050000D01*
X101870000Y-104550000D02*
X102370000Y-105050000D01*
X102370000Y-106050000D02*
X102370000Y-105050000D01*
X102870000Y-110550000D02*
X102870000Y-111250000D01*
X102870000Y-111250000D02*
X107370000Y-111250000D01*
X106370000Y-105750000D02*
X107370000Y-105750000D01*
X107370000Y-105750000D02*
X107370000Y-106750000D01*
X107370000Y-106550000D02*
X102870000Y-106550000D01*
X107370000Y-107150000D02*
X107370000Y-106550000D01*
X107370000Y-111250000D02*
X107370000Y-110750000D01*
X107370000Y-118750000D02*
X107370000Y-119750000D01*
X107370000Y-119750000D02*
X106370000Y-119750000D01*
X102870000Y-110550000D02*
G75*
G03*
X101370000Y-109050000I-1500000J0D01*
G01*
X102370000Y-106050000D02*
G75*
G03*
X102870000Y-106550000I500000J0D01*
G01*
X64750000Y-105750000D02*
X65750000Y-105750000D01*
X64750000Y-106750000D02*
X64750000Y-105750000D01*
X64750000Y-119750000D02*
X64750000Y-118750000D01*
X65750000Y-119750000D02*
X64750000Y-119750000D01*
X69750000Y-105050000D02*
X70250000Y-104550000D01*
X69750000Y-108550000D02*
X70250000Y-109050000D01*
X70250000Y-104550000D02*
X73250000Y-104550000D01*
X70250000Y-109050000D02*
X72750000Y-109050000D01*
X73250000Y-104550000D02*
X73750000Y-105050000D01*
X73750000Y-106050000D02*
X73750000Y-105050000D01*
X74250000Y-110550000D02*
X74250000Y-111250000D01*
X74250000Y-111250000D02*
X78750000Y-111250000D01*
X77750000Y-105750000D02*
X78750000Y-105750000D01*
X78750000Y-105750000D02*
X78750000Y-106750000D01*
X78750000Y-106550000D02*
X74250000Y-106550000D01*
X78750000Y-107150000D02*
X78750000Y-106550000D01*
X78750000Y-111250000D02*
X78750000Y-110750000D01*
X78750000Y-118750000D02*
X78750000Y-119750000D01*
X78750000Y-119750000D02*
X77750000Y-119750000D01*
X74250000Y-110550000D02*
G75*
G03*
X72750000Y-109050000I-1500000J0D01*
G01*
X73750000Y-106050000D02*
G75*
G03*
X74250000Y-106550000I500000J0D01*
G01*
%LPC*%
D13*
X200250000Y-90880000D03*
D14*
X200750000Y-87130000D03*
X205750000Y-84930000D03*
D15*
X205750000Y-90880000D03*
D14*
X210750000Y-87130000D03*
D13*
X211250000Y-90880000D03*
D16*
X202475000Y-84930000D03*
D17*
X205750000Y-96780000D03*
X200750000Y-94680000D03*
X210750000Y-94680000D03*
D16*
X214025000Y-87130000D03*
D13*
X177040000Y-71750000D03*
D14*
X177540000Y-68000000D03*
X182540000Y-65800000D03*
D15*
X182540000Y-71750000D03*
D14*
X187540000Y-68000000D03*
D13*
X188040000Y-71750000D03*
D16*
X179265000Y-65800000D03*
D17*
X182540000Y-77650000D03*
X177540000Y-75550000D03*
X187540000Y-75550000D03*
D16*
X190815000Y-68000000D03*
D13*
X172370000Y-132370000D03*
D14*
X172870000Y-128620000D03*
X177870000Y-126420000D03*
D15*
X177870000Y-132370000D03*
D14*
X182870000Y-128620000D03*
D13*
X183370000Y-132370000D03*
D16*
X174595000Y-126420000D03*
D17*
X177870000Y-138270000D03*
X172870000Y-136170000D03*
X182870000Y-136170000D03*
D16*
X186145000Y-128620000D03*
D13*
X230720000Y-116390000D03*
D14*
X231220000Y-112640000D03*
X236220000Y-110440000D03*
D15*
X236220000Y-116390000D03*
D14*
X241220000Y-112640000D03*
D13*
X241720000Y-116390000D03*
D16*
X232945000Y-110440000D03*
D17*
X236220000Y-122290000D03*
X231220000Y-120190000D03*
X241220000Y-120190000D03*
D16*
X244495000Y-112640000D03*
D18*
X205200000Y-53750000D03*
X210200000Y-53750000D03*
D19*
X204100000Y-56150000D03*
X211300000Y-56150000D03*
D20*
X120880000Y-54300000D03*
D21*
X120880000Y-56840000D03*
X120880000Y-59380000D03*
X120880000Y-61920000D03*
X120880000Y-64460000D03*
X120880000Y-67000000D03*
X120880000Y-69540000D03*
X120880000Y-72080000D03*
X120880000Y-74620000D03*
X120880000Y-77160000D03*
X120880000Y-79700000D03*
X120880000Y-82240000D03*
X136120000Y-82240000D03*
X136120000Y-79700000D03*
X136120000Y-77160000D03*
X136120000Y-74620000D03*
X136120000Y-72080000D03*
X136120000Y-69540000D03*
X136120000Y-67000000D03*
X136120000Y-64460000D03*
X136120000Y-61920000D03*
X136120000Y-59380000D03*
X136120000Y-56840000D03*
X136120000Y-54300000D03*
D13*
X120320000Y-126260000D03*
D14*
X120820000Y-122510000D03*
X125820000Y-120310000D03*
D15*
X125820000Y-126260000D03*
D14*
X130820000Y-122510000D03*
D13*
X131320000Y-126260000D03*
D16*
X122545000Y-120310000D03*
D17*
X125820000Y-132160000D03*
X120820000Y-130060000D03*
X130820000Y-130060000D03*
D16*
X134095000Y-122510000D03*
D22*
X82250000Y-59750000D03*
X82250000Y-66250000D03*
X77750000Y-59750000D03*
X77750000Y-66250000D03*
D13*
X256920000Y-101110000D03*
D14*
X257420000Y-97360000D03*
X262420000Y-95160000D03*
D15*
X262420000Y-101110000D03*
D14*
X267420000Y-97360000D03*
D13*
X267920000Y-101110000D03*
D16*
X259145000Y-95160000D03*
D17*
X262420000Y-107010000D03*
X257420000Y-104910000D03*
X267420000Y-104910000D03*
D16*
X270695000Y-97360000D03*
D13*
X145390000Y-143810000D03*
D14*
X145890000Y-140060000D03*
X150890000Y-137860000D03*
D15*
X150890000Y-143810000D03*
D14*
X155890000Y-140060000D03*
D13*
X156390000Y-143810000D03*
D16*
X147615000Y-137860000D03*
D17*
X150890000Y-149710000D03*
X145890000Y-147610000D03*
X155890000Y-147610000D03*
D16*
X159165000Y-140060000D03*
D13*
X147550000Y-113700000D03*
D14*
X148050000Y-109950000D03*
X153050000Y-107750000D03*
D15*
X153050000Y-113700000D03*
D14*
X158050000Y-109950000D03*
D13*
X158550000Y-113700000D03*
D16*
X149775000Y-107750000D03*
D17*
X153050000Y-119600000D03*
X148050000Y-117500000D03*
X158050000Y-117500000D03*
D16*
X161325000Y-109950000D03*
D13*
X101720000Y-170470000D03*
D14*
X102220000Y-166720000D03*
X107220000Y-164520000D03*
D15*
X107220000Y-170470000D03*
D14*
X112220000Y-166720000D03*
D13*
X112720000Y-170470000D03*
D16*
X103945000Y-164520000D03*
D17*
X107220000Y-176370000D03*
X102220000Y-174270000D03*
X112220000Y-174270000D03*
D16*
X115495000Y-166720000D03*
D13*
X173900000Y-102290000D03*
D14*
X174400000Y-98540000D03*
X179400000Y-96340000D03*
D15*
X179400000Y-102290000D03*
D14*
X184400000Y-98540000D03*
D13*
X184900000Y-102290000D03*
D16*
X176125000Y-96340000D03*
D17*
X179400000Y-108190000D03*
X174400000Y-106090000D03*
X184400000Y-106090000D03*
D16*
X187675000Y-98540000D03*
D13*
X199350000Y-120930000D03*
D14*
X199850000Y-117180000D03*
X204850000Y-114980000D03*
D15*
X204850000Y-120930000D03*
D14*
X209850000Y-117180000D03*
D13*
X210350000Y-120930000D03*
D16*
X201575000Y-114980000D03*
D17*
X204850000Y-126830000D03*
X199850000Y-124730000D03*
X209850000Y-124730000D03*
D16*
X213125000Y-117180000D03*
D13*
X133290000Y-178670000D03*
D14*
X133790000Y-174920000D03*
X138790000Y-172720000D03*
D15*
X138790000Y-178670000D03*
D14*
X143790000Y-174920000D03*
D13*
X144290000Y-178670000D03*
D16*
X135515000Y-172720000D03*
D17*
X138790000Y-184570000D03*
X133790000Y-182470000D03*
X143790000Y-182470000D03*
D16*
X147065000Y-174920000D03*
D22*
X92250000Y-59750000D03*
X92250000Y-66250000D03*
X87750000Y-59750000D03*
X87750000Y-66250000D03*
X72250000Y-59750000D03*
X72250000Y-66250000D03*
X67750000Y-59750000D03*
X67750000Y-66250000D03*
D13*
X229350000Y-86940000D03*
D14*
X229850000Y-83190000D03*
X234850000Y-80990000D03*
D15*
X234850000Y-86940000D03*
D14*
X239850000Y-83190000D03*
D13*
X240350000Y-86940000D03*
D16*
X231575000Y-80990000D03*
D17*
X234850000Y-92840000D03*
X229850000Y-90740000D03*
X239850000Y-90740000D03*
D16*
X243125000Y-83190000D03*
D13*
X94870000Y-112750000D03*
D14*
X95370000Y-109000000D03*
X100370000Y-106800000D03*
D15*
X100370000Y-112750000D03*
D14*
X105370000Y-109000000D03*
D13*
X105870000Y-112750000D03*
D16*
X97095000Y-106800000D03*
D17*
X100370000Y-118650000D03*
X95370000Y-116550000D03*
X105370000Y-116550000D03*
D16*
X108645000Y-109000000D03*
D13*
X66250000Y-112750000D03*
D14*
X66750000Y-109000000D03*
X71750000Y-106800000D03*
D15*
X71750000Y-112750000D03*
D14*
X76750000Y-109000000D03*
D13*
X77250000Y-112750000D03*
D16*
X68475000Y-106800000D03*
D17*
X71750000Y-118650000D03*
X66750000Y-116550000D03*
X76750000Y-116550000D03*
D16*
X80025000Y-109000000D03*
%LPD*%
M02*
