%TF.GenerationSoftware,KiCad,Pcbnew,7.0.9*%
%TF.CreationDate,2023-12-17T00:29:13+09:00*%
%TF.ProjectId,ergoSHIFT-rev1-kicad,6572676f-5348-4494-9654-2d726576312d,rev.1*%
%TF.SameCoordinates,Original*%
%TF.FileFunction,Drillmap*%
%TF.FilePolarity,Positive*%
%FSLAX45Y45*%
G04 Gerber Fmt 4.5, Leading zero omitted, Abs format (unit mm)*
G04 Created by KiCad (PCBNEW 7.0.9) date 2023-12-17 00:29:13*
%MOMM*%
%LPD*%
G01*
G04 APERTURE LIST*
%ADD10C,0.200000*%
%ADD11C,0.100000*%
%ADD12C,0.110000*%
%ADD13C,0.127000*%
%ADD14C,0.130000*%
G04 APERTURE END LIST*
D10*
X13460000Y-5150000D02*
X13460000Y-8268000D01*
X13610000Y-5000000D02*
G75*
G03*
X13460000Y-5150000I0J-150000D01*
G01*
X15660000Y-19012000D02*
G75*
G03*
X15660000Y-19012000I-160000J0D01*
G01*
X5915000Y-5755000D02*
G75*
G03*
X5915000Y-5755000I-160000J0D01*
G01*
X27917000Y-19767000D02*
G75*
G03*
X28317000Y-19367000I0J400000D01*
G01*
X5000000Y-5400000D02*
X5000000Y-19367000D01*
X12240000Y-5150000D02*
X12240000Y-8268000D01*
X12390000Y-8418000D02*
X13310000Y-8418000D01*
X12240000Y-5150000D02*
G75*
G03*
X12090000Y-5000000I-150000J0D01*
G01*
X5400000Y-5000000D02*
X12090000Y-5000000D01*
X13610000Y-5000000D02*
X27917000Y-5000000D01*
X27722000Y-5755000D02*
G75*
G03*
X27722000Y-5755000I-160000J0D01*
G01*
X27722000Y-19012000D02*
G75*
G03*
X27722000Y-19012000I-160000J0D01*
G01*
X5400000Y-5000000D02*
G75*
G03*
X5000000Y-5400000I0J-400000D01*
G01*
X13310000Y-8418000D02*
G75*
G03*
X13460000Y-8268000I0J150000D01*
G01*
X5915000Y-19012000D02*
G75*
G03*
X5915000Y-19012000I-160000J0D01*
G01*
X5000000Y-19367000D02*
G75*
G03*
X5400000Y-19767000I400000J0D01*
G01*
X12240000Y-8268000D02*
G75*
G03*
X12390000Y-8418000I150000J0D01*
G01*
X13174000Y-14858000D02*
G75*
G03*
X13174000Y-14858000I-160000J0D01*
G01*
X5400000Y-19767000D02*
X27917000Y-19767000D01*
X28317000Y-5400000D02*
X28317000Y-19367000D01*
X15660000Y-5755000D02*
G75*
G03*
X15660000Y-5755000I-160000J0D01*
G01*
X28317000Y-5400000D02*
G75*
G03*
X27917000Y-5000000I-400000J0D01*
G01*
D11*
X5393000Y-5801000D02*
X5423000Y-5831000D01*
X5423000Y-5801000D02*
X5393000Y-5831000D01*
X5393000Y-6817000D02*
X5423000Y-6847000D01*
X5423000Y-6817000D02*
X5393000Y-6847000D01*
X5393000Y-7833000D02*
X5423000Y-7863000D01*
X5423000Y-7833000D02*
X5393000Y-7863000D01*
X5393000Y-8849000D02*
X5423000Y-8879000D01*
X5423000Y-8849000D02*
X5393000Y-8879000D01*
X5393000Y-9865000D02*
X5423000Y-9895000D01*
X5423000Y-9865000D02*
X5393000Y-9895000D01*
X5393000Y-10881000D02*
X5423000Y-10911000D01*
X5423000Y-10881000D02*
X5393000Y-10911000D01*
X5393000Y-11897000D02*
X5423000Y-11927000D01*
X5423000Y-11897000D02*
X5393000Y-11927000D01*
X5393000Y-12913000D02*
X5423000Y-12943000D01*
X5423000Y-12913000D02*
X5393000Y-12943000D01*
X5393000Y-13929000D02*
X5423000Y-13959000D01*
X5423000Y-13929000D02*
X5393000Y-13959000D01*
X5393000Y-14945000D02*
X5423000Y-14975000D01*
X5423000Y-14945000D02*
X5393000Y-14975000D01*
X5393000Y-15961000D02*
X5423000Y-15991000D01*
X5423000Y-15961000D02*
X5393000Y-15991000D01*
X5393000Y-16977000D02*
X5423000Y-17007000D01*
X5423000Y-16977000D02*
X5393000Y-17007000D01*
X5393000Y-17993000D02*
X5423000Y-18023000D01*
X5423000Y-17993000D02*
X5393000Y-18023000D01*
X5901000Y-5293000D02*
X5931000Y-5323000D01*
X5931000Y-5293000D02*
X5901000Y-5323000D01*
X5901000Y-6309000D02*
X5931000Y-6339000D01*
X5931000Y-6309000D02*
X5901000Y-6339000D01*
X5901000Y-7325000D02*
X5931000Y-7355000D01*
X5931000Y-7325000D02*
X5901000Y-7355000D01*
X5901000Y-8341000D02*
X5931000Y-8371000D01*
X5931000Y-8341000D02*
X5901000Y-8371000D01*
X5901000Y-9357000D02*
X5931000Y-9387000D01*
X5931000Y-9357000D02*
X5901000Y-9387000D01*
X5901000Y-10373000D02*
X5931000Y-10403000D01*
X5931000Y-10373000D02*
X5901000Y-10403000D01*
X5901000Y-11389000D02*
X5931000Y-11419000D01*
X5931000Y-11389000D02*
X5901000Y-11419000D01*
X5901000Y-12405000D02*
X5931000Y-12435000D01*
X5931000Y-12405000D02*
X5901000Y-12435000D01*
X5901000Y-13421000D02*
X5931000Y-13451000D01*
X5931000Y-13421000D02*
X5901000Y-13451000D01*
X5901000Y-14437000D02*
X5931000Y-14467000D01*
X5931000Y-14437000D02*
X5901000Y-14467000D01*
X5901000Y-15453000D02*
X5931000Y-15483000D01*
X5931000Y-15453000D02*
X5901000Y-15483000D01*
X5901000Y-16469000D02*
X5931000Y-16499000D01*
X5931000Y-16469000D02*
X5901000Y-16499000D01*
X5901000Y-17485000D02*
X5931000Y-17515000D01*
X5931000Y-17485000D02*
X5901000Y-17515000D01*
X5901000Y-18501000D02*
X5931000Y-18531000D01*
X5931000Y-18501000D02*
X5901000Y-18531000D01*
X6409000Y-12913000D02*
X6439000Y-12943000D01*
X6439000Y-12913000D02*
X6409000Y-12943000D01*
X6409000Y-13929000D02*
X6439000Y-13959000D01*
X6439000Y-13929000D02*
X6409000Y-13959000D01*
X6409000Y-17993000D02*
X6439000Y-18023000D01*
X6439000Y-17993000D02*
X6409000Y-18023000D01*
X6409000Y-19009000D02*
X6439000Y-19039000D01*
X6439000Y-19009000D02*
X6409000Y-19039000D01*
X6917000Y-6817000D02*
X6947000Y-6847000D01*
X6947000Y-6817000D02*
X6917000Y-6847000D01*
X6917000Y-13421000D02*
X6947000Y-13451000D01*
X6947000Y-13421000D02*
X6917000Y-13451000D01*
X6917000Y-18501000D02*
X6947000Y-18531000D01*
X6947000Y-18501000D02*
X6917000Y-18531000D01*
X7425000Y-7325000D02*
X7455000Y-7355000D01*
X7455000Y-7325000D02*
X7425000Y-7355000D01*
X7425000Y-8341000D02*
X7455000Y-8371000D01*
X7455000Y-8341000D02*
X7425000Y-8371000D01*
X7425000Y-9357000D02*
X7455000Y-9387000D01*
X7455000Y-9357000D02*
X7425000Y-9387000D01*
X7425000Y-12913000D02*
X7455000Y-12943000D01*
X7455000Y-12913000D02*
X7425000Y-12943000D01*
X7425000Y-13929000D02*
X7455000Y-13959000D01*
X7455000Y-13929000D02*
X7425000Y-13959000D01*
X7425000Y-17993000D02*
X7455000Y-18023000D01*
X7455000Y-17993000D02*
X7425000Y-18023000D01*
X7425000Y-19009000D02*
X7455000Y-19039000D01*
X7455000Y-19009000D02*
X7425000Y-19039000D01*
X7526600Y-5343800D02*
X7556600Y-5373800D01*
X7556600Y-5343800D02*
X7526600Y-5373800D01*
X7831400Y-5547000D02*
X7861400Y-5577000D01*
X7861400Y-5547000D02*
X7831400Y-5577000D01*
X7882200Y-5242200D02*
X7912200Y-5272200D01*
X7912200Y-5242200D02*
X7882200Y-5272200D01*
X7933000Y-6817000D02*
X7963000Y-6847000D01*
X7963000Y-6817000D02*
X7933000Y-6847000D01*
X7933000Y-7833000D02*
X7963000Y-7863000D01*
X7963000Y-7833000D02*
X7933000Y-7863000D01*
X7933000Y-8849000D02*
X7963000Y-8879000D01*
X7963000Y-8849000D02*
X7933000Y-8879000D01*
X7933000Y-9865000D02*
X7963000Y-9895000D01*
X7963000Y-9865000D02*
X7933000Y-9895000D01*
X7933000Y-13421000D02*
X7963000Y-13451000D01*
X7963000Y-13421000D02*
X7933000Y-13451000D01*
X7933000Y-18501000D02*
X7963000Y-18531000D01*
X7963000Y-18501000D02*
X7933000Y-18531000D01*
X8441000Y-7325000D02*
X8471000Y-7355000D01*
X8471000Y-7325000D02*
X8441000Y-7355000D01*
X8441000Y-8341000D02*
X8471000Y-8371000D01*
X8471000Y-8341000D02*
X8441000Y-8371000D01*
X8441000Y-9357000D02*
X8471000Y-9387000D01*
X8471000Y-9357000D02*
X8441000Y-9387000D01*
X8441000Y-12913000D02*
X8471000Y-12943000D01*
X8471000Y-12913000D02*
X8441000Y-12943000D01*
X8441000Y-13929000D02*
X8471000Y-13959000D01*
X8471000Y-13929000D02*
X8441000Y-13959000D01*
X8441000Y-17993000D02*
X8471000Y-18023000D01*
X8471000Y-17993000D02*
X8441000Y-18023000D01*
X8441000Y-19009000D02*
X8471000Y-19039000D01*
X8471000Y-19009000D02*
X8441000Y-19039000D01*
X8644200Y-5242200D02*
X8674200Y-5272200D01*
X8674200Y-5242200D02*
X8644200Y-5272200D01*
X8644200Y-5547000D02*
X8674200Y-5577000D01*
X8674200Y-5547000D02*
X8644200Y-5577000D01*
X8949000Y-6817000D02*
X8979000Y-6847000D01*
X8979000Y-6817000D02*
X8949000Y-6847000D01*
X8949000Y-7833000D02*
X8979000Y-7863000D01*
X8979000Y-7833000D02*
X8949000Y-7863000D01*
X8949000Y-8849000D02*
X8979000Y-8879000D01*
X8979000Y-8849000D02*
X8949000Y-8879000D01*
X8949000Y-9865000D02*
X8979000Y-9895000D01*
X8979000Y-9865000D02*
X8949000Y-9895000D01*
X8949000Y-13421000D02*
X8979000Y-13451000D01*
X8979000Y-13421000D02*
X8949000Y-13451000D01*
X8949000Y-16469000D02*
X8979000Y-16499000D01*
X8979000Y-16469000D02*
X8949000Y-16499000D01*
X8949000Y-17485000D02*
X8979000Y-17515000D01*
X8979000Y-17485000D02*
X8949000Y-17515000D01*
X8949000Y-18501000D02*
X8979000Y-18531000D01*
X8979000Y-18501000D02*
X8949000Y-18531000D01*
X9457000Y-5801000D02*
X9487000Y-5831000D01*
X9487000Y-5801000D02*
X9457000Y-5831000D01*
X9457000Y-7325000D02*
X9487000Y-7355000D01*
X9487000Y-7325000D02*
X9457000Y-7355000D01*
X9457000Y-8341000D02*
X9487000Y-8371000D01*
X9487000Y-8341000D02*
X9457000Y-8371000D01*
X9457000Y-9357000D02*
X9487000Y-9387000D01*
X9487000Y-9357000D02*
X9457000Y-9387000D01*
X9457000Y-12913000D02*
X9487000Y-12943000D01*
X9487000Y-12913000D02*
X9457000Y-12943000D01*
X9457000Y-13929000D02*
X9487000Y-13959000D01*
X9487000Y-13929000D02*
X9457000Y-13959000D01*
X9457000Y-15961000D02*
X9487000Y-15991000D01*
X9487000Y-15961000D02*
X9457000Y-15991000D01*
X9457000Y-16977000D02*
X9487000Y-17007000D01*
X9487000Y-16977000D02*
X9457000Y-17007000D01*
X9457000Y-17993000D02*
X9487000Y-18023000D01*
X9487000Y-17993000D02*
X9457000Y-18023000D01*
X9457000Y-19009000D02*
X9487000Y-19039000D01*
X9487000Y-19009000D02*
X9457000Y-19039000D01*
X9660200Y-5242200D02*
X9690200Y-5272200D01*
X9690200Y-5242200D02*
X9660200Y-5272200D01*
X9660200Y-5547000D02*
X9690200Y-5577000D01*
X9690200Y-5547000D02*
X9660200Y-5577000D01*
X9965000Y-6309000D02*
X9995000Y-6339000D01*
X9995000Y-6309000D02*
X9965000Y-6339000D01*
X9965000Y-6817000D02*
X9995000Y-6847000D01*
X9995000Y-6817000D02*
X9965000Y-6847000D01*
X9965000Y-7833000D02*
X9995000Y-7863000D01*
X9995000Y-7833000D02*
X9965000Y-7863000D01*
X9965000Y-9865000D02*
X9995000Y-9895000D01*
X9995000Y-9865000D02*
X9965000Y-9895000D01*
X9965000Y-13421000D02*
X9995000Y-13451000D01*
X9995000Y-13421000D02*
X9965000Y-13451000D01*
X9965000Y-14437000D02*
X9995000Y-14467000D01*
X9995000Y-14437000D02*
X9965000Y-14467000D01*
X9965000Y-15453000D02*
X9995000Y-15483000D01*
X9995000Y-15453000D02*
X9965000Y-15483000D01*
X9965000Y-18501000D02*
X9995000Y-18531000D01*
X9995000Y-18501000D02*
X9965000Y-18531000D01*
X10168200Y-8188600D02*
X10198200Y-8218600D01*
X10198200Y-8188600D02*
X10168200Y-8218600D01*
X10320600Y-5242200D02*
X10350600Y-5272200D01*
X10350600Y-5242200D02*
X10320600Y-5272200D01*
X10320600Y-5547000D02*
X10350600Y-5577000D01*
X10350600Y-5547000D02*
X10320600Y-5577000D01*
X10473000Y-5801000D02*
X10503000Y-5831000D01*
X10503000Y-5801000D02*
X10473000Y-5831000D01*
X10473000Y-7325000D02*
X10503000Y-7355000D01*
X10503000Y-7325000D02*
X10473000Y-7355000D01*
X10473000Y-12913000D02*
X10503000Y-12943000D01*
X10503000Y-12913000D02*
X10473000Y-12943000D01*
X10473000Y-13929000D02*
X10503000Y-13959000D01*
X10503000Y-13929000D02*
X10473000Y-13959000D01*
X10473000Y-14945000D02*
X10503000Y-14975000D01*
X10503000Y-14945000D02*
X10473000Y-14975000D01*
X10473000Y-19009000D02*
X10503000Y-19039000D01*
X10503000Y-19009000D02*
X10473000Y-19039000D01*
X10523800Y-7934600D02*
X10553800Y-7964600D01*
X10553800Y-7934600D02*
X10523800Y-7964600D01*
X10536500Y-9039500D02*
X10566500Y-9069500D01*
X10566500Y-9039500D02*
X10536500Y-9069500D01*
X10536500Y-9865000D02*
X10566500Y-9895000D01*
X10566500Y-9865000D02*
X10536500Y-9895000D01*
X10828600Y-14233800D02*
X10858600Y-14263800D01*
X10858600Y-14233800D02*
X10828600Y-14263800D01*
X10879400Y-15249800D02*
X10909400Y-15279800D01*
X10909400Y-15249800D02*
X10879400Y-15279800D01*
X10917500Y-9039500D02*
X10947500Y-9069500D01*
X10947500Y-9039500D02*
X10917500Y-9069500D01*
X10917500Y-9865000D02*
X10947500Y-9895000D01*
X10947500Y-9865000D02*
X10917500Y-9895000D01*
X10981000Y-6309000D02*
X11011000Y-6339000D01*
X11011000Y-6309000D02*
X10981000Y-6339000D01*
X10981000Y-6817000D02*
X11011000Y-6847000D01*
X11011000Y-6817000D02*
X10981000Y-6847000D01*
X10981000Y-18501000D02*
X11011000Y-18531000D01*
X11011000Y-18501000D02*
X10981000Y-18531000D01*
X11082600Y-5242200D02*
X11112600Y-5272200D01*
X11112600Y-5242200D02*
X11082600Y-5272200D01*
X11082600Y-5547000D02*
X11112600Y-5577000D01*
X11112600Y-5547000D02*
X11082600Y-5577000D01*
X11184200Y-14487800D02*
X11214200Y-14517800D01*
X11214200Y-14487800D02*
X11184200Y-14517800D01*
X11184200Y-15249800D02*
X11214200Y-15279800D01*
X11214200Y-15249800D02*
X11184200Y-15279800D01*
X11235000Y-8023500D02*
X11265000Y-8053500D01*
X11265000Y-8023500D02*
X11235000Y-8053500D01*
X11235000Y-9865000D02*
X11265000Y-9895000D01*
X11265000Y-9865000D02*
X11235000Y-9895000D01*
X11235000Y-10754000D02*
X11265000Y-10784000D01*
X11265000Y-10754000D02*
X11235000Y-10784000D01*
X11235000Y-12278000D02*
X11265000Y-12308000D01*
X11265000Y-12278000D02*
X11235000Y-12308000D01*
X11235000Y-13992500D02*
X11265000Y-14022500D01*
X11265000Y-13992500D02*
X11235000Y-14022500D01*
X11336600Y-7121800D02*
X11366600Y-7151800D01*
X11366600Y-7121800D02*
X11336600Y-7151800D01*
X11336600Y-9306200D02*
X11366600Y-9336200D01*
X11366600Y-9306200D02*
X11336600Y-9336200D01*
X11387400Y-11439800D02*
X11417400Y-11469800D01*
X11417400Y-11439800D02*
X11387400Y-11469800D01*
X11489000Y-5801000D02*
X11519000Y-5831000D01*
X11519000Y-5801000D02*
X11489000Y-5831000D01*
X11489000Y-19009000D02*
X11519000Y-19039000D01*
X11519000Y-19009000D02*
X11489000Y-19039000D01*
X11616000Y-10246000D02*
X11646000Y-10276000D01*
X11646000Y-10246000D02*
X11616000Y-10276000D01*
X11641400Y-8899800D02*
X11671400Y-8929800D01*
X11671400Y-8899800D02*
X11641400Y-8929800D01*
X11641400Y-9712600D02*
X11671400Y-9742600D01*
X11671400Y-9712600D02*
X11641400Y-9742600D01*
X11641400Y-11185800D02*
X11671400Y-11215800D01*
X11671400Y-11185800D02*
X11641400Y-11215800D01*
X11743000Y-6309000D02*
X11773000Y-6339000D01*
X11773000Y-6309000D02*
X11743000Y-6339000D01*
X11793800Y-5242200D02*
X11823800Y-5272200D01*
X11823800Y-5242200D02*
X11793800Y-5272200D01*
X11793800Y-5547000D02*
X11823800Y-5577000D01*
X11823800Y-5547000D02*
X11793800Y-5577000D01*
X11806500Y-7134500D02*
X11836500Y-7164500D01*
X11836500Y-7134500D02*
X11806500Y-7164500D01*
X11844600Y-14640200D02*
X11874600Y-14670200D01*
X11874600Y-14640200D02*
X11844600Y-14670200D01*
X11997000Y-18501000D02*
X12027000Y-18531000D01*
X12027000Y-18501000D02*
X11997000Y-18531000D01*
X12352600Y-15707000D02*
X12382600Y-15737000D01*
X12382600Y-15707000D02*
X12352600Y-15737000D01*
X12505000Y-19009000D02*
X12535000Y-19039000D01*
X12535000Y-19009000D02*
X12505000Y-19039000D01*
X12606600Y-11185800D02*
X12636600Y-11215800D01*
X12636600Y-11185800D02*
X12606600Y-11215800D01*
X12708200Y-15453000D02*
X12738200Y-15483000D01*
X12738200Y-15453000D02*
X12708200Y-15483000D01*
X12911400Y-10931800D02*
X12941400Y-10961800D01*
X12941400Y-10931800D02*
X12911400Y-10961800D01*
X13013000Y-18501000D02*
X13043000Y-18531000D01*
X13043000Y-18501000D02*
X13013000Y-18531000D01*
X13165400Y-16519800D02*
X13195400Y-16549800D01*
X13195400Y-16519800D02*
X13165400Y-16549800D01*
X13521000Y-19009000D02*
X13551000Y-19039000D01*
X13551000Y-19009000D02*
X13521000Y-19039000D01*
X13571800Y-16316600D02*
X13601800Y-16346600D01*
X13601800Y-16316600D02*
X13571800Y-16346600D01*
X13724200Y-11744600D02*
X13754200Y-11774600D01*
X13754200Y-11744600D02*
X13724200Y-11774600D01*
X13775000Y-8595000D02*
X13805000Y-8625000D01*
X13805000Y-8595000D02*
X13775000Y-8625000D01*
X13775000Y-12405000D02*
X13805000Y-12435000D01*
X13805000Y-12405000D02*
X13775000Y-12435000D01*
X13927400Y-8137800D02*
X13957400Y-8167800D01*
X13957400Y-8137800D02*
X13927400Y-8167800D01*
X13978200Y-12100200D02*
X14008200Y-12130200D01*
X14008200Y-12100200D02*
X13978200Y-12130200D01*
X14029000Y-5293000D02*
X14059000Y-5323000D01*
X14059000Y-5293000D02*
X14029000Y-5323000D01*
X14029000Y-6309000D02*
X14059000Y-6339000D01*
X14059000Y-6309000D02*
X14029000Y-6339000D01*
X14384600Y-8595000D02*
X14414600Y-8625000D01*
X14414600Y-8595000D02*
X14384600Y-8625000D01*
X14435400Y-13065400D02*
X14465400Y-13095400D01*
X14465400Y-13065400D02*
X14435400Y-13095400D01*
X14537000Y-19009000D02*
X14567000Y-19039000D01*
X14567000Y-19009000D02*
X14537000Y-19039000D01*
X14638600Y-9458600D02*
X14668600Y-9488600D01*
X14668600Y-9458600D02*
X14638600Y-9488600D01*
X14740200Y-8137800D02*
X14770200Y-8167800D01*
X14770200Y-8137800D02*
X14740200Y-8167800D01*
X14791000Y-12862200D02*
X14821000Y-12892200D01*
X14821000Y-12862200D02*
X14791000Y-12892200D01*
X14994200Y-5547000D02*
X15024200Y-5577000D01*
X15024200Y-5547000D02*
X14994200Y-5577000D01*
X15045000Y-6309000D02*
X15075000Y-6339000D01*
X15075000Y-6309000D02*
X15045000Y-6339000D01*
X15045000Y-7477400D02*
X15075000Y-7507400D01*
X15075000Y-7477400D02*
X15045000Y-7507400D01*
X15045000Y-18501000D02*
X15075000Y-18531000D01*
X15075000Y-18501000D02*
X15045000Y-18531000D01*
X15095800Y-5140600D02*
X15125800Y-5170600D01*
X15125800Y-5140600D02*
X15095800Y-5170600D01*
X15197400Y-9458600D02*
X15227400Y-9488600D01*
X15227400Y-9458600D02*
X15197400Y-9488600D01*
X15451400Y-8137800D02*
X15481400Y-8167800D01*
X15481400Y-8137800D02*
X15451400Y-8167800D01*
X15553000Y-15961000D02*
X15583000Y-15991000D01*
X15583000Y-15961000D02*
X15553000Y-15991000D01*
X15553000Y-16977000D02*
X15583000Y-17007000D01*
X15583000Y-16977000D02*
X15553000Y-17007000D01*
X15553000Y-17993000D02*
X15583000Y-18023000D01*
X15583000Y-17993000D02*
X15553000Y-18023000D01*
X15603800Y-10373000D02*
X15633800Y-10403000D01*
X15633800Y-10373000D02*
X15603800Y-10403000D01*
X16061000Y-6309000D02*
X16091000Y-6339000D01*
X16091000Y-6309000D02*
X16061000Y-6339000D01*
X16061000Y-10373000D02*
X16091000Y-10403000D01*
X16091000Y-10373000D02*
X16061000Y-10403000D01*
X16061000Y-15453000D02*
X16091000Y-15483000D01*
X16091000Y-15453000D02*
X16061000Y-15483000D01*
X16061000Y-16469000D02*
X16091000Y-16499000D01*
X16091000Y-16469000D02*
X16061000Y-16499000D01*
X16061000Y-17485000D02*
X16091000Y-17515000D01*
X16091000Y-17485000D02*
X16061000Y-17515000D01*
X16061000Y-18501000D02*
X16091000Y-18531000D01*
X16091000Y-18501000D02*
X16061000Y-18531000D01*
X16213400Y-8137800D02*
X16243400Y-8167800D01*
X16243400Y-8137800D02*
X16213400Y-8167800D01*
X16467400Y-7477400D02*
X16497400Y-7507400D01*
X16497400Y-7477400D02*
X16467400Y-7507400D01*
X16569000Y-5140600D02*
X16599000Y-5170600D01*
X16599000Y-5140600D02*
X16569000Y-5170600D01*
X16569000Y-5801000D02*
X16599000Y-5831000D01*
X16599000Y-5801000D02*
X16569000Y-5831000D01*
X16569000Y-14945000D02*
X16599000Y-14975000D01*
X16599000Y-14945000D02*
X16569000Y-14975000D01*
X16569000Y-15961000D02*
X16599000Y-15991000D01*
X16599000Y-15961000D02*
X16569000Y-15991000D01*
X16569000Y-16977000D02*
X16599000Y-17007000D01*
X16599000Y-16977000D02*
X16569000Y-17007000D01*
X16569000Y-17993000D02*
X16599000Y-18023000D01*
X16599000Y-17993000D02*
X16569000Y-18023000D01*
X16569000Y-19009000D02*
X16599000Y-19039000D01*
X16599000Y-19009000D02*
X16569000Y-19039000D01*
X16670600Y-8137800D02*
X16700600Y-8167800D01*
X16700600Y-8137800D02*
X16670600Y-8167800D01*
X16670600Y-11439800D02*
X16700600Y-11469800D01*
X16700600Y-11439800D02*
X16670600Y-11469800D01*
X17077000Y-6309000D02*
X17107000Y-6339000D01*
X17107000Y-6309000D02*
X17077000Y-6339000D01*
X17077000Y-15453000D02*
X17107000Y-15483000D01*
X17107000Y-15453000D02*
X17077000Y-15483000D01*
X17077000Y-18501000D02*
X17107000Y-18531000D01*
X17107000Y-18501000D02*
X17077000Y-18531000D01*
X17127800Y-8087000D02*
X17157800Y-8117000D01*
X17157800Y-8087000D02*
X17127800Y-8117000D01*
X17127800Y-11439800D02*
X17157800Y-11469800D01*
X17157800Y-11439800D02*
X17127800Y-11469800D01*
X17280200Y-12049400D02*
X17310200Y-12079400D01*
X17310200Y-12049400D02*
X17280200Y-12079400D01*
X17534200Y-5140600D02*
X17564200Y-5170600D01*
X17564200Y-5140600D02*
X17534200Y-5170600D01*
X17534200Y-8493400D02*
X17564200Y-8523400D01*
X17564200Y-8493400D02*
X17534200Y-8523400D01*
X17585000Y-5801000D02*
X17615000Y-5831000D01*
X17615000Y-5801000D02*
X17585000Y-5831000D01*
X17585000Y-14945000D02*
X17615000Y-14975000D01*
X17615000Y-14945000D02*
X17585000Y-14975000D01*
X17585000Y-15961000D02*
X17615000Y-15991000D01*
X17615000Y-15961000D02*
X17585000Y-15991000D01*
X17585000Y-19009000D02*
X17615000Y-19039000D01*
X17615000Y-19009000D02*
X17585000Y-19039000D01*
X17788200Y-12100200D02*
X17818200Y-12130200D01*
X17818200Y-12100200D02*
X17788200Y-12130200D01*
X17940600Y-8899800D02*
X17970600Y-8929800D01*
X17970600Y-8899800D02*
X17940600Y-8929800D01*
X18042200Y-8442600D02*
X18072200Y-8472600D01*
X18072200Y-8442600D02*
X18042200Y-8472600D01*
X18093000Y-15453000D02*
X18123000Y-15483000D01*
X18123000Y-15453000D02*
X18093000Y-15483000D01*
X18093000Y-18501000D02*
X18123000Y-18531000D01*
X18123000Y-18501000D02*
X18093000Y-18531000D01*
X18397800Y-8798200D02*
X18427800Y-8828200D01*
X18427800Y-8798200D02*
X18397800Y-8828200D01*
X18397800Y-9357000D02*
X18427800Y-9387000D01*
X18427800Y-9357000D02*
X18397800Y-9387000D01*
X18550200Y-5140600D02*
X18580200Y-5170600D01*
X18580200Y-5140600D02*
X18550200Y-5170600D01*
X18601000Y-5801000D02*
X18631000Y-5831000D01*
X18631000Y-5801000D02*
X18601000Y-5831000D01*
X18601000Y-14945000D02*
X18631000Y-14975000D01*
X18631000Y-14945000D02*
X18601000Y-14975000D01*
X18601000Y-19009000D02*
X18631000Y-19039000D01*
X18631000Y-19009000D02*
X18601000Y-19039000D01*
X18651800Y-8442600D02*
X18681800Y-8472600D01*
X18681800Y-8442600D02*
X18651800Y-8472600D01*
X18804200Y-9204600D02*
X18834200Y-9234600D01*
X18834200Y-9204600D02*
X18804200Y-9234600D01*
X19109000Y-8442600D02*
X19139000Y-8472600D01*
X19139000Y-8442600D02*
X19109000Y-8472600D01*
X19109000Y-14437000D02*
X19139000Y-14467000D01*
X19139000Y-14437000D02*
X19109000Y-14467000D01*
X19109000Y-15453000D02*
X19139000Y-15483000D01*
X19139000Y-15453000D02*
X19109000Y-15483000D01*
X19109000Y-18501000D02*
X19139000Y-18531000D01*
X19139000Y-18501000D02*
X19109000Y-18531000D01*
X19159800Y-9560200D02*
X19189800Y-9590200D01*
X19189800Y-9560200D02*
X19159800Y-9590200D01*
X19515400Y-9915800D02*
X19545400Y-9945800D01*
X19545400Y-9915800D02*
X19515400Y-9945800D01*
X19617000Y-5801000D02*
X19647000Y-5831000D01*
X19647000Y-5801000D02*
X19617000Y-5831000D01*
X19617000Y-6817000D02*
X19647000Y-6847000D01*
X19647000Y-6817000D02*
X19617000Y-6847000D01*
X19617000Y-13929000D02*
X19647000Y-13959000D01*
X19647000Y-13929000D02*
X19617000Y-13959000D01*
X19617000Y-14945000D02*
X19647000Y-14975000D01*
X19647000Y-14945000D02*
X19617000Y-14975000D01*
X19617000Y-19009000D02*
X19647000Y-19039000D01*
X19647000Y-19009000D02*
X19617000Y-19039000D01*
X19871000Y-10322200D02*
X19901000Y-10352200D01*
X19901000Y-10322200D02*
X19871000Y-10352200D01*
X19972600Y-5140600D02*
X20002600Y-5170600D01*
X20002600Y-5140600D02*
X19972600Y-5170600D01*
X20125000Y-6309000D02*
X20155000Y-6339000D01*
X20155000Y-6309000D02*
X20125000Y-6339000D01*
X20125000Y-14437000D02*
X20155000Y-14467000D01*
X20155000Y-14437000D02*
X20125000Y-14467000D01*
X20125000Y-18501000D02*
X20155000Y-18531000D01*
X20155000Y-18501000D02*
X20125000Y-18531000D01*
X20277400Y-10677800D02*
X20307400Y-10707800D01*
X20307400Y-10677800D02*
X20277400Y-10707800D01*
X20582200Y-7985400D02*
X20612200Y-8015400D01*
X20612200Y-7985400D02*
X20582200Y-8015400D01*
X20582200Y-10982600D02*
X20612200Y-11012600D01*
X20612200Y-10982600D02*
X20582200Y-11012600D01*
X20633000Y-6817000D02*
X20663000Y-6847000D01*
X20663000Y-6817000D02*
X20633000Y-6847000D01*
X20633000Y-13929000D02*
X20663000Y-13959000D01*
X20663000Y-13929000D02*
X20633000Y-13959000D01*
X20633000Y-19009000D02*
X20663000Y-19039000D01*
X20663000Y-19009000D02*
X20633000Y-19039000D01*
X21090200Y-7426600D02*
X21120200Y-7456600D01*
X21120200Y-7426600D02*
X21090200Y-7456600D01*
X21090200Y-8087000D02*
X21120200Y-8117000D01*
X21120200Y-8087000D02*
X21090200Y-8117000D01*
X21141000Y-6309000D02*
X21171000Y-6339000D01*
X21171000Y-6309000D02*
X21141000Y-6339000D01*
X21141000Y-14437000D02*
X21171000Y-14467000D01*
X21171000Y-14437000D02*
X21141000Y-14467000D01*
X21141000Y-18501000D02*
X21171000Y-18531000D01*
X21171000Y-18501000D02*
X21141000Y-18531000D01*
X21344200Y-7731400D02*
X21374200Y-7761400D01*
X21374200Y-7731400D02*
X21344200Y-7761400D01*
X21496600Y-7274200D02*
X21526600Y-7304200D01*
X21526600Y-7274200D02*
X21496600Y-7304200D01*
X21598200Y-8950600D02*
X21628200Y-8980600D01*
X21628200Y-8950600D02*
X21598200Y-8980600D01*
X21649000Y-5801000D02*
X21679000Y-5831000D01*
X21679000Y-5801000D02*
X21649000Y-5831000D01*
X21649000Y-6817000D02*
X21679000Y-6847000D01*
X21679000Y-6817000D02*
X21649000Y-6847000D01*
X21649000Y-12913000D02*
X21679000Y-12943000D01*
X21679000Y-12913000D02*
X21649000Y-12943000D01*
X21649000Y-13929000D02*
X21679000Y-13959000D01*
X21679000Y-13929000D02*
X21649000Y-13959000D01*
X21649000Y-19009000D02*
X21679000Y-19039000D01*
X21679000Y-19009000D02*
X21649000Y-19039000D01*
X21852200Y-8696600D02*
X21882200Y-8726600D01*
X21882200Y-8696600D02*
X21852200Y-8726600D01*
X22157000Y-5293000D02*
X22187000Y-5323000D01*
X22187000Y-5293000D02*
X22157000Y-5323000D01*
X22157000Y-6309000D02*
X22187000Y-6339000D01*
X22187000Y-6309000D02*
X22157000Y-6339000D01*
X22157000Y-12405000D02*
X22187000Y-12435000D01*
X22187000Y-12405000D02*
X22157000Y-12435000D01*
X22157000Y-13421000D02*
X22187000Y-13451000D01*
X22187000Y-13421000D02*
X22157000Y-13451000D01*
X22157000Y-14437000D02*
X22187000Y-14467000D01*
X22187000Y-14437000D02*
X22157000Y-14467000D01*
X22157000Y-18501000D02*
X22187000Y-18531000D01*
X22187000Y-18501000D02*
X22157000Y-18531000D01*
X22309400Y-9611000D02*
X22339400Y-9641000D01*
X22339400Y-9611000D02*
X22309400Y-9641000D01*
X22512600Y-9407800D02*
X22542600Y-9437800D01*
X22542600Y-9407800D02*
X22512600Y-9437800D01*
X22665000Y-5801000D02*
X22695000Y-5831000D01*
X22695000Y-5801000D02*
X22665000Y-5831000D01*
X22665000Y-6817000D02*
X22695000Y-6847000D01*
X22695000Y-6817000D02*
X22665000Y-6847000D01*
X22665000Y-12913000D02*
X22695000Y-12943000D01*
X22695000Y-12913000D02*
X22665000Y-12943000D01*
X22665000Y-13929000D02*
X22695000Y-13959000D01*
X22695000Y-13929000D02*
X22665000Y-13959000D01*
X22665000Y-19009000D02*
X22695000Y-19039000D01*
X22695000Y-19009000D02*
X22665000Y-19039000D01*
X23020600Y-10322200D02*
X23050600Y-10352200D01*
X23050600Y-10322200D02*
X23020600Y-10352200D01*
X23173000Y-5293000D02*
X23203000Y-5323000D01*
X23203000Y-5293000D02*
X23173000Y-5323000D01*
X23173000Y-13421000D02*
X23203000Y-13451000D01*
X23203000Y-13421000D02*
X23173000Y-13451000D01*
X23173000Y-18501000D02*
X23203000Y-18531000D01*
X23203000Y-18501000D02*
X23173000Y-18531000D01*
X23325400Y-10627000D02*
X23355400Y-10657000D01*
X23355400Y-10627000D02*
X23325400Y-10657000D01*
X23376200Y-10220600D02*
X23406200Y-10250600D01*
X23406200Y-10220600D02*
X23376200Y-10250600D01*
X23681000Y-5801000D02*
X23711000Y-5831000D01*
X23711000Y-5801000D02*
X23681000Y-5831000D01*
X23681000Y-6817000D02*
X23711000Y-6847000D01*
X23711000Y-6817000D02*
X23681000Y-6847000D01*
X23681000Y-13929000D02*
X23711000Y-13959000D01*
X23711000Y-13929000D02*
X23681000Y-13959000D01*
X23681000Y-19009000D02*
X23711000Y-19039000D01*
X23711000Y-19009000D02*
X23681000Y-19039000D01*
X24189000Y-5293000D02*
X24219000Y-5323000D01*
X24219000Y-5293000D02*
X24189000Y-5323000D01*
X24189000Y-13421000D02*
X24219000Y-13451000D01*
X24219000Y-13421000D02*
X24189000Y-13451000D01*
X24189000Y-18501000D02*
X24219000Y-18531000D01*
X24219000Y-18501000D02*
X24189000Y-18531000D01*
X24443000Y-7274200D02*
X24473000Y-7304200D01*
X24473000Y-7274200D02*
X24443000Y-7304200D01*
X24443000Y-7629800D02*
X24473000Y-7659800D01*
X24473000Y-7629800D02*
X24443000Y-7659800D01*
X24697000Y-5801000D02*
X24727000Y-5831000D01*
X24727000Y-5801000D02*
X24697000Y-5831000D01*
X24697000Y-6817000D02*
X24727000Y-6847000D01*
X24727000Y-6817000D02*
X24697000Y-6847000D01*
X24697000Y-12913000D02*
X24727000Y-12943000D01*
X24727000Y-12913000D02*
X24697000Y-12943000D01*
X24697000Y-13929000D02*
X24727000Y-13959000D01*
X24727000Y-13929000D02*
X24697000Y-13959000D01*
X24697000Y-19009000D02*
X24727000Y-19039000D01*
X24727000Y-19009000D02*
X24697000Y-19039000D01*
X24798600Y-7477400D02*
X24828600Y-7507400D01*
X24828600Y-7477400D02*
X24798600Y-7507400D01*
X25001800Y-8239400D02*
X25031800Y-8269400D01*
X25031800Y-8239400D02*
X25001800Y-8269400D01*
X25205000Y-5293000D02*
X25235000Y-5323000D01*
X25235000Y-5293000D02*
X25205000Y-5323000D01*
X25205000Y-7325000D02*
X25235000Y-7355000D01*
X25235000Y-7325000D02*
X25205000Y-7355000D01*
X25205000Y-12405000D02*
X25235000Y-12435000D01*
X25235000Y-12405000D02*
X25205000Y-12435000D01*
X25205000Y-13421000D02*
X25235000Y-13451000D01*
X25235000Y-13421000D02*
X25205000Y-13451000D01*
X25205000Y-18501000D02*
X25235000Y-18531000D01*
X25235000Y-18501000D02*
X25205000Y-18531000D01*
X25560600Y-8798200D02*
X25590600Y-8828200D01*
X25590600Y-8798200D02*
X25560600Y-8828200D01*
X25713000Y-5801000D02*
X25743000Y-5831000D01*
X25743000Y-5801000D02*
X25713000Y-5831000D01*
X25713000Y-7833000D02*
X25743000Y-7863000D01*
X25743000Y-7833000D02*
X25713000Y-7863000D01*
X25713000Y-11897000D02*
X25743000Y-11927000D01*
X25743000Y-11897000D02*
X25713000Y-11927000D01*
X25713000Y-12913000D02*
X25743000Y-12943000D01*
X25743000Y-12913000D02*
X25713000Y-12943000D01*
X25713000Y-13929000D02*
X25743000Y-13959000D01*
X25743000Y-13929000D02*
X25713000Y-13959000D01*
X25713000Y-19009000D02*
X25743000Y-19039000D01*
X25743000Y-19009000D02*
X25713000Y-19039000D01*
X26221000Y-5293000D02*
X26251000Y-5323000D01*
X26251000Y-5293000D02*
X26221000Y-5323000D01*
X26221000Y-8341000D02*
X26251000Y-8371000D01*
X26251000Y-8341000D02*
X26221000Y-8371000D01*
X26221000Y-12405000D02*
X26251000Y-12435000D01*
X26251000Y-12405000D02*
X26221000Y-12435000D01*
X26221000Y-13421000D02*
X26251000Y-13451000D01*
X26251000Y-13421000D02*
X26221000Y-13451000D01*
X26221000Y-18501000D02*
X26251000Y-18531000D01*
X26251000Y-18501000D02*
X26221000Y-18531000D01*
X26729000Y-5801000D02*
X26759000Y-5831000D01*
X26759000Y-5801000D02*
X26729000Y-5831000D01*
X26729000Y-8849000D02*
X26759000Y-8879000D01*
X26759000Y-8849000D02*
X26729000Y-8879000D01*
X26729000Y-12913000D02*
X26759000Y-12943000D01*
X26759000Y-12913000D02*
X26729000Y-12943000D01*
X26729000Y-13929000D02*
X26759000Y-13959000D01*
X26759000Y-13929000D02*
X26729000Y-13959000D01*
X26729000Y-19009000D02*
X26759000Y-19039000D01*
X26759000Y-19009000D02*
X26729000Y-19039000D01*
X27237000Y-5293000D02*
X27267000Y-5323000D01*
X27267000Y-5293000D02*
X27237000Y-5323000D01*
X27237000Y-6309000D02*
X27267000Y-6339000D01*
X27267000Y-6309000D02*
X27237000Y-6339000D01*
X27237000Y-7325000D02*
X27267000Y-7355000D01*
X27267000Y-7325000D02*
X27237000Y-7355000D01*
X27237000Y-8341000D02*
X27267000Y-8371000D01*
X27267000Y-8341000D02*
X27237000Y-8371000D01*
X27237000Y-9357000D02*
X27267000Y-9387000D01*
X27267000Y-9357000D02*
X27237000Y-9387000D01*
X27237000Y-10373000D02*
X27267000Y-10403000D01*
X27267000Y-10373000D02*
X27237000Y-10403000D01*
X27237000Y-11389000D02*
X27267000Y-11419000D01*
X27267000Y-11389000D02*
X27237000Y-11419000D01*
X27237000Y-12405000D02*
X27267000Y-12435000D01*
X27267000Y-12405000D02*
X27237000Y-12435000D01*
X27237000Y-13421000D02*
X27267000Y-13451000D01*
X27267000Y-13421000D02*
X27237000Y-13451000D01*
X27237000Y-14437000D02*
X27267000Y-14467000D01*
X27267000Y-14437000D02*
X27237000Y-14467000D01*
X27237000Y-15453000D02*
X27267000Y-15483000D01*
X27267000Y-15453000D02*
X27237000Y-15483000D01*
X27237000Y-16469000D02*
X27267000Y-16499000D01*
X27267000Y-16469000D02*
X27237000Y-16499000D01*
X27237000Y-17485000D02*
X27267000Y-17515000D01*
X27267000Y-17485000D02*
X27237000Y-17515000D01*
X27237000Y-18501000D02*
X27267000Y-18531000D01*
X27267000Y-18501000D02*
X27237000Y-18531000D01*
X27745000Y-6817000D02*
X27775000Y-6847000D01*
X27775000Y-6817000D02*
X27745000Y-6847000D01*
X27745000Y-7833000D02*
X27775000Y-7863000D01*
X27775000Y-7833000D02*
X27745000Y-7863000D01*
X27745000Y-8849000D02*
X27775000Y-8879000D01*
X27775000Y-8849000D02*
X27745000Y-8879000D01*
X27745000Y-9865000D02*
X27775000Y-9895000D01*
X27775000Y-9865000D02*
X27745000Y-9895000D01*
X27745000Y-10881000D02*
X27775000Y-10911000D01*
X27775000Y-10881000D02*
X27745000Y-10911000D01*
X27745000Y-11897000D02*
X27775000Y-11927000D01*
X27775000Y-11897000D02*
X27745000Y-11927000D01*
X27745000Y-12913000D02*
X27775000Y-12943000D01*
X27775000Y-12913000D02*
X27745000Y-12943000D01*
X27745000Y-13929000D02*
X27775000Y-13959000D01*
X27775000Y-13929000D02*
X27745000Y-13959000D01*
X27745000Y-14945000D02*
X27775000Y-14975000D01*
X27775000Y-14945000D02*
X27745000Y-14975000D01*
X27745000Y-15961000D02*
X27775000Y-15991000D01*
X27775000Y-15961000D02*
X27745000Y-15991000D01*
X27745000Y-16977000D02*
X27775000Y-17007000D01*
X27775000Y-16977000D02*
X27745000Y-17007000D01*
X27745000Y-17993000D02*
X27775000Y-18023000D01*
X27775000Y-17993000D02*
X27745000Y-18023000D01*
X20558100Y-5375000D02*
G75*
G03*
X20558100Y-5375000I-38100J0D01*
G01*
X21058100Y-5375000D02*
G75*
G03*
X21058100Y-5375000I-38100J0D01*
G01*
D12*
X6775000Y-5920000D02*
X6775000Y-6030000D01*
X6720000Y-5975000D02*
X6830000Y-5975000D01*
X6775000Y-6570000D02*
X6775000Y-6680000D01*
X6720000Y-6625000D02*
X6830000Y-6625000D01*
X7225000Y-5920000D02*
X7225000Y-6030000D01*
X7170000Y-5975000D02*
X7280000Y-5975000D01*
X7225000Y-6570000D02*
X7225000Y-6680000D01*
X7170000Y-6625000D02*
X7280000Y-6625000D01*
X7775000Y-5920000D02*
X7775000Y-6030000D01*
X7720000Y-5975000D02*
X7830000Y-5975000D01*
X7775000Y-6570000D02*
X7775000Y-6680000D01*
X7720000Y-6625000D02*
X7830000Y-6625000D01*
X8225000Y-5920000D02*
X8225000Y-6030000D01*
X8170000Y-5975000D02*
X8280000Y-5975000D01*
X8225000Y-6570000D02*
X8225000Y-6680000D01*
X8170000Y-6625000D02*
X8280000Y-6625000D01*
X8775000Y-5920000D02*
X8775000Y-6030000D01*
X8720000Y-5975000D02*
X8830000Y-5975000D01*
X8775000Y-6570000D02*
X8775000Y-6680000D01*
X8720000Y-6625000D02*
X8830000Y-6625000D01*
X9225000Y-5920000D02*
X9225000Y-6030000D01*
X9170000Y-5975000D02*
X9280000Y-5975000D01*
X9225000Y-6570000D02*
X9225000Y-6680000D01*
X9170000Y-6625000D02*
X9280000Y-6625000D01*
X12088000Y-5375000D02*
X12088000Y-5485000D01*
X12033000Y-5430000D02*
X12143000Y-5430000D01*
X12088000Y-5629000D02*
X12088000Y-5739000D01*
X12033000Y-5684000D02*
X12143000Y-5684000D01*
X12088000Y-5883000D02*
X12088000Y-5993000D01*
X12033000Y-5938000D02*
X12143000Y-5938000D01*
X12088000Y-6137000D02*
X12088000Y-6247000D01*
X12033000Y-6192000D02*
X12143000Y-6192000D01*
X12088000Y-6391000D02*
X12088000Y-6501000D01*
X12033000Y-6446000D02*
X12143000Y-6446000D01*
X12088000Y-6645000D02*
X12088000Y-6755000D01*
X12033000Y-6700000D02*
X12143000Y-6700000D01*
X12088000Y-6899000D02*
X12088000Y-7009000D01*
X12033000Y-6954000D02*
X12143000Y-6954000D01*
X12088000Y-7153000D02*
X12088000Y-7263000D01*
X12033000Y-7208000D02*
X12143000Y-7208000D01*
X12088000Y-7407000D02*
X12088000Y-7517000D01*
X12033000Y-7462000D02*
X12143000Y-7462000D01*
X12088000Y-7661000D02*
X12088000Y-7771000D01*
X12033000Y-7716000D02*
X12143000Y-7716000D01*
X12088000Y-7915000D02*
X12088000Y-8025000D01*
X12033000Y-7970000D02*
X12143000Y-7970000D01*
X12088000Y-8169000D02*
X12088000Y-8279000D01*
X12033000Y-8224000D02*
X12143000Y-8224000D01*
X13612000Y-5375000D02*
X13612000Y-5485000D01*
X13557000Y-5430000D02*
X13667000Y-5430000D01*
X13612000Y-5629000D02*
X13612000Y-5739000D01*
X13557000Y-5684000D02*
X13667000Y-5684000D01*
X13612000Y-5883000D02*
X13612000Y-5993000D01*
X13557000Y-5938000D02*
X13667000Y-5938000D01*
X13612000Y-6137000D02*
X13612000Y-6247000D01*
X13557000Y-6192000D02*
X13667000Y-6192000D01*
X13612000Y-6391000D02*
X13612000Y-6501000D01*
X13557000Y-6446000D02*
X13667000Y-6446000D01*
X13612000Y-6645000D02*
X13612000Y-6755000D01*
X13557000Y-6700000D02*
X13667000Y-6700000D01*
X13612000Y-6899000D02*
X13612000Y-7009000D01*
X13557000Y-6954000D02*
X13667000Y-6954000D01*
X13612000Y-7153000D02*
X13612000Y-7263000D01*
X13557000Y-7208000D02*
X13667000Y-7208000D01*
X13612000Y-7407000D02*
X13612000Y-7517000D01*
X13557000Y-7462000D02*
X13667000Y-7462000D01*
X13612000Y-7661000D02*
X13612000Y-7771000D01*
X13557000Y-7716000D02*
X13667000Y-7716000D01*
X13612000Y-7915000D02*
X13612000Y-8025000D01*
X13557000Y-7970000D02*
X13667000Y-7970000D01*
X13612000Y-8169000D02*
X13612000Y-8279000D01*
X13557000Y-8224000D02*
X13667000Y-8224000D01*
D13*
X6719902Y-11699902D02*
X6719902Y-11610098D01*
X6630098Y-11610098D01*
X6630098Y-11699902D01*
X6719902Y-11699902D01*
X7219902Y-11909902D02*
X7219902Y-11820098D01*
X7130098Y-11820098D01*
X7130098Y-11909902D01*
X7219902Y-11909902D01*
X7719902Y-11699902D02*
X7719902Y-11610098D01*
X7630098Y-11610098D01*
X7630098Y-11699902D01*
X7719902Y-11699902D01*
X9581902Y-11699902D02*
X9581902Y-11610098D01*
X9492098Y-11610098D01*
X9492098Y-11699902D01*
X9581902Y-11699902D01*
X10081902Y-11909902D02*
X10081902Y-11820098D01*
X9992098Y-11820098D01*
X9992098Y-11909902D01*
X10081902Y-11909902D01*
X10266902Y-17471902D02*
X10266902Y-17382098D01*
X10177098Y-17382098D01*
X10177098Y-17471902D01*
X10266902Y-17471902D01*
X10581902Y-11699902D02*
X10581902Y-11610098D01*
X10492098Y-11610098D01*
X10492098Y-11699902D01*
X10581902Y-11699902D01*
X10766902Y-17681902D02*
X10766902Y-17592098D01*
X10677098Y-17592098D01*
X10677098Y-17681902D01*
X10766902Y-17681902D01*
X11266902Y-17471902D02*
X11266902Y-17382098D01*
X11177098Y-17382098D01*
X11177098Y-17471902D01*
X11266902Y-17471902D01*
X12126902Y-13050902D02*
X12126902Y-12961098D01*
X12037098Y-12961098D01*
X12037098Y-13050902D01*
X12126902Y-13050902D01*
X12626902Y-13260902D02*
X12626902Y-13171098D01*
X12537098Y-13171098D01*
X12537098Y-13260902D01*
X12626902Y-13260902D01*
X13126902Y-13050902D02*
X13126902Y-12961098D01*
X13037098Y-12961098D01*
X13037098Y-13050902D01*
X13126902Y-13050902D01*
X13423902Y-18291902D02*
X13423902Y-18202098D01*
X13334098Y-18202098D01*
X13334098Y-18291902D01*
X13423902Y-18291902D01*
X13923902Y-18501902D02*
X13923902Y-18412098D01*
X13834098Y-18412098D01*
X13834098Y-18501902D01*
X13923902Y-18501902D01*
X14423902Y-18291902D02*
X14423902Y-18202098D01*
X14334098Y-18202098D01*
X14334098Y-18291902D01*
X14423902Y-18291902D01*
X14633902Y-14805902D02*
X14633902Y-14716098D01*
X14544098Y-14716098D01*
X14544098Y-14805902D01*
X14633902Y-14805902D01*
X14849902Y-11794902D02*
X14849902Y-11705098D01*
X14760098Y-11705098D01*
X14760098Y-11794902D01*
X14849902Y-11794902D01*
X15133902Y-15015902D02*
X15133902Y-14926098D01*
X15044098Y-14926098D01*
X15044098Y-15015902D01*
X15133902Y-15015902D01*
X15349902Y-12004902D02*
X15349902Y-11915098D01*
X15260098Y-11915098D01*
X15260098Y-12004902D01*
X15349902Y-12004902D01*
X15633902Y-14805902D02*
X15633902Y-14716098D01*
X15544098Y-14716098D01*
X15544098Y-14805902D01*
X15633902Y-14805902D01*
X15849902Y-11794902D02*
X15849902Y-11705098D01*
X15760098Y-11705098D01*
X15760098Y-11794902D01*
X15849902Y-11794902D01*
X17331902Y-13661902D02*
X17331902Y-13572098D01*
X17242098Y-13572098D01*
X17242098Y-13661902D01*
X17331902Y-13661902D01*
X17484902Y-10653902D02*
X17484902Y-10564098D01*
X17395098Y-10564098D01*
X17395098Y-10653902D01*
X17484902Y-10653902D01*
X17798902Y-7599902D02*
X17798902Y-7510098D01*
X17709098Y-7510098D01*
X17709098Y-7599902D01*
X17798902Y-7599902D01*
X17831902Y-13871902D02*
X17831902Y-13782098D01*
X17742098Y-13782098D01*
X17742098Y-13871902D01*
X17831902Y-13871902D01*
X17984902Y-10863902D02*
X17984902Y-10774098D01*
X17895098Y-10774098D01*
X17895098Y-10863902D01*
X17984902Y-10863902D01*
X18298902Y-7809902D02*
X18298902Y-7720098D01*
X18209098Y-7720098D01*
X18209098Y-7809902D01*
X18298902Y-7809902D01*
X18331902Y-13661902D02*
X18331902Y-13572098D01*
X18242098Y-13572098D01*
X18242098Y-13661902D01*
X18331902Y-13661902D01*
X18484902Y-10653902D02*
X18484902Y-10564098D01*
X18395098Y-10564098D01*
X18395098Y-10653902D01*
X18484902Y-10653902D01*
X18798902Y-7599902D02*
X18798902Y-7510098D01*
X18709098Y-7510098D01*
X18709098Y-7599902D01*
X18798902Y-7599902D01*
X20029902Y-12517902D02*
X20029902Y-12428098D01*
X19940098Y-12428098D01*
X19940098Y-12517902D01*
X20029902Y-12517902D01*
X20119902Y-9512902D02*
X20119902Y-9423098D01*
X20030098Y-9423098D01*
X20030098Y-9512902D01*
X20119902Y-9512902D01*
X20529902Y-12727902D02*
X20529902Y-12638098D01*
X20440098Y-12638098D01*
X20440098Y-12727902D01*
X20529902Y-12727902D01*
X20619902Y-9722902D02*
X20619902Y-9633098D01*
X20530098Y-9633098D01*
X20530098Y-9722902D01*
X20619902Y-9722902D01*
X21029902Y-12517902D02*
X21029902Y-12428098D01*
X20940098Y-12428098D01*
X20940098Y-12517902D01*
X21029902Y-12517902D01*
X21119902Y-9512902D02*
X21119902Y-9423098D01*
X21030098Y-9423098D01*
X21030098Y-9512902D01*
X21119902Y-9512902D01*
X23029902Y-9118902D02*
X23029902Y-9029098D01*
X22940098Y-9029098D01*
X22940098Y-9118902D01*
X23029902Y-9118902D01*
X23166902Y-12063902D02*
X23166902Y-11974098D01*
X23077098Y-11974098D01*
X23077098Y-12063902D01*
X23166902Y-12063902D01*
X23529902Y-9328902D02*
X23529902Y-9239098D01*
X23440098Y-9239098D01*
X23440098Y-9328902D01*
X23529902Y-9328902D01*
X23666902Y-12273902D02*
X23666902Y-12184098D01*
X23577098Y-12184098D01*
X23577098Y-12273902D01*
X23666902Y-12273902D01*
X24029902Y-9118902D02*
X24029902Y-9029098D01*
X23940098Y-9029098D01*
X23940098Y-9118902D01*
X24029902Y-9118902D01*
X24166902Y-12063902D02*
X24166902Y-11974098D01*
X24077098Y-11974098D01*
X24077098Y-12063902D01*
X24166902Y-12063902D01*
X25786902Y-10535902D02*
X25786902Y-10446098D01*
X25697098Y-10446098D01*
X25697098Y-10535902D01*
X25786902Y-10535902D01*
X26286902Y-10745902D02*
X26286902Y-10656098D01*
X26197098Y-10656098D01*
X26197098Y-10745902D01*
X26286902Y-10745902D01*
X26786902Y-10535902D02*
X26786902Y-10446098D01*
X26697098Y-10446098D01*
X26697098Y-10535902D01*
X26786902Y-10535902D01*
D14*
X20410000Y-5680000D02*
X20475000Y-5615000D01*
X20410000Y-5550000D01*
X20345000Y-5615000D01*
X20410000Y-5680000D01*
X21130000Y-5680000D02*
X21195000Y-5615000D01*
X21130000Y-5550000D01*
X21065000Y-5615000D01*
X21130000Y-5680000D01*
D10*
X5250777Y-20088484D02*
X5250777Y-19888484D01*
X5250777Y-19888484D02*
X5298396Y-19888484D01*
X5298396Y-19888484D02*
X5326967Y-19898008D01*
X5326967Y-19898008D02*
X5346015Y-19917055D01*
X5346015Y-19917055D02*
X5355539Y-19936103D01*
X5355539Y-19936103D02*
X5365063Y-19974198D01*
X5365063Y-19974198D02*
X5365063Y-20002770D01*
X5365063Y-20002770D02*
X5355539Y-20040865D01*
X5355539Y-20040865D02*
X5346015Y-20059912D01*
X5346015Y-20059912D02*
X5326967Y-20078960D01*
X5326967Y-20078960D02*
X5298396Y-20088484D01*
X5298396Y-20088484D02*
X5250777Y-20088484D01*
X5450777Y-20088484D02*
X5450777Y-19955150D01*
X5450777Y-19993246D02*
X5460301Y-19974198D01*
X5460301Y-19974198D02*
X5469824Y-19964674D01*
X5469824Y-19964674D02*
X5488872Y-19955150D01*
X5488872Y-19955150D02*
X5507920Y-19955150D01*
X5574586Y-20088484D02*
X5574586Y-19955150D01*
X5574586Y-19888484D02*
X5565063Y-19898008D01*
X5565063Y-19898008D02*
X5574586Y-19907531D01*
X5574586Y-19907531D02*
X5584110Y-19898008D01*
X5584110Y-19898008D02*
X5574586Y-19888484D01*
X5574586Y-19888484D02*
X5574586Y-19907531D01*
X5698396Y-20088484D02*
X5679348Y-20078960D01*
X5679348Y-20078960D02*
X5669824Y-20059912D01*
X5669824Y-20059912D02*
X5669824Y-19888484D01*
X5803158Y-20088484D02*
X5784110Y-20078960D01*
X5784110Y-20078960D02*
X5774586Y-20059912D01*
X5774586Y-20059912D02*
X5774586Y-19888484D01*
X6031729Y-20088484D02*
X6031729Y-19888484D01*
X6031729Y-19888484D02*
X6098396Y-20031341D01*
X6098396Y-20031341D02*
X6165062Y-19888484D01*
X6165062Y-19888484D02*
X6165062Y-20088484D01*
X6346015Y-20088484D02*
X6346015Y-19983722D01*
X6346015Y-19983722D02*
X6336491Y-19964674D01*
X6336491Y-19964674D02*
X6317443Y-19955150D01*
X6317443Y-19955150D02*
X6279348Y-19955150D01*
X6279348Y-19955150D02*
X6260301Y-19964674D01*
X6346015Y-20078960D02*
X6326967Y-20088484D01*
X6326967Y-20088484D02*
X6279348Y-20088484D01*
X6279348Y-20088484D02*
X6260301Y-20078960D01*
X6260301Y-20078960D02*
X6250777Y-20059912D01*
X6250777Y-20059912D02*
X6250777Y-20040865D01*
X6250777Y-20040865D02*
X6260301Y-20021817D01*
X6260301Y-20021817D02*
X6279348Y-20012293D01*
X6279348Y-20012293D02*
X6326967Y-20012293D01*
X6326967Y-20012293D02*
X6346015Y-20002770D01*
X6441253Y-19955150D02*
X6441253Y-20155150D01*
X6441253Y-19964674D02*
X6460301Y-19955150D01*
X6460301Y-19955150D02*
X6498396Y-19955150D01*
X6498396Y-19955150D02*
X6517443Y-19964674D01*
X6517443Y-19964674D02*
X6526967Y-19974198D01*
X6526967Y-19974198D02*
X6536491Y-19993246D01*
X6536491Y-19993246D02*
X6536491Y-20050389D01*
X6536491Y-20050389D02*
X6526967Y-20069436D01*
X6526967Y-20069436D02*
X6517443Y-20078960D01*
X6517443Y-20078960D02*
X6498396Y-20088484D01*
X6498396Y-20088484D02*
X6460301Y-20088484D01*
X6460301Y-20088484D02*
X6441253Y-20078960D01*
X6622205Y-20069436D02*
X6631729Y-20078960D01*
X6631729Y-20078960D02*
X6622205Y-20088484D01*
X6622205Y-20088484D02*
X6612682Y-20078960D01*
X6612682Y-20078960D02*
X6622205Y-20069436D01*
X6622205Y-20069436D02*
X6622205Y-20088484D01*
X6622205Y-19964674D02*
X6631729Y-19974198D01*
X6631729Y-19974198D02*
X6622205Y-19983722D01*
X6622205Y-19983722D02*
X6612682Y-19974198D01*
X6612682Y-19974198D02*
X6622205Y-19964674D01*
X6622205Y-19964674D02*
X6622205Y-19983722D01*
D11*
X4960000Y-20402000D02*
X4990000Y-20432000D01*
X4990000Y-20402000D02*
X4960000Y-20432000D01*
D10*
X5288872Y-20308484D02*
X5307920Y-20308484D01*
X5307920Y-20308484D02*
X5326967Y-20318008D01*
X5326967Y-20318008D02*
X5336491Y-20327531D01*
X5336491Y-20327531D02*
X5346015Y-20346579D01*
X5346015Y-20346579D02*
X5355539Y-20384674D01*
X5355539Y-20384674D02*
X5355539Y-20432293D01*
X5355539Y-20432293D02*
X5346015Y-20470389D01*
X5346015Y-20470389D02*
X5336491Y-20489436D01*
X5336491Y-20489436D02*
X5326967Y-20498960D01*
X5326967Y-20498960D02*
X5307920Y-20508484D01*
X5307920Y-20508484D02*
X5288872Y-20508484D01*
X5288872Y-20508484D02*
X5269824Y-20498960D01*
X5269824Y-20498960D02*
X5260301Y-20489436D01*
X5260301Y-20489436D02*
X5250777Y-20470389D01*
X5250777Y-20470389D02*
X5241253Y-20432293D01*
X5241253Y-20432293D02*
X5241253Y-20384674D01*
X5241253Y-20384674D02*
X5250777Y-20346579D01*
X5250777Y-20346579D02*
X5260301Y-20327531D01*
X5260301Y-20327531D02*
X5269824Y-20318008D01*
X5269824Y-20318008D02*
X5288872Y-20308484D01*
X5441253Y-20489436D02*
X5450777Y-20498960D01*
X5450777Y-20498960D02*
X5441253Y-20508484D01*
X5441253Y-20508484D02*
X5431729Y-20498960D01*
X5431729Y-20498960D02*
X5441253Y-20489436D01*
X5441253Y-20489436D02*
X5441253Y-20508484D01*
X5517444Y-20308484D02*
X5641253Y-20308484D01*
X5641253Y-20308484D02*
X5574586Y-20384674D01*
X5574586Y-20384674D02*
X5603158Y-20384674D01*
X5603158Y-20384674D02*
X5622205Y-20394198D01*
X5622205Y-20394198D02*
X5631729Y-20403722D01*
X5631729Y-20403722D02*
X5641253Y-20422770D01*
X5641253Y-20422770D02*
X5641253Y-20470389D01*
X5641253Y-20470389D02*
X5631729Y-20489436D01*
X5631729Y-20489436D02*
X5622205Y-20498960D01*
X5622205Y-20498960D02*
X5603158Y-20508484D01*
X5603158Y-20508484D02*
X5546015Y-20508484D01*
X5546015Y-20508484D02*
X5526967Y-20498960D01*
X5526967Y-20498960D02*
X5517444Y-20489436D01*
X5765062Y-20308484D02*
X5784110Y-20308484D01*
X5784110Y-20308484D02*
X5803158Y-20318008D01*
X5803158Y-20318008D02*
X5812682Y-20327531D01*
X5812682Y-20327531D02*
X5822205Y-20346579D01*
X5822205Y-20346579D02*
X5831729Y-20384674D01*
X5831729Y-20384674D02*
X5831729Y-20432293D01*
X5831729Y-20432293D02*
X5822205Y-20470389D01*
X5822205Y-20470389D02*
X5812682Y-20489436D01*
X5812682Y-20489436D02*
X5803158Y-20498960D01*
X5803158Y-20498960D02*
X5784110Y-20508484D01*
X5784110Y-20508484D02*
X5765062Y-20508484D01*
X5765062Y-20508484D02*
X5746015Y-20498960D01*
X5746015Y-20498960D02*
X5736491Y-20489436D01*
X5736491Y-20489436D02*
X5726967Y-20470389D01*
X5726967Y-20470389D02*
X5717443Y-20432293D01*
X5717443Y-20432293D02*
X5717443Y-20384674D01*
X5717443Y-20384674D02*
X5726967Y-20346579D01*
X5726967Y-20346579D02*
X5736491Y-20327531D01*
X5736491Y-20327531D02*
X5746015Y-20318008D01*
X5746015Y-20318008D02*
X5765062Y-20308484D01*
X5955539Y-20308484D02*
X5974586Y-20308484D01*
X5974586Y-20308484D02*
X5993634Y-20318008D01*
X5993634Y-20318008D02*
X6003158Y-20327531D01*
X6003158Y-20327531D02*
X6012682Y-20346579D01*
X6012682Y-20346579D02*
X6022205Y-20384674D01*
X6022205Y-20384674D02*
X6022205Y-20432293D01*
X6022205Y-20432293D02*
X6012682Y-20470389D01*
X6012682Y-20470389D02*
X6003158Y-20489436D01*
X6003158Y-20489436D02*
X5993634Y-20498960D01*
X5993634Y-20498960D02*
X5974586Y-20508484D01*
X5974586Y-20508484D02*
X5955539Y-20508484D01*
X5955539Y-20508484D02*
X5936491Y-20498960D01*
X5936491Y-20498960D02*
X5926967Y-20489436D01*
X5926967Y-20489436D02*
X5917443Y-20470389D01*
X5917443Y-20470389D02*
X5907920Y-20432293D01*
X5907920Y-20432293D02*
X5907920Y-20384674D01*
X5907920Y-20384674D02*
X5917443Y-20346579D01*
X5917443Y-20346579D02*
X5926967Y-20327531D01*
X5926967Y-20327531D02*
X5936491Y-20318008D01*
X5936491Y-20318008D02*
X5955539Y-20308484D01*
X6107920Y-20508484D02*
X6107920Y-20375150D01*
X6107920Y-20394198D02*
X6117443Y-20384674D01*
X6117443Y-20384674D02*
X6136491Y-20375150D01*
X6136491Y-20375150D02*
X6165063Y-20375150D01*
X6165063Y-20375150D02*
X6184110Y-20384674D01*
X6184110Y-20384674D02*
X6193634Y-20403722D01*
X6193634Y-20403722D02*
X6193634Y-20508484D01*
X6193634Y-20403722D02*
X6203158Y-20384674D01*
X6203158Y-20384674D02*
X6222205Y-20375150D01*
X6222205Y-20375150D02*
X6250777Y-20375150D01*
X6250777Y-20375150D02*
X6269824Y-20384674D01*
X6269824Y-20384674D02*
X6279348Y-20403722D01*
X6279348Y-20403722D02*
X6279348Y-20508484D01*
X6374586Y-20508484D02*
X6374586Y-20375150D01*
X6374586Y-20394198D02*
X6384110Y-20384674D01*
X6384110Y-20384674D02*
X6403158Y-20375150D01*
X6403158Y-20375150D02*
X6431729Y-20375150D01*
X6431729Y-20375150D02*
X6450777Y-20384674D01*
X6450777Y-20384674D02*
X6460301Y-20403722D01*
X6460301Y-20403722D02*
X6460301Y-20508484D01*
X6460301Y-20403722D02*
X6469824Y-20384674D01*
X6469824Y-20384674D02*
X6488872Y-20375150D01*
X6488872Y-20375150D02*
X6517443Y-20375150D01*
X6517443Y-20375150D02*
X6536491Y-20384674D01*
X6536491Y-20384674D02*
X6546015Y-20403722D01*
X6546015Y-20403722D02*
X6546015Y-20508484D01*
X6936491Y-20298960D02*
X6765063Y-20556103D01*
X7193634Y-20308484D02*
X7212682Y-20308484D01*
X7212682Y-20308484D02*
X7231729Y-20318008D01*
X7231729Y-20318008D02*
X7241253Y-20327531D01*
X7241253Y-20327531D02*
X7250777Y-20346579D01*
X7250777Y-20346579D02*
X7260301Y-20384674D01*
X7260301Y-20384674D02*
X7260301Y-20432293D01*
X7260301Y-20432293D02*
X7250777Y-20470389D01*
X7250777Y-20470389D02*
X7241253Y-20489436D01*
X7241253Y-20489436D02*
X7231729Y-20498960D01*
X7231729Y-20498960D02*
X7212682Y-20508484D01*
X7212682Y-20508484D02*
X7193634Y-20508484D01*
X7193634Y-20508484D02*
X7174586Y-20498960D01*
X7174586Y-20498960D02*
X7165063Y-20489436D01*
X7165063Y-20489436D02*
X7155539Y-20470389D01*
X7155539Y-20470389D02*
X7146015Y-20432293D01*
X7146015Y-20432293D02*
X7146015Y-20384674D01*
X7146015Y-20384674D02*
X7155539Y-20346579D01*
X7155539Y-20346579D02*
X7165063Y-20327531D01*
X7165063Y-20327531D02*
X7174586Y-20318008D01*
X7174586Y-20318008D02*
X7193634Y-20308484D01*
X7346015Y-20489436D02*
X7355539Y-20498960D01*
X7355539Y-20498960D02*
X7346015Y-20508484D01*
X7346015Y-20508484D02*
X7336491Y-20498960D01*
X7336491Y-20498960D02*
X7346015Y-20489436D01*
X7346015Y-20489436D02*
X7346015Y-20508484D01*
X7479348Y-20308484D02*
X7498396Y-20308484D01*
X7498396Y-20308484D02*
X7517444Y-20318008D01*
X7517444Y-20318008D02*
X7526967Y-20327531D01*
X7526967Y-20327531D02*
X7536491Y-20346579D01*
X7536491Y-20346579D02*
X7546015Y-20384674D01*
X7546015Y-20384674D02*
X7546015Y-20432293D01*
X7546015Y-20432293D02*
X7536491Y-20470389D01*
X7536491Y-20470389D02*
X7526967Y-20489436D01*
X7526967Y-20489436D02*
X7517444Y-20498960D01*
X7517444Y-20498960D02*
X7498396Y-20508484D01*
X7498396Y-20508484D02*
X7479348Y-20508484D01*
X7479348Y-20508484D02*
X7460301Y-20498960D01*
X7460301Y-20498960D02*
X7450777Y-20489436D01*
X7450777Y-20489436D02*
X7441253Y-20470389D01*
X7441253Y-20470389D02*
X7431729Y-20432293D01*
X7431729Y-20432293D02*
X7431729Y-20384674D01*
X7431729Y-20384674D02*
X7441253Y-20346579D01*
X7441253Y-20346579D02*
X7450777Y-20327531D01*
X7450777Y-20327531D02*
X7460301Y-20318008D01*
X7460301Y-20318008D02*
X7479348Y-20308484D01*
X7736491Y-20508484D02*
X7622206Y-20508484D01*
X7679348Y-20508484D02*
X7679348Y-20308484D01*
X7679348Y-20308484D02*
X7660301Y-20337055D01*
X7660301Y-20337055D02*
X7641253Y-20356103D01*
X7641253Y-20356103D02*
X7622206Y-20365627D01*
X7926967Y-20508484D02*
X7812682Y-20508484D01*
X7869825Y-20508484D02*
X7869825Y-20308484D01*
X7869825Y-20308484D02*
X7850777Y-20337055D01*
X7850777Y-20337055D02*
X7831729Y-20356103D01*
X7831729Y-20356103D02*
X7812682Y-20365627D01*
X8041253Y-20394198D02*
X8022206Y-20384674D01*
X8022206Y-20384674D02*
X8012682Y-20375150D01*
X8012682Y-20375150D02*
X8003158Y-20356103D01*
X8003158Y-20356103D02*
X8003158Y-20346579D01*
X8003158Y-20346579D02*
X8012682Y-20327531D01*
X8012682Y-20327531D02*
X8022206Y-20318008D01*
X8022206Y-20318008D02*
X8041253Y-20308484D01*
X8041253Y-20308484D02*
X8079348Y-20308484D01*
X8079348Y-20308484D02*
X8098396Y-20318008D01*
X8098396Y-20318008D02*
X8107920Y-20327531D01*
X8107920Y-20327531D02*
X8117444Y-20346579D01*
X8117444Y-20346579D02*
X8117444Y-20356103D01*
X8117444Y-20356103D02*
X8107920Y-20375150D01*
X8107920Y-20375150D02*
X8098396Y-20384674D01*
X8098396Y-20384674D02*
X8079348Y-20394198D01*
X8079348Y-20394198D02*
X8041253Y-20394198D01*
X8041253Y-20394198D02*
X8022206Y-20403722D01*
X8022206Y-20403722D02*
X8012682Y-20413246D01*
X8012682Y-20413246D02*
X8003158Y-20432293D01*
X8003158Y-20432293D02*
X8003158Y-20470389D01*
X8003158Y-20470389D02*
X8012682Y-20489436D01*
X8012682Y-20489436D02*
X8022206Y-20498960D01*
X8022206Y-20498960D02*
X8041253Y-20508484D01*
X8041253Y-20508484D02*
X8079348Y-20508484D01*
X8079348Y-20508484D02*
X8098396Y-20498960D01*
X8098396Y-20498960D02*
X8107920Y-20489436D01*
X8107920Y-20489436D02*
X8117444Y-20470389D01*
X8117444Y-20470389D02*
X8117444Y-20432293D01*
X8117444Y-20432293D02*
X8107920Y-20413246D01*
X8107920Y-20413246D02*
X8098396Y-20403722D01*
X8098396Y-20403722D02*
X8079348Y-20394198D01*
X8193634Y-20308484D02*
X8193634Y-20346579D01*
X8269825Y-20308484D02*
X8269825Y-20346579D01*
X8565063Y-20584674D02*
X8555539Y-20575150D01*
X8555539Y-20575150D02*
X8536491Y-20546579D01*
X8536491Y-20546579D02*
X8526968Y-20527531D01*
X8526968Y-20527531D02*
X8517444Y-20498960D01*
X8517444Y-20498960D02*
X8507920Y-20451341D01*
X8507920Y-20451341D02*
X8507920Y-20413246D01*
X8507920Y-20413246D02*
X8517444Y-20365627D01*
X8517444Y-20365627D02*
X8526968Y-20337055D01*
X8526968Y-20337055D02*
X8536491Y-20318008D01*
X8536491Y-20318008D02*
X8555539Y-20289436D01*
X8555539Y-20289436D02*
X8565063Y-20279912D01*
X8622206Y-20308484D02*
X8746015Y-20308484D01*
X8746015Y-20308484D02*
X8679349Y-20384674D01*
X8679349Y-20384674D02*
X8707920Y-20384674D01*
X8707920Y-20384674D02*
X8726968Y-20394198D01*
X8726968Y-20394198D02*
X8736491Y-20403722D01*
X8736491Y-20403722D02*
X8746015Y-20422770D01*
X8746015Y-20422770D02*
X8746015Y-20470389D01*
X8746015Y-20470389D02*
X8736491Y-20489436D01*
X8736491Y-20489436D02*
X8726968Y-20498960D01*
X8726968Y-20498960D02*
X8707920Y-20508484D01*
X8707920Y-20508484D02*
X8650777Y-20508484D01*
X8650777Y-20508484D02*
X8631730Y-20498960D01*
X8631730Y-20498960D02*
X8622206Y-20489436D01*
X8822206Y-20327531D02*
X8831730Y-20318008D01*
X8831730Y-20318008D02*
X8850777Y-20308484D01*
X8850777Y-20308484D02*
X8898396Y-20308484D01*
X8898396Y-20308484D02*
X8917444Y-20318008D01*
X8917444Y-20318008D02*
X8926968Y-20327531D01*
X8926968Y-20327531D02*
X8936491Y-20346579D01*
X8936491Y-20346579D02*
X8936491Y-20365627D01*
X8936491Y-20365627D02*
X8926968Y-20394198D01*
X8926968Y-20394198D02*
X8812682Y-20508484D01*
X8812682Y-20508484D02*
X8936491Y-20508484D01*
X9107920Y-20375150D02*
X9107920Y-20508484D01*
X9060301Y-20298960D02*
X9012682Y-20441817D01*
X9012682Y-20441817D02*
X9136491Y-20441817D01*
X9365063Y-20508484D02*
X9365063Y-20308484D01*
X9450777Y-20508484D02*
X9450777Y-20403722D01*
X9450777Y-20403722D02*
X9441253Y-20384674D01*
X9441253Y-20384674D02*
X9422206Y-20375150D01*
X9422206Y-20375150D02*
X9393634Y-20375150D01*
X9393634Y-20375150D02*
X9374587Y-20384674D01*
X9374587Y-20384674D02*
X9365063Y-20394198D01*
X9574587Y-20508484D02*
X9555539Y-20498960D01*
X9555539Y-20498960D02*
X9546015Y-20489436D01*
X9546015Y-20489436D02*
X9536492Y-20470389D01*
X9536492Y-20470389D02*
X9536492Y-20413246D01*
X9536492Y-20413246D02*
X9546015Y-20394198D01*
X9546015Y-20394198D02*
X9555539Y-20384674D01*
X9555539Y-20384674D02*
X9574587Y-20375150D01*
X9574587Y-20375150D02*
X9603158Y-20375150D01*
X9603158Y-20375150D02*
X9622206Y-20384674D01*
X9622206Y-20384674D02*
X9631730Y-20394198D01*
X9631730Y-20394198D02*
X9641253Y-20413246D01*
X9641253Y-20413246D02*
X9641253Y-20470389D01*
X9641253Y-20470389D02*
X9631730Y-20489436D01*
X9631730Y-20489436D02*
X9622206Y-20498960D01*
X9622206Y-20498960D02*
X9603158Y-20508484D01*
X9603158Y-20508484D02*
X9574587Y-20508484D01*
X9755539Y-20508484D02*
X9736492Y-20498960D01*
X9736492Y-20498960D02*
X9726968Y-20479912D01*
X9726968Y-20479912D02*
X9726968Y-20308484D01*
X9907920Y-20498960D02*
X9888873Y-20508484D01*
X9888873Y-20508484D02*
X9850777Y-20508484D01*
X9850777Y-20508484D02*
X9831730Y-20498960D01*
X9831730Y-20498960D02*
X9822206Y-20479912D01*
X9822206Y-20479912D02*
X9822206Y-20403722D01*
X9822206Y-20403722D02*
X9831730Y-20384674D01*
X9831730Y-20384674D02*
X9850777Y-20375150D01*
X9850777Y-20375150D02*
X9888873Y-20375150D01*
X9888873Y-20375150D02*
X9907920Y-20384674D01*
X9907920Y-20384674D02*
X9917444Y-20403722D01*
X9917444Y-20403722D02*
X9917444Y-20422770D01*
X9917444Y-20422770D02*
X9822206Y-20441817D01*
X9993634Y-20498960D02*
X10012682Y-20508484D01*
X10012682Y-20508484D02*
X10050777Y-20508484D01*
X10050777Y-20508484D02*
X10069825Y-20498960D01*
X10069825Y-20498960D02*
X10079349Y-20479912D01*
X10079349Y-20479912D02*
X10079349Y-20470389D01*
X10079349Y-20470389D02*
X10069825Y-20451341D01*
X10069825Y-20451341D02*
X10050777Y-20441817D01*
X10050777Y-20441817D02*
X10022206Y-20441817D01*
X10022206Y-20441817D02*
X10003158Y-20432293D01*
X10003158Y-20432293D02*
X9993634Y-20413246D01*
X9993634Y-20413246D02*
X9993634Y-20403722D01*
X9993634Y-20403722D02*
X10003158Y-20384674D01*
X10003158Y-20384674D02*
X10022206Y-20375150D01*
X10022206Y-20375150D02*
X10050777Y-20375150D01*
X10050777Y-20375150D02*
X10069825Y-20384674D01*
X10146015Y-20584674D02*
X10155539Y-20575150D01*
X10155539Y-20575150D02*
X10174587Y-20546579D01*
X10174587Y-20546579D02*
X10184111Y-20527531D01*
X10184111Y-20527531D02*
X10193634Y-20498960D01*
X10193634Y-20498960D02*
X10203158Y-20451341D01*
X10203158Y-20451341D02*
X10203158Y-20413246D01*
X10203158Y-20413246D02*
X10193634Y-20365627D01*
X10193634Y-20365627D02*
X10184111Y-20337055D01*
X10184111Y-20337055D02*
X10174587Y-20318008D01*
X10174587Y-20318008D02*
X10155539Y-20289436D01*
X10155539Y-20289436D02*
X10146015Y-20279912D01*
D11*
X4990000Y-20681000D02*
G75*
G03*
X4990000Y-20681000I-38100J0D01*
G01*
D10*
X5288872Y-20572484D02*
X5307920Y-20572484D01*
X5307920Y-20572484D02*
X5326967Y-20582008D01*
X5326967Y-20582008D02*
X5336491Y-20591531D01*
X5336491Y-20591531D02*
X5346015Y-20610579D01*
X5346015Y-20610579D02*
X5355539Y-20648674D01*
X5355539Y-20648674D02*
X5355539Y-20696293D01*
X5355539Y-20696293D02*
X5346015Y-20734389D01*
X5346015Y-20734389D02*
X5336491Y-20753436D01*
X5336491Y-20753436D02*
X5326967Y-20762960D01*
X5326967Y-20762960D02*
X5307920Y-20772484D01*
X5307920Y-20772484D02*
X5288872Y-20772484D01*
X5288872Y-20772484D02*
X5269824Y-20762960D01*
X5269824Y-20762960D02*
X5260301Y-20753436D01*
X5260301Y-20753436D02*
X5250777Y-20734389D01*
X5250777Y-20734389D02*
X5241253Y-20696293D01*
X5241253Y-20696293D02*
X5241253Y-20648674D01*
X5241253Y-20648674D02*
X5250777Y-20610579D01*
X5250777Y-20610579D02*
X5260301Y-20591531D01*
X5260301Y-20591531D02*
X5269824Y-20582008D01*
X5269824Y-20582008D02*
X5288872Y-20572484D01*
X5441253Y-20753436D02*
X5450777Y-20762960D01*
X5450777Y-20762960D02*
X5441253Y-20772484D01*
X5441253Y-20772484D02*
X5431729Y-20762960D01*
X5431729Y-20762960D02*
X5441253Y-20753436D01*
X5441253Y-20753436D02*
X5441253Y-20772484D01*
X5517444Y-20572484D02*
X5650777Y-20572484D01*
X5650777Y-20572484D02*
X5565063Y-20772484D01*
X5812682Y-20572484D02*
X5774586Y-20572484D01*
X5774586Y-20572484D02*
X5755539Y-20582008D01*
X5755539Y-20582008D02*
X5746015Y-20591531D01*
X5746015Y-20591531D02*
X5726967Y-20620103D01*
X5726967Y-20620103D02*
X5717443Y-20658198D01*
X5717443Y-20658198D02*
X5717443Y-20734389D01*
X5717443Y-20734389D02*
X5726967Y-20753436D01*
X5726967Y-20753436D02*
X5736491Y-20762960D01*
X5736491Y-20762960D02*
X5755539Y-20772484D01*
X5755539Y-20772484D02*
X5793634Y-20772484D01*
X5793634Y-20772484D02*
X5812682Y-20762960D01*
X5812682Y-20762960D02*
X5822205Y-20753436D01*
X5822205Y-20753436D02*
X5831729Y-20734389D01*
X5831729Y-20734389D02*
X5831729Y-20686770D01*
X5831729Y-20686770D02*
X5822205Y-20667722D01*
X5822205Y-20667722D02*
X5812682Y-20658198D01*
X5812682Y-20658198D02*
X5793634Y-20648674D01*
X5793634Y-20648674D02*
X5755539Y-20648674D01*
X5755539Y-20648674D02*
X5736491Y-20658198D01*
X5736491Y-20658198D02*
X5726967Y-20667722D01*
X5726967Y-20667722D02*
X5717443Y-20686770D01*
X5907920Y-20591531D02*
X5917443Y-20582008D01*
X5917443Y-20582008D02*
X5936491Y-20572484D01*
X5936491Y-20572484D02*
X5984110Y-20572484D01*
X5984110Y-20572484D02*
X6003158Y-20582008D01*
X6003158Y-20582008D02*
X6012682Y-20591531D01*
X6012682Y-20591531D02*
X6022205Y-20610579D01*
X6022205Y-20610579D02*
X6022205Y-20629627D01*
X6022205Y-20629627D02*
X6012682Y-20658198D01*
X6012682Y-20658198D02*
X5898396Y-20772484D01*
X5898396Y-20772484D02*
X6022205Y-20772484D01*
X6107920Y-20772484D02*
X6107920Y-20639150D01*
X6107920Y-20658198D02*
X6117443Y-20648674D01*
X6117443Y-20648674D02*
X6136491Y-20639150D01*
X6136491Y-20639150D02*
X6165063Y-20639150D01*
X6165063Y-20639150D02*
X6184110Y-20648674D01*
X6184110Y-20648674D02*
X6193634Y-20667722D01*
X6193634Y-20667722D02*
X6193634Y-20772484D01*
X6193634Y-20667722D02*
X6203158Y-20648674D01*
X6203158Y-20648674D02*
X6222205Y-20639150D01*
X6222205Y-20639150D02*
X6250777Y-20639150D01*
X6250777Y-20639150D02*
X6269824Y-20648674D01*
X6269824Y-20648674D02*
X6279348Y-20667722D01*
X6279348Y-20667722D02*
X6279348Y-20772484D01*
X6374586Y-20772484D02*
X6374586Y-20639150D01*
X6374586Y-20658198D02*
X6384110Y-20648674D01*
X6384110Y-20648674D02*
X6403158Y-20639150D01*
X6403158Y-20639150D02*
X6431729Y-20639150D01*
X6431729Y-20639150D02*
X6450777Y-20648674D01*
X6450777Y-20648674D02*
X6460301Y-20667722D01*
X6460301Y-20667722D02*
X6460301Y-20772484D01*
X6460301Y-20667722D02*
X6469824Y-20648674D01*
X6469824Y-20648674D02*
X6488872Y-20639150D01*
X6488872Y-20639150D02*
X6517443Y-20639150D01*
X6517443Y-20639150D02*
X6536491Y-20648674D01*
X6536491Y-20648674D02*
X6546015Y-20667722D01*
X6546015Y-20667722D02*
X6546015Y-20772484D01*
X6936491Y-20562960D02*
X6765063Y-20820103D01*
X7193634Y-20572484D02*
X7212682Y-20572484D01*
X7212682Y-20572484D02*
X7231729Y-20582008D01*
X7231729Y-20582008D02*
X7241253Y-20591531D01*
X7241253Y-20591531D02*
X7250777Y-20610579D01*
X7250777Y-20610579D02*
X7260301Y-20648674D01*
X7260301Y-20648674D02*
X7260301Y-20696293D01*
X7260301Y-20696293D02*
X7250777Y-20734389D01*
X7250777Y-20734389D02*
X7241253Y-20753436D01*
X7241253Y-20753436D02*
X7231729Y-20762960D01*
X7231729Y-20762960D02*
X7212682Y-20772484D01*
X7212682Y-20772484D02*
X7193634Y-20772484D01*
X7193634Y-20772484D02*
X7174586Y-20762960D01*
X7174586Y-20762960D02*
X7165063Y-20753436D01*
X7165063Y-20753436D02*
X7155539Y-20734389D01*
X7155539Y-20734389D02*
X7146015Y-20696293D01*
X7146015Y-20696293D02*
X7146015Y-20648674D01*
X7146015Y-20648674D02*
X7155539Y-20610579D01*
X7155539Y-20610579D02*
X7165063Y-20591531D01*
X7165063Y-20591531D02*
X7174586Y-20582008D01*
X7174586Y-20582008D02*
X7193634Y-20572484D01*
X7346015Y-20753436D02*
X7355539Y-20762960D01*
X7355539Y-20762960D02*
X7346015Y-20772484D01*
X7346015Y-20772484D02*
X7336491Y-20762960D01*
X7336491Y-20762960D02*
X7346015Y-20753436D01*
X7346015Y-20753436D02*
X7346015Y-20772484D01*
X7479348Y-20572484D02*
X7498396Y-20572484D01*
X7498396Y-20572484D02*
X7517444Y-20582008D01*
X7517444Y-20582008D02*
X7526967Y-20591531D01*
X7526967Y-20591531D02*
X7536491Y-20610579D01*
X7536491Y-20610579D02*
X7546015Y-20648674D01*
X7546015Y-20648674D02*
X7546015Y-20696293D01*
X7546015Y-20696293D02*
X7536491Y-20734389D01*
X7536491Y-20734389D02*
X7526967Y-20753436D01*
X7526967Y-20753436D02*
X7517444Y-20762960D01*
X7517444Y-20762960D02*
X7498396Y-20772484D01*
X7498396Y-20772484D02*
X7479348Y-20772484D01*
X7479348Y-20772484D02*
X7460301Y-20762960D01*
X7460301Y-20762960D02*
X7450777Y-20753436D01*
X7450777Y-20753436D02*
X7441253Y-20734389D01*
X7441253Y-20734389D02*
X7431729Y-20696293D01*
X7431729Y-20696293D02*
X7431729Y-20648674D01*
X7431729Y-20648674D02*
X7441253Y-20610579D01*
X7441253Y-20610579D02*
X7450777Y-20591531D01*
X7450777Y-20591531D02*
X7460301Y-20582008D01*
X7460301Y-20582008D02*
X7479348Y-20572484D01*
X7612682Y-20572484D02*
X7736491Y-20572484D01*
X7736491Y-20572484D02*
X7669825Y-20648674D01*
X7669825Y-20648674D02*
X7698396Y-20648674D01*
X7698396Y-20648674D02*
X7717444Y-20658198D01*
X7717444Y-20658198D02*
X7726967Y-20667722D01*
X7726967Y-20667722D02*
X7736491Y-20686770D01*
X7736491Y-20686770D02*
X7736491Y-20734389D01*
X7736491Y-20734389D02*
X7726967Y-20753436D01*
X7726967Y-20753436D02*
X7717444Y-20762960D01*
X7717444Y-20762960D02*
X7698396Y-20772484D01*
X7698396Y-20772484D02*
X7641253Y-20772484D01*
X7641253Y-20772484D02*
X7622206Y-20762960D01*
X7622206Y-20762960D02*
X7612682Y-20753436D01*
X7860301Y-20572484D02*
X7879348Y-20572484D01*
X7879348Y-20572484D02*
X7898396Y-20582008D01*
X7898396Y-20582008D02*
X7907920Y-20591531D01*
X7907920Y-20591531D02*
X7917444Y-20610579D01*
X7917444Y-20610579D02*
X7926967Y-20648674D01*
X7926967Y-20648674D02*
X7926967Y-20696293D01*
X7926967Y-20696293D02*
X7917444Y-20734389D01*
X7917444Y-20734389D02*
X7907920Y-20753436D01*
X7907920Y-20753436D02*
X7898396Y-20762960D01*
X7898396Y-20762960D02*
X7879348Y-20772484D01*
X7879348Y-20772484D02*
X7860301Y-20772484D01*
X7860301Y-20772484D02*
X7841253Y-20762960D01*
X7841253Y-20762960D02*
X7831729Y-20753436D01*
X7831729Y-20753436D02*
X7822206Y-20734389D01*
X7822206Y-20734389D02*
X7812682Y-20696293D01*
X7812682Y-20696293D02*
X7812682Y-20648674D01*
X7812682Y-20648674D02*
X7822206Y-20610579D01*
X7822206Y-20610579D02*
X7831729Y-20591531D01*
X7831729Y-20591531D02*
X7841253Y-20582008D01*
X7841253Y-20582008D02*
X7860301Y-20572484D01*
X8050777Y-20572484D02*
X8069825Y-20572484D01*
X8069825Y-20572484D02*
X8088872Y-20582008D01*
X8088872Y-20582008D02*
X8098396Y-20591531D01*
X8098396Y-20591531D02*
X8107920Y-20610579D01*
X8107920Y-20610579D02*
X8117444Y-20648674D01*
X8117444Y-20648674D02*
X8117444Y-20696293D01*
X8117444Y-20696293D02*
X8107920Y-20734389D01*
X8107920Y-20734389D02*
X8098396Y-20753436D01*
X8098396Y-20753436D02*
X8088872Y-20762960D01*
X8088872Y-20762960D02*
X8069825Y-20772484D01*
X8069825Y-20772484D02*
X8050777Y-20772484D01*
X8050777Y-20772484D02*
X8031729Y-20762960D01*
X8031729Y-20762960D02*
X8022206Y-20753436D01*
X8022206Y-20753436D02*
X8012682Y-20734389D01*
X8012682Y-20734389D02*
X8003158Y-20696293D01*
X8003158Y-20696293D02*
X8003158Y-20648674D01*
X8003158Y-20648674D02*
X8012682Y-20610579D01*
X8012682Y-20610579D02*
X8022206Y-20591531D01*
X8022206Y-20591531D02*
X8031729Y-20582008D01*
X8031729Y-20582008D02*
X8050777Y-20572484D01*
X8193634Y-20572484D02*
X8193634Y-20610579D01*
X8269825Y-20572484D02*
X8269825Y-20610579D01*
X8565063Y-20848674D02*
X8555539Y-20839150D01*
X8555539Y-20839150D02*
X8536491Y-20810579D01*
X8536491Y-20810579D02*
X8526968Y-20791531D01*
X8526968Y-20791531D02*
X8517444Y-20762960D01*
X8517444Y-20762960D02*
X8507920Y-20715341D01*
X8507920Y-20715341D02*
X8507920Y-20677246D01*
X8507920Y-20677246D02*
X8517444Y-20629627D01*
X8517444Y-20629627D02*
X8526968Y-20601055D01*
X8526968Y-20601055D02*
X8536491Y-20582008D01*
X8536491Y-20582008D02*
X8555539Y-20553436D01*
X8555539Y-20553436D02*
X8565063Y-20543912D01*
X8631730Y-20591531D02*
X8641253Y-20582008D01*
X8641253Y-20582008D02*
X8660301Y-20572484D01*
X8660301Y-20572484D02*
X8707920Y-20572484D01*
X8707920Y-20572484D02*
X8726968Y-20582008D01*
X8726968Y-20582008D02*
X8736491Y-20591531D01*
X8736491Y-20591531D02*
X8746015Y-20610579D01*
X8746015Y-20610579D02*
X8746015Y-20629627D01*
X8746015Y-20629627D02*
X8736491Y-20658198D01*
X8736491Y-20658198D02*
X8622206Y-20772484D01*
X8622206Y-20772484D02*
X8746015Y-20772484D01*
X8984111Y-20772484D02*
X8984111Y-20572484D01*
X9069825Y-20772484D02*
X9069825Y-20667722D01*
X9069825Y-20667722D02*
X9060301Y-20648674D01*
X9060301Y-20648674D02*
X9041253Y-20639150D01*
X9041253Y-20639150D02*
X9012682Y-20639150D01*
X9012682Y-20639150D02*
X8993634Y-20648674D01*
X8993634Y-20648674D02*
X8984111Y-20658198D01*
X9193634Y-20772484D02*
X9174587Y-20762960D01*
X9174587Y-20762960D02*
X9165063Y-20753436D01*
X9165063Y-20753436D02*
X9155539Y-20734389D01*
X9155539Y-20734389D02*
X9155539Y-20677246D01*
X9155539Y-20677246D02*
X9165063Y-20658198D01*
X9165063Y-20658198D02*
X9174587Y-20648674D01*
X9174587Y-20648674D02*
X9193634Y-20639150D01*
X9193634Y-20639150D02*
X9222206Y-20639150D01*
X9222206Y-20639150D02*
X9241253Y-20648674D01*
X9241253Y-20648674D02*
X9250777Y-20658198D01*
X9250777Y-20658198D02*
X9260301Y-20677246D01*
X9260301Y-20677246D02*
X9260301Y-20734389D01*
X9260301Y-20734389D02*
X9250777Y-20753436D01*
X9250777Y-20753436D02*
X9241253Y-20762960D01*
X9241253Y-20762960D02*
X9222206Y-20772484D01*
X9222206Y-20772484D02*
X9193634Y-20772484D01*
X9374587Y-20772484D02*
X9355539Y-20762960D01*
X9355539Y-20762960D02*
X9346015Y-20743912D01*
X9346015Y-20743912D02*
X9346015Y-20572484D01*
X9526968Y-20762960D02*
X9507920Y-20772484D01*
X9507920Y-20772484D02*
X9469825Y-20772484D01*
X9469825Y-20772484D02*
X9450777Y-20762960D01*
X9450777Y-20762960D02*
X9441253Y-20743912D01*
X9441253Y-20743912D02*
X9441253Y-20667722D01*
X9441253Y-20667722D02*
X9450777Y-20648674D01*
X9450777Y-20648674D02*
X9469825Y-20639150D01*
X9469825Y-20639150D02*
X9507920Y-20639150D01*
X9507920Y-20639150D02*
X9526968Y-20648674D01*
X9526968Y-20648674D02*
X9536492Y-20667722D01*
X9536492Y-20667722D02*
X9536492Y-20686770D01*
X9536492Y-20686770D02*
X9441253Y-20705817D01*
X9612682Y-20762960D02*
X9631730Y-20772484D01*
X9631730Y-20772484D02*
X9669825Y-20772484D01*
X9669825Y-20772484D02*
X9688873Y-20762960D01*
X9688873Y-20762960D02*
X9698396Y-20743912D01*
X9698396Y-20743912D02*
X9698396Y-20734389D01*
X9698396Y-20734389D02*
X9688873Y-20715341D01*
X9688873Y-20715341D02*
X9669825Y-20705817D01*
X9669825Y-20705817D02*
X9641253Y-20705817D01*
X9641253Y-20705817D02*
X9622206Y-20696293D01*
X9622206Y-20696293D02*
X9612682Y-20677246D01*
X9612682Y-20677246D02*
X9612682Y-20667722D01*
X9612682Y-20667722D02*
X9622206Y-20648674D01*
X9622206Y-20648674D02*
X9641253Y-20639150D01*
X9641253Y-20639150D02*
X9669825Y-20639150D01*
X9669825Y-20639150D02*
X9688873Y-20648674D01*
X9765063Y-20848674D02*
X9774587Y-20839150D01*
X9774587Y-20839150D02*
X9793634Y-20810579D01*
X9793634Y-20810579D02*
X9803158Y-20791531D01*
X9803158Y-20791531D02*
X9812682Y-20762960D01*
X9812682Y-20762960D02*
X9822206Y-20715341D01*
X9822206Y-20715341D02*
X9822206Y-20677246D01*
X9822206Y-20677246D02*
X9812682Y-20629627D01*
X9812682Y-20629627D02*
X9803158Y-20601055D01*
X9803158Y-20601055D02*
X9793634Y-20582008D01*
X9793634Y-20582008D02*
X9774587Y-20553436D01*
X9774587Y-20553436D02*
X9765063Y-20543912D01*
D12*
X4935000Y-20890000D02*
X4935000Y-21000000D01*
X4880000Y-20945000D02*
X4990000Y-20945000D01*
D10*
X5355539Y-21036484D02*
X5241253Y-21036484D01*
X5298396Y-21036484D02*
X5298396Y-20836484D01*
X5298396Y-20836484D02*
X5279348Y-20865055D01*
X5279348Y-20865055D02*
X5260301Y-20884103D01*
X5260301Y-20884103D02*
X5241253Y-20893627D01*
X5441253Y-21017436D02*
X5450777Y-21026960D01*
X5450777Y-21026960D02*
X5441253Y-21036484D01*
X5441253Y-21036484D02*
X5431729Y-21026960D01*
X5431729Y-21026960D02*
X5441253Y-21017436D01*
X5441253Y-21017436D02*
X5441253Y-21036484D01*
X5641253Y-21036484D02*
X5526967Y-21036484D01*
X5584110Y-21036484D02*
X5584110Y-20836484D01*
X5584110Y-20836484D02*
X5565063Y-20865055D01*
X5565063Y-20865055D02*
X5546015Y-20884103D01*
X5546015Y-20884103D02*
X5526967Y-20893627D01*
X5765062Y-20836484D02*
X5784110Y-20836484D01*
X5784110Y-20836484D02*
X5803158Y-20846008D01*
X5803158Y-20846008D02*
X5812682Y-20855531D01*
X5812682Y-20855531D02*
X5822205Y-20874579D01*
X5822205Y-20874579D02*
X5831729Y-20912674D01*
X5831729Y-20912674D02*
X5831729Y-20960293D01*
X5831729Y-20960293D02*
X5822205Y-20998389D01*
X5822205Y-20998389D02*
X5812682Y-21017436D01*
X5812682Y-21017436D02*
X5803158Y-21026960D01*
X5803158Y-21026960D02*
X5784110Y-21036484D01*
X5784110Y-21036484D02*
X5765062Y-21036484D01*
X5765062Y-21036484D02*
X5746015Y-21026960D01*
X5746015Y-21026960D02*
X5736491Y-21017436D01*
X5736491Y-21017436D02*
X5726967Y-20998389D01*
X5726967Y-20998389D02*
X5717443Y-20960293D01*
X5717443Y-20960293D02*
X5717443Y-20912674D01*
X5717443Y-20912674D02*
X5726967Y-20874579D01*
X5726967Y-20874579D02*
X5736491Y-20855531D01*
X5736491Y-20855531D02*
X5746015Y-20846008D01*
X5746015Y-20846008D02*
X5765062Y-20836484D01*
X5955539Y-20836484D02*
X5974586Y-20836484D01*
X5974586Y-20836484D02*
X5993634Y-20846008D01*
X5993634Y-20846008D02*
X6003158Y-20855531D01*
X6003158Y-20855531D02*
X6012682Y-20874579D01*
X6012682Y-20874579D02*
X6022205Y-20912674D01*
X6022205Y-20912674D02*
X6022205Y-20960293D01*
X6022205Y-20960293D02*
X6012682Y-20998389D01*
X6012682Y-20998389D02*
X6003158Y-21017436D01*
X6003158Y-21017436D02*
X5993634Y-21026960D01*
X5993634Y-21026960D02*
X5974586Y-21036484D01*
X5974586Y-21036484D02*
X5955539Y-21036484D01*
X5955539Y-21036484D02*
X5936491Y-21026960D01*
X5936491Y-21026960D02*
X5926967Y-21017436D01*
X5926967Y-21017436D02*
X5917443Y-20998389D01*
X5917443Y-20998389D02*
X5907920Y-20960293D01*
X5907920Y-20960293D02*
X5907920Y-20912674D01*
X5907920Y-20912674D02*
X5917443Y-20874579D01*
X5917443Y-20874579D02*
X5926967Y-20855531D01*
X5926967Y-20855531D02*
X5936491Y-20846008D01*
X5936491Y-20846008D02*
X5955539Y-20836484D01*
X6107920Y-21036484D02*
X6107920Y-20903150D01*
X6107920Y-20922198D02*
X6117443Y-20912674D01*
X6117443Y-20912674D02*
X6136491Y-20903150D01*
X6136491Y-20903150D02*
X6165063Y-20903150D01*
X6165063Y-20903150D02*
X6184110Y-20912674D01*
X6184110Y-20912674D02*
X6193634Y-20931722D01*
X6193634Y-20931722D02*
X6193634Y-21036484D01*
X6193634Y-20931722D02*
X6203158Y-20912674D01*
X6203158Y-20912674D02*
X6222205Y-20903150D01*
X6222205Y-20903150D02*
X6250777Y-20903150D01*
X6250777Y-20903150D02*
X6269824Y-20912674D01*
X6269824Y-20912674D02*
X6279348Y-20931722D01*
X6279348Y-20931722D02*
X6279348Y-21036484D01*
X6374586Y-21036484D02*
X6374586Y-20903150D01*
X6374586Y-20922198D02*
X6384110Y-20912674D01*
X6384110Y-20912674D02*
X6403158Y-20903150D01*
X6403158Y-20903150D02*
X6431729Y-20903150D01*
X6431729Y-20903150D02*
X6450777Y-20912674D01*
X6450777Y-20912674D02*
X6460301Y-20931722D01*
X6460301Y-20931722D02*
X6460301Y-21036484D01*
X6460301Y-20931722D02*
X6469824Y-20912674D01*
X6469824Y-20912674D02*
X6488872Y-20903150D01*
X6488872Y-20903150D02*
X6517443Y-20903150D01*
X6517443Y-20903150D02*
X6536491Y-20912674D01*
X6536491Y-20912674D02*
X6546015Y-20931722D01*
X6546015Y-20931722D02*
X6546015Y-21036484D01*
X6936491Y-20826960D02*
X6765063Y-21084103D01*
X7193634Y-20836484D02*
X7212682Y-20836484D01*
X7212682Y-20836484D02*
X7231729Y-20846008D01*
X7231729Y-20846008D02*
X7241253Y-20855531D01*
X7241253Y-20855531D02*
X7250777Y-20874579D01*
X7250777Y-20874579D02*
X7260301Y-20912674D01*
X7260301Y-20912674D02*
X7260301Y-20960293D01*
X7260301Y-20960293D02*
X7250777Y-20998389D01*
X7250777Y-20998389D02*
X7241253Y-21017436D01*
X7241253Y-21017436D02*
X7231729Y-21026960D01*
X7231729Y-21026960D02*
X7212682Y-21036484D01*
X7212682Y-21036484D02*
X7193634Y-21036484D01*
X7193634Y-21036484D02*
X7174586Y-21026960D01*
X7174586Y-21026960D02*
X7165063Y-21017436D01*
X7165063Y-21017436D02*
X7155539Y-20998389D01*
X7155539Y-20998389D02*
X7146015Y-20960293D01*
X7146015Y-20960293D02*
X7146015Y-20912674D01*
X7146015Y-20912674D02*
X7155539Y-20874579D01*
X7155539Y-20874579D02*
X7165063Y-20855531D01*
X7165063Y-20855531D02*
X7174586Y-20846008D01*
X7174586Y-20846008D02*
X7193634Y-20836484D01*
X7346015Y-21017436D02*
X7355539Y-21026960D01*
X7355539Y-21026960D02*
X7346015Y-21036484D01*
X7346015Y-21036484D02*
X7336491Y-21026960D01*
X7336491Y-21026960D02*
X7346015Y-21017436D01*
X7346015Y-21017436D02*
X7346015Y-21036484D01*
X7479348Y-20836484D02*
X7498396Y-20836484D01*
X7498396Y-20836484D02*
X7517444Y-20846008D01*
X7517444Y-20846008D02*
X7526967Y-20855531D01*
X7526967Y-20855531D02*
X7536491Y-20874579D01*
X7536491Y-20874579D02*
X7546015Y-20912674D01*
X7546015Y-20912674D02*
X7546015Y-20960293D01*
X7546015Y-20960293D02*
X7536491Y-20998389D01*
X7536491Y-20998389D02*
X7526967Y-21017436D01*
X7526967Y-21017436D02*
X7517444Y-21026960D01*
X7517444Y-21026960D02*
X7498396Y-21036484D01*
X7498396Y-21036484D02*
X7479348Y-21036484D01*
X7479348Y-21036484D02*
X7460301Y-21026960D01*
X7460301Y-21026960D02*
X7450777Y-21017436D01*
X7450777Y-21017436D02*
X7441253Y-20998389D01*
X7441253Y-20998389D02*
X7431729Y-20960293D01*
X7431729Y-20960293D02*
X7431729Y-20912674D01*
X7431729Y-20912674D02*
X7441253Y-20874579D01*
X7441253Y-20874579D02*
X7450777Y-20855531D01*
X7450777Y-20855531D02*
X7460301Y-20846008D01*
X7460301Y-20846008D02*
X7479348Y-20836484D01*
X7717444Y-20903150D02*
X7717444Y-21036484D01*
X7669825Y-20826960D02*
X7622206Y-20969817D01*
X7622206Y-20969817D02*
X7746015Y-20969817D01*
X7803158Y-20836484D02*
X7926967Y-20836484D01*
X7926967Y-20836484D02*
X7860301Y-20912674D01*
X7860301Y-20912674D02*
X7888872Y-20912674D01*
X7888872Y-20912674D02*
X7907920Y-20922198D01*
X7907920Y-20922198D02*
X7917444Y-20931722D01*
X7917444Y-20931722D02*
X7926967Y-20950770D01*
X7926967Y-20950770D02*
X7926967Y-20998389D01*
X7926967Y-20998389D02*
X7917444Y-21017436D01*
X7917444Y-21017436D02*
X7907920Y-21026960D01*
X7907920Y-21026960D02*
X7888872Y-21036484D01*
X7888872Y-21036484D02*
X7831729Y-21036484D01*
X7831729Y-21036484D02*
X7812682Y-21026960D01*
X7812682Y-21026960D02*
X7803158Y-21017436D01*
X7993634Y-20836484D02*
X8117444Y-20836484D01*
X8117444Y-20836484D02*
X8050777Y-20912674D01*
X8050777Y-20912674D02*
X8079348Y-20912674D01*
X8079348Y-20912674D02*
X8098396Y-20922198D01*
X8098396Y-20922198D02*
X8107920Y-20931722D01*
X8107920Y-20931722D02*
X8117444Y-20950770D01*
X8117444Y-20950770D02*
X8117444Y-20998389D01*
X8117444Y-20998389D02*
X8107920Y-21017436D01*
X8107920Y-21017436D02*
X8098396Y-21026960D01*
X8098396Y-21026960D02*
X8079348Y-21036484D01*
X8079348Y-21036484D02*
X8022206Y-21036484D01*
X8022206Y-21036484D02*
X8003158Y-21026960D01*
X8003158Y-21026960D02*
X7993634Y-21017436D01*
X8193634Y-20836484D02*
X8193634Y-20874579D01*
X8269825Y-20836484D02*
X8269825Y-20874579D01*
X8565063Y-21112674D02*
X8555539Y-21103150D01*
X8555539Y-21103150D02*
X8536491Y-21074579D01*
X8536491Y-21074579D02*
X8526968Y-21055531D01*
X8526968Y-21055531D02*
X8517444Y-21026960D01*
X8517444Y-21026960D02*
X8507920Y-20979341D01*
X8507920Y-20979341D02*
X8507920Y-20941246D01*
X8507920Y-20941246D02*
X8517444Y-20893627D01*
X8517444Y-20893627D02*
X8526968Y-20865055D01*
X8526968Y-20865055D02*
X8536491Y-20846008D01*
X8536491Y-20846008D02*
X8555539Y-20817436D01*
X8555539Y-20817436D02*
X8565063Y-20807912D01*
X8622206Y-20836484D02*
X8746015Y-20836484D01*
X8746015Y-20836484D02*
X8679349Y-20912674D01*
X8679349Y-20912674D02*
X8707920Y-20912674D01*
X8707920Y-20912674D02*
X8726968Y-20922198D01*
X8726968Y-20922198D02*
X8736491Y-20931722D01*
X8736491Y-20931722D02*
X8746015Y-20950770D01*
X8746015Y-20950770D02*
X8746015Y-20998389D01*
X8746015Y-20998389D02*
X8736491Y-21017436D01*
X8736491Y-21017436D02*
X8726968Y-21026960D01*
X8726968Y-21026960D02*
X8707920Y-21036484D01*
X8707920Y-21036484D02*
X8650777Y-21036484D01*
X8650777Y-21036484D02*
X8631730Y-21026960D01*
X8631730Y-21026960D02*
X8622206Y-21017436D01*
X8917444Y-20836484D02*
X8879349Y-20836484D01*
X8879349Y-20836484D02*
X8860301Y-20846008D01*
X8860301Y-20846008D02*
X8850777Y-20855531D01*
X8850777Y-20855531D02*
X8831730Y-20884103D01*
X8831730Y-20884103D02*
X8822206Y-20922198D01*
X8822206Y-20922198D02*
X8822206Y-20998389D01*
X8822206Y-20998389D02*
X8831730Y-21017436D01*
X8831730Y-21017436D02*
X8841253Y-21026960D01*
X8841253Y-21026960D02*
X8860301Y-21036484D01*
X8860301Y-21036484D02*
X8898396Y-21036484D01*
X8898396Y-21036484D02*
X8917444Y-21026960D01*
X8917444Y-21026960D02*
X8926968Y-21017436D01*
X8926968Y-21017436D02*
X8936491Y-20998389D01*
X8936491Y-20998389D02*
X8936491Y-20950770D01*
X8936491Y-20950770D02*
X8926968Y-20931722D01*
X8926968Y-20931722D02*
X8917444Y-20922198D01*
X8917444Y-20922198D02*
X8898396Y-20912674D01*
X8898396Y-20912674D02*
X8860301Y-20912674D01*
X8860301Y-20912674D02*
X8841253Y-20922198D01*
X8841253Y-20922198D02*
X8831730Y-20931722D01*
X8831730Y-20931722D02*
X8822206Y-20950770D01*
X9174587Y-21036484D02*
X9174587Y-20836484D01*
X9260301Y-21036484D02*
X9260301Y-20931722D01*
X9260301Y-20931722D02*
X9250777Y-20912674D01*
X9250777Y-20912674D02*
X9231730Y-20903150D01*
X9231730Y-20903150D02*
X9203158Y-20903150D01*
X9203158Y-20903150D02*
X9184111Y-20912674D01*
X9184111Y-20912674D02*
X9174587Y-20922198D01*
X9384111Y-21036484D02*
X9365063Y-21026960D01*
X9365063Y-21026960D02*
X9355539Y-21017436D01*
X9355539Y-21017436D02*
X9346015Y-20998389D01*
X9346015Y-20998389D02*
X9346015Y-20941246D01*
X9346015Y-20941246D02*
X9355539Y-20922198D01*
X9355539Y-20922198D02*
X9365063Y-20912674D01*
X9365063Y-20912674D02*
X9384111Y-20903150D01*
X9384111Y-20903150D02*
X9412682Y-20903150D01*
X9412682Y-20903150D02*
X9431730Y-20912674D01*
X9431730Y-20912674D02*
X9441253Y-20922198D01*
X9441253Y-20922198D02*
X9450777Y-20941246D01*
X9450777Y-20941246D02*
X9450777Y-20998389D01*
X9450777Y-20998389D02*
X9441253Y-21017436D01*
X9441253Y-21017436D02*
X9431730Y-21026960D01*
X9431730Y-21026960D02*
X9412682Y-21036484D01*
X9412682Y-21036484D02*
X9384111Y-21036484D01*
X9565063Y-21036484D02*
X9546015Y-21026960D01*
X9546015Y-21026960D02*
X9536492Y-21007912D01*
X9536492Y-21007912D02*
X9536492Y-20836484D01*
X9717444Y-21026960D02*
X9698396Y-21036484D01*
X9698396Y-21036484D02*
X9660301Y-21036484D01*
X9660301Y-21036484D02*
X9641253Y-21026960D01*
X9641253Y-21026960D02*
X9631730Y-21007912D01*
X9631730Y-21007912D02*
X9631730Y-20931722D01*
X9631730Y-20931722D02*
X9641253Y-20912674D01*
X9641253Y-20912674D02*
X9660301Y-20903150D01*
X9660301Y-20903150D02*
X9698396Y-20903150D01*
X9698396Y-20903150D02*
X9717444Y-20912674D01*
X9717444Y-20912674D02*
X9726968Y-20931722D01*
X9726968Y-20931722D02*
X9726968Y-20950770D01*
X9726968Y-20950770D02*
X9631730Y-20969817D01*
X9803158Y-21026960D02*
X9822206Y-21036484D01*
X9822206Y-21036484D02*
X9860301Y-21036484D01*
X9860301Y-21036484D02*
X9879349Y-21026960D01*
X9879349Y-21026960D02*
X9888873Y-21007912D01*
X9888873Y-21007912D02*
X9888873Y-20998389D01*
X9888873Y-20998389D02*
X9879349Y-20979341D01*
X9879349Y-20979341D02*
X9860301Y-20969817D01*
X9860301Y-20969817D02*
X9831730Y-20969817D01*
X9831730Y-20969817D02*
X9812682Y-20960293D01*
X9812682Y-20960293D02*
X9803158Y-20941246D01*
X9803158Y-20941246D02*
X9803158Y-20931722D01*
X9803158Y-20931722D02*
X9812682Y-20912674D01*
X9812682Y-20912674D02*
X9831730Y-20903150D01*
X9831730Y-20903150D02*
X9860301Y-20903150D01*
X9860301Y-20903150D02*
X9879349Y-20912674D01*
X9955539Y-21112674D02*
X9965063Y-21103150D01*
X9965063Y-21103150D02*
X9984111Y-21074579D01*
X9984111Y-21074579D02*
X9993634Y-21055531D01*
X9993634Y-21055531D02*
X10003158Y-21026960D01*
X10003158Y-21026960D02*
X10012682Y-20979341D01*
X10012682Y-20979341D02*
X10012682Y-20941246D01*
X10012682Y-20941246D02*
X10003158Y-20893627D01*
X10003158Y-20893627D02*
X9993634Y-20865055D01*
X9993634Y-20865055D02*
X9984111Y-20846008D01*
X9984111Y-20846008D02*
X9965063Y-20817436D01*
X9965063Y-20817436D02*
X9955539Y-20807912D01*
D13*
X4971402Y-21253902D02*
X4971402Y-21164098D01*
X4881598Y-21164098D01*
X4881598Y-21253902D01*
X4971402Y-21253902D01*
D10*
X5355539Y-21300484D02*
X5241253Y-21300484D01*
X5298396Y-21300484D02*
X5298396Y-21100484D01*
X5298396Y-21100484D02*
X5279348Y-21129055D01*
X5279348Y-21129055D02*
X5260301Y-21148103D01*
X5260301Y-21148103D02*
X5241253Y-21157627D01*
X5441253Y-21281436D02*
X5450777Y-21290960D01*
X5450777Y-21290960D02*
X5441253Y-21300484D01*
X5441253Y-21300484D02*
X5431729Y-21290960D01*
X5431729Y-21290960D02*
X5441253Y-21281436D01*
X5441253Y-21281436D02*
X5441253Y-21300484D01*
X5526967Y-21119531D02*
X5536491Y-21110008D01*
X5536491Y-21110008D02*
X5555539Y-21100484D01*
X5555539Y-21100484D02*
X5603158Y-21100484D01*
X5603158Y-21100484D02*
X5622205Y-21110008D01*
X5622205Y-21110008D02*
X5631729Y-21119531D01*
X5631729Y-21119531D02*
X5641253Y-21138579D01*
X5641253Y-21138579D02*
X5641253Y-21157627D01*
X5641253Y-21157627D02*
X5631729Y-21186198D01*
X5631729Y-21186198D02*
X5517444Y-21300484D01*
X5517444Y-21300484D02*
X5641253Y-21300484D01*
X5707920Y-21100484D02*
X5841253Y-21100484D01*
X5841253Y-21100484D02*
X5755539Y-21300484D01*
X5955539Y-21100484D02*
X5974586Y-21100484D01*
X5974586Y-21100484D02*
X5993634Y-21110008D01*
X5993634Y-21110008D02*
X6003158Y-21119531D01*
X6003158Y-21119531D02*
X6012682Y-21138579D01*
X6012682Y-21138579D02*
X6022205Y-21176674D01*
X6022205Y-21176674D02*
X6022205Y-21224293D01*
X6022205Y-21224293D02*
X6012682Y-21262389D01*
X6012682Y-21262389D02*
X6003158Y-21281436D01*
X6003158Y-21281436D02*
X5993634Y-21290960D01*
X5993634Y-21290960D02*
X5974586Y-21300484D01*
X5974586Y-21300484D02*
X5955539Y-21300484D01*
X5955539Y-21300484D02*
X5936491Y-21290960D01*
X5936491Y-21290960D02*
X5926967Y-21281436D01*
X5926967Y-21281436D02*
X5917443Y-21262389D01*
X5917443Y-21262389D02*
X5907920Y-21224293D01*
X5907920Y-21224293D02*
X5907920Y-21176674D01*
X5907920Y-21176674D02*
X5917443Y-21138579D01*
X5917443Y-21138579D02*
X5926967Y-21119531D01*
X5926967Y-21119531D02*
X5936491Y-21110008D01*
X5936491Y-21110008D02*
X5955539Y-21100484D01*
X6107920Y-21300484D02*
X6107920Y-21167150D01*
X6107920Y-21186198D02*
X6117443Y-21176674D01*
X6117443Y-21176674D02*
X6136491Y-21167150D01*
X6136491Y-21167150D02*
X6165063Y-21167150D01*
X6165063Y-21167150D02*
X6184110Y-21176674D01*
X6184110Y-21176674D02*
X6193634Y-21195722D01*
X6193634Y-21195722D02*
X6193634Y-21300484D01*
X6193634Y-21195722D02*
X6203158Y-21176674D01*
X6203158Y-21176674D02*
X6222205Y-21167150D01*
X6222205Y-21167150D02*
X6250777Y-21167150D01*
X6250777Y-21167150D02*
X6269824Y-21176674D01*
X6269824Y-21176674D02*
X6279348Y-21195722D01*
X6279348Y-21195722D02*
X6279348Y-21300484D01*
X6374586Y-21300484D02*
X6374586Y-21167150D01*
X6374586Y-21186198D02*
X6384110Y-21176674D01*
X6384110Y-21176674D02*
X6403158Y-21167150D01*
X6403158Y-21167150D02*
X6431729Y-21167150D01*
X6431729Y-21167150D02*
X6450777Y-21176674D01*
X6450777Y-21176674D02*
X6460301Y-21195722D01*
X6460301Y-21195722D02*
X6460301Y-21300484D01*
X6460301Y-21195722D02*
X6469824Y-21176674D01*
X6469824Y-21176674D02*
X6488872Y-21167150D01*
X6488872Y-21167150D02*
X6517443Y-21167150D01*
X6517443Y-21167150D02*
X6536491Y-21176674D01*
X6536491Y-21176674D02*
X6546015Y-21195722D01*
X6546015Y-21195722D02*
X6546015Y-21300484D01*
X6936491Y-21090960D02*
X6765063Y-21348103D01*
X7193634Y-21100484D02*
X7212682Y-21100484D01*
X7212682Y-21100484D02*
X7231729Y-21110008D01*
X7231729Y-21110008D02*
X7241253Y-21119531D01*
X7241253Y-21119531D02*
X7250777Y-21138579D01*
X7250777Y-21138579D02*
X7260301Y-21176674D01*
X7260301Y-21176674D02*
X7260301Y-21224293D01*
X7260301Y-21224293D02*
X7250777Y-21262389D01*
X7250777Y-21262389D02*
X7241253Y-21281436D01*
X7241253Y-21281436D02*
X7231729Y-21290960D01*
X7231729Y-21290960D02*
X7212682Y-21300484D01*
X7212682Y-21300484D02*
X7193634Y-21300484D01*
X7193634Y-21300484D02*
X7174586Y-21290960D01*
X7174586Y-21290960D02*
X7165063Y-21281436D01*
X7165063Y-21281436D02*
X7155539Y-21262389D01*
X7155539Y-21262389D02*
X7146015Y-21224293D01*
X7146015Y-21224293D02*
X7146015Y-21176674D01*
X7146015Y-21176674D02*
X7155539Y-21138579D01*
X7155539Y-21138579D02*
X7165063Y-21119531D01*
X7165063Y-21119531D02*
X7174586Y-21110008D01*
X7174586Y-21110008D02*
X7193634Y-21100484D01*
X7346015Y-21281436D02*
X7355539Y-21290960D01*
X7355539Y-21290960D02*
X7346015Y-21300484D01*
X7346015Y-21300484D02*
X7336491Y-21290960D01*
X7336491Y-21290960D02*
X7346015Y-21281436D01*
X7346015Y-21281436D02*
X7346015Y-21300484D01*
X7479348Y-21100484D02*
X7498396Y-21100484D01*
X7498396Y-21100484D02*
X7517444Y-21110008D01*
X7517444Y-21110008D02*
X7526967Y-21119531D01*
X7526967Y-21119531D02*
X7536491Y-21138579D01*
X7536491Y-21138579D02*
X7546015Y-21176674D01*
X7546015Y-21176674D02*
X7546015Y-21224293D01*
X7546015Y-21224293D02*
X7536491Y-21262389D01*
X7536491Y-21262389D02*
X7526967Y-21281436D01*
X7526967Y-21281436D02*
X7517444Y-21290960D01*
X7517444Y-21290960D02*
X7498396Y-21300484D01*
X7498396Y-21300484D02*
X7479348Y-21300484D01*
X7479348Y-21300484D02*
X7460301Y-21290960D01*
X7460301Y-21290960D02*
X7450777Y-21281436D01*
X7450777Y-21281436D02*
X7441253Y-21262389D01*
X7441253Y-21262389D02*
X7431729Y-21224293D01*
X7431729Y-21224293D02*
X7431729Y-21176674D01*
X7431729Y-21176674D02*
X7441253Y-21138579D01*
X7441253Y-21138579D02*
X7450777Y-21119531D01*
X7450777Y-21119531D02*
X7460301Y-21110008D01*
X7460301Y-21110008D02*
X7479348Y-21100484D01*
X7726967Y-21100484D02*
X7631729Y-21100484D01*
X7631729Y-21100484D02*
X7622206Y-21195722D01*
X7622206Y-21195722D02*
X7631729Y-21186198D01*
X7631729Y-21186198D02*
X7650777Y-21176674D01*
X7650777Y-21176674D02*
X7698396Y-21176674D01*
X7698396Y-21176674D02*
X7717444Y-21186198D01*
X7717444Y-21186198D02*
X7726967Y-21195722D01*
X7726967Y-21195722D02*
X7736491Y-21214770D01*
X7736491Y-21214770D02*
X7736491Y-21262389D01*
X7736491Y-21262389D02*
X7726967Y-21281436D01*
X7726967Y-21281436D02*
X7717444Y-21290960D01*
X7717444Y-21290960D02*
X7698396Y-21300484D01*
X7698396Y-21300484D02*
X7650777Y-21300484D01*
X7650777Y-21300484D02*
X7631729Y-21290960D01*
X7631729Y-21290960D02*
X7622206Y-21281436D01*
X7860301Y-21100484D02*
X7879348Y-21100484D01*
X7879348Y-21100484D02*
X7898396Y-21110008D01*
X7898396Y-21110008D02*
X7907920Y-21119531D01*
X7907920Y-21119531D02*
X7917444Y-21138579D01*
X7917444Y-21138579D02*
X7926967Y-21176674D01*
X7926967Y-21176674D02*
X7926967Y-21224293D01*
X7926967Y-21224293D02*
X7917444Y-21262389D01*
X7917444Y-21262389D02*
X7907920Y-21281436D01*
X7907920Y-21281436D02*
X7898396Y-21290960D01*
X7898396Y-21290960D02*
X7879348Y-21300484D01*
X7879348Y-21300484D02*
X7860301Y-21300484D01*
X7860301Y-21300484D02*
X7841253Y-21290960D01*
X7841253Y-21290960D02*
X7831729Y-21281436D01*
X7831729Y-21281436D02*
X7822206Y-21262389D01*
X7822206Y-21262389D02*
X7812682Y-21224293D01*
X7812682Y-21224293D02*
X7812682Y-21176674D01*
X7812682Y-21176674D02*
X7822206Y-21138579D01*
X7822206Y-21138579D02*
X7831729Y-21119531D01*
X7831729Y-21119531D02*
X7841253Y-21110008D01*
X7841253Y-21110008D02*
X7860301Y-21100484D01*
X8050777Y-21100484D02*
X8069825Y-21100484D01*
X8069825Y-21100484D02*
X8088872Y-21110008D01*
X8088872Y-21110008D02*
X8098396Y-21119531D01*
X8098396Y-21119531D02*
X8107920Y-21138579D01*
X8107920Y-21138579D02*
X8117444Y-21176674D01*
X8117444Y-21176674D02*
X8117444Y-21224293D01*
X8117444Y-21224293D02*
X8107920Y-21262389D01*
X8107920Y-21262389D02*
X8098396Y-21281436D01*
X8098396Y-21281436D02*
X8088872Y-21290960D01*
X8088872Y-21290960D02*
X8069825Y-21300484D01*
X8069825Y-21300484D02*
X8050777Y-21300484D01*
X8050777Y-21300484D02*
X8031729Y-21290960D01*
X8031729Y-21290960D02*
X8022206Y-21281436D01*
X8022206Y-21281436D02*
X8012682Y-21262389D01*
X8012682Y-21262389D02*
X8003158Y-21224293D01*
X8003158Y-21224293D02*
X8003158Y-21176674D01*
X8003158Y-21176674D02*
X8012682Y-21138579D01*
X8012682Y-21138579D02*
X8022206Y-21119531D01*
X8022206Y-21119531D02*
X8031729Y-21110008D01*
X8031729Y-21110008D02*
X8050777Y-21100484D01*
X8193634Y-21100484D02*
X8193634Y-21138579D01*
X8269825Y-21100484D02*
X8269825Y-21138579D01*
X8565063Y-21376674D02*
X8555539Y-21367150D01*
X8555539Y-21367150D02*
X8536491Y-21338579D01*
X8536491Y-21338579D02*
X8526968Y-21319531D01*
X8526968Y-21319531D02*
X8517444Y-21290960D01*
X8517444Y-21290960D02*
X8507920Y-21243341D01*
X8507920Y-21243341D02*
X8507920Y-21205246D01*
X8507920Y-21205246D02*
X8517444Y-21157627D01*
X8517444Y-21157627D02*
X8526968Y-21129055D01*
X8526968Y-21129055D02*
X8536491Y-21110008D01*
X8536491Y-21110008D02*
X8555539Y-21081436D01*
X8555539Y-21081436D02*
X8565063Y-21071912D01*
X8726968Y-21167150D02*
X8726968Y-21300484D01*
X8679349Y-21090960D02*
X8631730Y-21233817D01*
X8631730Y-21233817D02*
X8755539Y-21233817D01*
X8926968Y-21100484D02*
X8831730Y-21100484D01*
X8831730Y-21100484D02*
X8822206Y-21195722D01*
X8822206Y-21195722D02*
X8831730Y-21186198D01*
X8831730Y-21186198D02*
X8850777Y-21176674D01*
X8850777Y-21176674D02*
X8898396Y-21176674D01*
X8898396Y-21176674D02*
X8917444Y-21186198D01*
X8917444Y-21186198D02*
X8926968Y-21195722D01*
X8926968Y-21195722D02*
X8936491Y-21214770D01*
X8936491Y-21214770D02*
X8936491Y-21262389D01*
X8936491Y-21262389D02*
X8926968Y-21281436D01*
X8926968Y-21281436D02*
X8917444Y-21290960D01*
X8917444Y-21290960D02*
X8898396Y-21300484D01*
X8898396Y-21300484D02*
X8850777Y-21300484D01*
X8850777Y-21300484D02*
X8831730Y-21290960D01*
X8831730Y-21290960D02*
X8822206Y-21281436D01*
X9174587Y-21300484D02*
X9174587Y-21100484D01*
X9260301Y-21300484D02*
X9260301Y-21195722D01*
X9260301Y-21195722D02*
X9250777Y-21176674D01*
X9250777Y-21176674D02*
X9231730Y-21167150D01*
X9231730Y-21167150D02*
X9203158Y-21167150D01*
X9203158Y-21167150D02*
X9184111Y-21176674D01*
X9184111Y-21176674D02*
X9174587Y-21186198D01*
X9384111Y-21300484D02*
X9365063Y-21290960D01*
X9365063Y-21290960D02*
X9355539Y-21281436D01*
X9355539Y-21281436D02*
X9346015Y-21262389D01*
X9346015Y-21262389D02*
X9346015Y-21205246D01*
X9346015Y-21205246D02*
X9355539Y-21186198D01*
X9355539Y-21186198D02*
X9365063Y-21176674D01*
X9365063Y-21176674D02*
X9384111Y-21167150D01*
X9384111Y-21167150D02*
X9412682Y-21167150D01*
X9412682Y-21167150D02*
X9431730Y-21176674D01*
X9431730Y-21176674D02*
X9441253Y-21186198D01*
X9441253Y-21186198D02*
X9450777Y-21205246D01*
X9450777Y-21205246D02*
X9450777Y-21262389D01*
X9450777Y-21262389D02*
X9441253Y-21281436D01*
X9441253Y-21281436D02*
X9431730Y-21290960D01*
X9431730Y-21290960D02*
X9412682Y-21300484D01*
X9412682Y-21300484D02*
X9384111Y-21300484D01*
X9565063Y-21300484D02*
X9546015Y-21290960D01*
X9546015Y-21290960D02*
X9536492Y-21271912D01*
X9536492Y-21271912D02*
X9536492Y-21100484D01*
X9717444Y-21290960D02*
X9698396Y-21300484D01*
X9698396Y-21300484D02*
X9660301Y-21300484D01*
X9660301Y-21300484D02*
X9641253Y-21290960D01*
X9641253Y-21290960D02*
X9631730Y-21271912D01*
X9631730Y-21271912D02*
X9631730Y-21195722D01*
X9631730Y-21195722D02*
X9641253Y-21176674D01*
X9641253Y-21176674D02*
X9660301Y-21167150D01*
X9660301Y-21167150D02*
X9698396Y-21167150D01*
X9698396Y-21167150D02*
X9717444Y-21176674D01*
X9717444Y-21176674D02*
X9726968Y-21195722D01*
X9726968Y-21195722D02*
X9726968Y-21214770D01*
X9726968Y-21214770D02*
X9631730Y-21233817D01*
X9803158Y-21290960D02*
X9822206Y-21300484D01*
X9822206Y-21300484D02*
X9860301Y-21300484D01*
X9860301Y-21300484D02*
X9879349Y-21290960D01*
X9879349Y-21290960D02*
X9888873Y-21271912D01*
X9888873Y-21271912D02*
X9888873Y-21262389D01*
X9888873Y-21262389D02*
X9879349Y-21243341D01*
X9879349Y-21243341D02*
X9860301Y-21233817D01*
X9860301Y-21233817D02*
X9831730Y-21233817D01*
X9831730Y-21233817D02*
X9812682Y-21224293D01*
X9812682Y-21224293D02*
X9803158Y-21205246D01*
X9803158Y-21205246D02*
X9803158Y-21195722D01*
X9803158Y-21195722D02*
X9812682Y-21176674D01*
X9812682Y-21176674D02*
X9831730Y-21167150D01*
X9831730Y-21167150D02*
X9860301Y-21167150D01*
X9860301Y-21167150D02*
X9879349Y-21176674D01*
X9955539Y-21376674D02*
X9965063Y-21367150D01*
X9965063Y-21367150D02*
X9984111Y-21338579D01*
X9984111Y-21338579D02*
X9993634Y-21319531D01*
X9993634Y-21319531D02*
X10003158Y-21290960D01*
X10003158Y-21290960D02*
X10012682Y-21243341D01*
X10012682Y-21243341D02*
X10012682Y-21205246D01*
X10012682Y-21205246D02*
X10003158Y-21157627D01*
X10003158Y-21157627D02*
X9993634Y-21129055D01*
X9993634Y-21129055D02*
X9984111Y-21110008D01*
X9984111Y-21110008D02*
X9965063Y-21081436D01*
X9965063Y-21081436D02*
X9955539Y-21071912D01*
D14*
X4925000Y-21538000D02*
X4990000Y-21473000D01*
X4925000Y-21408000D01*
X4860000Y-21473000D01*
X4925000Y-21538000D01*
D10*
X5355539Y-21564484D02*
X5241253Y-21564484D01*
X5298396Y-21564484D02*
X5298396Y-21364484D01*
X5298396Y-21364484D02*
X5279348Y-21393055D01*
X5279348Y-21393055D02*
X5260301Y-21412103D01*
X5260301Y-21412103D02*
X5241253Y-21421627D01*
X5441253Y-21545436D02*
X5450777Y-21554960D01*
X5450777Y-21554960D02*
X5441253Y-21564484D01*
X5441253Y-21564484D02*
X5431729Y-21554960D01*
X5431729Y-21554960D02*
X5441253Y-21545436D01*
X5441253Y-21545436D02*
X5441253Y-21564484D01*
X5517444Y-21364484D02*
X5641253Y-21364484D01*
X5641253Y-21364484D02*
X5574586Y-21440674D01*
X5574586Y-21440674D02*
X5603158Y-21440674D01*
X5603158Y-21440674D02*
X5622205Y-21450198D01*
X5622205Y-21450198D02*
X5631729Y-21459722D01*
X5631729Y-21459722D02*
X5641253Y-21478770D01*
X5641253Y-21478770D02*
X5641253Y-21526389D01*
X5641253Y-21526389D02*
X5631729Y-21545436D01*
X5631729Y-21545436D02*
X5622205Y-21554960D01*
X5622205Y-21554960D02*
X5603158Y-21564484D01*
X5603158Y-21564484D02*
X5546015Y-21564484D01*
X5546015Y-21564484D02*
X5526967Y-21554960D01*
X5526967Y-21554960D02*
X5517444Y-21545436D01*
X5765062Y-21364484D02*
X5784110Y-21364484D01*
X5784110Y-21364484D02*
X5803158Y-21374008D01*
X5803158Y-21374008D02*
X5812682Y-21383531D01*
X5812682Y-21383531D02*
X5822205Y-21402579D01*
X5822205Y-21402579D02*
X5831729Y-21440674D01*
X5831729Y-21440674D02*
X5831729Y-21488293D01*
X5831729Y-21488293D02*
X5822205Y-21526389D01*
X5822205Y-21526389D02*
X5812682Y-21545436D01*
X5812682Y-21545436D02*
X5803158Y-21554960D01*
X5803158Y-21554960D02*
X5784110Y-21564484D01*
X5784110Y-21564484D02*
X5765062Y-21564484D01*
X5765062Y-21564484D02*
X5746015Y-21554960D01*
X5746015Y-21554960D02*
X5736491Y-21545436D01*
X5736491Y-21545436D02*
X5726967Y-21526389D01*
X5726967Y-21526389D02*
X5717443Y-21488293D01*
X5717443Y-21488293D02*
X5717443Y-21440674D01*
X5717443Y-21440674D02*
X5726967Y-21402579D01*
X5726967Y-21402579D02*
X5736491Y-21383531D01*
X5736491Y-21383531D02*
X5746015Y-21374008D01*
X5746015Y-21374008D02*
X5765062Y-21364484D01*
X5955539Y-21364484D02*
X5974586Y-21364484D01*
X5974586Y-21364484D02*
X5993634Y-21374008D01*
X5993634Y-21374008D02*
X6003158Y-21383531D01*
X6003158Y-21383531D02*
X6012682Y-21402579D01*
X6012682Y-21402579D02*
X6022205Y-21440674D01*
X6022205Y-21440674D02*
X6022205Y-21488293D01*
X6022205Y-21488293D02*
X6012682Y-21526389D01*
X6012682Y-21526389D02*
X6003158Y-21545436D01*
X6003158Y-21545436D02*
X5993634Y-21554960D01*
X5993634Y-21554960D02*
X5974586Y-21564484D01*
X5974586Y-21564484D02*
X5955539Y-21564484D01*
X5955539Y-21564484D02*
X5936491Y-21554960D01*
X5936491Y-21554960D02*
X5926967Y-21545436D01*
X5926967Y-21545436D02*
X5917443Y-21526389D01*
X5917443Y-21526389D02*
X5907920Y-21488293D01*
X5907920Y-21488293D02*
X5907920Y-21440674D01*
X5907920Y-21440674D02*
X5917443Y-21402579D01*
X5917443Y-21402579D02*
X5926967Y-21383531D01*
X5926967Y-21383531D02*
X5936491Y-21374008D01*
X5936491Y-21374008D02*
X5955539Y-21364484D01*
X6107920Y-21564484D02*
X6107920Y-21431150D01*
X6107920Y-21450198D02*
X6117443Y-21440674D01*
X6117443Y-21440674D02*
X6136491Y-21431150D01*
X6136491Y-21431150D02*
X6165063Y-21431150D01*
X6165063Y-21431150D02*
X6184110Y-21440674D01*
X6184110Y-21440674D02*
X6193634Y-21459722D01*
X6193634Y-21459722D02*
X6193634Y-21564484D01*
X6193634Y-21459722D02*
X6203158Y-21440674D01*
X6203158Y-21440674D02*
X6222205Y-21431150D01*
X6222205Y-21431150D02*
X6250777Y-21431150D01*
X6250777Y-21431150D02*
X6269824Y-21440674D01*
X6269824Y-21440674D02*
X6279348Y-21459722D01*
X6279348Y-21459722D02*
X6279348Y-21564484D01*
X6374586Y-21564484D02*
X6374586Y-21431150D01*
X6374586Y-21450198D02*
X6384110Y-21440674D01*
X6384110Y-21440674D02*
X6403158Y-21431150D01*
X6403158Y-21431150D02*
X6431729Y-21431150D01*
X6431729Y-21431150D02*
X6450777Y-21440674D01*
X6450777Y-21440674D02*
X6460301Y-21459722D01*
X6460301Y-21459722D02*
X6460301Y-21564484D01*
X6460301Y-21459722D02*
X6469824Y-21440674D01*
X6469824Y-21440674D02*
X6488872Y-21431150D01*
X6488872Y-21431150D02*
X6517443Y-21431150D01*
X6517443Y-21431150D02*
X6536491Y-21440674D01*
X6536491Y-21440674D02*
X6546015Y-21459722D01*
X6546015Y-21459722D02*
X6546015Y-21564484D01*
X6936491Y-21354960D02*
X6765063Y-21612103D01*
X7193634Y-21364484D02*
X7212682Y-21364484D01*
X7212682Y-21364484D02*
X7231729Y-21374008D01*
X7231729Y-21374008D02*
X7241253Y-21383531D01*
X7241253Y-21383531D02*
X7250777Y-21402579D01*
X7250777Y-21402579D02*
X7260301Y-21440674D01*
X7260301Y-21440674D02*
X7260301Y-21488293D01*
X7260301Y-21488293D02*
X7250777Y-21526389D01*
X7250777Y-21526389D02*
X7241253Y-21545436D01*
X7241253Y-21545436D02*
X7231729Y-21554960D01*
X7231729Y-21554960D02*
X7212682Y-21564484D01*
X7212682Y-21564484D02*
X7193634Y-21564484D01*
X7193634Y-21564484D02*
X7174586Y-21554960D01*
X7174586Y-21554960D02*
X7165063Y-21545436D01*
X7165063Y-21545436D02*
X7155539Y-21526389D01*
X7155539Y-21526389D02*
X7146015Y-21488293D01*
X7146015Y-21488293D02*
X7146015Y-21440674D01*
X7146015Y-21440674D02*
X7155539Y-21402579D01*
X7155539Y-21402579D02*
X7165063Y-21383531D01*
X7165063Y-21383531D02*
X7174586Y-21374008D01*
X7174586Y-21374008D02*
X7193634Y-21364484D01*
X7346015Y-21545436D02*
X7355539Y-21554960D01*
X7355539Y-21554960D02*
X7346015Y-21564484D01*
X7346015Y-21564484D02*
X7336491Y-21554960D01*
X7336491Y-21554960D02*
X7346015Y-21545436D01*
X7346015Y-21545436D02*
X7346015Y-21564484D01*
X7479348Y-21364484D02*
X7498396Y-21364484D01*
X7498396Y-21364484D02*
X7517444Y-21374008D01*
X7517444Y-21374008D02*
X7526967Y-21383531D01*
X7526967Y-21383531D02*
X7536491Y-21402579D01*
X7536491Y-21402579D02*
X7546015Y-21440674D01*
X7546015Y-21440674D02*
X7546015Y-21488293D01*
X7546015Y-21488293D02*
X7536491Y-21526389D01*
X7536491Y-21526389D02*
X7526967Y-21545436D01*
X7526967Y-21545436D02*
X7517444Y-21554960D01*
X7517444Y-21554960D02*
X7498396Y-21564484D01*
X7498396Y-21564484D02*
X7479348Y-21564484D01*
X7479348Y-21564484D02*
X7460301Y-21554960D01*
X7460301Y-21554960D02*
X7450777Y-21545436D01*
X7450777Y-21545436D02*
X7441253Y-21526389D01*
X7441253Y-21526389D02*
X7431729Y-21488293D01*
X7431729Y-21488293D02*
X7431729Y-21440674D01*
X7431729Y-21440674D02*
X7441253Y-21402579D01*
X7441253Y-21402579D02*
X7450777Y-21383531D01*
X7450777Y-21383531D02*
X7460301Y-21374008D01*
X7460301Y-21374008D02*
X7479348Y-21364484D01*
X7726967Y-21364484D02*
X7631729Y-21364484D01*
X7631729Y-21364484D02*
X7622206Y-21459722D01*
X7622206Y-21459722D02*
X7631729Y-21450198D01*
X7631729Y-21450198D02*
X7650777Y-21440674D01*
X7650777Y-21440674D02*
X7698396Y-21440674D01*
X7698396Y-21440674D02*
X7717444Y-21450198D01*
X7717444Y-21450198D02*
X7726967Y-21459722D01*
X7726967Y-21459722D02*
X7736491Y-21478770D01*
X7736491Y-21478770D02*
X7736491Y-21526389D01*
X7736491Y-21526389D02*
X7726967Y-21545436D01*
X7726967Y-21545436D02*
X7717444Y-21554960D01*
X7717444Y-21554960D02*
X7698396Y-21564484D01*
X7698396Y-21564484D02*
X7650777Y-21564484D01*
X7650777Y-21564484D02*
X7631729Y-21554960D01*
X7631729Y-21554960D02*
X7622206Y-21545436D01*
X7926967Y-21564484D02*
X7812682Y-21564484D01*
X7869825Y-21564484D02*
X7869825Y-21364484D01*
X7869825Y-21364484D02*
X7850777Y-21393055D01*
X7850777Y-21393055D02*
X7831729Y-21412103D01*
X7831729Y-21412103D02*
X7812682Y-21421627D01*
X8003158Y-21383531D02*
X8012682Y-21374008D01*
X8012682Y-21374008D02*
X8031729Y-21364484D01*
X8031729Y-21364484D02*
X8079348Y-21364484D01*
X8079348Y-21364484D02*
X8098396Y-21374008D01*
X8098396Y-21374008D02*
X8107920Y-21383531D01*
X8107920Y-21383531D02*
X8117444Y-21402579D01*
X8117444Y-21402579D02*
X8117444Y-21421627D01*
X8117444Y-21421627D02*
X8107920Y-21450198D01*
X8107920Y-21450198D02*
X7993634Y-21564484D01*
X7993634Y-21564484D02*
X8117444Y-21564484D01*
X8193634Y-21364484D02*
X8193634Y-21402579D01*
X8269825Y-21364484D02*
X8269825Y-21402579D01*
X8565063Y-21640674D02*
X8555539Y-21631150D01*
X8555539Y-21631150D02*
X8536491Y-21602579D01*
X8536491Y-21602579D02*
X8526968Y-21583531D01*
X8526968Y-21583531D02*
X8517444Y-21554960D01*
X8517444Y-21554960D02*
X8507920Y-21507341D01*
X8507920Y-21507341D02*
X8507920Y-21469246D01*
X8507920Y-21469246D02*
X8517444Y-21421627D01*
X8517444Y-21421627D02*
X8526968Y-21393055D01*
X8526968Y-21393055D02*
X8536491Y-21374008D01*
X8536491Y-21374008D02*
X8555539Y-21345436D01*
X8555539Y-21345436D02*
X8565063Y-21335912D01*
X8631730Y-21383531D02*
X8641253Y-21374008D01*
X8641253Y-21374008D02*
X8660301Y-21364484D01*
X8660301Y-21364484D02*
X8707920Y-21364484D01*
X8707920Y-21364484D02*
X8726968Y-21374008D01*
X8726968Y-21374008D02*
X8736491Y-21383531D01*
X8736491Y-21383531D02*
X8746015Y-21402579D01*
X8746015Y-21402579D02*
X8746015Y-21421627D01*
X8746015Y-21421627D02*
X8736491Y-21450198D01*
X8736491Y-21450198D02*
X8622206Y-21564484D01*
X8622206Y-21564484D02*
X8746015Y-21564484D01*
X8984111Y-21564484D02*
X8984111Y-21364484D01*
X9069825Y-21564484D02*
X9069825Y-21459722D01*
X9069825Y-21459722D02*
X9060301Y-21440674D01*
X9060301Y-21440674D02*
X9041253Y-21431150D01*
X9041253Y-21431150D02*
X9012682Y-21431150D01*
X9012682Y-21431150D02*
X8993634Y-21440674D01*
X8993634Y-21440674D02*
X8984111Y-21450198D01*
X9193634Y-21564484D02*
X9174587Y-21554960D01*
X9174587Y-21554960D02*
X9165063Y-21545436D01*
X9165063Y-21545436D02*
X9155539Y-21526389D01*
X9155539Y-21526389D02*
X9155539Y-21469246D01*
X9155539Y-21469246D02*
X9165063Y-21450198D01*
X9165063Y-21450198D02*
X9174587Y-21440674D01*
X9174587Y-21440674D02*
X9193634Y-21431150D01*
X9193634Y-21431150D02*
X9222206Y-21431150D01*
X9222206Y-21431150D02*
X9241253Y-21440674D01*
X9241253Y-21440674D02*
X9250777Y-21450198D01*
X9250777Y-21450198D02*
X9260301Y-21469246D01*
X9260301Y-21469246D02*
X9260301Y-21526389D01*
X9260301Y-21526389D02*
X9250777Y-21545436D01*
X9250777Y-21545436D02*
X9241253Y-21554960D01*
X9241253Y-21554960D02*
X9222206Y-21564484D01*
X9222206Y-21564484D02*
X9193634Y-21564484D01*
X9374587Y-21564484D02*
X9355539Y-21554960D01*
X9355539Y-21554960D02*
X9346015Y-21535912D01*
X9346015Y-21535912D02*
X9346015Y-21364484D01*
X9526968Y-21554960D02*
X9507920Y-21564484D01*
X9507920Y-21564484D02*
X9469825Y-21564484D01*
X9469825Y-21564484D02*
X9450777Y-21554960D01*
X9450777Y-21554960D02*
X9441253Y-21535912D01*
X9441253Y-21535912D02*
X9441253Y-21459722D01*
X9441253Y-21459722D02*
X9450777Y-21440674D01*
X9450777Y-21440674D02*
X9469825Y-21431150D01*
X9469825Y-21431150D02*
X9507920Y-21431150D01*
X9507920Y-21431150D02*
X9526968Y-21440674D01*
X9526968Y-21440674D02*
X9536492Y-21459722D01*
X9536492Y-21459722D02*
X9536492Y-21478770D01*
X9536492Y-21478770D02*
X9441253Y-21497817D01*
X9612682Y-21554960D02*
X9631730Y-21564484D01*
X9631730Y-21564484D02*
X9669825Y-21564484D01*
X9669825Y-21564484D02*
X9688873Y-21554960D01*
X9688873Y-21554960D02*
X9698396Y-21535912D01*
X9698396Y-21535912D02*
X9698396Y-21526389D01*
X9698396Y-21526389D02*
X9688873Y-21507341D01*
X9688873Y-21507341D02*
X9669825Y-21497817D01*
X9669825Y-21497817D02*
X9641253Y-21497817D01*
X9641253Y-21497817D02*
X9622206Y-21488293D01*
X9622206Y-21488293D02*
X9612682Y-21469246D01*
X9612682Y-21469246D02*
X9612682Y-21459722D01*
X9612682Y-21459722D02*
X9622206Y-21440674D01*
X9622206Y-21440674D02*
X9641253Y-21431150D01*
X9641253Y-21431150D02*
X9669825Y-21431150D01*
X9669825Y-21431150D02*
X9688873Y-21440674D01*
X9765063Y-21640674D02*
X9774587Y-21631150D01*
X9774587Y-21631150D02*
X9793634Y-21602579D01*
X9793634Y-21602579D02*
X9803158Y-21583531D01*
X9803158Y-21583531D02*
X9812682Y-21554960D01*
X9812682Y-21554960D02*
X9822206Y-21507341D01*
X9822206Y-21507341D02*
X9822206Y-21469246D01*
X9822206Y-21469246D02*
X9812682Y-21421627D01*
X9812682Y-21421627D02*
X9803158Y-21393055D01*
X9803158Y-21393055D02*
X9793634Y-21374008D01*
X9793634Y-21374008D02*
X9774587Y-21345436D01*
X9774587Y-21345436D02*
X9765063Y-21335912D01*
M02*
