G04 #@! TF.GenerationSoftware,KiCad,Pcbnew,7.0.9*
G04 #@! TF.CreationDate,2023-12-17T00:29:00+09:00*
G04 #@! TF.ProjectId,ergoSHIFT-rev1-kicad,6572676f-5348-4494-9654-2d726576312d,rev.1*
G04 #@! TF.SameCoordinates,Original*
G04 #@! TF.FileFunction,Soldermask,Top*
G04 #@! TF.FilePolarity,Negative*
%FSLAX46Y46*%
G04 Gerber Fmt 4.6, Leading zero omitted, Abs format (unit mm)*
G04 Created by KiCad (PCBNEW 7.0.9) date 2023-12-17 00:29:00*
%MOMM*%
%LPD*%
G01*
G04 APERTURE LIST*
%ADD10C,1.701800*%
%ADD11C,3.000000*%
%ADD12C,3.429000*%
%ADD13C,2.032000*%
%ADD14R,2.600000X2.600000*%
%ADD15C,1.524000*%
%ADD16C,1.800000*%
%ADD17R,1.600000X1.600000*%
%ADD18C,1.600000*%
%ADD19C,2.000000*%
G04 APERTURE END LIST*
D10*
X200250000Y-90880000D03*
D11*
X200750000Y-87130000D03*
X205750000Y-84930000D03*
D12*
X205750000Y-90880000D03*
D11*
X210750000Y-87130000D03*
D10*
X211250000Y-90880000D03*
D13*
X205750000Y-96780000D03*
D14*
X209025000Y-84930000D03*
X197475000Y-87130000D03*
D13*
X200750000Y-94680000D03*
X210750000Y-94680000D03*
D10*
X177040000Y-71750000D03*
D11*
X177540000Y-68000000D03*
X182540000Y-65800000D03*
D12*
X182540000Y-71750000D03*
D11*
X187540000Y-68000000D03*
D10*
X188040000Y-71750000D03*
D13*
X182540000Y-77650000D03*
D14*
X185815000Y-65800000D03*
X174265000Y-68000000D03*
D13*
X177540000Y-75550000D03*
X187540000Y-75550000D03*
D10*
X172370000Y-132370000D03*
D11*
X172870000Y-128620000D03*
X177870000Y-126420000D03*
D12*
X177870000Y-132370000D03*
D11*
X182870000Y-128620000D03*
D10*
X183370000Y-132370000D03*
D13*
X177870000Y-138270000D03*
D14*
X181145000Y-126420000D03*
X169595000Y-128620000D03*
D13*
X172870000Y-136170000D03*
X182870000Y-136170000D03*
D10*
X230720000Y-116390000D03*
D11*
X231220000Y-112640000D03*
X236220000Y-110440000D03*
D12*
X236220000Y-116390000D03*
D11*
X241220000Y-112640000D03*
D10*
X241720000Y-116390000D03*
D13*
X236220000Y-122290000D03*
D14*
X239495000Y-110440000D03*
X227945000Y-112640000D03*
D13*
X231220000Y-120190000D03*
X241220000Y-120190000D03*
D15*
X205200000Y-53750000D03*
X210200000Y-53750000D03*
D16*
X204100000Y-56150000D03*
X211300000Y-56150000D03*
D17*
X120880000Y-54300000D03*
D18*
X120880000Y-56840000D03*
X120880000Y-59380000D03*
X120880000Y-61920000D03*
X120880000Y-64460000D03*
X120880000Y-67000000D03*
X120880000Y-69540000D03*
X120880000Y-72080000D03*
X120880000Y-74620000D03*
X120880000Y-77160000D03*
X120880000Y-79700000D03*
X120880000Y-82240000D03*
X136120000Y-82240000D03*
X136120000Y-79700000D03*
X136120000Y-77160000D03*
X136120000Y-74620000D03*
X136120000Y-72080000D03*
X136120000Y-69540000D03*
X136120000Y-67000000D03*
X136120000Y-64460000D03*
X136120000Y-61920000D03*
X136120000Y-59380000D03*
X136120000Y-56840000D03*
X136120000Y-54300000D03*
D10*
X120320000Y-126260000D03*
D11*
X120820000Y-122510000D03*
X125820000Y-120310000D03*
D12*
X125820000Y-126260000D03*
D11*
X130820000Y-122510000D03*
D10*
X131320000Y-126260000D03*
D13*
X125820000Y-132160000D03*
D14*
X129095000Y-120310000D03*
X117545000Y-122510000D03*
D13*
X120820000Y-130060000D03*
X130820000Y-130060000D03*
D19*
X82250000Y-59750000D03*
X82250000Y-66250000D03*
X77750000Y-59750000D03*
X77750000Y-66250000D03*
D10*
X256920000Y-101110000D03*
D11*
X257420000Y-97360000D03*
X262420000Y-95160000D03*
D12*
X262420000Y-101110000D03*
D11*
X267420000Y-97360000D03*
D10*
X267920000Y-101110000D03*
D13*
X262420000Y-107010000D03*
D14*
X265695000Y-95160000D03*
X254145000Y-97360000D03*
D13*
X257420000Y-104910000D03*
X267420000Y-104910000D03*
D10*
X145390000Y-143810000D03*
D11*
X145890000Y-140060000D03*
X150890000Y-137860000D03*
D12*
X150890000Y-143810000D03*
D11*
X155890000Y-140060000D03*
D10*
X156390000Y-143810000D03*
D13*
X150890000Y-149710000D03*
D14*
X154165000Y-137860000D03*
X142615000Y-140060000D03*
D13*
X145890000Y-147610000D03*
X155890000Y-147610000D03*
D10*
X147550000Y-113700000D03*
D11*
X148050000Y-109950000D03*
X153050000Y-107750000D03*
D12*
X153050000Y-113700000D03*
D11*
X158050000Y-109950000D03*
D10*
X158550000Y-113700000D03*
D13*
X153050000Y-119600000D03*
D14*
X156325000Y-107750000D03*
X144775000Y-109950000D03*
D13*
X148050000Y-117500000D03*
X158050000Y-117500000D03*
D10*
X101720000Y-170470000D03*
D11*
X102220000Y-166720000D03*
X107220000Y-164520000D03*
D12*
X107220000Y-170470000D03*
D11*
X112220000Y-166720000D03*
D10*
X112720000Y-170470000D03*
D13*
X107220000Y-176370000D03*
D14*
X110495000Y-164520000D03*
X98945000Y-166720000D03*
D13*
X102220000Y-174270000D03*
X112220000Y-174270000D03*
D10*
X173900000Y-102290000D03*
D11*
X174400000Y-98540000D03*
X179400000Y-96340000D03*
D12*
X179400000Y-102290000D03*
D11*
X184400000Y-98540000D03*
D10*
X184900000Y-102290000D03*
D13*
X179400000Y-108190000D03*
D14*
X182675000Y-96340000D03*
X171125000Y-98540000D03*
D13*
X174400000Y-106090000D03*
X184400000Y-106090000D03*
D10*
X199350000Y-120930000D03*
D11*
X199850000Y-117180000D03*
X204850000Y-114980000D03*
D12*
X204850000Y-120930000D03*
D11*
X209850000Y-117180000D03*
D10*
X210350000Y-120930000D03*
D13*
X204850000Y-126830000D03*
D14*
X208125000Y-114980000D03*
X196575000Y-117180000D03*
D13*
X199850000Y-124730000D03*
X209850000Y-124730000D03*
D10*
X133290000Y-178670000D03*
D11*
X133790000Y-174920000D03*
X138790000Y-172720000D03*
D12*
X138790000Y-178670000D03*
D11*
X143790000Y-174920000D03*
D10*
X144290000Y-178670000D03*
D13*
X138790000Y-184570000D03*
D14*
X142065000Y-172720000D03*
X130515000Y-174920000D03*
D13*
X133790000Y-182470000D03*
X143790000Y-182470000D03*
D19*
X92250000Y-59750000D03*
X92250000Y-66250000D03*
X87750000Y-59750000D03*
X87750000Y-66250000D03*
X72250000Y-59750000D03*
X72250000Y-66250000D03*
X67750000Y-59750000D03*
X67750000Y-66250000D03*
D10*
X229350000Y-86940000D03*
D11*
X229850000Y-83190000D03*
X234850000Y-80990000D03*
D12*
X234850000Y-86940000D03*
D11*
X239850000Y-83190000D03*
D10*
X240350000Y-86940000D03*
D13*
X234850000Y-92840000D03*
D14*
X238125000Y-80990000D03*
X226575000Y-83190000D03*
D13*
X229850000Y-90740000D03*
X239850000Y-90740000D03*
D10*
X94870000Y-112750000D03*
D11*
X95370000Y-109000000D03*
X100370000Y-106800000D03*
D12*
X100370000Y-112750000D03*
D11*
X105370000Y-109000000D03*
D10*
X105870000Y-112750000D03*
D13*
X100370000Y-118650000D03*
D14*
X103645000Y-106800000D03*
X92095000Y-109000000D03*
D13*
X95370000Y-116550000D03*
X105370000Y-116550000D03*
D10*
X66250000Y-112750000D03*
D11*
X66750000Y-109000000D03*
X71750000Y-106800000D03*
D12*
X71750000Y-112750000D03*
D11*
X76750000Y-109000000D03*
D10*
X77250000Y-112750000D03*
D13*
X71750000Y-118650000D03*
D14*
X75025000Y-106800000D03*
X63475000Y-109000000D03*
D13*
X66750000Y-116550000D03*
X76750000Y-116550000D03*
M02*
