%TF.GenerationSoftware,KiCad,Pcbnew,7.0.9*%
%TF.CreationDate,2023-12-17T00:29:13+09:00*%
%TF.ProjectId,ergoSHIFT-rev1-kicad,6572676f-5348-4494-9654-2d726576312d,rev.1*%
%TF.SameCoordinates,Original*%
%TF.FileFunction,Drillmap*%
%TF.FilePolarity,Positive*%
%FSLAX45Y45*%
G04 Gerber Fmt 4.5, Leading zero omitted, Abs format (unit mm)*
G04 Created by KiCad (PCBNEW 7.0.9) date 2023-12-17 00:29:13*
%MOMM*%
%LPD*%
G01*
G04 APERTURE LIST*
%ADD10C,0.200000*%
%ADD11C,0.170180*%
%ADD12C,0.300000*%
%ADD13C,0.342900*%
G04 APERTURE END LIST*
D10*
X13460000Y-5150000D02*
X13460000Y-8268000D01*
X13610000Y-5000000D02*
G75*
G03*
X13460000Y-5150000I0J-150000D01*
G01*
X15660000Y-19012000D02*
G75*
G03*
X15660000Y-19012000I-160000J0D01*
G01*
X5915000Y-5755000D02*
G75*
G03*
X5915000Y-5755000I-160000J0D01*
G01*
X27917000Y-19767000D02*
G75*
G03*
X28317000Y-19367000I0J400000D01*
G01*
X5000000Y-5400000D02*
X5000000Y-19367000D01*
X12240000Y-5150000D02*
X12240000Y-8268000D01*
X12390000Y-8418000D02*
X13310000Y-8418000D01*
X12240000Y-5150000D02*
G75*
G03*
X12090000Y-5000000I-150000J0D01*
G01*
X5400000Y-5000000D02*
X12090000Y-5000000D01*
X13610000Y-5000000D02*
X27917000Y-5000000D01*
X27722000Y-5755000D02*
G75*
G03*
X27722000Y-5755000I-160000J0D01*
G01*
X27722000Y-19012000D02*
G75*
G03*
X27722000Y-19012000I-160000J0D01*
G01*
X5400000Y-5000000D02*
G75*
G03*
X5000000Y-5400000I0J-400000D01*
G01*
X13310000Y-8418000D02*
G75*
G03*
X13460000Y-8268000I0J150000D01*
G01*
X5915000Y-19012000D02*
G75*
G03*
X5915000Y-19012000I-160000J0D01*
G01*
X5000000Y-19367000D02*
G75*
G03*
X5400000Y-19767000I400000J0D01*
G01*
X12240000Y-8268000D02*
G75*
G03*
X12390000Y-8418000I150000J0D01*
G01*
X13174000Y-14858000D02*
G75*
G03*
X13174000Y-14858000I-160000J0D01*
G01*
X5400000Y-19767000D02*
X27917000Y-19767000D01*
X28317000Y-5400000D02*
X28317000Y-19367000D01*
X15660000Y-5755000D02*
G75*
G03*
X15660000Y-5755000I-160000J0D01*
G01*
X28317000Y-5400000D02*
G75*
G03*
X27917000Y-5000000I-400000J0D01*
G01*
D11*
X6539910Y-11189910D02*
X6710090Y-11360090D01*
X6710090Y-11189910D02*
X6539910Y-11360090D01*
X7639910Y-11189910D02*
X7810090Y-11360090D01*
X7810090Y-11189910D02*
X7639910Y-11360090D01*
X9401910Y-11189910D02*
X9572090Y-11360090D01*
X9572090Y-11189910D02*
X9401910Y-11360090D01*
X10086910Y-16961910D02*
X10257090Y-17132090D01*
X10257090Y-16961910D02*
X10086910Y-17132090D01*
X10501910Y-11189910D02*
X10672090Y-11360090D01*
X10672090Y-11189910D02*
X10501910Y-11360090D01*
X11186910Y-16961910D02*
X11357090Y-17132090D01*
X11357090Y-16961910D02*
X11186910Y-17132090D01*
X11946910Y-12540910D02*
X12117090Y-12711090D01*
X12117090Y-12540910D02*
X11946910Y-12711090D01*
X13046910Y-12540910D02*
X13217090Y-12711090D01*
X13217090Y-12540910D02*
X13046910Y-12711090D01*
X13243910Y-17781910D02*
X13414090Y-17952090D01*
X13414090Y-17781910D02*
X13243910Y-17952090D01*
X14343910Y-17781910D02*
X14514090Y-17952090D01*
X14514090Y-17781910D02*
X14343910Y-17952090D01*
X14453910Y-14295910D02*
X14624090Y-14466090D01*
X14624090Y-14295910D02*
X14453910Y-14466090D01*
X14669910Y-11284910D02*
X14840090Y-11455090D01*
X14840090Y-11284910D02*
X14669910Y-11455090D01*
X15553910Y-14295910D02*
X15724090Y-14466090D01*
X15724090Y-14295910D02*
X15553910Y-14466090D01*
X15769910Y-11284910D02*
X15940090Y-11455090D01*
X15940090Y-11284910D02*
X15769910Y-11455090D01*
X17151910Y-13151910D02*
X17322090Y-13322090D01*
X17322090Y-13151910D02*
X17151910Y-13322090D01*
X17304910Y-10143910D02*
X17475090Y-10314090D01*
X17475090Y-10143910D02*
X17304910Y-10314090D01*
X17618910Y-7089910D02*
X17789090Y-7260090D01*
X17789090Y-7089910D02*
X17618910Y-7260090D01*
X18251910Y-13151910D02*
X18422090Y-13322090D01*
X18422090Y-13151910D02*
X18251910Y-13322090D01*
X18404910Y-10143910D02*
X18575090Y-10314090D01*
X18575090Y-10143910D02*
X18404910Y-10314090D01*
X18718910Y-7089910D02*
X18889090Y-7260090D01*
X18889090Y-7089910D02*
X18718910Y-7260090D01*
X19849910Y-12007910D02*
X20020090Y-12178090D01*
X20020090Y-12007910D02*
X19849910Y-12178090D01*
X19939910Y-9002910D02*
X20110090Y-9173090D01*
X20110090Y-9002910D02*
X19939910Y-9173090D01*
X20949910Y-12007910D02*
X21120090Y-12178090D01*
X21120090Y-12007910D02*
X20949910Y-12178090D01*
X21039910Y-9002910D02*
X21210090Y-9173090D01*
X21210090Y-9002910D02*
X21039910Y-9173090D01*
X22849910Y-8608910D02*
X23020090Y-8779090D01*
X23020090Y-8608910D02*
X22849910Y-8779090D01*
X22986910Y-11553910D02*
X23157090Y-11724090D01*
X23157090Y-11553910D02*
X22986910Y-11724090D01*
X23949910Y-8608910D02*
X24120090Y-8779090D01*
X24120090Y-8608910D02*
X23949910Y-8779090D01*
X24086910Y-11553910D02*
X24257090Y-11724090D01*
X24257090Y-11553910D02*
X24086910Y-11724090D01*
X25606910Y-10025910D02*
X25777090Y-10196090D01*
X25777090Y-10025910D02*
X25606910Y-10196090D01*
X26706910Y-10025910D02*
X26877090Y-10196090D01*
X26877090Y-10025910D02*
X26706910Y-10196090D01*
D12*
X6825000Y-10900000D02*
G75*
G03*
X6825000Y-10900000I-150000J0D01*
G01*
X7325000Y-10680000D02*
G75*
G03*
X7325000Y-10680000I-150000J0D01*
G01*
X7825000Y-10900000D02*
G75*
G03*
X7825000Y-10900000I-150000J0D01*
G01*
X9687000Y-10900000D02*
G75*
G03*
X9687000Y-10900000I-150000J0D01*
G01*
X10187000Y-10680000D02*
G75*
G03*
X10187000Y-10680000I-150000J0D01*
G01*
X10372000Y-16672000D02*
G75*
G03*
X10372000Y-16672000I-150000J0D01*
G01*
X10687000Y-10900000D02*
G75*
G03*
X10687000Y-10900000I-150000J0D01*
G01*
X10872000Y-16452000D02*
G75*
G03*
X10872000Y-16452000I-150000J0D01*
G01*
X11372000Y-16672000D02*
G75*
G03*
X11372000Y-16672000I-150000J0D01*
G01*
X12232000Y-12251000D02*
G75*
G03*
X12232000Y-12251000I-150000J0D01*
G01*
X12732000Y-12031000D02*
G75*
G03*
X12732000Y-12031000I-150000J0D01*
G01*
X13232000Y-12251000D02*
G75*
G03*
X13232000Y-12251000I-150000J0D01*
G01*
X13529000Y-17492000D02*
G75*
G03*
X13529000Y-17492000I-150000J0D01*
G01*
X14029000Y-17272000D02*
G75*
G03*
X14029000Y-17272000I-150000J0D01*
G01*
X14529000Y-17492000D02*
G75*
G03*
X14529000Y-17492000I-150000J0D01*
G01*
X14739000Y-14006000D02*
G75*
G03*
X14739000Y-14006000I-150000J0D01*
G01*
X14955000Y-10995000D02*
G75*
G03*
X14955000Y-10995000I-150000J0D01*
G01*
X15239000Y-13786000D02*
G75*
G03*
X15239000Y-13786000I-150000J0D01*
G01*
X15455000Y-10775000D02*
G75*
G03*
X15455000Y-10775000I-150000J0D01*
G01*
X15739000Y-14006000D02*
G75*
G03*
X15739000Y-14006000I-150000J0D01*
G01*
X15955000Y-10995000D02*
G75*
G03*
X15955000Y-10995000I-150000J0D01*
G01*
X17437000Y-12862000D02*
G75*
G03*
X17437000Y-12862000I-150000J0D01*
G01*
X17590000Y-9854000D02*
G75*
G03*
X17590000Y-9854000I-150000J0D01*
G01*
X17904000Y-6800000D02*
G75*
G03*
X17904000Y-6800000I-150000J0D01*
G01*
X17937000Y-12642000D02*
G75*
G03*
X17937000Y-12642000I-150000J0D01*
G01*
X18090000Y-9634000D02*
G75*
G03*
X18090000Y-9634000I-150000J0D01*
G01*
X18404000Y-6580000D02*
G75*
G03*
X18404000Y-6580000I-150000J0D01*
G01*
X18437000Y-12862000D02*
G75*
G03*
X18437000Y-12862000I-150000J0D01*
G01*
X18590000Y-9854000D02*
G75*
G03*
X18590000Y-9854000I-150000J0D01*
G01*
X18904000Y-6800000D02*
G75*
G03*
X18904000Y-6800000I-150000J0D01*
G01*
X20135000Y-11718000D02*
G75*
G03*
X20135000Y-11718000I-150000J0D01*
G01*
X20225000Y-8713000D02*
G75*
G03*
X20225000Y-8713000I-150000J0D01*
G01*
X20635000Y-11498000D02*
G75*
G03*
X20635000Y-11498000I-150000J0D01*
G01*
X20725000Y-8493000D02*
G75*
G03*
X20725000Y-8493000I-150000J0D01*
G01*
X21135000Y-11718000D02*
G75*
G03*
X21135000Y-11718000I-150000J0D01*
G01*
X21225000Y-8713000D02*
G75*
G03*
X21225000Y-8713000I-150000J0D01*
G01*
X23135000Y-8319000D02*
G75*
G03*
X23135000Y-8319000I-150000J0D01*
G01*
X23272000Y-11264000D02*
G75*
G03*
X23272000Y-11264000I-150000J0D01*
G01*
X23635000Y-8099000D02*
G75*
G03*
X23635000Y-8099000I-150000J0D01*
G01*
X23772000Y-11044000D02*
G75*
G03*
X23772000Y-11044000I-150000J0D01*
G01*
X24135000Y-8319000D02*
G75*
G03*
X24135000Y-8319000I-150000J0D01*
G01*
X24272000Y-11264000D02*
G75*
G03*
X24272000Y-11264000I-150000J0D01*
G01*
X25892000Y-9736000D02*
G75*
G03*
X25892000Y-9736000I-150000J0D01*
G01*
X26392000Y-9516000D02*
G75*
G03*
X26392000Y-9516000I-150000J0D01*
G01*
X26892000Y-9736000D02*
G75*
G03*
X26892000Y-9736000I-150000J0D01*
G01*
D13*
X7175000Y-11103550D02*
X7175000Y-11446450D01*
X7003550Y-11275000D02*
X7346450Y-11275000D01*
X10037000Y-11103550D02*
X10037000Y-11446450D01*
X9865550Y-11275000D02*
X10208450Y-11275000D01*
X10722000Y-16875550D02*
X10722000Y-17218450D01*
X10550550Y-17047000D02*
X10893450Y-17047000D01*
X12582000Y-12454550D02*
X12582000Y-12797450D01*
X12410550Y-12626000D02*
X12753450Y-12626000D01*
X13879000Y-17695550D02*
X13879000Y-18038450D01*
X13707550Y-17867000D02*
X14050450Y-17867000D01*
X15089000Y-14209550D02*
X15089000Y-14552450D01*
X14917550Y-14381000D02*
X15260450Y-14381000D01*
X15305000Y-11198550D02*
X15305000Y-11541450D01*
X15133550Y-11370000D02*
X15476450Y-11370000D01*
X17787000Y-13065550D02*
X17787000Y-13408450D01*
X17615550Y-13237000D02*
X17958450Y-13237000D01*
X17940000Y-10057550D02*
X17940000Y-10400450D01*
X17768550Y-10229000D02*
X18111450Y-10229000D01*
X18254000Y-7003550D02*
X18254000Y-7346450D01*
X18082550Y-7175000D02*
X18425450Y-7175000D01*
X20485000Y-11921550D02*
X20485000Y-12264450D01*
X20313550Y-12093000D02*
X20656450Y-12093000D01*
X20575000Y-8916550D02*
X20575000Y-9259450D01*
X20403550Y-9088000D02*
X20746450Y-9088000D01*
X23485000Y-8522550D02*
X23485000Y-8865450D01*
X23313550Y-8694000D02*
X23656450Y-8694000D01*
X23622000Y-11467550D02*
X23622000Y-11810450D01*
X23450550Y-11639000D02*
X23793450Y-11639000D01*
X26242000Y-9939550D02*
X26242000Y-10282450D01*
X26070550Y-10111000D02*
X26413450Y-10111000D01*
D10*
X5250777Y-20088484D02*
X5250777Y-19888484D01*
X5250777Y-19888484D02*
X5298396Y-19888484D01*
X5298396Y-19888484D02*
X5326967Y-19898008D01*
X5326967Y-19898008D02*
X5346015Y-19917055D01*
X5346015Y-19917055D02*
X5355539Y-19936103D01*
X5355539Y-19936103D02*
X5365063Y-19974198D01*
X5365063Y-19974198D02*
X5365063Y-20002770D01*
X5365063Y-20002770D02*
X5355539Y-20040865D01*
X5355539Y-20040865D02*
X5346015Y-20059912D01*
X5346015Y-20059912D02*
X5326967Y-20078960D01*
X5326967Y-20078960D02*
X5298396Y-20088484D01*
X5298396Y-20088484D02*
X5250777Y-20088484D01*
X5450777Y-20088484D02*
X5450777Y-19955150D01*
X5450777Y-19993246D02*
X5460301Y-19974198D01*
X5460301Y-19974198D02*
X5469824Y-19964674D01*
X5469824Y-19964674D02*
X5488872Y-19955150D01*
X5488872Y-19955150D02*
X5507920Y-19955150D01*
X5574586Y-20088484D02*
X5574586Y-19955150D01*
X5574586Y-19888484D02*
X5565063Y-19898008D01*
X5565063Y-19898008D02*
X5574586Y-19907531D01*
X5574586Y-19907531D02*
X5584110Y-19898008D01*
X5584110Y-19898008D02*
X5574586Y-19888484D01*
X5574586Y-19888484D02*
X5574586Y-19907531D01*
X5698396Y-20088484D02*
X5679348Y-20078960D01*
X5679348Y-20078960D02*
X5669824Y-20059912D01*
X5669824Y-20059912D02*
X5669824Y-19888484D01*
X5803158Y-20088484D02*
X5784110Y-20078960D01*
X5784110Y-20078960D02*
X5774586Y-20059912D01*
X5774586Y-20059912D02*
X5774586Y-19888484D01*
X6031729Y-20088484D02*
X6031729Y-19888484D01*
X6031729Y-19888484D02*
X6098396Y-20031341D01*
X6098396Y-20031341D02*
X6165062Y-19888484D01*
X6165062Y-19888484D02*
X6165062Y-20088484D01*
X6346015Y-20088484D02*
X6346015Y-19983722D01*
X6346015Y-19983722D02*
X6336491Y-19964674D01*
X6336491Y-19964674D02*
X6317443Y-19955150D01*
X6317443Y-19955150D02*
X6279348Y-19955150D01*
X6279348Y-19955150D02*
X6260301Y-19964674D01*
X6346015Y-20078960D02*
X6326967Y-20088484D01*
X6326967Y-20088484D02*
X6279348Y-20088484D01*
X6279348Y-20088484D02*
X6260301Y-20078960D01*
X6260301Y-20078960D02*
X6250777Y-20059912D01*
X6250777Y-20059912D02*
X6250777Y-20040865D01*
X6250777Y-20040865D02*
X6260301Y-20021817D01*
X6260301Y-20021817D02*
X6279348Y-20012293D01*
X6279348Y-20012293D02*
X6326967Y-20012293D01*
X6326967Y-20012293D02*
X6346015Y-20002770D01*
X6441253Y-19955150D02*
X6441253Y-20155150D01*
X6441253Y-19964674D02*
X6460301Y-19955150D01*
X6460301Y-19955150D02*
X6498396Y-19955150D01*
X6498396Y-19955150D02*
X6517443Y-19964674D01*
X6517443Y-19964674D02*
X6526967Y-19974198D01*
X6526967Y-19974198D02*
X6536491Y-19993246D01*
X6536491Y-19993246D02*
X6536491Y-20050389D01*
X6536491Y-20050389D02*
X6526967Y-20069436D01*
X6526967Y-20069436D02*
X6517443Y-20078960D01*
X6517443Y-20078960D02*
X6498396Y-20088484D01*
X6498396Y-20088484D02*
X6460301Y-20088484D01*
X6460301Y-20088484D02*
X6441253Y-20078960D01*
X6622205Y-20069436D02*
X6631729Y-20078960D01*
X6631729Y-20078960D02*
X6622205Y-20088484D01*
X6622205Y-20088484D02*
X6612682Y-20078960D01*
X6612682Y-20078960D02*
X6622205Y-20069436D01*
X6622205Y-20069436D02*
X6622205Y-20088484D01*
X6622205Y-19964674D02*
X6631729Y-19974198D01*
X6631729Y-19974198D02*
X6622205Y-19983722D01*
X6622205Y-19983722D02*
X6612682Y-19974198D01*
X6612682Y-19974198D02*
X6622205Y-19964674D01*
X6622205Y-19964674D02*
X6622205Y-19983722D01*
D11*
X4819820Y-20331910D02*
X4990000Y-20502090D01*
X4990000Y-20331910D02*
X4819820Y-20502090D01*
D10*
X5355539Y-20508484D02*
X5241253Y-20508484D01*
X5298396Y-20508484D02*
X5298396Y-20308484D01*
X5298396Y-20308484D02*
X5279348Y-20337055D01*
X5279348Y-20337055D02*
X5260301Y-20356103D01*
X5260301Y-20356103D02*
X5241253Y-20365627D01*
X5441253Y-20489436D02*
X5450777Y-20498960D01*
X5450777Y-20498960D02*
X5441253Y-20508484D01*
X5441253Y-20508484D02*
X5431729Y-20498960D01*
X5431729Y-20498960D02*
X5441253Y-20489436D01*
X5441253Y-20489436D02*
X5441253Y-20508484D01*
X5517444Y-20308484D02*
X5650777Y-20308484D01*
X5650777Y-20308484D02*
X5565063Y-20508484D01*
X5765062Y-20308484D02*
X5784110Y-20308484D01*
X5784110Y-20308484D02*
X5803158Y-20318008D01*
X5803158Y-20318008D02*
X5812682Y-20327531D01*
X5812682Y-20327531D02*
X5822205Y-20346579D01*
X5822205Y-20346579D02*
X5831729Y-20384674D01*
X5831729Y-20384674D02*
X5831729Y-20432293D01*
X5831729Y-20432293D02*
X5822205Y-20470389D01*
X5822205Y-20470389D02*
X5812682Y-20489436D01*
X5812682Y-20489436D02*
X5803158Y-20498960D01*
X5803158Y-20498960D02*
X5784110Y-20508484D01*
X5784110Y-20508484D02*
X5765062Y-20508484D01*
X5765062Y-20508484D02*
X5746015Y-20498960D01*
X5746015Y-20498960D02*
X5736491Y-20489436D01*
X5736491Y-20489436D02*
X5726967Y-20470389D01*
X5726967Y-20470389D02*
X5717443Y-20432293D01*
X5717443Y-20432293D02*
X5717443Y-20384674D01*
X5717443Y-20384674D02*
X5726967Y-20346579D01*
X5726967Y-20346579D02*
X5736491Y-20327531D01*
X5736491Y-20327531D02*
X5746015Y-20318008D01*
X5746015Y-20318008D02*
X5765062Y-20308484D01*
X5907920Y-20327531D02*
X5917443Y-20318008D01*
X5917443Y-20318008D02*
X5936491Y-20308484D01*
X5936491Y-20308484D02*
X5984110Y-20308484D01*
X5984110Y-20308484D02*
X6003158Y-20318008D01*
X6003158Y-20318008D02*
X6012682Y-20327531D01*
X6012682Y-20327531D02*
X6022205Y-20346579D01*
X6022205Y-20346579D02*
X6022205Y-20365627D01*
X6022205Y-20365627D02*
X6012682Y-20394198D01*
X6012682Y-20394198D02*
X5898396Y-20508484D01*
X5898396Y-20508484D02*
X6022205Y-20508484D01*
X6107920Y-20508484D02*
X6107920Y-20375150D01*
X6107920Y-20394198D02*
X6117443Y-20384674D01*
X6117443Y-20384674D02*
X6136491Y-20375150D01*
X6136491Y-20375150D02*
X6165063Y-20375150D01*
X6165063Y-20375150D02*
X6184110Y-20384674D01*
X6184110Y-20384674D02*
X6193634Y-20403722D01*
X6193634Y-20403722D02*
X6193634Y-20508484D01*
X6193634Y-20403722D02*
X6203158Y-20384674D01*
X6203158Y-20384674D02*
X6222205Y-20375150D01*
X6222205Y-20375150D02*
X6250777Y-20375150D01*
X6250777Y-20375150D02*
X6269824Y-20384674D01*
X6269824Y-20384674D02*
X6279348Y-20403722D01*
X6279348Y-20403722D02*
X6279348Y-20508484D01*
X6374586Y-20508484D02*
X6374586Y-20375150D01*
X6374586Y-20394198D02*
X6384110Y-20384674D01*
X6384110Y-20384674D02*
X6403158Y-20375150D01*
X6403158Y-20375150D02*
X6431729Y-20375150D01*
X6431729Y-20375150D02*
X6450777Y-20384674D01*
X6450777Y-20384674D02*
X6460301Y-20403722D01*
X6460301Y-20403722D02*
X6460301Y-20508484D01*
X6460301Y-20403722D02*
X6469824Y-20384674D01*
X6469824Y-20384674D02*
X6488872Y-20375150D01*
X6488872Y-20375150D02*
X6517443Y-20375150D01*
X6517443Y-20375150D02*
X6536491Y-20384674D01*
X6536491Y-20384674D02*
X6546015Y-20403722D01*
X6546015Y-20403722D02*
X6546015Y-20508484D01*
X6936491Y-20298960D02*
X6765063Y-20556103D01*
X7193634Y-20308484D02*
X7212682Y-20308484D01*
X7212682Y-20308484D02*
X7231729Y-20318008D01*
X7231729Y-20318008D02*
X7241253Y-20327531D01*
X7241253Y-20327531D02*
X7250777Y-20346579D01*
X7250777Y-20346579D02*
X7260301Y-20384674D01*
X7260301Y-20384674D02*
X7260301Y-20432293D01*
X7260301Y-20432293D02*
X7250777Y-20470389D01*
X7250777Y-20470389D02*
X7241253Y-20489436D01*
X7241253Y-20489436D02*
X7231729Y-20498960D01*
X7231729Y-20498960D02*
X7212682Y-20508484D01*
X7212682Y-20508484D02*
X7193634Y-20508484D01*
X7193634Y-20508484D02*
X7174586Y-20498960D01*
X7174586Y-20498960D02*
X7165063Y-20489436D01*
X7165063Y-20489436D02*
X7155539Y-20470389D01*
X7155539Y-20470389D02*
X7146015Y-20432293D01*
X7146015Y-20432293D02*
X7146015Y-20384674D01*
X7146015Y-20384674D02*
X7155539Y-20346579D01*
X7155539Y-20346579D02*
X7165063Y-20327531D01*
X7165063Y-20327531D02*
X7174586Y-20318008D01*
X7174586Y-20318008D02*
X7193634Y-20308484D01*
X7346015Y-20489436D02*
X7355539Y-20498960D01*
X7355539Y-20498960D02*
X7346015Y-20508484D01*
X7346015Y-20508484D02*
X7336491Y-20498960D01*
X7336491Y-20498960D02*
X7346015Y-20489436D01*
X7346015Y-20489436D02*
X7346015Y-20508484D01*
X7479348Y-20308484D02*
X7498396Y-20308484D01*
X7498396Y-20308484D02*
X7517444Y-20318008D01*
X7517444Y-20318008D02*
X7526967Y-20327531D01*
X7526967Y-20327531D02*
X7536491Y-20346579D01*
X7536491Y-20346579D02*
X7546015Y-20384674D01*
X7546015Y-20384674D02*
X7546015Y-20432293D01*
X7546015Y-20432293D02*
X7536491Y-20470389D01*
X7536491Y-20470389D02*
X7526967Y-20489436D01*
X7526967Y-20489436D02*
X7517444Y-20498960D01*
X7517444Y-20498960D02*
X7498396Y-20508484D01*
X7498396Y-20508484D02*
X7479348Y-20508484D01*
X7479348Y-20508484D02*
X7460301Y-20498960D01*
X7460301Y-20498960D02*
X7450777Y-20489436D01*
X7450777Y-20489436D02*
X7441253Y-20470389D01*
X7441253Y-20470389D02*
X7431729Y-20432293D01*
X7431729Y-20432293D02*
X7431729Y-20384674D01*
X7431729Y-20384674D02*
X7441253Y-20346579D01*
X7441253Y-20346579D02*
X7450777Y-20327531D01*
X7450777Y-20327531D02*
X7460301Y-20318008D01*
X7460301Y-20318008D02*
X7479348Y-20308484D01*
X7717444Y-20308484D02*
X7679348Y-20308484D01*
X7679348Y-20308484D02*
X7660301Y-20318008D01*
X7660301Y-20318008D02*
X7650777Y-20327531D01*
X7650777Y-20327531D02*
X7631729Y-20356103D01*
X7631729Y-20356103D02*
X7622206Y-20394198D01*
X7622206Y-20394198D02*
X7622206Y-20470389D01*
X7622206Y-20470389D02*
X7631729Y-20489436D01*
X7631729Y-20489436D02*
X7641253Y-20498960D01*
X7641253Y-20498960D02*
X7660301Y-20508484D01*
X7660301Y-20508484D02*
X7698396Y-20508484D01*
X7698396Y-20508484D02*
X7717444Y-20498960D01*
X7717444Y-20498960D02*
X7726967Y-20489436D01*
X7726967Y-20489436D02*
X7736491Y-20470389D01*
X7736491Y-20470389D02*
X7736491Y-20422770D01*
X7736491Y-20422770D02*
X7726967Y-20403722D01*
X7726967Y-20403722D02*
X7717444Y-20394198D01*
X7717444Y-20394198D02*
X7698396Y-20384674D01*
X7698396Y-20384674D02*
X7660301Y-20384674D01*
X7660301Y-20384674D02*
X7641253Y-20394198D01*
X7641253Y-20394198D02*
X7631729Y-20403722D01*
X7631729Y-20403722D02*
X7622206Y-20422770D01*
X7803158Y-20308484D02*
X7936491Y-20308484D01*
X7936491Y-20308484D02*
X7850777Y-20508484D01*
X8050777Y-20308484D02*
X8069825Y-20308484D01*
X8069825Y-20308484D02*
X8088872Y-20318008D01*
X8088872Y-20318008D02*
X8098396Y-20327531D01*
X8098396Y-20327531D02*
X8107920Y-20346579D01*
X8107920Y-20346579D02*
X8117444Y-20384674D01*
X8117444Y-20384674D02*
X8117444Y-20432293D01*
X8117444Y-20432293D02*
X8107920Y-20470389D01*
X8107920Y-20470389D02*
X8098396Y-20489436D01*
X8098396Y-20489436D02*
X8088872Y-20498960D01*
X8088872Y-20498960D02*
X8069825Y-20508484D01*
X8069825Y-20508484D02*
X8050777Y-20508484D01*
X8050777Y-20508484D02*
X8031729Y-20498960D01*
X8031729Y-20498960D02*
X8022206Y-20489436D01*
X8022206Y-20489436D02*
X8012682Y-20470389D01*
X8012682Y-20470389D02*
X8003158Y-20432293D01*
X8003158Y-20432293D02*
X8003158Y-20384674D01*
X8003158Y-20384674D02*
X8012682Y-20346579D01*
X8012682Y-20346579D02*
X8022206Y-20327531D01*
X8022206Y-20327531D02*
X8031729Y-20318008D01*
X8031729Y-20318008D02*
X8050777Y-20308484D01*
X8193634Y-20308484D02*
X8193634Y-20346579D01*
X8269825Y-20308484D02*
X8269825Y-20346579D01*
X8565063Y-20584674D02*
X8555539Y-20575150D01*
X8555539Y-20575150D02*
X8536491Y-20546579D01*
X8536491Y-20546579D02*
X8526968Y-20527531D01*
X8526968Y-20527531D02*
X8517444Y-20498960D01*
X8517444Y-20498960D02*
X8507920Y-20451341D01*
X8507920Y-20451341D02*
X8507920Y-20413246D01*
X8507920Y-20413246D02*
X8517444Y-20365627D01*
X8517444Y-20365627D02*
X8526968Y-20337055D01*
X8526968Y-20337055D02*
X8536491Y-20318008D01*
X8536491Y-20318008D02*
X8555539Y-20289436D01*
X8555539Y-20289436D02*
X8565063Y-20279912D01*
X8622206Y-20308484D02*
X8746015Y-20308484D01*
X8746015Y-20308484D02*
X8679349Y-20384674D01*
X8679349Y-20384674D02*
X8707920Y-20384674D01*
X8707920Y-20384674D02*
X8726968Y-20394198D01*
X8726968Y-20394198D02*
X8736491Y-20403722D01*
X8736491Y-20403722D02*
X8746015Y-20422770D01*
X8746015Y-20422770D02*
X8746015Y-20470389D01*
X8746015Y-20470389D02*
X8736491Y-20489436D01*
X8736491Y-20489436D02*
X8726968Y-20498960D01*
X8726968Y-20498960D02*
X8707920Y-20508484D01*
X8707920Y-20508484D02*
X8650777Y-20508484D01*
X8650777Y-20508484D02*
X8631730Y-20498960D01*
X8631730Y-20498960D02*
X8622206Y-20489436D01*
X8869825Y-20308484D02*
X8888872Y-20308484D01*
X8888872Y-20308484D02*
X8907920Y-20318008D01*
X8907920Y-20318008D02*
X8917444Y-20327531D01*
X8917444Y-20327531D02*
X8926968Y-20346579D01*
X8926968Y-20346579D02*
X8936491Y-20384674D01*
X8936491Y-20384674D02*
X8936491Y-20432293D01*
X8936491Y-20432293D02*
X8926968Y-20470389D01*
X8926968Y-20470389D02*
X8917444Y-20489436D01*
X8917444Y-20489436D02*
X8907920Y-20498960D01*
X8907920Y-20498960D02*
X8888872Y-20508484D01*
X8888872Y-20508484D02*
X8869825Y-20508484D01*
X8869825Y-20508484D02*
X8850777Y-20498960D01*
X8850777Y-20498960D02*
X8841253Y-20489436D01*
X8841253Y-20489436D02*
X8831730Y-20470389D01*
X8831730Y-20470389D02*
X8822206Y-20432293D01*
X8822206Y-20432293D02*
X8822206Y-20384674D01*
X8822206Y-20384674D02*
X8831730Y-20346579D01*
X8831730Y-20346579D02*
X8841253Y-20327531D01*
X8841253Y-20327531D02*
X8850777Y-20318008D01*
X8850777Y-20318008D02*
X8869825Y-20308484D01*
X9174587Y-20508484D02*
X9174587Y-20308484D01*
X9260301Y-20508484D02*
X9260301Y-20403722D01*
X9260301Y-20403722D02*
X9250777Y-20384674D01*
X9250777Y-20384674D02*
X9231730Y-20375150D01*
X9231730Y-20375150D02*
X9203158Y-20375150D01*
X9203158Y-20375150D02*
X9184111Y-20384674D01*
X9184111Y-20384674D02*
X9174587Y-20394198D01*
X9384111Y-20508484D02*
X9365063Y-20498960D01*
X9365063Y-20498960D02*
X9355539Y-20489436D01*
X9355539Y-20489436D02*
X9346015Y-20470389D01*
X9346015Y-20470389D02*
X9346015Y-20413246D01*
X9346015Y-20413246D02*
X9355539Y-20394198D01*
X9355539Y-20394198D02*
X9365063Y-20384674D01*
X9365063Y-20384674D02*
X9384111Y-20375150D01*
X9384111Y-20375150D02*
X9412682Y-20375150D01*
X9412682Y-20375150D02*
X9431730Y-20384674D01*
X9431730Y-20384674D02*
X9441253Y-20394198D01*
X9441253Y-20394198D02*
X9450777Y-20413246D01*
X9450777Y-20413246D02*
X9450777Y-20470389D01*
X9450777Y-20470389D02*
X9441253Y-20489436D01*
X9441253Y-20489436D02*
X9431730Y-20498960D01*
X9431730Y-20498960D02*
X9412682Y-20508484D01*
X9412682Y-20508484D02*
X9384111Y-20508484D01*
X9565063Y-20508484D02*
X9546015Y-20498960D01*
X9546015Y-20498960D02*
X9536492Y-20479912D01*
X9536492Y-20479912D02*
X9536492Y-20308484D01*
X9717444Y-20498960D02*
X9698396Y-20508484D01*
X9698396Y-20508484D02*
X9660301Y-20508484D01*
X9660301Y-20508484D02*
X9641253Y-20498960D01*
X9641253Y-20498960D02*
X9631730Y-20479912D01*
X9631730Y-20479912D02*
X9631730Y-20403722D01*
X9631730Y-20403722D02*
X9641253Y-20384674D01*
X9641253Y-20384674D02*
X9660301Y-20375150D01*
X9660301Y-20375150D02*
X9698396Y-20375150D01*
X9698396Y-20375150D02*
X9717444Y-20384674D01*
X9717444Y-20384674D02*
X9726968Y-20403722D01*
X9726968Y-20403722D02*
X9726968Y-20422770D01*
X9726968Y-20422770D02*
X9631730Y-20441817D01*
X9803158Y-20498960D02*
X9822206Y-20508484D01*
X9822206Y-20508484D02*
X9860301Y-20508484D01*
X9860301Y-20508484D02*
X9879349Y-20498960D01*
X9879349Y-20498960D02*
X9888873Y-20479912D01*
X9888873Y-20479912D02*
X9888873Y-20470389D01*
X9888873Y-20470389D02*
X9879349Y-20451341D01*
X9879349Y-20451341D02*
X9860301Y-20441817D01*
X9860301Y-20441817D02*
X9831730Y-20441817D01*
X9831730Y-20441817D02*
X9812682Y-20432293D01*
X9812682Y-20432293D02*
X9803158Y-20413246D01*
X9803158Y-20413246D02*
X9803158Y-20403722D01*
X9803158Y-20403722D02*
X9812682Y-20384674D01*
X9812682Y-20384674D02*
X9831730Y-20375150D01*
X9831730Y-20375150D02*
X9860301Y-20375150D01*
X9860301Y-20375150D02*
X9879349Y-20384674D01*
X9955539Y-20584674D02*
X9965063Y-20575150D01*
X9965063Y-20575150D02*
X9984111Y-20546579D01*
X9984111Y-20546579D02*
X9993634Y-20527531D01*
X9993634Y-20527531D02*
X10003158Y-20498960D01*
X10003158Y-20498960D02*
X10012682Y-20451341D01*
X10012682Y-20451341D02*
X10012682Y-20413246D01*
X10012682Y-20413246D02*
X10003158Y-20365627D01*
X10003158Y-20365627D02*
X9993634Y-20337055D01*
X9993634Y-20337055D02*
X9984111Y-20318008D01*
X9984111Y-20318008D02*
X9965063Y-20289436D01*
X9965063Y-20289436D02*
X9955539Y-20279912D01*
X10317444Y-20584674D02*
X10307920Y-20575150D01*
X10307920Y-20575150D02*
X10288873Y-20546579D01*
X10288873Y-20546579D02*
X10279349Y-20527531D01*
X10279349Y-20527531D02*
X10269825Y-20498960D01*
X10269825Y-20498960D02*
X10260301Y-20451341D01*
X10260301Y-20451341D02*
X10260301Y-20413246D01*
X10260301Y-20413246D02*
X10269825Y-20365627D01*
X10269825Y-20365627D02*
X10279349Y-20337055D01*
X10279349Y-20337055D02*
X10288873Y-20318008D01*
X10288873Y-20318008D02*
X10307920Y-20289436D01*
X10307920Y-20289436D02*
X10317444Y-20279912D01*
X10393634Y-20375150D02*
X10393634Y-20508484D01*
X10393634Y-20394198D02*
X10403158Y-20384674D01*
X10403158Y-20384674D02*
X10422206Y-20375150D01*
X10422206Y-20375150D02*
X10450777Y-20375150D01*
X10450777Y-20375150D02*
X10469825Y-20384674D01*
X10469825Y-20384674D02*
X10479349Y-20403722D01*
X10479349Y-20403722D02*
X10479349Y-20508484D01*
X10603158Y-20508484D02*
X10584111Y-20498960D01*
X10584111Y-20498960D02*
X10574587Y-20489436D01*
X10574587Y-20489436D02*
X10565063Y-20470389D01*
X10565063Y-20470389D02*
X10565063Y-20413246D01*
X10565063Y-20413246D02*
X10574587Y-20394198D01*
X10574587Y-20394198D02*
X10584111Y-20384674D01*
X10584111Y-20384674D02*
X10603158Y-20375150D01*
X10603158Y-20375150D02*
X10631730Y-20375150D01*
X10631730Y-20375150D02*
X10650777Y-20384674D01*
X10650777Y-20384674D02*
X10660301Y-20394198D01*
X10660301Y-20394198D02*
X10669825Y-20413246D01*
X10669825Y-20413246D02*
X10669825Y-20470389D01*
X10669825Y-20470389D02*
X10660301Y-20489436D01*
X10660301Y-20489436D02*
X10650777Y-20498960D01*
X10650777Y-20498960D02*
X10631730Y-20508484D01*
X10631730Y-20508484D02*
X10603158Y-20508484D01*
X10726968Y-20375150D02*
X10803158Y-20375150D01*
X10755539Y-20308484D02*
X10755539Y-20479912D01*
X10755539Y-20479912D02*
X10765063Y-20498960D01*
X10765063Y-20498960D02*
X10784111Y-20508484D01*
X10784111Y-20508484D02*
X10803158Y-20508484D01*
X11022206Y-20375150D02*
X11022206Y-20575150D01*
X11022206Y-20384674D02*
X11041254Y-20375150D01*
X11041254Y-20375150D02*
X11079349Y-20375150D01*
X11079349Y-20375150D02*
X11098396Y-20384674D01*
X11098396Y-20384674D02*
X11107920Y-20394198D01*
X11107920Y-20394198D02*
X11117444Y-20413246D01*
X11117444Y-20413246D02*
X11117444Y-20470389D01*
X11117444Y-20470389D02*
X11107920Y-20489436D01*
X11107920Y-20489436D02*
X11098396Y-20498960D01*
X11098396Y-20498960D02*
X11079349Y-20508484D01*
X11079349Y-20508484D02*
X11041254Y-20508484D01*
X11041254Y-20508484D02*
X11022206Y-20498960D01*
X11231730Y-20508484D02*
X11212682Y-20498960D01*
X11212682Y-20498960D02*
X11203158Y-20479912D01*
X11203158Y-20479912D02*
X11203158Y-20308484D01*
X11393634Y-20508484D02*
X11393634Y-20403722D01*
X11393634Y-20403722D02*
X11384111Y-20384674D01*
X11384111Y-20384674D02*
X11365063Y-20375150D01*
X11365063Y-20375150D02*
X11326968Y-20375150D01*
X11326968Y-20375150D02*
X11307920Y-20384674D01*
X11393634Y-20498960D02*
X11374587Y-20508484D01*
X11374587Y-20508484D02*
X11326968Y-20508484D01*
X11326968Y-20508484D02*
X11307920Y-20498960D01*
X11307920Y-20498960D02*
X11298396Y-20479912D01*
X11298396Y-20479912D02*
X11298396Y-20460865D01*
X11298396Y-20460865D02*
X11307920Y-20441817D01*
X11307920Y-20441817D02*
X11326968Y-20432293D01*
X11326968Y-20432293D02*
X11374587Y-20432293D01*
X11374587Y-20432293D02*
X11393634Y-20422770D01*
X11460301Y-20375150D02*
X11536492Y-20375150D01*
X11488873Y-20308484D02*
X11488873Y-20479912D01*
X11488873Y-20479912D02*
X11498396Y-20498960D01*
X11498396Y-20498960D02*
X11517444Y-20508484D01*
X11517444Y-20508484D02*
X11536492Y-20508484D01*
X11679349Y-20498960D02*
X11660301Y-20508484D01*
X11660301Y-20508484D02*
X11622206Y-20508484D01*
X11622206Y-20508484D02*
X11603158Y-20498960D01*
X11603158Y-20498960D02*
X11593634Y-20479912D01*
X11593634Y-20479912D02*
X11593634Y-20403722D01*
X11593634Y-20403722D02*
X11603158Y-20384674D01*
X11603158Y-20384674D02*
X11622206Y-20375150D01*
X11622206Y-20375150D02*
X11660301Y-20375150D01*
X11660301Y-20375150D02*
X11679349Y-20384674D01*
X11679349Y-20384674D02*
X11688873Y-20403722D01*
X11688873Y-20403722D02*
X11688873Y-20422770D01*
X11688873Y-20422770D02*
X11593634Y-20441817D01*
X11860301Y-20508484D02*
X11860301Y-20308484D01*
X11860301Y-20498960D02*
X11841254Y-20508484D01*
X11841254Y-20508484D02*
X11803158Y-20508484D01*
X11803158Y-20508484D02*
X11784111Y-20498960D01*
X11784111Y-20498960D02*
X11774587Y-20489436D01*
X11774587Y-20489436D02*
X11765063Y-20470389D01*
X11765063Y-20470389D02*
X11765063Y-20413246D01*
X11765063Y-20413246D02*
X11774587Y-20394198D01*
X11774587Y-20394198D02*
X11784111Y-20384674D01*
X11784111Y-20384674D02*
X11803158Y-20375150D01*
X11803158Y-20375150D02*
X11841254Y-20375150D01*
X11841254Y-20375150D02*
X11860301Y-20384674D01*
X11936492Y-20584674D02*
X11946015Y-20575150D01*
X11946015Y-20575150D02*
X11965063Y-20546579D01*
X11965063Y-20546579D02*
X11974587Y-20527531D01*
X11974587Y-20527531D02*
X11984111Y-20498960D01*
X11984111Y-20498960D02*
X11993634Y-20451341D01*
X11993634Y-20451341D02*
X11993634Y-20413246D01*
X11993634Y-20413246D02*
X11984111Y-20365627D01*
X11984111Y-20365627D02*
X11974587Y-20337055D01*
X11974587Y-20337055D02*
X11965063Y-20318008D01*
X11965063Y-20318008D02*
X11946015Y-20289436D01*
X11946015Y-20289436D02*
X11936492Y-20279912D01*
X4990000Y-20707180D02*
G75*
G03*
X4990000Y-20707180I-100000J0D01*
G01*
X5231729Y-20598664D02*
X5355539Y-20598664D01*
X5355539Y-20598664D02*
X5288872Y-20674854D01*
X5288872Y-20674854D02*
X5317444Y-20674854D01*
X5317444Y-20674854D02*
X5336491Y-20684378D01*
X5336491Y-20684378D02*
X5346015Y-20693902D01*
X5346015Y-20693902D02*
X5355539Y-20712950D01*
X5355539Y-20712950D02*
X5355539Y-20760569D01*
X5355539Y-20760569D02*
X5346015Y-20779616D01*
X5346015Y-20779616D02*
X5336491Y-20789140D01*
X5336491Y-20789140D02*
X5317444Y-20798664D01*
X5317444Y-20798664D02*
X5260301Y-20798664D01*
X5260301Y-20798664D02*
X5241253Y-20789140D01*
X5241253Y-20789140D02*
X5231729Y-20779616D01*
X5441253Y-20779616D02*
X5450777Y-20789140D01*
X5450777Y-20789140D02*
X5441253Y-20798664D01*
X5441253Y-20798664D02*
X5431729Y-20789140D01*
X5431729Y-20789140D02*
X5441253Y-20779616D01*
X5441253Y-20779616D02*
X5441253Y-20798664D01*
X5574586Y-20598664D02*
X5593634Y-20598664D01*
X5593634Y-20598664D02*
X5612682Y-20608188D01*
X5612682Y-20608188D02*
X5622205Y-20617711D01*
X5622205Y-20617711D02*
X5631729Y-20636759D01*
X5631729Y-20636759D02*
X5641253Y-20674854D01*
X5641253Y-20674854D02*
X5641253Y-20722473D01*
X5641253Y-20722473D02*
X5631729Y-20760569D01*
X5631729Y-20760569D02*
X5622205Y-20779616D01*
X5622205Y-20779616D02*
X5612682Y-20789140D01*
X5612682Y-20789140D02*
X5593634Y-20798664D01*
X5593634Y-20798664D02*
X5574586Y-20798664D01*
X5574586Y-20798664D02*
X5555539Y-20789140D01*
X5555539Y-20789140D02*
X5546015Y-20779616D01*
X5546015Y-20779616D02*
X5536491Y-20760569D01*
X5536491Y-20760569D02*
X5526967Y-20722473D01*
X5526967Y-20722473D02*
X5526967Y-20674854D01*
X5526967Y-20674854D02*
X5536491Y-20636759D01*
X5536491Y-20636759D02*
X5546015Y-20617711D01*
X5546015Y-20617711D02*
X5555539Y-20608188D01*
X5555539Y-20608188D02*
X5574586Y-20598664D01*
X5765062Y-20598664D02*
X5784110Y-20598664D01*
X5784110Y-20598664D02*
X5803158Y-20608188D01*
X5803158Y-20608188D02*
X5812682Y-20617711D01*
X5812682Y-20617711D02*
X5822205Y-20636759D01*
X5822205Y-20636759D02*
X5831729Y-20674854D01*
X5831729Y-20674854D02*
X5831729Y-20722473D01*
X5831729Y-20722473D02*
X5822205Y-20760569D01*
X5822205Y-20760569D02*
X5812682Y-20779616D01*
X5812682Y-20779616D02*
X5803158Y-20789140D01*
X5803158Y-20789140D02*
X5784110Y-20798664D01*
X5784110Y-20798664D02*
X5765062Y-20798664D01*
X5765062Y-20798664D02*
X5746015Y-20789140D01*
X5746015Y-20789140D02*
X5736491Y-20779616D01*
X5736491Y-20779616D02*
X5726967Y-20760569D01*
X5726967Y-20760569D02*
X5717443Y-20722473D01*
X5717443Y-20722473D02*
X5717443Y-20674854D01*
X5717443Y-20674854D02*
X5726967Y-20636759D01*
X5726967Y-20636759D02*
X5736491Y-20617711D01*
X5736491Y-20617711D02*
X5746015Y-20608188D01*
X5746015Y-20608188D02*
X5765062Y-20598664D01*
X5955539Y-20598664D02*
X5974586Y-20598664D01*
X5974586Y-20598664D02*
X5993634Y-20608188D01*
X5993634Y-20608188D02*
X6003158Y-20617711D01*
X6003158Y-20617711D02*
X6012682Y-20636759D01*
X6012682Y-20636759D02*
X6022205Y-20674854D01*
X6022205Y-20674854D02*
X6022205Y-20722473D01*
X6022205Y-20722473D02*
X6012682Y-20760569D01*
X6012682Y-20760569D02*
X6003158Y-20779616D01*
X6003158Y-20779616D02*
X5993634Y-20789140D01*
X5993634Y-20789140D02*
X5974586Y-20798664D01*
X5974586Y-20798664D02*
X5955539Y-20798664D01*
X5955539Y-20798664D02*
X5936491Y-20789140D01*
X5936491Y-20789140D02*
X5926967Y-20779616D01*
X5926967Y-20779616D02*
X5917443Y-20760569D01*
X5917443Y-20760569D02*
X5907920Y-20722473D01*
X5907920Y-20722473D02*
X5907920Y-20674854D01*
X5907920Y-20674854D02*
X5917443Y-20636759D01*
X5917443Y-20636759D02*
X5926967Y-20617711D01*
X5926967Y-20617711D02*
X5936491Y-20608188D01*
X5936491Y-20608188D02*
X5955539Y-20598664D01*
X6107920Y-20798664D02*
X6107920Y-20665330D01*
X6107920Y-20684378D02*
X6117443Y-20674854D01*
X6117443Y-20674854D02*
X6136491Y-20665330D01*
X6136491Y-20665330D02*
X6165063Y-20665330D01*
X6165063Y-20665330D02*
X6184110Y-20674854D01*
X6184110Y-20674854D02*
X6193634Y-20693902D01*
X6193634Y-20693902D02*
X6193634Y-20798664D01*
X6193634Y-20693902D02*
X6203158Y-20674854D01*
X6203158Y-20674854D02*
X6222205Y-20665330D01*
X6222205Y-20665330D02*
X6250777Y-20665330D01*
X6250777Y-20665330D02*
X6269824Y-20674854D01*
X6269824Y-20674854D02*
X6279348Y-20693902D01*
X6279348Y-20693902D02*
X6279348Y-20798664D01*
X6374586Y-20798664D02*
X6374586Y-20665330D01*
X6374586Y-20684378D02*
X6384110Y-20674854D01*
X6384110Y-20674854D02*
X6403158Y-20665330D01*
X6403158Y-20665330D02*
X6431729Y-20665330D01*
X6431729Y-20665330D02*
X6450777Y-20674854D01*
X6450777Y-20674854D02*
X6460301Y-20693902D01*
X6460301Y-20693902D02*
X6460301Y-20798664D01*
X6460301Y-20693902D02*
X6469824Y-20674854D01*
X6469824Y-20674854D02*
X6488872Y-20665330D01*
X6488872Y-20665330D02*
X6517443Y-20665330D01*
X6517443Y-20665330D02*
X6536491Y-20674854D01*
X6536491Y-20674854D02*
X6546015Y-20693902D01*
X6546015Y-20693902D02*
X6546015Y-20798664D01*
X6936491Y-20589140D02*
X6765063Y-20846283D01*
X7193634Y-20598664D02*
X7212682Y-20598664D01*
X7212682Y-20598664D02*
X7231729Y-20608188D01*
X7231729Y-20608188D02*
X7241253Y-20617711D01*
X7241253Y-20617711D02*
X7250777Y-20636759D01*
X7250777Y-20636759D02*
X7260301Y-20674854D01*
X7260301Y-20674854D02*
X7260301Y-20722473D01*
X7260301Y-20722473D02*
X7250777Y-20760569D01*
X7250777Y-20760569D02*
X7241253Y-20779616D01*
X7241253Y-20779616D02*
X7231729Y-20789140D01*
X7231729Y-20789140D02*
X7212682Y-20798664D01*
X7212682Y-20798664D02*
X7193634Y-20798664D01*
X7193634Y-20798664D02*
X7174586Y-20789140D01*
X7174586Y-20789140D02*
X7165063Y-20779616D01*
X7165063Y-20779616D02*
X7155539Y-20760569D01*
X7155539Y-20760569D02*
X7146015Y-20722473D01*
X7146015Y-20722473D02*
X7146015Y-20674854D01*
X7146015Y-20674854D02*
X7155539Y-20636759D01*
X7155539Y-20636759D02*
X7165063Y-20617711D01*
X7165063Y-20617711D02*
X7174586Y-20608188D01*
X7174586Y-20608188D02*
X7193634Y-20598664D01*
X7346015Y-20779616D02*
X7355539Y-20789140D01*
X7355539Y-20789140D02*
X7346015Y-20798664D01*
X7346015Y-20798664D02*
X7336491Y-20789140D01*
X7336491Y-20789140D02*
X7346015Y-20779616D01*
X7346015Y-20779616D02*
X7346015Y-20798664D01*
X7546015Y-20798664D02*
X7431729Y-20798664D01*
X7488872Y-20798664D02*
X7488872Y-20598664D01*
X7488872Y-20598664D02*
X7469825Y-20627235D01*
X7469825Y-20627235D02*
X7450777Y-20646283D01*
X7450777Y-20646283D02*
X7431729Y-20655807D01*
X7736491Y-20798664D02*
X7622206Y-20798664D01*
X7679348Y-20798664D02*
X7679348Y-20598664D01*
X7679348Y-20598664D02*
X7660301Y-20627235D01*
X7660301Y-20627235D02*
X7641253Y-20646283D01*
X7641253Y-20646283D02*
X7622206Y-20655807D01*
X7850777Y-20684378D02*
X7831729Y-20674854D01*
X7831729Y-20674854D02*
X7822206Y-20665330D01*
X7822206Y-20665330D02*
X7812682Y-20646283D01*
X7812682Y-20646283D02*
X7812682Y-20636759D01*
X7812682Y-20636759D02*
X7822206Y-20617711D01*
X7822206Y-20617711D02*
X7831729Y-20608188D01*
X7831729Y-20608188D02*
X7850777Y-20598664D01*
X7850777Y-20598664D02*
X7888872Y-20598664D01*
X7888872Y-20598664D02*
X7907920Y-20608188D01*
X7907920Y-20608188D02*
X7917444Y-20617711D01*
X7917444Y-20617711D02*
X7926967Y-20636759D01*
X7926967Y-20636759D02*
X7926967Y-20646283D01*
X7926967Y-20646283D02*
X7917444Y-20665330D01*
X7917444Y-20665330D02*
X7907920Y-20674854D01*
X7907920Y-20674854D02*
X7888872Y-20684378D01*
X7888872Y-20684378D02*
X7850777Y-20684378D01*
X7850777Y-20684378D02*
X7831729Y-20693902D01*
X7831729Y-20693902D02*
X7822206Y-20703426D01*
X7822206Y-20703426D02*
X7812682Y-20722473D01*
X7812682Y-20722473D02*
X7812682Y-20760569D01*
X7812682Y-20760569D02*
X7822206Y-20779616D01*
X7822206Y-20779616D02*
X7831729Y-20789140D01*
X7831729Y-20789140D02*
X7850777Y-20798664D01*
X7850777Y-20798664D02*
X7888872Y-20798664D01*
X7888872Y-20798664D02*
X7907920Y-20789140D01*
X7907920Y-20789140D02*
X7917444Y-20779616D01*
X7917444Y-20779616D02*
X7926967Y-20760569D01*
X7926967Y-20760569D02*
X7926967Y-20722473D01*
X7926967Y-20722473D02*
X7917444Y-20703426D01*
X7917444Y-20703426D02*
X7907920Y-20693902D01*
X7907920Y-20693902D02*
X7888872Y-20684378D01*
X8117444Y-20798664D02*
X8003158Y-20798664D01*
X8060301Y-20798664D02*
X8060301Y-20598664D01*
X8060301Y-20598664D02*
X8041253Y-20627235D01*
X8041253Y-20627235D02*
X8022206Y-20646283D01*
X8022206Y-20646283D02*
X8003158Y-20655807D01*
X8193634Y-20598664D02*
X8193634Y-20636759D01*
X8269825Y-20598664D02*
X8269825Y-20636759D01*
X8565063Y-20874854D02*
X8555539Y-20865330D01*
X8555539Y-20865330D02*
X8536491Y-20836759D01*
X8536491Y-20836759D02*
X8526968Y-20817711D01*
X8526968Y-20817711D02*
X8517444Y-20789140D01*
X8517444Y-20789140D02*
X8507920Y-20741521D01*
X8507920Y-20741521D02*
X8507920Y-20703426D01*
X8507920Y-20703426D02*
X8517444Y-20655807D01*
X8517444Y-20655807D02*
X8526968Y-20627235D01*
X8526968Y-20627235D02*
X8536491Y-20608188D01*
X8536491Y-20608188D02*
X8555539Y-20579616D01*
X8555539Y-20579616D02*
X8565063Y-20570092D01*
X8726968Y-20665330D02*
X8726968Y-20798664D01*
X8679349Y-20589140D02*
X8631730Y-20731997D01*
X8631730Y-20731997D02*
X8755539Y-20731997D01*
X8926968Y-20598664D02*
X8831730Y-20598664D01*
X8831730Y-20598664D02*
X8822206Y-20693902D01*
X8822206Y-20693902D02*
X8831730Y-20684378D01*
X8831730Y-20684378D02*
X8850777Y-20674854D01*
X8850777Y-20674854D02*
X8898396Y-20674854D01*
X8898396Y-20674854D02*
X8917444Y-20684378D01*
X8917444Y-20684378D02*
X8926968Y-20693902D01*
X8926968Y-20693902D02*
X8936491Y-20712950D01*
X8936491Y-20712950D02*
X8936491Y-20760569D01*
X8936491Y-20760569D02*
X8926968Y-20779616D01*
X8926968Y-20779616D02*
X8917444Y-20789140D01*
X8917444Y-20789140D02*
X8898396Y-20798664D01*
X8898396Y-20798664D02*
X8850777Y-20798664D01*
X8850777Y-20798664D02*
X8831730Y-20789140D01*
X8831730Y-20789140D02*
X8822206Y-20779616D01*
X9174587Y-20798664D02*
X9174587Y-20598664D01*
X9260301Y-20798664D02*
X9260301Y-20693902D01*
X9260301Y-20693902D02*
X9250777Y-20674854D01*
X9250777Y-20674854D02*
X9231730Y-20665330D01*
X9231730Y-20665330D02*
X9203158Y-20665330D01*
X9203158Y-20665330D02*
X9184111Y-20674854D01*
X9184111Y-20674854D02*
X9174587Y-20684378D01*
X9384111Y-20798664D02*
X9365063Y-20789140D01*
X9365063Y-20789140D02*
X9355539Y-20779616D01*
X9355539Y-20779616D02*
X9346015Y-20760569D01*
X9346015Y-20760569D02*
X9346015Y-20703426D01*
X9346015Y-20703426D02*
X9355539Y-20684378D01*
X9355539Y-20684378D02*
X9365063Y-20674854D01*
X9365063Y-20674854D02*
X9384111Y-20665330D01*
X9384111Y-20665330D02*
X9412682Y-20665330D01*
X9412682Y-20665330D02*
X9431730Y-20674854D01*
X9431730Y-20674854D02*
X9441253Y-20684378D01*
X9441253Y-20684378D02*
X9450777Y-20703426D01*
X9450777Y-20703426D02*
X9450777Y-20760569D01*
X9450777Y-20760569D02*
X9441253Y-20779616D01*
X9441253Y-20779616D02*
X9431730Y-20789140D01*
X9431730Y-20789140D02*
X9412682Y-20798664D01*
X9412682Y-20798664D02*
X9384111Y-20798664D01*
X9565063Y-20798664D02*
X9546015Y-20789140D01*
X9546015Y-20789140D02*
X9536492Y-20770092D01*
X9536492Y-20770092D02*
X9536492Y-20598664D01*
X9717444Y-20789140D02*
X9698396Y-20798664D01*
X9698396Y-20798664D02*
X9660301Y-20798664D01*
X9660301Y-20798664D02*
X9641253Y-20789140D01*
X9641253Y-20789140D02*
X9631730Y-20770092D01*
X9631730Y-20770092D02*
X9631730Y-20693902D01*
X9631730Y-20693902D02*
X9641253Y-20674854D01*
X9641253Y-20674854D02*
X9660301Y-20665330D01*
X9660301Y-20665330D02*
X9698396Y-20665330D01*
X9698396Y-20665330D02*
X9717444Y-20674854D01*
X9717444Y-20674854D02*
X9726968Y-20693902D01*
X9726968Y-20693902D02*
X9726968Y-20712950D01*
X9726968Y-20712950D02*
X9631730Y-20731997D01*
X9803158Y-20789140D02*
X9822206Y-20798664D01*
X9822206Y-20798664D02*
X9860301Y-20798664D01*
X9860301Y-20798664D02*
X9879349Y-20789140D01*
X9879349Y-20789140D02*
X9888873Y-20770092D01*
X9888873Y-20770092D02*
X9888873Y-20760569D01*
X9888873Y-20760569D02*
X9879349Y-20741521D01*
X9879349Y-20741521D02*
X9860301Y-20731997D01*
X9860301Y-20731997D02*
X9831730Y-20731997D01*
X9831730Y-20731997D02*
X9812682Y-20722473D01*
X9812682Y-20722473D02*
X9803158Y-20703426D01*
X9803158Y-20703426D02*
X9803158Y-20693902D01*
X9803158Y-20693902D02*
X9812682Y-20674854D01*
X9812682Y-20674854D02*
X9831730Y-20665330D01*
X9831730Y-20665330D02*
X9860301Y-20665330D01*
X9860301Y-20665330D02*
X9879349Y-20674854D01*
X9955539Y-20874854D02*
X9965063Y-20865330D01*
X9965063Y-20865330D02*
X9984111Y-20836759D01*
X9984111Y-20836759D02*
X9993634Y-20817711D01*
X9993634Y-20817711D02*
X10003158Y-20789140D01*
X10003158Y-20789140D02*
X10012682Y-20741521D01*
X10012682Y-20741521D02*
X10012682Y-20703426D01*
X10012682Y-20703426D02*
X10003158Y-20655807D01*
X10003158Y-20655807D02*
X9993634Y-20627235D01*
X9993634Y-20627235D02*
X9984111Y-20608188D01*
X9984111Y-20608188D02*
X9965063Y-20579616D01*
X9965063Y-20579616D02*
X9955539Y-20570092D01*
X10317444Y-20874854D02*
X10307920Y-20865330D01*
X10307920Y-20865330D02*
X10288873Y-20836759D01*
X10288873Y-20836759D02*
X10279349Y-20817711D01*
X10279349Y-20817711D02*
X10269825Y-20789140D01*
X10269825Y-20789140D02*
X10260301Y-20741521D01*
X10260301Y-20741521D02*
X10260301Y-20703426D01*
X10260301Y-20703426D02*
X10269825Y-20655807D01*
X10269825Y-20655807D02*
X10279349Y-20627235D01*
X10279349Y-20627235D02*
X10288873Y-20608188D01*
X10288873Y-20608188D02*
X10307920Y-20579616D01*
X10307920Y-20579616D02*
X10317444Y-20570092D01*
X10393634Y-20665330D02*
X10393634Y-20798664D01*
X10393634Y-20684378D02*
X10403158Y-20674854D01*
X10403158Y-20674854D02*
X10422206Y-20665330D01*
X10422206Y-20665330D02*
X10450777Y-20665330D01*
X10450777Y-20665330D02*
X10469825Y-20674854D01*
X10469825Y-20674854D02*
X10479349Y-20693902D01*
X10479349Y-20693902D02*
X10479349Y-20798664D01*
X10603158Y-20798664D02*
X10584111Y-20789140D01*
X10584111Y-20789140D02*
X10574587Y-20779616D01*
X10574587Y-20779616D02*
X10565063Y-20760569D01*
X10565063Y-20760569D02*
X10565063Y-20703426D01*
X10565063Y-20703426D02*
X10574587Y-20684378D01*
X10574587Y-20684378D02*
X10584111Y-20674854D01*
X10584111Y-20674854D02*
X10603158Y-20665330D01*
X10603158Y-20665330D02*
X10631730Y-20665330D01*
X10631730Y-20665330D02*
X10650777Y-20674854D01*
X10650777Y-20674854D02*
X10660301Y-20684378D01*
X10660301Y-20684378D02*
X10669825Y-20703426D01*
X10669825Y-20703426D02*
X10669825Y-20760569D01*
X10669825Y-20760569D02*
X10660301Y-20779616D01*
X10660301Y-20779616D02*
X10650777Y-20789140D01*
X10650777Y-20789140D02*
X10631730Y-20798664D01*
X10631730Y-20798664D02*
X10603158Y-20798664D01*
X10726968Y-20665330D02*
X10803158Y-20665330D01*
X10755539Y-20598664D02*
X10755539Y-20770092D01*
X10755539Y-20770092D02*
X10765063Y-20789140D01*
X10765063Y-20789140D02*
X10784111Y-20798664D01*
X10784111Y-20798664D02*
X10803158Y-20798664D01*
X11022206Y-20665330D02*
X11022206Y-20865330D01*
X11022206Y-20674854D02*
X11041254Y-20665330D01*
X11041254Y-20665330D02*
X11079349Y-20665330D01*
X11079349Y-20665330D02*
X11098396Y-20674854D01*
X11098396Y-20674854D02*
X11107920Y-20684378D01*
X11107920Y-20684378D02*
X11117444Y-20703426D01*
X11117444Y-20703426D02*
X11117444Y-20760569D01*
X11117444Y-20760569D02*
X11107920Y-20779616D01*
X11107920Y-20779616D02*
X11098396Y-20789140D01*
X11098396Y-20789140D02*
X11079349Y-20798664D01*
X11079349Y-20798664D02*
X11041254Y-20798664D01*
X11041254Y-20798664D02*
X11022206Y-20789140D01*
X11231730Y-20798664D02*
X11212682Y-20789140D01*
X11212682Y-20789140D02*
X11203158Y-20770092D01*
X11203158Y-20770092D02*
X11203158Y-20598664D01*
X11393634Y-20798664D02*
X11393634Y-20693902D01*
X11393634Y-20693902D02*
X11384111Y-20674854D01*
X11384111Y-20674854D02*
X11365063Y-20665330D01*
X11365063Y-20665330D02*
X11326968Y-20665330D01*
X11326968Y-20665330D02*
X11307920Y-20674854D01*
X11393634Y-20789140D02*
X11374587Y-20798664D01*
X11374587Y-20798664D02*
X11326968Y-20798664D01*
X11326968Y-20798664D02*
X11307920Y-20789140D01*
X11307920Y-20789140D02*
X11298396Y-20770092D01*
X11298396Y-20770092D02*
X11298396Y-20751045D01*
X11298396Y-20751045D02*
X11307920Y-20731997D01*
X11307920Y-20731997D02*
X11326968Y-20722473D01*
X11326968Y-20722473D02*
X11374587Y-20722473D01*
X11374587Y-20722473D02*
X11393634Y-20712950D01*
X11460301Y-20665330D02*
X11536492Y-20665330D01*
X11488873Y-20598664D02*
X11488873Y-20770092D01*
X11488873Y-20770092D02*
X11498396Y-20789140D01*
X11498396Y-20789140D02*
X11517444Y-20798664D01*
X11517444Y-20798664D02*
X11536492Y-20798664D01*
X11679349Y-20789140D02*
X11660301Y-20798664D01*
X11660301Y-20798664D02*
X11622206Y-20798664D01*
X11622206Y-20798664D02*
X11603158Y-20789140D01*
X11603158Y-20789140D02*
X11593634Y-20770092D01*
X11593634Y-20770092D02*
X11593634Y-20693902D01*
X11593634Y-20693902D02*
X11603158Y-20674854D01*
X11603158Y-20674854D02*
X11622206Y-20665330D01*
X11622206Y-20665330D02*
X11660301Y-20665330D01*
X11660301Y-20665330D02*
X11679349Y-20674854D01*
X11679349Y-20674854D02*
X11688873Y-20693902D01*
X11688873Y-20693902D02*
X11688873Y-20712950D01*
X11688873Y-20712950D02*
X11593634Y-20731997D01*
X11860301Y-20798664D02*
X11860301Y-20598664D01*
X11860301Y-20789140D02*
X11841254Y-20798664D01*
X11841254Y-20798664D02*
X11803158Y-20798664D01*
X11803158Y-20798664D02*
X11784111Y-20789140D01*
X11784111Y-20789140D02*
X11774587Y-20779616D01*
X11774587Y-20779616D02*
X11765063Y-20760569D01*
X11765063Y-20760569D02*
X11765063Y-20703426D01*
X11765063Y-20703426D02*
X11774587Y-20684378D01*
X11774587Y-20684378D02*
X11784111Y-20674854D01*
X11784111Y-20674854D02*
X11803158Y-20665330D01*
X11803158Y-20665330D02*
X11841254Y-20665330D01*
X11841254Y-20665330D02*
X11860301Y-20674854D01*
X11936492Y-20874854D02*
X11946015Y-20865330D01*
X11946015Y-20865330D02*
X11965063Y-20836759D01*
X11965063Y-20836759D02*
X11974587Y-20817711D01*
X11974587Y-20817711D02*
X11984111Y-20789140D01*
X11984111Y-20789140D02*
X11993634Y-20741521D01*
X11993634Y-20741521D02*
X11993634Y-20703426D01*
X11993634Y-20703426D02*
X11984111Y-20655807D01*
X11984111Y-20655807D02*
X11974587Y-20627235D01*
X11974587Y-20627235D02*
X11965063Y-20608188D01*
X11965063Y-20608188D02*
X11946015Y-20579616D01*
X11946015Y-20579616D02*
X11936492Y-20570092D01*
X4890000Y-20927180D02*
X4890000Y-21127180D01*
X4790000Y-21027180D02*
X4990000Y-21027180D01*
X5231729Y-20918664D02*
X5355539Y-20918664D01*
X5355539Y-20918664D02*
X5288872Y-20994854D01*
X5288872Y-20994854D02*
X5317444Y-20994854D01*
X5317444Y-20994854D02*
X5336491Y-21004378D01*
X5336491Y-21004378D02*
X5346015Y-21013902D01*
X5346015Y-21013902D02*
X5355539Y-21032950D01*
X5355539Y-21032950D02*
X5355539Y-21080569D01*
X5355539Y-21080569D02*
X5346015Y-21099616D01*
X5346015Y-21099616D02*
X5336491Y-21109140D01*
X5336491Y-21109140D02*
X5317444Y-21118664D01*
X5317444Y-21118664D02*
X5260301Y-21118664D01*
X5260301Y-21118664D02*
X5241253Y-21109140D01*
X5241253Y-21109140D02*
X5231729Y-21099616D01*
X5441253Y-21099616D02*
X5450777Y-21109140D01*
X5450777Y-21109140D02*
X5441253Y-21118664D01*
X5441253Y-21118664D02*
X5431729Y-21109140D01*
X5431729Y-21109140D02*
X5441253Y-21099616D01*
X5441253Y-21099616D02*
X5441253Y-21118664D01*
X5622205Y-20985330D02*
X5622205Y-21118664D01*
X5574586Y-20909140D02*
X5526967Y-21051997D01*
X5526967Y-21051997D02*
X5650777Y-21051997D01*
X5717443Y-20937711D02*
X5726967Y-20928188D01*
X5726967Y-20928188D02*
X5746015Y-20918664D01*
X5746015Y-20918664D02*
X5793634Y-20918664D01*
X5793634Y-20918664D02*
X5812682Y-20928188D01*
X5812682Y-20928188D02*
X5822205Y-20937711D01*
X5822205Y-20937711D02*
X5831729Y-20956759D01*
X5831729Y-20956759D02*
X5831729Y-20975807D01*
X5831729Y-20975807D02*
X5822205Y-21004378D01*
X5822205Y-21004378D02*
X5707920Y-21118664D01*
X5707920Y-21118664D02*
X5831729Y-21118664D01*
X5926967Y-21118664D02*
X5965062Y-21118664D01*
X5965062Y-21118664D02*
X5984110Y-21109140D01*
X5984110Y-21109140D02*
X5993634Y-21099616D01*
X5993634Y-21099616D02*
X6012682Y-21071045D01*
X6012682Y-21071045D02*
X6022205Y-21032950D01*
X6022205Y-21032950D02*
X6022205Y-20956759D01*
X6022205Y-20956759D02*
X6012682Y-20937711D01*
X6012682Y-20937711D02*
X6003158Y-20928188D01*
X6003158Y-20928188D02*
X5984110Y-20918664D01*
X5984110Y-20918664D02*
X5946015Y-20918664D01*
X5946015Y-20918664D02*
X5926967Y-20928188D01*
X5926967Y-20928188D02*
X5917443Y-20937711D01*
X5917443Y-20937711D02*
X5907920Y-20956759D01*
X5907920Y-20956759D02*
X5907920Y-21004378D01*
X5907920Y-21004378D02*
X5917443Y-21023426D01*
X5917443Y-21023426D02*
X5926967Y-21032950D01*
X5926967Y-21032950D02*
X5946015Y-21042473D01*
X5946015Y-21042473D02*
X5984110Y-21042473D01*
X5984110Y-21042473D02*
X6003158Y-21032950D01*
X6003158Y-21032950D02*
X6012682Y-21023426D01*
X6012682Y-21023426D02*
X6022205Y-21004378D01*
X6107920Y-21118664D02*
X6107920Y-20985330D01*
X6107920Y-21004378D02*
X6117443Y-20994854D01*
X6117443Y-20994854D02*
X6136491Y-20985330D01*
X6136491Y-20985330D02*
X6165063Y-20985330D01*
X6165063Y-20985330D02*
X6184110Y-20994854D01*
X6184110Y-20994854D02*
X6193634Y-21013902D01*
X6193634Y-21013902D02*
X6193634Y-21118664D01*
X6193634Y-21013902D02*
X6203158Y-20994854D01*
X6203158Y-20994854D02*
X6222205Y-20985330D01*
X6222205Y-20985330D02*
X6250777Y-20985330D01*
X6250777Y-20985330D02*
X6269824Y-20994854D01*
X6269824Y-20994854D02*
X6279348Y-21013902D01*
X6279348Y-21013902D02*
X6279348Y-21118664D01*
X6374586Y-21118664D02*
X6374586Y-20985330D01*
X6374586Y-21004378D02*
X6384110Y-20994854D01*
X6384110Y-20994854D02*
X6403158Y-20985330D01*
X6403158Y-20985330D02*
X6431729Y-20985330D01*
X6431729Y-20985330D02*
X6450777Y-20994854D01*
X6450777Y-20994854D02*
X6460301Y-21013902D01*
X6460301Y-21013902D02*
X6460301Y-21118664D01*
X6460301Y-21013902D02*
X6469824Y-20994854D01*
X6469824Y-20994854D02*
X6488872Y-20985330D01*
X6488872Y-20985330D02*
X6517443Y-20985330D01*
X6517443Y-20985330D02*
X6536491Y-20994854D01*
X6536491Y-20994854D02*
X6546015Y-21013902D01*
X6546015Y-21013902D02*
X6546015Y-21118664D01*
X6936491Y-20909140D02*
X6765063Y-21166283D01*
X7193634Y-20918664D02*
X7212682Y-20918664D01*
X7212682Y-20918664D02*
X7231729Y-20928188D01*
X7231729Y-20928188D02*
X7241253Y-20937711D01*
X7241253Y-20937711D02*
X7250777Y-20956759D01*
X7250777Y-20956759D02*
X7260301Y-20994854D01*
X7260301Y-20994854D02*
X7260301Y-21042473D01*
X7260301Y-21042473D02*
X7250777Y-21080569D01*
X7250777Y-21080569D02*
X7241253Y-21099616D01*
X7241253Y-21099616D02*
X7231729Y-21109140D01*
X7231729Y-21109140D02*
X7212682Y-21118664D01*
X7212682Y-21118664D02*
X7193634Y-21118664D01*
X7193634Y-21118664D02*
X7174586Y-21109140D01*
X7174586Y-21109140D02*
X7165063Y-21099616D01*
X7165063Y-21099616D02*
X7155539Y-21080569D01*
X7155539Y-21080569D02*
X7146015Y-21042473D01*
X7146015Y-21042473D02*
X7146015Y-20994854D01*
X7146015Y-20994854D02*
X7155539Y-20956759D01*
X7155539Y-20956759D02*
X7165063Y-20937711D01*
X7165063Y-20937711D02*
X7174586Y-20928188D01*
X7174586Y-20928188D02*
X7193634Y-20918664D01*
X7346015Y-21099616D02*
X7355539Y-21109140D01*
X7355539Y-21109140D02*
X7346015Y-21118664D01*
X7346015Y-21118664D02*
X7336491Y-21109140D01*
X7336491Y-21109140D02*
X7346015Y-21099616D01*
X7346015Y-21099616D02*
X7346015Y-21118664D01*
X7546015Y-21118664D02*
X7431729Y-21118664D01*
X7488872Y-21118664D02*
X7488872Y-20918664D01*
X7488872Y-20918664D02*
X7469825Y-20947235D01*
X7469825Y-20947235D02*
X7450777Y-20966283D01*
X7450777Y-20966283D02*
X7431729Y-20975807D01*
X7612682Y-20918664D02*
X7736491Y-20918664D01*
X7736491Y-20918664D02*
X7669825Y-20994854D01*
X7669825Y-20994854D02*
X7698396Y-20994854D01*
X7698396Y-20994854D02*
X7717444Y-21004378D01*
X7717444Y-21004378D02*
X7726967Y-21013902D01*
X7726967Y-21013902D02*
X7736491Y-21032950D01*
X7736491Y-21032950D02*
X7736491Y-21080569D01*
X7736491Y-21080569D02*
X7726967Y-21099616D01*
X7726967Y-21099616D02*
X7717444Y-21109140D01*
X7717444Y-21109140D02*
X7698396Y-21118664D01*
X7698396Y-21118664D02*
X7641253Y-21118664D01*
X7641253Y-21118664D02*
X7622206Y-21109140D01*
X7622206Y-21109140D02*
X7612682Y-21099616D01*
X7917444Y-20918664D02*
X7822206Y-20918664D01*
X7822206Y-20918664D02*
X7812682Y-21013902D01*
X7812682Y-21013902D02*
X7822206Y-21004378D01*
X7822206Y-21004378D02*
X7841253Y-20994854D01*
X7841253Y-20994854D02*
X7888872Y-20994854D01*
X7888872Y-20994854D02*
X7907920Y-21004378D01*
X7907920Y-21004378D02*
X7917444Y-21013902D01*
X7917444Y-21013902D02*
X7926967Y-21032950D01*
X7926967Y-21032950D02*
X7926967Y-21080569D01*
X7926967Y-21080569D02*
X7917444Y-21099616D01*
X7917444Y-21099616D02*
X7907920Y-21109140D01*
X7907920Y-21109140D02*
X7888872Y-21118664D01*
X7888872Y-21118664D02*
X7841253Y-21118664D01*
X7841253Y-21118664D02*
X7822206Y-21109140D01*
X7822206Y-21109140D02*
X7812682Y-21099616D01*
X8050777Y-20918664D02*
X8069825Y-20918664D01*
X8069825Y-20918664D02*
X8088872Y-20928188D01*
X8088872Y-20928188D02*
X8098396Y-20937711D01*
X8098396Y-20937711D02*
X8107920Y-20956759D01*
X8107920Y-20956759D02*
X8117444Y-20994854D01*
X8117444Y-20994854D02*
X8117444Y-21042473D01*
X8117444Y-21042473D02*
X8107920Y-21080569D01*
X8107920Y-21080569D02*
X8098396Y-21099616D01*
X8098396Y-21099616D02*
X8088872Y-21109140D01*
X8088872Y-21109140D02*
X8069825Y-21118664D01*
X8069825Y-21118664D02*
X8050777Y-21118664D01*
X8050777Y-21118664D02*
X8031729Y-21109140D01*
X8031729Y-21109140D02*
X8022206Y-21099616D01*
X8022206Y-21099616D02*
X8012682Y-21080569D01*
X8012682Y-21080569D02*
X8003158Y-21042473D01*
X8003158Y-21042473D02*
X8003158Y-20994854D01*
X8003158Y-20994854D02*
X8012682Y-20956759D01*
X8012682Y-20956759D02*
X8022206Y-20937711D01*
X8022206Y-20937711D02*
X8031729Y-20928188D01*
X8031729Y-20928188D02*
X8050777Y-20918664D01*
X8193634Y-20918664D02*
X8193634Y-20956759D01*
X8269825Y-20918664D02*
X8269825Y-20956759D01*
X8565063Y-21194854D02*
X8555539Y-21185330D01*
X8555539Y-21185330D02*
X8536491Y-21156759D01*
X8536491Y-21156759D02*
X8526968Y-21137711D01*
X8526968Y-21137711D02*
X8517444Y-21109140D01*
X8517444Y-21109140D02*
X8507920Y-21061521D01*
X8507920Y-21061521D02*
X8507920Y-21023426D01*
X8507920Y-21023426D02*
X8517444Y-20975807D01*
X8517444Y-20975807D02*
X8526968Y-20947235D01*
X8526968Y-20947235D02*
X8536491Y-20928188D01*
X8536491Y-20928188D02*
X8555539Y-20899616D01*
X8555539Y-20899616D02*
X8565063Y-20890092D01*
X8746015Y-21118664D02*
X8631730Y-21118664D01*
X8688872Y-21118664D02*
X8688872Y-20918664D01*
X8688872Y-20918664D02*
X8669825Y-20947235D01*
X8669825Y-20947235D02*
X8650777Y-20966283D01*
X8650777Y-20966283D02*
X8631730Y-20975807D01*
X8926968Y-20918664D02*
X8831730Y-20918664D01*
X8831730Y-20918664D02*
X8822206Y-21013902D01*
X8822206Y-21013902D02*
X8831730Y-21004378D01*
X8831730Y-21004378D02*
X8850777Y-20994854D01*
X8850777Y-20994854D02*
X8898396Y-20994854D01*
X8898396Y-20994854D02*
X8917444Y-21004378D01*
X8917444Y-21004378D02*
X8926968Y-21013902D01*
X8926968Y-21013902D02*
X8936491Y-21032950D01*
X8936491Y-21032950D02*
X8936491Y-21080569D01*
X8936491Y-21080569D02*
X8926968Y-21099616D01*
X8926968Y-21099616D02*
X8917444Y-21109140D01*
X8917444Y-21109140D02*
X8898396Y-21118664D01*
X8898396Y-21118664D02*
X8850777Y-21118664D01*
X8850777Y-21118664D02*
X8831730Y-21109140D01*
X8831730Y-21109140D02*
X8822206Y-21099616D01*
X9174587Y-21118664D02*
X9174587Y-20918664D01*
X9260301Y-21118664D02*
X9260301Y-21013902D01*
X9260301Y-21013902D02*
X9250777Y-20994854D01*
X9250777Y-20994854D02*
X9231730Y-20985330D01*
X9231730Y-20985330D02*
X9203158Y-20985330D01*
X9203158Y-20985330D02*
X9184111Y-20994854D01*
X9184111Y-20994854D02*
X9174587Y-21004378D01*
X9384111Y-21118664D02*
X9365063Y-21109140D01*
X9365063Y-21109140D02*
X9355539Y-21099616D01*
X9355539Y-21099616D02*
X9346015Y-21080569D01*
X9346015Y-21080569D02*
X9346015Y-21023426D01*
X9346015Y-21023426D02*
X9355539Y-21004378D01*
X9355539Y-21004378D02*
X9365063Y-20994854D01*
X9365063Y-20994854D02*
X9384111Y-20985330D01*
X9384111Y-20985330D02*
X9412682Y-20985330D01*
X9412682Y-20985330D02*
X9431730Y-20994854D01*
X9431730Y-20994854D02*
X9441253Y-21004378D01*
X9441253Y-21004378D02*
X9450777Y-21023426D01*
X9450777Y-21023426D02*
X9450777Y-21080569D01*
X9450777Y-21080569D02*
X9441253Y-21099616D01*
X9441253Y-21099616D02*
X9431730Y-21109140D01*
X9431730Y-21109140D02*
X9412682Y-21118664D01*
X9412682Y-21118664D02*
X9384111Y-21118664D01*
X9565063Y-21118664D02*
X9546015Y-21109140D01*
X9546015Y-21109140D02*
X9536492Y-21090092D01*
X9536492Y-21090092D02*
X9536492Y-20918664D01*
X9717444Y-21109140D02*
X9698396Y-21118664D01*
X9698396Y-21118664D02*
X9660301Y-21118664D01*
X9660301Y-21118664D02*
X9641253Y-21109140D01*
X9641253Y-21109140D02*
X9631730Y-21090092D01*
X9631730Y-21090092D02*
X9631730Y-21013902D01*
X9631730Y-21013902D02*
X9641253Y-20994854D01*
X9641253Y-20994854D02*
X9660301Y-20985330D01*
X9660301Y-20985330D02*
X9698396Y-20985330D01*
X9698396Y-20985330D02*
X9717444Y-20994854D01*
X9717444Y-20994854D02*
X9726968Y-21013902D01*
X9726968Y-21013902D02*
X9726968Y-21032950D01*
X9726968Y-21032950D02*
X9631730Y-21051997D01*
X9803158Y-21109140D02*
X9822206Y-21118664D01*
X9822206Y-21118664D02*
X9860301Y-21118664D01*
X9860301Y-21118664D02*
X9879349Y-21109140D01*
X9879349Y-21109140D02*
X9888873Y-21090092D01*
X9888873Y-21090092D02*
X9888873Y-21080569D01*
X9888873Y-21080569D02*
X9879349Y-21061521D01*
X9879349Y-21061521D02*
X9860301Y-21051997D01*
X9860301Y-21051997D02*
X9831730Y-21051997D01*
X9831730Y-21051997D02*
X9812682Y-21042473D01*
X9812682Y-21042473D02*
X9803158Y-21023426D01*
X9803158Y-21023426D02*
X9803158Y-21013902D01*
X9803158Y-21013902D02*
X9812682Y-20994854D01*
X9812682Y-20994854D02*
X9831730Y-20985330D01*
X9831730Y-20985330D02*
X9860301Y-20985330D01*
X9860301Y-20985330D02*
X9879349Y-20994854D01*
X9955539Y-21194854D02*
X9965063Y-21185330D01*
X9965063Y-21185330D02*
X9984111Y-21156759D01*
X9984111Y-21156759D02*
X9993634Y-21137711D01*
X9993634Y-21137711D02*
X10003158Y-21109140D01*
X10003158Y-21109140D02*
X10012682Y-21061521D01*
X10012682Y-21061521D02*
X10012682Y-21023426D01*
X10012682Y-21023426D02*
X10003158Y-20975807D01*
X10003158Y-20975807D02*
X9993634Y-20947235D01*
X9993634Y-20947235D02*
X9984111Y-20928188D01*
X9984111Y-20928188D02*
X9965063Y-20899616D01*
X9965063Y-20899616D02*
X9955539Y-20890092D01*
X10317444Y-21194854D02*
X10307920Y-21185330D01*
X10307920Y-21185330D02*
X10288873Y-21156759D01*
X10288873Y-21156759D02*
X10279349Y-21137711D01*
X10279349Y-21137711D02*
X10269825Y-21109140D01*
X10269825Y-21109140D02*
X10260301Y-21061521D01*
X10260301Y-21061521D02*
X10260301Y-21023426D01*
X10260301Y-21023426D02*
X10269825Y-20975807D01*
X10269825Y-20975807D02*
X10279349Y-20947235D01*
X10279349Y-20947235D02*
X10288873Y-20928188D01*
X10288873Y-20928188D02*
X10307920Y-20899616D01*
X10307920Y-20899616D02*
X10317444Y-20890092D01*
X10393634Y-20985330D02*
X10393634Y-21118664D01*
X10393634Y-21004378D02*
X10403158Y-20994854D01*
X10403158Y-20994854D02*
X10422206Y-20985330D01*
X10422206Y-20985330D02*
X10450777Y-20985330D01*
X10450777Y-20985330D02*
X10469825Y-20994854D01*
X10469825Y-20994854D02*
X10479349Y-21013902D01*
X10479349Y-21013902D02*
X10479349Y-21118664D01*
X10603158Y-21118664D02*
X10584111Y-21109140D01*
X10584111Y-21109140D02*
X10574587Y-21099616D01*
X10574587Y-21099616D02*
X10565063Y-21080569D01*
X10565063Y-21080569D02*
X10565063Y-21023426D01*
X10565063Y-21023426D02*
X10574587Y-21004378D01*
X10574587Y-21004378D02*
X10584111Y-20994854D01*
X10584111Y-20994854D02*
X10603158Y-20985330D01*
X10603158Y-20985330D02*
X10631730Y-20985330D01*
X10631730Y-20985330D02*
X10650777Y-20994854D01*
X10650777Y-20994854D02*
X10660301Y-21004378D01*
X10660301Y-21004378D02*
X10669825Y-21023426D01*
X10669825Y-21023426D02*
X10669825Y-21080569D01*
X10669825Y-21080569D02*
X10660301Y-21099616D01*
X10660301Y-21099616D02*
X10650777Y-21109140D01*
X10650777Y-21109140D02*
X10631730Y-21118664D01*
X10631730Y-21118664D02*
X10603158Y-21118664D01*
X10726968Y-20985330D02*
X10803158Y-20985330D01*
X10755539Y-20918664D02*
X10755539Y-21090092D01*
X10755539Y-21090092D02*
X10765063Y-21109140D01*
X10765063Y-21109140D02*
X10784111Y-21118664D01*
X10784111Y-21118664D02*
X10803158Y-21118664D01*
X11022206Y-20985330D02*
X11022206Y-21185330D01*
X11022206Y-20994854D02*
X11041254Y-20985330D01*
X11041254Y-20985330D02*
X11079349Y-20985330D01*
X11079349Y-20985330D02*
X11098396Y-20994854D01*
X11098396Y-20994854D02*
X11107920Y-21004378D01*
X11107920Y-21004378D02*
X11117444Y-21023426D01*
X11117444Y-21023426D02*
X11117444Y-21080569D01*
X11117444Y-21080569D02*
X11107920Y-21099616D01*
X11107920Y-21099616D02*
X11098396Y-21109140D01*
X11098396Y-21109140D02*
X11079349Y-21118664D01*
X11079349Y-21118664D02*
X11041254Y-21118664D01*
X11041254Y-21118664D02*
X11022206Y-21109140D01*
X11231730Y-21118664D02*
X11212682Y-21109140D01*
X11212682Y-21109140D02*
X11203158Y-21090092D01*
X11203158Y-21090092D02*
X11203158Y-20918664D01*
X11393634Y-21118664D02*
X11393634Y-21013902D01*
X11393634Y-21013902D02*
X11384111Y-20994854D01*
X11384111Y-20994854D02*
X11365063Y-20985330D01*
X11365063Y-20985330D02*
X11326968Y-20985330D01*
X11326968Y-20985330D02*
X11307920Y-20994854D01*
X11393634Y-21109140D02*
X11374587Y-21118664D01*
X11374587Y-21118664D02*
X11326968Y-21118664D01*
X11326968Y-21118664D02*
X11307920Y-21109140D01*
X11307920Y-21109140D02*
X11298396Y-21090092D01*
X11298396Y-21090092D02*
X11298396Y-21071045D01*
X11298396Y-21071045D02*
X11307920Y-21051997D01*
X11307920Y-21051997D02*
X11326968Y-21042473D01*
X11326968Y-21042473D02*
X11374587Y-21042473D01*
X11374587Y-21042473D02*
X11393634Y-21032950D01*
X11460301Y-20985330D02*
X11536492Y-20985330D01*
X11488873Y-20918664D02*
X11488873Y-21090092D01*
X11488873Y-21090092D02*
X11498396Y-21109140D01*
X11498396Y-21109140D02*
X11517444Y-21118664D01*
X11517444Y-21118664D02*
X11536492Y-21118664D01*
X11679349Y-21109140D02*
X11660301Y-21118664D01*
X11660301Y-21118664D02*
X11622206Y-21118664D01*
X11622206Y-21118664D02*
X11603158Y-21109140D01*
X11603158Y-21109140D02*
X11593634Y-21090092D01*
X11593634Y-21090092D02*
X11593634Y-21013902D01*
X11593634Y-21013902D02*
X11603158Y-20994854D01*
X11603158Y-20994854D02*
X11622206Y-20985330D01*
X11622206Y-20985330D02*
X11660301Y-20985330D01*
X11660301Y-20985330D02*
X11679349Y-20994854D01*
X11679349Y-20994854D02*
X11688873Y-21013902D01*
X11688873Y-21013902D02*
X11688873Y-21032950D01*
X11688873Y-21032950D02*
X11593634Y-21051997D01*
X11860301Y-21118664D02*
X11860301Y-20918664D01*
X11860301Y-21109140D02*
X11841254Y-21118664D01*
X11841254Y-21118664D02*
X11803158Y-21118664D01*
X11803158Y-21118664D02*
X11784111Y-21109140D01*
X11784111Y-21109140D02*
X11774587Y-21099616D01*
X11774587Y-21099616D02*
X11765063Y-21080569D01*
X11765063Y-21080569D02*
X11765063Y-21023426D01*
X11765063Y-21023426D02*
X11774587Y-21004378D01*
X11774587Y-21004378D02*
X11784111Y-20994854D01*
X11784111Y-20994854D02*
X11803158Y-20985330D01*
X11803158Y-20985330D02*
X11841254Y-20985330D01*
X11841254Y-20985330D02*
X11860301Y-20994854D01*
X11936492Y-21194854D02*
X11946015Y-21185330D01*
X11946015Y-21185330D02*
X11965063Y-21156759D01*
X11965063Y-21156759D02*
X11974587Y-21137711D01*
X11974587Y-21137711D02*
X11984111Y-21109140D01*
X11984111Y-21109140D02*
X11993634Y-21061521D01*
X11993634Y-21061521D02*
X11993634Y-21023426D01*
X11993634Y-21023426D02*
X11984111Y-20975807D01*
X11984111Y-20975807D02*
X11974587Y-20947235D01*
X11974587Y-20947235D02*
X11965063Y-20928188D01*
X11965063Y-20928188D02*
X11946015Y-20899616D01*
X11946015Y-20899616D02*
X11936492Y-20890092D01*
M02*
