%TF.GenerationSoftware,KiCad,Pcbnew,7.0.9*%
%TF.CreationDate,2023-12-16T20:19:45+09:00*%
%TF.ProjectId,ergoSHIFT-rev1-kicad,6572676f-5348-4494-9654-2d726576312d,rev?*%
%TF.SameCoordinates,Original*%
%TF.FileFunction,Drillmap*%
%TF.FilePolarity,Positive*%
%FSLAX45Y45*%
G04 Gerber Fmt 4.5, Leading zero omitted, Abs format (unit mm)*
G04 Created by KiCad (PCBNEW 7.0.9) date 2023-12-16 20:19:45*
%MOMM*%
%LPD*%
G01*
G04 APERTURE LIST*
%ADD10C,0.200000*%
%ADD11C,0.170180*%
%ADD12C,0.300000*%
%ADD13C,0.342900*%
G04 APERTURE END LIST*
D10*
X13560000Y-5350000D02*
X13560000Y-8468000D01*
X13710000Y-5200000D02*
G75*
G03*
X13560000Y-5350000I0J-150000D01*
G01*
X15760000Y-19212000D02*
G75*
G03*
X15760000Y-19212000I-160000J0D01*
G01*
X6015000Y-5955000D02*
G75*
G03*
X6015000Y-5955000I-160000J0D01*
G01*
X28017000Y-19967000D02*
G75*
G03*
X28417000Y-19567000I0J400000D01*
G01*
X5100000Y-5600000D02*
X5100000Y-19567000D01*
X12340000Y-5350000D02*
X12340000Y-8468000D01*
X12490000Y-8618000D02*
X13410000Y-8618000D01*
X12340000Y-5350000D02*
G75*
G03*
X12190000Y-5200000I-150000J0D01*
G01*
X5500000Y-5200000D02*
X12190000Y-5200000D01*
X13710000Y-5200000D02*
X28017000Y-5200000D01*
X27822000Y-5955000D02*
G75*
G03*
X27822000Y-5955000I-160000J0D01*
G01*
X27822000Y-19212000D02*
G75*
G03*
X27822000Y-19212000I-160000J0D01*
G01*
X5500000Y-5200000D02*
G75*
G03*
X5100000Y-5600000I0J-400000D01*
G01*
X13410000Y-8618000D02*
G75*
G03*
X13560000Y-8468000I0J150000D01*
G01*
X6015000Y-19212000D02*
G75*
G03*
X6015000Y-19212000I-160000J0D01*
G01*
X5100000Y-19567000D02*
G75*
G03*
X5500000Y-19967000I400000J0D01*
G01*
X12340000Y-8468000D02*
G75*
G03*
X12490000Y-8618000I150000J0D01*
G01*
X13274000Y-15058000D02*
G75*
G03*
X13274000Y-15058000I-160000J0D01*
G01*
X5500000Y-19967000D02*
X28017000Y-19967000D01*
X28417000Y-5600000D02*
X28417000Y-19567000D01*
X15760000Y-5955000D02*
G75*
G03*
X15760000Y-5955000I-160000J0D01*
G01*
X28417000Y-5600000D02*
G75*
G03*
X28017000Y-5200000I-400000J0D01*
G01*
D11*
X6639910Y-11389910D02*
X6810090Y-11560090D01*
X6810090Y-11389910D02*
X6639910Y-11560090D01*
X7739910Y-11389910D02*
X7910090Y-11560090D01*
X7910090Y-11389910D02*
X7739910Y-11560090D01*
X9501910Y-11389910D02*
X9672090Y-11560090D01*
X9672090Y-11389910D02*
X9501910Y-11560090D01*
X10186910Y-17161910D02*
X10357090Y-17332090D01*
X10357090Y-17161910D02*
X10186910Y-17332090D01*
X10601910Y-11389910D02*
X10772090Y-11560090D01*
X10772090Y-11389910D02*
X10601910Y-11560090D01*
X11286910Y-17161910D02*
X11457090Y-17332090D01*
X11457090Y-17161910D02*
X11286910Y-17332090D01*
X12046910Y-12740910D02*
X12217090Y-12911090D01*
X12217090Y-12740910D02*
X12046910Y-12911090D01*
X13146910Y-12740910D02*
X13317090Y-12911090D01*
X13317090Y-12740910D02*
X13146910Y-12911090D01*
X13343910Y-17981910D02*
X13514090Y-18152090D01*
X13514090Y-17981910D02*
X13343910Y-18152090D01*
X14443910Y-17981910D02*
X14614090Y-18152090D01*
X14614090Y-17981910D02*
X14443910Y-18152090D01*
X14553910Y-14495910D02*
X14724090Y-14666090D01*
X14724090Y-14495910D02*
X14553910Y-14666090D01*
X14769910Y-11484910D02*
X14940090Y-11655090D01*
X14940090Y-11484910D02*
X14769910Y-11655090D01*
X15653910Y-14495910D02*
X15824090Y-14666090D01*
X15824090Y-14495910D02*
X15653910Y-14666090D01*
X15869910Y-11484910D02*
X16040090Y-11655090D01*
X16040090Y-11484910D02*
X15869910Y-11655090D01*
X17251910Y-13351910D02*
X17422090Y-13522090D01*
X17422090Y-13351910D02*
X17251910Y-13522090D01*
X17404910Y-10343910D02*
X17575090Y-10514090D01*
X17575090Y-10343910D02*
X17404910Y-10514090D01*
X17718910Y-7289910D02*
X17889090Y-7460090D01*
X17889090Y-7289910D02*
X17718910Y-7460090D01*
X18351910Y-13351910D02*
X18522090Y-13522090D01*
X18522090Y-13351910D02*
X18351910Y-13522090D01*
X18504910Y-10343910D02*
X18675090Y-10514090D01*
X18675090Y-10343910D02*
X18504910Y-10514090D01*
X18818910Y-7289910D02*
X18989090Y-7460090D01*
X18989090Y-7289910D02*
X18818910Y-7460090D01*
X19949910Y-12207910D02*
X20120090Y-12378090D01*
X20120090Y-12207910D02*
X19949910Y-12378090D01*
X20039910Y-9202910D02*
X20210090Y-9373090D01*
X20210090Y-9202910D02*
X20039910Y-9373090D01*
X21049910Y-12207910D02*
X21220090Y-12378090D01*
X21220090Y-12207910D02*
X21049910Y-12378090D01*
X21139910Y-9202910D02*
X21310090Y-9373090D01*
X21310090Y-9202910D02*
X21139910Y-9373090D01*
X22949910Y-8808910D02*
X23120090Y-8979090D01*
X23120090Y-8808910D02*
X22949910Y-8979090D01*
X23086910Y-11753910D02*
X23257090Y-11924090D01*
X23257090Y-11753910D02*
X23086910Y-11924090D01*
X24049910Y-8808910D02*
X24220090Y-8979090D01*
X24220090Y-8808910D02*
X24049910Y-8979090D01*
X24186910Y-11753910D02*
X24357090Y-11924090D01*
X24357090Y-11753910D02*
X24186910Y-11924090D01*
X25706910Y-10225910D02*
X25877090Y-10396090D01*
X25877090Y-10225910D02*
X25706910Y-10396090D01*
X26806910Y-10225910D02*
X26977090Y-10396090D01*
X26977090Y-10225910D02*
X26806910Y-10396090D01*
D12*
X6925000Y-11100000D02*
G75*
G03*
X6925000Y-11100000I-150000J0D01*
G01*
X7425000Y-10880000D02*
G75*
G03*
X7425000Y-10880000I-150000J0D01*
G01*
X7925000Y-11100000D02*
G75*
G03*
X7925000Y-11100000I-150000J0D01*
G01*
X9787000Y-11100000D02*
G75*
G03*
X9787000Y-11100000I-150000J0D01*
G01*
X10287000Y-10880000D02*
G75*
G03*
X10287000Y-10880000I-150000J0D01*
G01*
X10472000Y-16872000D02*
G75*
G03*
X10472000Y-16872000I-150000J0D01*
G01*
X10787000Y-11100000D02*
G75*
G03*
X10787000Y-11100000I-150000J0D01*
G01*
X10972000Y-16652000D02*
G75*
G03*
X10972000Y-16652000I-150000J0D01*
G01*
X11472000Y-16872000D02*
G75*
G03*
X11472000Y-16872000I-150000J0D01*
G01*
X12332000Y-12451000D02*
G75*
G03*
X12332000Y-12451000I-150000J0D01*
G01*
X12832000Y-12231000D02*
G75*
G03*
X12832000Y-12231000I-150000J0D01*
G01*
X13332000Y-12451000D02*
G75*
G03*
X13332000Y-12451000I-150000J0D01*
G01*
X13629000Y-17692000D02*
G75*
G03*
X13629000Y-17692000I-150000J0D01*
G01*
X14129000Y-17472000D02*
G75*
G03*
X14129000Y-17472000I-150000J0D01*
G01*
X14629000Y-17692000D02*
G75*
G03*
X14629000Y-17692000I-150000J0D01*
G01*
X14839000Y-14206000D02*
G75*
G03*
X14839000Y-14206000I-150000J0D01*
G01*
X15055000Y-11195000D02*
G75*
G03*
X15055000Y-11195000I-150000J0D01*
G01*
X15339000Y-13986000D02*
G75*
G03*
X15339000Y-13986000I-150000J0D01*
G01*
X15555000Y-10975000D02*
G75*
G03*
X15555000Y-10975000I-150000J0D01*
G01*
X15839000Y-14206000D02*
G75*
G03*
X15839000Y-14206000I-150000J0D01*
G01*
X16055000Y-11195000D02*
G75*
G03*
X16055000Y-11195000I-150000J0D01*
G01*
X17537000Y-13062000D02*
G75*
G03*
X17537000Y-13062000I-150000J0D01*
G01*
X17690000Y-10054000D02*
G75*
G03*
X17690000Y-10054000I-150000J0D01*
G01*
X18004000Y-7000000D02*
G75*
G03*
X18004000Y-7000000I-150000J0D01*
G01*
X18037000Y-12842000D02*
G75*
G03*
X18037000Y-12842000I-150000J0D01*
G01*
X18190000Y-9834000D02*
G75*
G03*
X18190000Y-9834000I-150000J0D01*
G01*
X18504000Y-6780000D02*
G75*
G03*
X18504000Y-6780000I-150000J0D01*
G01*
X18537000Y-13062000D02*
G75*
G03*
X18537000Y-13062000I-150000J0D01*
G01*
X18690000Y-10054000D02*
G75*
G03*
X18690000Y-10054000I-150000J0D01*
G01*
X19004000Y-7000000D02*
G75*
G03*
X19004000Y-7000000I-150000J0D01*
G01*
X20235000Y-11918000D02*
G75*
G03*
X20235000Y-11918000I-150000J0D01*
G01*
X20325000Y-8913000D02*
G75*
G03*
X20325000Y-8913000I-150000J0D01*
G01*
X20735000Y-11698000D02*
G75*
G03*
X20735000Y-11698000I-150000J0D01*
G01*
X20825000Y-8693000D02*
G75*
G03*
X20825000Y-8693000I-150000J0D01*
G01*
X21235000Y-11918000D02*
G75*
G03*
X21235000Y-11918000I-150000J0D01*
G01*
X21325000Y-8913000D02*
G75*
G03*
X21325000Y-8913000I-150000J0D01*
G01*
X23235000Y-8519000D02*
G75*
G03*
X23235000Y-8519000I-150000J0D01*
G01*
X23372000Y-11464000D02*
G75*
G03*
X23372000Y-11464000I-150000J0D01*
G01*
X23735000Y-8299000D02*
G75*
G03*
X23735000Y-8299000I-150000J0D01*
G01*
X23872000Y-11244000D02*
G75*
G03*
X23872000Y-11244000I-150000J0D01*
G01*
X24235000Y-8519000D02*
G75*
G03*
X24235000Y-8519000I-150000J0D01*
G01*
X24372000Y-11464000D02*
G75*
G03*
X24372000Y-11464000I-150000J0D01*
G01*
X25992000Y-9936000D02*
G75*
G03*
X25992000Y-9936000I-150000J0D01*
G01*
X26492000Y-9716000D02*
G75*
G03*
X26492000Y-9716000I-150000J0D01*
G01*
X26992000Y-9936000D02*
G75*
G03*
X26992000Y-9936000I-150000J0D01*
G01*
D13*
X7275000Y-11303550D02*
X7275000Y-11646450D01*
X7103550Y-11475000D02*
X7446450Y-11475000D01*
X10137000Y-11303550D02*
X10137000Y-11646450D01*
X9965550Y-11475000D02*
X10308450Y-11475000D01*
X10822000Y-17075550D02*
X10822000Y-17418450D01*
X10650550Y-17247000D02*
X10993450Y-17247000D01*
X12682000Y-12654550D02*
X12682000Y-12997450D01*
X12510550Y-12826000D02*
X12853450Y-12826000D01*
X13979000Y-17895550D02*
X13979000Y-18238450D01*
X13807550Y-18067000D02*
X14150450Y-18067000D01*
X15189000Y-14409550D02*
X15189000Y-14752450D01*
X15017550Y-14581000D02*
X15360450Y-14581000D01*
X15405000Y-11398550D02*
X15405000Y-11741450D01*
X15233550Y-11570000D02*
X15576450Y-11570000D01*
X17887000Y-13265550D02*
X17887000Y-13608450D01*
X17715550Y-13437000D02*
X18058450Y-13437000D01*
X18040000Y-10257550D02*
X18040000Y-10600450D01*
X17868550Y-10429000D02*
X18211450Y-10429000D01*
X18354000Y-7203550D02*
X18354000Y-7546450D01*
X18182550Y-7375000D02*
X18525450Y-7375000D01*
X20585000Y-12121550D02*
X20585000Y-12464450D01*
X20413550Y-12293000D02*
X20756450Y-12293000D01*
X20675000Y-9116550D02*
X20675000Y-9459450D01*
X20503550Y-9288000D02*
X20846450Y-9288000D01*
X23585000Y-8722550D02*
X23585000Y-9065450D01*
X23413550Y-8894000D02*
X23756450Y-8894000D01*
X23722000Y-11667550D02*
X23722000Y-12010450D01*
X23550550Y-11839000D02*
X23893450Y-11839000D01*
X26342000Y-10139550D02*
X26342000Y-10482450D01*
X26170550Y-10311000D02*
X26513450Y-10311000D01*
D10*
X5350777Y-20288484D02*
X5350777Y-20088484D01*
X5350777Y-20088484D02*
X5398396Y-20088484D01*
X5398396Y-20088484D02*
X5426967Y-20098008D01*
X5426967Y-20098008D02*
X5446015Y-20117055D01*
X5446015Y-20117055D02*
X5455539Y-20136103D01*
X5455539Y-20136103D02*
X5465063Y-20174198D01*
X5465063Y-20174198D02*
X5465063Y-20202770D01*
X5465063Y-20202770D02*
X5455539Y-20240865D01*
X5455539Y-20240865D02*
X5446015Y-20259912D01*
X5446015Y-20259912D02*
X5426967Y-20278960D01*
X5426967Y-20278960D02*
X5398396Y-20288484D01*
X5398396Y-20288484D02*
X5350777Y-20288484D01*
X5550777Y-20288484D02*
X5550777Y-20155150D01*
X5550777Y-20193246D02*
X5560301Y-20174198D01*
X5560301Y-20174198D02*
X5569824Y-20164674D01*
X5569824Y-20164674D02*
X5588872Y-20155150D01*
X5588872Y-20155150D02*
X5607920Y-20155150D01*
X5674586Y-20288484D02*
X5674586Y-20155150D01*
X5674586Y-20088484D02*
X5665062Y-20098008D01*
X5665062Y-20098008D02*
X5674586Y-20107531D01*
X5674586Y-20107531D02*
X5684110Y-20098008D01*
X5684110Y-20098008D02*
X5674586Y-20088484D01*
X5674586Y-20088484D02*
X5674586Y-20107531D01*
X5798396Y-20288484D02*
X5779348Y-20278960D01*
X5779348Y-20278960D02*
X5769824Y-20259912D01*
X5769824Y-20259912D02*
X5769824Y-20088484D01*
X5903158Y-20288484D02*
X5884110Y-20278960D01*
X5884110Y-20278960D02*
X5874586Y-20259912D01*
X5874586Y-20259912D02*
X5874586Y-20088484D01*
X6131729Y-20288484D02*
X6131729Y-20088484D01*
X6131729Y-20088484D02*
X6198396Y-20231341D01*
X6198396Y-20231341D02*
X6265062Y-20088484D01*
X6265062Y-20088484D02*
X6265062Y-20288484D01*
X6446015Y-20288484D02*
X6446015Y-20183722D01*
X6446015Y-20183722D02*
X6436491Y-20164674D01*
X6436491Y-20164674D02*
X6417443Y-20155150D01*
X6417443Y-20155150D02*
X6379348Y-20155150D01*
X6379348Y-20155150D02*
X6360301Y-20164674D01*
X6446015Y-20278960D02*
X6426967Y-20288484D01*
X6426967Y-20288484D02*
X6379348Y-20288484D01*
X6379348Y-20288484D02*
X6360301Y-20278960D01*
X6360301Y-20278960D02*
X6350777Y-20259912D01*
X6350777Y-20259912D02*
X6350777Y-20240865D01*
X6350777Y-20240865D02*
X6360301Y-20221817D01*
X6360301Y-20221817D02*
X6379348Y-20212293D01*
X6379348Y-20212293D02*
X6426967Y-20212293D01*
X6426967Y-20212293D02*
X6446015Y-20202770D01*
X6541253Y-20155150D02*
X6541253Y-20355150D01*
X6541253Y-20164674D02*
X6560301Y-20155150D01*
X6560301Y-20155150D02*
X6598396Y-20155150D01*
X6598396Y-20155150D02*
X6617443Y-20164674D01*
X6617443Y-20164674D02*
X6626967Y-20174198D01*
X6626967Y-20174198D02*
X6636491Y-20193246D01*
X6636491Y-20193246D02*
X6636491Y-20250389D01*
X6636491Y-20250389D02*
X6626967Y-20269436D01*
X6626967Y-20269436D02*
X6617443Y-20278960D01*
X6617443Y-20278960D02*
X6598396Y-20288484D01*
X6598396Y-20288484D02*
X6560301Y-20288484D01*
X6560301Y-20288484D02*
X6541253Y-20278960D01*
X6722205Y-20269436D02*
X6731729Y-20278960D01*
X6731729Y-20278960D02*
X6722205Y-20288484D01*
X6722205Y-20288484D02*
X6712682Y-20278960D01*
X6712682Y-20278960D02*
X6722205Y-20269436D01*
X6722205Y-20269436D02*
X6722205Y-20288484D01*
X6722205Y-20164674D02*
X6731729Y-20174198D01*
X6731729Y-20174198D02*
X6722205Y-20183722D01*
X6722205Y-20183722D02*
X6712682Y-20174198D01*
X6712682Y-20174198D02*
X6722205Y-20164674D01*
X6722205Y-20164674D02*
X6722205Y-20183722D01*
D11*
X4919820Y-20531910D02*
X5090000Y-20702090D01*
X5090000Y-20531910D02*
X4919820Y-20702090D01*
D10*
X5455539Y-20708484D02*
X5341253Y-20708484D01*
X5398396Y-20708484D02*
X5398396Y-20508484D01*
X5398396Y-20508484D02*
X5379348Y-20537055D01*
X5379348Y-20537055D02*
X5360301Y-20556103D01*
X5360301Y-20556103D02*
X5341253Y-20565627D01*
X5541253Y-20689436D02*
X5550777Y-20698960D01*
X5550777Y-20698960D02*
X5541253Y-20708484D01*
X5541253Y-20708484D02*
X5531729Y-20698960D01*
X5531729Y-20698960D02*
X5541253Y-20689436D01*
X5541253Y-20689436D02*
X5541253Y-20708484D01*
X5617443Y-20508484D02*
X5750777Y-20508484D01*
X5750777Y-20508484D02*
X5665062Y-20708484D01*
X5865062Y-20508484D02*
X5884110Y-20508484D01*
X5884110Y-20508484D02*
X5903158Y-20518008D01*
X5903158Y-20518008D02*
X5912682Y-20527531D01*
X5912682Y-20527531D02*
X5922205Y-20546579D01*
X5922205Y-20546579D02*
X5931729Y-20584674D01*
X5931729Y-20584674D02*
X5931729Y-20632293D01*
X5931729Y-20632293D02*
X5922205Y-20670389D01*
X5922205Y-20670389D02*
X5912682Y-20689436D01*
X5912682Y-20689436D02*
X5903158Y-20698960D01*
X5903158Y-20698960D02*
X5884110Y-20708484D01*
X5884110Y-20708484D02*
X5865062Y-20708484D01*
X5865062Y-20708484D02*
X5846015Y-20698960D01*
X5846015Y-20698960D02*
X5836491Y-20689436D01*
X5836491Y-20689436D02*
X5826967Y-20670389D01*
X5826967Y-20670389D02*
X5817443Y-20632293D01*
X5817443Y-20632293D02*
X5817443Y-20584674D01*
X5817443Y-20584674D02*
X5826967Y-20546579D01*
X5826967Y-20546579D02*
X5836491Y-20527531D01*
X5836491Y-20527531D02*
X5846015Y-20518008D01*
X5846015Y-20518008D02*
X5865062Y-20508484D01*
X6007920Y-20527531D02*
X6017443Y-20518008D01*
X6017443Y-20518008D02*
X6036491Y-20508484D01*
X6036491Y-20508484D02*
X6084110Y-20508484D01*
X6084110Y-20508484D02*
X6103158Y-20518008D01*
X6103158Y-20518008D02*
X6112682Y-20527531D01*
X6112682Y-20527531D02*
X6122205Y-20546579D01*
X6122205Y-20546579D02*
X6122205Y-20565627D01*
X6122205Y-20565627D02*
X6112682Y-20594198D01*
X6112682Y-20594198D02*
X5998396Y-20708484D01*
X5998396Y-20708484D02*
X6122205Y-20708484D01*
X6207920Y-20708484D02*
X6207920Y-20575150D01*
X6207920Y-20594198D02*
X6217443Y-20584674D01*
X6217443Y-20584674D02*
X6236491Y-20575150D01*
X6236491Y-20575150D02*
X6265063Y-20575150D01*
X6265063Y-20575150D02*
X6284110Y-20584674D01*
X6284110Y-20584674D02*
X6293634Y-20603722D01*
X6293634Y-20603722D02*
X6293634Y-20708484D01*
X6293634Y-20603722D02*
X6303158Y-20584674D01*
X6303158Y-20584674D02*
X6322205Y-20575150D01*
X6322205Y-20575150D02*
X6350777Y-20575150D01*
X6350777Y-20575150D02*
X6369824Y-20584674D01*
X6369824Y-20584674D02*
X6379348Y-20603722D01*
X6379348Y-20603722D02*
X6379348Y-20708484D01*
X6474586Y-20708484D02*
X6474586Y-20575150D01*
X6474586Y-20594198D02*
X6484110Y-20584674D01*
X6484110Y-20584674D02*
X6503158Y-20575150D01*
X6503158Y-20575150D02*
X6531729Y-20575150D01*
X6531729Y-20575150D02*
X6550777Y-20584674D01*
X6550777Y-20584674D02*
X6560301Y-20603722D01*
X6560301Y-20603722D02*
X6560301Y-20708484D01*
X6560301Y-20603722D02*
X6569824Y-20584674D01*
X6569824Y-20584674D02*
X6588872Y-20575150D01*
X6588872Y-20575150D02*
X6617443Y-20575150D01*
X6617443Y-20575150D02*
X6636491Y-20584674D01*
X6636491Y-20584674D02*
X6646015Y-20603722D01*
X6646015Y-20603722D02*
X6646015Y-20708484D01*
X7036491Y-20498960D02*
X6865063Y-20756103D01*
X7293634Y-20508484D02*
X7312682Y-20508484D01*
X7312682Y-20508484D02*
X7331729Y-20518008D01*
X7331729Y-20518008D02*
X7341253Y-20527531D01*
X7341253Y-20527531D02*
X7350777Y-20546579D01*
X7350777Y-20546579D02*
X7360301Y-20584674D01*
X7360301Y-20584674D02*
X7360301Y-20632293D01*
X7360301Y-20632293D02*
X7350777Y-20670389D01*
X7350777Y-20670389D02*
X7341253Y-20689436D01*
X7341253Y-20689436D02*
X7331729Y-20698960D01*
X7331729Y-20698960D02*
X7312682Y-20708484D01*
X7312682Y-20708484D02*
X7293634Y-20708484D01*
X7293634Y-20708484D02*
X7274586Y-20698960D01*
X7274586Y-20698960D02*
X7265063Y-20689436D01*
X7265063Y-20689436D02*
X7255539Y-20670389D01*
X7255539Y-20670389D02*
X7246015Y-20632293D01*
X7246015Y-20632293D02*
X7246015Y-20584674D01*
X7246015Y-20584674D02*
X7255539Y-20546579D01*
X7255539Y-20546579D02*
X7265063Y-20527531D01*
X7265063Y-20527531D02*
X7274586Y-20518008D01*
X7274586Y-20518008D02*
X7293634Y-20508484D01*
X7446015Y-20689436D02*
X7455539Y-20698960D01*
X7455539Y-20698960D02*
X7446015Y-20708484D01*
X7446015Y-20708484D02*
X7436491Y-20698960D01*
X7436491Y-20698960D02*
X7446015Y-20689436D01*
X7446015Y-20689436D02*
X7446015Y-20708484D01*
X7579348Y-20508484D02*
X7598396Y-20508484D01*
X7598396Y-20508484D02*
X7617444Y-20518008D01*
X7617444Y-20518008D02*
X7626967Y-20527531D01*
X7626967Y-20527531D02*
X7636491Y-20546579D01*
X7636491Y-20546579D02*
X7646015Y-20584674D01*
X7646015Y-20584674D02*
X7646015Y-20632293D01*
X7646015Y-20632293D02*
X7636491Y-20670389D01*
X7636491Y-20670389D02*
X7626967Y-20689436D01*
X7626967Y-20689436D02*
X7617444Y-20698960D01*
X7617444Y-20698960D02*
X7598396Y-20708484D01*
X7598396Y-20708484D02*
X7579348Y-20708484D01*
X7579348Y-20708484D02*
X7560301Y-20698960D01*
X7560301Y-20698960D02*
X7550777Y-20689436D01*
X7550777Y-20689436D02*
X7541253Y-20670389D01*
X7541253Y-20670389D02*
X7531729Y-20632293D01*
X7531729Y-20632293D02*
X7531729Y-20584674D01*
X7531729Y-20584674D02*
X7541253Y-20546579D01*
X7541253Y-20546579D02*
X7550777Y-20527531D01*
X7550777Y-20527531D02*
X7560301Y-20518008D01*
X7560301Y-20518008D02*
X7579348Y-20508484D01*
X7817444Y-20508484D02*
X7779348Y-20508484D01*
X7779348Y-20508484D02*
X7760301Y-20518008D01*
X7760301Y-20518008D02*
X7750777Y-20527531D01*
X7750777Y-20527531D02*
X7731729Y-20556103D01*
X7731729Y-20556103D02*
X7722206Y-20594198D01*
X7722206Y-20594198D02*
X7722206Y-20670389D01*
X7722206Y-20670389D02*
X7731729Y-20689436D01*
X7731729Y-20689436D02*
X7741253Y-20698960D01*
X7741253Y-20698960D02*
X7760301Y-20708484D01*
X7760301Y-20708484D02*
X7798396Y-20708484D01*
X7798396Y-20708484D02*
X7817444Y-20698960D01*
X7817444Y-20698960D02*
X7826967Y-20689436D01*
X7826967Y-20689436D02*
X7836491Y-20670389D01*
X7836491Y-20670389D02*
X7836491Y-20622770D01*
X7836491Y-20622770D02*
X7826967Y-20603722D01*
X7826967Y-20603722D02*
X7817444Y-20594198D01*
X7817444Y-20594198D02*
X7798396Y-20584674D01*
X7798396Y-20584674D02*
X7760301Y-20584674D01*
X7760301Y-20584674D02*
X7741253Y-20594198D01*
X7741253Y-20594198D02*
X7731729Y-20603722D01*
X7731729Y-20603722D02*
X7722206Y-20622770D01*
X7903158Y-20508484D02*
X8036491Y-20508484D01*
X8036491Y-20508484D02*
X7950777Y-20708484D01*
X8150777Y-20508484D02*
X8169825Y-20508484D01*
X8169825Y-20508484D02*
X8188872Y-20518008D01*
X8188872Y-20518008D02*
X8198396Y-20527531D01*
X8198396Y-20527531D02*
X8207920Y-20546579D01*
X8207920Y-20546579D02*
X8217444Y-20584674D01*
X8217444Y-20584674D02*
X8217444Y-20632293D01*
X8217444Y-20632293D02*
X8207920Y-20670389D01*
X8207920Y-20670389D02*
X8198396Y-20689436D01*
X8198396Y-20689436D02*
X8188872Y-20698960D01*
X8188872Y-20698960D02*
X8169825Y-20708484D01*
X8169825Y-20708484D02*
X8150777Y-20708484D01*
X8150777Y-20708484D02*
X8131729Y-20698960D01*
X8131729Y-20698960D02*
X8122206Y-20689436D01*
X8122206Y-20689436D02*
X8112682Y-20670389D01*
X8112682Y-20670389D02*
X8103158Y-20632293D01*
X8103158Y-20632293D02*
X8103158Y-20584674D01*
X8103158Y-20584674D02*
X8112682Y-20546579D01*
X8112682Y-20546579D02*
X8122206Y-20527531D01*
X8122206Y-20527531D02*
X8131729Y-20518008D01*
X8131729Y-20518008D02*
X8150777Y-20508484D01*
X8293634Y-20508484D02*
X8293634Y-20546579D01*
X8369825Y-20508484D02*
X8369825Y-20546579D01*
X8665063Y-20784674D02*
X8655539Y-20775150D01*
X8655539Y-20775150D02*
X8636491Y-20746579D01*
X8636491Y-20746579D02*
X8626968Y-20727531D01*
X8626968Y-20727531D02*
X8617444Y-20698960D01*
X8617444Y-20698960D02*
X8607920Y-20651341D01*
X8607920Y-20651341D02*
X8607920Y-20613246D01*
X8607920Y-20613246D02*
X8617444Y-20565627D01*
X8617444Y-20565627D02*
X8626968Y-20537055D01*
X8626968Y-20537055D02*
X8636491Y-20518008D01*
X8636491Y-20518008D02*
X8655539Y-20489436D01*
X8655539Y-20489436D02*
X8665063Y-20479912D01*
X8722206Y-20508484D02*
X8846015Y-20508484D01*
X8846015Y-20508484D02*
X8779349Y-20584674D01*
X8779349Y-20584674D02*
X8807920Y-20584674D01*
X8807920Y-20584674D02*
X8826968Y-20594198D01*
X8826968Y-20594198D02*
X8836491Y-20603722D01*
X8836491Y-20603722D02*
X8846015Y-20622770D01*
X8846015Y-20622770D02*
X8846015Y-20670389D01*
X8846015Y-20670389D02*
X8836491Y-20689436D01*
X8836491Y-20689436D02*
X8826968Y-20698960D01*
X8826968Y-20698960D02*
X8807920Y-20708484D01*
X8807920Y-20708484D02*
X8750777Y-20708484D01*
X8750777Y-20708484D02*
X8731730Y-20698960D01*
X8731730Y-20698960D02*
X8722206Y-20689436D01*
X8969825Y-20508484D02*
X8988872Y-20508484D01*
X8988872Y-20508484D02*
X9007920Y-20518008D01*
X9007920Y-20518008D02*
X9017444Y-20527531D01*
X9017444Y-20527531D02*
X9026968Y-20546579D01*
X9026968Y-20546579D02*
X9036491Y-20584674D01*
X9036491Y-20584674D02*
X9036491Y-20632293D01*
X9036491Y-20632293D02*
X9026968Y-20670389D01*
X9026968Y-20670389D02*
X9017444Y-20689436D01*
X9017444Y-20689436D02*
X9007920Y-20698960D01*
X9007920Y-20698960D02*
X8988872Y-20708484D01*
X8988872Y-20708484D02*
X8969825Y-20708484D01*
X8969825Y-20708484D02*
X8950777Y-20698960D01*
X8950777Y-20698960D02*
X8941253Y-20689436D01*
X8941253Y-20689436D02*
X8931730Y-20670389D01*
X8931730Y-20670389D02*
X8922206Y-20632293D01*
X8922206Y-20632293D02*
X8922206Y-20584674D01*
X8922206Y-20584674D02*
X8931730Y-20546579D01*
X8931730Y-20546579D02*
X8941253Y-20527531D01*
X8941253Y-20527531D02*
X8950777Y-20518008D01*
X8950777Y-20518008D02*
X8969825Y-20508484D01*
X9274587Y-20708484D02*
X9274587Y-20508484D01*
X9360301Y-20708484D02*
X9360301Y-20603722D01*
X9360301Y-20603722D02*
X9350777Y-20584674D01*
X9350777Y-20584674D02*
X9331730Y-20575150D01*
X9331730Y-20575150D02*
X9303158Y-20575150D01*
X9303158Y-20575150D02*
X9284111Y-20584674D01*
X9284111Y-20584674D02*
X9274587Y-20594198D01*
X9484111Y-20708484D02*
X9465063Y-20698960D01*
X9465063Y-20698960D02*
X9455539Y-20689436D01*
X9455539Y-20689436D02*
X9446015Y-20670389D01*
X9446015Y-20670389D02*
X9446015Y-20613246D01*
X9446015Y-20613246D02*
X9455539Y-20594198D01*
X9455539Y-20594198D02*
X9465063Y-20584674D01*
X9465063Y-20584674D02*
X9484111Y-20575150D01*
X9484111Y-20575150D02*
X9512682Y-20575150D01*
X9512682Y-20575150D02*
X9531730Y-20584674D01*
X9531730Y-20584674D02*
X9541253Y-20594198D01*
X9541253Y-20594198D02*
X9550777Y-20613246D01*
X9550777Y-20613246D02*
X9550777Y-20670389D01*
X9550777Y-20670389D02*
X9541253Y-20689436D01*
X9541253Y-20689436D02*
X9531730Y-20698960D01*
X9531730Y-20698960D02*
X9512682Y-20708484D01*
X9512682Y-20708484D02*
X9484111Y-20708484D01*
X9665063Y-20708484D02*
X9646015Y-20698960D01*
X9646015Y-20698960D02*
X9636492Y-20679912D01*
X9636492Y-20679912D02*
X9636492Y-20508484D01*
X9817444Y-20698960D02*
X9798396Y-20708484D01*
X9798396Y-20708484D02*
X9760301Y-20708484D01*
X9760301Y-20708484D02*
X9741253Y-20698960D01*
X9741253Y-20698960D02*
X9731730Y-20679912D01*
X9731730Y-20679912D02*
X9731730Y-20603722D01*
X9731730Y-20603722D02*
X9741253Y-20584674D01*
X9741253Y-20584674D02*
X9760301Y-20575150D01*
X9760301Y-20575150D02*
X9798396Y-20575150D01*
X9798396Y-20575150D02*
X9817444Y-20584674D01*
X9817444Y-20584674D02*
X9826968Y-20603722D01*
X9826968Y-20603722D02*
X9826968Y-20622770D01*
X9826968Y-20622770D02*
X9731730Y-20641817D01*
X9903158Y-20698960D02*
X9922206Y-20708484D01*
X9922206Y-20708484D02*
X9960301Y-20708484D01*
X9960301Y-20708484D02*
X9979349Y-20698960D01*
X9979349Y-20698960D02*
X9988873Y-20679912D01*
X9988873Y-20679912D02*
X9988873Y-20670389D01*
X9988873Y-20670389D02*
X9979349Y-20651341D01*
X9979349Y-20651341D02*
X9960301Y-20641817D01*
X9960301Y-20641817D02*
X9931730Y-20641817D01*
X9931730Y-20641817D02*
X9912682Y-20632293D01*
X9912682Y-20632293D02*
X9903158Y-20613246D01*
X9903158Y-20613246D02*
X9903158Y-20603722D01*
X9903158Y-20603722D02*
X9912682Y-20584674D01*
X9912682Y-20584674D02*
X9931730Y-20575150D01*
X9931730Y-20575150D02*
X9960301Y-20575150D01*
X9960301Y-20575150D02*
X9979349Y-20584674D01*
X10055539Y-20784674D02*
X10065063Y-20775150D01*
X10065063Y-20775150D02*
X10084111Y-20746579D01*
X10084111Y-20746579D02*
X10093634Y-20727531D01*
X10093634Y-20727531D02*
X10103158Y-20698960D01*
X10103158Y-20698960D02*
X10112682Y-20651341D01*
X10112682Y-20651341D02*
X10112682Y-20613246D01*
X10112682Y-20613246D02*
X10103158Y-20565627D01*
X10103158Y-20565627D02*
X10093634Y-20537055D01*
X10093634Y-20537055D02*
X10084111Y-20518008D01*
X10084111Y-20518008D02*
X10065063Y-20489436D01*
X10065063Y-20489436D02*
X10055539Y-20479912D01*
X10417444Y-20784674D02*
X10407920Y-20775150D01*
X10407920Y-20775150D02*
X10388873Y-20746579D01*
X10388873Y-20746579D02*
X10379349Y-20727531D01*
X10379349Y-20727531D02*
X10369825Y-20698960D01*
X10369825Y-20698960D02*
X10360301Y-20651341D01*
X10360301Y-20651341D02*
X10360301Y-20613246D01*
X10360301Y-20613246D02*
X10369825Y-20565627D01*
X10369825Y-20565627D02*
X10379349Y-20537055D01*
X10379349Y-20537055D02*
X10388873Y-20518008D01*
X10388873Y-20518008D02*
X10407920Y-20489436D01*
X10407920Y-20489436D02*
X10417444Y-20479912D01*
X10493634Y-20575150D02*
X10493634Y-20708484D01*
X10493634Y-20594198D02*
X10503158Y-20584674D01*
X10503158Y-20584674D02*
X10522206Y-20575150D01*
X10522206Y-20575150D02*
X10550777Y-20575150D01*
X10550777Y-20575150D02*
X10569825Y-20584674D01*
X10569825Y-20584674D02*
X10579349Y-20603722D01*
X10579349Y-20603722D02*
X10579349Y-20708484D01*
X10703158Y-20708484D02*
X10684111Y-20698960D01*
X10684111Y-20698960D02*
X10674587Y-20689436D01*
X10674587Y-20689436D02*
X10665063Y-20670389D01*
X10665063Y-20670389D02*
X10665063Y-20613246D01*
X10665063Y-20613246D02*
X10674587Y-20594198D01*
X10674587Y-20594198D02*
X10684111Y-20584674D01*
X10684111Y-20584674D02*
X10703158Y-20575150D01*
X10703158Y-20575150D02*
X10731730Y-20575150D01*
X10731730Y-20575150D02*
X10750777Y-20584674D01*
X10750777Y-20584674D02*
X10760301Y-20594198D01*
X10760301Y-20594198D02*
X10769825Y-20613246D01*
X10769825Y-20613246D02*
X10769825Y-20670389D01*
X10769825Y-20670389D02*
X10760301Y-20689436D01*
X10760301Y-20689436D02*
X10750777Y-20698960D01*
X10750777Y-20698960D02*
X10731730Y-20708484D01*
X10731730Y-20708484D02*
X10703158Y-20708484D01*
X10826968Y-20575150D02*
X10903158Y-20575150D01*
X10855539Y-20508484D02*
X10855539Y-20679912D01*
X10855539Y-20679912D02*
X10865063Y-20698960D01*
X10865063Y-20698960D02*
X10884111Y-20708484D01*
X10884111Y-20708484D02*
X10903158Y-20708484D01*
X11122206Y-20575150D02*
X11122206Y-20775150D01*
X11122206Y-20584674D02*
X11141254Y-20575150D01*
X11141254Y-20575150D02*
X11179349Y-20575150D01*
X11179349Y-20575150D02*
X11198396Y-20584674D01*
X11198396Y-20584674D02*
X11207920Y-20594198D01*
X11207920Y-20594198D02*
X11217444Y-20613246D01*
X11217444Y-20613246D02*
X11217444Y-20670389D01*
X11217444Y-20670389D02*
X11207920Y-20689436D01*
X11207920Y-20689436D02*
X11198396Y-20698960D01*
X11198396Y-20698960D02*
X11179349Y-20708484D01*
X11179349Y-20708484D02*
X11141254Y-20708484D01*
X11141254Y-20708484D02*
X11122206Y-20698960D01*
X11331730Y-20708484D02*
X11312682Y-20698960D01*
X11312682Y-20698960D02*
X11303158Y-20679912D01*
X11303158Y-20679912D02*
X11303158Y-20508484D01*
X11493634Y-20708484D02*
X11493634Y-20603722D01*
X11493634Y-20603722D02*
X11484111Y-20584674D01*
X11484111Y-20584674D02*
X11465063Y-20575150D01*
X11465063Y-20575150D02*
X11426968Y-20575150D01*
X11426968Y-20575150D02*
X11407920Y-20584674D01*
X11493634Y-20698960D02*
X11474587Y-20708484D01*
X11474587Y-20708484D02*
X11426968Y-20708484D01*
X11426968Y-20708484D02*
X11407920Y-20698960D01*
X11407920Y-20698960D02*
X11398396Y-20679912D01*
X11398396Y-20679912D02*
X11398396Y-20660865D01*
X11398396Y-20660865D02*
X11407920Y-20641817D01*
X11407920Y-20641817D02*
X11426968Y-20632293D01*
X11426968Y-20632293D02*
X11474587Y-20632293D01*
X11474587Y-20632293D02*
X11493634Y-20622770D01*
X11560301Y-20575150D02*
X11636492Y-20575150D01*
X11588873Y-20508484D02*
X11588873Y-20679912D01*
X11588873Y-20679912D02*
X11598396Y-20698960D01*
X11598396Y-20698960D02*
X11617444Y-20708484D01*
X11617444Y-20708484D02*
X11636492Y-20708484D01*
X11779349Y-20698960D02*
X11760301Y-20708484D01*
X11760301Y-20708484D02*
X11722206Y-20708484D01*
X11722206Y-20708484D02*
X11703158Y-20698960D01*
X11703158Y-20698960D02*
X11693634Y-20679912D01*
X11693634Y-20679912D02*
X11693634Y-20603722D01*
X11693634Y-20603722D02*
X11703158Y-20584674D01*
X11703158Y-20584674D02*
X11722206Y-20575150D01*
X11722206Y-20575150D02*
X11760301Y-20575150D01*
X11760301Y-20575150D02*
X11779349Y-20584674D01*
X11779349Y-20584674D02*
X11788873Y-20603722D01*
X11788873Y-20603722D02*
X11788873Y-20622770D01*
X11788873Y-20622770D02*
X11693634Y-20641817D01*
X11960301Y-20708484D02*
X11960301Y-20508484D01*
X11960301Y-20698960D02*
X11941254Y-20708484D01*
X11941254Y-20708484D02*
X11903158Y-20708484D01*
X11903158Y-20708484D02*
X11884111Y-20698960D01*
X11884111Y-20698960D02*
X11874587Y-20689436D01*
X11874587Y-20689436D02*
X11865063Y-20670389D01*
X11865063Y-20670389D02*
X11865063Y-20613246D01*
X11865063Y-20613246D02*
X11874587Y-20594198D01*
X11874587Y-20594198D02*
X11884111Y-20584674D01*
X11884111Y-20584674D02*
X11903158Y-20575150D01*
X11903158Y-20575150D02*
X11941254Y-20575150D01*
X11941254Y-20575150D02*
X11960301Y-20584674D01*
X12036492Y-20784674D02*
X12046015Y-20775150D01*
X12046015Y-20775150D02*
X12065063Y-20746579D01*
X12065063Y-20746579D02*
X12074587Y-20727531D01*
X12074587Y-20727531D02*
X12084111Y-20698960D01*
X12084111Y-20698960D02*
X12093634Y-20651341D01*
X12093634Y-20651341D02*
X12093634Y-20613246D01*
X12093634Y-20613246D02*
X12084111Y-20565627D01*
X12084111Y-20565627D02*
X12074587Y-20537055D01*
X12074587Y-20537055D02*
X12065063Y-20518008D01*
X12065063Y-20518008D02*
X12046015Y-20489436D01*
X12046015Y-20489436D02*
X12036492Y-20479912D01*
X5090000Y-20907180D02*
G75*
G03*
X5090000Y-20907180I-100000J0D01*
G01*
X5331729Y-20798664D02*
X5455539Y-20798664D01*
X5455539Y-20798664D02*
X5388872Y-20874854D01*
X5388872Y-20874854D02*
X5417444Y-20874854D01*
X5417444Y-20874854D02*
X5436491Y-20884378D01*
X5436491Y-20884378D02*
X5446015Y-20893902D01*
X5446015Y-20893902D02*
X5455539Y-20912950D01*
X5455539Y-20912950D02*
X5455539Y-20960569D01*
X5455539Y-20960569D02*
X5446015Y-20979616D01*
X5446015Y-20979616D02*
X5436491Y-20989140D01*
X5436491Y-20989140D02*
X5417444Y-20998664D01*
X5417444Y-20998664D02*
X5360301Y-20998664D01*
X5360301Y-20998664D02*
X5341253Y-20989140D01*
X5341253Y-20989140D02*
X5331729Y-20979616D01*
X5541253Y-20979616D02*
X5550777Y-20989140D01*
X5550777Y-20989140D02*
X5541253Y-20998664D01*
X5541253Y-20998664D02*
X5531729Y-20989140D01*
X5531729Y-20989140D02*
X5541253Y-20979616D01*
X5541253Y-20979616D02*
X5541253Y-20998664D01*
X5674586Y-20798664D02*
X5693634Y-20798664D01*
X5693634Y-20798664D02*
X5712682Y-20808188D01*
X5712682Y-20808188D02*
X5722205Y-20817711D01*
X5722205Y-20817711D02*
X5731729Y-20836759D01*
X5731729Y-20836759D02*
X5741253Y-20874854D01*
X5741253Y-20874854D02*
X5741253Y-20922473D01*
X5741253Y-20922473D02*
X5731729Y-20960569D01*
X5731729Y-20960569D02*
X5722205Y-20979616D01*
X5722205Y-20979616D02*
X5712682Y-20989140D01*
X5712682Y-20989140D02*
X5693634Y-20998664D01*
X5693634Y-20998664D02*
X5674586Y-20998664D01*
X5674586Y-20998664D02*
X5655539Y-20989140D01*
X5655539Y-20989140D02*
X5646015Y-20979616D01*
X5646015Y-20979616D02*
X5636491Y-20960569D01*
X5636491Y-20960569D02*
X5626967Y-20922473D01*
X5626967Y-20922473D02*
X5626967Y-20874854D01*
X5626967Y-20874854D02*
X5636491Y-20836759D01*
X5636491Y-20836759D02*
X5646015Y-20817711D01*
X5646015Y-20817711D02*
X5655539Y-20808188D01*
X5655539Y-20808188D02*
X5674586Y-20798664D01*
X5865062Y-20798664D02*
X5884110Y-20798664D01*
X5884110Y-20798664D02*
X5903158Y-20808188D01*
X5903158Y-20808188D02*
X5912682Y-20817711D01*
X5912682Y-20817711D02*
X5922205Y-20836759D01*
X5922205Y-20836759D02*
X5931729Y-20874854D01*
X5931729Y-20874854D02*
X5931729Y-20922473D01*
X5931729Y-20922473D02*
X5922205Y-20960569D01*
X5922205Y-20960569D02*
X5912682Y-20979616D01*
X5912682Y-20979616D02*
X5903158Y-20989140D01*
X5903158Y-20989140D02*
X5884110Y-20998664D01*
X5884110Y-20998664D02*
X5865062Y-20998664D01*
X5865062Y-20998664D02*
X5846015Y-20989140D01*
X5846015Y-20989140D02*
X5836491Y-20979616D01*
X5836491Y-20979616D02*
X5826967Y-20960569D01*
X5826967Y-20960569D02*
X5817443Y-20922473D01*
X5817443Y-20922473D02*
X5817443Y-20874854D01*
X5817443Y-20874854D02*
X5826967Y-20836759D01*
X5826967Y-20836759D02*
X5836491Y-20817711D01*
X5836491Y-20817711D02*
X5846015Y-20808188D01*
X5846015Y-20808188D02*
X5865062Y-20798664D01*
X6055539Y-20798664D02*
X6074586Y-20798664D01*
X6074586Y-20798664D02*
X6093634Y-20808188D01*
X6093634Y-20808188D02*
X6103158Y-20817711D01*
X6103158Y-20817711D02*
X6112682Y-20836759D01*
X6112682Y-20836759D02*
X6122205Y-20874854D01*
X6122205Y-20874854D02*
X6122205Y-20922473D01*
X6122205Y-20922473D02*
X6112682Y-20960569D01*
X6112682Y-20960569D02*
X6103158Y-20979616D01*
X6103158Y-20979616D02*
X6093634Y-20989140D01*
X6093634Y-20989140D02*
X6074586Y-20998664D01*
X6074586Y-20998664D02*
X6055539Y-20998664D01*
X6055539Y-20998664D02*
X6036491Y-20989140D01*
X6036491Y-20989140D02*
X6026967Y-20979616D01*
X6026967Y-20979616D02*
X6017443Y-20960569D01*
X6017443Y-20960569D02*
X6007920Y-20922473D01*
X6007920Y-20922473D02*
X6007920Y-20874854D01*
X6007920Y-20874854D02*
X6017443Y-20836759D01*
X6017443Y-20836759D02*
X6026967Y-20817711D01*
X6026967Y-20817711D02*
X6036491Y-20808188D01*
X6036491Y-20808188D02*
X6055539Y-20798664D01*
X6207920Y-20998664D02*
X6207920Y-20865330D01*
X6207920Y-20884378D02*
X6217443Y-20874854D01*
X6217443Y-20874854D02*
X6236491Y-20865330D01*
X6236491Y-20865330D02*
X6265063Y-20865330D01*
X6265063Y-20865330D02*
X6284110Y-20874854D01*
X6284110Y-20874854D02*
X6293634Y-20893902D01*
X6293634Y-20893902D02*
X6293634Y-20998664D01*
X6293634Y-20893902D02*
X6303158Y-20874854D01*
X6303158Y-20874854D02*
X6322205Y-20865330D01*
X6322205Y-20865330D02*
X6350777Y-20865330D01*
X6350777Y-20865330D02*
X6369824Y-20874854D01*
X6369824Y-20874854D02*
X6379348Y-20893902D01*
X6379348Y-20893902D02*
X6379348Y-20998664D01*
X6474586Y-20998664D02*
X6474586Y-20865330D01*
X6474586Y-20884378D02*
X6484110Y-20874854D01*
X6484110Y-20874854D02*
X6503158Y-20865330D01*
X6503158Y-20865330D02*
X6531729Y-20865330D01*
X6531729Y-20865330D02*
X6550777Y-20874854D01*
X6550777Y-20874854D02*
X6560301Y-20893902D01*
X6560301Y-20893902D02*
X6560301Y-20998664D01*
X6560301Y-20893902D02*
X6569824Y-20874854D01*
X6569824Y-20874854D02*
X6588872Y-20865330D01*
X6588872Y-20865330D02*
X6617443Y-20865330D01*
X6617443Y-20865330D02*
X6636491Y-20874854D01*
X6636491Y-20874854D02*
X6646015Y-20893902D01*
X6646015Y-20893902D02*
X6646015Y-20998664D01*
X7036491Y-20789140D02*
X6865063Y-21046283D01*
X7293634Y-20798664D02*
X7312682Y-20798664D01*
X7312682Y-20798664D02*
X7331729Y-20808188D01*
X7331729Y-20808188D02*
X7341253Y-20817711D01*
X7341253Y-20817711D02*
X7350777Y-20836759D01*
X7350777Y-20836759D02*
X7360301Y-20874854D01*
X7360301Y-20874854D02*
X7360301Y-20922473D01*
X7360301Y-20922473D02*
X7350777Y-20960569D01*
X7350777Y-20960569D02*
X7341253Y-20979616D01*
X7341253Y-20979616D02*
X7331729Y-20989140D01*
X7331729Y-20989140D02*
X7312682Y-20998664D01*
X7312682Y-20998664D02*
X7293634Y-20998664D01*
X7293634Y-20998664D02*
X7274586Y-20989140D01*
X7274586Y-20989140D02*
X7265063Y-20979616D01*
X7265063Y-20979616D02*
X7255539Y-20960569D01*
X7255539Y-20960569D02*
X7246015Y-20922473D01*
X7246015Y-20922473D02*
X7246015Y-20874854D01*
X7246015Y-20874854D02*
X7255539Y-20836759D01*
X7255539Y-20836759D02*
X7265063Y-20817711D01*
X7265063Y-20817711D02*
X7274586Y-20808188D01*
X7274586Y-20808188D02*
X7293634Y-20798664D01*
X7446015Y-20979616D02*
X7455539Y-20989140D01*
X7455539Y-20989140D02*
X7446015Y-20998664D01*
X7446015Y-20998664D02*
X7436491Y-20989140D01*
X7436491Y-20989140D02*
X7446015Y-20979616D01*
X7446015Y-20979616D02*
X7446015Y-20998664D01*
X7646015Y-20998664D02*
X7531729Y-20998664D01*
X7588872Y-20998664D02*
X7588872Y-20798664D01*
X7588872Y-20798664D02*
X7569825Y-20827235D01*
X7569825Y-20827235D02*
X7550777Y-20846283D01*
X7550777Y-20846283D02*
X7531729Y-20855807D01*
X7836491Y-20998664D02*
X7722206Y-20998664D01*
X7779348Y-20998664D02*
X7779348Y-20798664D01*
X7779348Y-20798664D02*
X7760301Y-20827235D01*
X7760301Y-20827235D02*
X7741253Y-20846283D01*
X7741253Y-20846283D02*
X7722206Y-20855807D01*
X7950777Y-20884378D02*
X7931729Y-20874854D01*
X7931729Y-20874854D02*
X7922206Y-20865330D01*
X7922206Y-20865330D02*
X7912682Y-20846283D01*
X7912682Y-20846283D02*
X7912682Y-20836759D01*
X7912682Y-20836759D02*
X7922206Y-20817711D01*
X7922206Y-20817711D02*
X7931729Y-20808188D01*
X7931729Y-20808188D02*
X7950777Y-20798664D01*
X7950777Y-20798664D02*
X7988872Y-20798664D01*
X7988872Y-20798664D02*
X8007920Y-20808188D01*
X8007920Y-20808188D02*
X8017444Y-20817711D01*
X8017444Y-20817711D02*
X8026967Y-20836759D01*
X8026967Y-20836759D02*
X8026967Y-20846283D01*
X8026967Y-20846283D02*
X8017444Y-20865330D01*
X8017444Y-20865330D02*
X8007920Y-20874854D01*
X8007920Y-20874854D02*
X7988872Y-20884378D01*
X7988872Y-20884378D02*
X7950777Y-20884378D01*
X7950777Y-20884378D02*
X7931729Y-20893902D01*
X7931729Y-20893902D02*
X7922206Y-20903426D01*
X7922206Y-20903426D02*
X7912682Y-20922473D01*
X7912682Y-20922473D02*
X7912682Y-20960569D01*
X7912682Y-20960569D02*
X7922206Y-20979616D01*
X7922206Y-20979616D02*
X7931729Y-20989140D01*
X7931729Y-20989140D02*
X7950777Y-20998664D01*
X7950777Y-20998664D02*
X7988872Y-20998664D01*
X7988872Y-20998664D02*
X8007920Y-20989140D01*
X8007920Y-20989140D02*
X8017444Y-20979616D01*
X8017444Y-20979616D02*
X8026967Y-20960569D01*
X8026967Y-20960569D02*
X8026967Y-20922473D01*
X8026967Y-20922473D02*
X8017444Y-20903426D01*
X8017444Y-20903426D02*
X8007920Y-20893902D01*
X8007920Y-20893902D02*
X7988872Y-20884378D01*
X8217444Y-20998664D02*
X8103158Y-20998664D01*
X8160301Y-20998664D02*
X8160301Y-20798664D01*
X8160301Y-20798664D02*
X8141253Y-20827235D01*
X8141253Y-20827235D02*
X8122206Y-20846283D01*
X8122206Y-20846283D02*
X8103158Y-20855807D01*
X8293634Y-20798664D02*
X8293634Y-20836759D01*
X8369825Y-20798664D02*
X8369825Y-20836759D01*
X8665063Y-21074854D02*
X8655539Y-21065330D01*
X8655539Y-21065330D02*
X8636491Y-21036759D01*
X8636491Y-21036759D02*
X8626968Y-21017711D01*
X8626968Y-21017711D02*
X8617444Y-20989140D01*
X8617444Y-20989140D02*
X8607920Y-20941521D01*
X8607920Y-20941521D02*
X8607920Y-20903426D01*
X8607920Y-20903426D02*
X8617444Y-20855807D01*
X8617444Y-20855807D02*
X8626968Y-20827235D01*
X8626968Y-20827235D02*
X8636491Y-20808188D01*
X8636491Y-20808188D02*
X8655539Y-20779616D01*
X8655539Y-20779616D02*
X8665063Y-20770092D01*
X8826968Y-20865330D02*
X8826968Y-20998664D01*
X8779349Y-20789140D02*
X8731730Y-20931997D01*
X8731730Y-20931997D02*
X8855539Y-20931997D01*
X9026968Y-20798664D02*
X8931730Y-20798664D01*
X8931730Y-20798664D02*
X8922206Y-20893902D01*
X8922206Y-20893902D02*
X8931730Y-20884378D01*
X8931730Y-20884378D02*
X8950777Y-20874854D01*
X8950777Y-20874854D02*
X8998396Y-20874854D01*
X8998396Y-20874854D02*
X9017444Y-20884378D01*
X9017444Y-20884378D02*
X9026968Y-20893902D01*
X9026968Y-20893902D02*
X9036491Y-20912950D01*
X9036491Y-20912950D02*
X9036491Y-20960569D01*
X9036491Y-20960569D02*
X9026968Y-20979616D01*
X9026968Y-20979616D02*
X9017444Y-20989140D01*
X9017444Y-20989140D02*
X8998396Y-20998664D01*
X8998396Y-20998664D02*
X8950777Y-20998664D01*
X8950777Y-20998664D02*
X8931730Y-20989140D01*
X8931730Y-20989140D02*
X8922206Y-20979616D01*
X9274587Y-20998664D02*
X9274587Y-20798664D01*
X9360301Y-20998664D02*
X9360301Y-20893902D01*
X9360301Y-20893902D02*
X9350777Y-20874854D01*
X9350777Y-20874854D02*
X9331730Y-20865330D01*
X9331730Y-20865330D02*
X9303158Y-20865330D01*
X9303158Y-20865330D02*
X9284111Y-20874854D01*
X9284111Y-20874854D02*
X9274587Y-20884378D01*
X9484111Y-20998664D02*
X9465063Y-20989140D01*
X9465063Y-20989140D02*
X9455539Y-20979616D01*
X9455539Y-20979616D02*
X9446015Y-20960569D01*
X9446015Y-20960569D02*
X9446015Y-20903426D01*
X9446015Y-20903426D02*
X9455539Y-20884378D01*
X9455539Y-20884378D02*
X9465063Y-20874854D01*
X9465063Y-20874854D02*
X9484111Y-20865330D01*
X9484111Y-20865330D02*
X9512682Y-20865330D01*
X9512682Y-20865330D02*
X9531730Y-20874854D01*
X9531730Y-20874854D02*
X9541253Y-20884378D01*
X9541253Y-20884378D02*
X9550777Y-20903426D01*
X9550777Y-20903426D02*
X9550777Y-20960569D01*
X9550777Y-20960569D02*
X9541253Y-20979616D01*
X9541253Y-20979616D02*
X9531730Y-20989140D01*
X9531730Y-20989140D02*
X9512682Y-20998664D01*
X9512682Y-20998664D02*
X9484111Y-20998664D01*
X9665063Y-20998664D02*
X9646015Y-20989140D01*
X9646015Y-20989140D02*
X9636492Y-20970092D01*
X9636492Y-20970092D02*
X9636492Y-20798664D01*
X9817444Y-20989140D02*
X9798396Y-20998664D01*
X9798396Y-20998664D02*
X9760301Y-20998664D01*
X9760301Y-20998664D02*
X9741253Y-20989140D01*
X9741253Y-20989140D02*
X9731730Y-20970092D01*
X9731730Y-20970092D02*
X9731730Y-20893902D01*
X9731730Y-20893902D02*
X9741253Y-20874854D01*
X9741253Y-20874854D02*
X9760301Y-20865330D01*
X9760301Y-20865330D02*
X9798396Y-20865330D01*
X9798396Y-20865330D02*
X9817444Y-20874854D01*
X9817444Y-20874854D02*
X9826968Y-20893902D01*
X9826968Y-20893902D02*
X9826968Y-20912950D01*
X9826968Y-20912950D02*
X9731730Y-20931997D01*
X9903158Y-20989140D02*
X9922206Y-20998664D01*
X9922206Y-20998664D02*
X9960301Y-20998664D01*
X9960301Y-20998664D02*
X9979349Y-20989140D01*
X9979349Y-20989140D02*
X9988873Y-20970092D01*
X9988873Y-20970092D02*
X9988873Y-20960569D01*
X9988873Y-20960569D02*
X9979349Y-20941521D01*
X9979349Y-20941521D02*
X9960301Y-20931997D01*
X9960301Y-20931997D02*
X9931730Y-20931997D01*
X9931730Y-20931997D02*
X9912682Y-20922473D01*
X9912682Y-20922473D02*
X9903158Y-20903426D01*
X9903158Y-20903426D02*
X9903158Y-20893902D01*
X9903158Y-20893902D02*
X9912682Y-20874854D01*
X9912682Y-20874854D02*
X9931730Y-20865330D01*
X9931730Y-20865330D02*
X9960301Y-20865330D01*
X9960301Y-20865330D02*
X9979349Y-20874854D01*
X10055539Y-21074854D02*
X10065063Y-21065330D01*
X10065063Y-21065330D02*
X10084111Y-21036759D01*
X10084111Y-21036759D02*
X10093634Y-21017711D01*
X10093634Y-21017711D02*
X10103158Y-20989140D01*
X10103158Y-20989140D02*
X10112682Y-20941521D01*
X10112682Y-20941521D02*
X10112682Y-20903426D01*
X10112682Y-20903426D02*
X10103158Y-20855807D01*
X10103158Y-20855807D02*
X10093634Y-20827235D01*
X10093634Y-20827235D02*
X10084111Y-20808188D01*
X10084111Y-20808188D02*
X10065063Y-20779616D01*
X10065063Y-20779616D02*
X10055539Y-20770092D01*
X10417444Y-21074854D02*
X10407920Y-21065330D01*
X10407920Y-21065330D02*
X10388873Y-21036759D01*
X10388873Y-21036759D02*
X10379349Y-21017711D01*
X10379349Y-21017711D02*
X10369825Y-20989140D01*
X10369825Y-20989140D02*
X10360301Y-20941521D01*
X10360301Y-20941521D02*
X10360301Y-20903426D01*
X10360301Y-20903426D02*
X10369825Y-20855807D01*
X10369825Y-20855807D02*
X10379349Y-20827235D01*
X10379349Y-20827235D02*
X10388873Y-20808188D01*
X10388873Y-20808188D02*
X10407920Y-20779616D01*
X10407920Y-20779616D02*
X10417444Y-20770092D01*
X10493634Y-20865330D02*
X10493634Y-20998664D01*
X10493634Y-20884378D02*
X10503158Y-20874854D01*
X10503158Y-20874854D02*
X10522206Y-20865330D01*
X10522206Y-20865330D02*
X10550777Y-20865330D01*
X10550777Y-20865330D02*
X10569825Y-20874854D01*
X10569825Y-20874854D02*
X10579349Y-20893902D01*
X10579349Y-20893902D02*
X10579349Y-20998664D01*
X10703158Y-20998664D02*
X10684111Y-20989140D01*
X10684111Y-20989140D02*
X10674587Y-20979616D01*
X10674587Y-20979616D02*
X10665063Y-20960569D01*
X10665063Y-20960569D02*
X10665063Y-20903426D01*
X10665063Y-20903426D02*
X10674587Y-20884378D01*
X10674587Y-20884378D02*
X10684111Y-20874854D01*
X10684111Y-20874854D02*
X10703158Y-20865330D01*
X10703158Y-20865330D02*
X10731730Y-20865330D01*
X10731730Y-20865330D02*
X10750777Y-20874854D01*
X10750777Y-20874854D02*
X10760301Y-20884378D01*
X10760301Y-20884378D02*
X10769825Y-20903426D01*
X10769825Y-20903426D02*
X10769825Y-20960569D01*
X10769825Y-20960569D02*
X10760301Y-20979616D01*
X10760301Y-20979616D02*
X10750777Y-20989140D01*
X10750777Y-20989140D02*
X10731730Y-20998664D01*
X10731730Y-20998664D02*
X10703158Y-20998664D01*
X10826968Y-20865330D02*
X10903158Y-20865330D01*
X10855539Y-20798664D02*
X10855539Y-20970092D01*
X10855539Y-20970092D02*
X10865063Y-20989140D01*
X10865063Y-20989140D02*
X10884111Y-20998664D01*
X10884111Y-20998664D02*
X10903158Y-20998664D01*
X11122206Y-20865330D02*
X11122206Y-21065330D01*
X11122206Y-20874854D02*
X11141254Y-20865330D01*
X11141254Y-20865330D02*
X11179349Y-20865330D01*
X11179349Y-20865330D02*
X11198396Y-20874854D01*
X11198396Y-20874854D02*
X11207920Y-20884378D01*
X11207920Y-20884378D02*
X11217444Y-20903426D01*
X11217444Y-20903426D02*
X11217444Y-20960569D01*
X11217444Y-20960569D02*
X11207920Y-20979616D01*
X11207920Y-20979616D02*
X11198396Y-20989140D01*
X11198396Y-20989140D02*
X11179349Y-20998664D01*
X11179349Y-20998664D02*
X11141254Y-20998664D01*
X11141254Y-20998664D02*
X11122206Y-20989140D01*
X11331730Y-20998664D02*
X11312682Y-20989140D01*
X11312682Y-20989140D02*
X11303158Y-20970092D01*
X11303158Y-20970092D02*
X11303158Y-20798664D01*
X11493634Y-20998664D02*
X11493634Y-20893902D01*
X11493634Y-20893902D02*
X11484111Y-20874854D01*
X11484111Y-20874854D02*
X11465063Y-20865330D01*
X11465063Y-20865330D02*
X11426968Y-20865330D01*
X11426968Y-20865330D02*
X11407920Y-20874854D01*
X11493634Y-20989140D02*
X11474587Y-20998664D01*
X11474587Y-20998664D02*
X11426968Y-20998664D01*
X11426968Y-20998664D02*
X11407920Y-20989140D01*
X11407920Y-20989140D02*
X11398396Y-20970092D01*
X11398396Y-20970092D02*
X11398396Y-20951045D01*
X11398396Y-20951045D02*
X11407920Y-20931997D01*
X11407920Y-20931997D02*
X11426968Y-20922473D01*
X11426968Y-20922473D02*
X11474587Y-20922473D01*
X11474587Y-20922473D02*
X11493634Y-20912950D01*
X11560301Y-20865330D02*
X11636492Y-20865330D01*
X11588873Y-20798664D02*
X11588873Y-20970092D01*
X11588873Y-20970092D02*
X11598396Y-20989140D01*
X11598396Y-20989140D02*
X11617444Y-20998664D01*
X11617444Y-20998664D02*
X11636492Y-20998664D01*
X11779349Y-20989140D02*
X11760301Y-20998664D01*
X11760301Y-20998664D02*
X11722206Y-20998664D01*
X11722206Y-20998664D02*
X11703158Y-20989140D01*
X11703158Y-20989140D02*
X11693634Y-20970092D01*
X11693634Y-20970092D02*
X11693634Y-20893902D01*
X11693634Y-20893902D02*
X11703158Y-20874854D01*
X11703158Y-20874854D02*
X11722206Y-20865330D01*
X11722206Y-20865330D02*
X11760301Y-20865330D01*
X11760301Y-20865330D02*
X11779349Y-20874854D01*
X11779349Y-20874854D02*
X11788873Y-20893902D01*
X11788873Y-20893902D02*
X11788873Y-20912950D01*
X11788873Y-20912950D02*
X11693634Y-20931997D01*
X11960301Y-20998664D02*
X11960301Y-20798664D01*
X11960301Y-20989140D02*
X11941254Y-20998664D01*
X11941254Y-20998664D02*
X11903158Y-20998664D01*
X11903158Y-20998664D02*
X11884111Y-20989140D01*
X11884111Y-20989140D02*
X11874587Y-20979616D01*
X11874587Y-20979616D02*
X11865063Y-20960569D01*
X11865063Y-20960569D02*
X11865063Y-20903426D01*
X11865063Y-20903426D02*
X11874587Y-20884378D01*
X11874587Y-20884378D02*
X11884111Y-20874854D01*
X11884111Y-20874854D02*
X11903158Y-20865330D01*
X11903158Y-20865330D02*
X11941254Y-20865330D01*
X11941254Y-20865330D02*
X11960301Y-20874854D01*
X12036492Y-21074854D02*
X12046015Y-21065330D01*
X12046015Y-21065330D02*
X12065063Y-21036759D01*
X12065063Y-21036759D02*
X12074587Y-21017711D01*
X12074587Y-21017711D02*
X12084111Y-20989140D01*
X12084111Y-20989140D02*
X12093634Y-20941521D01*
X12093634Y-20941521D02*
X12093634Y-20903426D01*
X12093634Y-20903426D02*
X12084111Y-20855807D01*
X12084111Y-20855807D02*
X12074587Y-20827235D01*
X12074587Y-20827235D02*
X12065063Y-20808188D01*
X12065063Y-20808188D02*
X12046015Y-20779616D01*
X12046015Y-20779616D02*
X12036492Y-20770092D01*
X4990000Y-21127180D02*
X4990000Y-21327180D01*
X4890000Y-21227180D02*
X5090000Y-21227180D01*
X5331729Y-21118664D02*
X5455539Y-21118664D01*
X5455539Y-21118664D02*
X5388872Y-21194854D01*
X5388872Y-21194854D02*
X5417444Y-21194854D01*
X5417444Y-21194854D02*
X5436491Y-21204378D01*
X5436491Y-21204378D02*
X5446015Y-21213902D01*
X5446015Y-21213902D02*
X5455539Y-21232950D01*
X5455539Y-21232950D02*
X5455539Y-21280569D01*
X5455539Y-21280569D02*
X5446015Y-21299616D01*
X5446015Y-21299616D02*
X5436491Y-21309140D01*
X5436491Y-21309140D02*
X5417444Y-21318664D01*
X5417444Y-21318664D02*
X5360301Y-21318664D01*
X5360301Y-21318664D02*
X5341253Y-21309140D01*
X5341253Y-21309140D02*
X5331729Y-21299616D01*
X5541253Y-21299616D02*
X5550777Y-21309140D01*
X5550777Y-21309140D02*
X5541253Y-21318664D01*
X5541253Y-21318664D02*
X5531729Y-21309140D01*
X5531729Y-21309140D02*
X5541253Y-21299616D01*
X5541253Y-21299616D02*
X5541253Y-21318664D01*
X5722205Y-21185330D02*
X5722205Y-21318664D01*
X5674586Y-21109140D02*
X5626967Y-21251997D01*
X5626967Y-21251997D02*
X5750777Y-21251997D01*
X5817443Y-21137711D02*
X5826967Y-21128188D01*
X5826967Y-21128188D02*
X5846015Y-21118664D01*
X5846015Y-21118664D02*
X5893634Y-21118664D01*
X5893634Y-21118664D02*
X5912682Y-21128188D01*
X5912682Y-21128188D02*
X5922205Y-21137711D01*
X5922205Y-21137711D02*
X5931729Y-21156759D01*
X5931729Y-21156759D02*
X5931729Y-21175807D01*
X5931729Y-21175807D02*
X5922205Y-21204378D01*
X5922205Y-21204378D02*
X5807920Y-21318664D01*
X5807920Y-21318664D02*
X5931729Y-21318664D01*
X6026967Y-21318664D02*
X6065062Y-21318664D01*
X6065062Y-21318664D02*
X6084110Y-21309140D01*
X6084110Y-21309140D02*
X6093634Y-21299616D01*
X6093634Y-21299616D02*
X6112682Y-21271045D01*
X6112682Y-21271045D02*
X6122205Y-21232950D01*
X6122205Y-21232950D02*
X6122205Y-21156759D01*
X6122205Y-21156759D02*
X6112682Y-21137711D01*
X6112682Y-21137711D02*
X6103158Y-21128188D01*
X6103158Y-21128188D02*
X6084110Y-21118664D01*
X6084110Y-21118664D02*
X6046015Y-21118664D01*
X6046015Y-21118664D02*
X6026967Y-21128188D01*
X6026967Y-21128188D02*
X6017443Y-21137711D01*
X6017443Y-21137711D02*
X6007920Y-21156759D01*
X6007920Y-21156759D02*
X6007920Y-21204378D01*
X6007920Y-21204378D02*
X6017443Y-21223426D01*
X6017443Y-21223426D02*
X6026967Y-21232950D01*
X6026967Y-21232950D02*
X6046015Y-21242473D01*
X6046015Y-21242473D02*
X6084110Y-21242473D01*
X6084110Y-21242473D02*
X6103158Y-21232950D01*
X6103158Y-21232950D02*
X6112682Y-21223426D01*
X6112682Y-21223426D02*
X6122205Y-21204378D01*
X6207920Y-21318664D02*
X6207920Y-21185330D01*
X6207920Y-21204378D02*
X6217443Y-21194854D01*
X6217443Y-21194854D02*
X6236491Y-21185330D01*
X6236491Y-21185330D02*
X6265063Y-21185330D01*
X6265063Y-21185330D02*
X6284110Y-21194854D01*
X6284110Y-21194854D02*
X6293634Y-21213902D01*
X6293634Y-21213902D02*
X6293634Y-21318664D01*
X6293634Y-21213902D02*
X6303158Y-21194854D01*
X6303158Y-21194854D02*
X6322205Y-21185330D01*
X6322205Y-21185330D02*
X6350777Y-21185330D01*
X6350777Y-21185330D02*
X6369824Y-21194854D01*
X6369824Y-21194854D02*
X6379348Y-21213902D01*
X6379348Y-21213902D02*
X6379348Y-21318664D01*
X6474586Y-21318664D02*
X6474586Y-21185330D01*
X6474586Y-21204378D02*
X6484110Y-21194854D01*
X6484110Y-21194854D02*
X6503158Y-21185330D01*
X6503158Y-21185330D02*
X6531729Y-21185330D01*
X6531729Y-21185330D02*
X6550777Y-21194854D01*
X6550777Y-21194854D02*
X6560301Y-21213902D01*
X6560301Y-21213902D02*
X6560301Y-21318664D01*
X6560301Y-21213902D02*
X6569824Y-21194854D01*
X6569824Y-21194854D02*
X6588872Y-21185330D01*
X6588872Y-21185330D02*
X6617443Y-21185330D01*
X6617443Y-21185330D02*
X6636491Y-21194854D01*
X6636491Y-21194854D02*
X6646015Y-21213902D01*
X6646015Y-21213902D02*
X6646015Y-21318664D01*
X7036491Y-21109140D02*
X6865063Y-21366283D01*
X7293634Y-21118664D02*
X7312682Y-21118664D01*
X7312682Y-21118664D02*
X7331729Y-21128188D01*
X7331729Y-21128188D02*
X7341253Y-21137711D01*
X7341253Y-21137711D02*
X7350777Y-21156759D01*
X7350777Y-21156759D02*
X7360301Y-21194854D01*
X7360301Y-21194854D02*
X7360301Y-21242473D01*
X7360301Y-21242473D02*
X7350777Y-21280569D01*
X7350777Y-21280569D02*
X7341253Y-21299616D01*
X7341253Y-21299616D02*
X7331729Y-21309140D01*
X7331729Y-21309140D02*
X7312682Y-21318664D01*
X7312682Y-21318664D02*
X7293634Y-21318664D01*
X7293634Y-21318664D02*
X7274586Y-21309140D01*
X7274586Y-21309140D02*
X7265063Y-21299616D01*
X7265063Y-21299616D02*
X7255539Y-21280569D01*
X7255539Y-21280569D02*
X7246015Y-21242473D01*
X7246015Y-21242473D02*
X7246015Y-21194854D01*
X7246015Y-21194854D02*
X7255539Y-21156759D01*
X7255539Y-21156759D02*
X7265063Y-21137711D01*
X7265063Y-21137711D02*
X7274586Y-21128188D01*
X7274586Y-21128188D02*
X7293634Y-21118664D01*
X7446015Y-21299616D02*
X7455539Y-21309140D01*
X7455539Y-21309140D02*
X7446015Y-21318664D01*
X7446015Y-21318664D02*
X7436491Y-21309140D01*
X7436491Y-21309140D02*
X7446015Y-21299616D01*
X7446015Y-21299616D02*
X7446015Y-21318664D01*
X7646015Y-21318664D02*
X7531729Y-21318664D01*
X7588872Y-21318664D02*
X7588872Y-21118664D01*
X7588872Y-21118664D02*
X7569825Y-21147235D01*
X7569825Y-21147235D02*
X7550777Y-21166283D01*
X7550777Y-21166283D02*
X7531729Y-21175807D01*
X7712682Y-21118664D02*
X7836491Y-21118664D01*
X7836491Y-21118664D02*
X7769825Y-21194854D01*
X7769825Y-21194854D02*
X7798396Y-21194854D01*
X7798396Y-21194854D02*
X7817444Y-21204378D01*
X7817444Y-21204378D02*
X7826967Y-21213902D01*
X7826967Y-21213902D02*
X7836491Y-21232950D01*
X7836491Y-21232950D02*
X7836491Y-21280569D01*
X7836491Y-21280569D02*
X7826967Y-21299616D01*
X7826967Y-21299616D02*
X7817444Y-21309140D01*
X7817444Y-21309140D02*
X7798396Y-21318664D01*
X7798396Y-21318664D02*
X7741253Y-21318664D01*
X7741253Y-21318664D02*
X7722206Y-21309140D01*
X7722206Y-21309140D02*
X7712682Y-21299616D01*
X8017444Y-21118664D02*
X7922206Y-21118664D01*
X7922206Y-21118664D02*
X7912682Y-21213902D01*
X7912682Y-21213902D02*
X7922206Y-21204378D01*
X7922206Y-21204378D02*
X7941253Y-21194854D01*
X7941253Y-21194854D02*
X7988872Y-21194854D01*
X7988872Y-21194854D02*
X8007920Y-21204378D01*
X8007920Y-21204378D02*
X8017444Y-21213902D01*
X8017444Y-21213902D02*
X8026967Y-21232950D01*
X8026967Y-21232950D02*
X8026967Y-21280569D01*
X8026967Y-21280569D02*
X8017444Y-21299616D01*
X8017444Y-21299616D02*
X8007920Y-21309140D01*
X8007920Y-21309140D02*
X7988872Y-21318664D01*
X7988872Y-21318664D02*
X7941253Y-21318664D01*
X7941253Y-21318664D02*
X7922206Y-21309140D01*
X7922206Y-21309140D02*
X7912682Y-21299616D01*
X8150777Y-21118664D02*
X8169825Y-21118664D01*
X8169825Y-21118664D02*
X8188872Y-21128188D01*
X8188872Y-21128188D02*
X8198396Y-21137711D01*
X8198396Y-21137711D02*
X8207920Y-21156759D01*
X8207920Y-21156759D02*
X8217444Y-21194854D01*
X8217444Y-21194854D02*
X8217444Y-21242473D01*
X8217444Y-21242473D02*
X8207920Y-21280569D01*
X8207920Y-21280569D02*
X8198396Y-21299616D01*
X8198396Y-21299616D02*
X8188872Y-21309140D01*
X8188872Y-21309140D02*
X8169825Y-21318664D01*
X8169825Y-21318664D02*
X8150777Y-21318664D01*
X8150777Y-21318664D02*
X8131729Y-21309140D01*
X8131729Y-21309140D02*
X8122206Y-21299616D01*
X8122206Y-21299616D02*
X8112682Y-21280569D01*
X8112682Y-21280569D02*
X8103158Y-21242473D01*
X8103158Y-21242473D02*
X8103158Y-21194854D01*
X8103158Y-21194854D02*
X8112682Y-21156759D01*
X8112682Y-21156759D02*
X8122206Y-21137711D01*
X8122206Y-21137711D02*
X8131729Y-21128188D01*
X8131729Y-21128188D02*
X8150777Y-21118664D01*
X8293634Y-21118664D02*
X8293634Y-21156759D01*
X8369825Y-21118664D02*
X8369825Y-21156759D01*
X8665063Y-21394854D02*
X8655539Y-21385330D01*
X8655539Y-21385330D02*
X8636491Y-21356759D01*
X8636491Y-21356759D02*
X8626968Y-21337711D01*
X8626968Y-21337711D02*
X8617444Y-21309140D01*
X8617444Y-21309140D02*
X8607920Y-21261521D01*
X8607920Y-21261521D02*
X8607920Y-21223426D01*
X8607920Y-21223426D02*
X8617444Y-21175807D01*
X8617444Y-21175807D02*
X8626968Y-21147235D01*
X8626968Y-21147235D02*
X8636491Y-21128188D01*
X8636491Y-21128188D02*
X8655539Y-21099616D01*
X8655539Y-21099616D02*
X8665063Y-21090092D01*
X8846015Y-21318664D02*
X8731730Y-21318664D01*
X8788872Y-21318664D02*
X8788872Y-21118664D01*
X8788872Y-21118664D02*
X8769825Y-21147235D01*
X8769825Y-21147235D02*
X8750777Y-21166283D01*
X8750777Y-21166283D02*
X8731730Y-21175807D01*
X9026968Y-21118664D02*
X8931730Y-21118664D01*
X8931730Y-21118664D02*
X8922206Y-21213902D01*
X8922206Y-21213902D02*
X8931730Y-21204378D01*
X8931730Y-21204378D02*
X8950777Y-21194854D01*
X8950777Y-21194854D02*
X8998396Y-21194854D01*
X8998396Y-21194854D02*
X9017444Y-21204378D01*
X9017444Y-21204378D02*
X9026968Y-21213902D01*
X9026968Y-21213902D02*
X9036491Y-21232950D01*
X9036491Y-21232950D02*
X9036491Y-21280569D01*
X9036491Y-21280569D02*
X9026968Y-21299616D01*
X9026968Y-21299616D02*
X9017444Y-21309140D01*
X9017444Y-21309140D02*
X8998396Y-21318664D01*
X8998396Y-21318664D02*
X8950777Y-21318664D01*
X8950777Y-21318664D02*
X8931730Y-21309140D01*
X8931730Y-21309140D02*
X8922206Y-21299616D01*
X9274587Y-21318664D02*
X9274587Y-21118664D01*
X9360301Y-21318664D02*
X9360301Y-21213902D01*
X9360301Y-21213902D02*
X9350777Y-21194854D01*
X9350777Y-21194854D02*
X9331730Y-21185330D01*
X9331730Y-21185330D02*
X9303158Y-21185330D01*
X9303158Y-21185330D02*
X9284111Y-21194854D01*
X9284111Y-21194854D02*
X9274587Y-21204378D01*
X9484111Y-21318664D02*
X9465063Y-21309140D01*
X9465063Y-21309140D02*
X9455539Y-21299616D01*
X9455539Y-21299616D02*
X9446015Y-21280569D01*
X9446015Y-21280569D02*
X9446015Y-21223426D01*
X9446015Y-21223426D02*
X9455539Y-21204378D01*
X9455539Y-21204378D02*
X9465063Y-21194854D01*
X9465063Y-21194854D02*
X9484111Y-21185330D01*
X9484111Y-21185330D02*
X9512682Y-21185330D01*
X9512682Y-21185330D02*
X9531730Y-21194854D01*
X9531730Y-21194854D02*
X9541253Y-21204378D01*
X9541253Y-21204378D02*
X9550777Y-21223426D01*
X9550777Y-21223426D02*
X9550777Y-21280569D01*
X9550777Y-21280569D02*
X9541253Y-21299616D01*
X9541253Y-21299616D02*
X9531730Y-21309140D01*
X9531730Y-21309140D02*
X9512682Y-21318664D01*
X9512682Y-21318664D02*
X9484111Y-21318664D01*
X9665063Y-21318664D02*
X9646015Y-21309140D01*
X9646015Y-21309140D02*
X9636492Y-21290092D01*
X9636492Y-21290092D02*
X9636492Y-21118664D01*
X9817444Y-21309140D02*
X9798396Y-21318664D01*
X9798396Y-21318664D02*
X9760301Y-21318664D01*
X9760301Y-21318664D02*
X9741253Y-21309140D01*
X9741253Y-21309140D02*
X9731730Y-21290092D01*
X9731730Y-21290092D02*
X9731730Y-21213902D01*
X9731730Y-21213902D02*
X9741253Y-21194854D01*
X9741253Y-21194854D02*
X9760301Y-21185330D01*
X9760301Y-21185330D02*
X9798396Y-21185330D01*
X9798396Y-21185330D02*
X9817444Y-21194854D01*
X9817444Y-21194854D02*
X9826968Y-21213902D01*
X9826968Y-21213902D02*
X9826968Y-21232950D01*
X9826968Y-21232950D02*
X9731730Y-21251997D01*
X9903158Y-21309140D02*
X9922206Y-21318664D01*
X9922206Y-21318664D02*
X9960301Y-21318664D01*
X9960301Y-21318664D02*
X9979349Y-21309140D01*
X9979349Y-21309140D02*
X9988873Y-21290092D01*
X9988873Y-21290092D02*
X9988873Y-21280569D01*
X9988873Y-21280569D02*
X9979349Y-21261521D01*
X9979349Y-21261521D02*
X9960301Y-21251997D01*
X9960301Y-21251997D02*
X9931730Y-21251997D01*
X9931730Y-21251997D02*
X9912682Y-21242473D01*
X9912682Y-21242473D02*
X9903158Y-21223426D01*
X9903158Y-21223426D02*
X9903158Y-21213902D01*
X9903158Y-21213902D02*
X9912682Y-21194854D01*
X9912682Y-21194854D02*
X9931730Y-21185330D01*
X9931730Y-21185330D02*
X9960301Y-21185330D01*
X9960301Y-21185330D02*
X9979349Y-21194854D01*
X10055539Y-21394854D02*
X10065063Y-21385330D01*
X10065063Y-21385330D02*
X10084111Y-21356759D01*
X10084111Y-21356759D02*
X10093634Y-21337711D01*
X10093634Y-21337711D02*
X10103158Y-21309140D01*
X10103158Y-21309140D02*
X10112682Y-21261521D01*
X10112682Y-21261521D02*
X10112682Y-21223426D01*
X10112682Y-21223426D02*
X10103158Y-21175807D01*
X10103158Y-21175807D02*
X10093634Y-21147235D01*
X10093634Y-21147235D02*
X10084111Y-21128188D01*
X10084111Y-21128188D02*
X10065063Y-21099616D01*
X10065063Y-21099616D02*
X10055539Y-21090092D01*
X10417444Y-21394854D02*
X10407920Y-21385330D01*
X10407920Y-21385330D02*
X10388873Y-21356759D01*
X10388873Y-21356759D02*
X10379349Y-21337711D01*
X10379349Y-21337711D02*
X10369825Y-21309140D01*
X10369825Y-21309140D02*
X10360301Y-21261521D01*
X10360301Y-21261521D02*
X10360301Y-21223426D01*
X10360301Y-21223426D02*
X10369825Y-21175807D01*
X10369825Y-21175807D02*
X10379349Y-21147235D01*
X10379349Y-21147235D02*
X10388873Y-21128188D01*
X10388873Y-21128188D02*
X10407920Y-21099616D01*
X10407920Y-21099616D02*
X10417444Y-21090092D01*
X10493634Y-21185330D02*
X10493634Y-21318664D01*
X10493634Y-21204378D02*
X10503158Y-21194854D01*
X10503158Y-21194854D02*
X10522206Y-21185330D01*
X10522206Y-21185330D02*
X10550777Y-21185330D01*
X10550777Y-21185330D02*
X10569825Y-21194854D01*
X10569825Y-21194854D02*
X10579349Y-21213902D01*
X10579349Y-21213902D02*
X10579349Y-21318664D01*
X10703158Y-21318664D02*
X10684111Y-21309140D01*
X10684111Y-21309140D02*
X10674587Y-21299616D01*
X10674587Y-21299616D02*
X10665063Y-21280569D01*
X10665063Y-21280569D02*
X10665063Y-21223426D01*
X10665063Y-21223426D02*
X10674587Y-21204378D01*
X10674587Y-21204378D02*
X10684111Y-21194854D01*
X10684111Y-21194854D02*
X10703158Y-21185330D01*
X10703158Y-21185330D02*
X10731730Y-21185330D01*
X10731730Y-21185330D02*
X10750777Y-21194854D01*
X10750777Y-21194854D02*
X10760301Y-21204378D01*
X10760301Y-21204378D02*
X10769825Y-21223426D01*
X10769825Y-21223426D02*
X10769825Y-21280569D01*
X10769825Y-21280569D02*
X10760301Y-21299616D01*
X10760301Y-21299616D02*
X10750777Y-21309140D01*
X10750777Y-21309140D02*
X10731730Y-21318664D01*
X10731730Y-21318664D02*
X10703158Y-21318664D01*
X10826968Y-21185330D02*
X10903158Y-21185330D01*
X10855539Y-21118664D02*
X10855539Y-21290092D01*
X10855539Y-21290092D02*
X10865063Y-21309140D01*
X10865063Y-21309140D02*
X10884111Y-21318664D01*
X10884111Y-21318664D02*
X10903158Y-21318664D01*
X11122206Y-21185330D02*
X11122206Y-21385330D01*
X11122206Y-21194854D02*
X11141254Y-21185330D01*
X11141254Y-21185330D02*
X11179349Y-21185330D01*
X11179349Y-21185330D02*
X11198396Y-21194854D01*
X11198396Y-21194854D02*
X11207920Y-21204378D01*
X11207920Y-21204378D02*
X11217444Y-21223426D01*
X11217444Y-21223426D02*
X11217444Y-21280569D01*
X11217444Y-21280569D02*
X11207920Y-21299616D01*
X11207920Y-21299616D02*
X11198396Y-21309140D01*
X11198396Y-21309140D02*
X11179349Y-21318664D01*
X11179349Y-21318664D02*
X11141254Y-21318664D01*
X11141254Y-21318664D02*
X11122206Y-21309140D01*
X11331730Y-21318664D02*
X11312682Y-21309140D01*
X11312682Y-21309140D02*
X11303158Y-21290092D01*
X11303158Y-21290092D02*
X11303158Y-21118664D01*
X11493634Y-21318664D02*
X11493634Y-21213902D01*
X11493634Y-21213902D02*
X11484111Y-21194854D01*
X11484111Y-21194854D02*
X11465063Y-21185330D01*
X11465063Y-21185330D02*
X11426968Y-21185330D01*
X11426968Y-21185330D02*
X11407920Y-21194854D01*
X11493634Y-21309140D02*
X11474587Y-21318664D01*
X11474587Y-21318664D02*
X11426968Y-21318664D01*
X11426968Y-21318664D02*
X11407920Y-21309140D01*
X11407920Y-21309140D02*
X11398396Y-21290092D01*
X11398396Y-21290092D02*
X11398396Y-21271045D01*
X11398396Y-21271045D02*
X11407920Y-21251997D01*
X11407920Y-21251997D02*
X11426968Y-21242473D01*
X11426968Y-21242473D02*
X11474587Y-21242473D01*
X11474587Y-21242473D02*
X11493634Y-21232950D01*
X11560301Y-21185330D02*
X11636492Y-21185330D01*
X11588873Y-21118664D02*
X11588873Y-21290092D01*
X11588873Y-21290092D02*
X11598396Y-21309140D01*
X11598396Y-21309140D02*
X11617444Y-21318664D01*
X11617444Y-21318664D02*
X11636492Y-21318664D01*
X11779349Y-21309140D02*
X11760301Y-21318664D01*
X11760301Y-21318664D02*
X11722206Y-21318664D01*
X11722206Y-21318664D02*
X11703158Y-21309140D01*
X11703158Y-21309140D02*
X11693634Y-21290092D01*
X11693634Y-21290092D02*
X11693634Y-21213902D01*
X11693634Y-21213902D02*
X11703158Y-21194854D01*
X11703158Y-21194854D02*
X11722206Y-21185330D01*
X11722206Y-21185330D02*
X11760301Y-21185330D01*
X11760301Y-21185330D02*
X11779349Y-21194854D01*
X11779349Y-21194854D02*
X11788873Y-21213902D01*
X11788873Y-21213902D02*
X11788873Y-21232950D01*
X11788873Y-21232950D02*
X11693634Y-21251997D01*
X11960301Y-21318664D02*
X11960301Y-21118664D01*
X11960301Y-21309140D02*
X11941254Y-21318664D01*
X11941254Y-21318664D02*
X11903158Y-21318664D01*
X11903158Y-21318664D02*
X11884111Y-21309140D01*
X11884111Y-21309140D02*
X11874587Y-21299616D01*
X11874587Y-21299616D02*
X11865063Y-21280569D01*
X11865063Y-21280569D02*
X11865063Y-21223426D01*
X11865063Y-21223426D02*
X11874587Y-21204378D01*
X11874587Y-21204378D02*
X11884111Y-21194854D01*
X11884111Y-21194854D02*
X11903158Y-21185330D01*
X11903158Y-21185330D02*
X11941254Y-21185330D01*
X11941254Y-21185330D02*
X11960301Y-21194854D01*
X12036492Y-21394854D02*
X12046015Y-21385330D01*
X12046015Y-21385330D02*
X12065063Y-21356759D01*
X12065063Y-21356759D02*
X12074587Y-21337711D01*
X12074587Y-21337711D02*
X12084111Y-21309140D01*
X12084111Y-21309140D02*
X12093634Y-21261521D01*
X12093634Y-21261521D02*
X12093634Y-21223426D01*
X12093634Y-21223426D02*
X12084111Y-21175807D01*
X12084111Y-21175807D02*
X12074587Y-21147235D01*
X12074587Y-21147235D02*
X12065063Y-21128188D01*
X12065063Y-21128188D02*
X12046015Y-21099616D01*
X12046015Y-21099616D02*
X12036492Y-21090092D01*
M02*
