M48
; DRILL file {KiCad 7.0.9} date Sun Dec 17 00:29:11 2023
; FORMAT={-:-/ absolute / metric / decimal}
; #@! TF.CreationDate,2023-12-17T00:29:11+09:00
; #@! TF.GenerationSoftware,Kicad,Pcbnew,7.0.9
; #@! TF.FileFunction,Plated,1,2,PTH
FMAT,2
METRIC
; #@! TA.AperFunction,Plated,PTH,ViaDrill
T1C0.300
; #@! TA.AperFunction,Plated,PTH,ComponentDrill
T2C0.762
; #@! TA.AperFunction,Plated,PTH,ComponentDrill
T3C1.100
; #@! TA.AperFunction,Plated,PTH,ComponentDrill
T4C1.270
; #@! TA.AperFunction,Plated,PTH,ComponentDrill
T5C1.300
%
G90
G05
T1
X54.08Y-58.16
X54.08Y-68.32
X54.08Y-78.48
X54.08Y-88.64
X54.08Y-98.8
X54.08Y-108.96
X54.08Y-119.12
X54.08Y-129.28
X54.08Y-139.44
X54.08Y-149.6
X54.08Y-159.76
X54.08Y-169.92
X54.08Y-180.08
X59.16Y-53.08
X59.16Y-63.24
X59.16Y-73.4
X59.16Y-83.56
X59.16Y-93.72
X59.16Y-103.88
X59.16Y-114.04
X59.16Y-124.2
X59.16Y-134.36
X59.16Y-144.52
X59.16Y-154.68
X59.16Y-164.84
X59.16Y-175.0
X59.16Y-185.16
X64.24Y-129.28
X64.24Y-139.44
X64.24Y-180.08
X64.24Y-190.24
X69.32Y-68.32
X69.32Y-134.36
X69.32Y-185.16
X74.4Y-73.4
X74.4Y-83.56
X74.4Y-93.72
X74.4Y-129.28
X74.4Y-139.44
X74.4Y-180.08
X74.4Y-190.24
X75.416Y-53.588
X78.464Y-55.62
X78.972Y-52.572
X79.48Y-68.32
X79.48Y-78.48
X79.48Y-88.64
X79.48Y-98.8
X79.48Y-134.36
X79.48Y-185.16
X84.56Y-73.4
X84.56Y-83.56
X84.56Y-93.72
X84.56Y-129.28
X84.56Y-139.44
X84.56Y-180.08
X84.56Y-190.24
X86.592Y-52.572
X86.592Y-55.62
X89.64Y-68.32
X89.64Y-78.48
X89.64Y-88.64
X89.64Y-98.8
X89.64Y-134.36
X89.64Y-164.84
X89.64Y-175.0
X89.64Y-185.16
X94.72Y-58.16
X94.72Y-73.4
X94.72Y-83.56
X94.72Y-93.72
X94.72Y-129.28
X94.72Y-139.44
X94.72Y-159.76
X94.72Y-169.92
X94.72Y-180.08
X94.72Y-190.24
X96.752Y-52.572
X96.752Y-55.62
X99.8Y-63.24
X99.8Y-68.32
X99.8Y-78.48
X99.8Y-98.8
X99.8Y-134.36
X99.8Y-144.52
X99.8Y-154.68
X99.8Y-185.16
X101.832Y-82.036
X103.356Y-52.572
X103.356Y-55.62
X104.88Y-58.16
X104.88Y-73.4
X104.88Y-129.28
X104.88Y-139.44
X104.88Y-149.6
X104.88Y-190.24
X105.388Y-79.496
X105.515Y-90.545
X105.515Y-98.8
X108.436Y-142.488
X108.944Y-152.648
X109.325Y-90.545
X109.325Y-98.8
X109.96Y-63.24
X109.96Y-68.32
X109.96Y-185.16
X110.976Y-52.572
X110.976Y-55.62
X111.992Y-145.028
X111.992Y-152.648
X112.5Y-80.385
X112.5Y-98.8
X112.5Y-107.69
X112.5Y-122.93
X112.5Y-140.075
X113.516Y-71.368
X113.516Y-93.212
X114.024Y-114.548
X115.04Y-58.16
X115.04Y-190.24
X116.31Y-102.61
X116.564Y-89.148
X116.564Y-97.276
X116.564Y-112.008
X117.58Y-63.24
X118.088Y-52.572
X118.088Y-55.62
X118.215Y-71.495
X118.596Y-146.552
X120.12Y-185.16
X123.676Y-157.22
X125.2Y-190.24
X126.216Y-112.008
X127.232Y-154.68
X129.264Y-109.468
X130.28Y-185.16
X131.804Y-165.348
X135.36Y-190.24
X135.868Y-163.316
X137.392Y-117.596
X137.9Y-86.1
X137.9Y-124.2
X139.424Y-81.528
X139.932Y-121.152
X140.44Y-53.08
X140.44Y-63.24
X143.996Y-86.1
X144.504Y-130.804
X145.52Y-190.24
X146.536Y-94.736
X147.552Y-81.528
X148.06Y-128.772
X150.092Y-55.62
X150.6Y-63.24
X150.6Y-74.924
X150.6Y-185.16
X151.108Y-51.556
X152.124Y-94.736
X154.664Y-81.528
X155.68Y-159.76
X155.68Y-169.92
X155.68Y-180.08
X156.188Y-103.88
X160.76Y-63.24
X160.76Y-103.88
X160.76Y-154.68
X160.76Y-164.84
X160.76Y-175.0
X160.76Y-185.16
X162.284Y-81.528
X164.824Y-74.924
X165.84Y-51.556
X165.84Y-58.16
X165.84Y-149.6
X165.84Y-159.76
X165.84Y-169.92
X165.84Y-180.08
X165.84Y-190.24
X166.856Y-81.528
X166.856Y-114.548
X170.92Y-63.24
X170.92Y-154.68
X170.92Y-185.16
X171.428Y-81.02
X171.428Y-114.548
X172.952Y-120.644
X175.492Y-51.556
X175.492Y-85.084
X176.0Y-58.16
X176.0Y-149.6
X176.0Y-159.76
X176.0Y-190.24
X178.032Y-121.152
X179.556Y-89.148
X180.572Y-84.576
X181.08Y-154.68
X181.08Y-185.16
X184.128Y-88.132
X184.128Y-93.72
X185.652Y-51.556
X186.16Y-58.16
X186.16Y-149.6
X186.16Y-190.24
X186.668Y-84.576
X188.192Y-92.196
X191.24Y-84.576
X191.24Y-144.52
X191.24Y-154.68
X191.24Y-185.16
X191.748Y-95.752
X195.304Y-99.308
X196.32Y-58.16
X196.32Y-68.32
X196.32Y-139.44
X196.32Y-149.6
X196.32Y-190.24
X198.86Y-103.372
X199.876Y-51.556
X201.4Y-63.24
X201.4Y-144.52
X201.4Y-185.16
X202.924Y-106.928
X205.972Y-80.004
X205.972Y-109.976
X206.48Y-68.32
X206.48Y-139.44
X206.48Y-190.24
X211.052Y-74.416
X211.052Y-81.02
X211.56Y-63.24
X211.56Y-144.52
X211.56Y-185.16
X213.592Y-77.464
X215.116Y-72.892
X216.132Y-89.656
X216.64Y-58.16
X216.64Y-68.32
X216.64Y-129.28
X216.64Y-139.44
X216.64Y-190.24
X218.672Y-87.116
X221.72Y-53.08
X221.72Y-63.24
X221.72Y-124.2
X221.72Y-134.36
X221.72Y-144.52
X221.72Y-185.16
X223.244Y-96.26
X225.276Y-94.228
X226.8Y-58.16
X226.8Y-68.32
X226.8Y-129.28
X226.8Y-139.44
X226.8Y-190.24
X230.356Y-103.372
X231.88Y-53.08
X231.88Y-134.36
X231.88Y-185.16
X233.404Y-106.42
X233.912Y-102.356
X236.96Y-58.16
X236.96Y-68.32
X236.96Y-139.44
X236.96Y-190.24
X242.04Y-53.08
X242.04Y-134.36
X242.04Y-185.16
X244.58Y-72.892
X244.58Y-76.448
X247.12Y-58.16
X247.12Y-68.32
X247.12Y-129.28
X247.12Y-139.44
X247.12Y-190.24
X248.136Y-74.924
X250.168Y-82.544
X252.2Y-53.08
X252.2Y-73.4
X252.2Y-124.2
X252.2Y-134.36
X252.2Y-185.16
X255.756Y-88.132
X257.28Y-58.16
X257.28Y-78.48
X257.28Y-119.12
X257.28Y-129.28
X257.28Y-139.44
X257.28Y-190.24
X262.36Y-53.08
X262.36Y-83.56
X262.36Y-124.2
X262.36Y-134.36
X262.36Y-185.16
X267.44Y-58.16
X267.44Y-88.64
X267.44Y-129.28
X267.44Y-139.44
X267.44Y-190.24
X272.52Y-53.08
X272.52Y-63.24
X272.52Y-73.4
X272.52Y-83.56
X272.52Y-93.72
X272.52Y-103.88
X272.52Y-114.04
X272.52Y-124.2
X272.52Y-134.36
X272.52Y-144.52
X272.52Y-154.68
X272.52Y-164.84
X272.52Y-175.0
X272.52Y-185.16
X277.6Y-68.32
X277.6Y-78.48
X277.6Y-88.64
X277.6Y-98.8
X277.6Y-108.96
X277.6Y-119.12
X277.6Y-129.28
X277.6Y-139.44
X277.6Y-149.6
X277.6Y-159.76
X277.6Y-169.92
X277.6Y-180.08
T2
X205.2Y-53.75
X210.2Y-53.75
T3
X67.75Y-59.75
X67.75Y-66.25
X72.25Y-59.75
X72.25Y-66.25
X77.75Y-59.75
X77.75Y-66.25
X82.25Y-59.75
X82.25Y-66.25
X87.75Y-59.75
X87.75Y-66.25
X92.25Y-59.75
X92.25Y-66.25
X120.88Y-54.3
X120.88Y-56.84
X120.88Y-59.38
X120.88Y-61.92
X120.88Y-64.46
X120.88Y-67.0
X120.88Y-69.54
X120.88Y-72.08
X120.88Y-74.62
X120.88Y-77.16
X120.88Y-79.7
X120.88Y-82.24
X136.12Y-54.3
X136.12Y-56.84
X136.12Y-59.38
X136.12Y-61.92
X136.12Y-64.46
X136.12Y-67.0
X136.12Y-69.54
X136.12Y-72.08
X136.12Y-74.62
X136.12Y-77.16
X136.12Y-79.7
X136.12Y-82.24
T4
X66.75Y-116.55
X71.75Y-118.65
X76.75Y-116.55
X95.37Y-116.55
X100.37Y-118.65
X102.22Y-174.27
X105.37Y-116.55
X107.22Y-176.37
X112.22Y-174.27
X120.82Y-130.06
X125.82Y-132.16
X130.82Y-130.06
X133.79Y-182.47
X138.79Y-184.57
X143.79Y-182.47
X145.89Y-147.61
X148.05Y-117.5
X150.89Y-149.71
X153.05Y-119.6
X155.89Y-147.61
X158.05Y-117.5
X172.87Y-136.17
X174.4Y-106.09
X177.54Y-75.55
X177.87Y-138.27
X179.4Y-108.19
X182.54Y-77.65
X182.87Y-136.17
X184.4Y-106.09
X187.54Y-75.55
X199.85Y-124.73
X200.75Y-94.68
X204.85Y-126.83
X205.75Y-96.78
X209.85Y-124.73
X210.75Y-94.68
X229.85Y-90.74
X231.22Y-120.19
X234.85Y-92.84
X236.22Y-122.29
X239.85Y-90.74
X241.22Y-120.19
X257.42Y-104.91
X262.42Y-107.01
X267.42Y-104.91
T5
X204.1Y-56.15
X211.3Y-56.15
T0
M30
