G04 #@! TF.GenerationSoftware,KiCad,Pcbnew,7.0.9*
G04 #@! TF.CreationDate,2023-12-16T20:19:25+09:00*
G04 #@! TF.ProjectId,ergoSHIFT-rev1-kicad,6572676f-5348-4494-9654-2d726576312d,rev?*
G04 #@! TF.SameCoordinates,Original*
G04 #@! TF.FileFunction,Soldermask,Bot*
G04 #@! TF.FilePolarity,Negative*
%FSLAX46Y46*%
G04 Gerber Fmt 4.6, Leading zero omitted, Abs format (unit mm)*
G04 Created by KiCad (PCBNEW 7.0.9) date 2023-12-16 20:19:25*
%MOMM*%
%LPD*%
G01*
G04 APERTURE LIST*
%ADD10C,1.701800*%
%ADD11C,3.000000*%
%ADD12C,3.429000*%
%ADD13R,2.600000X2.600000*%
%ADD14C,2.032000*%
%ADD15C,1.524000*%
%ADD16C,1.800000*%
%ADD17R,1.600000X1.600000*%
%ADD18C,1.600000*%
%ADD19C,2.000000*%
G04 APERTURE END LIST*
D10*
X201250000Y-92880000D03*
D11*
X201750000Y-89130000D03*
X206750000Y-86930000D03*
D12*
X206750000Y-92880000D03*
D11*
X211750000Y-89130000D03*
D10*
X212250000Y-92880000D03*
D13*
X203475000Y-86930000D03*
D14*
X206750000Y-98780000D03*
X201750000Y-96680000D03*
X211750000Y-96680000D03*
D13*
X215025000Y-89130000D03*
D10*
X178040000Y-73750000D03*
D11*
X178540000Y-70000000D03*
X183540000Y-67800000D03*
D12*
X183540000Y-73750000D03*
D11*
X188540000Y-70000000D03*
D10*
X189040000Y-73750000D03*
D13*
X180265000Y-67800000D03*
D14*
X183540000Y-79650000D03*
X178540000Y-77550000D03*
X188540000Y-77550000D03*
D13*
X191815000Y-70000000D03*
D10*
X173370000Y-134370000D03*
D11*
X173870000Y-130620000D03*
X178870000Y-128420000D03*
D12*
X178870000Y-134370000D03*
D11*
X183870000Y-130620000D03*
D10*
X184370000Y-134370000D03*
D13*
X175595000Y-128420000D03*
D14*
X178870000Y-140270000D03*
X173870000Y-138170000D03*
X183870000Y-138170000D03*
D13*
X187145000Y-130620000D03*
D10*
X231720000Y-118390000D03*
D11*
X232220000Y-114640000D03*
X237220000Y-112440000D03*
D12*
X237220000Y-118390000D03*
D11*
X242220000Y-114640000D03*
D10*
X242720000Y-118390000D03*
D13*
X233945000Y-112440000D03*
D14*
X237220000Y-124290000D03*
X232220000Y-122190000D03*
X242220000Y-122190000D03*
D13*
X245495000Y-114640000D03*
D15*
X206200000Y-55750000D03*
X211200000Y-55750000D03*
D16*
X205100000Y-58150000D03*
X212300000Y-58150000D03*
D17*
X121880000Y-56300000D03*
D18*
X121880000Y-58840000D03*
X121880000Y-61380000D03*
X121880000Y-63920000D03*
X121880000Y-66460000D03*
X121880000Y-69000000D03*
X121880000Y-71540000D03*
X121880000Y-74080000D03*
X121880000Y-76620000D03*
X121880000Y-79160000D03*
X121880000Y-81700000D03*
X121880000Y-84240000D03*
X137120000Y-84240000D03*
X137120000Y-81700000D03*
X137120000Y-79160000D03*
X137120000Y-76620000D03*
X137120000Y-74080000D03*
X137120000Y-71540000D03*
X137120000Y-69000000D03*
X137120000Y-66460000D03*
X137120000Y-63920000D03*
X137120000Y-61380000D03*
X137120000Y-58840000D03*
X137120000Y-56300000D03*
D10*
X121320000Y-128260000D03*
D11*
X121820000Y-124510000D03*
X126820000Y-122310000D03*
D12*
X126820000Y-128260000D03*
D11*
X131820000Y-124510000D03*
D10*
X132320000Y-128260000D03*
D13*
X123545000Y-122310000D03*
D14*
X126820000Y-134160000D03*
X121820000Y-132060000D03*
X131820000Y-132060000D03*
D13*
X135095000Y-124510000D03*
D19*
X83250000Y-61750000D03*
X83250000Y-68250000D03*
X78750000Y-61750000D03*
X78750000Y-68250000D03*
D10*
X257920000Y-103110000D03*
D11*
X258420000Y-99360000D03*
X263420000Y-97160000D03*
D12*
X263420000Y-103110000D03*
D11*
X268420000Y-99360000D03*
D10*
X268920000Y-103110000D03*
D13*
X260145000Y-97160000D03*
D14*
X263420000Y-109010000D03*
X258420000Y-106910000D03*
X268420000Y-106910000D03*
D13*
X271695000Y-99360000D03*
D10*
X146390000Y-145810000D03*
D11*
X146890000Y-142060000D03*
X151890000Y-139860000D03*
D12*
X151890000Y-145810000D03*
D11*
X156890000Y-142060000D03*
D10*
X157390000Y-145810000D03*
D13*
X148615000Y-139860000D03*
D14*
X151890000Y-151710000D03*
X146890000Y-149610000D03*
X156890000Y-149610000D03*
D13*
X160165000Y-142060000D03*
D10*
X148550000Y-115700000D03*
D11*
X149050000Y-111950000D03*
X154050000Y-109750000D03*
D12*
X154050000Y-115700000D03*
D11*
X159050000Y-111950000D03*
D10*
X159550000Y-115700000D03*
D13*
X150775000Y-109750000D03*
D14*
X154050000Y-121600000D03*
X149050000Y-119500000D03*
X159050000Y-119500000D03*
D13*
X162325000Y-111950000D03*
D10*
X102720000Y-172470000D03*
D11*
X103220000Y-168720000D03*
X108220000Y-166520000D03*
D12*
X108220000Y-172470000D03*
D11*
X113220000Y-168720000D03*
D10*
X113720000Y-172470000D03*
D13*
X104945000Y-166520000D03*
D14*
X108220000Y-178370000D03*
X103220000Y-176270000D03*
X113220000Y-176270000D03*
D13*
X116495000Y-168720000D03*
D10*
X174900000Y-104290000D03*
D11*
X175400000Y-100540000D03*
X180400000Y-98340000D03*
D12*
X180400000Y-104290000D03*
D11*
X185400000Y-100540000D03*
D10*
X185900000Y-104290000D03*
D13*
X177125000Y-98340000D03*
D14*
X180400000Y-110190000D03*
X175400000Y-108090000D03*
X185400000Y-108090000D03*
D13*
X188675000Y-100540000D03*
D10*
X200350000Y-122930000D03*
D11*
X200850000Y-119180000D03*
X205850000Y-116980000D03*
D12*
X205850000Y-122930000D03*
D11*
X210850000Y-119180000D03*
D10*
X211350000Y-122930000D03*
D13*
X202575000Y-116980000D03*
D14*
X205850000Y-128830000D03*
X200850000Y-126730000D03*
X210850000Y-126730000D03*
D13*
X214125000Y-119180000D03*
D10*
X134290000Y-180670000D03*
D11*
X134790000Y-176920000D03*
X139790000Y-174720000D03*
D12*
X139790000Y-180670000D03*
D11*
X144790000Y-176920000D03*
D10*
X145290000Y-180670000D03*
D13*
X136515000Y-174720000D03*
D14*
X139790000Y-186570000D03*
X134790000Y-184470000D03*
X144790000Y-184470000D03*
D13*
X148065000Y-176920000D03*
D19*
X93250000Y-61750000D03*
X93250000Y-68250000D03*
X88750000Y-61750000D03*
X88750000Y-68250000D03*
X73250000Y-61750000D03*
X73250000Y-68250000D03*
X68750000Y-61750000D03*
X68750000Y-68250000D03*
D10*
X230350000Y-88940000D03*
D11*
X230850000Y-85190000D03*
X235850000Y-82990000D03*
D12*
X235850000Y-88940000D03*
D11*
X240850000Y-85190000D03*
D10*
X241350000Y-88940000D03*
D13*
X232575000Y-82990000D03*
D14*
X235850000Y-94840000D03*
X230850000Y-92740000D03*
X240850000Y-92740000D03*
D13*
X244125000Y-85190000D03*
D10*
X95870000Y-114750000D03*
D11*
X96370000Y-111000000D03*
X101370000Y-108800000D03*
D12*
X101370000Y-114750000D03*
D11*
X106370000Y-111000000D03*
D10*
X106870000Y-114750000D03*
D13*
X98095000Y-108800000D03*
D14*
X101370000Y-120650000D03*
X96370000Y-118550000D03*
X106370000Y-118550000D03*
D13*
X109645000Y-111000000D03*
D10*
X67250000Y-114750000D03*
D11*
X67750000Y-111000000D03*
X72750000Y-108800000D03*
D12*
X72750000Y-114750000D03*
D11*
X77750000Y-111000000D03*
D10*
X78250000Y-114750000D03*
D13*
X69475000Y-108800000D03*
D14*
X72750000Y-120650000D03*
X67750000Y-118550000D03*
X77750000Y-118550000D03*
D13*
X81025000Y-111000000D03*
M02*
