M48
; DRILL file {KiCad 7.0.9} date Sat Dec 16 20:19:42 2023
; FORMAT={-:-/ absolute / metric / decimal}
; #@! TF.CreationDate,2023-12-16T20:19:42+09:00
; #@! TF.GenerationSoftware,Kicad,Pcbnew,7.0.9
; #@! TF.FileFunction,NonPlated,1,2,NPTH
FMAT,2
METRIC
; #@! TA.AperFunction,NonPlated,NPTH,ComponentDrill
T1C1.702
; #@! TA.AperFunction,NonPlated,NPTH,ComponentDrill
T2C3.000
; #@! TA.AperFunction,NonPlated,NPTH,ComponentDrill
T3C3.429
%
G90
G05
T1
X67.25Y-114.75
X78.25Y-114.75
X95.87Y-114.75
X102.72Y-172.47
X106.87Y-114.75
X113.72Y-172.47
X121.32Y-128.26
X132.32Y-128.26
X134.29Y-180.67
X145.29Y-180.67
X146.39Y-145.81
X148.55Y-115.7
X157.39Y-145.81
X159.55Y-115.7
X173.37Y-134.37
X174.9Y-104.29
X178.04Y-73.75
X184.37Y-134.37
X185.9Y-104.29
X189.04Y-73.75
X200.35Y-122.93
X201.25Y-92.88
X211.35Y-122.93
X212.25Y-92.88
X230.35Y-88.94
X231.72Y-118.39
X241.35Y-88.94
X242.72Y-118.39
X257.92Y-103.11
X268.92Y-103.11
T2
X67.75Y-111.0
X72.75Y-108.8
X77.75Y-111.0
X96.37Y-111.0
X101.37Y-108.8
X103.22Y-168.72
X106.37Y-111.0
X108.22Y-166.52
X113.22Y-168.72
X121.82Y-124.51
X126.82Y-122.31
X131.82Y-124.51
X134.79Y-176.92
X139.79Y-174.72
X144.79Y-176.92
X146.89Y-142.06
X149.05Y-111.95
X151.89Y-139.86
X154.05Y-109.75
X156.89Y-142.06
X159.05Y-111.95
X173.87Y-130.62
X175.4Y-100.54
X178.54Y-70.0
X178.87Y-128.42
X180.4Y-98.34
X183.54Y-67.8
X183.87Y-130.62
X185.4Y-100.54
X188.54Y-70.0
X200.85Y-119.18
X201.75Y-89.13
X205.85Y-116.98
X206.75Y-86.93
X210.85Y-119.18
X211.75Y-89.13
X230.85Y-85.19
X232.22Y-114.64
X235.85Y-82.99
X237.22Y-112.44
X240.85Y-85.19
X242.22Y-114.64
X258.42Y-99.36
X263.42Y-97.16
X268.42Y-99.36
T3
X72.75Y-114.75
X101.37Y-114.75
X108.22Y-172.47
X126.82Y-128.26
X139.79Y-180.67
X151.89Y-145.81
X154.05Y-115.7
X178.87Y-134.37
X180.4Y-104.29
X183.54Y-73.75
X205.85Y-122.93
X206.75Y-92.88
X235.85Y-88.94
X237.22Y-118.39
X263.42Y-103.11
T0
M30
