G04 #@! TF.GenerationSoftware,KiCad,Pcbnew,7.0.9*
G04 #@! TF.CreationDate,2023-12-17T00:29:00+09:00*
G04 #@! TF.ProjectId,ergoSHIFT-rev1-kicad,6572676f-5348-4494-9654-2d726576312d,rev.1*
G04 #@! TF.SameCoordinates,Original*
G04 #@! TF.FileFunction,Profile,NP*
%FSLAX46Y46*%
G04 Gerber Fmt 4.6, Leading zero omitted, Abs format (unit mm)*
G04 Created by KiCad (PCBNEW 7.0.9) date 2023-12-17 00:29:00*
%MOMM*%
%LPD*%
G01*
G04 APERTURE LIST*
G04 #@! TA.AperFunction,Profile*
%ADD10C,0.200000*%
G04 #@! TD*
G04 APERTURE END LIST*
D10*
X134600000Y-51500000D02*
X134600000Y-82680000D01*
X136100000Y-50000000D02*
G75*
G03*
X134600000Y-51500000I0J-1500000D01*
G01*
X156600000Y-190120000D02*
G75*
G03*
X156600000Y-190120000I-1600000J0D01*
G01*
X59150000Y-57550000D02*
G75*
G03*
X59150000Y-57550000I-1600000J0D01*
G01*
X279170000Y-197670000D02*
G75*
G03*
X283170000Y-193670000I0J4000000D01*
G01*
X50000000Y-54000000D02*
X50000000Y-193670000D01*
X122400000Y-51500000D02*
X122400000Y-82680000D01*
X123900000Y-84180000D02*
X133100000Y-84180000D01*
X122400000Y-51500000D02*
G75*
G03*
X120900000Y-50000000I-1500000J0D01*
G01*
X54000000Y-50000000D02*
X120900000Y-50000000D01*
X136100000Y-50000000D02*
X279170000Y-50000000D01*
X277220000Y-57550000D02*
G75*
G03*
X277220000Y-57550000I-1600000J0D01*
G01*
X277220000Y-190120000D02*
G75*
G03*
X277220000Y-190120000I-1600000J0D01*
G01*
X54000000Y-50000000D02*
G75*
G03*
X50000000Y-54000000I0J-4000000D01*
G01*
X133100000Y-84180000D02*
G75*
G03*
X134600000Y-82680000I0J1500000D01*
G01*
X59150000Y-190120000D02*
G75*
G03*
X59150000Y-190120000I-1600000J0D01*
G01*
X50000000Y-193670000D02*
G75*
G03*
X54000000Y-197670000I4000000J0D01*
G01*
X122400000Y-82680000D02*
G75*
G03*
X123900000Y-84180000I1500000J0D01*
G01*
X131740000Y-148580000D02*
G75*
G03*
X131740000Y-148580000I-1600000J0D01*
G01*
X54000000Y-197670000D02*
X279170000Y-197670000D01*
X283170000Y-54000000D02*
X283170000Y-193670000D01*
X156600000Y-57550000D02*
G75*
G03*
X156600000Y-57550000I-1600000J0D01*
G01*
X283170000Y-54000000D02*
G75*
G03*
X279170000Y-50000000I-4000000J0D01*
G01*
M02*
