M48
; DRILL file {KiCad 7.0.9} date Sat Dec 16 20:19:42 2023
; FORMAT={-:-/ absolute / metric / decimal}
; #@! TF.CreationDate,2023-12-16T20:19:42+09:00
; #@! TF.GenerationSoftware,Kicad,Pcbnew,7.0.9
; #@! TF.FileFunction,Plated,1,2,PTH
FMAT,2
METRIC
; #@! TA.AperFunction,Plated,PTH,ViaDrill
T1C0.300
; #@! TA.AperFunction,Plated,PTH,ComponentDrill
T2C0.762
; #@! TA.AperFunction,Plated,PTH,ComponentDrill
T3C1.100
; #@! TA.AperFunction,Plated,PTH,ComponentDrill
T4C1.270
; #@! TA.AperFunction,Plated,PTH,ComponentDrill
T5C1.300
%
G90
G05
T1
X55.08Y-60.16
X55.08Y-70.32
X55.08Y-80.48
X55.08Y-90.64
X55.08Y-100.8
X55.08Y-110.96
X55.08Y-121.12
X55.08Y-131.28
X55.08Y-141.44
X55.08Y-151.6
X55.08Y-161.76
X55.08Y-171.92
X55.08Y-182.08
X60.16Y-55.08
X60.16Y-65.24
X60.16Y-75.4
X60.16Y-85.56
X60.16Y-95.72
X60.16Y-105.88
X60.16Y-116.04
X60.16Y-126.2
X60.16Y-136.36
X60.16Y-146.52
X60.16Y-156.68
X60.16Y-166.84
X60.16Y-177.0
X60.16Y-187.16
X65.24Y-131.28
X65.24Y-141.44
X65.24Y-182.08
X65.24Y-192.24
X70.32Y-70.32
X70.32Y-136.36
X70.32Y-187.16
X75.4Y-75.4
X75.4Y-85.56
X75.4Y-95.72
X75.4Y-131.28
X75.4Y-141.44
X75.4Y-182.08
X75.4Y-192.24
X76.416Y-55.588
X79.464Y-57.62
X79.972Y-54.572
X80.48Y-70.32
X80.48Y-80.48
X80.48Y-90.64
X80.48Y-100.8
X80.48Y-136.36
X80.48Y-187.16
X85.56Y-75.4
X85.56Y-85.56
X85.56Y-95.72
X85.56Y-131.28
X85.56Y-141.44
X85.56Y-182.08
X85.56Y-192.24
X87.592Y-54.572
X87.592Y-57.62
X90.64Y-70.32
X90.64Y-80.48
X90.64Y-90.64
X90.64Y-100.8
X90.64Y-136.36
X90.64Y-166.84
X90.64Y-177.0
X90.64Y-187.16
X95.72Y-60.16
X95.72Y-75.4
X95.72Y-85.56
X95.72Y-95.72
X95.72Y-131.28
X95.72Y-141.44
X95.72Y-161.76
X95.72Y-171.92
X95.72Y-182.08
X95.72Y-192.24
X97.752Y-54.572
X97.752Y-57.62
X100.8Y-65.24
X100.8Y-70.32
X100.8Y-80.48
X100.8Y-100.8
X100.8Y-136.36
X100.8Y-146.52
X100.8Y-156.68
X100.8Y-187.16
X102.832Y-84.036
X104.356Y-54.572
X104.356Y-57.62
X105.88Y-60.16
X105.88Y-75.4
X105.88Y-131.28
X105.88Y-141.44
X105.88Y-151.6
X105.88Y-192.24
X106.388Y-81.496
X106.515Y-92.545
X106.515Y-100.8
X109.436Y-144.488
X109.944Y-154.648
X110.325Y-92.545
X110.325Y-100.8
X110.96Y-65.24
X110.96Y-70.32
X110.96Y-187.16
X111.976Y-54.572
X111.976Y-57.62
X112.992Y-147.028
X112.992Y-154.648
X113.5Y-82.385
X113.5Y-100.8
X113.5Y-109.69
X113.5Y-124.93
X113.5Y-142.075
X114.516Y-73.368
X114.516Y-95.212
X115.024Y-116.548
X116.04Y-60.16
X116.04Y-192.24
X117.31Y-104.61
X117.564Y-91.148
X117.564Y-99.276
X117.564Y-114.008
X118.58Y-65.24
X119.088Y-54.572
X119.088Y-57.62
X119.215Y-73.495
X119.596Y-148.552
X121.12Y-187.16
X124.676Y-159.22
X126.2Y-192.24
X127.216Y-114.008
X128.232Y-156.68
X130.264Y-111.468
X131.28Y-187.16
X132.804Y-167.348
X136.36Y-192.24
X136.868Y-165.316
X138.392Y-119.596
X138.9Y-88.1
X138.9Y-126.2
X140.424Y-83.528
X140.932Y-123.152
X141.44Y-55.08
X141.44Y-65.24
X144.996Y-88.1
X145.504Y-132.804
X146.52Y-192.24
X147.536Y-96.736
X148.552Y-83.528
X149.06Y-130.772
X151.092Y-57.62
X151.6Y-65.24
X151.6Y-76.924
X151.6Y-187.16
X152.108Y-53.556
X153.124Y-96.736
X155.664Y-83.528
X156.68Y-161.76
X156.68Y-171.92
X156.68Y-182.08
X157.188Y-105.88
X161.76Y-65.24
X161.76Y-105.88
X161.76Y-156.68
X161.76Y-166.84
X161.76Y-177.0
X161.76Y-187.16
X163.284Y-83.528
X165.824Y-76.924
X166.84Y-53.556
X166.84Y-60.16
X166.84Y-151.6
X166.84Y-161.76
X166.84Y-171.92
X166.84Y-182.08
X166.84Y-192.24
X167.856Y-83.528
X167.856Y-116.548
X171.92Y-65.24
X171.92Y-156.68
X171.92Y-187.16
X172.428Y-83.02
X172.428Y-116.548
X173.952Y-122.644
X176.492Y-53.556
X176.492Y-87.084
X177.0Y-60.16
X177.0Y-151.6
X177.0Y-161.76
X177.0Y-192.24
X179.032Y-123.152
X180.556Y-91.148
X181.572Y-86.576
X182.08Y-156.68
X182.08Y-187.16
X185.128Y-90.132
X185.128Y-95.72
X186.652Y-53.556
X187.16Y-60.16
X187.16Y-151.6
X187.16Y-192.24
X187.668Y-86.576
X189.192Y-94.196
X192.24Y-86.576
X192.24Y-146.52
X192.24Y-156.68
X192.24Y-187.16
X192.748Y-97.752
X196.304Y-101.308
X197.32Y-60.16
X197.32Y-70.32
X197.32Y-141.44
X197.32Y-151.6
X197.32Y-192.24
X199.86Y-105.372
X200.876Y-53.556
X202.4Y-65.24
X202.4Y-146.52
X202.4Y-187.16
X203.924Y-108.928
X206.972Y-82.004
X206.972Y-111.976
X207.48Y-70.32
X207.48Y-141.44
X207.48Y-192.24
X212.052Y-76.416
X212.052Y-83.02
X212.56Y-65.24
X212.56Y-146.52
X212.56Y-187.16
X214.592Y-79.464
X216.116Y-74.892
X217.132Y-91.656
X217.64Y-60.16
X217.64Y-70.32
X217.64Y-131.28
X217.64Y-141.44
X217.64Y-192.24
X219.672Y-89.116
X222.72Y-55.08
X222.72Y-65.24
X222.72Y-126.2
X222.72Y-136.36
X222.72Y-146.52
X222.72Y-187.16
X224.244Y-98.26
X226.276Y-96.228
X227.8Y-60.16
X227.8Y-70.32
X227.8Y-131.28
X227.8Y-141.44
X227.8Y-192.24
X231.356Y-105.372
X232.88Y-55.08
X232.88Y-136.36
X232.88Y-187.16
X234.404Y-108.42
X234.912Y-104.356
X237.96Y-60.16
X237.96Y-70.32
X237.96Y-141.44
X237.96Y-192.24
X243.04Y-55.08
X243.04Y-136.36
X243.04Y-187.16
X245.58Y-74.892
X245.58Y-78.448
X248.12Y-60.16
X248.12Y-70.32
X248.12Y-131.28
X248.12Y-141.44
X248.12Y-192.24
X249.136Y-76.924
X251.168Y-84.544
X253.2Y-55.08
X253.2Y-75.4
X253.2Y-126.2
X253.2Y-136.36
X253.2Y-187.16
X256.756Y-90.132
X258.28Y-60.16
X258.28Y-80.48
X258.28Y-121.12
X258.28Y-131.28
X258.28Y-141.44
X258.28Y-192.24
X263.36Y-55.08
X263.36Y-85.56
X263.36Y-126.2
X263.36Y-136.36
X263.36Y-187.16
X268.44Y-60.16
X268.44Y-90.64
X268.44Y-131.28
X268.44Y-141.44
X268.44Y-192.24
X273.52Y-55.08
X273.52Y-65.24
X273.52Y-75.4
X273.52Y-85.56
X273.52Y-95.72
X273.52Y-105.88
X273.52Y-116.04
X273.52Y-126.2
X273.52Y-136.36
X273.52Y-146.52
X273.52Y-156.68
X273.52Y-166.84
X273.52Y-177.0
X273.52Y-187.16
X278.6Y-70.32
X278.6Y-80.48
X278.6Y-90.64
X278.6Y-100.8
X278.6Y-110.96
X278.6Y-121.12
X278.6Y-131.28
X278.6Y-141.44
X278.6Y-151.6
X278.6Y-161.76
X278.6Y-171.92
X278.6Y-182.08
T2
X206.2Y-55.75
X211.2Y-55.75
T3
X68.75Y-61.75
X68.75Y-68.25
X73.25Y-61.75
X73.25Y-68.25
X78.75Y-61.75
X78.75Y-68.25
X83.25Y-61.75
X83.25Y-68.25
X88.75Y-61.75
X88.75Y-68.25
X93.25Y-61.75
X93.25Y-68.25
X121.88Y-56.3
X121.88Y-58.84
X121.88Y-61.38
X121.88Y-63.92
X121.88Y-66.46
X121.88Y-69.0
X121.88Y-71.54
X121.88Y-74.08
X121.88Y-76.62
X121.88Y-79.16
X121.88Y-81.7
X121.88Y-84.24
X137.12Y-56.3
X137.12Y-58.84
X137.12Y-61.38
X137.12Y-63.92
X137.12Y-66.46
X137.12Y-69.0
X137.12Y-71.54
X137.12Y-74.08
X137.12Y-76.62
X137.12Y-79.16
X137.12Y-81.7
X137.12Y-84.24
T4
X67.75Y-118.55
X72.75Y-120.65
X77.75Y-118.55
X96.37Y-118.55
X101.37Y-120.65
X103.22Y-176.27
X106.37Y-118.55
X108.22Y-178.37
X113.22Y-176.27
X121.82Y-132.06
X126.82Y-134.16
X131.82Y-132.06
X134.79Y-184.47
X139.79Y-186.57
X144.79Y-184.47
X146.89Y-149.61
X149.05Y-119.5
X151.89Y-151.71
X154.05Y-121.6
X156.89Y-149.61
X159.05Y-119.5
X173.87Y-138.17
X175.4Y-108.09
X178.54Y-77.55
X178.87Y-140.27
X180.4Y-110.19
X183.54Y-79.65
X183.87Y-138.17
X185.4Y-108.09
X188.54Y-77.55
X200.85Y-126.73
X201.75Y-96.68
X205.85Y-128.83
X206.75Y-98.78
X210.85Y-126.73
X211.75Y-96.68
X230.85Y-92.74
X232.22Y-122.19
X235.85Y-94.84
X237.22Y-124.29
X240.85Y-92.74
X242.22Y-122.19
X258.42Y-106.91
X263.42Y-109.01
X268.42Y-106.91
T5
X205.1Y-58.15
X212.3Y-58.15
T0
M30
