G04 #@! TF.GenerationSoftware,KiCad,Pcbnew,8.0.5*
G04 #@! TF.CreationDate,2024-09-14T20:21:50-07:00*
G04 #@! TF.ProjectId,ergoSHIFT-rgb,6572676f-5348-4494-9654-2d7267622e6b,rev?*
G04 #@! TF.SameCoordinates,Original*
G04 #@! TF.FileFunction,Profile,NP*
%FSLAX46Y46*%
G04 Gerber Fmt 4.6, Leading zero omitted, Abs format (unit mm)*
G04 Created by KiCad (PCBNEW 8.0.5) date 2024-09-14 20:21:50*
%MOMM*%
%LPD*%
G01*
G04 APERTURE LIST*
G04 #@! TA.AperFunction,Profile*
%ADD10C,0.200000*%
G04 #@! TD*
G04 APERTURE END LIST*
D10*
X50000000Y-54000000D02*
G75*
G02*
X54000000Y-50000000I4000000J0D01*
G01*
X283170000Y-54000000D02*
X283170000Y-193670000D01*
X54000000Y-197670000D02*
G75*
G02*
X50000000Y-193670000I0J4000000D01*
G01*
X131740000Y-148580000D02*
G75*
G02*
X128540000Y-148580000I-1600000J0D01*
G01*
X128540000Y-148580000D02*
G75*
G02*
X131740000Y-148580000I1600000J0D01*
G01*
X59150000Y-57550000D02*
G75*
G02*
X55950000Y-57550000I-1600000J0D01*
G01*
X55950000Y-57550000D02*
G75*
G02*
X59150000Y-57550000I1600000J0D01*
G01*
X156600000Y-190120000D02*
G75*
G02*
X153400000Y-190120000I-1600000J0D01*
G01*
X153400000Y-190120000D02*
G75*
G02*
X156600000Y-190120000I1600000J0D01*
G01*
X279170000Y-50000000D02*
G75*
G02*
X283170000Y-54000000I0J-4000000D01*
G01*
X277220000Y-57550000D02*
G75*
G02*
X274020000Y-57550000I-1600000J0D01*
G01*
X274020000Y-57550000D02*
G75*
G02*
X277220000Y-57550000I1600000J0D01*
G01*
X283170000Y-193670000D02*
G75*
G02*
X279170000Y-197670000I-4000000J0D01*
G01*
X277220000Y-190120000D02*
G75*
G02*
X274020000Y-190120000I-1600000J0D01*
G01*
X274020000Y-190120000D02*
G75*
G02*
X277220000Y-190120000I1600000J0D01*
G01*
X54000000Y-197670000D02*
X279170000Y-197670000D01*
X156600000Y-57550000D02*
G75*
G02*
X153400000Y-57550000I-1600000J0D01*
G01*
X153400000Y-57550000D02*
G75*
G02*
X156600000Y-57550000I1600000J0D01*
G01*
X50000000Y-54000000D02*
X50000000Y-193670000D01*
X54000000Y-50000000D02*
X279170000Y-50000000D01*
X59150000Y-190120000D02*
G75*
G02*
X55950000Y-190120000I-1600000J0D01*
G01*
X55950000Y-190120000D02*
G75*
G02*
X59150000Y-190120000I1600000J0D01*
G01*
M02*
