G04 #@! TF.GenerationSoftware,KiCad,Pcbnew,7.0.9*
G04 #@! TF.CreationDate,2024-08-28T09:30:32-07:00*
G04 #@! TF.ProjectId,ergoSHIFT-rgb,6572676f-5348-4494-9654-2d7267622e6b,rev?*
G04 #@! TF.SameCoordinates,Original*
G04 #@! TF.FileFunction,Soldermask,Bot*
G04 #@! TF.FilePolarity,Negative*
%FSLAX46Y46*%
G04 Gerber Fmt 4.6, Leading zero omitted, Abs format (unit mm)*
G04 Created by KiCad (PCBNEW 7.0.9) date 2024-08-28 09:30:32*
%MOMM*%
%LPD*%
G01*
G04 APERTURE LIST*
%ADD10C,1.524000*%
%ADD11C,1.800000*%
%ADD12C,1.701800*%
%ADD13C,3.000000*%
%ADD14C,3.429000*%
%ADD15C,0.990600*%
%ADD16R,2.600000X2.600000*%
%ADD17C,1.448000*%
%ADD18C,1.500000*%
%ADD19C,2.000000*%
%ADD20C,0.650000*%
%ADD21O,1.000000X2.100000*%
%ADD22O,1.000000X1.600000*%
G04 APERTURE END LIST*
D10*
X205200000Y-53750000D03*
X210200000Y-53750000D03*
D11*
X204100000Y-56150000D03*
X211300000Y-56150000D03*
D12*
X145390000Y-143810000D03*
D13*
X145890000Y-147560000D03*
D14*
X150890000Y-143810000D03*
D13*
X150890000Y-149760000D03*
D15*
X156110000Y-139610000D03*
D12*
X156390000Y-143810000D03*
D16*
X154165000Y-149760000D03*
X142615000Y-147560000D03*
D12*
X200250000Y-90880000D03*
D13*
X200750000Y-94630000D03*
D14*
X205750000Y-90880000D03*
D13*
X205750000Y-96830000D03*
D15*
X210970000Y-86680000D03*
D12*
X211250000Y-90880000D03*
D16*
X209025000Y-96830000D03*
X197475000Y-94630000D03*
D17*
X279108000Y-193764000D03*
D18*
X76190000Y-71000000D03*
X76190000Y-94876000D03*
X78730000Y-71000000D03*
X78730000Y-94876000D03*
X81270000Y-71000000D03*
X81270000Y-94876000D03*
X83810000Y-71000000D03*
X83810000Y-94876000D03*
D19*
X72250000Y-59750000D03*
X72250000Y-66250000D03*
X67750000Y-59750000D03*
X67750000Y-66250000D03*
X82250000Y-59750000D03*
X82250000Y-66250000D03*
X77750000Y-59750000D03*
X77750000Y-66250000D03*
D12*
X66250000Y-112775000D03*
D13*
X66750000Y-116525000D03*
D14*
X71750000Y-112775000D03*
D13*
X71750000Y-118725000D03*
D15*
X76970000Y-108575000D03*
D12*
X77250000Y-112775000D03*
D16*
X75025000Y-118725000D03*
X63475000Y-116525000D03*
D17*
X279362000Y-53810000D03*
D20*
X145094000Y-56190000D03*
X139314000Y-56190000D03*
D21*
X146524000Y-56720000D03*
D22*
X146524000Y-52540000D03*
D21*
X137884000Y-56720000D03*
D22*
X137884000Y-52540000D03*
D19*
X92250000Y-59750000D03*
X92250000Y-66250000D03*
X87750000Y-59750000D03*
X87750000Y-66250000D03*
D12*
X172370000Y-132370000D03*
D13*
X172870000Y-136120000D03*
D14*
X177870000Y-132370000D03*
D13*
X177870000Y-138320000D03*
D15*
X183090000Y-128170000D03*
D12*
X183370000Y-132370000D03*
D16*
X181145000Y-138320000D03*
X169595000Y-136120000D03*
D12*
X147550000Y-113700000D03*
D13*
X148050000Y-117450000D03*
D14*
X153050000Y-113700000D03*
D13*
X153050000Y-119650000D03*
D15*
X158270000Y-109500000D03*
D12*
X158550000Y-113700000D03*
D16*
X156325000Y-119650000D03*
X144775000Y-117450000D03*
D12*
X101720000Y-170470000D03*
D13*
X102220000Y-174220000D03*
D14*
X107220000Y-170470000D03*
D13*
X107220000Y-176420000D03*
D15*
X112440000Y-166270000D03*
D12*
X112720000Y-170470000D03*
D16*
X110495000Y-176420000D03*
X98945000Y-174220000D03*
D12*
X133290000Y-178670000D03*
D13*
X133790000Y-182420000D03*
D14*
X138790000Y-178670000D03*
D13*
X138790000Y-184620000D03*
D15*
X144010000Y-174470000D03*
D12*
X144290000Y-178670000D03*
D16*
X142065000Y-184620000D03*
X130515000Y-182420000D03*
D12*
X94870000Y-112750000D03*
D13*
X95370000Y-116500000D03*
D14*
X100370000Y-112750000D03*
D13*
X100370000Y-118700000D03*
D15*
X105590000Y-108550000D03*
D12*
X105870000Y-112750000D03*
D16*
X103645000Y-118700000D03*
X92095000Y-116500000D03*
D10*
X98500000Y-53750000D03*
X103500000Y-53750000D03*
D11*
X97400000Y-56150000D03*
X104600000Y-56150000D03*
D12*
X230720000Y-116390000D03*
D13*
X231220000Y-120140000D03*
D14*
X236220000Y-116390000D03*
D13*
X236220000Y-122340000D03*
D15*
X241440000Y-112190000D03*
D12*
X241720000Y-116390000D03*
D16*
X239495000Y-122340000D03*
X227945000Y-120140000D03*
D12*
X199350000Y-120930000D03*
D13*
X199850000Y-124680000D03*
D14*
X204850000Y-120930000D03*
D13*
X204850000Y-126880000D03*
D15*
X210070000Y-116730000D03*
D12*
X210350000Y-120930000D03*
D16*
X208125000Y-126880000D03*
X196575000Y-124680000D03*
D17*
X53810000Y-53810000D03*
D12*
X177040000Y-71750000D03*
D13*
X177540000Y-75500000D03*
D14*
X182540000Y-71750000D03*
D13*
X182540000Y-77700000D03*
D15*
X187760000Y-67550000D03*
D12*
X188040000Y-71750000D03*
D16*
X185815000Y-77700000D03*
X174265000Y-75500000D03*
D12*
X173900000Y-102290000D03*
D13*
X174400000Y-106040000D03*
D14*
X179400000Y-102290000D03*
D13*
X179400000Y-108240000D03*
D15*
X184620000Y-98090000D03*
D12*
X184900000Y-102290000D03*
D16*
X182675000Y-108240000D03*
X171125000Y-106040000D03*
D12*
X120320000Y-126290000D03*
D13*
X120820000Y-130040000D03*
D14*
X125820000Y-126290000D03*
D13*
X125820000Y-132240000D03*
D15*
X131040000Y-122090000D03*
D12*
X131320000Y-126290000D03*
D16*
X129095000Y-132240000D03*
X117545000Y-130040000D03*
D12*
X256920000Y-101110000D03*
D13*
X257420000Y-104860000D03*
D14*
X262420000Y-101110000D03*
D13*
X262420000Y-107060000D03*
D15*
X267640000Y-96910000D03*
D12*
X267920000Y-101110000D03*
D16*
X265695000Y-107060000D03*
X254145000Y-104860000D03*
D12*
X229350000Y-86940000D03*
D13*
X229850000Y-90690000D03*
D14*
X234850000Y-86940000D03*
D13*
X234850000Y-92890000D03*
D15*
X240070000Y-82740000D03*
D12*
X240350000Y-86940000D03*
D16*
X238125000Y-92890000D03*
X226575000Y-90690000D03*
M02*
