G04 #@! TF.GenerationSoftware,KiCad,Pcbnew,7.0.9*
G04 #@! TF.CreationDate,2024-08-28T09:30:32-07:00*
G04 #@! TF.ProjectId,ergoSHIFT-rgb,6572676f-5348-4494-9654-2d7267622e6b,rev?*
G04 #@! TF.SameCoordinates,Original*
G04 #@! TF.FileFunction,Paste,Top*
G04 #@! TF.FilePolarity,Positive*
%FSLAX46Y46*%
G04 Gerber Fmt 4.6, Leading zero omitted, Abs format (unit mm)*
G04 Created by KiCad (PCBNEW 7.0.9) date 2024-08-28 09:30:32*
%MOMM*%
%LPD*%
G01*
G04 APERTURE LIST*
G04 Aperture macros list*
%AMRoundRect*
0 Rectangle with rounded corners*
0 $1 Rounding radius*
0 $2 $3 $4 $5 $6 $7 $8 $9 X,Y pos of 4 corners*
0 Add a 4 corners polygon primitive as box body*
4,1,4,$2,$3,$4,$5,$6,$7,$8,$9,$2,$3,0*
0 Add four circle primitives for the rounded corners*
1,1,$1+$1,$2,$3*
1,1,$1+$1,$4,$5*
1,1,$1+$1,$6,$7*
1,1,$1+$1,$8,$9*
0 Add four rect primitives between the rounded corners*
20,1,$1+$1,$2,$3,$4,$5,0*
20,1,$1+$1,$4,$5,$6,$7,0*
20,1,$1+$1,$6,$7,$8,$9,0*
20,1,$1+$1,$8,$9,$2,$3,0*%
G04 Aperture macros list end*
%ADD10RoundRect,0.140000X0.170000X-0.140000X0.170000X0.140000X-0.170000X0.140000X-0.170000X-0.140000X0*%
%ADD11R,0.700000X0.800000*%
%ADD12RoundRect,0.140000X0.140000X0.170000X-0.140000X0.170000X-0.140000X-0.170000X0.140000X-0.170000X0*%
%ADD13RoundRect,0.140000X-0.140000X-0.170000X0.140000X-0.170000X0.140000X0.170000X-0.140000X0.170000X0*%
%ADD14RoundRect,0.150000X-0.650000X-0.150000X0.650000X-0.150000X0.650000X0.150000X-0.650000X0.150000X0*%
%ADD15RoundRect,0.140000X-0.170000X0.140000X-0.170000X-0.140000X0.170000X-0.140000X0.170000X0.140000X0*%
%ADD16RoundRect,0.135000X0.135000X0.185000X-0.135000X0.185000X-0.135000X-0.185000X0.135000X-0.185000X0*%
%ADD17RoundRect,0.135000X-0.185000X0.135000X-0.185000X-0.135000X0.185000X-0.135000X0.185000X0.135000X0*%
%ADD18RoundRect,0.135000X0.185000X-0.135000X0.185000X0.135000X-0.185000X0.135000X-0.185000X-0.135000X0*%
%ADD19R,0.600000X1.450000*%
%ADD20R,0.300000X1.450000*%
%ADD21RoundRect,0.250000X-0.292217X-0.292217X0.292217X-0.292217X0.292217X0.292217X-0.292217X0.292217X0*%
%ADD22RoundRect,0.050000X-0.387500X-0.050000X0.387500X-0.050000X0.387500X0.050000X-0.387500X0.050000X0*%
%ADD23RoundRect,0.050000X-0.050000X-0.387500X0.050000X-0.387500X0.050000X0.387500X-0.050000X0.387500X0*%
%ADD24RoundRect,0.200000X-0.200000X-0.275000X0.200000X-0.275000X0.200000X0.275000X-0.200000X0.275000X0*%
%ADD25RoundRect,0.200000X0.200000X0.275000X-0.200000X0.275000X-0.200000X-0.275000X0.200000X-0.275000X0*%
%ADD26RoundRect,0.150000X-0.150000X0.512500X-0.150000X-0.512500X0.150000X-0.512500X0.150000X0.512500X0*%
%ADD27R,1.200000X1.400000*%
%ADD28RoundRect,0.135000X-0.135000X-0.185000X0.135000X-0.185000X0.135000X0.185000X-0.135000X0.185000X0*%
G04 APERTURE END LIST*
D10*
X151375000Y-109280000D03*
X151375000Y-108320000D03*
D11*
X182100000Y-67550000D03*
X183300000Y-67550000D03*
X183300000Y-66250000D03*
X182100000Y-66250000D03*
D12*
X147786000Y-68863000D03*
X146826000Y-68863000D03*
D10*
X124300000Y-122130000D03*
X124300000Y-121170000D03*
D13*
X132828000Y-59465000D03*
X133788000Y-59465000D03*
D10*
X149450000Y-139455000D03*
X149450000Y-138495000D03*
X137372000Y-66549000D03*
X137372000Y-65589000D03*
X180900000Y-67405000D03*
X180900000Y-66445000D03*
D14*
X126108000Y-61116000D03*
X126108000Y-62386000D03*
X126108000Y-63656000D03*
X126108000Y-64926000D03*
X133308000Y-64926000D03*
X133308000Y-63656000D03*
X133308000Y-62386000D03*
X133308000Y-61116000D03*
D10*
X99000000Y-108380000D03*
X99000000Y-107420000D03*
D15*
X138134000Y-78541000D03*
X138134000Y-79501000D03*
D13*
X142353000Y-69879000D03*
X143313000Y-69879000D03*
D12*
X147786000Y-63529000D03*
X146826000Y-63529000D03*
D11*
X205200000Y-86850000D03*
X206400000Y-86850000D03*
X206400000Y-85550000D03*
X205200000Y-85550000D03*
D12*
X132772000Y-69498000D03*
X131812000Y-69498000D03*
D16*
X121372000Y-61116000D03*
X120352000Y-61116000D03*
D12*
X132280000Y-74450000D03*
X131320000Y-74450000D03*
D10*
X141436000Y-67466000D03*
X141436000Y-66506000D03*
X178075000Y-97905000D03*
X178075000Y-96945000D03*
D16*
X139918000Y-59338000D03*
X138898000Y-59338000D03*
D17*
X138388000Y-65430000D03*
X138388000Y-66450000D03*
D18*
X137118000Y-80547000D03*
X137118000Y-79527000D03*
D19*
X145454000Y-57635000D03*
X144654000Y-57635000D03*
D20*
X143954000Y-57635000D03*
X143454000Y-57635000D03*
X142954000Y-57635000D03*
X142454000Y-57635000D03*
X141954000Y-57635000D03*
X141454000Y-57635000D03*
X140954000Y-57635000D03*
X140454000Y-57635000D03*
D19*
X139754000Y-57635000D03*
X138954000Y-57635000D03*
D21*
X136983500Y-72157500D03*
X136983500Y-73432500D03*
X138258500Y-72157500D03*
X138258500Y-73432500D03*
D22*
X134183500Y-70195000D03*
X134183500Y-70595000D03*
X134183500Y-70995000D03*
X134183500Y-71395000D03*
X134183500Y-71795000D03*
X134183500Y-72195000D03*
X134183500Y-72595000D03*
X134183500Y-72995000D03*
X134183500Y-73395000D03*
X134183500Y-73795000D03*
X134183500Y-74195000D03*
X134183500Y-74595000D03*
X134183500Y-74995000D03*
X134183500Y-75395000D03*
D23*
X135021000Y-76232500D03*
X135421000Y-76232500D03*
X135821000Y-76232500D03*
X136221000Y-76232500D03*
X136621000Y-76232500D03*
X137021000Y-76232500D03*
X137421000Y-76232500D03*
X137821000Y-76232500D03*
X138221000Y-76232500D03*
X138621000Y-76232500D03*
X139021000Y-76232500D03*
X139421000Y-76232500D03*
X139821000Y-76232500D03*
X140221000Y-76232500D03*
D22*
X141058500Y-75395000D03*
X141058500Y-74995000D03*
X141058500Y-74595000D03*
X141058500Y-74195000D03*
X141058500Y-73795000D03*
X141058500Y-73395000D03*
X141058500Y-72995000D03*
X141058500Y-72595000D03*
X141058500Y-72195000D03*
X141058500Y-71795000D03*
X141058500Y-71395000D03*
X141058500Y-70995000D03*
X141058500Y-70595000D03*
X141058500Y-70195000D03*
D23*
X140221000Y-69357500D03*
X139821000Y-69357500D03*
X139421000Y-69357500D03*
X139021000Y-69357500D03*
X138621000Y-69357500D03*
X138221000Y-69357500D03*
X137821000Y-69357500D03*
X137421000Y-69357500D03*
X137021000Y-69357500D03*
X136621000Y-69357500D03*
X136221000Y-69357500D03*
X135821000Y-69357500D03*
X135421000Y-69357500D03*
X135021000Y-69357500D03*
D17*
X139404000Y-65430000D03*
X139404000Y-66450000D03*
D24*
X125883000Y-75400000D03*
X127533000Y-75400000D03*
D25*
X127533000Y-73876000D03*
X125883000Y-73876000D03*
D17*
X143726000Y-59590000D03*
X143726000Y-60610000D03*
D13*
X135192000Y-80545000D03*
X136152000Y-80545000D03*
D10*
X136356000Y-65970000D03*
X136356000Y-65010000D03*
X203225000Y-116705000D03*
X203225000Y-115745000D03*
D15*
X138769000Y-82859000D03*
X138769000Y-83819000D03*
D11*
X177500000Y-128050000D03*
X178700000Y-128050000D03*
X178700000Y-126750000D03*
X177500000Y-126750000D03*
X179200000Y-97950000D03*
X180400000Y-97950000D03*
X180400000Y-96650000D03*
X179200000Y-96650000D03*
D13*
X142325000Y-73794934D03*
X143285000Y-73794934D03*
D10*
X140420000Y-66577000D03*
X140420000Y-65617000D03*
D26*
X147786000Y-65064000D03*
X146836000Y-65064000D03*
X145886000Y-65064000D03*
X145886000Y-67339000D03*
X147786000Y-67339000D03*
D10*
X105575000Y-166005000D03*
X105575000Y-165045000D03*
D27*
X135672000Y-82155000D03*
X135672000Y-84355000D03*
X137372000Y-84355000D03*
X137372000Y-82155000D03*
D11*
X204400000Y-116900000D03*
X205600000Y-116900000D03*
X205600000Y-115600000D03*
X204400000Y-115600000D03*
D28*
X123017000Y-61116000D03*
X124037000Y-61116000D03*
D11*
X138500000Y-174450000D03*
X139700000Y-174450000D03*
X139700000Y-173150000D03*
X138500000Y-173150000D03*
X100100000Y-108600000D03*
X101300000Y-108600000D03*
X101300000Y-107300000D03*
X100100000Y-107300000D03*
D15*
X139150000Y-78541000D03*
X139150000Y-79501000D03*
D10*
X70350000Y-108400000D03*
X70350000Y-107440000D03*
D13*
X142353000Y-68863000D03*
X143313000Y-68863000D03*
D10*
X233200000Y-82805000D03*
X233200000Y-81845000D03*
D11*
X261900000Y-96900000D03*
X263100000Y-96900000D03*
X263100000Y-95600000D03*
X261900000Y-95600000D03*
X152700000Y-109350000D03*
X153900000Y-109350000D03*
X153900000Y-108050000D03*
X152700000Y-108050000D03*
D10*
X260725000Y-96730000D03*
X260725000Y-95770000D03*
D11*
X235900000Y-112150000D03*
X237100000Y-112150000D03*
X237100000Y-110850000D03*
X235900000Y-110850000D03*
D10*
X234750000Y-112005000D03*
X234750000Y-111045000D03*
D11*
X150700000Y-139550000D03*
X151900000Y-139550000D03*
X151900000Y-138250000D03*
X150700000Y-138250000D03*
D10*
X204075000Y-86655000D03*
X204075000Y-85695000D03*
X176400000Y-127980000D03*
X176400000Y-127020000D03*
D11*
X125500000Y-122250000D03*
X126700000Y-122250000D03*
X126700000Y-120950000D03*
X125500000Y-120950000D03*
X234300000Y-82950000D03*
X235500000Y-82950000D03*
X235500000Y-81650000D03*
X234300000Y-81650000D03*
X106800000Y-166200000D03*
X108000000Y-166200000D03*
X108000000Y-164900000D03*
X106800000Y-164900000D03*
X71500000Y-108550000D03*
X72700000Y-108550000D03*
X72700000Y-107250000D03*
X71500000Y-107250000D03*
D10*
X137400000Y-174380000D03*
X137400000Y-173420000D03*
M02*
