<?xml version="1.0" encoding="UTF-8" standalone="no"?>
<svg
   width="142.87505mm"
   height="66.500984mm"
   viewBox="0 0 142.87505 66.500985"
   version="1.1"
   id="svg15"
   sodipodi:docname="ErgoSHIFT-logo.svg"
   xml:space="preserve"
   inkscape:version="1.3.1 (91b66b0783, 2023-11-16)"
   xmlns:inkscape="http://www.inkscape.org/namespaces/inkscape"
   xmlns:sodipodi="http://sodipodi.sourceforge.net/DTD/sodipodi-0.dtd"
   xmlns="http://www.w3.org/2000/svg"
   xmlns:svg="http://www.w3.org/2000/svg"><defs
     id="defs15" /><sodipodi:namedview
     id="namedview15"
     pagecolor="#ffffff"
     bordercolor="#000000"
     borderopacity="0.25"
     inkscape:showpageshadow="2"
     inkscape:pageopacity="0.0"
     inkscape:pagecheckerboard="0"
     inkscape:deskcolor="#d1d1d1"
     inkscape:document-units="mm"
     inkscape:zoom="1.7597528"
     inkscape:cx="165.9324"
     inkscape:cy="175.87698"
     inkscape:window-width="3840"
     inkscape:window-height="2054"
     inkscape:window-x="-11"
     inkscape:window-y="-11"
     inkscape:window-maximized="1"
     inkscape:current-layer="svg15" /><g
     id="g18"
     transform="translate(-35.512002,-33.511469)"><ellipse
       style="fill:#000000;stroke-width:0.289758"
       id="path1"
       cx="34.736526"
       cy="76.736809"
       rx="12.230336"
       ry="5.2829537"
       transform="matrix(0.97504177,-0.22202149,0.17728453,0.98415964,0,0)" /><ellipse
       style="fill:#000000;stroke-width:0.265371"
       id="path2"
       cx="62.758617"
       cy="72.507576"
       rx="10.853693"
       ry="4.8591728"
       transform="matrix(0.9874115,-0.15817244,0.17541676,0.98449427,0,0)" /><ellipse
       style="fill:#000000;stroke-width:0.275045"
       id="path3"
       cx="97.335571"
       cy="66.152435"
       rx="10.599855"
       ry="5.0368104"
       transform="rotate(-2.785622)" /><ellipse
       style="fill:#000000;stroke-width:0.262432"
       id="path4"
       cx="95.26432"
       cy="96.597595"
       rx="14.922208"
       ry="9.7733221"
       transform="matrix(0.99789049,-0.06491968,0.06456334,0.99791361,0,0)" /><ellipse
       style="fill:#000000;stroke-width:0.27163"
       id="path5"
       cx="154.02444"
       cy="57.630775"
       rx="17.539755"
       ry="10.389667"
       transform="matrix(0.98321575,0.18244665,-0.19299985,0.98119879,0,0)" /><ellipse
       style="fill:#000000;stroke-width:0.269643"
       id="path6"
       cx="131.68517"
       cy="55.865437"
       rx="11.125955"
       ry="5.3752098"
       transform="matrix(0.99857559,0.0533553,-0.05408238,0.99853648,0,0)" /><ellipse
       style="fill:#000000;stroke-width:0.25348"
       id="path7"
       cx="116.22253"
       cy="52.209927"
       rx="9.3970356"
       ry="3.9467549" /><ellipse
       style="fill:#000000;stroke-width:0.276114"
       id="path8"
       cx="145.87152"
       cy="41.111668"
       rx="10.111209"
       ry="4.2474594"
       transform="rotate(4.9876718)" /><ellipse
       style="fill:#000000;stroke-width:0.277606"
       id="path9"
       cx="130.0472"
       cy="40.891087"
       rx="8.6079426"
       ry="3.1570251"
       transform="matrix(0.99939147,0.03488101,-0.03188677,0.99949149,0,0)" /><ellipse
       style="fill:#000000;stroke-width:0.2766"
       id="path10"
       cx="119.37994"
       cy="38.828548"
       rx="7.5176282"
       ry="2.4432292" /><ellipse
       style="fill:#000000;stroke-width:0.288061"
       id="path11"
       cx="140.37029"
       cy="33.261932"
       rx="7.9321184"
       ry="2.5918446"
       transform="matrix(0.99890288,0.04682987,-0.04218835,0.99910968,0,0)" /><ellipse
       style="fill:#000000;stroke-width:0.276018"
       id="path12"
       cx="155.89088"
       cy="32.724113"
       rx="9.1971884"
       ry="3.287174"
       transform="matrix(0.99610593,0.08816449,-0.09234462,0.99572711,0,0)" /><ellipse
       style="fill:#000000;stroke-width:0.267979"
       id="path13"
       cx="170.30183"
       cy="23.754974"
       rx="8.7867661"
       ry="2.732899"
       transform="matrix(0.99455702,0.10419372,-0.1177663,0.99304134,0,0)" /><ellipse
       style="fill:#000000;stroke-width:0.248958"
       id="path14"
       cx="173.43393"
       cy="20.855686"
       rx="7.9355998"
       ry="2.2226317"
       transform="matrix(0.99620399,0.0870495,-0.11017568,0.99391213,0,0)" /><ellipse
       style="fill:#000000;stroke-width:0.282996"
       id="path15"
       cx="153.71599"
       cy="25.851662"
       rx="7.5962582"
       ry="2.2974365"
       transform="rotate(3.8428585)" /><text
       xml:space="preserve"
       style="font-size:13.763px;fill:#000000;stroke-width:1.14692"
       x="85.667084"
       y="77.974358"
       id="text15"
       transform="matrix(1.2210575,-0.18476843,-0.44359063,0.88608566,0,0)"><tspan
         sodipodi:role="line"
         id="tspan15"
         style="stroke-width:1.14692"
         x="85.667084"
         y="77.974358">ergo</tspan></text><text
       xml:space="preserve"
       style="font-size:20.2823px;fill:#000000;stroke-width:1.69019"
       x="76.443115"
       y="111.08643"
       id="text16"
       transform="matrix(1.0900966,-0.21420789,-0.3767602,0.99138465,0,0)"><tspan
         sodipodi:role="line"
         style="stroke-width:1.69019"
         x="76.443115"
         y="111.08643"
         id="tspan17">SHIFT</tspan></text></g></svg>
