G04 #@! TF.GenerationSoftware,KiCad,Pcbnew,7.0.9*
G04 #@! TF.CreationDate,2023-12-23T20:10:05+09:00*
G04 #@! TF.ProjectId,ergoSHIFT-rev2-kicad,6572676f-5348-4494-9654-2d726576322d,rev?*
G04 #@! TF.SameCoordinates,Original*
G04 #@! TF.FileFunction,Soldermask,Top*
G04 #@! TF.FilePolarity,Negative*
%FSLAX46Y46*%
G04 Gerber Fmt 4.6, Leading zero omitted, Abs format (unit mm)*
G04 Created by KiCad (PCBNEW 7.0.9) date 2023-12-23 20:10:05*
%MOMM*%
%LPD*%
G01*
G04 APERTURE LIST*
G04 Aperture macros list*
%AMRoundRect*
0 Rectangle with rounded corners*
0 $1 Rounding radius*
0 $2 $3 $4 $5 $6 $7 $8 $9 X,Y pos of 4 corners*
0 Add a 4 corners polygon primitive as box body*
4,1,4,$2,$3,$4,$5,$6,$7,$8,$9,$2,$3,0*
0 Add four circle primitives for the rounded corners*
1,1,$1+$1,$2,$3*
1,1,$1+$1,$4,$5*
1,1,$1+$1,$6,$7*
1,1,$1+$1,$8,$9*
0 Add four rect primitives between the rounded corners*
20,1,$1+$1,$2,$3,$4,$5,0*
20,1,$1+$1,$4,$5,$6,$7,0*
20,1,$1+$1,$6,$7,$8,$9,0*
20,1,$1+$1,$8,$9,$2,$3,0*%
G04 Aperture macros list end*
%ADD10C,0.650000*%
%ADD11R,0.600000X1.450000*%
%ADD12R,0.300000X1.450000*%
%ADD13O,1.000000X2.100000*%
%ADD14O,1.000000X1.600000*%
%ADD15C,1.524000*%
%ADD16C,1.800000*%
%ADD17RoundRect,0.140000X0.140000X0.170000X-0.140000X0.170000X-0.140000X-0.170000X0.140000X-0.170000X0*%
%ADD18C,1.701800*%
%ADD19C,3.000000*%
%ADD20C,3.429000*%
%ADD21C,2.032000*%
%ADD22R,2.600000X2.600000*%
%ADD23RoundRect,0.140000X-0.140000X-0.170000X0.140000X-0.170000X0.140000X0.170000X-0.140000X0.170000X0*%
%ADD24C,1.448000*%
%ADD25C,1.500000*%
%ADD26RoundRect,0.140000X0.170000X-0.140000X0.170000X0.140000X-0.170000X0.140000X-0.170000X-0.140000X0*%
%ADD27RoundRect,0.150000X-0.650000X-0.150000X0.650000X-0.150000X0.650000X0.150000X-0.650000X0.150000X0*%
%ADD28C,2.000000*%
%ADD29RoundRect,0.140000X-0.170000X0.140000X-0.170000X-0.140000X0.170000X-0.140000X0.170000X0.140000X0*%
%ADD30RoundRect,0.135000X0.135000X0.185000X-0.135000X0.185000X-0.135000X-0.185000X0.135000X-0.185000X0*%
%ADD31RoundRect,0.135000X-0.185000X0.135000X-0.185000X-0.135000X0.185000X-0.135000X0.185000X0.135000X0*%
%ADD32RoundRect,0.135000X0.185000X-0.135000X0.185000X0.135000X-0.185000X0.135000X-0.185000X-0.135000X0*%
%ADD33RoundRect,0.050000X-0.387500X-0.050000X0.387500X-0.050000X0.387500X0.050000X-0.387500X0.050000X0*%
%ADD34RoundRect,0.050000X-0.050000X-0.387500X0.050000X-0.387500X0.050000X0.387500X-0.050000X0.387500X0*%
%ADD35RoundRect,0.144000X-1.456000X-1.456000X1.456000X-1.456000X1.456000X1.456000X-1.456000X1.456000X0*%
%ADD36RoundRect,0.200000X-0.200000X-0.275000X0.200000X-0.275000X0.200000X0.275000X-0.200000X0.275000X0*%
%ADD37RoundRect,0.200000X0.200000X0.275000X-0.200000X0.275000X-0.200000X-0.275000X0.200000X-0.275000X0*%
%ADD38RoundRect,0.150000X-0.150000X0.512500X-0.150000X-0.512500X0.150000X-0.512500X0.150000X0.512500X0*%
%ADD39R,1.200000X1.400000*%
%ADD40RoundRect,0.135000X-0.135000X-0.185000X0.135000X-0.185000X0.135000X0.185000X-0.135000X0.185000X0*%
G04 APERTURE END LIST*
D10*
X145094000Y-56190000D03*
X139314000Y-56190000D03*
D11*
X145454000Y-57635000D03*
X144654000Y-57635000D03*
D12*
X143954000Y-57635000D03*
X143454000Y-57635000D03*
X142954000Y-57635000D03*
X142454000Y-57635000D03*
X141954000Y-57635000D03*
X141454000Y-57635000D03*
X140954000Y-57635000D03*
X140454000Y-57635000D03*
D11*
X139754000Y-57635000D03*
X138954000Y-57635000D03*
D13*
X146524000Y-56720000D03*
D14*
X146524000Y-52540000D03*
D13*
X137884000Y-56720000D03*
D14*
X137884000Y-52540000D03*
D15*
X205200000Y-53750000D03*
X210200000Y-53750000D03*
D16*
X204100000Y-56150000D03*
X211300000Y-56150000D03*
D17*
X147786000Y-68863000D03*
X146826000Y-68863000D03*
D18*
X145390000Y-143810000D03*
D19*
X145890000Y-140060000D03*
X150890000Y-137860000D03*
D20*
X150890000Y-143810000D03*
D19*
X155890000Y-140060000D03*
D18*
X156390000Y-143810000D03*
D21*
X150890000Y-149710000D03*
D22*
X154165000Y-137860000D03*
X142615000Y-140060000D03*
D21*
X145890000Y-147610000D03*
X155890000Y-147610000D03*
D23*
X132828000Y-59465000D03*
X133788000Y-59465000D03*
D18*
X200250000Y-90880000D03*
D19*
X200750000Y-87130000D03*
X205750000Y-84930000D03*
D20*
X205750000Y-90880000D03*
D19*
X210750000Y-87130000D03*
D18*
X211250000Y-90880000D03*
D21*
X205750000Y-96780000D03*
D22*
X209025000Y-84930000D03*
X197475000Y-87130000D03*
D21*
X200750000Y-94680000D03*
X210750000Y-94680000D03*
D24*
X279108000Y-193764000D03*
D25*
X76190000Y-71000000D03*
X76190000Y-94876000D03*
X78730000Y-71000000D03*
X78730000Y-94876000D03*
X81270000Y-71000000D03*
X81270000Y-94876000D03*
X83810000Y-71000000D03*
X83810000Y-94876000D03*
D26*
X137372000Y-66549000D03*
X137372000Y-65589000D03*
D27*
X126108000Y-61116000D03*
X126108000Y-62386000D03*
X126108000Y-63656000D03*
X126108000Y-64926000D03*
X133308000Y-64926000D03*
X133308000Y-63656000D03*
X133308000Y-62386000D03*
X133308000Y-61116000D03*
D28*
X72250000Y-59750000D03*
X72250000Y-66250000D03*
X67750000Y-59750000D03*
X67750000Y-66250000D03*
X82250000Y-59750000D03*
X82250000Y-66250000D03*
X77750000Y-59750000D03*
X77750000Y-66250000D03*
D29*
X138134000Y-78541000D03*
X138134000Y-79501000D03*
D23*
X142353000Y-69879000D03*
X143313000Y-69879000D03*
D17*
X147786000Y-63529000D03*
X146826000Y-63529000D03*
X132772000Y-69498000D03*
X131812000Y-69498000D03*
D30*
X121372000Y-61116000D03*
X120352000Y-61116000D03*
D18*
X66250000Y-112750000D03*
D19*
X66750000Y-109000000D03*
X71750000Y-106800000D03*
D20*
X71750000Y-112750000D03*
D19*
X76750000Y-109000000D03*
D18*
X77250000Y-112750000D03*
D21*
X71750000Y-118650000D03*
D22*
X75025000Y-106800000D03*
X63475000Y-109000000D03*
D21*
X66750000Y-116550000D03*
X76750000Y-116550000D03*
D17*
X132927000Y-73795732D03*
X131967000Y-73795732D03*
D26*
X141436000Y-67466000D03*
X141436000Y-66506000D03*
D24*
X279362000Y-53810000D03*
D30*
X139918000Y-59338000D03*
X138898000Y-59338000D03*
D31*
X138388000Y-65430000D03*
X138388000Y-66450000D03*
D32*
X137118000Y-80547000D03*
X137118000Y-79527000D03*
D33*
X134183500Y-70195000D03*
X134183500Y-70595000D03*
X134183500Y-70995000D03*
X134183500Y-71395000D03*
X134183500Y-71795000D03*
X134183500Y-72195000D03*
X134183500Y-72595000D03*
X134183500Y-72995000D03*
X134183500Y-73395000D03*
X134183500Y-73795000D03*
X134183500Y-74195000D03*
X134183500Y-74595000D03*
X134183500Y-74995000D03*
X134183500Y-75395000D03*
D34*
X135021000Y-76232500D03*
X135421000Y-76232500D03*
X135821000Y-76232500D03*
X136221000Y-76232500D03*
X136621000Y-76232500D03*
X137021000Y-76232500D03*
X137421000Y-76232500D03*
X137821000Y-76232500D03*
X138221000Y-76232500D03*
X138621000Y-76232500D03*
X139021000Y-76232500D03*
X139421000Y-76232500D03*
X139821000Y-76232500D03*
X140221000Y-76232500D03*
D33*
X141058500Y-75395000D03*
X141058500Y-74995000D03*
X141058500Y-74595000D03*
X141058500Y-74195000D03*
X141058500Y-73795000D03*
X141058500Y-73395000D03*
X141058500Y-72995000D03*
X141058500Y-72595000D03*
X141058500Y-72195000D03*
X141058500Y-71795000D03*
X141058500Y-71395000D03*
X141058500Y-70995000D03*
X141058500Y-70595000D03*
X141058500Y-70195000D03*
D34*
X140221000Y-69357500D03*
X139821000Y-69357500D03*
X139421000Y-69357500D03*
X139021000Y-69357500D03*
X138621000Y-69357500D03*
X138221000Y-69357500D03*
X137821000Y-69357500D03*
X137421000Y-69357500D03*
X137021000Y-69357500D03*
X136621000Y-69357500D03*
X136221000Y-69357500D03*
X135821000Y-69357500D03*
X135421000Y-69357500D03*
X135021000Y-69357500D03*
D35*
X137621000Y-72795000D03*
D31*
X139404000Y-65430000D03*
X139404000Y-66450000D03*
D36*
X125883000Y-75400000D03*
X127533000Y-75400000D03*
D37*
X127533000Y-73876000D03*
X125883000Y-73876000D03*
D31*
X143726000Y-59590000D03*
X143726000Y-60610000D03*
D23*
X135192000Y-80545000D03*
X136152000Y-80545000D03*
D28*
X92250000Y-59750000D03*
X92250000Y-66250000D03*
X87750000Y-59750000D03*
X87750000Y-66250000D03*
D26*
X136356000Y-65970000D03*
X136356000Y-65010000D03*
D29*
X138769000Y-82859000D03*
X138769000Y-83819000D03*
D23*
X142325000Y-73794934D03*
X143285000Y-73794934D03*
D26*
X140420000Y-66577000D03*
X140420000Y-65617000D03*
D18*
X172370000Y-132370000D03*
D19*
X172870000Y-128620000D03*
X177870000Y-126420000D03*
D20*
X177870000Y-132370000D03*
D19*
X182870000Y-128620000D03*
D18*
X183370000Y-132370000D03*
D21*
X177870000Y-138270000D03*
D22*
X181145000Y-126420000D03*
X169595000Y-128620000D03*
D21*
X172870000Y-136170000D03*
X182870000Y-136170000D03*
D18*
X147550000Y-113700000D03*
D19*
X148050000Y-109950000D03*
X153050000Y-107750000D03*
D20*
X153050000Y-113700000D03*
D19*
X158050000Y-109950000D03*
D18*
X158550000Y-113700000D03*
D21*
X153050000Y-119600000D03*
D22*
X156325000Y-107750000D03*
X144775000Y-109950000D03*
D21*
X148050000Y-117500000D03*
X158050000Y-117500000D03*
D38*
X147786000Y-65064000D03*
X146836000Y-65064000D03*
X145886000Y-65064000D03*
X145886000Y-67339000D03*
X147786000Y-67339000D03*
D39*
X135672000Y-82155000D03*
X135672000Y-84355000D03*
X137372000Y-84355000D03*
X137372000Y-82155000D03*
D40*
X123017000Y-61116000D03*
X124037000Y-61116000D03*
D18*
X101720000Y-170470000D03*
D19*
X102220000Y-166720000D03*
X107220000Y-164520000D03*
D20*
X107220000Y-170470000D03*
D19*
X112220000Y-166720000D03*
D18*
X112720000Y-170470000D03*
D21*
X107220000Y-176370000D03*
D22*
X110495000Y-164520000D03*
X98945000Y-166720000D03*
D21*
X102220000Y-174270000D03*
X112220000Y-174270000D03*
D29*
X139150000Y-78541000D03*
X139150000Y-79501000D03*
D23*
X142353000Y-68863000D03*
X143313000Y-68863000D03*
D18*
X133290000Y-178670000D03*
D19*
X133790000Y-174920000D03*
X138790000Y-172720000D03*
D20*
X138790000Y-178670000D03*
D19*
X143790000Y-174920000D03*
D18*
X144290000Y-178670000D03*
D21*
X138790000Y-184570000D03*
D22*
X142065000Y-172720000D03*
X130515000Y-174920000D03*
D21*
X133790000Y-182470000D03*
X143790000Y-182470000D03*
D18*
X94870000Y-112750000D03*
D19*
X95370000Y-109000000D03*
X100370000Y-106800000D03*
D20*
X100370000Y-112750000D03*
D19*
X105370000Y-109000000D03*
D18*
X105870000Y-112750000D03*
D21*
X100370000Y-118650000D03*
D22*
X103645000Y-106800000D03*
X92095000Y-109000000D03*
D21*
X95370000Y-116550000D03*
X105370000Y-116550000D03*
D15*
X98500000Y-53750000D03*
X103500000Y-53750000D03*
D16*
X97400000Y-56150000D03*
X104600000Y-56150000D03*
D18*
X230720000Y-116390000D03*
D19*
X231220000Y-112640000D03*
X236220000Y-110440000D03*
D20*
X236220000Y-116390000D03*
D19*
X241220000Y-112640000D03*
D18*
X241720000Y-116390000D03*
D21*
X236220000Y-122290000D03*
D22*
X239495000Y-110440000D03*
X227945000Y-112640000D03*
D21*
X231220000Y-120190000D03*
X241220000Y-120190000D03*
D18*
X199350000Y-120930000D03*
D19*
X199850000Y-117180000D03*
X204850000Y-114980000D03*
D20*
X204850000Y-120930000D03*
D19*
X209850000Y-117180000D03*
D18*
X210350000Y-120930000D03*
D21*
X204850000Y-126830000D03*
D22*
X208125000Y-114980000D03*
X196575000Y-117180000D03*
D21*
X199850000Y-124730000D03*
X209850000Y-124730000D03*
D24*
X53810000Y-53810000D03*
D18*
X177040000Y-71750000D03*
D19*
X177540000Y-68000000D03*
X182540000Y-65800000D03*
D20*
X182540000Y-71750000D03*
D19*
X187540000Y-68000000D03*
D18*
X188040000Y-71750000D03*
D21*
X182540000Y-77650000D03*
D22*
X185815000Y-65800000D03*
X174265000Y-68000000D03*
D21*
X177540000Y-75550000D03*
X187540000Y-75550000D03*
D18*
X173900000Y-102290000D03*
D19*
X174400000Y-98540000D03*
X179400000Y-96340000D03*
D20*
X179400000Y-102290000D03*
D19*
X184400000Y-98540000D03*
D18*
X184900000Y-102290000D03*
D21*
X179400000Y-108190000D03*
D22*
X182675000Y-96340000D03*
X171125000Y-98540000D03*
D21*
X174400000Y-106090000D03*
X184400000Y-106090000D03*
D18*
X120320000Y-126290000D03*
D19*
X120820000Y-122540000D03*
X125820000Y-120340000D03*
D20*
X125820000Y-126290000D03*
D19*
X130820000Y-122540000D03*
D18*
X131320000Y-126290000D03*
D21*
X125820000Y-132190000D03*
D22*
X129095000Y-120340000D03*
X117545000Y-122540000D03*
D21*
X120820000Y-130090000D03*
X130820000Y-130090000D03*
D18*
X256920000Y-101110000D03*
D19*
X257420000Y-97360000D03*
X262420000Y-95160000D03*
D20*
X262420000Y-101110000D03*
D19*
X267420000Y-97360000D03*
D18*
X267920000Y-101110000D03*
D21*
X262420000Y-107010000D03*
D22*
X265695000Y-95160000D03*
X254145000Y-97360000D03*
D21*
X257420000Y-104910000D03*
X267420000Y-104910000D03*
D18*
X229350000Y-86940000D03*
D19*
X229850000Y-83190000D03*
X234850000Y-80990000D03*
D20*
X234850000Y-86940000D03*
D19*
X239850000Y-83190000D03*
D18*
X240350000Y-86940000D03*
D21*
X234850000Y-92840000D03*
D22*
X238125000Y-80990000D03*
X226575000Y-83190000D03*
D21*
X229850000Y-90740000D03*
X239850000Y-90740000D03*
M02*
