G04 #@! TF.GenerationSoftware,KiCad,Pcbnew,7.0.9*
G04 #@! TF.CreationDate,2023-12-23T20:10:05+09:00*
G04 #@! TF.ProjectId,ergoSHIFT-rev2-kicad,6572676f-5348-4494-9654-2d726576322d,rev?*
G04 #@! TF.SameCoordinates,Original*
G04 #@! TF.FileFunction,Soldermask,Bot*
G04 #@! TF.FilePolarity,Negative*
%FSLAX46Y46*%
G04 Gerber Fmt 4.6, Leading zero omitted, Abs format (unit mm)*
G04 Created by KiCad (PCBNEW 7.0.9) date 2023-12-23 20:10:05*
%MOMM*%
%LPD*%
G01*
G04 APERTURE LIST*
%ADD10C,0.650000*%
%ADD11O,1.000000X2.100000*%
%ADD12O,1.000000X1.600000*%
%ADD13C,1.524000*%
%ADD14C,1.800000*%
%ADD15C,1.701800*%
%ADD16C,3.000000*%
%ADD17C,3.429000*%
%ADD18R,2.600000X2.600000*%
%ADD19C,2.032000*%
%ADD20C,1.448000*%
%ADD21C,1.500000*%
%ADD22C,2.000000*%
G04 APERTURE END LIST*
D10*
X145094000Y-56190000D03*
X139314000Y-56190000D03*
D11*
X146524000Y-56720000D03*
D12*
X146524000Y-52540000D03*
D11*
X137884000Y-56720000D03*
D12*
X137884000Y-52540000D03*
D13*
X205200000Y-53750000D03*
X210200000Y-53750000D03*
D14*
X204100000Y-56150000D03*
X211300000Y-56150000D03*
D15*
X145390000Y-143810000D03*
D16*
X145890000Y-140060000D03*
X150890000Y-137860000D03*
D17*
X150890000Y-143810000D03*
D16*
X155890000Y-140060000D03*
D15*
X156390000Y-143810000D03*
D18*
X147615000Y-137860000D03*
D19*
X150890000Y-149710000D03*
X145890000Y-147610000D03*
X155890000Y-147610000D03*
D18*
X159165000Y-140060000D03*
D15*
X200250000Y-90880000D03*
D16*
X200750000Y-87130000D03*
X205750000Y-84930000D03*
D17*
X205750000Y-90880000D03*
D16*
X210750000Y-87130000D03*
D15*
X211250000Y-90880000D03*
D18*
X202475000Y-84930000D03*
D19*
X205750000Y-96780000D03*
X200750000Y-94680000D03*
X210750000Y-94680000D03*
D18*
X214025000Y-87130000D03*
D20*
X279108000Y-193764000D03*
D21*
X76190000Y-71000000D03*
X76190000Y-94876000D03*
X78730000Y-71000000D03*
X78730000Y-94876000D03*
X81270000Y-71000000D03*
X81270000Y-94876000D03*
X83810000Y-71000000D03*
X83810000Y-94876000D03*
D22*
X72250000Y-59750000D03*
X72250000Y-66250000D03*
X67750000Y-59750000D03*
X67750000Y-66250000D03*
X82250000Y-59750000D03*
X82250000Y-66250000D03*
X77750000Y-59750000D03*
X77750000Y-66250000D03*
D15*
X66250000Y-112750000D03*
D16*
X66750000Y-109000000D03*
X71750000Y-106800000D03*
D17*
X71750000Y-112750000D03*
D16*
X76750000Y-109000000D03*
D15*
X77250000Y-112750000D03*
D18*
X68475000Y-106800000D03*
D19*
X71750000Y-118650000D03*
X66750000Y-116550000D03*
X76750000Y-116550000D03*
D18*
X80025000Y-109000000D03*
D20*
X279362000Y-53810000D03*
D22*
X92250000Y-59750000D03*
X92250000Y-66250000D03*
X87750000Y-59750000D03*
X87750000Y-66250000D03*
D15*
X172370000Y-132370000D03*
D16*
X172870000Y-128620000D03*
X177870000Y-126420000D03*
D17*
X177870000Y-132370000D03*
D16*
X182870000Y-128620000D03*
D15*
X183370000Y-132370000D03*
D18*
X174595000Y-126420000D03*
D19*
X177870000Y-138270000D03*
X172870000Y-136170000D03*
X182870000Y-136170000D03*
D18*
X186145000Y-128620000D03*
D15*
X147550000Y-113700000D03*
D16*
X148050000Y-109950000D03*
X153050000Y-107750000D03*
D17*
X153050000Y-113700000D03*
D16*
X158050000Y-109950000D03*
D15*
X158550000Y-113700000D03*
D18*
X149775000Y-107750000D03*
D19*
X153050000Y-119600000D03*
X148050000Y-117500000D03*
X158050000Y-117500000D03*
D18*
X161325000Y-109950000D03*
D15*
X101720000Y-170470000D03*
D16*
X102220000Y-166720000D03*
X107220000Y-164520000D03*
D17*
X107220000Y-170470000D03*
D16*
X112220000Y-166720000D03*
D15*
X112720000Y-170470000D03*
D18*
X103945000Y-164520000D03*
D19*
X107220000Y-176370000D03*
X102220000Y-174270000D03*
X112220000Y-174270000D03*
D18*
X115495000Y-166720000D03*
D15*
X133290000Y-178670000D03*
D16*
X133790000Y-174920000D03*
X138790000Y-172720000D03*
D17*
X138790000Y-178670000D03*
D16*
X143790000Y-174920000D03*
D15*
X144290000Y-178670000D03*
D18*
X135515000Y-172720000D03*
D19*
X138790000Y-184570000D03*
X133790000Y-182470000D03*
X143790000Y-182470000D03*
D18*
X147065000Y-174920000D03*
D15*
X94870000Y-112750000D03*
D16*
X95370000Y-109000000D03*
X100370000Y-106800000D03*
D17*
X100370000Y-112750000D03*
D16*
X105370000Y-109000000D03*
D15*
X105870000Y-112750000D03*
D18*
X97095000Y-106800000D03*
D19*
X100370000Y-118650000D03*
X95370000Y-116550000D03*
X105370000Y-116550000D03*
D18*
X108645000Y-109000000D03*
D13*
X98500000Y-53750000D03*
X103500000Y-53750000D03*
D14*
X97400000Y-56150000D03*
X104600000Y-56150000D03*
D15*
X230720000Y-116390000D03*
D16*
X231220000Y-112640000D03*
X236220000Y-110440000D03*
D17*
X236220000Y-116390000D03*
D16*
X241220000Y-112640000D03*
D15*
X241720000Y-116390000D03*
D18*
X232945000Y-110440000D03*
D19*
X236220000Y-122290000D03*
X231220000Y-120190000D03*
X241220000Y-120190000D03*
D18*
X244495000Y-112640000D03*
D15*
X199350000Y-120930000D03*
D16*
X199850000Y-117180000D03*
X204850000Y-114980000D03*
D17*
X204850000Y-120930000D03*
D16*
X209850000Y-117180000D03*
D15*
X210350000Y-120930000D03*
D18*
X201575000Y-114980000D03*
D19*
X204850000Y-126830000D03*
X199850000Y-124730000D03*
X209850000Y-124730000D03*
D18*
X213125000Y-117180000D03*
D20*
X53810000Y-53810000D03*
D15*
X177040000Y-71750000D03*
D16*
X177540000Y-68000000D03*
X182540000Y-65800000D03*
D17*
X182540000Y-71750000D03*
D16*
X187540000Y-68000000D03*
D15*
X188040000Y-71750000D03*
D18*
X179265000Y-65800000D03*
D19*
X182540000Y-77650000D03*
X177540000Y-75550000D03*
X187540000Y-75550000D03*
D18*
X190815000Y-68000000D03*
D15*
X173900000Y-102290000D03*
D16*
X174400000Y-98540000D03*
X179400000Y-96340000D03*
D17*
X179400000Y-102290000D03*
D16*
X184400000Y-98540000D03*
D15*
X184900000Y-102290000D03*
D18*
X176125000Y-96340000D03*
D19*
X179400000Y-108190000D03*
X174400000Y-106090000D03*
X184400000Y-106090000D03*
D18*
X187675000Y-98540000D03*
D15*
X120320000Y-126290000D03*
D16*
X120820000Y-122540000D03*
X125820000Y-120340000D03*
D17*
X125820000Y-126290000D03*
D16*
X130820000Y-122540000D03*
D15*
X131320000Y-126290000D03*
D18*
X122545000Y-120340000D03*
D19*
X125820000Y-132190000D03*
X120820000Y-130090000D03*
X130820000Y-130090000D03*
D18*
X134095000Y-122540000D03*
D15*
X256920000Y-101110000D03*
D16*
X257420000Y-97360000D03*
X262420000Y-95160000D03*
D17*
X262420000Y-101110000D03*
D16*
X267420000Y-97360000D03*
D15*
X267920000Y-101110000D03*
D18*
X259145000Y-95160000D03*
D19*
X262420000Y-107010000D03*
X257420000Y-104910000D03*
X267420000Y-104910000D03*
D18*
X270695000Y-97360000D03*
D15*
X229350000Y-86940000D03*
D16*
X229850000Y-83190000D03*
X234850000Y-80990000D03*
D17*
X234850000Y-86940000D03*
D16*
X239850000Y-83190000D03*
D15*
X240350000Y-86940000D03*
D18*
X231575000Y-80990000D03*
D19*
X234850000Y-92840000D03*
X229850000Y-90740000D03*
X239850000Y-90740000D03*
D18*
X243125000Y-83190000D03*
M02*
