M48
; DRILL file {KiCad 7.0.9} date Sat Dec 23 20:10:08 2023
; FORMAT={-:-/ absolute / metric / decimal}
; #@! TF.CreationDate,2023-12-23T20:10:08+09:00
; #@! TF.GenerationSoftware,Kicad,Pcbnew,7.0.9
; #@! TF.FileFunction,NonPlated,1,2,NPTH
FMAT,2
METRIC
; #@! TA.AperFunction,NonPlated,NPTH,ComponentDrill
T1C0.650
; #@! TA.AperFunction,NonPlated,NPTH,ComponentDrill
T2C1.152
; #@! TA.AperFunction,NonPlated,NPTH,ComponentDrill
T3C1.702
; #@! TA.AperFunction,NonPlated,NPTH,ComponentDrill
T4C3.000
; #@! TA.AperFunction,NonPlated,NPTH,ComponentDrill
T5C3.429
%
G90
G05
T1
X139.314Y-56.19
X145.094Y-56.19
T2
X53.81Y-53.81
X279.108Y-193.764
X279.362Y-53.81
T3
X66.25Y-112.75
X77.25Y-112.75
X94.87Y-112.75
X101.72Y-170.47
X105.87Y-112.75
X112.72Y-170.47
X120.32Y-126.29
X131.32Y-126.29
X133.29Y-178.67
X144.29Y-178.67
X145.39Y-143.81
X147.55Y-113.7
X156.39Y-143.81
X158.55Y-113.7
X172.37Y-132.37
X173.9Y-102.29
X177.04Y-71.75
X183.37Y-132.37
X184.9Y-102.29
X188.04Y-71.75
X199.35Y-120.93
X200.25Y-90.88
X210.35Y-120.93
X211.25Y-90.88
X229.35Y-86.94
X230.72Y-116.39
X240.35Y-86.94
X241.72Y-116.39
X256.92Y-101.11
X267.92Y-101.11
T4
X66.75Y-109.0
X71.75Y-106.8
X76.75Y-109.0
X95.37Y-109.0
X100.37Y-106.8
X102.22Y-166.72
X105.37Y-109.0
X107.22Y-164.52
X112.22Y-166.72
X120.82Y-122.54
X125.82Y-120.34
X130.82Y-122.54
X133.79Y-174.92
X138.79Y-172.72
X143.79Y-174.92
X145.89Y-140.06
X148.05Y-109.95
X150.89Y-137.86
X153.05Y-107.75
X155.89Y-140.06
X158.05Y-109.95
X172.87Y-128.62
X174.4Y-98.54
X177.54Y-68.0
X177.87Y-126.42
X179.4Y-96.34
X182.54Y-65.8
X182.87Y-128.62
X184.4Y-98.54
X187.54Y-68.0
X199.85Y-117.18
X200.75Y-87.13
X204.85Y-114.98
X205.75Y-84.93
X209.85Y-117.18
X210.75Y-87.13
X229.85Y-83.19
X231.22Y-112.64
X234.85Y-80.99
X236.22Y-110.44
X239.85Y-83.19
X241.22Y-112.64
X257.42Y-97.36
X262.42Y-95.16
X267.42Y-97.36
T5
X71.75Y-112.75
X100.37Y-112.75
X107.22Y-170.47
X125.82Y-126.29
X138.79Y-178.67
X150.89Y-143.81
X153.05Y-113.7
X177.87Y-132.37
X179.4Y-102.29
X182.54Y-71.75
X204.85Y-120.93
X205.75Y-90.88
X234.85Y-86.94
X236.22Y-116.39
X262.42Y-101.11
T0
M30
