G04 #@! TF.GenerationSoftware,KiCad,Pcbnew,7.0.9*
G04 #@! TF.CreationDate,2023-12-23T20:10:05+09:00*
G04 #@! TF.ProjectId,ergoSHIFT-rev2-kicad,6572676f-5348-4494-9654-2d726576322d,rev?*
G04 #@! TF.SameCoordinates,Original*
G04 #@! TF.FileFunction,Paste,Top*
G04 #@! TF.FilePolarity,Positive*
%FSLAX46Y46*%
G04 Gerber Fmt 4.6, Leading zero omitted, Abs format (unit mm)*
G04 Created by KiCad (PCBNEW 7.0.9) date 2023-12-23 20:10:05*
%MOMM*%
%LPD*%
G01*
G04 APERTURE LIST*
G04 Aperture macros list*
%AMRoundRect*
0 Rectangle with rounded corners*
0 $1 Rounding radius*
0 $2 $3 $4 $5 $6 $7 $8 $9 X,Y pos of 4 corners*
0 Add a 4 corners polygon primitive as box body*
4,1,4,$2,$3,$4,$5,$6,$7,$8,$9,$2,$3,0*
0 Add four circle primitives for the rounded corners*
1,1,$1+$1,$2,$3*
1,1,$1+$1,$4,$5*
1,1,$1+$1,$6,$7*
1,1,$1+$1,$8,$9*
0 Add four rect primitives between the rounded corners*
20,1,$1+$1,$2,$3,$4,$5,0*
20,1,$1+$1,$4,$5,$6,$7,0*
20,1,$1+$1,$6,$7,$8,$9,0*
20,1,$1+$1,$8,$9,$2,$3,0*%
G04 Aperture macros list end*
%ADD10R,0.600000X1.450000*%
%ADD11R,0.300000X1.450000*%
%ADD12RoundRect,0.140000X0.140000X0.170000X-0.140000X0.170000X-0.140000X-0.170000X0.140000X-0.170000X0*%
%ADD13R,2.600000X2.600000*%
%ADD14RoundRect,0.140000X-0.140000X-0.170000X0.140000X-0.170000X0.140000X0.170000X-0.140000X0.170000X0*%
%ADD15RoundRect,0.140000X0.170000X-0.140000X0.170000X0.140000X-0.170000X0.140000X-0.170000X-0.140000X0*%
%ADD16RoundRect,0.150000X-0.650000X-0.150000X0.650000X-0.150000X0.650000X0.150000X-0.650000X0.150000X0*%
%ADD17RoundRect,0.140000X-0.170000X0.140000X-0.170000X-0.140000X0.170000X-0.140000X0.170000X0.140000X0*%
%ADD18RoundRect,0.135000X0.135000X0.185000X-0.135000X0.185000X-0.135000X-0.185000X0.135000X-0.185000X0*%
%ADD19RoundRect,0.135000X-0.185000X0.135000X-0.185000X-0.135000X0.185000X-0.135000X0.185000X0.135000X0*%
%ADD20RoundRect,0.135000X0.185000X-0.135000X0.185000X0.135000X-0.185000X0.135000X-0.185000X-0.135000X0*%
%ADD21RoundRect,0.250000X-0.292217X-0.292217X0.292217X-0.292217X0.292217X0.292217X-0.292217X0.292217X0*%
%ADD22RoundRect,0.050000X-0.387500X-0.050000X0.387500X-0.050000X0.387500X0.050000X-0.387500X0.050000X0*%
%ADD23RoundRect,0.050000X-0.050000X-0.387500X0.050000X-0.387500X0.050000X0.387500X-0.050000X0.387500X0*%
%ADD24RoundRect,0.200000X-0.200000X-0.275000X0.200000X-0.275000X0.200000X0.275000X-0.200000X0.275000X0*%
%ADD25RoundRect,0.200000X0.200000X0.275000X-0.200000X0.275000X-0.200000X-0.275000X0.200000X-0.275000X0*%
%ADD26RoundRect,0.150000X-0.150000X0.512500X-0.150000X-0.512500X0.150000X-0.512500X0.150000X0.512500X0*%
%ADD27R,1.200000X1.400000*%
%ADD28RoundRect,0.135000X-0.135000X-0.185000X0.135000X-0.185000X0.135000X0.185000X-0.135000X0.185000X0*%
G04 APERTURE END LIST*
D10*
X145454000Y-57635000D03*
X144654000Y-57635000D03*
D11*
X143954000Y-57635000D03*
X143454000Y-57635000D03*
X142954000Y-57635000D03*
X142454000Y-57635000D03*
X141954000Y-57635000D03*
X141454000Y-57635000D03*
X140954000Y-57635000D03*
X140454000Y-57635000D03*
D10*
X139754000Y-57635000D03*
X138954000Y-57635000D03*
D12*
X147786000Y-68863000D03*
X146826000Y-68863000D03*
D13*
X154165000Y-137860000D03*
X142615000Y-140060000D03*
D14*
X132828000Y-59465000D03*
X133788000Y-59465000D03*
D13*
X209025000Y-84930000D03*
X197475000Y-87130000D03*
D15*
X137372000Y-66549000D03*
X137372000Y-65589000D03*
D16*
X126108000Y-61116000D03*
X126108000Y-62386000D03*
X126108000Y-63656000D03*
X126108000Y-64926000D03*
X133308000Y-64926000D03*
X133308000Y-63656000D03*
X133308000Y-62386000D03*
X133308000Y-61116000D03*
D17*
X138134000Y-78541000D03*
X138134000Y-79501000D03*
D14*
X142353000Y-69879000D03*
X143313000Y-69879000D03*
D12*
X147786000Y-63529000D03*
X146826000Y-63529000D03*
X132772000Y-69498000D03*
X131812000Y-69498000D03*
D18*
X121372000Y-61116000D03*
X120352000Y-61116000D03*
D13*
X75025000Y-106800000D03*
X63475000Y-109000000D03*
D12*
X132927000Y-73795732D03*
X131967000Y-73795732D03*
D15*
X141436000Y-67466000D03*
X141436000Y-66506000D03*
D18*
X139918000Y-59338000D03*
X138898000Y-59338000D03*
D19*
X138388000Y-65430000D03*
X138388000Y-66450000D03*
D20*
X137118000Y-80547000D03*
X137118000Y-79527000D03*
D21*
X136983500Y-72157500D03*
X136983500Y-73432500D03*
X138258500Y-72157500D03*
X138258500Y-73432500D03*
D22*
X134183500Y-70195000D03*
X134183500Y-70595000D03*
X134183500Y-70995000D03*
X134183500Y-71395000D03*
X134183500Y-71795000D03*
X134183500Y-72195000D03*
X134183500Y-72595000D03*
X134183500Y-72995000D03*
X134183500Y-73395000D03*
X134183500Y-73795000D03*
X134183500Y-74195000D03*
X134183500Y-74595000D03*
X134183500Y-74995000D03*
X134183500Y-75395000D03*
D23*
X135021000Y-76232500D03*
X135421000Y-76232500D03*
X135821000Y-76232500D03*
X136221000Y-76232500D03*
X136621000Y-76232500D03*
X137021000Y-76232500D03*
X137421000Y-76232500D03*
X137821000Y-76232500D03*
X138221000Y-76232500D03*
X138621000Y-76232500D03*
X139021000Y-76232500D03*
X139421000Y-76232500D03*
X139821000Y-76232500D03*
X140221000Y-76232500D03*
D22*
X141058500Y-75395000D03*
X141058500Y-74995000D03*
X141058500Y-74595000D03*
X141058500Y-74195000D03*
X141058500Y-73795000D03*
X141058500Y-73395000D03*
X141058500Y-72995000D03*
X141058500Y-72595000D03*
X141058500Y-72195000D03*
X141058500Y-71795000D03*
X141058500Y-71395000D03*
X141058500Y-70995000D03*
X141058500Y-70595000D03*
X141058500Y-70195000D03*
D23*
X140221000Y-69357500D03*
X139821000Y-69357500D03*
X139421000Y-69357500D03*
X139021000Y-69357500D03*
X138621000Y-69357500D03*
X138221000Y-69357500D03*
X137821000Y-69357500D03*
X137421000Y-69357500D03*
X137021000Y-69357500D03*
X136621000Y-69357500D03*
X136221000Y-69357500D03*
X135821000Y-69357500D03*
X135421000Y-69357500D03*
X135021000Y-69357500D03*
D19*
X139404000Y-65430000D03*
X139404000Y-66450000D03*
D24*
X125883000Y-75400000D03*
X127533000Y-75400000D03*
D25*
X127533000Y-73876000D03*
X125883000Y-73876000D03*
D19*
X143726000Y-59590000D03*
X143726000Y-60610000D03*
D14*
X135192000Y-80545000D03*
X136152000Y-80545000D03*
D15*
X136356000Y-65970000D03*
X136356000Y-65010000D03*
D17*
X138769000Y-82859000D03*
X138769000Y-83819000D03*
D14*
X142325000Y-73794934D03*
X143285000Y-73794934D03*
D15*
X140420000Y-66577000D03*
X140420000Y-65617000D03*
D13*
X181145000Y-126420000D03*
X169595000Y-128620000D03*
X156325000Y-107750000D03*
X144775000Y-109950000D03*
D26*
X147786000Y-65064000D03*
X146836000Y-65064000D03*
X145886000Y-65064000D03*
X145886000Y-67339000D03*
X147786000Y-67339000D03*
D27*
X135672000Y-82155000D03*
X135672000Y-84355000D03*
X137372000Y-84355000D03*
X137372000Y-82155000D03*
D28*
X123017000Y-61116000D03*
X124037000Y-61116000D03*
D13*
X110495000Y-164520000D03*
X98945000Y-166720000D03*
D17*
X139150000Y-78541000D03*
X139150000Y-79501000D03*
D14*
X142353000Y-68863000D03*
X143313000Y-68863000D03*
D13*
X142065000Y-172720000D03*
X130515000Y-174920000D03*
X103645000Y-106800000D03*
X92095000Y-109000000D03*
X239495000Y-110440000D03*
X227945000Y-112640000D03*
X208125000Y-114980000D03*
X196575000Y-117180000D03*
X185815000Y-65800000D03*
X174265000Y-68000000D03*
X182675000Y-96340000D03*
X171125000Y-98540000D03*
X129095000Y-120340000D03*
X117545000Y-122540000D03*
X265695000Y-95160000D03*
X254145000Y-97360000D03*
X238125000Y-80990000D03*
X226575000Y-83190000D03*
M02*
