M48
; DRILL file {KiCad 7.0.9} date Sat Dec 23 20:10:08 2023
; FORMAT={-:-/ absolute / metric / decimal}
; #@! TF.CreationDate,2023-12-23T20:10:08+09:00
; #@! TF.GenerationSoftware,Kicad,Pcbnew,7.0.9
; #@! TF.FileFunction,Plated,1,2,PTH
FMAT,2
METRIC
; #@! TA.AperFunction,Plated,PTH,ViaDrill
T1C0.300
; #@! TA.AperFunction,Plated,PTH,ComponentDrill
T2C0.350
; #@! TA.AperFunction,Plated,PTH,ComponentDrill
T3C0.600
; #@! TA.AperFunction,Plated,PTH,ComponentDrill
T4C0.762
; #@! TA.AperFunction,Plated,PTH,ComponentDrill
T5C0.900
; #@! TA.AperFunction,Plated,PTH,ComponentDrill
T6C1.100
; #@! TA.AperFunction,Plated,PTH,ComponentDrill
T7C1.270
; #@! TA.AperFunction,Plated,PTH,ComponentDrill
T8C1.300
%
G90
G05
T1
X52.54Y-62.7
X52.54Y-72.86
X52.54Y-83.02
X52.54Y-93.18
X52.54Y-103.34
X52.54Y-113.5
X52.54Y-123.66
X52.54Y-133.82
X52.54Y-143.98
X52.54Y-154.14
X52.54Y-164.3
X52.54Y-174.46
X52.54Y-184.62
X57.62Y-67.78
X57.62Y-77.94
X57.62Y-88.1
X57.62Y-98.26
X57.62Y-108.42
X57.62Y-118.58
X57.62Y-128.74
X57.62Y-138.9
X57.62Y-149.06
X57.62Y-159.22
X57.62Y-169.38
X57.62Y-179.54
X62.7Y-52.54
X62.7Y-133.82
X62.7Y-143.98
X62.7Y-154.14
X62.7Y-164.3
X62.7Y-174.46
X67.78Y-128.74
X67.78Y-138.9
X67.78Y-169.38
X72.86Y-52.54
X72.86Y-133.82
X72.86Y-164.3
X75.705Y-68.491
X77.94Y-128.74
X77.94Y-138.9
X77.94Y-169.38
X79.972Y-72.225
X79.972Y-78.194
X79.972Y-85.052
X79.972Y-93.307
X80.226Y-122.898
X81.496Y-124.93
X82.512Y-93.307
X82.639Y-85.052
X82.664Y-97.244
X82.766Y-75.908
X82.766Y-78.194
X83.02Y-52.54
X83.02Y-68.44
X83.02Y-133.82
X83.02Y-164.3
X83.782Y-73.114
X83.782Y-103.34
X83.782Y-111.214
X84.036Y-119.342
X84.798Y-75.908
X84.798Y-78.194
X84.9Y-85.052
X84.925Y-93.307
X86.068Y-104.102
X86.068Y-110.96
X86.068Y-119.342
X87.592Y-97.244
X87.592Y-99.53
X87.795Y-75.4
X88.1Y-128.74
X88.1Y-138.9
X88.1Y-169.38
X88.405Y-68.542
X89.878Y-100.546
X93.18Y-52.54
X93.18Y-133.82
X93.18Y-154.14
X93.18Y-164.3
X93.18Y-187.16
X93.688Y-97.625
X93.688Y-99.403
X94.298Y-65.24
X94.298Y-66.967
X96.736Y-68.542
X98.26Y-128.74
X98.26Y-138.9
X98.26Y-149.06
X98.26Y-159.22
X98.26Y-182.08
X98.26Y-192.24
X100.648Y-70.218
X103.238Y-68.796
X103.34Y-133.82
X103.34Y-143.98
X103.34Y-154.14
X103.34Y-187.16
X104.051Y-72.606
X105.321Y-70.726
X105.728Y-65.24
X105.88Y-67.221
X107.048Y-99.378
X108.42Y-128.74
X108.42Y-138.9
X108.42Y-149.06
X108.42Y-182.08
X108.42Y-192.24
X108.522Y-96.533
X108.979Y-70.269
X109.538Y-99.936
X111.366Y-69.507
X111.62Y-98.768
X113.5Y-52.54
X113.5Y-187.16
X118.58Y-182.08
X118.58Y-192.24
X120.862Y-62.005
X121.12Y-52.54
X121.425Y-69.609
X121.497Y-63.656
X122.492Y-72.606
X123.66Y-187.16
X124.422Y-69.253
X124.473Y-64.926
X125.844Y-79.362
X125.895Y-69.304
X125.895Y-72.657
X126.048Y-66.307
X127.826Y-69.304
X128.029Y-114.11
X128.08Y-111.468
X128.13Y-81.852
X128.74Y-52.54
X128.74Y-192.24
X128.943Y-76.162
X130.112Y-114.719
X130.416Y-80.886
X130.518Y-75.095
X130.62Y-111.773
X130.895Y-69.498
X131.022Y-73.816
X132.546Y-81.436
X132.546Y-85.5
X133.562Y-78.388
X134.324Y-80.547
X134.324Y-84.357
X134.578Y-59.465
X134.578Y-87.532
X136.204Y-78.337
X136.356Y-64.012
X136.868Y-121.374
X136.868Y-167.094
X137.372Y-64.621
X137.372Y-67.339
X137.626Y-87.532
X138.007Y-59.338
X138.185Y-74.934
X138.388Y-70.695
X138.515Y-80.42
X138.646Y-120.104
X138.769Y-77.499
X138.9Y-167.094
X139.611Y-77.483
X139.658Y-83.849
X140.039Y-79.531
X140.42Y-64.621
X140.424Y-124.93
X140.674Y-87.532
X141.182Y-81.436
X141.237Y-102.883
X141.436Y-65.586
X141.69Y-84.484
X142.202Y-123.66
X142.253Y-76.67
X142.253Y-105.27
X143.472Y-65.621
X143.726Y-61.624
X144.082Y-78.397
X144.23Y-68.863
X144.23Y-69.879
X144.23Y-73.816
X145.504Y-59.084
X145.881Y-68.863
X146.821Y-62.64
X147.231Y-76.67
X149.009Y-77.432
X149.06Y-192.24
X150.025Y-84.392
X150.889Y-72.86
X151.6Y-52.54
X152.108Y-73.012
X152.311Y-74.181
X154.14Y-156.68
X154.14Y-166.84
X154.14Y-177.0
X156.274Y-90.64
X159.22Y-60.16
X159.22Y-151.6
X159.22Y-161.76
X159.22Y-171.92
X159.22Y-182.08
X159.22Y-192.24
X160.084Y-90.081
X161.201Y-92.266
X162.268Y-83.985
X164.3Y-55.08
X164.3Y-146.52
X164.3Y-156.68
X164.3Y-166.84
X164.3Y-177.0
X164.3Y-187.16
X164.554Y-104.864
X164.554Y-107.658
X166.586Y-108.166
X166.586Y-113.5
X166.84Y-57.62
X166.84Y-59.906
X167.094Y-105.626
X169.38Y-151.6
X169.38Y-182.08
X169.38Y-192.24
X172.428Y-122.39
X173.698Y-120.612
X174.46Y-55.08
X174.46Y-146.52
X174.46Y-187.16
X176.39Y-84.087
X177.102Y-92.215
X177.508Y-118.834
X178.524Y-117.056
X178.626Y-84.9
X179.54Y-151.6
X179.54Y-182.08
X179.54Y-192.24
X183.858Y-119.088
X183.909Y-84.646
X184.061Y-89.268
X184.62Y-55.08
X184.62Y-146.52
X184.62Y-187.16
X185.128Y-117.31
X185.89Y-87.033
X188.786Y-79.921
X189.7Y-141.44
X189.7Y-151.6
X189.7Y-182.08
X189.7Y-192.24
X190.513Y-78.245
X191.376Y-81.496
X192.392Y-79.362
X193.256Y-127.978
X193.764Y-125.692
X194.78Y-55.08
X194.78Y-65.24
X194.78Y-136.36
X194.78Y-146.52
X194.78Y-187.16
X197.574Y-72.098
X197.574Y-74.13
X199.86Y-70.32
X199.86Y-141.44
X199.86Y-151.6
X199.86Y-182.08
X199.86Y-192.24
X200.52Y-106.083
X202.197Y-103.442
X202.705Y-106.337
X204.94Y-65.24
X204.94Y-136.36
X204.94Y-146.52
X204.94Y-187.16
X210.02Y-70.32
X210.02Y-141.44
X210.02Y-182.08
X210.02Y-192.24
X215.1Y-65.24
X215.1Y-136.36
X215.1Y-187.16
X220.18Y-60.16
X220.18Y-70.32
X220.18Y-141.44
X220.18Y-182.08
X220.18Y-192.24
X225.26Y-55.08
X225.26Y-65.24
X225.26Y-136.36
X225.26Y-187.16
X229.832Y-74.13
X230.34Y-60.16
X230.34Y-70.32
X230.34Y-141.44
X230.34Y-182.08
X230.34Y-192.24
X231.102Y-72.606
X232.778Y-103.492
X233.896Y-106.286
X235.014Y-103.442
X235.42Y-55.08
X235.42Y-65.24
X235.42Y-136.36
X235.42Y-187.16
X235.928Y-105.474
X240.5Y-60.16
X240.5Y-70.32
X240.5Y-141.44
X240.5Y-182.08
X240.5Y-192.24
X244.564Y-105.626
X245.58Y-55.08
X245.58Y-75.4
X245.58Y-136.36
X245.58Y-187.16
X246.088Y-103.848
X250.66Y-60.16
X250.66Y-80.48
X250.66Y-121.12
X250.66Y-131.28
X250.66Y-141.44
X250.66Y-182.08
X250.66Y-192.24
X253.454Y-114.262
X254.47Y-112.484
X255.74Y-55.08
X255.74Y-75.4
X255.74Y-85.56
X255.74Y-126.2
X255.74Y-136.36
X255.74Y-146.52
X255.74Y-187.16
X258.534Y-112.484
X259.55Y-114.262
X260.82Y-60.16
X260.82Y-80.48
X260.82Y-121.12
X260.82Y-131.28
X260.82Y-141.44
X260.82Y-151.6
X260.82Y-182.08
X260.82Y-192.24
X265.9Y-55.08
X265.9Y-65.24
X265.9Y-75.4
X265.9Y-85.56
X265.9Y-126.2
X265.9Y-136.36
X265.9Y-146.52
X265.9Y-156.68
X265.9Y-166.84
X265.9Y-177.0
X265.9Y-187.16
X270.98Y-60.16
X270.98Y-70.32
X270.98Y-80.48
X270.98Y-90.64
X270.98Y-110.96
X270.98Y-121.12
X270.98Y-131.28
X270.98Y-141.44
X270.98Y-151.6
X270.98Y-161.76
X270.98Y-171.92
X270.98Y-182.08
X270.98Y-192.24
X276.06Y-65.24
X276.06Y-75.4
X276.06Y-85.56
X276.06Y-95.72
X276.06Y-105.88
X276.06Y-116.04
X276.06Y-126.2
X276.06Y-136.36
X276.06Y-146.52
X276.06Y-156.68
X276.06Y-166.84
X276.06Y-177.0
T2
X136.346Y-71.52
X136.346Y-72.795
X136.346Y-74.07
X137.621Y-71.52
X137.621Y-72.795
X137.621Y-74.07
X138.896Y-71.52
X138.896Y-72.795
X138.896Y-74.07
T4
X98.5Y-53.75
X103.5Y-53.75
X205.2Y-53.75
X210.2Y-53.75
T5
X76.19Y-71.0
X76.19Y-94.876
X78.73Y-71.0
X78.73Y-94.876
X81.27Y-71.0
X81.27Y-94.876
X83.81Y-71.0
X83.81Y-94.876
T6
X67.75Y-59.75
X67.75Y-66.25
X72.25Y-59.75
X72.25Y-66.25
X77.75Y-59.75
X77.75Y-66.25
X82.25Y-59.75
X82.25Y-66.25
X87.75Y-59.75
X87.75Y-66.25
X92.25Y-59.75
X92.25Y-66.25
T7
X66.75Y-116.55
X71.75Y-118.65
X76.75Y-116.55
X95.37Y-116.55
X100.37Y-118.65
X102.22Y-174.27
X105.37Y-116.55
X107.22Y-176.37
X112.22Y-174.27
X120.82Y-130.09
X125.82Y-132.19
X130.82Y-130.09
X133.79Y-182.47
X138.79Y-184.57
X143.79Y-182.47
X145.89Y-147.61
X148.05Y-117.5
X150.89Y-149.71
X153.05Y-119.6
X155.89Y-147.61
X158.05Y-117.5
X172.87Y-136.17
X174.4Y-106.09
X177.54Y-75.55
X177.87Y-138.27
X179.4Y-108.19
X182.54Y-77.65
X182.87Y-136.17
X184.4Y-106.09
X187.54Y-75.55
X199.85Y-124.73
X200.75Y-94.68
X204.85Y-126.83
X205.75Y-96.78
X209.85Y-124.73
X210.75Y-94.68
X229.85Y-90.74
X231.22Y-120.19
X234.85Y-92.84
X236.22Y-122.29
X239.85Y-90.74
X241.22Y-120.19
X257.42Y-104.91
X262.42Y-107.01
X267.42Y-104.91
T8
X97.4Y-56.15
X104.6Y-56.15
X204.1Y-56.15
X211.3Y-56.15
T3
X137.884Y-52.84G85X137.884Y-52.24
G05
X137.884Y-57.27G85X137.884Y-56.17
G05
X146.524Y-52.84G85X146.524Y-52.24
G05
X146.524Y-57.27G85X146.524Y-56.17
G05
T0
M30
