G04 #@! TF.GenerationSoftware,KiCad,Pcbnew,7.0.9*
G04 #@! TF.CreationDate,2023-12-23T20:10:05+09:00*
G04 #@! TF.ProjectId,ergoSHIFT-rev2-kicad,6572676f-5348-4494-9654-2d726576322d,rev?*
G04 #@! TF.SameCoordinates,Original*
G04 #@! TF.FileFunction,Legend,Bot*
G04 #@! TF.FilePolarity,Positive*
%FSLAX46Y46*%
G04 Gerber Fmt 4.6, Leading zero omitted, Abs format (unit mm)*
G04 Created by KiCad (PCBNEW 7.0.9) date 2023-12-23 20:10:05*
%MOMM*%
%LPD*%
G01*
G04 APERTURE LIST*
%ADD10C,0.000000*%
%ADD11C,0.150000*%
%ADD12C,0.100000*%
%ADD13C,0.650000*%
%ADD14O,1.000000X2.100000*%
%ADD15O,1.000000X1.600000*%
%ADD16C,1.524000*%
%ADD17C,1.800000*%
%ADD18C,1.701800*%
%ADD19C,3.000000*%
%ADD20C,3.429000*%
%ADD21R,2.600000X2.600000*%
%ADD22C,2.032000*%
%ADD23C,1.448000*%
%ADD24C,1.500000*%
%ADD25C,2.000000*%
G04 APERTURE END LIST*
D10*
G36*
X80668302Y-176056634D02*
G01*
X80697529Y-176058092D01*
X80722404Y-176059615D01*
X80742927Y-176061202D01*
X80752701Y-176061868D01*
X80763989Y-176062871D01*
X80791107Y-176065891D01*
X80824282Y-176070260D01*
X80863514Y-176075980D01*
X80902184Y-176082518D01*
X80941437Y-176090518D01*
X80981272Y-176099980D01*
X81021689Y-176110904D01*
X81062689Y-176123290D01*
X81104271Y-176137137D01*
X81146435Y-176152447D01*
X81189182Y-176169219D01*
X81232879Y-176187490D01*
X81279069Y-176208055D01*
X81327753Y-176230913D01*
X81378929Y-176256064D01*
X81432599Y-176283508D01*
X81488761Y-176313246D01*
X81547417Y-176345277D01*
X81608566Y-176379602D01*
X81505174Y-176173074D01*
X81829454Y-176222143D01*
X82529394Y-177620274D01*
X82205114Y-177571205D01*
X81708200Y-176578619D01*
X81666366Y-176555063D01*
X81624659Y-176532357D01*
X81583079Y-176510502D01*
X81541626Y-176489497D01*
X81500300Y-176469344D01*
X81459101Y-176450041D01*
X81418028Y-176431588D01*
X81377083Y-176413987D01*
X81336264Y-176397236D01*
X81295886Y-176381961D01*
X81255948Y-176368164D01*
X81216450Y-176355842D01*
X81177392Y-176344997D01*
X81138775Y-176335629D01*
X81100598Y-176327738D01*
X81062862Y-176321323D01*
X81018103Y-176314911D01*
X80997083Y-176312183D01*
X80976969Y-176309772D01*
X80957763Y-176307679D01*
X80939462Y-176305904D01*
X80922069Y-176304446D01*
X80905582Y-176303307D01*
X80888964Y-176302058D01*
X80872356Y-176301027D01*
X80855758Y-176300215D01*
X80839169Y-176299621D01*
X80822591Y-176299245D01*
X80806022Y-176299087D01*
X80789462Y-176299148D01*
X80772913Y-176299427D01*
X80755665Y-176296817D01*
X80634723Y-176055240D01*
X80668302Y-176056634D01*
G37*
G36*
X80704372Y-181641198D02*
G01*
X81872226Y-184714180D01*
X81422905Y-184625887D01*
X80860546Y-183146150D01*
X79392299Y-182857639D01*
X79254259Y-182494411D01*
X80722505Y-182782924D01*
X80393089Y-181916131D01*
X78684296Y-181580352D01*
X78546258Y-181217126D01*
X80704372Y-181641198D01*
G37*
G36*
X88896963Y-179815316D02*
G01*
X89133889Y-179831006D01*
X89378970Y-179858776D01*
X89630846Y-179898888D01*
X89888159Y-179951605D01*
X90016898Y-179982399D01*
X90143439Y-180015606D01*
X90267637Y-180051122D01*
X90389348Y-180088841D01*
X90508426Y-180128659D01*
X90624726Y-180170472D01*
X90738103Y-180214175D01*
X90848411Y-180259663D01*
X90955506Y-180306833D01*
X91059243Y-180355579D01*
X91159476Y-180405797D01*
X91256060Y-180457383D01*
X91348850Y-180510231D01*
X91437701Y-180564238D01*
X91522468Y-180619299D01*
X91603006Y-180675309D01*
X91679169Y-180732164D01*
X91750813Y-180789759D01*
X91817791Y-180847989D01*
X91879960Y-180906751D01*
X91937175Y-180965940D01*
X91989288Y-181025451D01*
X92036157Y-181085179D01*
X92077635Y-181145021D01*
X92113578Y-181204871D01*
X92143840Y-181264625D01*
X92168277Y-181324178D01*
X92186742Y-181383427D01*
X92199092Y-181442266D01*
X92205180Y-181500591D01*
X92204862Y-181558297D01*
X92197993Y-181615280D01*
X92184600Y-181670777D01*
X92164921Y-181724075D01*
X92139128Y-181775140D01*
X92107388Y-181823939D01*
X92069873Y-181870441D01*
X92026751Y-181914611D01*
X91924370Y-181995828D01*
X91801604Y-182067327D01*
X91659812Y-182128846D01*
X91500352Y-182180122D01*
X91324583Y-182220894D01*
X91133865Y-182250898D01*
X90929557Y-182269872D01*
X90713017Y-182277553D01*
X90485605Y-182273680D01*
X90248679Y-182257990D01*
X90003599Y-182230220D01*
X89751722Y-182190108D01*
X89494410Y-182137392D01*
X89365671Y-182106598D01*
X89239130Y-182073390D01*
X89114931Y-182037875D01*
X88993220Y-182000156D01*
X88874142Y-181960338D01*
X88757842Y-181918525D01*
X88644465Y-181874822D01*
X88534157Y-181829333D01*
X88427062Y-181782163D01*
X88323325Y-181733417D01*
X88223092Y-181683199D01*
X88126508Y-181631614D01*
X88033718Y-181578765D01*
X87944867Y-181524758D01*
X87860100Y-181469698D01*
X87779562Y-181413687D01*
X87703399Y-181356833D01*
X87631755Y-181299238D01*
X87564777Y-181241007D01*
X87502608Y-181182245D01*
X87445394Y-181123056D01*
X87393280Y-181063545D01*
X87346411Y-181003817D01*
X87304933Y-180943975D01*
X87268990Y-180884125D01*
X87238728Y-180824372D01*
X87214291Y-180764818D01*
X87195826Y-180705570D01*
X87183477Y-180646731D01*
X87177388Y-180588406D01*
X87177706Y-180530700D01*
X87184576Y-180473718D01*
X87197969Y-180418220D01*
X87217647Y-180364922D01*
X87243441Y-180313857D01*
X87275180Y-180265058D01*
X87312696Y-180218556D01*
X87355817Y-180174386D01*
X87458198Y-180093169D01*
X87580964Y-180021670D01*
X87722757Y-179960151D01*
X87882217Y-179908874D01*
X88057985Y-179868103D01*
X88248703Y-179838099D01*
X88453011Y-179819125D01*
X88669551Y-179811443D01*
X88896963Y-179815316D01*
G37*
G36*
X70329059Y-177158165D02*
G01*
X70430583Y-177161381D01*
X70530185Y-177166779D01*
X70627729Y-177174313D01*
X70723075Y-177183940D01*
X70816086Y-177195615D01*
X70906624Y-177209293D01*
X70994552Y-177224931D01*
X71079731Y-177242484D01*
X71162023Y-177261908D01*
X71241291Y-177283159D01*
X71317396Y-177306192D01*
X71390201Y-177330963D01*
X71459568Y-177357429D01*
X71525358Y-177385543D01*
X71587435Y-177415263D01*
X71645659Y-177446544D01*
X71699893Y-177479342D01*
X71750000Y-177513612D01*
X71795840Y-177549310D01*
X71837278Y-177586393D01*
X71874173Y-177624815D01*
X71906389Y-177664532D01*
X71933787Y-177705500D01*
X71956230Y-177747676D01*
X71973580Y-177791013D01*
X71985699Y-177835469D01*
X71992449Y-177880999D01*
X71993688Y-177927010D01*
X71989454Y-177972894D01*
X71979873Y-178018582D01*
X71965075Y-178064007D01*
X71945188Y-178109102D01*
X71920339Y-178153800D01*
X71856270Y-178241732D01*
X71773894Y-178327263D01*
X71674235Y-178409853D01*
X71558320Y-178488963D01*
X71427173Y-178564052D01*
X71281820Y-178634581D01*
X71123286Y-178700009D01*
X70952597Y-178759796D01*
X70770777Y-178813403D01*
X70578852Y-178860290D01*
X70377847Y-178899916D01*
X70168788Y-178931742D01*
X69952699Y-178955227D01*
X69843639Y-178963578D01*
X69735810Y-178969528D01*
X69629350Y-178973119D01*
X69524398Y-178974397D01*
X69421091Y-178973405D01*
X69319568Y-178970188D01*
X69219966Y-178964791D01*
X69122422Y-178957256D01*
X69027076Y-178947630D01*
X68934065Y-178935955D01*
X68843527Y-178922277D01*
X68755599Y-178906639D01*
X68670420Y-178889085D01*
X68588128Y-178869661D01*
X68508860Y-178848410D01*
X68432754Y-178825377D01*
X68359949Y-178800606D01*
X68290583Y-178774141D01*
X68224792Y-178746026D01*
X68162716Y-178716306D01*
X68104491Y-178685025D01*
X68050257Y-178652227D01*
X68000150Y-178617957D01*
X67954309Y-178582258D01*
X67912872Y-178545176D01*
X67875976Y-178506754D01*
X67843760Y-178467037D01*
X67816362Y-178426068D01*
X67793918Y-178383893D01*
X67776568Y-178340555D01*
X67764449Y-178296099D01*
X67757700Y-178250569D01*
X67756460Y-178204558D01*
X67760695Y-178158675D01*
X67770276Y-178112987D01*
X67785074Y-178067562D01*
X67804961Y-178022467D01*
X67829810Y-177977769D01*
X67893880Y-177889838D01*
X67976256Y-177804306D01*
X68075915Y-177721716D01*
X68191830Y-177642606D01*
X68322977Y-177567517D01*
X68468330Y-177496989D01*
X68626864Y-177431561D01*
X68797554Y-177371773D01*
X68979374Y-177318166D01*
X69171299Y-177271280D01*
X69372304Y-177231654D01*
X69581363Y-177199828D01*
X69797451Y-177176343D01*
X69906512Y-177167991D01*
X70014341Y-177162042D01*
X70120800Y-177158451D01*
X70225753Y-177157173D01*
X70329059Y-177158165D01*
G37*
G36*
X83692338Y-178651347D02*
G01*
X83918732Y-178671940D01*
X84149991Y-178703645D01*
X84265685Y-178723523D01*
X84379399Y-178745733D01*
X84491002Y-178770187D01*
X84600363Y-178796801D01*
X84707353Y-178825488D01*
X84811842Y-178856163D01*
X84913698Y-178888740D01*
X85012792Y-178923132D01*
X85108993Y-178959255D01*
X85202171Y-178997021D01*
X85292197Y-179036346D01*
X85378938Y-179077143D01*
X85462266Y-179119327D01*
X85542050Y-179162811D01*
X85618159Y-179207510D01*
X85690464Y-179253339D01*
X85758834Y-179300210D01*
X85823138Y-179348039D01*
X85883248Y-179396739D01*
X85939031Y-179446225D01*
X85990358Y-179496410D01*
X86037099Y-179547209D01*
X86079123Y-179598537D01*
X86116300Y-179650306D01*
X86148500Y-179702432D01*
X86175592Y-179754828D01*
X86197447Y-179807409D01*
X86213933Y-179860088D01*
X86224921Y-179912781D01*
X86230280Y-179965400D01*
X86229881Y-180017861D01*
X86223592Y-180070077D01*
X86211440Y-180121354D01*
X86193641Y-180171027D01*
X86170348Y-180219057D01*
X86141713Y-180265402D01*
X86107890Y-180310023D01*
X86069030Y-180352878D01*
X85976815Y-180433130D01*
X85866289Y-180505836D01*
X85738675Y-180570669D01*
X85595196Y-180627307D01*
X85437074Y-180675426D01*
X85265531Y-180714700D01*
X85081790Y-180744807D01*
X84887074Y-180765423D01*
X84682605Y-180776222D01*
X84469604Y-180776881D01*
X84249296Y-180767077D01*
X84022901Y-180746484D01*
X83791643Y-180714779D01*
X83675948Y-180694901D01*
X83562234Y-180672691D01*
X83450631Y-180648237D01*
X83341270Y-180621623D01*
X83234279Y-180592936D01*
X83129791Y-180562261D01*
X83027934Y-180529684D01*
X82928840Y-180495292D01*
X82832639Y-180459170D01*
X82739460Y-180421403D01*
X82649435Y-180382079D01*
X82562693Y-180341282D01*
X82479365Y-180299098D01*
X82399581Y-180255613D01*
X82323472Y-180210914D01*
X82251167Y-180165086D01*
X82182797Y-180118214D01*
X82118492Y-180070386D01*
X82058383Y-180021686D01*
X82002600Y-179972200D01*
X81951273Y-179922014D01*
X81904532Y-179871215D01*
X81862508Y-179819888D01*
X81825331Y-179768118D01*
X81793131Y-179715993D01*
X81766039Y-179663596D01*
X81744184Y-179611016D01*
X81727698Y-179558336D01*
X81716710Y-179505644D01*
X81711351Y-179453024D01*
X81711751Y-179400563D01*
X81718040Y-179348348D01*
X81730192Y-179297071D01*
X81747991Y-179247397D01*
X81771284Y-179199367D01*
X81799918Y-179153022D01*
X81833742Y-179108401D01*
X81872601Y-179065546D01*
X81964817Y-178985294D01*
X82075343Y-178912589D01*
X82202957Y-178847755D01*
X82346436Y-178791117D01*
X82504558Y-178742999D01*
X82676101Y-178703724D01*
X82859842Y-178673617D01*
X83054558Y-178653002D01*
X83259028Y-178642202D01*
X83472029Y-178641543D01*
X83692338Y-178651347D01*
G37*
G36*
X72879169Y-175670205D02*
G01*
X72968406Y-175672930D01*
X73056130Y-175677283D01*
X73142227Y-175683225D01*
X73226583Y-175690721D01*
X73309081Y-175699731D01*
X73389606Y-175710218D01*
X73468045Y-175722144D01*
X73544282Y-175735472D01*
X73618202Y-175750163D01*
X73689690Y-175766181D01*
X73758631Y-175783487D01*
X73824911Y-175802044D01*
X73888414Y-175821814D01*
X73949025Y-175842760D01*
X74006629Y-175864843D01*
X74061112Y-175888026D01*
X74112358Y-175912271D01*
X74160253Y-175937540D01*
X74204682Y-175963796D01*
X74245529Y-175991002D01*
X74282679Y-176019118D01*
X74316019Y-176048108D01*
X74345432Y-176077935D01*
X74370804Y-176108559D01*
X74392020Y-176139944D01*
X74408965Y-176172052D01*
X74421524Y-176204844D01*
X74429581Y-176238285D01*
X74433023Y-176272334D01*
X74431759Y-176306549D01*
X74425850Y-176340476D01*
X74415410Y-176374072D01*
X74400549Y-176407289D01*
X74381381Y-176440084D01*
X74358017Y-176472409D01*
X74299153Y-176535470D01*
X74224854Y-176596108D01*
X74136020Y-176653956D01*
X74033549Y-176708650D01*
X73918339Y-176759826D01*
X73791289Y-176807116D01*
X73653296Y-176850158D01*
X73505259Y-176888585D01*
X73348077Y-176922032D01*
X73182647Y-176950135D01*
X73009868Y-176972527D01*
X72830638Y-176988845D01*
X72645857Y-176998722D01*
X72552773Y-177001107D01*
X72460857Y-177001751D01*
X72370223Y-177000692D01*
X72280986Y-176997967D01*
X72193261Y-176993614D01*
X72107164Y-176987671D01*
X72022809Y-176980176D01*
X71940311Y-176971166D01*
X71859785Y-176960679D01*
X71781347Y-176948752D01*
X71705110Y-176935425D01*
X71631190Y-176920733D01*
X71559702Y-176904715D01*
X71490760Y-176887409D01*
X71424481Y-176868852D01*
X71360978Y-176849082D01*
X71300367Y-176828137D01*
X71242762Y-176806054D01*
X71188280Y-176782871D01*
X71137033Y-176758626D01*
X71089138Y-176733356D01*
X71044710Y-176707100D01*
X71003863Y-176679895D01*
X70966712Y-176651778D01*
X70933372Y-176622788D01*
X70903959Y-176592962D01*
X70878587Y-176562337D01*
X70857371Y-176530952D01*
X70840426Y-176498845D01*
X70827868Y-176466052D01*
X70819810Y-176432612D01*
X70816368Y-176398562D01*
X70817632Y-176364348D01*
X70823541Y-176330420D01*
X70833981Y-176296825D01*
X70848842Y-176263607D01*
X70868011Y-176230812D01*
X70891374Y-176198487D01*
X70950239Y-176135426D01*
X71024537Y-176074789D01*
X71113371Y-176016940D01*
X71215842Y-175962246D01*
X71331052Y-175911071D01*
X71458103Y-175863780D01*
X71596096Y-175820738D01*
X71744133Y-175782311D01*
X71901315Y-175748864D01*
X72066745Y-175720762D01*
X72239524Y-175698369D01*
X72418753Y-175682051D01*
X72603534Y-175672174D01*
X72696618Y-175669789D01*
X72788535Y-175669145D01*
X72879169Y-175670205D01*
G37*
G36*
X75341637Y-176937011D02*
G01*
X75441951Y-176940215D01*
X75540807Y-176945491D01*
X75638080Y-176952786D01*
X75733646Y-176962050D01*
X75827382Y-176973229D01*
X75919162Y-176986272D01*
X76008864Y-177001127D01*
X76096362Y-177017740D01*
X76181533Y-177036061D01*
X76264253Y-177056037D01*
X76344397Y-177077616D01*
X76421841Y-177100746D01*
X76496462Y-177125375D01*
X76568135Y-177151450D01*
X76636736Y-177178920D01*
X76702140Y-177207731D01*
X76764225Y-177237834D01*
X76822865Y-177269174D01*
X76877937Y-177301700D01*
X76929316Y-177335360D01*
X76976879Y-177370102D01*
X77020501Y-177405873D01*
X77060058Y-177442622D01*
X77095426Y-177480296D01*
X77126481Y-177518843D01*
X77153099Y-177558212D01*
X77175156Y-177598349D01*
X77192527Y-177639203D01*
X77205089Y-177680722D01*
X77212717Y-177722853D01*
X77215287Y-177765545D01*
X77212717Y-177808237D01*
X77205089Y-177850368D01*
X77192527Y-177891887D01*
X77175156Y-177932741D01*
X77153099Y-177972878D01*
X77126481Y-178012247D01*
X77060058Y-178088468D01*
X76976879Y-178160988D01*
X76877937Y-178229390D01*
X76764225Y-178293257D01*
X76636736Y-178352171D01*
X76496462Y-178405716D01*
X76344397Y-178453474D01*
X76181533Y-178495029D01*
X76008864Y-178529964D01*
X75827382Y-178557862D01*
X75638080Y-178578305D01*
X75441951Y-178590876D01*
X75239988Y-178595159D01*
X75138339Y-178594080D01*
X75038025Y-178590876D01*
X74939169Y-178585600D01*
X74841896Y-178578305D01*
X74746329Y-178569041D01*
X74652594Y-178557862D01*
X74560813Y-178544819D01*
X74471112Y-178529964D01*
X74383613Y-178513350D01*
X74298442Y-178495029D01*
X74215723Y-178475053D01*
X74135579Y-178453474D01*
X74058134Y-178430344D01*
X73983513Y-178405716D01*
X73911841Y-178379641D01*
X73843240Y-178352171D01*
X73777835Y-178323359D01*
X73715750Y-178293257D01*
X73657110Y-178261916D01*
X73602038Y-178229390D01*
X73550659Y-178195730D01*
X73503096Y-178160988D01*
X73459474Y-178125217D01*
X73419917Y-178088468D01*
X73384549Y-178050794D01*
X73353494Y-178012247D01*
X73326876Y-177972878D01*
X73304819Y-177932741D01*
X73287448Y-177891887D01*
X73274886Y-177850368D01*
X73267258Y-177808237D01*
X73264688Y-177765545D01*
X73267258Y-177722853D01*
X73274886Y-177680722D01*
X73287448Y-177639203D01*
X73304819Y-177598349D01*
X73326876Y-177558212D01*
X73353494Y-177518843D01*
X73419917Y-177442622D01*
X73503096Y-177370102D01*
X73602038Y-177301700D01*
X73715750Y-177237834D01*
X73843240Y-177178920D01*
X73983513Y-177125375D01*
X74135579Y-177077616D01*
X74298442Y-177036061D01*
X74471112Y-177001127D01*
X74652594Y-176973229D01*
X74841896Y-176952786D01*
X75038025Y-176940215D01*
X75239988Y-176935932D01*
X75341637Y-176937011D01*
G37*
G36*
X84298640Y-177064054D02*
G01*
X84326647Y-177103319D01*
X84353201Y-177143385D01*
X84378299Y-177184253D01*
X84401943Y-177225921D01*
X84424133Y-177268391D01*
X84444470Y-177310955D01*
X84462088Y-177351969D01*
X84476988Y-177391433D01*
X84483418Y-177410584D01*
X84489168Y-177429347D01*
X84494238Y-177447722D01*
X84498629Y-177465710D01*
X84502340Y-177483311D01*
X84505371Y-177500523D01*
X84507723Y-177517349D01*
X84509394Y-177533786D01*
X84510386Y-177549837D01*
X84510698Y-177565499D01*
X84510331Y-177580774D01*
X84509283Y-177595662D01*
X84507556Y-177610162D01*
X84505149Y-177624274D01*
X84502063Y-177637999D01*
X84498296Y-177651336D01*
X84493850Y-177664286D01*
X84488724Y-177676848D01*
X84482918Y-177689023D01*
X84476433Y-177700810D01*
X84469268Y-177712210D01*
X84461422Y-177723222D01*
X84452898Y-177733846D01*
X84443693Y-177744083D01*
X84433809Y-177753933D01*
X84423245Y-177763394D01*
X84400169Y-177780916D01*
X84374715Y-177796722D01*
X84346883Y-177810812D01*
X84316673Y-177823187D01*
X84284084Y-177833847D01*
X84249117Y-177842790D01*
X84211771Y-177850019D01*
X84172047Y-177855531D01*
X84129945Y-177859328D01*
X84085465Y-177861410D01*
X84038606Y-177861776D01*
X83989369Y-177860426D01*
X83937754Y-177857361D01*
X83883760Y-177852580D01*
X83827388Y-177846083D01*
X83768637Y-177837871D01*
X83721639Y-177830272D01*
X83674651Y-177821698D01*
X83627674Y-177812149D01*
X83580707Y-177801626D01*
X83533750Y-177790128D01*
X83486803Y-177777656D01*
X83439867Y-177764209D01*
X83392940Y-177749787D01*
X83299022Y-177719019D01*
X83204946Y-177686346D01*
X83110716Y-177651770D01*
X83016330Y-177615290D01*
X82887871Y-177358694D01*
X82905119Y-177361304D01*
X82934966Y-177378583D01*
X82968465Y-177396485D01*
X83005614Y-177415013D01*
X83046413Y-177434165D01*
X83090864Y-177453942D01*
X83138965Y-177474344D01*
X83190717Y-177495370D01*
X83246120Y-177517021D01*
X83302294Y-177537722D01*
X83357532Y-177556655D01*
X83411834Y-177573820D01*
X83465202Y-177589216D01*
X83517634Y-177602843D01*
X83569132Y-177614703D01*
X83619694Y-177624794D01*
X83669321Y-177633117D01*
X83705793Y-177638202D01*
X83741041Y-177642233D01*
X83775064Y-177645213D01*
X83807863Y-177647139D01*
X83839437Y-177648012D01*
X83869787Y-177647833D01*
X83898912Y-177646600D01*
X83926813Y-177644315D01*
X83940055Y-177642739D01*
X83952923Y-177640891D01*
X83965418Y-177638768D01*
X83977540Y-177636373D01*
X83989287Y-177633704D01*
X84000661Y-177630761D01*
X84011662Y-177627545D01*
X84022289Y-177624056D01*
X84032542Y-177620293D01*
X84042422Y-177616256D01*
X84051928Y-177611947D01*
X84061061Y-177607364D01*
X84069820Y-177602507D01*
X84078206Y-177597377D01*
X84086218Y-177591973D01*
X84093857Y-177586296D01*
X84101441Y-177580236D01*
X84108583Y-177573865D01*
X84115282Y-177567183D01*
X84121540Y-177560190D01*
X84127356Y-177552886D01*
X84132729Y-177545271D01*
X84137660Y-177537346D01*
X84142149Y-177529109D01*
X84146196Y-177520561D01*
X84149801Y-177511703D01*
X84152963Y-177502533D01*
X84155684Y-177493053D01*
X84157962Y-177483261D01*
X84159798Y-177473159D01*
X84161192Y-177462746D01*
X84162143Y-177452022D01*
X84162524Y-177440827D01*
X84162359Y-177429314D01*
X84161650Y-177417485D01*
X84160395Y-177405337D01*
X84158595Y-177392873D01*
X84156250Y-177380090D01*
X84153361Y-177366991D01*
X84149926Y-177353574D01*
X84145946Y-177339839D01*
X84141420Y-177325787D01*
X84136350Y-177311418D01*
X84130735Y-177296731D01*
X84124575Y-177281727D01*
X84117870Y-177266405D01*
X84110619Y-177250766D01*
X84102824Y-177234809D01*
X82683239Y-177020004D01*
X82619323Y-176892331D01*
X82601390Y-176854980D01*
X82585657Y-176818964D01*
X82572126Y-176784285D01*
X82560795Y-176750942D01*
X82551665Y-176718936D01*
X82550092Y-176711974D01*
X82859388Y-176711974D01*
X82859615Y-176728263D01*
X82861154Y-176745357D01*
X82864005Y-176763254D01*
X82868168Y-176781955D01*
X82873642Y-176801461D01*
X82880428Y-176821770D01*
X82888527Y-176842884D01*
X82897937Y-176864801D01*
X82908659Y-176887523D01*
X84012590Y-177054566D01*
X83999250Y-177033653D01*
X83985082Y-177013005D01*
X83970088Y-176992619D01*
X83954266Y-176972497D01*
X83937618Y-176952638D01*
X83920142Y-176933043D01*
X83901839Y-176913712D01*
X83882709Y-176894643D01*
X83862752Y-176875839D01*
X83841968Y-176857297D01*
X83820356Y-176839020D01*
X83797918Y-176821005D01*
X83774652Y-176803254D01*
X83750559Y-176785767D01*
X83725639Y-176768543D01*
X83699892Y-176751582D01*
X83673322Y-176735094D01*
X83646366Y-176719352D01*
X83619024Y-176704355D01*
X83591296Y-176690104D01*
X83563181Y-176676600D01*
X83534680Y-176663841D01*
X83505793Y-176651828D01*
X83476520Y-176640562D01*
X83446860Y-176630041D01*
X83416814Y-176620266D01*
X83386381Y-176611237D01*
X83355562Y-176602954D01*
X83324357Y-176595416D01*
X83292766Y-176588625D01*
X83260788Y-176582580D01*
X83228424Y-176577280D01*
X83196799Y-176572861D01*
X83166609Y-176569391D01*
X83137852Y-176566870D01*
X83110530Y-176565297D01*
X83084642Y-176564675D01*
X83060187Y-176565001D01*
X83037168Y-176566276D01*
X83015582Y-176568500D01*
X82995430Y-176571674D01*
X82976713Y-176575796D01*
X82967892Y-176578213D01*
X82959430Y-176580868D01*
X82951326Y-176583760D01*
X82943581Y-176586888D01*
X82936194Y-176590255D01*
X82929166Y-176593858D01*
X82922496Y-176597699D01*
X82916185Y-176601777D01*
X82910233Y-176606092D01*
X82904639Y-176610645D01*
X82899404Y-176615435D01*
X82894527Y-176620462D01*
X82885572Y-176631123D01*
X82877929Y-176642588D01*
X82871597Y-176654857D01*
X82866577Y-176667930D01*
X82862869Y-176681808D01*
X82860473Y-176696489D01*
X82859388Y-176711974D01*
X82550092Y-176711974D01*
X82544737Y-176688265D01*
X82542098Y-176673431D01*
X82540009Y-176658931D01*
X82538470Y-176644765D01*
X82537482Y-176630933D01*
X82537044Y-176617435D01*
X82537156Y-176604271D01*
X82537818Y-176591441D01*
X82539031Y-176578946D01*
X82540794Y-176566784D01*
X82543107Y-176554957D01*
X82545970Y-176543463D01*
X82549384Y-176532304D01*
X82553348Y-176521478D01*
X82557862Y-176510987D01*
X82562926Y-176500830D01*
X82568540Y-176491007D01*
X82574705Y-176481518D01*
X82581420Y-176472362D01*
X82588685Y-176463542D01*
X82596500Y-176455055D01*
X82613489Y-176439133D01*
X82632526Y-176424715D01*
X82653611Y-176411800D01*
X82676743Y-176400387D01*
X82701923Y-176390478D01*
X82729150Y-176382071D01*
X82758426Y-176375167D01*
X82789749Y-176369766D01*
X82823119Y-176365868D01*
X82858538Y-176363473D01*
X82896004Y-176362580D01*
X82935517Y-176363191D01*
X82977078Y-176365304D01*
X83020687Y-176368920D01*
X83066344Y-176374039D01*
X83114048Y-176380661D01*
X83166418Y-176389313D01*
X83218309Y-176399348D01*
X83269722Y-176410765D01*
X83320656Y-176423565D01*
X83371112Y-176437748D01*
X83421090Y-176453314D01*
X83470588Y-176470262D01*
X83519609Y-176488593D01*
X83568150Y-176508306D01*
X83616213Y-176529403D01*
X83663798Y-176551882D01*
X83710904Y-176575744D01*
X83757531Y-176600988D01*
X83803680Y-176627615D01*
X83849350Y-176655625D01*
X83894541Y-176685018D01*
X83938551Y-176715470D01*
X83981106Y-176746723D01*
X84022207Y-176778778D01*
X84061852Y-176811633D01*
X84100043Y-176845290D01*
X84136780Y-176879748D01*
X84172061Y-176915007D01*
X84205888Y-176951067D01*
X84238260Y-176987928D01*
X84269177Y-177025591D01*
X84291371Y-177054566D01*
X84298640Y-177064054D01*
G37*
G36*
X78691942Y-176612232D02*
G01*
X78697490Y-176645794D01*
X78699351Y-176662047D01*
X78700603Y-176677948D01*
X78701246Y-176693497D01*
X78701280Y-176708693D01*
X78700704Y-176723538D01*
X78699520Y-176738031D01*
X78697727Y-176752172D01*
X78695324Y-176765961D01*
X78692313Y-176779398D01*
X78688693Y-176792482D01*
X78684463Y-176805215D01*
X78679625Y-176817596D01*
X78674177Y-176829625D01*
X78668121Y-176841302D01*
X78661455Y-176852627D01*
X78654181Y-176863600D01*
X78646297Y-176874221D01*
X78637805Y-176884489D01*
X78618955Y-176903771D01*
X78598024Y-176921310D01*
X78575013Y-176937106D01*
X78549921Y-176951160D01*
X78522748Y-176963470D01*
X78493495Y-176974038D01*
X78462161Y-176982863D01*
X78428746Y-176989944D01*
X78393251Y-176995284D01*
X78355675Y-176998880D01*
X78316019Y-177000733D01*
X78274282Y-177000844D01*
X78230464Y-176999211D01*
X78184566Y-176995836D01*
X78136587Y-176990718D01*
X78086528Y-176983858D01*
X78036112Y-176975515D01*
X77986204Y-176965821D01*
X77936802Y-176954775D01*
X77887906Y-176942378D01*
X77839518Y-176928630D01*
X77791636Y-176913531D01*
X77744261Y-176897080D01*
X77697392Y-176879278D01*
X77651031Y-176860125D01*
X77605176Y-176839620D01*
X77559827Y-176817764D01*
X77514986Y-176794557D01*
X77470651Y-176769999D01*
X77426822Y-176744089D01*
X77383501Y-176716827D01*
X77340686Y-176688215D01*
X77298786Y-176658507D01*
X77258210Y-176627960D01*
X77218957Y-176596574D01*
X77181029Y-176564349D01*
X77144424Y-176531285D01*
X77109142Y-176497381D01*
X77075184Y-176462639D01*
X77042550Y-176427058D01*
X77011240Y-176390637D01*
X76981253Y-176353378D01*
X76952590Y-176315279D01*
X76925250Y-176276341D01*
X76899234Y-176236564D01*
X76874541Y-176195948D01*
X76851172Y-176154493D01*
X76829127Y-176112199D01*
X76808968Y-176070190D01*
X76791259Y-176029591D01*
X76775999Y-175990403D01*
X76763189Y-175952624D01*
X76752828Y-175916255D01*
X76746149Y-175886742D01*
X77078470Y-175886742D01*
X77079377Y-175908643D01*
X77081978Y-175931812D01*
X77086272Y-175956250D01*
X77092260Y-175981956D01*
X77099941Y-176008931D01*
X77109317Y-176037175D01*
X77120386Y-176066687D01*
X77133149Y-176097467D01*
X77147606Y-176129516D01*
X77163756Y-176162834D01*
X77180687Y-176195582D01*
X77198267Y-176227490D01*
X77216497Y-176258555D01*
X77235377Y-176288779D01*
X77254907Y-176318161D01*
X77275086Y-176346702D01*
X77295915Y-176374401D01*
X77317394Y-176401258D01*
X77339523Y-176427274D01*
X77362302Y-176452448D01*
X77385730Y-176476781D01*
X77409808Y-176500272D01*
X77434536Y-176522921D01*
X77459913Y-176544728D01*
X77485941Y-176565694D01*
X77512618Y-176585819D01*
X77539502Y-176604876D01*
X77566738Y-176623020D01*
X77594326Y-176640250D01*
X77622267Y-176656566D01*
X77650559Y-176671969D01*
X77679203Y-176686457D01*
X77708200Y-176700032D01*
X77737549Y-176712693D01*
X77767250Y-176724441D01*
X77797303Y-176735274D01*
X77827708Y-176745194D01*
X77858465Y-176754200D01*
X77889574Y-176762292D01*
X77921035Y-176769470D01*
X77952849Y-176775735D01*
X77985015Y-176781085D01*
X78017072Y-176785448D01*
X78047697Y-176788618D01*
X78076891Y-176790595D01*
X78104653Y-176791379D01*
X78130984Y-176790971D01*
X78155883Y-176789370D01*
X78167796Y-176788122D01*
X78179350Y-176786576D01*
X78190547Y-176784732D01*
X78201386Y-176782590D01*
X78211868Y-176780149D01*
X78221991Y-176777411D01*
X78231756Y-176774374D01*
X78241164Y-176771039D01*
X78250213Y-176767406D01*
X78258905Y-176763474D01*
X78267239Y-176759245D01*
X78275215Y-176754717D01*
X78282833Y-176749891D01*
X78290093Y-176744767D01*
X78296995Y-176739345D01*
X78303540Y-176733624D01*
X78309726Y-176727605D01*
X78315555Y-176721289D01*
X78321025Y-176714673D01*
X78326138Y-176707760D01*
X78335107Y-176692899D01*
X78342437Y-176676876D01*
X78348126Y-176659693D01*
X78352176Y-176641349D01*
X78354585Y-176621844D01*
X78355355Y-176601177D01*
X78354485Y-176579350D01*
X78351975Y-176556362D01*
X78347826Y-176532213D01*
X78342036Y-176506902D01*
X78334607Y-176480431D01*
X78325537Y-176452799D01*
X78314828Y-176424006D01*
X78302479Y-176394051D01*
X78288489Y-176362936D01*
X78272860Y-176330659D01*
X78255571Y-176297169D01*
X78237698Y-176264604D01*
X78219242Y-176232961D01*
X78200202Y-176202243D01*
X78180578Y-176172449D01*
X78160371Y-176143579D01*
X78139580Y-176115632D01*
X78118206Y-176088610D01*
X78096248Y-176062512D01*
X78073706Y-176037337D01*
X78050580Y-176013086D01*
X78026871Y-175989760D01*
X78002578Y-175967357D01*
X77977702Y-175945878D01*
X77952242Y-175925323D01*
X77926198Y-175905692D01*
X77899369Y-175886784D01*
X77872143Y-175868773D01*
X77844520Y-175851660D01*
X77816499Y-175835444D01*
X77788081Y-175820127D01*
X77759265Y-175805707D01*
X77730052Y-175792186D01*
X77700442Y-175779562D01*
X77670434Y-175767836D01*
X77640028Y-175757008D01*
X77609226Y-175747078D01*
X77578025Y-175738045D01*
X77546428Y-175729911D01*
X77514432Y-175722674D01*
X77482040Y-175716336D01*
X77449250Y-175710895D01*
X77417397Y-175706554D01*
X77386952Y-175703385D01*
X77357915Y-175701386D01*
X77330287Y-175700559D01*
X77304067Y-175700903D01*
X77279256Y-175702417D01*
X77255853Y-175705103D01*
X77244679Y-175706886D01*
X77233858Y-175708961D01*
X77223388Y-175711328D01*
X77213271Y-175713989D01*
X77203506Y-175716942D01*
X77194093Y-175720188D01*
X77185032Y-175723727D01*
X77176323Y-175727558D01*
X77167966Y-175731683D01*
X77159961Y-175736100D01*
X77152308Y-175740810D01*
X77145008Y-175745812D01*
X77138059Y-175751108D01*
X77131463Y-175756696D01*
X77125218Y-175762577D01*
X77119326Y-175768751D01*
X77113786Y-175775217D01*
X77108597Y-175781976D01*
X77099342Y-175796266D01*
X77091780Y-175811824D01*
X77085912Y-175828651D01*
X77081738Y-175846746D01*
X77079257Y-175866109D01*
X77078470Y-175886742D01*
X76746149Y-175886742D01*
X76744917Y-175881296D01*
X76739456Y-175847748D01*
X76737644Y-175831502D01*
X76736444Y-175815609D01*
X76735857Y-175800069D01*
X76735882Y-175784881D01*
X76736519Y-175770045D01*
X76737769Y-175755562D01*
X76739631Y-175741432D01*
X76742106Y-175727654D01*
X76745193Y-175714229D01*
X76748893Y-175701156D01*
X76753204Y-175688435D01*
X76758129Y-175676067D01*
X76763665Y-175664052D01*
X76769814Y-175652389D01*
X76776575Y-175641078D01*
X76783949Y-175630120D01*
X76791935Y-175619515D01*
X76800534Y-175609262D01*
X76819295Y-175589827D01*
X76840115Y-175572140D01*
X76862993Y-175556202D01*
X76887930Y-175542013D01*
X76914925Y-175529572D01*
X76943979Y-175518879D01*
X76975091Y-175509935D01*
X77008262Y-175502740D01*
X77043491Y-175497293D01*
X77080779Y-175493594D01*
X77120126Y-175491644D01*
X77161531Y-175491443D01*
X77204995Y-175492990D01*
X77250517Y-175496286D01*
X77298098Y-175501330D01*
X77347737Y-175508123D01*
X77398573Y-175516534D01*
X77448879Y-175526301D01*
X77498658Y-175537426D01*
X77547907Y-175549908D01*
X77596627Y-175563747D01*
X77644819Y-175578943D01*
X77692482Y-175595496D01*
X77739616Y-175613406D01*
X77786221Y-175632673D01*
X77832298Y-175653297D01*
X77877846Y-175675278D01*
X77922865Y-175698616D01*
X77967355Y-175723311D01*
X78011316Y-175749363D01*
X78054749Y-175776772D01*
X78097653Y-175805538D01*
X78139344Y-175835214D01*
X78179725Y-175865731D01*
X78218796Y-175897090D01*
X78256557Y-175929290D01*
X78293007Y-175962331D01*
X78328148Y-175996213D01*
X78361978Y-176030936D01*
X78394498Y-176066500D01*
X78425707Y-176102906D01*
X78455607Y-176140152D01*
X78484196Y-176178240D01*
X78511476Y-176217169D01*
X78537445Y-176256939D01*
X78562104Y-176297549D01*
X78585453Y-176339001D01*
X78607491Y-176381295D01*
X78627656Y-176423304D01*
X78645386Y-176463906D01*
X78660679Y-176503100D01*
X78673536Y-176540885D01*
X78683957Y-176577263D01*
X78689417Y-176601177D01*
X78691942Y-176612232D01*
G37*
G36*
X78419167Y-181192153D02*
G01*
X78557210Y-181555381D01*
X77349934Y-181318151D01*
X78379748Y-184027906D01*
X77930426Y-183939613D01*
X76900613Y-181229857D01*
X75693338Y-180992627D01*
X75555296Y-180629400D01*
X78419167Y-181192153D01*
G37*
G36*
X78609948Y-178628013D02*
G01*
X78724405Y-178634962D01*
X78837227Y-178644545D01*
X78948278Y-178656689D01*
X79057420Y-178671321D01*
X79164517Y-178688368D01*
X79269432Y-178707757D01*
X79372029Y-178729414D01*
X79472172Y-178753266D01*
X79569723Y-178779240D01*
X79664546Y-178807262D01*
X79756504Y-178837260D01*
X79845462Y-178869160D01*
X79931281Y-178902888D01*
X80013826Y-178938373D01*
X80092960Y-178975539D01*
X80168547Y-179014315D01*
X80240449Y-179054627D01*
X80308531Y-179096401D01*
X80372655Y-179139564D01*
X80432686Y-179184044D01*
X80488485Y-179229766D01*
X80539918Y-179276658D01*
X80586846Y-179324647D01*
X80629135Y-179373658D01*
X80666646Y-179423620D01*
X80699244Y-179474458D01*
X80726792Y-179526099D01*
X80749153Y-179578470D01*
X80766190Y-179631499D01*
X80777768Y-179685111D01*
X80783749Y-179739233D01*
X80783996Y-179793793D01*
X80778453Y-179848070D01*
X80767245Y-179901356D01*
X80750517Y-179953591D01*
X80728412Y-180004715D01*
X80701072Y-180054668D01*
X80668641Y-180103391D01*
X80631262Y-180150824D01*
X80589077Y-180196907D01*
X80490864Y-180284788D01*
X80375147Y-180366554D01*
X80243070Y-180441730D01*
X80095778Y-180509838D01*
X79934415Y-180570401D01*
X79760126Y-180622942D01*
X79574055Y-180666983D01*
X79377348Y-180702048D01*
X79171148Y-180727660D01*
X78956599Y-180743341D01*
X78734848Y-180748614D01*
X78507037Y-180743002D01*
X78392580Y-180736054D01*
X78279758Y-180726471D01*
X78168707Y-180714327D01*
X78059565Y-180699695D01*
X77952468Y-180682648D01*
X77847553Y-180663259D01*
X77744956Y-180641602D01*
X77644813Y-180617750D01*
X77547262Y-180591777D01*
X77452439Y-180563754D01*
X77360481Y-180533756D01*
X77271523Y-180501857D01*
X77185704Y-180468128D01*
X77103158Y-180432644D01*
X77024024Y-180395477D01*
X76948437Y-180356701D01*
X76876535Y-180316390D01*
X76808453Y-180274616D01*
X76744329Y-180231452D01*
X76684298Y-180186973D01*
X76628499Y-180141250D01*
X76577066Y-180094358D01*
X76530137Y-180046370D01*
X76487848Y-179997359D01*
X76450337Y-179947397D01*
X76417739Y-179896559D01*
X76390191Y-179844918D01*
X76367830Y-179792546D01*
X76350792Y-179739518D01*
X76339215Y-179685906D01*
X76333234Y-179631784D01*
X76332986Y-179577225D01*
X76338529Y-179522947D01*
X76349737Y-179469661D01*
X76366465Y-179417426D01*
X76388571Y-179366302D01*
X76415911Y-179316349D01*
X76448342Y-179267626D01*
X76485722Y-179220193D01*
X76527906Y-179174109D01*
X76626120Y-179086229D01*
X76741837Y-179004462D01*
X76873914Y-178929286D01*
X77021207Y-178861178D01*
X77182570Y-178800615D01*
X77356859Y-178748074D01*
X77542929Y-178704033D01*
X77739637Y-178668967D01*
X77945837Y-178643356D01*
X78160386Y-178627675D01*
X78382137Y-178622402D01*
X78609948Y-178628013D01*
G37*
G36*
X80882936Y-176921877D02*
G01*
X80889534Y-176953976D01*
X80893977Y-176984681D01*
X80896266Y-177013995D01*
X80896602Y-177028129D01*
X80896400Y-177041915D01*
X80895660Y-177055353D01*
X80894380Y-177068444D01*
X80892562Y-177081185D01*
X80890206Y-177093579D01*
X80887311Y-177105625D01*
X80883877Y-177117322D01*
X80879905Y-177128672D01*
X80875394Y-177139673D01*
X80870345Y-177150326D01*
X80864757Y-177160631D01*
X80858630Y-177170588D01*
X80851965Y-177180197D01*
X80836897Y-177198090D01*
X80820019Y-177214407D01*
X80801331Y-177229149D01*
X80780833Y-177242316D01*
X80758525Y-177253908D01*
X80734407Y-177263924D01*
X80708480Y-177272365D01*
X80680742Y-177279230D01*
X80651195Y-177284520D01*
X80619837Y-177288235D01*
X80586670Y-177290375D01*
X80551693Y-177290939D01*
X80514905Y-177289927D01*
X80476308Y-177287341D01*
X80435901Y-177283179D01*
X80393684Y-177277441D01*
X80342773Y-177269141D01*
X80293533Y-177259901D01*
X80245964Y-177249720D01*
X80200068Y-177238600D01*
X80155843Y-177226540D01*
X80113291Y-177213540D01*
X80072410Y-177199599D01*
X80033201Y-177184718D01*
X79993717Y-177168296D01*
X79953191Y-177150487D01*
X79911621Y-177131290D01*
X79869008Y-177110707D01*
X79825353Y-177088736D01*
X79780654Y-177065378D01*
X79734912Y-177040634D01*
X79688127Y-177014502D01*
X79752042Y-177142174D01*
X79762972Y-177163260D01*
X79774455Y-177183959D01*
X79786492Y-177204272D01*
X79799084Y-177224199D01*
X79812230Y-177243740D01*
X79825929Y-177262895D01*
X79840183Y-177281663D01*
X79854992Y-177300046D01*
X79862630Y-177309083D01*
X79870459Y-177318004D01*
X79878479Y-177326810D01*
X79886690Y-177335500D01*
X79895093Y-177344074D01*
X79903687Y-177352533D01*
X79912472Y-177360875D01*
X79921448Y-177369103D01*
X79930615Y-177377214D01*
X79939973Y-177385210D01*
X79949523Y-177393090D01*
X79959264Y-177400854D01*
X79979319Y-177416036D01*
X80000139Y-177430755D01*
X80022232Y-177445630D01*
X80045483Y-177460030D01*
X80069890Y-177473954D01*
X80095455Y-177487403D01*
X80122176Y-177500376D01*
X80150055Y-177512873D01*
X80179090Y-177524895D01*
X80209282Y-177536441D01*
X80240716Y-177547433D01*
X80273479Y-177557795D01*
X80307570Y-177567527D01*
X80342989Y-177576628D01*
X80379737Y-177585099D01*
X80417813Y-177592939D01*
X80457218Y-177600149D01*
X80497951Y-177606729D01*
X80540808Y-177612726D01*
X80583137Y-177617667D01*
X80624938Y-177621552D01*
X80666210Y-177624381D01*
X80706953Y-177626153D01*
X80747168Y-177626870D01*
X80786854Y-177626530D01*
X80826011Y-177625135D01*
X80863684Y-177623460D01*
X80898602Y-177621657D01*
X80930766Y-177619728D01*
X80960175Y-177617670D01*
X80986831Y-177615485D01*
X81010732Y-177613173D01*
X81031880Y-177610733D01*
X81050274Y-177608166D01*
X81067522Y-177610776D01*
X81187834Y-177851100D01*
X81155914Y-177852723D01*
X81123671Y-177853900D01*
X81091106Y-177854630D01*
X81058217Y-177854913D01*
X81025006Y-177854750D01*
X80991471Y-177854141D01*
X80957612Y-177853084D01*
X80923431Y-177851581D01*
X80888579Y-177849832D01*
X80853256Y-177847542D01*
X80817464Y-177844711D01*
X80781200Y-177841338D01*
X80744467Y-177837425D01*
X80707264Y-177832970D01*
X80669590Y-177827975D01*
X80631447Y-177822438D01*
X80574274Y-177813186D01*
X80518323Y-177802917D01*
X80463594Y-177791630D01*
X80410088Y-177779327D01*
X80357803Y-177766006D01*
X80306740Y-177751668D01*
X80256900Y-177736313D01*
X80208281Y-177719941D01*
X80160884Y-177702551D01*
X80114710Y-177684145D01*
X80069757Y-177664721D01*
X80026026Y-177644280D01*
X79983517Y-177622822D01*
X79942231Y-177600347D01*
X79902166Y-177576854D01*
X79863323Y-177552344D01*
X79825591Y-177526720D01*
X79788858Y-177499881D01*
X79753124Y-177471829D01*
X79718389Y-177442564D01*
X79684654Y-177412085D01*
X79651917Y-177380393D01*
X79620180Y-177347487D01*
X79589442Y-177313367D01*
X79559704Y-177278034D01*
X79530964Y-177241487D01*
X79503224Y-177203727D01*
X79476482Y-177164753D01*
X79450740Y-177124566D01*
X79425997Y-177083165D01*
X79402253Y-177040551D01*
X79379509Y-176996723D01*
X78909678Y-176058212D01*
X79209381Y-176058212D01*
X79590996Y-176820487D01*
X79590994Y-176820487D01*
X79629223Y-176841221D01*
X79667796Y-176861247D01*
X79706712Y-176880566D01*
X79745971Y-176899178D01*
X79785574Y-176917082D01*
X79825519Y-176934280D01*
X79865808Y-176950770D01*
X79906440Y-176966552D01*
X79946353Y-176980997D01*
X79985659Y-176994229D01*
X80024357Y-177006249D01*
X80062449Y-177017056D01*
X80099934Y-177026651D01*
X80136812Y-177035033D01*
X80173083Y-177042203D01*
X80208748Y-177048160D01*
X80240913Y-177052589D01*
X80271430Y-177055892D01*
X80300301Y-177058068D01*
X80327524Y-177059119D01*
X80340518Y-177059223D01*
X80353100Y-177059044D01*
X80365271Y-177058585D01*
X80377029Y-177057843D01*
X80388376Y-177056821D01*
X80399311Y-177055517D01*
X80409834Y-177053931D01*
X80419945Y-177052064D01*
X80429644Y-177049915D01*
X80438932Y-177047485D01*
X80447808Y-177044773D01*
X80456272Y-177041780D01*
X80464324Y-177038505D01*
X80471964Y-177034949D01*
X80479193Y-177031112D01*
X80486009Y-177026993D01*
X80492414Y-177022592D01*
X80498407Y-177017910D01*
X80503988Y-177012946D01*
X80509157Y-177007701D01*
X80513915Y-177002175D01*
X80518261Y-176996367D01*
X80522194Y-176990277D01*
X80525717Y-176983906D01*
X80531682Y-176970370D01*
X80536312Y-176955810D01*
X80539607Y-176940226D01*
X80541568Y-176923617D01*
X80542193Y-176905983D01*
X80541484Y-176887325D01*
X80539440Y-176867643D01*
X80536061Y-176846936D01*
X80531347Y-176825205D01*
X80525298Y-176802449D01*
X80517914Y-176778669D01*
X80509195Y-176753865D01*
X80499142Y-176728036D01*
X80487753Y-176701183D01*
X80475030Y-176673305D01*
X80460972Y-176644403D01*
X80445093Y-176613792D01*
X80428475Y-176583920D01*
X80411118Y-176554785D01*
X80393022Y-176526387D01*
X80374187Y-176498728D01*
X80354613Y-176471806D01*
X80334299Y-176445622D01*
X80313246Y-176420176D01*
X80291454Y-176395467D01*
X80268923Y-176371497D01*
X80245653Y-176348264D01*
X80221644Y-176325768D01*
X80196895Y-176304011D01*
X80171408Y-176282991D01*
X80145181Y-176262709D01*
X80118215Y-176243164D01*
X80090690Y-176224430D01*
X80062784Y-176206578D01*
X80034497Y-176189609D01*
X80005831Y-176173522D01*
X79976784Y-176158317D01*
X79947357Y-176143995D01*
X79917550Y-176130555D01*
X79887362Y-176117997D01*
X79856794Y-176106322D01*
X79825846Y-176095529D01*
X79794518Y-176085619D01*
X79762810Y-176076591D01*
X79730721Y-176068446D01*
X79698252Y-176061183D01*
X79665403Y-176054802D01*
X79632173Y-176049304D01*
X79604722Y-176045421D01*
X79577564Y-176042125D01*
X79550700Y-176039416D01*
X79524130Y-176037294D01*
X79497853Y-176035758D01*
X79471870Y-176034809D01*
X79446181Y-176034447D01*
X79420786Y-176034671D01*
X79394876Y-176035161D01*
X79368818Y-176036352D01*
X79342614Y-176038243D01*
X79316262Y-176040836D01*
X79289763Y-176044129D01*
X79263116Y-176048122D01*
X79236322Y-176052817D01*
X79209381Y-176058212D01*
X78909678Y-176058212D01*
X78759167Y-175757560D01*
X79062748Y-175803497D01*
X79113514Y-175866708D01*
X79138744Y-175859337D01*
X79164008Y-175852730D01*
X79189306Y-175846887D01*
X79214638Y-175841809D01*
X79240004Y-175837495D01*
X79265403Y-175833945D01*
X79290836Y-175831160D01*
X79316303Y-175829139D01*
X79342257Y-175827643D01*
X79370328Y-175827191D01*
X79400516Y-175827782D01*
X79432821Y-175829416D01*
X79467242Y-175832094D01*
X79503779Y-175835815D01*
X79542433Y-175840580D01*
X79583204Y-175846387D01*
X79623295Y-175853177D01*
X79664223Y-175861539D01*
X79705989Y-175871474D01*
X79748591Y-175882981D01*
X79792031Y-175896062D01*
X79836308Y-175910715D01*
X79881422Y-175926941D01*
X79927374Y-175944740D01*
X79973145Y-175963523D01*
X80018033Y-175983330D01*
X80062040Y-176004161D01*
X80105164Y-176026014D01*
X80147405Y-176048891D01*
X80188764Y-176072792D01*
X80229240Y-176097715D01*
X80268833Y-176123662D01*
X80310427Y-176152461D01*
X80351026Y-176182158D01*
X80390630Y-176212752D01*
X80429239Y-176244244D01*
X80466851Y-176276634D01*
X80503469Y-176309922D01*
X80539091Y-176344107D01*
X80573717Y-176379190D01*
X80590315Y-176396922D01*
X80606571Y-176414963D01*
X80622483Y-176433314D01*
X80638052Y-176451974D01*
X80653278Y-176470944D01*
X80668160Y-176490223D01*
X80682700Y-176509813D01*
X80696896Y-176529711D01*
X80710749Y-176549920D01*
X80724259Y-176570438D01*
X80737425Y-176591265D01*
X80750249Y-176612402D01*
X80774866Y-176655605D01*
X80798111Y-176700047D01*
X80817634Y-176740500D01*
X80835003Y-176779560D01*
X80850218Y-176817228D01*
X80863278Y-176853504D01*
X80874184Y-176888387D01*
X80878783Y-176905983D01*
X80882936Y-176921877D01*
G37*
G36*
X84017569Y-182292243D02*
G01*
X84475614Y-183497499D01*
X86161715Y-183828819D01*
X85703670Y-182623564D01*
X86152994Y-182711856D01*
X87320849Y-185784838D01*
X86871525Y-185696546D01*
X86299756Y-184192045D01*
X84613654Y-183860723D01*
X85185424Y-185365225D01*
X84736102Y-185276934D01*
X83568248Y-182203951D01*
X84017569Y-182292243D01*
G37*
G36*
X72959454Y-178859423D02*
G01*
X73074997Y-178863200D01*
X73188668Y-178869761D01*
X73300315Y-178879043D01*
X73409788Y-178890983D01*
X73516936Y-178905517D01*
X73621609Y-178922584D01*
X73723656Y-178942119D01*
X73822927Y-178964059D01*
X73919271Y-178988343D01*
X74012537Y-179014906D01*
X74102575Y-179043685D01*
X74189234Y-179074618D01*
X74272365Y-179107642D01*
X74351815Y-179142693D01*
X74427435Y-179179708D01*
X74499074Y-179218624D01*
X74566581Y-179259379D01*
X74629806Y-179301909D01*
X74688598Y-179346151D01*
X74742808Y-179392042D01*
X74792283Y-179439519D01*
X74836873Y-179488519D01*
X74876429Y-179538980D01*
X74910799Y-179590837D01*
X74939833Y-179644028D01*
X74963380Y-179698489D01*
X74981290Y-179754159D01*
X74993412Y-179810973D01*
X74999595Y-179868869D01*
X74999701Y-179927089D01*
X74993786Y-179984867D01*
X74981992Y-180042124D01*
X74964464Y-180098781D01*
X74941343Y-180154758D01*
X74912772Y-180209978D01*
X74878895Y-180264362D01*
X74839854Y-180317831D01*
X74746853Y-180421708D01*
X74634912Y-180520981D01*
X74505175Y-180615018D01*
X74358784Y-180703192D01*
X74196882Y-180784870D01*
X74020613Y-180859425D01*
X73831121Y-180926225D01*
X73629547Y-180984642D01*
X73417036Y-181034045D01*
X73194730Y-181073805D01*
X72963773Y-181103291D01*
X72725307Y-181121874D01*
X72605048Y-181126827D01*
X72486211Y-181128807D01*
X72368945Y-181127877D01*
X72253402Y-181124100D01*
X72139731Y-181117539D01*
X72028084Y-181108258D01*
X71918611Y-181096318D01*
X71811463Y-181081783D01*
X71706790Y-181064717D01*
X71604743Y-181045182D01*
X71505472Y-181023241D01*
X71409128Y-180998958D01*
X71315862Y-180972395D01*
X71225823Y-180943616D01*
X71139164Y-180912683D01*
X71056034Y-180879659D01*
X70976583Y-180844608D01*
X70900963Y-180807593D01*
X70829324Y-180768677D01*
X70761817Y-180727922D01*
X70698592Y-180685393D01*
X70639799Y-180641151D01*
X70585590Y-180595259D01*
X70536115Y-180547782D01*
X70491524Y-180498782D01*
X70451968Y-180448322D01*
X70417598Y-180396465D01*
X70388564Y-180343274D01*
X70365017Y-180288812D01*
X70347107Y-180233143D01*
X70334985Y-180176329D01*
X70328802Y-180118433D01*
X70328696Y-180060212D01*
X70334611Y-180002434D01*
X70346405Y-179945178D01*
X70363934Y-179888521D01*
X70387055Y-179832543D01*
X70415625Y-179777323D01*
X70449502Y-179722940D01*
X70488543Y-179669471D01*
X70581544Y-179565593D01*
X70693485Y-179466321D01*
X70823223Y-179372283D01*
X70969614Y-179284110D01*
X71131516Y-179202431D01*
X71307785Y-179127876D01*
X71497278Y-179061075D01*
X71698852Y-179002658D01*
X71911363Y-178953255D01*
X72133669Y-178913495D01*
X72364627Y-178884009D01*
X72603092Y-178865426D01*
X72723351Y-178860473D01*
X72842188Y-178858493D01*
X72959454Y-178859423D01*
G37*
G36*
X82803489Y-182053675D02*
G01*
X82922706Y-182367370D01*
X82480186Y-182280416D01*
X83409610Y-184726007D01*
X83852128Y-184812961D01*
X83971344Y-185126657D01*
X82636986Y-184864456D01*
X82517769Y-184550760D01*
X82960289Y-184637714D01*
X82030864Y-182192123D01*
X81588348Y-182105169D01*
X81469131Y-181791474D01*
X82803489Y-182053675D01*
G37*
G36*
X68176059Y-175821454D02*
G01*
X68355136Y-175828930D01*
X68526162Y-175843003D01*
X68688138Y-175863412D01*
X68765419Y-175875911D01*
X68840063Y-175889898D01*
X68911944Y-175905338D01*
X68980937Y-175922199D01*
X69046918Y-175940450D01*
X69109761Y-175960057D01*
X69169341Y-175980988D01*
X69225533Y-176003211D01*
X69278213Y-176026693D01*
X69327255Y-176051401D01*
X69372535Y-176077302D01*
X69413926Y-176104366D01*
X69451305Y-176132558D01*
X69484546Y-176161846D01*
X69513524Y-176192198D01*
X69538115Y-176223582D01*
X69558193Y-176255964D01*
X69573633Y-176289313D01*
X69584310Y-176323595D01*
X69590099Y-176358778D01*
X69590877Y-176394405D01*
X69586681Y-176430004D01*
X69577627Y-176465521D01*
X69563834Y-176500901D01*
X69545418Y-176536091D01*
X69522495Y-176571037D01*
X69463600Y-176639980D01*
X69388084Y-176707300D01*
X69296885Y-176772565D01*
X69190936Y-176835343D01*
X69071175Y-176895202D01*
X68938537Y-176951712D01*
X68793959Y-177004441D01*
X68638375Y-177052956D01*
X68472723Y-177096828D01*
X68297938Y-177135624D01*
X68114956Y-177168912D01*
X67924712Y-177196261D01*
X67728143Y-177217240D01*
X67530916Y-177231115D01*
X67338739Y-177237613D01*
X67152612Y-177236994D01*
X66973536Y-177229518D01*
X66802510Y-177215445D01*
X66640534Y-177195036D01*
X66563253Y-177182536D01*
X66488609Y-177168550D01*
X66416728Y-177153110D01*
X66347735Y-177136248D01*
X66281755Y-177117997D01*
X66218912Y-177098390D01*
X66159331Y-177077459D01*
X66103139Y-177055236D01*
X66050459Y-177031755D01*
X66001417Y-177007047D01*
X65956138Y-176981145D01*
X65914746Y-176954082D01*
X65877367Y-176925890D01*
X65844126Y-176896601D01*
X65815148Y-176866249D01*
X65790557Y-176834866D01*
X65770479Y-176802483D01*
X65755039Y-176769135D01*
X65744362Y-176734853D01*
X65738573Y-176699669D01*
X65737795Y-176664042D01*
X65741991Y-176628444D01*
X65751045Y-176592927D01*
X65764838Y-176557547D01*
X65783254Y-176522357D01*
X65806177Y-176487411D01*
X65865072Y-176418468D01*
X65940587Y-176351148D01*
X66031787Y-176285883D01*
X66137736Y-176223105D01*
X66257497Y-176163246D01*
X66390134Y-176106736D01*
X66534713Y-176054007D01*
X66690296Y-176005491D01*
X66855948Y-175961620D01*
X67030733Y-175922824D01*
X67213715Y-175889536D01*
X67403958Y-175862186D01*
X67600527Y-175841207D01*
X67797754Y-175827332D01*
X67989932Y-175820834D01*
X68176059Y-175821454D01*
G37*
G36*
X70804509Y-174609185D02*
G01*
X70964691Y-174615115D01*
X71118487Y-174626245D01*
X71265046Y-174642341D01*
X71403522Y-174663169D01*
X71533063Y-174688493D01*
X71594219Y-174702768D01*
X71652823Y-174718080D01*
X71708770Y-174734398D01*
X71761953Y-174751695D01*
X71812265Y-174769940D01*
X71859602Y-174789104D01*
X71903857Y-174809158D01*
X71944924Y-174830072D01*
X71982696Y-174851818D01*
X72017068Y-174874366D01*
X72047934Y-174897687D01*
X72075187Y-174921750D01*
X72098722Y-174946529D01*
X72118432Y-174971991D01*
X72134211Y-174998110D01*
X72145953Y-175024855D01*
X72153552Y-175052196D01*
X72156902Y-175080105D01*
X72155918Y-175108218D01*
X72150653Y-175136163D01*
X72141211Y-175163900D01*
X72127696Y-175191392D01*
X72110211Y-175218599D01*
X72088857Y-175245481D01*
X72034962Y-175298117D01*
X71966836Y-175348987D01*
X71885305Y-175397777D01*
X71791194Y-175444176D01*
X71685330Y-175487870D01*
X71568537Y-175528547D01*
X71441641Y-175565893D01*
X71305469Y-175599596D01*
X71160845Y-175629343D01*
X71008595Y-175654820D01*
X70849546Y-175675716D01*
X70684522Y-175691718D01*
X70514349Y-175702511D01*
X70343939Y-175707684D01*
X70178218Y-175707189D01*
X70018036Y-175701259D01*
X69864241Y-175690128D01*
X69717681Y-175674033D01*
X69579206Y-175653205D01*
X69449664Y-175627881D01*
X69388508Y-175613606D01*
X69329904Y-175598294D01*
X69273958Y-175581976D01*
X69220775Y-175564679D01*
X69170462Y-175546434D01*
X69123125Y-175527270D01*
X69078870Y-175507216D01*
X69037804Y-175486302D01*
X69000031Y-175464556D01*
X68965659Y-175442008D01*
X68934794Y-175418688D01*
X68907540Y-175394624D01*
X68884006Y-175369845D01*
X68864296Y-175344383D01*
X68848517Y-175318264D01*
X68836775Y-175291519D01*
X68829176Y-175264178D01*
X68825826Y-175236269D01*
X68826811Y-175208156D01*
X68832075Y-175180211D01*
X68841516Y-175152474D01*
X68855032Y-175124982D01*
X68872517Y-175097775D01*
X68893870Y-175070892D01*
X68947765Y-175018257D01*
X69015891Y-174967387D01*
X69097422Y-174918596D01*
X69191533Y-174872197D01*
X69297398Y-174828503D01*
X69414191Y-174787827D01*
X69541086Y-174750480D01*
X69677259Y-174716778D01*
X69821882Y-174687031D01*
X69974132Y-174661553D01*
X70133181Y-174640657D01*
X70298205Y-174624656D01*
X70468378Y-174613862D01*
X70638788Y-174608689D01*
X70804509Y-174609185D01*
G37*
G36*
X65307865Y-174878879D02*
G01*
X65471290Y-174886078D01*
X65626136Y-174898785D01*
X65771446Y-174916810D01*
X65906263Y-174939963D01*
X65969437Y-174953402D01*
X66029628Y-174968053D01*
X66086717Y-174983890D01*
X66140585Y-175000890D01*
X66191111Y-175019030D01*
X66238176Y-175038285D01*
X66281660Y-175058633D01*
X66321444Y-175080048D01*
X66357407Y-175102508D01*
X66389431Y-175125988D01*
X66417395Y-175150466D01*
X66441180Y-175175916D01*
X66460667Y-175202316D01*
X66475734Y-175229642D01*
X66486264Y-175257869D01*
X66492136Y-175286975D01*
X66493227Y-175316581D01*
X66489569Y-175346295D01*
X66481273Y-175376068D01*
X66468450Y-175405852D01*
X66451211Y-175435601D01*
X66429668Y-175465265D01*
X66374112Y-175524147D01*
X66302672Y-175582118D01*
X66216237Y-175638792D01*
X66115697Y-175693787D01*
X66001940Y-175746718D01*
X65875857Y-175797203D01*
X65738336Y-175844858D01*
X65590267Y-175889299D01*
X65432539Y-175930144D01*
X65266042Y-175967007D01*
X65091665Y-175999507D01*
X64910297Y-176027260D01*
X64722828Y-176049881D01*
X64534659Y-176066612D01*
X64351240Y-176077076D01*
X64173528Y-176081462D01*
X64002480Y-176079960D01*
X63839054Y-176072760D01*
X63684207Y-176060053D01*
X63538897Y-176042028D01*
X63404080Y-176018876D01*
X63340906Y-176005436D01*
X63280715Y-175990786D01*
X63223625Y-175974949D01*
X63169758Y-175957948D01*
X63119231Y-175939809D01*
X63072166Y-175920553D01*
X63028682Y-175900206D01*
X62988899Y-175878790D01*
X62952935Y-175856331D01*
X62920911Y-175832850D01*
X62892947Y-175808373D01*
X62869162Y-175782922D01*
X62849676Y-175756522D01*
X62834608Y-175729197D01*
X62824078Y-175700970D01*
X62818207Y-175671864D01*
X62817115Y-175642258D01*
X62820773Y-175612544D01*
X62829069Y-175582771D01*
X62841892Y-175552986D01*
X62859131Y-175523238D01*
X62880674Y-175493574D01*
X62936230Y-175434691D01*
X63007670Y-175376721D01*
X63094105Y-175320047D01*
X63194646Y-175265052D01*
X63308403Y-175212121D01*
X63434487Y-175161636D01*
X63572008Y-175113981D01*
X63720077Y-175069539D01*
X63877806Y-175028695D01*
X64044303Y-174991831D01*
X64218681Y-174959331D01*
X64400050Y-174931579D01*
X64587520Y-174908957D01*
X64775688Y-174892226D01*
X64959106Y-174881763D01*
X65136817Y-174877377D01*
X65307865Y-174878879D01*
G37*
G36*
X64434685Y-173837245D02*
G01*
X64582115Y-173844105D01*
X64721706Y-173855393D01*
X64852598Y-173870946D01*
X64973929Y-173890605D01*
X65084838Y-173914209D01*
X65136115Y-173927440D01*
X65184464Y-173941597D01*
X65229776Y-173956661D01*
X65271945Y-173972610D01*
X65310863Y-173989426D01*
X65346421Y-174007087D01*
X65378513Y-174025574D01*
X65407031Y-174044867D01*
X65431866Y-174064946D01*
X65452912Y-174085791D01*
X65470061Y-174107381D01*
X65483205Y-174129697D01*
X65492236Y-174152718D01*
X65497047Y-174176425D01*
X65497534Y-174200509D01*
X65493731Y-174224652D01*
X65485739Y-174248815D01*
X65473661Y-174272959D01*
X65437645Y-174321038D01*
X65386494Y-174368584D01*
X65321018Y-174415290D01*
X65242024Y-174460850D01*
X65150324Y-174504956D01*
X65046726Y-174547304D01*
X64932040Y-174587586D01*
X64807074Y-174625496D01*
X64672640Y-174660728D01*
X64529545Y-174692974D01*
X64378600Y-174721930D01*
X64220614Y-174747288D01*
X64056397Y-174768742D01*
X63886757Y-174785986D01*
X63716585Y-174798435D01*
X63550808Y-174805816D01*
X63390285Y-174808289D01*
X63235878Y-174806015D01*
X63088448Y-174799154D01*
X62948857Y-174787867D01*
X62817966Y-174772313D01*
X62696635Y-174752655D01*
X62585726Y-174729051D01*
X62534449Y-174715819D01*
X62486100Y-174701662D01*
X62440788Y-174686598D01*
X62398619Y-174670649D01*
X62359701Y-174653834D01*
X62324142Y-174636172D01*
X62292050Y-174617685D01*
X62263533Y-174598392D01*
X62238697Y-174578313D01*
X62217651Y-174557469D01*
X62200502Y-174535879D01*
X62187358Y-174513563D01*
X62178326Y-174490542D01*
X62173515Y-174466835D01*
X62173029Y-174442750D01*
X62176832Y-174418607D01*
X62184824Y-174394445D01*
X62196903Y-174370301D01*
X62232918Y-174322221D01*
X62284069Y-174274675D01*
X62349546Y-174227969D01*
X62428539Y-174182410D01*
X62520240Y-174138303D01*
X62623838Y-174095956D01*
X62738524Y-174055674D01*
X62863489Y-174017764D01*
X62997923Y-173982532D01*
X63141017Y-173950285D01*
X63291962Y-173921330D01*
X63449948Y-173895971D01*
X63614166Y-173874517D01*
X63783806Y-173857274D01*
X63953977Y-173844825D01*
X64119755Y-173837444D01*
X64280278Y-173834971D01*
X64434685Y-173837245D01*
G37*
G36*
X78509406Y-183703459D02*
G01*
X78670308Y-183716605D01*
X78828755Y-183734863D01*
X78984561Y-183758091D01*
X79137535Y-183786148D01*
X79287490Y-183818891D01*
X79434238Y-183856180D01*
X79577590Y-183897872D01*
X79717358Y-183943827D01*
X79853354Y-183993902D01*
X79985388Y-184047955D01*
X80113274Y-184105846D01*
X80236821Y-184167433D01*
X80355844Y-184232573D01*
X80470151Y-184301126D01*
X80579557Y-184372950D01*
X80683871Y-184447903D01*
X80782907Y-184525843D01*
X80876475Y-184606630D01*
X80964387Y-184690120D01*
X81046454Y-184776174D01*
X81122490Y-184864649D01*
X81192304Y-184955404D01*
X81255709Y-185048296D01*
X81312517Y-185143185D01*
X81362539Y-185239928D01*
X81405586Y-185338385D01*
X81441471Y-185438413D01*
X81470005Y-185539872D01*
X81491000Y-185642618D01*
X81504268Y-185746512D01*
X81509619Y-185851410D01*
X81506866Y-185957172D01*
X81495968Y-186062404D01*
X81477144Y-186165730D01*
X81450601Y-186267033D01*
X81416543Y-186366198D01*
X81375174Y-186463109D01*
X81326701Y-186557649D01*
X81271327Y-186649703D01*
X81209259Y-186739154D01*
X81140700Y-186825887D01*
X81065857Y-186909786D01*
X80898135Y-187068615D01*
X80707733Y-187214715D01*
X80496291Y-187347157D01*
X80265450Y-187465012D01*
X80016849Y-187567353D01*
X79752128Y-187653251D01*
X79472927Y-187721779D01*
X79180887Y-187772008D01*
X78877647Y-187803011D01*
X78564847Y-187813858D01*
X78244128Y-187803622D01*
X78083226Y-187790476D01*
X77924778Y-187772218D01*
X77768972Y-187748989D01*
X77615998Y-187720933D01*
X77466042Y-187688189D01*
X77319294Y-187650901D01*
X77175942Y-187609208D01*
X77036174Y-187563254D01*
X76900179Y-187513179D01*
X76768144Y-187459125D01*
X76640259Y-187401235D01*
X76516711Y-187339648D01*
X76397689Y-187274508D01*
X76283381Y-187205955D01*
X76173976Y-187134131D01*
X76069661Y-187059178D01*
X75970626Y-186981237D01*
X75877058Y-186900451D01*
X75789146Y-186816960D01*
X75707078Y-186730906D01*
X75631043Y-186642432D01*
X75561229Y-186551677D01*
X75497823Y-186458785D01*
X75441016Y-186363896D01*
X75390994Y-186267152D01*
X75347946Y-186168696D01*
X75312061Y-186068668D01*
X75283527Y-185967209D01*
X75262532Y-185864463D01*
X75249265Y-185760570D01*
X75243913Y-185655671D01*
X75246666Y-185549909D01*
X75257564Y-185444677D01*
X75276388Y-185341352D01*
X75302931Y-185240048D01*
X75336990Y-185140883D01*
X75378358Y-185043972D01*
X75426832Y-184949432D01*
X75482205Y-184857378D01*
X75544274Y-184767927D01*
X75612832Y-184681194D01*
X75687676Y-184597295D01*
X75855398Y-184438465D01*
X76045799Y-184292365D01*
X76257241Y-184159924D01*
X76488082Y-184042069D01*
X76736684Y-183939728D01*
X77001405Y-183853829D01*
X77280605Y-183785301D01*
X77572646Y-183735072D01*
X77875886Y-183704070D01*
X78188686Y-183693223D01*
X78509406Y-183703459D01*
G37*
G36*
X71025806Y-182340064D02*
G01*
X71197973Y-182347886D01*
X71366990Y-182361002D01*
X71532604Y-182379321D01*
X71694559Y-182402749D01*
X71852603Y-182431195D01*
X72006480Y-182464566D01*
X72155936Y-182502770D01*
X72300718Y-182545714D01*
X72440570Y-182593306D01*
X72575239Y-182645454D01*
X72704471Y-182702065D01*
X72828010Y-182763047D01*
X72945603Y-182828307D01*
X73056996Y-182897753D01*
X73161934Y-182971293D01*
X73260163Y-183048834D01*
X73351429Y-183130284D01*
X73435477Y-183215551D01*
X73512054Y-183304542D01*
X73580905Y-183397165D01*
X73641776Y-183493327D01*
X73694412Y-183592937D01*
X73738559Y-183695901D01*
X73773964Y-183802127D01*
X73800371Y-183911524D01*
X73817345Y-184022670D01*
X73824751Y-184134092D01*
X73822793Y-184245611D01*
X73811670Y-184357052D01*
X73791585Y-184468236D01*
X73762738Y-184578987D01*
X73725331Y-184689129D01*
X73679564Y-184798484D01*
X73625640Y-184906875D01*
X73563760Y-185014126D01*
X73494125Y-185120060D01*
X73416935Y-185224499D01*
X73240700Y-185428187D01*
X73036665Y-185623775D01*
X72806441Y-185809847D01*
X72551637Y-185984989D01*
X72273864Y-186147785D01*
X71974732Y-186296820D01*
X71655852Y-186430679D01*
X71318833Y-186547947D01*
X70965287Y-186647208D01*
X70596822Y-186727047D01*
X70409729Y-186758874D01*
X70224005Y-186784759D01*
X70039905Y-186804796D01*
X69857684Y-186819076D01*
X69677594Y-186827692D01*
X69499891Y-186830736D01*
X69324830Y-186828301D01*
X69152663Y-186820480D01*
X68983646Y-186807363D01*
X68818032Y-186789044D01*
X68656076Y-186765616D01*
X68498033Y-186737170D01*
X68344155Y-186703799D01*
X68194699Y-186665595D01*
X68049917Y-186622651D01*
X67910065Y-186575059D01*
X67775396Y-186522911D01*
X67646165Y-186466300D01*
X67522625Y-186405318D01*
X67405032Y-186340058D01*
X67293639Y-186270612D01*
X67188701Y-186197072D01*
X67090472Y-186119531D01*
X66999206Y-186038080D01*
X66915158Y-185952814D01*
X66838581Y-185863823D01*
X66769730Y-185771200D01*
X66708859Y-185675038D01*
X66656223Y-185575428D01*
X66612076Y-185472464D01*
X66576671Y-185366238D01*
X66550264Y-185256842D01*
X66533290Y-185145695D01*
X66525883Y-185034273D01*
X66527842Y-184922754D01*
X66538964Y-184811314D01*
X66559049Y-184700129D01*
X66587896Y-184589378D01*
X66625304Y-184479236D01*
X66671070Y-184369881D01*
X66724994Y-184261490D01*
X66786874Y-184154239D01*
X66856510Y-184048305D01*
X66933699Y-183943866D01*
X67109934Y-183740178D01*
X67313969Y-183544591D01*
X67544194Y-183358518D01*
X67798998Y-183183376D01*
X68076771Y-183020580D01*
X68375903Y-182871545D01*
X68694784Y-182737686D01*
X69031803Y-182620418D01*
X69385350Y-182521157D01*
X69753814Y-182441318D01*
X69940908Y-182409492D01*
X70126631Y-182383606D01*
X70310731Y-182363569D01*
X70492953Y-182349289D01*
X70673042Y-182340673D01*
X70850745Y-182337629D01*
X71025806Y-182340064D01*
G37*
G36*
X87609354Y-182990333D02*
G01*
X87681660Y-182992905D01*
X87756546Y-182997773D01*
X87834010Y-183004939D01*
X87914053Y-183014402D01*
X87996676Y-183026161D01*
X88081878Y-183040218D01*
X88169659Y-183056572D01*
X88238204Y-183070936D01*
X88305977Y-183086939D01*
X88372978Y-183104580D01*
X88439208Y-183123861D01*
X88504666Y-183144780D01*
X88569352Y-183167337D01*
X88633267Y-183191533D01*
X88696410Y-183217368D01*
X88758781Y-183244842D01*
X88820380Y-183273955D01*
X88881208Y-183304706D01*
X88941265Y-183337095D01*
X89000549Y-183371124D01*
X89059062Y-183406791D01*
X89116803Y-183444097D01*
X89173773Y-183483042D01*
X89229067Y-183522820D01*
X89281976Y-183563145D01*
X89332500Y-183604016D01*
X89380640Y-183645432D01*
X89426396Y-183687395D01*
X89469767Y-183729903D01*
X89510753Y-183772958D01*
X89549355Y-183816558D01*
X89585572Y-183860705D01*
X89619405Y-183905397D01*
X89650853Y-183950635D01*
X89679917Y-183996420D01*
X89706596Y-184042750D01*
X89730891Y-184089626D01*
X89752801Y-184137048D01*
X89772327Y-184185017D01*
X89787278Y-184226409D01*
X89800172Y-184266487D01*
X89811007Y-184305251D01*
X89819785Y-184342700D01*
X89826505Y-184378834D01*
X89831166Y-184413654D01*
X89833770Y-184447160D01*
X89834315Y-184479351D01*
X89832803Y-184510227D01*
X89829232Y-184539789D01*
X89826675Y-184554077D01*
X89823603Y-184568037D01*
X89820017Y-184581668D01*
X89815916Y-184594970D01*
X89811301Y-184607944D01*
X89806172Y-184620589D01*
X89800527Y-184632905D01*
X89794369Y-184644893D01*
X89787695Y-184656552D01*
X89780508Y-184667883D01*
X89772805Y-184678885D01*
X89764589Y-184689558D01*
X89746174Y-184709609D01*
X89725589Y-184728353D01*
X89702835Y-184745791D01*
X89677910Y-184761922D01*
X89650816Y-184776746D01*
X89621552Y-184790264D01*
X89590118Y-184802475D01*
X89556514Y-184813380D01*
X89520741Y-184822978D01*
X89482797Y-184831269D01*
X89442684Y-184838254D01*
X89400401Y-184843932D01*
X89355948Y-184848304D01*
X89309325Y-184851369D01*
X89260532Y-184853127D01*
X89209569Y-184853578D01*
X89107433Y-184851770D01*
X89007732Y-184848769D01*
X88910464Y-184844575D01*
X88815629Y-184839187D01*
X88768800Y-184836402D01*
X88723065Y-184834248D01*
X88678423Y-184832727D01*
X88634874Y-184831839D01*
X88592419Y-184831583D01*
X88551057Y-184831959D01*
X88510789Y-184832967D01*
X88471614Y-184834608D01*
X88446597Y-184836055D01*
X88422612Y-184838019D01*
X88399661Y-184840498D01*
X88377742Y-184843494D01*
X88356856Y-184847007D01*
X88337003Y-184851035D01*
X88318182Y-184855580D01*
X88300395Y-184860641D01*
X88283641Y-184866218D01*
X88267919Y-184872312D01*
X88253231Y-184878922D01*
X88239575Y-184886048D01*
X88226952Y-184893690D01*
X88215362Y-184901849D01*
X88204805Y-184910524D01*
X88195281Y-184919716D01*
X88186583Y-184929613D01*
X88179072Y-184940520D01*
X88172749Y-184952436D01*
X88167613Y-184965362D01*
X88163664Y-184979296D01*
X88160903Y-184994239D01*
X88159329Y-185010192D01*
X88158943Y-185027154D01*
X88159744Y-185045125D01*
X88161732Y-185064105D01*
X88164907Y-185084095D01*
X88169270Y-185105093D01*
X88174821Y-185127101D01*
X88181558Y-185150118D01*
X88189483Y-185174143D01*
X88198596Y-185199179D01*
X88210643Y-185228654D01*
X88224234Y-185257747D01*
X88239369Y-185286457D01*
X88256048Y-185314784D01*
X88274272Y-185342728D01*
X88294040Y-185370289D01*
X88315352Y-185397467D01*
X88338208Y-185424263D01*
X88362608Y-185450675D01*
X88388553Y-185476705D01*
X88416042Y-185502352D01*
X88445075Y-185527616D01*
X88475653Y-185552497D01*
X88507774Y-185576995D01*
X88541440Y-185601111D01*
X88576650Y-185624843D01*
X88612864Y-185647916D01*
X88650109Y-185670161D01*
X88688385Y-185691580D01*
X88727692Y-185712172D01*
X88768030Y-185731937D01*
X88809399Y-185750875D01*
X88851799Y-185768986D01*
X88895230Y-185786271D01*
X88939692Y-185802728D01*
X88985184Y-185818359D01*
X89031708Y-185833163D01*
X89079263Y-185847140D01*
X89127848Y-185860290D01*
X89177465Y-185872613D01*
X89228113Y-185884110D01*
X89279791Y-185894779D01*
X89353557Y-185907752D01*
X89427350Y-185917688D01*
X89501169Y-185924584D01*
X89575014Y-185928443D01*
X89648886Y-185929263D01*
X89722784Y-185927044D01*
X89796709Y-185921788D01*
X89870660Y-185913492D01*
X89907200Y-185908177D01*
X89942856Y-185902047D01*
X89977629Y-185895102D01*
X90011517Y-185887342D01*
X90044521Y-185878766D01*
X90076642Y-185869375D01*
X90107878Y-185859169D01*
X90138230Y-185848147D01*
X90167699Y-185836311D01*
X90196283Y-185823659D01*
X90223983Y-185810192D01*
X90250800Y-185795909D01*
X90276732Y-185780812D01*
X90301780Y-185764899D01*
X90325945Y-185748172D01*
X90349225Y-185730629D01*
X90380996Y-185736872D01*
X90575508Y-186248691D01*
X90511444Y-186263406D01*
X90447024Y-186276319D01*
X90382248Y-186287432D01*
X90317115Y-186296744D01*
X90251625Y-186304255D01*
X90185780Y-186309965D01*
X90119578Y-186313874D01*
X90053020Y-186315983D01*
X89984215Y-186315890D01*
X89912406Y-186313417D01*
X89837591Y-186308563D01*
X89759773Y-186301328D01*
X89678949Y-186291712D01*
X89595121Y-186279715D01*
X89508288Y-186265338D01*
X89418450Y-186248581D01*
X89334470Y-186231005D01*
X89252728Y-186211720D01*
X89173223Y-186190726D01*
X89095957Y-186168024D01*
X89020929Y-186143613D01*
X88948138Y-186117493D01*
X88877585Y-186089665D01*
X88809270Y-186060127D01*
X88742121Y-186028910D01*
X88676201Y-185996263D01*
X88611509Y-185962187D01*
X88548046Y-185926681D01*
X88485811Y-185889745D01*
X88424804Y-185851380D01*
X88365026Y-185811585D01*
X88306476Y-185770361D01*
X88280197Y-185750919D01*
X88254344Y-185731173D01*
X88228917Y-185711123D01*
X88203915Y-185690768D01*
X88179339Y-185670110D01*
X88155188Y-185649147D01*
X88131464Y-185627880D01*
X88108165Y-185606309D01*
X88085292Y-185584434D01*
X88062845Y-185562254D01*
X88040823Y-185539770D01*
X88019227Y-185516982D01*
X87998057Y-185493889D01*
X87977312Y-185470493D01*
X87956993Y-185446792D01*
X87937100Y-185422787D01*
X87917494Y-185398629D01*
X87898602Y-185374581D01*
X87880425Y-185350645D01*
X87862962Y-185326819D01*
X87846214Y-185303103D01*
X87830181Y-185279498D01*
X87814862Y-185256004D01*
X87800258Y-185232620D01*
X87786369Y-185209347D01*
X87773195Y-185186184D01*
X87760735Y-185163132D01*
X87748989Y-185140190D01*
X87737958Y-185117359D01*
X87727642Y-185094639D01*
X87718041Y-185072029D01*
X87709155Y-185049532D01*
X87694430Y-185008975D01*
X87681630Y-184969855D01*
X87670755Y-184932173D01*
X87661803Y-184895928D01*
X87654776Y-184861121D01*
X87649673Y-184827751D01*
X87646495Y-184795819D01*
X87645241Y-184765324D01*
X87645911Y-184736266D01*
X87646967Y-184722276D01*
X87648505Y-184708645D01*
X87650524Y-184695374D01*
X87653024Y-184682462D01*
X87656005Y-184669910D01*
X87659467Y-184657717D01*
X87663410Y-184645883D01*
X87667834Y-184634409D01*
X87672739Y-184623294D01*
X87678126Y-184612538D01*
X87683993Y-184602142D01*
X87690342Y-184592105D01*
X87697171Y-184582427D01*
X87704482Y-184573109D01*
X87720449Y-184555337D01*
X87738145Y-184538576D01*
X87757571Y-184522826D01*
X87778726Y-184508088D01*
X87801611Y-184494361D01*
X87826226Y-184481645D01*
X87852570Y-184469940D01*
X87880643Y-184459247D01*
X87910446Y-184449565D01*
X87941979Y-184440894D01*
X87975241Y-184433234D01*
X88010233Y-184426586D01*
X88046954Y-184420949D01*
X88085405Y-184416323D01*
X88125586Y-184412708D01*
X88167495Y-184410105D01*
X88211187Y-184408693D01*
X88257456Y-184407848D01*
X88357727Y-184407857D01*
X88468307Y-184410131D01*
X88589199Y-184414671D01*
X88707881Y-184419612D01*
X88811833Y-184423091D01*
X88901055Y-184425108D01*
X88975548Y-184425663D01*
X89006402Y-184424855D01*
X89035809Y-184423390D01*
X89063769Y-184421268D01*
X89090281Y-184418488D01*
X89115346Y-184415051D01*
X89138963Y-184410956D01*
X89161133Y-184406204D01*
X89181856Y-184400794D01*
X89201131Y-184394727D01*
X89218958Y-184388003D01*
X89235339Y-184380621D01*
X89242986Y-184376684D01*
X89250272Y-184372582D01*
X89257195Y-184368316D01*
X89263757Y-184363886D01*
X89269957Y-184359291D01*
X89275795Y-184354532D01*
X89281272Y-184349609D01*
X89286386Y-184344521D01*
X89291139Y-184339269D01*
X89295530Y-184333853D01*
X89303401Y-184322449D01*
X89310177Y-184310234D01*
X89315857Y-184297207D01*
X89320440Y-184283367D01*
X89323927Y-184268715D01*
X89326319Y-184253251D01*
X89327614Y-184236975D01*
X89327813Y-184219887D01*
X89326916Y-184201986D01*
X89324923Y-184183274D01*
X89321833Y-184163749D01*
X89317648Y-184143412D01*
X89312367Y-184122263D01*
X89305989Y-184100302D01*
X89298515Y-184077529D01*
X89289946Y-184053944D01*
X89279015Y-184027253D01*
X89266615Y-184000841D01*
X89252746Y-183974708D01*
X89237407Y-183948852D01*
X89220600Y-183923275D01*
X89202324Y-183897976D01*
X89182578Y-183872956D01*
X89161363Y-183848213D01*
X89138679Y-183823749D01*
X89114526Y-183799563D01*
X89088904Y-183775656D01*
X89061813Y-183752026D01*
X89033253Y-183728675D01*
X89003223Y-183705602D01*
X88971725Y-183682808D01*
X88938757Y-183660292D01*
X88904424Y-183638283D01*
X88869396Y-183617122D01*
X88833673Y-183596809D01*
X88797255Y-183577345D01*
X88760143Y-183558728D01*
X88722335Y-183540960D01*
X88683833Y-183524040D01*
X88644636Y-183507968D01*
X88604744Y-183492744D01*
X88564158Y-183478369D01*
X88522876Y-183464841D01*
X88480900Y-183452162D01*
X88438229Y-183440330D01*
X88394864Y-183429347D01*
X88350803Y-183419212D01*
X88306048Y-183409925D01*
X88224622Y-183395357D01*
X88144869Y-183383983D01*
X88066789Y-183375801D01*
X87990381Y-183370813D01*
X87952805Y-183369516D01*
X87915646Y-183369018D01*
X87878906Y-183369318D01*
X87842585Y-183370416D01*
X87806681Y-183372313D01*
X87771196Y-183375007D01*
X87736129Y-183378500D01*
X87701480Y-183382791D01*
X87667214Y-183387464D01*
X87634058Y-183392728D01*
X87602013Y-183398583D01*
X87571079Y-183405029D01*
X87541255Y-183412066D01*
X87512542Y-183419695D01*
X87484939Y-183427915D01*
X87458446Y-183436726D01*
X87433065Y-183446128D01*
X87408793Y-183456122D01*
X87385633Y-183466706D01*
X87363583Y-183477882D01*
X87342643Y-183489649D01*
X87322814Y-183502007D01*
X87304096Y-183514957D01*
X87286488Y-183528498D01*
X87254718Y-183522253D01*
X87071187Y-183039327D01*
X87121094Y-183028545D01*
X87173473Y-183019083D01*
X87228322Y-183010943D01*
X87285642Y-183004124D01*
X87345432Y-182998626D01*
X87407693Y-182994449D01*
X87472425Y-182991593D01*
X87539628Y-182990059D01*
X87609354Y-182990333D01*
G37*
G36*
X68238386Y-173886294D02*
G01*
X68385849Y-173892665D01*
X68526478Y-173903600D01*
X68659457Y-173918912D01*
X68783969Y-173938412D01*
X68899195Y-173961911D01*
X68953072Y-173975102D01*
X69004320Y-173989221D01*
X69052839Y-174004247D01*
X69098527Y-174020155D01*
X69141280Y-174036921D01*
X69180997Y-174054522D01*
X69217576Y-174072935D01*
X69250914Y-174092135D01*
X69280910Y-174112100D01*
X69307462Y-174132806D01*
X69330466Y-174154229D01*
X69349822Y-174176346D01*
X69365426Y-174199133D01*
X69377177Y-174222566D01*
X69384973Y-174246623D01*
X69388712Y-174271279D01*
X69388304Y-174296213D01*
X69383796Y-174321096D01*
X69375284Y-174345891D01*
X69362867Y-174370560D01*
X69326711Y-174419374D01*
X69276111Y-174467242D01*
X69211852Y-174513868D01*
X69134719Y-174558956D01*
X69045496Y-174602210D01*
X68944968Y-174643334D01*
X68833920Y-174682032D01*
X68713135Y-174718009D01*
X68583398Y-174750967D01*
X68445495Y-174780612D01*
X68300209Y-174806647D01*
X68148325Y-174828776D01*
X67990628Y-174846703D01*
X67827902Y-174860132D01*
X67664841Y-174868586D01*
X67506163Y-174871910D01*
X67352684Y-174870292D01*
X67205222Y-174863921D01*
X67064592Y-174852986D01*
X66931613Y-174837674D01*
X66807102Y-174818174D01*
X66691875Y-174794675D01*
X66637998Y-174781484D01*
X66586749Y-174767364D01*
X66538230Y-174752339D01*
X66492543Y-174736431D01*
X66449790Y-174719665D01*
X66410072Y-174702064D01*
X66373493Y-174683651D01*
X66340155Y-174664451D01*
X66310159Y-174644486D01*
X66283607Y-174623780D01*
X66260603Y-174602357D01*
X66241247Y-174580240D01*
X66225642Y-174557453D01*
X66213891Y-174534020D01*
X66206095Y-174509963D01*
X66202356Y-174485307D01*
X66202764Y-174460372D01*
X66207272Y-174435489D01*
X66215784Y-174410695D01*
X66228201Y-174386026D01*
X66264358Y-174337212D01*
X66314958Y-174289344D01*
X66379217Y-174242718D01*
X66456350Y-174197630D01*
X66545574Y-174154376D01*
X66646102Y-174113252D01*
X66757151Y-174074554D01*
X66877936Y-174038578D01*
X67007673Y-174005619D01*
X67145576Y-173975974D01*
X67290862Y-173949940D01*
X67442746Y-173927811D01*
X67600442Y-173909884D01*
X67763168Y-173896454D01*
X67926228Y-173888000D01*
X68084907Y-173884676D01*
X68238386Y-173886294D01*
G37*
G36*
X74737856Y-174441839D02*
G01*
X74894759Y-174449622D01*
X75046201Y-174462277D01*
X75191386Y-174479547D01*
X75329522Y-174501173D01*
X75459813Y-174526898D01*
X75521769Y-174541216D01*
X75581465Y-174556462D01*
X75638804Y-174572604D01*
X75693684Y-174589609D01*
X75746008Y-174607445D01*
X75795676Y-174626080D01*
X75842588Y-174645481D01*
X75886646Y-174665616D01*
X75927749Y-174686454D01*
X75965800Y-174707960D01*
X76000697Y-174730104D01*
X76032343Y-174752854D01*
X76060638Y-174776176D01*
X76085482Y-174800038D01*
X76106776Y-174824409D01*
X76124421Y-174849256D01*
X76138318Y-174874547D01*
X76148368Y-174900249D01*
X76154470Y-174926330D01*
X76156526Y-174952758D01*
X76154470Y-174979187D01*
X76148368Y-175005268D01*
X76138318Y-175030970D01*
X76124421Y-175056261D01*
X76085482Y-175105479D01*
X76032343Y-175152663D01*
X75965800Y-175197557D01*
X75886646Y-175239901D01*
X75795676Y-175279437D01*
X75693684Y-175315908D01*
X75581465Y-175349055D01*
X75459813Y-175378619D01*
X75329522Y-175404344D01*
X75191386Y-175425970D01*
X75046201Y-175443240D01*
X74894759Y-175455895D01*
X74737856Y-175463678D01*
X74576286Y-175466329D01*
X74414716Y-175463678D01*
X74257813Y-175455895D01*
X74106371Y-175443240D01*
X73961186Y-175425970D01*
X73823050Y-175404344D01*
X73692759Y-175378619D01*
X73630803Y-175364301D01*
X73571107Y-175349055D01*
X73513769Y-175332913D01*
X73458888Y-175315908D01*
X73406564Y-175298072D01*
X73356896Y-175279437D01*
X73309984Y-175260036D01*
X73265926Y-175239901D01*
X73224823Y-175219063D01*
X73186772Y-175197557D01*
X73151875Y-175175412D01*
X73120229Y-175152663D01*
X73091934Y-175129341D01*
X73067090Y-175105479D01*
X73045796Y-175081108D01*
X73028151Y-175056261D01*
X73014254Y-175030970D01*
X73004204Y-175005268D01*
X72998102Y-174979187D01*
X72996046Y-174952758D01*
X72998102Y-174926330D01*
X73004204Y-174900249D01*
X73014254Y-174874547D01*
X73028151Y-174849256D01*
X73067090Y-174800038D01*
X73120229Y-174752854D01*
X73186772Y-174707960D01*
X73265926Y-174665616D01*
X73356896Y-174626080D01*
X73458888Y-174589609D01*
X73571107Y-174556462D01*
X73692759Y-174526898D01*
X73823050Y-174501173D01*
X73961186Y-174479547D01*
X74106371Y-174462277D01*
X74257813Y-174449622D01*
X74414716Y-174441839D01*
X74576286Y-174439188D01*
X74737856Y-174441839D01*
G37*
D11*
X102411142Y-59075009D02*
X102268285Y-59122628D01*
X102268285Y-59122628D02*
X102220666Y-59170247D01*
X102220666Y-59170247D02*
X102173047Y-59265485D01*
X102173047Y-59265485D02*
X102173047Y-59408342D01*
X102173047Y-59408342D02*
X102220666Y-59503580D01*
X102220666Y-59503580D02*
X102268285Y-59551200D01*
X102268285Y-59551200D02*
X102363523Y-59598819D01*
X102363523Y-59598819D02*
X102744475Y-59598819D01*
X102744475Y-59598819D02*
X102744475Y-58598819D01*
X102744475Y-58598819D02*
X102411142Y-58598819D01*
X102411142Y-58598819D02*
X102315904Y-58646438D01*
X102315904Y-58646438D02*
X102268285Y-58694057D01*
X102268285Y-58694057D02*
X102220666Y-58789295D01*
X102220666Y-58789295D02*
X102220666Y-58884533D01*
X102220666Y-58884533D02*
X102268285Y-58979771D01*
X102268285Y-58979771D02*
X102315904Y-59027390D01*
X102315904Y-59027390D02*
X102411142Y-59075009D01*
X102411142Y-59075009D02*
X102744475Y-59075009D01*
X101553999Y-58598819D02*
X101363523Y-58598819D01*
X101363523Y-58598819D02*
X101268285Y-58646438D01*
X101268285Y-58646438D02*
X101173047Y-58741676D01*
X101173047Y-58741676D02*
X101125428Y-58932152D01*
X101125428Y-58932152D02*
X101125428Y-59265485D01*
X101125428Y-59265485D02*
X101173047Y-59455961D01*
X101173047Y-59455961D02*
X101268285Y-59551200D01*
X101268285Y-59551200D02*
X101363523Y-59598819D01*
X101363523Y-59598819D02*
X101553999Y-59598819D01*
X101553999Y-59598819D02*
X101649237Y-59551200D01*
X101649237Y-59551200D02*
X101744475Y-59455961D01*
X101744475Y-59455961D02*
X101792094Y-59265485D01*
X101792094Y-59265485D02*
X101792094Y-58932152D01*
X101792094Y-58932152D02*
X101744475Y-58741676D01*
X101744475Y-58741676D02*
X101649237Y-58646438D01*
X101649237Y-58646438D02*
X101553999Y-58598819D01*
X100506380Y-58598819D02*
X100315904Y-58598819D01*
X100315904Y-58598819D02*
X100220666Y-58646438D01*
X100220666Y-58646438D02*
X100125428Y-58741676D01*
X100125428Y-58741676D02*
X100077809Y-58932152D01*
X100077809Y-58932152D02*
X100077809Y-59265485D01*
X100077809Y-59265485D02*
X100125428Y-59455961D01*
X100125428Y-59455961D02*
X100220666Y-59551200D01*
X100220666Y-59551200D02*
X100315904Y-59598819D01*
X100315904Y-59598819D02*
X100506380Y-59598819D01*
X100506380Y-59598819D02*
X100601618Y-59551200D01*
X100601618Y-59551200D02*
X100696856Y-59455961D01*
X100696856Y-59455961D02*
X100744475Y-59265485D01*
X100744475Y-59265485D02*
X100744475Y-58932152D01*
X100744475Y-58932152D02*
X100696856Y-58741676D01*
X100696856Y-58741676D02*
X100601618Y-58646438D01*
X100601618Y-58646438D02*
X100506380Y-58598819D01*
X99792094Y-58598819D02*
X99220666Y-58598819D01*
X99506380Y-59598819D02*
X99506380Y-58598819D01*
X187373713Y-84506819D02*
X187040380Y-85506819D01*
X187040380Y-85506819D02*
X186707047Y-84506819D01*
X186373713Y-85506819D02*
X186373713Y-84506819D01*
X185897523Y-84983009D02*
X185564190Y-84983009D01*
X185421333Y-85506819D02*
X185897523Y-85506819D01*
X185897523Y-85506819D02*
X185897523Y-84506819D01*
X185897523Y-84506819D02*
X185421333Y-84506819D01*
X185087999Y-84506819D02*
X184849904Y-85506819D01*
X184849904Y-85506819D02*
X184659428Y-84792533D01*
X184659428Y-84792533D02*
X184468952Y-85506819D01*
X184468952Y-85506819D02*
X184230857Y-84506819D01*
X183135619Y-84459200D02*
X183992761Y-85744914D01*
X182849904Y-85459200D02*
X182707047Y-85506819D01*
X182707047Y-85506819D02*
X182468952Y-85506819D01*
X182468952Y-85506819D02*
X182373714Y-85459200D01*
X182373714Y-85459200D02*
X182326095Y-85411580D01*
X182326095Y-85411580D02*
X182278476Y-85316342D01*
X182278476Y-85316342D02*
X182278476Y-85221104D01*
X182278476Y-85221104D02*
X182326095Y-85125866D01*
X182326095Y-85125866D02*
X182373714Y-85078247D01*
X182373714Y-85078247D02*
X182468952Y-85030628D01*
X182468952Y-85030628D02*
X182659428Y-84983009D01*
X182659428Y-84983009D02*
X182754666Y-84935390D01*
X182754666Y-84935390D02*
X182802285Y-84887771D01*
X182802285Y-84887771D02*
X182849904Y-84792533D01*
X182849904Y-84792533D02*
X182849904Y-84697295D01*
X182849904Y-84697295D02*
X182802285Y-84602057D01*
X182802285Y-84602057D02*
X182754666Y-84554438D01*
X182754666Y-84554438D02*
X182659428Y-84506819D01*
X182659428Y-84506819D02*
X182421333Y-84506819D01*
X182421333Y-84506819D02*
X182278476Y-84554438D01*
X181849904Y-84983009D02*
X181516571Y-84983009D01*
X181373714Y-85506819D02*
X181849904Y-85506819D01*
X181849904Y-85506819D02*
X181849904Y-84506819D01*
X181849904Y-84506819D02*
X181373714Y-84506819D01*
X180468952Y-85506819D02*
X180945142Y-85506819D01*
X180945142Y-85506819D02*
X180945142Y-84506819D01*
X180135618Y-84983009D02*
X179802285Y-84983009D01*
X179659428Y-85506819D02*
X180135618Y-85506819D01*
X180135618Y-85506819D02*
X180135618Y-84506819D01*
X180135618Y-84506819D02*
X179659428Y-84506819D01*
X178659428Y-85411580D02*
X178707047Y-85459200D01*
X178707047Y-85459200D02*
X178849904Y-85506819D01*
X178849904Y-85506819D02*
X178945142Y-85506819D01*
X178945142Y-85506819D02*
X179087999Y-85459200D01*
X179087999Y-85459200D02*
X179183237Y-85363961D01*
X179183237Y-85363961D02*
X179230856Y-85268723D01*
X179230856Y-85268723D02*
X179278475Y-85078247D01*
X179278475Y-85078247D02*
X179278475Y-84935390D01*
X179278475Y-84935390D02*
X179230856Y-84744914D01*
X179230856Y-84744914D02*
X179183237Y-84649676D01*
X179183237Y-84649676D02*
X179087999Y-84554438D01*
X179087999Y-84554438D02*
X178945142Y-84506819D01*
X178945142Y-84506819D02*
X178849904Y-84506819D01*
X178849904Y-84506819D02*
X178707047Y-84554438D01*
X178707047Y-84554438D02*
X178659428Y-84602057D01*
X178373713Y-84506819D02*
X177802285Y-84506819D01*
X178087999Y-85506819D02*
X178087999Y-84506819D01*
X236602476Y-100238819D02*
X236935809Y-99762628D01*
X237173904Y-100238819D02*
X237173904Y-99238819D01*
X237173904Y-99238819D02*
X236792952Y-99238819D01*
X236792952Y-99238819D02*
X236697714Y-99286438D01*
X236697714Y-99286438D02*
X236650095Y-99334057D01*
X236650095Y-99334057D02*
X236602476Y-99429295D01*
X236602476Y-99429295D02*
X236602476Y-99572152D01*
X236602476Y-99572152D02*
X236650095Y-99667390D01*
X236650095Y-99667390D02*
X236697714Y-99715009D01*
X236697714Y-99715009D02*
X236792952Y-99762628D01*
X236792952Y-99762628D02*
X237173904Y-99762628D01*
X235840571Y-99715009D02*
X235697714Y-99762628D01*
X235697714Y-99762628D02*
X235650095Y-99810247D01*
X235650095Y-99810247D02*
X235602476Y-99905485D01*
X235602476Y-99905485D02*
X235602476Y-100048342D01*
X235602476Y-100048342D02*
X235650095Y-100143580D01*
X235650095Y-100143580D02*
X235697714Y-100191200D01*
X235697714Y-100191200D02*
X235792952Y-100238819D01*
X235792952Y-100238819D02*
X236173904Y-100238819D01*
X236173904Y-100238819D02*
X236173904Y-99238819D01*
X236173904Y-99238819D02*
X235840571Y-99238819D01*
X235840571Y-99238819D02*
X235745333Y-99286438D01*
X235745333Y-99286438D02*
X235697714Y-99334057D01*
X235697714Y-99334057D02*
X235650095Y-99429295D01*
X235650095Y-99429295D02*
X235650095Y-99524533D01*
X235650095Y-99524533D02*
X235697714Y-99619771D01*
X235697714Y-99619771D02*
X235745333Y-99667390D01*
X235745333Y-99667390D02*
X235840571Y-99715009D01*
X235840571Y-99715009D02*
X236173904Y-99715009D01*
X234459619Y-99191200D02*
X235316761Y-100476914D01*
X233554857Y-100238819D02*
X233888190Y-99762628D01*
X234126285Y-100238819D02*
X234126285Y-99238819D01*
X234126285Y-99238819D02*
X233745333Y-99238819D01*
X233745333Y-99238819D02*
X233650095Y-99286438D01*
X233650095Y-99286438D02*
X233602476Y-99334057D01*
X233602476Y-99334057D02*
X233554857Y-99429295D01*
X233554857Y-99429295D02*
X233554857Y-99572152D01*
X233554857Y-99572152D02*
X233602476Y-99667390D01*
X233602476Y-99667390D02*
X233650095Y-99715009D01*
X233650095Y-99715009D02*
X233745333Y-99762628D01*
X233745333Y-99762628D02*
X234126285Y-99762628D01*
X232602476Y-100238819D02*
X233173904Y-100238819D01*
X232888190Y-100238819D02*
X232888190Y-99238819D01*
X232888190Y-99238819D02*
X232983428Y-99381676D01*
X232983428Y-99381676D02*
X233078666Y-99476914D01*
X233078666Y-99476914D02*
X233173904Y-99524533D01*
X90811220Y-189950819D02*
X90811220Y-188950819D01*
X90382649Y-189950819D02*
X90382649Y-189427009D01*
X90382649Y-189427009D02*
X90430268Y-189331771D01*
X90430268Y-189331771D02*
X90525506Y-189284152D01*
X90525506Y-189284152D02*
X90668363Y-189284152D01*
X90668363Y-189284152D02*
X90763601Y-189331771D01*
X90763601Y-189331771D02*
X90811220Y-189379390D01*
X90049315Y-189284152D02*
X89668363Y-189284152D01*
X89906458Y-188950819D02*
X89906458Y-189807961D01*
X89906458Y-189807961D02*
X89858839Y-189903200D01*
X89858839Y-189903200D02*
X89763601Y-189950819D01*
X89763601Y-189950819D02*
X89668363Y-189950819D01*
X89477886Y-189284152D02*
X89096934Y-189284152D01*
X89335029Y-188950819D02*
X89335029Y-189807961D01*
X89335029Y-189807961D02*
X89287410Y-189903200D01*
X89287410Y-189903200D02*
X89192172Y-189950819D01*
X89192172Y-189950819D02*
X89096934Y-189950819D01*
X88763600Y-189284152D02*
X88763600Y-190284152D01*
X88763600Y-189331771D02*
X88668362Y-189284152D01*
X88668362Y-189284152D02*
X88477886Y-189284152D01*
X88477886Y-189284152D02*
X88382648Y-189331771D01*
X88382648Y-189331771D02*
X88335029Y-189379390D01*
X88335029Y-189379390D02*
X88287410Y-189474628D01*
X88287410Y-189474628D02*
X88287410Y-189760342D01*
X88287410Y-189760342D02*
X88335029Y-189855580D01*
X88335029Y-189855580D02*
X88382648Y-189903200D01*
X88382648Y-189903200D02*
X88477886Y-189950819D01*
X88477886Y-189950819D02*
X88668362Y-189950819D01*
X88668362Y-189950819D02*
X88763600Y-189903200D01*
X87906457Y-189903200D02*
X87811219Y-189950819D01*
X87811219Y-189950819D02*
X87620743Y-189950819D01*
X87620743Y-189950819D02*
X87525505Y-189903200D01*
X87525505Y-189903200D02*
X87477886Y-189807961D01*
X87477886Y-189807961D02*
X87477886Y-189760342D01*
X87477886Y-189760342D02*
X87525505Y-189665104D01*
X87525505Y-189665104D02*
X87620743Y-189617485D01*
X87620743Y-189617485D02*
X87763600Y-189617485D01*
X87763600Y-189617485D02*
X87858838Y-189569866D01*
X87858838Y-189569866D02*
X87906457Y-189474628D01*
X87906457Y-189474628D02*
X87906457Y-189427009D01*
X87906457Y-189427009D02*
X87858838Y-189331771D01*
X87858838Y-189331771D02*
X87763600Y-189284152D01*
X87763600Y-189284152D02*
X87620743Y-189284152D01*
X87620743Y-189284152D02*
X87525505Y-189331771D01*
X87049314Y-189855580D02*
X87001695Y-189903200D01*
X87001695Y-189903200D02*
X87049314Y-189950819D01*
X87049314Y-189950819D02*
X87096933Y-189903200D01*
X87096933Y-189903200D02*
X87049314Y-189855580D01*
X87049314Y-189855580D02*
X87049314Y-189950819D01*
X87049314Y-189331771D02*
X87001695Y-189379390D01*
X87001695Y-189379390D02*
X87049314Y-189427009D01*
X87049314Y-189427009D02*
X87096933Y-189379390D01*
X87096933Y-189379390D02*
X87049314Y-189331771D01*
X87049314Y-189331771D02*
X87049314Y-189427009D01*
X85858839Y-188903200D02*
X86715981Y-190188914D01*
X84811220Y-188903200D02*
X85668362Y-190188914D01*
X84049315Y-189284152D02*
X84049315Y-190093676D01*
X84049315Y-190093676D02*
X84096934Y-190188914D01*
X84096934Y-190188914D02*
X84144553Y-190236533D01*
X84144553Y-190236533D02*
X84239791Y-190284152D01*
X84239791Y-190284152D02*
X84382648Y-190284152D01*
X84382648Y-190284152D02*
X84477886Y-190236533D01*
X84049315Y-189903200D02*
X84144553Y-189950819D01*
X84144553Y-189950819D02*
X84335029Y-189950819D01*
X84335029Y-189950819D02*
X84430267Y-189903200D01*
X84430267Y-189903200D02*
X84477886Y-189855580D01*
X84477886Y-189855580D02*
X84525505Y-189760342D01*
X84525505Y-189760342D02*
X84525505Y-189474628D01*
X84525505Y-189474628D02*
X84477886Y-189379390D01*
X84477886Y-189379390D02*
X84430267Y-189331771D01*
X84430267Y-189331771D02*
X84335029Y-189284152D01*
X84335029Y-189284152D02*
X84144553Y-189284152D01*
X84144553Y-189284152D02*
X84049315Y-189331771D01*
X83573124Y-189950819D02*
X83573124Y-189284152D01*
X83573124Y-188950819D02*
X83620743Y-188998438D01*
X83620743Y-188998438D02*
X83573124Y-189046057D01*
X83573124Y-189046057D02*
X83525505Y-188998438D01*
X83525505Y-188998438D02*
X83573124Y-188950819D01*
X83573124Y-188950819D02*
X83573124Y-189046057D01*
X83239791Y-189284152D02*
X82858839Y-189284152D01*
X83096934Y-188950819D02*
X83096934Y-189807961D01*
X83096934Y-189807961D02*
X83049315Y-189903200D01*
X83049315Y-189903200D02*
X82954077Y-189950819D01*
X82954077Y-189950819D02*
X82858839Y-189950819D01*
X82525505Y-189950819D02*
X82525505Y-188950819D01*
X82096934Y-189950819D02*
X82096934Y-189427009D01*
X82096934Y-189427009D02*
X82144553Y-189331771D01*
X82144553Y-189331771D02*
X82239791Y-189284152D01*
X82239791Y-189284152D02*
X82382648Y-189284152D01*
X82382648Y-189284152D02*
X82477886Y-189331771D01*
X82477886Y-189331771D02*
X82525505Y-189379390D01*
X81192172Y-189284152D02*
X81192172Y-189950819D01*
X81620743Y-189284152D02*
X81620743Y-189807961D01*
X81620743Y-189807961D02*
X81573124Y-189903200D01*
X81573124Y-189903200D02*
X81477886Y-189950819D01*
X81477886Y-189950819D02*
X81335029Y-189950819D01*
X81335029Y-189950819D02*
X81239791Y-189903200D01*
X81239791Y-189903200D02*
X81192172Y-189855580D01*
X80715981Y-189950819D02*
X80715981Y-188950819D01*
X80715981Y-189331771D02*
X80620743Y-189284152D01*
X80620743Y-189284152D02*
X80430267Y-189284152D01*
X80430267Y-189284152D02*
X80335029Y-189331771D01*
X80335029Y-189331771D02*
X80287410Y-189379390D01*
X80287410Y-189379390D02*
X80239791Y-189474628D01*
X80239791Y-189474628D02*
X80239791Y-189760342D01*
X80239791Y-189760342D02*
X80287410Y-189855580D01*
X80287410Y-189855580D02*
X80335029Y-189903200D01*
X80335029Y-189903200D02*
X80430267Y-189950819D01*
X80430267Y-189950819D02*
X80620743Y-189950819D01*
X80620743Y-189950819D02*
X80715981Y-189903200D01*
X79811219Y-189855580D02*
X79763600Y-189903200D01*
X79763600Y-189903200D02*
X79811219Y-189950819D01*
X79811219Y-189950819D02*
X79858838Y-189903200D01*
X79858838Y-189903200D02*
X79811219Y-189855580D01*
X79811219Y-189855580D02*
X79811219Y-189950819D01*
X78906458Y-189903200D02*
X79001696Y-189950819D01*
X79001696Y-189950819D02*
X79192172Y-189950819D01*
X79192172Y-189950819D02*
X79287410Y-189903200D01*
X79287410Y-189903200D02*
X79335029Y-189855580D01*
X79335029Y-189855580D02*
X79382648Y-189760342D01*
X79382648Y-189760342D02*
X79382648Y-189474628D01*
X79382648Y-189474628D02*
X79335029Y-189379390D01*
X79335029Y-189379390D02*
X79287410Y-189331771D01*
X79287410Y-189331771D02*
X79192172Y-189284152D01*
X79192172Y-189284152D02*
X79001696Y-189284152D01*
X79001696Y-189284152D02*
X78906458Y-189331771D01*
X78335029Y-189950819D02*
X78430267Y-189903200D01*
X78430267Y-189903200D02*
X78477886Y-189855580D01*
X78477886Y-189855580D02*
X78525505Y-189760342D01*
X78525505Y-189760342D02*
X78525505Y-189474628D01*
X78525505Y-189474628D02*
X78477886Y-189379390D01*
X78477886Y-189379390D02*
X78430267Y-189331771D01*
X78430267Y-189331771D02*
X78335029Y-189284152D01*
X78335029Y-189284152D02*
X78192172Y-189284152D01*
X78192172Y-189284152D02*
X78096934Y-189331771D01*
X78096934Y-189331771D02*
X78049315Y-189379390D01*
X78049315Y-189379390D02*
X78001696Y-189474628D01*
X78001696Y-189474628D02*
X78001696Y-189760342D01*
X78001696Y-189760342D02*
X78049315Y-189855580D01*
X78049315Y-189855580D02*
X78096934Y-189903200D01*
X78096934Y-189903200D02*
X78192172Y-189950819D01*
X78192172Y-189950819D02*
X78335029Y-189950819D01*
X77573124Y-189950819D02*
X77573124Y-189284152D01*
X77573124Y-189379390D02*
X77525505Y-189331771D01*
X77525505Y-189331771D02*
X77430267Y-189284152D01*
X77430267Y-189284152D02*
X77287410Y-189284152D01*
X77287410Y-189284152D02*
X77192172Y-189331771D01*
X77192172Y-189331771D02*
X77144553Y-189427009D01*
X77144553Y-189427009D02*
X77144553Y-189950819D01*
X77144553Y-189427009D02*
X77096934Y-189331771D01*
X77096934Y-189331771D02*
X77001696Y-189284152D01*
X77001696Y-189284152D02*
X76858839Y-189284152D01*
X76858839Y-189284152D02*
X76763600Y-189331771D01*
X76763600Y-189331771D02*
X76715981Y-189427009D01*
X76715981Y-189427009D02*
X76715981Y-189950819D01*
X75525506Y-188903200D02*
X76382648Y-190188914D01*
X75192172Y-189950819D02*
X75192172Y-189284152D01*
X75192172Y-189379390D02*
X75144553Y-189331771D01*
X75144553Y-189331771D02*
X75049315Y-189284152D01*
X75049315Y-189284152D02*
X74906458Y-189284152D01*
X74906458Y-189284152D02*
X74811220Y-189331771D01*
X74811220Y-189331771D02*
X74763601Y-189427009D01*
X74763601Y-189427009D02*
X74763601Y-189950819D01*
X74763601Y-189427009D02*
X74715982Y-189331771D01*
X74715982Y-189331771D02*
X74620744Y-189284152D01*
X74620744Y-189284152D02*
X74477887Y-189284152D01*
X74477887Y-189284152D02*
X74382648Y-189331771D01*
X74382648Y-189331771D02*
X74335029Y-189427009D01*
X74335029Y-189427009D02*
X74335029Y-189950819D01*
X73858839Y-189950819D02*
X73858839Y-189284152D01*
X73858839Y-188950819D02*
X73906458Y-188998438D01*
X73906458Y-188998438D02*
X73858839Y-189046057D01*
X73858839Y-189046057D02*
X73811220Y-188998438D01*
X73811220Y-188998438D02*
X73858839Y-188950819D01*
X73858839Y-188950819D02*
X73858839Y-189046057D01*
X73477887Y-189284152D02*
X72954078Y-189284152D01*
X72954078Y-189284152D02*
X73477887Y-189950819D01*
X73477887Y-189950819D02*
X72954078Y-189950819D01*
X72573125Y-189950819D02*
X72573125Y-189284152D01*
X72573125Y-189379390D02*
X72525506Y-189331771D01*
X72525506Y-189331771D02*
X72430268Y-189284152D01*
X72430268Y-189284152D02*
X72287411Y-189284152D01*
X72287411Y-189284152D02*
X72192173Y-189331771D01*
X72192173Y-189331771D02*
X72144554Y-189427009D01*
X72144554Y-189427009D02*
X72144554Y-189950819D01*
X72144554Y-189427009D02*
X72096935Y-189331771D01*
X72096935Y-189331771D02*
X72001697Y-189284152D01*
X72001697Y-189284152D02*
X71858840Y-189284152D01*
X71858840Y-189284152D02*
X71763601Y-189331771D01*
X71763601Y-189331771D02*
X71715982Y-189427009D01*
X71715982Y-189427009D02*
X71715982Y-189950819D01*
X70811221Y-189950819D02*
X70811221Y-189427009D01*
X70811221Y-189427009D02*
X70858840Y-189331771D01*
X70858840Y-189331771D02*
X70954078Y-189284152D01*
X70954078Y-189284152D02*
X71144554Y-189284152D01*
X71144554Y-189284152D02*
X71239792Y-189331771D01*
X70811221Y-189903200D02*
X70906459Y-189950819D01*
X70906459Y-189950819D02*
X71144554Y-189950819D01*
X71144554Y-189950819D02*
X71239792Y-189903200D01*
X71239792Y-189903200D02*
X71287411Y-189807961D01*
X71287411Y-189807961D02*
X71287411Y-189712723D01*
X71287411Y-189712723D02*
X71239792Y-189617485D01*
X71239792Y-189617485D02*
X71144554Y-189569866D01*
X71144554Y-189569866D02*
X70906459Y-189569866D01*
X70906459Y-189569866D02*
X70811221Y-189522247D01*
X69620745Y-188903200D02*
X70477887Y-190188914D01*
X68906459Y-189903200D02*
X69001697Y-189950819D01*
X69001697Y-189950819D02*
X69192173Y-189950819D01*
X69192173Y-189950819D02*
X69287411Y-189903200D01*
X69287411Y-189903200D02*
X69335030Y-189807961D01*
X69335030Y-189807961D02*
X69335030Y-189427009D01*
X69335030Y-189427009D02*
X69287411Y-189331771D01*
X69287411Y-189331771D02*
X69192173Y-189284152D01*
X69192173Y-189284152D02*
X69001697Y-189284152D01*
X69001697Y-189284152D02*
X68906459Y-189331771D01*
X68906459Y-189331771D02*
X68858840Y-189427009D01*
X68858840Y-189427009D02*
X68858840Y-189522247D01*
X68858840Y-189522247D02*
X69335030Y-189617485D01*
X68430268Y-189950819D02*
X68430268Y-189284152D01*
X68430268Y-189474628D02*
X68382649Y-189379390D01*
X68382649Y-189379390D02*
X68335030Y-189331771D01*
X68335030Y-189331771D02*
X68239792Y-189284152D01*
X68239792Y-189284152D02*
X68144554Y-189284152D01*
X67382649Y-189284152D02*
X67382649Y-190093676D01*
X67382649Y-190093676D02*
X67430268Y-190188914D01*
X67430268Y-190188914D02*
X67477887Y-190236533D01*
X67477887Y-190236533D02*
X67573125Y-190284152D01*
X67573125Y-190284152D02*
X67715982Y-190284152D01*
X67715982Y-190284152D02*
X67811220Y-190236533D01*
X67382649Y-189903200D02*
X67477887Y-189950819D01*
X67477887Y-189950819D02*
X67668363Y-189950819D01*
X67668363Y-189950819D02*
X67763601Y-189903200D01*
X67763601Y-189903200D02*
X67811220Y-189855580D01*
X67811220Y-189855580D02*
X67858839Y-189760342D01*
X67858839Y-189760342D02*
X67858839Y-189474628D01*
X67858839Y-189474628D02*
X67811220Y-189379390D01*
X67811220Y-189379390D02*
X67763601Y-189331771D01*
X67763601Y-189331771D02*
X67668363Y-189284152D01*
X67668363Y-189284152D02*
X67477887Y-189284152D01*
X67477887Y-189284152D02*
X67382649Y-189331771D01*
X66763601Y-189950819D02*
X66858839Y-189903200D01*
X66858839Y-189903200D02*
X66906458Y-189855580D01*
X66906458Y-189855580D02*
X66954077Y-189760342D01*
X66954077Y-189760342D02*
X66954077Y-189474628D01*
X66954077Y-189474628D02*
X66906458Y-189379390D01*
X66906458Y-189379390D02*
X66858839Y-189331771D01*
X66858839Y-189331771D02*
X66763601Y-189284152D01*
X66763601Y-189284152D02*
X66620744Y-189284152D01*
X66620744Y-189284152D02*
X66525506Y-189331771D01*
X66525506Y-189331771D02*
X66477887Y-189379390D01*
X66477887Y-189379390D02*
X66430268Y-189474628D01*
X66430268Y-189474628D02*
X66430268Y-189760342D01*
X66430268Y-189760342D02*
X66477887Y-189855580D01*
X66477887Y-189855580D02*
X66525506Y-189903200D01*
X66525506Y-189903200D02*
X66620744Y-189950819D01*
X66620744Y-189950819D02*
X66763601Y-189950819D01*
X66049315Y-189903200D02*
X65906458Y-189950819D01*
X65906458Y-189950819D02*
X65668363Y-189950819D01*
X65668363Y-189950819D02*
X65573125Y-189903200D01*
X65573125Y-189903200D02*
X65525506Y-189855580D01*
X65525506Y-189855580D02*
X65477887Y-189760342D01*
X65477887Y-189760342D02*
X65477887Y-189665104D01*
X65477887Y-189665104D02*
X65525506Y-189569866D01*
X65525506Y-189569866D02*
X65573125Y-189522247D01*
X65573125Y-189522247D02*
X65668363Y-189474628D01*
X65668363Y-189474628D02*
X65858839Y-189427009D01*
X65858839Y-189427009D02*
X65954077Y-189379390D01*
X65954077Y-189379390D02*
X66001696Y-189331771D01*
X66001696Y-189331771D02*
X66049315Y-189236533D01*
X66049315Y-189236533D02*
X66049315Y-189141295D01*
X66049315Y-189141295D02*
X66001696Y-189046057D01*
X66001696Y-189046057D02*
X65954077Y-188998438D01*
X65954077Y-188998438D02*
X65858839Y-188950819D01*
X65858839Y-188950819D02*
X65620744Y-188950819D01*
X65620744Y-188950819D02*
X65477887Y-188998438D01*
X65049315Y-189950819D02*
X65049315Y-188950819D01*
X65049315Y-189427009D02*
X64477887Y-189427009D01*
X64477887Y-189950819D02*
X64477887Y-188950819D01*
X64001696Y-189950819D02*
X64001696Y-188950819D01*
X63192173Y-189427009D02*
X63525506Y-189427009D01*
X63525506Y-189950819D02*
X63525506Y-188950819D01*
X63525506Y-188950819D02*
X63049316Y-188950819D01*
X62811220Y-188950819D02*
X62239792Y-188950819D01*
X62525506Y-189950819D02*
X62525506Y-188950819D01*
X209186381Y-59852819D02*
X209519714Y-59376628D01*
X209757809Y-59852819D02*
X209757809Y-58852819D01*
X209757809Y-58852819D02*
X209376857Y-58852819D01*
X209376857Y-58852819D02*
X209281619Y-58900438D01*
X209281619Y-58900438D02*
X209234000Y-58948057D01*
X209234000Y-58948057D02*
X209186381Y-59043295D01*
X209186381Y-59043295D02*
X209186381Y-59186152D01*
X209186381Y-59186152D02*
X209234000Y-59281390D01*
X209234000Y-59281390D02*
X209281619Y-59329009D01*
X209281619Y-59329009D02*
X209376857Y-59376628D01*
X209376857Y-59376628D02*
X209757809Y-59376628D01*
X208757809Y-59329009D02*
X208424476Y-59329009D01*
X208281619Y-59852819D02*
X208757809Y-59852819D01*
X208757809Y-59852819D02*
X208757809Y-58852819D01*
X208757809Y-58852819D02*
X208281619Y-58852819D01*
X207900666Y-59805200D02*
X207757809Y-59852819D01*
X207757809Y-59852819D02*
X207519714Y-59852819D01*
X207519714Y-59852819D02*
X207424476Y-59805200D01*
X207424476Y-59805200D02*
X207376857Y-59757580D01*
X207376857Y-59757580D02*
X207329238Y-59662342D01*
X207329238Y-59662342D02*
X207329238Y-59567104D01*
X207329238Y-59567104D02*
X207376857Y-59471866D01*
X207376857Y-59471866D02*
X207424476Y-59424247D01*
X207424476Y-59424247D02*
X207519714Y-59376628D01*
X207519714Y-59376628D02*
X207710190Y-59329009D01*
X207710190Y-59329009D02*
X207805428Y-59281390D01*
X207805428Y-59281390D02*
X207853047Y-59233771D01*
X207853047Y-59233771D02*
X207900666Y-59138533D01*
X207900666Y-59138533D02*
X207900666Y-59043295D01*
X207900666Y-59043295D02*
X207853047Y-58948057D01*
X207853047Y-58948057D02*
X207805428Y-58900438D01*
X207805428Y-58900438D02*
X207710190Y-58852819D01*
X207710190Y-58852819D02*
X207472095Y-58852819D01*
X207472095Y-58852819D02*
X207329238Y-58900438D01*
X206900666Y-59329009D02*
X206567333Y-59329009D01*
X206424476Y-59852819D02*
X206900666Y-59852819D01*
X206900666Y-59852819D02*
X206900666Y-58852819D01*
X206900666Y-58852819D02*
X206424476Y-58852819D01*
X206138761Y-58852819D02*
X205567333Y-58852819D01*
X205853047Y-59852819D02*
X205853047Y-58852819D01*
X152568190Y-157134819D02*
X153044380Y-157134819D01*
X153044380Y-157134819D02*
X153044380Y-156134819D01*
X152377713Y-156134819D02*
X151806285Y-156134819D01*
X152091999Y-157134819D02*
X152091999Y-156134819D01*
X150758666Y-156087200D02*
X151615808Y-157372914D01*
X149949142Y-157134819D02*
X150425332Y-157134819D01*
X150425332Y-157134819D02*
X150425332Y-156134819D01*
X149663427Y-156230057D02*
X149615808Y-156182438D01*
X149615808Y-156182438D02*
X149520570Y-156134819D01*
X149520570Y-156134819D02*
X149282475Y-156134819D01*
X149282475Y-156134819D02*
X149187237Y-156182438D01*
X149187237Y-156182438D02*
X149139618Y-156230057D01*
X149139618Y-156230057D02*
X149091999Y-156325295D01*
X149091999Y-156325295D02*
X149091999Y-156420533D01*
X149091999Y-156420533D02*
X149139618Y-156563390D01*
X149139618Y-156563390D02*
X149711046Y-157134819D01*
X149711046Y-157134819D02*
X149091999Y-157134819D01*
X93457428Y-56963580D02*
X92695524Y-56963580D01*
X93457428Y-56677866D02*
X92695524Y-56677866D01*
X93457428Y-56392152D02*
X92695524Y-56392152D01*
X91505048Y-56011200D02*
X92362190Y-57296914D01*
X91219333Y-57011200D02*
X91076476Y-57058819D01*
X91076476Y-57058819D02*
X90838381Y-57058819D01*
X90838381Y-57058819D02*
X90743143Y-57011200D01*
X90743143Y-57011200D02*
X90695524Y-56963580D01*
X90695524Y-56963580D02*
X90647905Y-56868342D01*
X90647905Y-56868342D02*
X90647905Y-56773104D01*
X90647905Y-56773104D02*
X90695524Y-56677866D01*
X90695524Y-56677866D02*
X90743143Y-56630247D01*
X90743143Y-56630247D02*
X90838381Y-56582628D01*
X90838381Y-56582628D02*
X91028857Y-56535009D01*
X91028857Y-56535009D02*
X91124095Y-56487390D01*
X91124095Y-56487390D02*
X91171714Y-56439771D01*
X91171714Y-56439771D02*
X91219333Y-56344533D01*
X91219333Y-56344533D02*
X91219333Y-56249295D01*
X91219333Y-56249295D02*
X91171714Y-56154057D01*
X91171714Y-56154057D02*
X91124095Y-56106438D01*
X91124095Y-56106438D02*
X91028857Y-56058819D01*
X91028857Y-56058819D02*
X90790762Y-56058819D01*
X90790762Y-56058819D02*
X90647905Y-56106438D01*
X90362190Y-56058819D02*
X89790762Y-56058819D01*
X90076476Y-57058819D02*
X90076476Y-56058819D01*
X89505047Y-56773104D02*
X89028857Y-56773104D01*
X89600285Y-57058819D02*
X89266952Y-56058819D01*
X89266952Y-56058819D02*
X88933619Y-57058819D01*
X88028857Y-57058819D02*
X88362190Y-56582628D01*
X88600285Y-57058819D02*
X88600285Y-56058819D01*
X88600285Y-56058819D02*
X88219333Y-56058819D01*
X88219333Y-56058819D02*
X88124095Y-56106438D01*
X88124095Y-56106438D02*
X88076476Y-56154057D01*
X88076476Y-56154057D02*
X88028857Y-56249295D01*
X88028857Y-56249295D02*
X88028857Y-56392152D01*
X88028857Y-56392152D02*
X88076476Y-56487390D01*
X88076476Y-56487390D02*
X88124095Y-56535009D01*
X88124095Y-56535009D02*
X88219333Y-56582628D01*
X88219333Y-56582628D02*
X88600285Y-56582628D01*
X87743142Y-56058819D02*
X87171714Y-56058819D01*
X87457428Y-57058819D02*
X87457428Y-56058819D01*
X206082856Y-134005009D02*
X205939999Y-134052628D01*
X205939999Y-134052628D02*
X205892380Y-134100247D01*
X205892380Y-134100247D02*
X205844761Y-134195485D01*
X205844761Y-134195485D02*
X205844761Y-134338342D01*
X205844761Y-134338342D02*
X205892380Y-134433580D01*
X205892380Y-134433580D02*
X205939999Y-134481200D01*
X205939999Y-134481200D02*
X206035237Y-134528819D01*
X206035237Y-134528819D02*
X206416189Y-134528819D01*
X206416189Y-134528819D02*
X206416189Y-133528819D01*
X206416189Y-133528819D02*
X206082856Y-133528819D01*
X206082856Y-133528819D02*
X205987618Y-133576438D01*
X205987618Y-133576438D02*
X205939999Y-133624057D01*
X205939999Y-133624057D02*
X205892380Y-133719295D01*
X205892380Y-133719295D02*
X205892380Y-133814533D01*
X205892380Y-133814533D02*
X205939999Y-133909771D01*
X205939999Y-133909771D02*
X205987618Y-133957390D01*
X205987618Y-133957390D02*
X206082856Y-134005009D01*
X206082856Y-134005009D02*
X206416189Y-134005009D01*
X204701904Y-133481200D02*
X205559046Y-134766914D01*
X204035237Y-133528819D02*
X203797142Y-133528819D01*
X203797142Y-133528819D02*
X203606666Y-133624057D01*
X203606666Y-133624057D02*
X203511427Y-133719295D01*
X203511427Y-133719295D02*
X203416189Y-133909771D01*
X203416189Y-133909771D02*
X203416189Y-134147866D01*
X203416189Y-134147866D02*
X203511427Y-134338342D01*
X203511427Y-134338342D02*
X203606666Y-134433580D01*
X203606666Y-134433580D02*
X203797142Y-134528819D01*
X203797142Y-134528819D02*
X204035237Y-134528819D01*
X204035237Y-134528819D02*
X204225713Y-134433580D01*
X204225713Y-134433580D02*
X204320951Y-134338342D01*
X204320951Y-134338342D02*
X204416189Y-134147866D01*
X204416189Y-134147866D02*
X204416189Y-133909771D01*
X204416189Y-133909771D02*
X204320951Y-133719295D01*
X204320951Y-133719295D02*
X204225713Y-133624057D01*
X204225713Y-133624057D02*
X204035237Y-133528819D01*
X102172951Y-126146819D02*
X102172951Y-125146819D01*
X102172951Y-125146819D02*
X101934856Y-125146819D01*
X101934856Y-125146819D02*
X101791999Y-125194438D01*
X101791999Y-125194438D02*
X101696761Y-125289676D01*
X101696761Y-125289676D02*
X101649142Y-125384914D01*
X101649142Y-125384914D02*
X101601523Y-125575390D01*
X101601523Y-125575390D02*
X101601523Y-125718247D01*
X101601523Y-125718247D02*
X101649142Y-125908723D01*
X101649142Y-125908723D02*
X101696761Y-126003961D01*
X101696761Y-126003961D02*
X101791999Y-126099200D01*
X101791999Y-126099200D02*
X101934856Y-126146819D01*
X101934856Y-126146819D02*
X102172951Y-126146819D01*
X100982475Y-125146819D02*
X100791999Y-125146819D01*
X100791999Y-125146819D02*
X100696761Y-125194438D01*
X100696761Y-125194438D02*
X100601523Y-125289676D01*
X100601523Y-125289676D02*
X100553904Y-125480152D01*
X100553904Y-125480152D02*
X100553904Y-125813485D01*
X100553904Y-125813485D02*
X100601523Y-126003961D01*
X100601523Y-126003961D02*
X100696761Y-126099200D01*
X100696761Y-126099200D02*
X100791999Y-126146819D01*
X100791999Y-126146819D02*
X100982475Y-126146819D01*
X100982475Y-126146819D02*
X101077713Y-126099200D01*
X101077713Y-126099200D02*
X101172951Y-126003961D01*
X101172951Y-126003961D02*
X101220570Y-125813485D01*
X101220570Y-125813485D02*
X101220570Y-125480152D01*
X101220570Y-125480152D02*
X101172951Y-125289676D01*
X101172951Y-125289676D02*
X101077713Y-125194438D01*
X101077713Y-125194438D02*
X100982475Y-125146819D01*
X100220570Y-125146819D02*
X99982475Y-126146819D01*
X99982475Y-126146819D02*
X99791999Y-125432533D01*
X99791999Y-125432533D02*
X99601523Y-126146819D01*
X99601523Y-126146819D02*
X99363428Y-125146819D01*
X98982475Y-126146819D02*
X98982475Y-125146819D01*
X98982475Y-125146819D02*
X98411047Y-126146819D01*
X98411047Y-126146819D02*
X98411047Y-125146819D01*
X73018380Y-56106438D02*
X73113618Y-56058819D01*
X73113618Y-56058819D02*
X73256475Y-56058819D01*
X73256475Y-56058819D02*
X73399332Y-56106438D01*
X73399332Y-56106438D02*
X73494570Y-56201676D01*
X73494570Y-56201676D02*
X73542189Y-56296914D01*
X73542189Y-56296914D02*
X73589808Y-56487390D01*
X73589808Y-56487390D02*
X73589808Y-56630247D01*
X73589808Y-56630247D02*
X73542189Y-56820723D01*
X73542189Y-56820723D02*
X73494570Y-56915961D01*
X73494570Y-56915961D02*
X73399332Y-57011200D01*
X73399332Y-57011200D02*
X73256475Y-57058819D01*
X73256475Y-57058819D02*
X73161237Y-57058819D01*
X73161237Y-57058819D02*
X73018380Y-57011200D01*
X73018380Y-57011200D02*
X72970761Y-56963580D01*
X72970761Y-56963580D02*
X72970761Y-56630247D01*
X72970761Y-56630247D02*
X73161237Y-56630247D01*
X72542189Y-56058819D02*
X72542189Y-56868342D01*
X72542189Y-56868342D02*
X72494570Y-56963580D01*
X72494570Y-56963580D02*
X72446951Y-57011200D01*
X72446951Y-57011200D02*
X72351713Y-57058819D01*
X72351713Y-57058819D02*
X72161237Y-57058819D01*
X72161237Y-57058819D02*
X72065999Y-57011200D01*
X72065999Y-57011200D02*
X72018380Y-56963580D01*
X72018380Y-56963580D02*
X71970761Y-56868342D01*
X71970761Y-56868342D02*
X71970761Y-56058819D01*
X71494570Y-57058819D02*
X71494570Y-56058819D01*
X71018380Y-57058819D02*
X71018380Y-56058819D01*
X71018380Y-56058819D02*
X70780285Y-56058819D01*
X70780285Y-56058819D02*
X70637428Y-56106438D01*
X70637428Y-56106438D02*
X70542190Y-56201676D01*
X70542190Y-56201676D02*
X70494571Y-56296914D01*
X70494571Y-56296914D02*
X70446952Y-56487390D01*
X70446952Y-56487390D02*
X70446952Y-56630247D01*
X70446952Y-56630247D02*
X70494571Y-56820723D01*
X70494571Y-56820723D02*
X70542190Y-56915961D01*
X70542190Y-56915961D02*
X70637428Y-57011200D01*
X70637428Y-57011200D02*
X70780285Y-57058819D01*
X70780285Y-57058819D02*
X71018380Y-57058819D01*
X70018380Y-56535009D02*
X69685047Y-56535009D01*
X69542190Y-57058819D02*
X70018380Y-57058819D01*
X70018380Y-57058819D02*
X70018380Y-56058819D01*
X70018380Y-56058819D02*
X69542190Y-56058819D01*
X68399333Y-56011200D02*
X69256475Y-57296914D01*
X68065999Y-57058819D02*
X68065999Y-56058819D01*
X68065999Y-56058819D02*
X67685047Y-56058819D01*
X67685047Y-56058819D02*
X67589809Y-56106438D01*
X67589809Y-56106438D02*
X67542190Y-56154057D01*
X67542190Y-56154057D02*
X67494571Y-56249295D01*
X67494571Y-56249295D02*
X67494571Y-56392152D01*
X67494571Y-56392152D02*
X67542190Y-56487390D01*
X67542190Y-56487390D02*
X67589809Y-56535009D01*
X67589809Y-56535009D02*
X67685047Y-56582628D01*
X67685047Y-56582628D02*
X68065999Y-56582628D01*
X67113618Y-57011200D02*
X66970761Y-57058819D01*
X66970761Y-57058819D02*
X66732666Y-57058819D01*
X66732666Y-57058819D02*
X66637428Y-57011200D01*
X66637428Y-57011200D02*
X66589809Y-56963580D01*
X66589809Y-56963580D02*
X66542190Y-56868342D01*
X66542190Y-56868342D02*
X66542190Y-56773104D01*
X66542190Y-56773104D02*
X66589809Y-56677866D01*
X66589809Y-56677866D02*
X66637428Y-56630247D01*
X66637428Y-56630247D02*
X66732666Y-56582628D01*
X66732666Y-56582628D02*
X66923142Y-56535009D01*
X66923142Y-56535009D02*
X67018380Y-56487390D01*
X67018380Y-56487390D02*
X67065999Y-56439771D01*
X67065999Y-56439771D02*
X67113618Y-56344533D01*
X67113618Y-56344533D02*
X67113618Y-56249295D01*
X67113618Y-56249295D02*
X67065999Y-56154057D01*
X67065999Y-56154057D02*
X67018380Y-56106438D01*
X67018380Y-56106438D02*
X66923142Y-56058819D01*
X66923142Y-56058819D02*
X66685047Y-56058819D01*
X66685047Y-56058819D02*
X66542190Y-56106438D01*
X179142951Y-145419104D02*
X178666761Y-145419104D01*
X179238189Y-145704819D02*
X178904856Y-144704819D01*
X178904856Y-144704819D02*
X178571523Y-145704819D01*
X177523904Y-144657200D02*
X178381046Y-145942914D01*
X177095332Y-145038152D02*
X176523904Y-145609580D01*
X176523904Y-145038152D02*
X177095332Y-145609580D01*
X237753428Y-129956819D02*
X238086761Y-129480628D01*
X238324856Y-129956819D02*
X238324856Y-128956819D01*
X238324856Y-128956819D02*
X237943904Y-128956819D01*
X237943904Y-128956819D02*
X237848666Y-129004438D01*
X237848666Y-129004438D02*
X237801047Y-129052057D01*
X237801047Y-129052057D02*
X237753428Y-129147295D01*
X237753428Y-129147295D02*
X237753428Y-129290152D01*
X237753428Y-129290152D02*
X237801047Y-129385390D01*
X237801047Y-129385390D02*
X237848666Y-129433009D01*
X237848666Y-129433009D02*
X237943904Y-129480628D01*
X237943904Y-129480628D02*
X238324856Y-129480628D01*
X237467713Y-128956819D02*
X236896285Y-128956819D01*
X237181999Y-129956819D02*
X237181999Y-128956819D01*
X235848666Y-128909200D02*
X236705808Y-130194914D01*
X234943904Y-129956819D02*
X235277237Y-129480628D01*
X235515332Y-129956819D02*
X235515332Y-128956819D01*
X235515332Y-128956819D02*
X235134380Y-128956819D01*
X235134380Y-128956819D02*
X235039142Y-129004438D01*
X235039142Y-129004438D02*
X234991523Y-129052057D01*
X234991523Y-129052057D02*
X234943904Y-129147295D01*
X234943904Y-129147295D02*
X234943904Y-129290152D01*
X234943904Y-129290152D02*
X234991523Y-129385390D01*
X234991523Y-129385390D02*
X235039142Y-129433009D01*
X235039142Y-129433009D02*
X235134380Y-129480628D01*
X235134380Y-129480628D02*
X235515332Y-129480628D01*
X234562951Y-129052057D02*
X234515332Y-129004438D01*
X234515332Y-129004438D02*
X234420094Y-128956819D01*
X234420094Y-128956819D02*
X234181999Y-128956819D01*
X234181999Y-128956819D02*
X234086761Y-129004438D01*
X234086761Y-129004438D02*
X234039142Y-129052057D01*
X234039142Y-129052057D02*
X233991523Y-129147295D01*
X233991523Y-129147295D02*
X233991523Y-129242533D01*
X233991523Y-129242533D02*
X234039142Y-129385390D01*
X234039142Y-129385390D02*
X234610570Y-129956819D01*
X234610570Y-129956819D02*
X233991523Y-129956819D01*
X139685713Y-162992819D02*
X139685713Y-163802342D01*
X139685713Y-163802342D02*
X139638094Y-163897580D01*
X139638094Y-163897580D02*
X139590475Y-163945200D01*
X139590475Y-163945200D02*
X139495237Y-163992819D01*
X139495237Y-163992819D02*
X139304761Y-163992819D01*
X139304761Y-163992819D02*
X139209523Y-163945200D01*
X139209523Y-163945200D02*
X139161904Y-163897580D01*
X139161904Y-163897580D02*
X139114285Y-163802342D01*
X139114285Y-163802342D02*
X139114285Y-162992819D01*
X138638094Y-163992819D02*
X138638094Y-162992819D01*
X138638094Y-162992819D02*
X138257142Y-162992819D01*
X138257142Y-162992819D02*
X138161904Y-163040438D01*
X138161904Y-163040438D02*
X138114285Y-163088057D01*
X138114285Y-163088057D02*
X138066666Y-163183295D01*
X138066666Y-163183295D02*
X138066666Y-163326152D01*
X138066666Y-163326152D02*
X138114285Y-163421390D01*
X138114285Y-163421390D02*
X138161904Y-163469009D01*
X138161904Y-163469009D02*
X138257142Y-163516628D01*
X138257142Y-163516628D02*
X138638094Y-163516628D01*
X85159792Y-187283819D02*
X85493125Y-186807628D01*
X85731220Y-187283819D02*
X85731220Y-186283819D01*
X85731220Y-186283819D02*
X85350268Y-186283819D01*
X85350268Y-186283819D02*
X85255030Y-186331438D01*
X85255030Y-186331438D02*
X85207411Y-186379057D01*
X85207411Y-186379057D02*
X85159792Y-186474295D01*
X85159792Y-186474295D02*
X85159792Y-186617152D01*
X85159792Y-186617152D02*
X85207411Y-186712390D01*
X85207411Y-186712390D02*
X85255030Y-186760009D01*
X85255030Y-186760009D02*
X85350268Y-186807628D01*
X85350268Y-186807628D02*
X85731220Y-186807628D01*
X84350268Y-187236200D02*
X84445506Y-187283819D01*
X84445506Y-187283819D02*
X84635982Y-187283819D01*
X84635982Y-187283819D02*
X84731220Y-187236200D01*
X84731220Y-187236200D02*
X84778839Y-187140961D01*
X84778839Y-187140961D02*
X84778839Y-186760009D01*
X84778839Y-186760009D02*
X84731220Y-186664771D01*
X84731220Y-186664771D02*
X84635982Y-186617152D01*
X84635982Y-186617152D02*
X84445506Y-186617152D01*
X84445506Y-186617152D02*
X84350268Y-186664771D01*
X84350268Y-186664771D02*
X84302649Y-186760009D01*
X84302649Y-186760009D02*
X84302649Y-186855247D01*
X84302649Y-186855247D02*
X84778839Y-186950485D01*
X83969315Y-186617152D02*
X83731220Y-187283819D01*
X83731220Y-187283819D02*
X83493125Y-186617152D01*
X83112172Y-187188580D02*
X83064553Y-187236200D01*
X83064553Y-187236200D02*
X83112172Y-187283819D01*
X83112172Y-187283819D02*
X83159791Y-187236200D01*
X83159791Y-187236200D02*
X83112172Y-187188580D01*
X83112172Y-187188580D02*
X83112172Y-187283819D01*
X82683601Y-186379057D02*
X82635982Y-186331438D01*
X82635982Y-186331438D02*
X82540744Y-186283819D01*
X82540744Y-186283819D02*
X82302649Y-186283819D01*
X82302649Y-186283819D02*
X82207411Y-186331438D01*
X82207411Y-186331438D02*
X82159792Y-186379057D01*
X82159792Y-186379057D02*
X82112173Y-186474295D01*
X82112173Y-186474295D02*
X82112173Y-186569533D01*
X82112173Y-186569533D02*
X82159792Y-186712390D01*
X82159792Y-186712390D02*
X82731220Y-187283819D01*
X82731220Y-187283819D02*
X82112173Y-187283819D01*
X73177333Y-126400819D02*
X73510666Y-125924628D01*
X73748761Y-126400819D02*
X73748761Y-125400819D01*
X73748761Y-125400819D02*
X73367809Y-125400819D01*
X73367809Y-125400819D02*
X73272571Y-125448438D01*
X73272571Y-125448438D02*
X73224952Y-125496057D01*
X73224952Y-125496057D02*
X73177333Y-125591295D01*
X73177333Y-125591295D02*
X73177333Y-125734152D01*
X73177333Y-125734152D02*
X73224952Y-125829390D01*
X73224952Y-125829390D02*
X73272571Y-125877009D01*
X73272571Y-125877009D02*
X73367809Y-125924628D01*
X73367809Y-125924628D02*
X73748761Y-125924628D01*
X72748761Y-126400819D02*
X72748761Y-125400819D01*
X71748762Y-125448438D02*
X71844000Y-125400819D01*
X71844000Y-125400819D02*
X71986857Y-125400819D01*
X71986857Y-125400819D02*
X72129714Y-125448438D01*
X72129714Y-125448438D02*
X72224952Y-125543676D01*
X72224952Y-125543676D02*
X72272571Y-125638914D01*
X72272571Y-125638914D02*
X72320190Y-125829390D01*
X72320190Y-125829390D02*
X72320190Y-125972247D01*
X72320190Y-125972247D02*
X72272571Y-126162723D01*
X72272571Y-126162723D02*
X72224952Y-126257961D01*
X72224952Y-126257961D02*
X72129714Y-126353200D01*
X72129714Y-126353200D02*
X71986857Y-126400819D01*
X71986857Y-126400819D02*
X71891619Y-126400819D01*
X71891619Y-126400819D02*
X71748762Y-126353200D01*
X71748762Y-126353200D02*
X71701143Y-126305580D01*
X71701143Y-126305580D02*
X71701143Y-125972247D01*
X71701143Y-125972247D02*
X71891619Y-125972247D01*
X71272571Y-126400819D02*
X71272571Y-125400819D01*
X71272571Y-125877009D02*
X70701143Y-125877009D01*
X70701143Y-126400819D02*
X70701143Y-125400819D01*
X70367809Y-125400819D02*
X69796381Y-125400819D01*
X70082095Y-126400819D02*
X70082095Y-125400819D01*
X206844856Y-103826628D02*
X206844856Y-104302819D01*
X207178189Y-103302819D02*
X206844856Y-103826628D01*
X206844856Y-103826628D02*
X206511523Y-103302819D01*
X205463904Y-103255200D02*
X206321046Y-104540914D01*
X204749618Y-103540914D02*
X204321046Y-104302819D01*
X204321046Y-104302819D02*
X205178189Y-104302819D01*
X205178189Y-104302819D02*
X204749618Y-103540914D01*
X108975428Y-157896819D02*
X109451618Y-157896819D01*
X109451618Y-157896819D02*
X109451618Y-156896819D01*
X108689713Y-157849200D02*
X108546856Y-157896819D01*
X108546856Y-157896819D02*
X108308761Y-157896819D01*
X108308761Y-157896819D02*
X108213523Y-157849200D01*
X108213523Y-157849200D02*
X108165904Y-157801580D01*
X108165904Y-157801580D02*
X108118285Y-157706342D01*
X108118285Y-157706342D02*
X108118285Y-157611104D01*
X108118285Y-157611104D02*
X108165904Y-157515866D01*
X108165904Y-157515866D02*
X108213523Y-157468247D01*
X108213523Y-157468247D02*
X108308761Y-157420628D01*
X108308761Y-157420628D02*
X108499237Y-157373009D01*
X108499237Y-157373009D02*
X108594475Y-157325390D01*
X108594475Y-157325390D02*
X108642094Y-157277771D01*
X108642094Y-157277771D02*
X108689713Y-157182533D01*
X108689713Y-157182533D02*
X108689713Y-157087295D01*
X108689713Y-157087295D02*
X108642094Y-156992057D01*
X108642094Y-156992057D02*
X108594475Y-156944438D01*
X108594475Y-156944438D02*
X108499237Y-156896819D01*
X108499237Y-156896819D02*
X108261142Y-156896819D01*
X108261142Y-156896819D02*
X108118285Y-156944438D01*
X106975428Y-156849200D02*
X107832570Y-158134914D01*
X106165904Y-157896819D02*
X106642094Y-157896819D01*
X106642094Y-157896819D02*
X106642094Y-156896819D01*
X105927808Y-156896819D02*
X105308761Y-156896819D01*
X105308761Y-156896819D02*
X105642094Y-157277771D01*
X105642094Y-157277771D02*
X105499237Y-157277771D01*
X105499237Y-157277771D02*
X105403999Y-157325390D01*
X105403999Y-157325390D02*
X105356380Y-157373009D01*
X105356380Y-157373009D02*
X105308761Y-157468247D01*
X105308761Y-157468247D02*
X105308761Y-157706342D01*
X105308761Y-157706342D02*
X105356380Y-157801580D01*
X105356380Y-157801580D02*
X105403999Y-157849200D01*
X105403999Y-157849200D02*
X105499237Y-157896819D01*
X105499237Y-157896819D02*
X105784951Y-157896819D01*
X105784951Y-157896819D02*
X105880189Y-157849200D01*
X105880189Y-157849200D02*
X105927808Y-157801580D01*
X154790666Y-126908819D02*
X155123999Y-126432628D01*
X155362094Y-126908819D02*
X155362094Y-125908819D01*
X155362094Y-125908819D02*
X154981142Y-125908819D01*
X154981142Y-125908819D02*
X154885904Y-125956438D01*
X154885904Y-125956438D02*
X154838285Y-126004057D01*
X154838285Y-126004057D02*
X154790666Y-126099295D01*
X154790666Y-126099295D02*
X154790666Y-126242152D01*
X154790666Y-126242152D02*
X154838285Y-126337390D01*
X154838285Y-126337390D02*
X154885904Y-126385009D01*
X154885904Y-126385009D02*
X154981142Y-126432628D01*
X154981142Y-126432628D02*
X155362094Y-126432628D01*
X154409713Y-126861200D02*
X154266856Y-126908819D01*
X154266856Y-126908819D02*
X154028761Y-126908819D01*
X154028761Y-126908819D02*
X153933523Y-126861200D01*
X153933523Y-126861200D02*
X153885904Y-126813580D01*
X153885904Y-126813580D02*
X153838285Y-126718342D01*
X153838285Y-126718342D02*
X153838285Y-126623104D01*
X153838285Y-126623104D02*
X153885904Y-126527866D01*
X153885904Y-126527866D02*
X153933523Y-126480247D01*
X153933523Y-126480247D02*
X154028761Y-126432628D01*
X154028761Y-126432628D02*
X154219237Y-126385009D01*
X154219237Y-126385009D02*
X154314475Y-126337390D01*
X154314475Y-126337390D02*
X154362094Y-126289771D01*
X154362094Y-126289771D02*
X154409713Y-126194533D01*
X154409713Y-126194533D02*
X154409713Y-126099295D01*
X154409713Y-126099295D02*
X154362094Y-126004057D01*
X154362094Y-126004057D02*
X154314475Y-125956438D01*
X154314475Y-125956438D02*
X154219237Y-125908819D01*
X154219237Y-125908819D02*
X153981142Y-125908819D01*
X153981142Y-125908819D02*
X153838285Y-125956438D01*
X152695428Y-125861200D02*
X153552570Y-127146914D01*
X151790666Y-126908819D02*
X152123999Y-126432628D01*
X152362094Y-126908819D02*
X152362094Y-125908819D01*
X152362094Y-125908819D02*
X151981142Y-125908819D01*
X151981142Y-125908819D02*
X151885904Y-125956438D01*
X151885904Y-125956438D02*
X151838285Y-126004057D01*
X151838285Y-126004057D02*
X151790666Y-126099295D01*
X151790666Y-126099295D02*
X151790666Y-126242152D01*
X151790666Y-126242152D02*
X151838285Y-126337390D01*
X151838285Y-126337390D02*
X151885904Y-126385009D01*
X151885904Y-126385009D02*
X151981142Y-126432628D01*
X151981142Y-126432628D02*
X152362094Y-126432628D01*
X151457332Y-125908819D02*
X150838285Y-125908819D01*
X150838285Y-125908819D02*
X151171618Y-126289771D01*
X151171618Y-126289771D02*
X151028761Y-126289771D01*
X151028761Y-126289771D02*
X150933523Y-126337390D01*
X150933523Y-126337390D02*
X150885904Y-126385009D01*
X150885904Y-126385009D02*
X150838285Y-126480247D01*
X150838285Y-126480247D02*
X150838285Y-126718342D01*
X150838285Y-126718342D02*
X150885904Y-126813580D01*
X150885904Y-126813580D02*
X150933523Y-126861200D01*
X150933523Y-126861200D02*
X151028761Y-126908819D01*
X151028761Y-126908819D02*
X151314475Y-126908819D01*
X151314475Y-126908819D02*
X151409713Y-126861200D01*
X151409713Y-126861200D02*
X151457332Y-126813580D01*
X264193238Y-114462819D02*
X264669428Y-114462819D01*
X264669428Y-114462819D02*
X264669428Y-113462819D01*
X263526571Y-113939009D02*
X263383714Y-113986628D01*
X263383714Y-113986628D02*
X263336095Y-114034247D01*
X263336095Y-114034247D02*
X263288476Y-114129485D01*
X263288476Y-114129485D02*
X263288476Y-114272342D01*
X263288476Y-114272342D02*
X263336095Y-114367580D01*
X263336095Y-114367580D02*
X263383714Y-114415200D01*
X263383714Y-114415200D02*
X263478952Y-114462819D01*
X263478952Y-114462819D02*
X263859904Y-114462819D01*
X263859904Y-114462819D02*
X263859904Y-113462819D01*
X263859904Y-113462819D02*
X263526571Y-113462819D01*
X263526571Y-113462819D02*
X263431333Y-113510438D01*
X263431333Y-113510438D02*
X263383714Y-113558057D01*
X263383714Y-113558057D02*
X263336095Y-113653295D01*
X263336095Y-113653295D02*
X263336095Y-113748533D01*
X263336095Y-113748533D02*
X263383714Y-113843771D01*
X263383714Y-113843771D02*
X263431333Y-113891390D01*
X263431333Y-113891390D02*
X263526571Y-113939009D01*
X263526571Y-113939009D02*
X263859904Y-113939009D01*
X262145619Y-113415200D02*
X263002761Y-114700914D01*
X261336095Y-114462819D02*
X261812285Y-114462819D01*
X261812285Y-114462819D02*
X261812285Y-113462819D01*
X260478952Y-114462819D02*
X261050380Y-114462819D01*
X260764666Y-114462819D02*
X260764666Y-113462819D01*
X260764666Y-113462819D02*
X260859904Y-113605676D01*
X260859904Y-113605676D02*
X260955142Y-113700914D01*
X260955142Y-113700914D02*
X261050380Y-113748533D01*
X181016189Y-114732819D02*
X180349523Y-115732819D01*
X180349523Y-114732819D02*
X181016189Y-115732819D01*
X179254285Y-114685200D02*
X180111427Y-115970914D01*
X178920951Y-114970914D02*
X178159047Y-114970914D01*
X178159047Y-114970914D02*
X178159047Y-115732819D01*
X178159047Y-115732819D02*
X178920951Y-115732819D01*
X178920951Y-115732819D02*
X178920951Y-114970914D01*
X126898381Y-139608819D02*
X127374571Y-139608819D01*
X127374571Y-139608819D02*
X127374571Y-138608819D01*
X126565047Y-139085009D02*
X126231714Y-139085009D01*
X126088857Y-139608819D02*
X126565047Y-139608819D01*
X126565047Y-139608819D02*
X126565047Y-138608819D01*
X126565047Y-138608819D02*
X126088857Y-138608819D01*
X125326952Y-139085009D02*
X125660285Y-139085009D01*
X125660285Y-139608819D02*
X125660285Y-138608819D01*
X125660285Y-138608819D02*
X125184095Y-138608819D01*
X124945999Y-138608819D02*
X124374571Y-138608819D01*
X124660285Y-139608819D02*
X124660285Y-138608819D01*
X68840220Y-181060819D02*
X68840220Y-180060819D01*
X68840220Y-180441771D02*
X68744982Y-180394152D01*
X68744982Y-180394152D02*
X68554506Y-180394152D01*
X68554506Y-180394152D02*
X68459268Y-180441771D01*
X68459268Y-180441771D02*
X68411649Y-180489390D01*
X68411649Y-180489390D02*
X68364030Y-180584628D01*
X68364030Y-180584628D02*
X68364030Y-180870342D01*
X68364030Y-180870342D02*
X68411649Y-180965580D01*
X68411649Y-180965580D02*
X68459268Y-181013200D01*
X68459268Y-181013200D02*
X68554506Y-181060819D01*
X68554506Y-181060819D02*
X68744982Y-181060819D01*
X68744982Y-181060819D02*
X68840220Y-181013200D01*
X68030696Y-180394152D02*
X67792601Y-181060819D01*
X67554506Y-180394152D02*
X67792601Y-181060819D01*
X67792601Y-181060819D02*
X67887839Y-181298914D01*
X67887839Y-181298914D02*
X67935458Y-181346533D01*
X67935458Y-181346533D02*
X68030696Y-181394152D01*
X65792601Y-180584628D02*
X65840220Y-180537009D01*
X65840220Y-180537009D02*
X65935458Y-180489390D01*
X65935458Y-180489390D02*
X66030696Y-180489390D01*
X66030696Y-180489390D02*
X66125934Y-180537009D01*
X66125934Y-180537009D02*
X66173553Y-180584628D01*
X66173553Y-180584628D02*
X66221172Y-180679866D01*
X66221172Y-180679866D02*
X66221172Y-180775104D01*
X66221172Y-180775104D02*
X66173553Y-180870342D01*
X66173553Y-180870342D02*
X66125934Y-180917961D01*
X66125934Y-180917961D02*
X66030696Y-180965580D01*
X66030696Y-180965580D02*
X65935458Y-180965580D01*
X65935458Y-180965580D02*
X65840220Y-180917961D01*
X65840220Y-180917961D02*
X65792601Y-180870342D01*
X65792601Y-180489390D02*
X65792601Y-180870342D01*
X65792601Y-180870342D02*
X65744982Y-180917961D01*
X65744982Y-180917961D02*
X65697363Y-180917961D01*
X65697363Y-180917961D02*
X65602124Y-180870342D01*
X65602124Y-180870342D02*
X65554505Y-180775104D01*
X65554505Y-180775104D02*
X65554505Y-180537009D01*
X65554505Y-180537009D02*
X65649744Y-180394152D01*
X65649744Y-180394152D02*
X65792601Y-180298914D01*
X65792601Y-180298914D02*
X65983077Y-180251295D01*
X65983077Y-180251295D02*
X66173553Y-180298914D01*
X66173553Y-180298914D02*
X66316410Y-180394152D01*
X66316410Y-180394152D02*
X66411648Y-180537009D01*
X66411648Y-180537009D02*
X66459267Y-180727485D01*
X66459267Y-180727485D02*
X66411648Y-180917961D01*
X66411648Y-180917961D02*
X66316410Y-181060819D01*
X66316410Y-181060819D02*
X66173553Y-181156057D01*
X66173553Y-181156057D02*
X65983077Y-181203676D01*
X65983077Y-181203676D02*
X65792601Y-181156057D01*
X65792601Y-181156057D02*
X65649744Y-181060819D01*
X65125934Y-181060819D02*
X65125934Y-180394152D01*
X65125934Y-180489390D02*
X65078315Y-180441771D01*
X65078315Y-180441771D02*
X64983077Y-180394152D01*
X64983077Y-180394152D02*
X64840220Y-180394152D01*
X64840220Y-180394152D02*
X64744982Y-180441771D01*
X64744982Y-180441771D02*
X64697363Y-180537009D01*
X64697363Y-180537009D02*
X64697363Y-181060819D01*
X64697363Y-180537009D02*
X64649744Y-180441771D01*
X64649744Y-180441771D02*
X64554506Y-180394152D01*
X64554506Y-180394152D02*
X64411649Y-180394152D01*
X64411649Y-180394152D02*
X64316410Y-180441771D01*
X64316410Y-180441771D02*
X64268791Y-180537009D01*
X64268791Y-180537009D02*
X64268791Y-181060819D01*
X63792601Y-181060819D02*
X63792601Y-180394152D01*
X63792601Y-180060819D02*
X63840220Y-180108438D01*
X63840220Y-180108438D02*
X63792601Y-180156057D01*
X63792601Y-180156057D02*
X63744982Y-180108438D01*
X63744982Y-180108438D02*
X63792601Y-180060819D01*
X63792601Y-180060819D02*
X63792601Y-180156057D01*
X63411649Y-180394152D02*
X62887840Y-180394152D01*
X62887840Y-180394152D02*
X63411649Y-181060819D01*
X63411649Y-181060819D02*
X62887840Y-181060819D01*
X62506887Y-181060819D02*
X62506887Y-180394152D01*
X62506887Y-180489390D02*
X62459268Y-180441771D01*
X62459268Y-180441771D02*
X62364030Y-180394152D01*
X62364030Y-180394152D02*
X62221173Y-180394152D01*
X62221173Y-180394152D02*
X62125935Y-180441771D01*
X62125935Y-180441771D02*
X62078316Y-180537009D01*
X62078316Y-180537009D02*
X62078316Y-181060819D01*
X62078316Y-180537009D02*
X62030697Y-180441771D01*
X62030697Y-180441771D02*
X61935459Y-180394152D01*
X61935459Y-180394152D02*
X61792602Y-180394152D01*
X61792602Y-180394152D02*
X61697363Y-180441771D01*
X61697363Y-180441771D02*
X61649744Y-180537009D01*
X61649744Y-180537009D02*
X61649744Y-181060819D01*
X60744983Y-181060819D02*
X60744983Y-180537009D01*
X60744983Y-180537009D02*
X60792602Y-180441771D01*
X60792602Y-180441771D02*
X60887840Y-180394152D01*
X60887840Y-180394152D02*
X61078316Y-180394152D01*
X61078316Y-180394152D02*
X61173554Y-180441771D01*
X60744983Y-181013200D02*
X60840221Y-181060819D01*
X60840221Y-181060819D02*
X61078316Y-181060819D01*
X61078316Y-181060819D02*
X61173554Y-181013200D01*
X61173554Y-181013200D02*
X61221173Y-180917961D01*
X61221173Y-180917961D02*
X61221173Y-180822723D01*
X61221173Y-180822723D02*
X61173554Y-180727485D01*
X61173554Y-180727485D02*
X61078316Y-180679866D01*
X61078316Y-180679866D02*
X60840221Y-180679866D01*
X60840221Y-180679866D02*
X60744983Y-180632247D01*
X152699523Y-135327200D02*
X152556666Y-135374819D01*
X152556666Y-135374819D02*
X152318571Y-135374819D01*
X152318571Y-135374819D02*
X152223333Y-135327200D01*
X152223333Y-135327200D02*
X152175714Y-135279580D01*
X152175714Y-135279580D02*
X152128095Y-135184342D01*
X152128095Y-135184342D02*
X152128095Y-135089104D01*
X152128095Y-135089104D02*
X152175714Y-134993866D01*
X152175714Y-134993866D02*
X152223333Y-134946247D01*
X152223333Y-134946247D02*
X152318571Y-134898628D01*
X152318571Y-134898628D02*
X152509047Y-134851009D01*
X152509047Y-134851009D02*
X152604285Y-134803390D01*
X152604285Y-134803390D02*
X152651904Y-134755771D01*
X152651904Y-134755771D02*
X152699523Y-134660533D01*
X152699523Y-134660533D02*
X152699523Y-134565295D01*
X152699523Y-134565295D02*
X152651904Y-134470057D01*
X152651904Y-134470057D02*
X152604285Y-134422438D01*
X152604285Y-134422438D02*
X152509047Y-134374819D01*
X152509047Y-134374819D02*
X152270952Y-134374819D01*
X152270952Y-134374819D02*
X152128095Y-134422438D01*
X151794761Y-134374819D02*
X151556666Y-135374819D01*
X151556666Y-135374819D02*
X151366190Y-134660533D01*
X151366190Y-134660533D02*
X151175714Y-135374819D01*
X151175714Y-135374819D02*
X150937619Y-134374819D01*
X150032857Y-135374819D02*
X150604285Y-135374819D01*
X150318571Y-135374819D02*
X150318571Y-134374819D01*
X150318571Y-134374819D02*
X150413809Y-134517676D01*
X150413809Y-134517676D02*
X150509047Y-134612914D01*
X150509047Y-134612914D02*
X150604285Y-134660533D01*
X149128095Y-134374819D02*
X149604285Y-134374819D01*
X149604285Y-134374819D02*
X149651904Y-134851009D01*
X149651904Y-134851009D02*
X149604285Y-134803390D01*
X149604285Y-134803390D02*
X149509047Y-134755771D01*
X149509047Y-134755771D02*
X149270952Y-134755771D01*
X149270952Y-134755771D02*
X149175714Y-134803390D01*
X149175714Y-134803390D02*
X149128095Y-134851009D01*
X149128095Y-134851009D02*
X149080476Y-134946247D01*
X149080476Y-134946247D02*
X149080476Y-135184342D01*
X149080476Y-135184342D02*
X149128095Y-135279580D01*
X149128095Y-135279580D02*
X149175714Y-135327200D01*
X149175714Y-135327200D02*
X149270952Y-135374819D01*
X149270952Y-135374819D02*
X149509047Y-135374819D01*
X149509047Y-135374819D02*
X149604285Y-135327200D01*
X149604285Y-135327200D02*
X149651904Y-135279580D01*
X207559523Y-82397200D02*
X207416666Y-82444819D01*
X207416666Y-82444819D02*
X207178571Y-82444819D01*
X207178571Y-82444819D02*
X207083333Y-82397200D01*
X207083333Y-82397200D02*
X207035714Y-82349580D01*
X207035714Y-82349580D02*
X206988095Y-82254342D01*
X206988095Y-82254342D02*
X206988095Y-82159104D01*
X206988095Y-82159104D02*
X207035714Y-82063866D01*
X207035714Y-82063866D02*
X207083333Y-82016247D01*
X207083333Y-82016247D02*
X207178571Y-81968628D01*
X207178571Y-81968628D02*
X207369047Y-81921009D01*
X207369047Y-81921009D02*
X207464285Y-81873390D01*
X207464285Y-81873390D02*
X207511904Y-81825771D01*
X207511904Y-81825771D02*
X207559523Y-81730533D01*
X207559523Y-81730533D02*
X207559523Y-81635295D01*
X207559523Y-81635295D02*
X207511904Y-81540057D01*
X207511904Y-81540057D02*
X207464285Y-81492438D01*
X207464285Y-81492438D02*
X207369047Y-81444819D01*
X207369047Y-81444819D02*
X207130952Y-81444819D01*
X207130952Y-81444819D02*
X206988095Y-81492438D01*
X206654761Y-81444819D02*
X206416666Y-82444819D01*
X206416666Y-82444819D02*
X206226190Y-81730533D01*
X206226190Y-81730533D02*
X206035714Y-82444819D01*
X206035714Y-82444819D02*
X205797619Y-81444819D01*
X204892857Y-82444819D02*
X205464285Y-82444819D01*
X205178571Y-82444819D02*
X205178571Y-81444819D01*
X205178571Y-81444819D02*
X205273809Y-81587676D01*
X205273809Y-81587676D02*
X205369047Y-81682914D01*
X205369047Y-81682914D02*
X205464285Y-81730533D01*
X203940476Y-82444819D02*
X204511904Y-82444819D01*
X204226190Y-82444819D02*
X204226190Y-81444819D01*
X204226190Y-81444819D02*
X204321428Y-81587676D01*
X204321428Y-81587676D02*
X204416666Y-81682914D01*
X204416666Y-81682914D02*
X204511904Y-81730533D01*
D12*
X79222580Y-93698972D02*
X78222580Y-93365639D01*
X78222580Y-93365639D02*
X79222580Y-93032306D01*
X78317819Y-92127544D02*
X78270200Y-92175163D01*
X78270200Y-92175163D02*
X78222580Y-92318020D01*
X78222580Y-92318020D02*
X78222580Y-92413258D01*
X78222580Y-92413258D02*
X78270200Y-92556115D01*
X78270200Y-92556115D02*
X78365438Y-92651353D01*
X78365438Y-92651353D02*
X78460676Y-92698972D01*
X78460676Y-92698972D02*
X78651152Y-92746591D01*
X78651152Y-92746591D02*
X78794009Y-92746591D01*
X78794009Y-92746591D02*
X78984485Y-92698972D01*
X78984485Y-92698972D02*
X79079723Y-92651353D01*
X79079723Y-92651353D02*
X79174961Y-92556115D01*
X79174961Y-92556115D02*
X79222580Y-92413258D01*
X79222580Y-92413258D02*
X79222580Y-92318020D01*
X79222580Y-92318020D02*
X79174961Y-92175163D01*
X79174961Y-92175163D02*
X79127342Y-92127544D01*
X78317819Y-91127544D02*
X78270200Y-91175163D01*
X78270200Y-91175163D02*
X78222580Y-91318020D01*
X78222580Y-91318020D02*
X78222580Y-91413258D01*
X78222580Y-91413258D02*
X78270200Y-91556115D01*
X78270200Y-91556115D02*
X78365438Y-91651353D01*
X78365438Y-91651353D02*
X78460676Y-91698972D01*
X78460676Y-91698972D02*
X78651152Y-91746591D01*
X78651152Y-91746591D02*
X78794009Y-91746591D01*
X78794009Y-91746591D02*
X78984485Y-91698972D01*
X78984485Y-91698972D02*
X79079723Y-91651353D01*
X79079723Y-91651353D02*
X79174961Y-91556115D01*
X79174961Y-91556115D02*
X79222580Y-91413258D01*
X79222580Y-91413258D02*
X79222580Y-91318020D01*
X79222580Y-91318020D02*
X79174961Y-91175163D01*
X79174961Y-91175163D02*
X79127342Y-91127544D01*
X76634961Y-93032306D02*
X76682580Y-93127544D01*
X76682580Y-93127544D02*
X76682580Y-93270401D01*
X76682580Y-93270401D02*
X76634961Y-93413258D01*
X76634961Y-93413258D02*
X76539723Y-93508496D01*
X76539723Y-93508496D02*
X76444485Y-93556115D01*
X76444485Y-93556115D02*
X76254009Y-93603734D01*
X76254009Y-93603734D02*
X76111152Y-93603734D01*
X76111152Y-93603734D02*
X75920676Y-93556115D01*
X75920676Y-93556115D02*
X75825438Y-93508496D01*
X75825438Y-93508496D02*
X75730200Y-93413258D01*
X75730200Y-93413258D02*
X75682580Y-93270401D01*
X75682580Y-93270401D02*
X75682580Y-93175163D01*
X75682580Y-93175163D02*
X75730200Y-93032306D01*
X75730200Y-93032306D02*
X75777819Y-92984687D01*
X75777819Y-92984687D02*
X76111152Y-92984687D01*
X76111152Y-92984687D02*
X76111152Y-93175163D01*
X75682580Y-92556115D02*
X76682580Y-92556115D01*
X76682580Y-92556115D02*
X75682580Y-91984687D01*
X75682580Y-91984687D02*
X76682580Y-91984687D01*
X75682580Y-91508496D02*
X76682580Y-91508496D01*
X76682580Y-91508496D02*
X76682580Y-91270401D01*
X76682580Y-91270401D02*
X76634961Y-91127544D01*
X76634961Y-91127544D02*
X76539723Y-91032306D01*
X76539723Y-91032306D02*
X76444485Y-90984687D01*
X76444485Y-90984687D02*
X76254009Y-90937068D01*
X76254009Y-90937068D02*
X76111152Y-90937068D01*
X76111152Y-90937068D02*
X75920676Y-90984687D01*
X75920676Y-90984687D02*
X75825438Y-91032306D01*
X75825438Y-91032306D02*
X75730200Y-91127544D01*
X75730200Y-91127544D02*
X75682580Y-91270401D01*
X75682580Y-91270401D02*
X75682580Y-91508496D01*
X83350200Y-93603734D02*
X83302580Y-93460877D01*
X83302580Y-93460877D02*
X83302580Y-93222782D01*
X83302580Y-93222782D02*
X83350200Y-93127544D01*
X83350200Y-93127544D02*
X83397819Y-93079925D01*
X83397819Y-93079925D02*
X83493057Y-93032306D01*
X83493057Y-93032306D02*
X83588295Y-93032306D01*
X83588295Y-93032306D02*
X83683533Y-93079925D01*
X83683533Y-93079925D02*
X83731152Y-93127544D01*
X83731152Y-93127544D02*
X83778771Y-93222782D01*
X83778771Y-93222782D02*
X83826390Y-93413258D01*
X83826390Y-93413258D02*
X83874009Y-93508496D01*
X83874009Y-93508496D02*
X83921628Y-93556115D01*
X83921628Y-93556115D02*
X84016866Y-93603734D01*
X84016866Y-93603734D02*
X84112104Y-93603734D01*
X84112104Y-93603734D02*
X84207342Y-93556115D01*
X84207342Y-93556115D02*
X84254961Y-93508496D01*
X84254961Y-93508496D02*
X84302580Y-93413258D01*
X84302580Y-93413258D02*
X84302580Y-93175163D01*
X84302580Y-93175163D02*
X84254961Y-93032306D01*
X83302580Y-92603734D02*
X84302580Y-92603734D01*
X84302580Y-92603734D02*
X84302580Y-92365639D01*
X84302580Y-92365639D02*
X84254961Y-92222782D01*
X84254961Y-92222782D02*
X84159723Y-92127544D01*
X84159723Y-92127544D02*
X84064485Y-92079925D01*
X84064485Y-92079925D02*
X83874009Y-92032306D01*
X83874009Y-92032306D02*
X83731152Y-92032306D01*
X83731152Y-92032306D02*
X83540676Y-92079925D01*
X83540676Y-92079925D02*
X83445438Y-92127544D01*
X83445438Y-92127544D02*
X83350200Y-92222782D01*
X83350200Y-92222782D02*
X83302580Y-92365639D01*
X83302580Y-92365639D02*
X83302580Y-92603734D01*
X83588295Y-91651353D02*
X83588295Y-91175163D01*
X83302580Y-91746591D02*
X84302580Y-91413258D01*
X84302580Y-91413258D02*
X83302580Y-91079925D01*
X80810200Y-93603734D02*
X80762580Y-93460877D01*
X80762580Y-93460877D02*
X80762580Y-93222782D01*
X80762580Y-93222782D02*
X80810200Y-93127544D01*
X80810200Y-93127544D02*
X80857819Y-93079925D01*
X80857819Y-93079925D02*
X80953057Y-93032306D01*
X80953057Y-93032306D02*
X81048295Y-93032306D01*
X81048295Y-93032306D02*
X81143533Y-93079925D01*
X81143533Y-93079925D02*
X81191152Y-93127544D01*
X81191152Y-93127544D02*
X81238771Y-93222782D01*
X81238771Y-93222782D02*
X81286390Y-93413258D01*
X81286390Y-93413258D02*
X81334009Y-93508496D01*
X81334009Y-93508496D02*
X81381628Y-93556115D01*
X81381628Y-93556115D02*
X81476866Y-93603734D01*
X81476866Y-93603734D02*
X81572104Y-93603734D01*
X81572104Y-93603734D02*
X81667342Y-93556115D01*
X81667342Y-93556115D02*
X81714961Y-93508496D01*
X81714961Y-93508496D02*
X81762580Y-93413258D01*
X81762580Y-93413258D02*
X81762580Y-93175163D01*
X81762580Y-93175163D02*
X81714961Y-93032306D01*
X80857819Y-92032306D02*
X80810200Y-92079925D01*
X80810200Y-92079925D02*
X80762580Y-92222782D01*
X80762580Y-92222782D02*
X80762580Y-92318020D01*
X80762580Y-92318020D02*
X80810200Y-92460877D01*
X80810200Y-92460877D02*
X80905438Y-92556115D01*
X80905438Y-92556115D02*
X81000676Y-92603734D01*
X81000676Y-92603734D02*
X81191152Y-92651353D01*
X81191152Y-92651353D02*
X81334009Y-92651353D01*
X81334009Y-92651353D02*
X81524485Y-92603734D01*
X81524485Y-92603734D02*
X81619723Y-92556115D01*
X81619723Y-92556115D02*
X81714961Y-92460877D01*
X81714961Y-92460877D02*
X81762580Y-92318020D01*
X81762580Y-92318020D02*
X81762580Y-92222782D01*
X81762580Y-92222782D02*
X81714961Y-92079925D01*
X81714961Y-92079925D02*
X81667342Y-92032306D01*
X80762580Y-91127544D02*
X80762580Y-91603734D01*
X80762580Y-91603734D02*
X81762580Y-91603734D01*
D11*
X73083332Y-104267200D02*
X72940475Y-104314819D01*
X72940475Y-104314819D02*
X72702380Y-104314819D01*
X72702380Y-104314819D02*
X72607142Y-104267200D01*
X72607142Y-104267200D02*
X72559523Y-104219580D01*
X72559523Y-104219580D02*
X72511904Y-104124342D01*
X72511904Y-104124342D02*
X72511904Y-104029104D01*
X72511904Y-104029104D02*
X72559523Y-103933866D01*
X72559523Y-103933866D02*
X72607142Y-103886247D01*
X72607142Y-103886247D02*
X72702380Y-103838628D01*
X72702380Y-103838628D02*
X72892856Y-103791009D01*
X72892856Y-103791009D02*
X72988094Y-103743390D01*
X72988094Y-103743390D02*
X73035713Y-103695771D01*
X73035713Y-103695771D02*
X73083332Y-103600533D01*
X73083332Y-103600533D02*
X73083332Y-103505295D01*
X73083332Y-103505295D02*
X73035713Y-103410057D01*
X73035713Y-103410057D02*
X72988094Y-103362438D01*
X72988094Y-103362438D02*
X72892856Y-103314819D01*
X72892856Y-103314819D02*
X72654761Y-103314819D01*
X72654761Y-103314819D02*
X72511904Y-103362438D01*
X72178570Y-103314819D02*
X71940475Y-104314819D01*
X71940475Y-104314819D02*
X71749999Y-103600533D01*
X71749999Y-103600533D02*
X71559523Y-104314819D01*
X71559523Y-104314819D02*
X71321428Y-103314819D01*
X70511904Y-103648152D02*
X70511904Y-104314819D01*
X70749999Y-103267200D02*
X70988094Y-103981485D01*
X70988094Y-103981485D02*
X70369047Y-103981485D01*
X179679523Y-123887200D02*
X179536666Y-123934819D01*
X179536666Y-123934819D02*
X179298571Y-123934819D01*
X179298571Y-123934819D02*
X179203333Y-123887200D01*
X179203333Y-123887200D02*
X179155714Y-123839580D01*
X179155714Y-123839580D02*
X179108095Y-123744342D01*
X179108095Y-123744342D02*
X179108095Y-123649104D01*
X179108095Y-123649104D02*
X179155714Y-123553866D01*
X179155714Y-123553866D02*
X179203333Y-123506247D01*
X179203333Y-123506247D02*
X179298571Y-123458628D01*
X179298571Y-123458628D02*
X179489047Y-123411009D01*
X179489047Y-123411009D02*
X179584285Y-123363390D01*
X179584285Y-123363390D02*
X179631904Y-123315771D01*
X179631904Y-123315771D02*
X179679523Y-123220533D01*
X179679523Y-123220533D02*
X179679523Y-123125295D01*
X179679523Y-123125295D02*
X179631904Y-123030057D01*
X179631904Y-123030057D02*
X179584285Y-122982438D01*
X179584285Y-122982438D02*
X179489047Y-122934819D01*
X179489047Y-122934819D02*
X179250952Y-122934819D01*
X179250952Y-122934819D02*
X179108095Y-122982438D01*
X178774761Y-122934819D02*
X178536666Y-123934819D01*
X178536666Y-123934819D02*
X178346190Y-123220533D01*
X178346190Y-123220533D02*
X178155714Y-123934819D01*
X178155714Y-123934819D02*
X177917619Y-122934819D01*
X177012857Y-123934819D02*
X177584285Y-123934819D01*
X177298571Y-123934819D02*
X177298571Y-122934819D01*
X177298571Y-122934819D02*
X177393809Y-123077676D01*
X177393809Y-123077676D02*
X177489047Y-123172914D01*
X177489047Y-123172914D02*
X177584285Y-123220533D01*
X176155714Y-122934819D02*
X176346190Y-122934819D01*
X176346190Y-122934819D02*
X176441428Y-122982438D01*
X176441428Y-122982438D02*
X176489047Y-123030057D01*
X176489047Y-123030057D02*
X176584285Y-123172914D01*
X176584285Y-123172914D02*
X176631904Y-123363390D01*
X176631904Y-123363390D02*
X176631904Y-123744342D01*
X176631904Y-123744342D02*
X176584285Y-123839580D01*
X176584285Y-123839580D02*
X176536666Y-123887200D01*
X176536666Y-123887200D02*
X176441428Y-123934819D01*
X176441428Y-123934819D02*
X176250952Y-123934819D01*
X176250952Y-123934819D02*
X176155714Y-123887200D01*
X176155714Y-123887200D02*
X176108095Y-123839580D01*
X176108095Y-123839580D02*
X176060476Y-123744342D01*
X176060476Y-123744342D02*
X176060476Y-123506247D01*
X176060476Y-123506247D02*
X176108095Y-123411009D01*
X176108095Y-123411009D02*
X176155714Y-123363390D01*
X176155714Y-123363390D02*
X176250952Y-123315771D01*
X176250952Y-123315771D02*
X176441428Y-123315771D01*
X176441428Y-123315771D02*
X176536666Y-123363390D01*
X176536666Y-123363390D02*
X176584285Y-123411009D01*
X176584285Y-123411009D02*
X176631904Y-123506247D01*
X154383332Y-105217200D02*
X154240475Y-105264819D01*
X154240475Y-105264819D02*
X154002380Y-105264819D01*
X154002380Y-105264819D02*
X153907142Y-105217200D01*
X153907142Y-105217200D02*
X153859523Y-105169580D01*
X153859523Y-105169580D02*
X153811904Y-105074342D01*
X153811904Y-105074342D02*
X153811904Y-104979104D01*
X153811904Y-104979104D02*
X153859523Y-104883866D01*
X153859523Y-104883866D02*
X153907142Y-104836247D01*
X153907142Y-104836247D02*
X154002380Y-104788628D01*
X154002380Y-104788628D02*
X154192856Y-104741009D01*
X154192856Y-104741009D02*
X154288094Y-104693390D01*
X154288094Y-104693390D02*
X154335713Y-104645771D01*
X154335713Y-104645771D02*
X154383332Y-104550533D01*
X154383332Y-104550533D02*
X154383332Y-104455295D01*
X154383332Y-104455295D02*
X154335713Y-104360057D01*
X154335713Y-104360057D02*
X154288094Y-104312438D01*
X154288094Y-104312438D02*
X154192856Y-104264819D01*
X154192856Y-104264819D02*
X153954761Y-104264819D01*
X153954761Y-104264819D02*
X153811904Y-104312438D01*
X153478570Y-104264819D02*
X153240475Y-105264819D01*
X153240475Y-105264819D02*
X153049999Y-104550533D01*
X153049999Y-104550533D02*
X152859523Y-105264819D01*
X152859523Y-105264819D02*
X152621428Y-104264819D01*
X152192856Y-105264819D02*
X152002380Y-105264819D01*
X152002380Y-105264819D02*
X151907142Y-105217200D01*
X151907142Y-105217200D02*
X151859523Y-105169580D01*
X151859523Y-105169580D02*
X151764285Y-105026723D01*
X151764285Y-105026723D02*
X151716666Y-104836247D01*
X151716666Y-104836247D02*
X151716666Y-104455295D01*
X151716666Y-104455295D02*
X151764285Y-104360057D01*
X151764285Y-104360057D02*
X151811904Y-104312438D01*
X151811904Y-104312438D02*
X151907142Y-104264819D01*
X151907142Y-104264819D02*
X152097618Y-104264819D01*
X152097618Y-104264819D02*
X152192856Y-104312438D01*
X152192856Y-104312438D02*
X152240475Y-104360057D01*
X152240475Y-104360057D02*
X152288094Y-104455295D01*
X152288094Y-104455295D02*
X152288094Y-104693390D01*
X152288094Y-104693390D02*
X152240475Y-104788628D01*
X152240475Y-104788628D02*
X152192856Y-104836247D01*
X152192856Y-104836247D02*
X152097618Y-104883866D01*
X152097618Y-104883866D02*
X151907142Y-104883866D01*
X151907142Y-104883866D02*
X151811904Y-104836247D01*
X151811904Y-104836247D02*
X151764285Y-104788628D01*
X151764285Y-104788628D02*
X151716666Y-104693390D01*
X108553332Y-161987200D02*
X108410475Y-162034819D01*
X108410475Y-162034819D02*
X108172380Y-162034819D01*
X108172380Y-162034819D02*
X108077142Y-161987200D01*
X108077142Y-161987200D02*
X108029523Y-161939580D01*
X108029523Y-161939580D02*
X107981904Y-161844342D01*
X107981904Y-161844342D02*
X107981904Y-161749104D01*
X107981904Y-161749104D02*
X108029523Y-161653866D01*
X108029523Y-161653866D02*
X108077142Y-161606247D01*
X108077142Y-161606247D02*
X108172380Y-161558628D01*
X108172380Y-161558628D02*
X108362856Y-161511009D01*
X108362856Y-161511009D02*
X108458094Y-161463390D01*
X108458094Y-161463390D02*
X108505713Y-161415771D01*
X108505713Y-161415771D02*
X108553332Y-161320533D01*
X108553332Y-161320533D02*
X108553332Y-161225295D01*
X108553332Y-161225295D02*
X108505713Y-161130057D01*
X108505713Y-161130057D02*
X108458094Y-161082438D01*
X108458094Y-161082438D02*
X108362856Y-161034819D01*
X108362856Y-161034819D02*
X108124761Y-161034819D01*
X108124761Y-161034819D02*
X107981904Y-161082438D01*
X107648570Y-161034819D02*
X107410475Y-162034819D01*
X107410475Y-162034819D02*
X107219999Y-161320533D01*
X107219999Y-161320533D02*
X107029523Y-162034819D01*
X107029523Y-162034819D02*
X106791428Y-161034819D01*
X106505713Y-161034819D02*
X105839047Y-161034819D01*
X105839047Y-161034819D02*
X106267618Y-162034819D01*
X140123332Y-170187200D02*
X139980475Y-170234819D01*
X139980475Y-170234819D02*
X139742380Y-170234819D01*
X139742380Y-170234819D02*
X139647142Y-170187200D01*
X139647142Y-170187200D02*
X139599523Y-170139580D01*
X139599523Y-170139580D02*
X139551904Y-170044342D01*
X139551904Y-170044342D02*
X139551904Y-169949104D01*
X139551904Y-169949104D02*
X139599523Y-169853866D01*
X139599523Y-169853866D02*
X139647142Y-169806247D01*
X139647142Y-169806247D02*
X139742380Y-169758628D01*
X139742380Y-169758628D02*
X139932856Y-169711009D01*
X139932856Y-169711009D02*
X140028094Y-169663390D01*
X140028094Y-169663390D02*
X140075713Y-169615771D01*
X140075713Y-169615771D02*
X140123332Y-169520533D01*
X140123332Y-169520533D02*
X140123332Y-169425295D01*
X140123332Y-169425295D02*
X140075713Y-169330057D01*
X140075713Y-169330057D02*
X140028094Y-169282438D01*
X140028094Y-169282438D02*
X139932856Y-169234819D01*
X139932856Y-169234819D02*
X139694761Y-169234819D01*
X139694761Y-169234819D02*
X139551904Y-169282438D01*
X139218570Y-169234819D02*
X138980475Y-170234819D01*
X138980475Y-170234819D02*
X138789999Y-169520533D01*
X138789999Y-169520533D02*
X138599523Y-170234819D01*
X138599523Y-170234819D02*
X138361428Y-169234819D01*
X137837618Y-169663390D02*
X137932856Y-169615771D01*
X137932856Y-169615771D02*
X137980475Y-169568152D01*
X137980475Y-169568152D02*
X138028094Y-169472914D01*
X138028094Y-169472914D02*
X138028094Y-169425295D01*
X138028094Y-169425295D02*
X137980475Y-169330057D01*
X137980475Y-169330057D02*
X137932856Y-169282438D01*
X137932856Y-169282438D02*
X137837618Y-169234819D01*
X137837618Y-169234819D02*
X137647142Y-169234819D01*
X137647142Y-169234819D02*
X137551904Y-169282438D01*
X137551904Y-169282438D02*
X137504285Y-169330057D01*
X137504285Y-169330057D02*
X137456666Y-169425295D01*
X137456666Y-169425295D02*
X137456666Y-169472914D01*
X137456666Y-169472914D02*
X137504285Y-169568152D01*
X137504285Y-169568152D02*
X137551904Y-169615771D01*
X137551904Y-169615771D02*
X137647142Y-169663390D01*
X137647142Y-169663390D02*
X137837618Y-169663390D01*
X137837618Y-169663390D02*
X137932856Y-169711009D01*
X137932856Y-169711009D02*
X137980475Y-169758628D01*
X137980475Y-169758628D02*
X138028094Y-169853866D01*
X138028094Y-169853866D02*
X138028094Y-170044342D01*
X138028094Y-170044342D02*
X137980475Y-170139580D01*
X137980475Y-170139580D02*
X137932856Y-170187200D01*
X137932856Y-170187200D02*
X137837618Y-170234819D01*
X137837618Y-170234819D02*
X137647142Y-170234819D01*
X137647142Y-170234819D02*
X137551904Y-170187200D01*
X137551904Y-170187200D02*
X137504285Y-170139580D01*
X137504285Y-170139580D02*
X137456666Y-170044342D01*
X137456666Y-170044342D02*
X137456666Y-169853866D01*
X137456666Y-169853866D02*
X137504285Y-169758628D01*
X137504285Y-169758628D02*
X137551904Y-169711009D01*
X137551904Y-169711009D02*
X137647142Y-169663390D01*
X101703332Y-104267200D02*
X101560475Y-104314819D01*
X101560475Y-104314819D02*
X101322380Y-104314819D01*
X101322380Y-104314819D02*
X101227142Y-104267200D01*
X101227142Y-104267200D02*
X101179523Y-104219580D01*
X101179523Y-104219580D02*
X101131904Y-104124342D01*
X101131904Y-104124342D02*
X101131904Y-104029104D01*
X101131904Y-104029104D02*
X101179523Y-103933866D01*
X101179523Y-103933866D02*
X101227142Y-103886247D01*
X101227142Y-103886247D02*
X101322380Y-103838628D01*
X101322380Y-103838628D02*
X101512856Y-103791009D01*
X101512856Y-103791009D02*
X101608094Y-103743390D01*
X101608094Y-103743390D02*
X101655713Y-103695771D01*
X101655713Y-103695771D02*
X101703332Y-103600533D01*
X101703332Y-103600533D02*
X101703332Y-103505295D01*
X101703332Y-103505295D02*
X101655713Y-103410057D01*
X101655713Y-103410057D02*
X101608094Y-103362438D01*
X101608094Y-103362438D02*
X101512856Y-103314819D01*
X101512856Y-103314819D02*
X101274761Y-103314819D01*
X101274761Y-103314819D02*
X101131904Y-103362438D01*
X100798570Y-103314819D02*
X100560475Y-104314819D01*
X100560475Y-104314819D02*
X100369999Y-103600533D01*
X100369999Y-103600533D02*
X100179523Y-104314819D01*
X100179523Y-104314819D02*
X99941428Y-103314819D01*
X99084285Y-103314819D02*
X99560475Y-103314819D01*
X99560475Y-103314819D02*
X99608094Y-103791009D01*
X99608094Y-103791009D02*
X99560475Y-103743390D01*
X99560475Y-103743390D02*
X99465237Y-103695771D01*
X99465237Y-103695771D02*
X99227142Y-103695771D01*
X99227142Y-103695771D02*
X99131904Y-103743390D01*
X99131904Y-103743390D02*
X99084285Y-103791009D01*
X99084285Y-103791009D02*
X99036666Y-103886247D01*
X99036666Y-103886247D02*
X99036666Y-104124342D01*
X99036666Y-104124342D02*
X99084285Y-104219580D01*
X99084285Y-104219580D02*
X99131904Y-104267200D01*
X99131904Y-104267200D02*
X99227142Y-104314819D01*
X99227142Y-104314819D02*
X99465237Y-104314819D01*
X99465237Y-104314819D02*
X99560475Y-104267200D01*
X99560475Y-104267200D02*
X99608094Y-104219580D01*
X238029523Y-107907200D02*
X237886666Y-107954819D01*
X237886666Y-107954819D02*
X237648571Y-107954819D01*
X237648571Y-107954819D02*
X237553333Y-107907200D01*
X237553333Y-107907200D02*
X237505714Y-107859580D01*
X237505714Y-107859580D02*
X237458095Y-107764342D01*
X237458095Y-107764342D02*
X237458095Y-107669104D01*
X237458095Y-107669104D02*
X237505714Y-107573866D01*
X237505714Y-107573866D02*
X237553333Y-107526247D01*
X237553333Y-107526247D02*
X237648571Y-107478628D01*
X237648571Y-107478628D02*
X237839047Y-107431009D01*
X237839047Y-107431009D02*
X237934285Y-107383390D01*
X237934285Y-107383390D02*
X237981904Y-107335771D01*
X237981904Y-107335771D02*
X238029523Y-107240533D01*
X238029523Y-107240533D02*
X238029523Y-107145295D01*
X238029523Y-107145295D02*
X237981904Y-107050057D01*
X237981904Y-107050057D02*
X237934285Y-107002438D01*
X237934285Y-107002438D02*
X237839047Y-106954819D01*
X237839047Y-106954819D02*
X237600952Y-106954819D01*
X237600952Y-106954819D02*
X237458095Y-107002438D01*
X237124761Y-106954819D02*
X236886666Y-107954819D01*
X236886666Y-107954819D02*
X236696190Y-107240533D01*
X236696190Y-107240533D02*
X236505714Y-107954819D01*
X236505714Y-107954819D02*
X236267619Y-106954819D01*
X235362857Y-107954819D02*
X235934285Y-107954819D01*
X235648571Y-107954819D02*
X235648571Y-106954819D01*
X235648571Y-106954819D02*
X235743809Y-107097676D01*
X235743809Y-107097676D02*
X235839047Y-107192914D01*
X235839047Y-107192914D02*
X235934285Y-107240533D01*
X234791428Y-107383390D02*
X234886666Y-107335771D01*
X234886666Y-107335771D02*
X234934285Y-107288152D01*
X234934285Y-107288152D02*
X234981904Y-107192914D01*
X234981904Y-107192914D02*
X234981904Y-107145295D01*
X234981904Y-107145295D02*
X234934285Y-107050057D01*
X234934285Y-107050057D02*
X234886666Y-107002438D01*
X234886666Y-107002438D02*
X234791428Y-106954819D01*
X234791428Y-106954819D02*
X234600952Y-106954819D01*
X234600952Y-106954819D02*
X234505714Y-107002438D01*
X234505714Y-107002438D02*
X234458095Y-107050057D01*
X234458095Y-107050057D02*
X234410476Y-107145295D01*
X234410476Y-107145295D02*
X234410476Y-107192914D01*
X234410476Y-107192914D02*
X234458095Y-107288152D01*
X234458095Y-107288152D02*
X234505714Y-107335771D01*
X234505714Y-107335771D02*
X234600952Y-107383390D01*
X234600952Y-107383390D02*
X234791428Y-107383390D01*
X234791428Y-107383390D02*
X234886666Y-107431009D01*
X234886666Y-107431009D02*
X234934285Y-107478628D01*
X234934285Y-107478628D02*
X234981904Y-107573866D01*
X234981904Y-107573866D02*
X234981904Y-107764342D01*
X234981904Y-107764342D02*
X234934285Y-107859580D01*
X234934285Y-107859580D02*
X234886666Y-107907200D01*
X234886666Y-107907200D02*
X234791428Y-107954819D01*
X234791428Y-107954819D02*
X234600952Y-107954819D01*
X234600952Y-107954819D02*
X234505714Y-107907200D01*
X234505714Y-107907200D02*
X234458095Y-107859580D01*
X234458095Y-107859580D02*
X234410476Y-107764342D01*
X234410476Y-107764342D02*
X234410476Y-107573866D01*
X234410476Y-107573866D02*
X234458095Y-107478628D01*
X234458095Y-107478628D02*
X234505714Y-107431009D01*
X234505714Y-107431009D02*
X234600952Y-107383390D01*
X206659523Y-112447200D02*
X206516666Y-112494819D01*
X206516666Y-112494819D02*
X206278571Y-112494819D01*
X206278571Y-112494819D02*
X206183333Y-112447200D01*
X206183333Y-112447200D02*
X206135714Y-112399580D01*
X206135714Y-112399580D02*
X206088095Y-112304342D01*
X206088095Y-112304342D02*
X206088095Y-112209104D01*
X206088095Y-112209104D02*
X206135714Y-112113866D01*
X206135714Y-112113866D02*
X206183333Y-112066247D01*
X206183333Y-112066247D02*
X206278571Y-112018628D01*
X206278571Y-112018628D02*
X206469047Y-111971009D01*
X206469047Y-111971009D02*
X206564285Y-111923390D01*
X206564285Y-111923390D02*
X206611904Y-111875771D01*
X206611904Y-111875771D02*
X206659523Y-111780533D01*
X206659523Y-111780533D02*
X206659523Y-111685295D01*
X206659523Y-111685295D02*
X206611904Y-111590057D01*
X206611904Y-111590057D02*
X206564285Y-111542438D01*
X206564285Y-111542438D02*
X206469047Y-111494819D01*
X206469047Y-111494819D02*
X206230952Y-111494819D01*
X206230952Y-111494819D02*
X206088095Y-111542438D01*
X205754761Y-111494819D02*
X205516666Y-112494819D01*
X205516666Y-112494819D02*
X205326190Y-111780533D01*
X205326190Y-111780533D02*
X205135714Y-112494819D01*
X205135714Y-112494819D02*
X204897619Y-111494819D01*
X203992857Y-112494819D02*
X204564285Y-112494819D01*
X204278571Y-112494819D02*
X204278571Y-111494819D01*
X204278571Y-111494819D02*
X204373809Y-111637676D01*
X204373809Y-111637676D02*
X204469047Y-111732914D01*
X204469047Y-111732914D02*
X204564285Y-111780533D01*
X203659523Y-111494819D02*
X202992857Y-111494819D01*
X202992857Y-111494819D02*
X203421428Y-112494819D01*
X184349523Y-63267200D02*
X184206666Y-63314819D01*
X184206666Y-63314819D02*
X183968571Y-63314819D01*
X183968571Y-63314819D02*
X183873333Y-63267200D01*
X183873333Y-63267200D02*
X183825714Y-63219580D01*
X183825714Y-63219580D02*
X183778095Y-63124342D01*
X183778095Y-63124342D02*
X183778095Y-63029104D01*
X183778095Y-63029104D02*
X183825714Y-62933866D01*
X183825714Y-62933866D02*
X183873333Y-62886247D01*
X183873333Y-62886247D02*
X183968571Y-62838628D01*
X183968571Y-62838628D02*
X184159047Y-62791009D01*
X184159047Y-62791009D02*
X184254285Y-62743390D01*
X184254285Y-62743390D02*
X184301904Y-62695771D01*
X184301904Y-62695771D02*
X184349523Y-62600533D01*
X184349523Y-62600533D02*
X184349523Y-62505295D01*
X184349523Y-62505295D02*
X184301904Y-62410057D01*
X184301904Y-62410057D02*
X184254285Y-62362438D01*
X184254285Y-62362438D02*
X184159047Y-62314819D01*
X184159047Y-62314819D02*
X183920952Y-62314819D01*
X183920952Y-62314819D02*
X183778095Y-62362438D01*
X183444761Y-62314819D02*
X183206666Y-63314819D01*
X183206666Y-63314819D02*
X183016190Y-62600533D01*
X183016190Y-62600533D02*
X182825714Y-63314819D01*
X182825714Y-63314819D02*
X182587619Y-62314819D01*
X181682857Y-63314819D02*
X182254285Y-63314819D01*
X181968571Y-63314819D02*
X181968571Y-62314819D01*
X181968571Y-62314819D02*
X182063809Y-62457676D01*
X182063809Y-62457676D02*
X182159047Y-62552914D01*
X182159047Y-62552914D02*
X182254285Y-62600533D01*
X180825714Y-62648152D02*
X180825714Y-63314819D01*
X181063809Y-62267200D02*
X181301904Y-62981485D01*
X181301904Y-62981485D02*
X180682857Y-62981485D01*
X181209523Y-93807200D02*
X181066666Y-93854819D01*
X181066666Y-93854819D02*
X180828571Y-93854819D01*
X180828571Y-93854819D02*
X180733333Y-93807200D01*
X180733333Y-93807200D02*
X180685714Y-93759580D01*
X180685714Y-93759580D02*
X180638095Y-93664342D01*
X180638095Y-93664342D02*
X180638095Y-93569104D01*
X180638095Y-93569104D02*
X180685714Y-93473866D01*
X180685714Y-93473866D02*
X180733333Y-93426247D01*
X180733333Y-93426247D02*
X180828571Y-93378628D01*
X180828571Y-93378628D02*
X181019047Y-93331009D01*
X181019047Y-93331009D02*
X181114285Y-93283390D01*
X181114285Y-93283390D02*
X181161904Y-93235771D01*
X181161904Y-93235771D02*
X181209523Y-93140533D01*
X181209523Y-93140533D02*
X181209523Y-93045295D01*
X181209523Y-93045295D02*
X181161904Y-92950057D01*
X181161904Y-92950057D02*
X181114285Y-92902438D01*
X181114285Y-92902438D02*
X181019047Y-92854819D01*
X181019047Y-92854819D02*
X180780952Y-92854819D01*
X180780952Y-92854819D02*
X180638095Y-92902438D01*
X180304761Y-92854819D02*
X180066666Y-93854819D01*
X180066666Y-93854819D02*
X179876190Y-93140533D01*
X179876190Y-93140533D02*
X179685714Y-93854819D01*
X179685714Y-93854819D02*
X179447619Y-92854819D01*
X178542857Y-93854819D02*
X179114285Y-93854819D01*
X178828571Y-93854819D02*
X178828571Y-92854819D01*
X178828571Y-92854819D02*
X178923809Y-92997676D01*
X178923809Y-92997676D02*
X179019047Y-93092914D01*
X179019047Y-93092914D02*
X179114285Y-93140533D01*
X177923809Y-92854819D02*
X177828571Y-92854819D01*
X177828571Y-92854819D02*
X177733333Y-92902438D01*
X177733333Y-92902438D02*
X177685714Y-92950057D01*
X177685714Y-92950057D02*
X177638095Y-93045295D01*
X177638095Y-93045295D02*
X177590476Y-93235771D01*
X177590476Y-93235771D02*
X177590476Y-93473866D01*
X177590476Y-93473866D02*
X177638095Y-93664342D01*
X177638095Y-93664342D02*
X177685714Y-93759580D01*
X177685714Y-93759580D02*
X177733333Y-93807200D01*
X177733333Y-93807200D02*
X177828571Y-93854819D01*
X177828571Y-93854819D02*
X177923809Y-93854819D01*
X177923809Y-93854819D02*
X178019047Y-93807200D01*
X178019047Y-93807200D02*
X178066666Y-93759580D01*
X178066666Y-93759580D02*
X178114285Y-93664342D01*
X178114285Y-93664342D02*
X178161904Y-93473866D01*
X178161904Y-93473866D02*
X178161904Y-93235771D01*
X178161904Y-93235771D02*
X178114285Y-93045295D01*
X178114285Y-93045295D02*
X178066666Y-92950057D01*
X178066666Y-92950057D02*
X178019047Y-92902438D01*
X178019047Y-92902438D02*
X177923809Y-92854819D01*
X127153332Y-117807200D02*
X127010475Y-117854819D01*
X127010475Y-117854819D02*
X126772380Y-117854819D01*
X126772380Y-117854819D02*
X126677142Y-117807200D01*
X126677142Y-117807200D02*
X126629523Y-117759580D01*
X126629523Y-117759580D02*
X126581904Y-117664342D01*
X126581904Y-117664342D02*
X126581904Y-117569104D01*
X126581904Y-117569104D02*
X126629523Y-117473866D01*
X126629523Y-117473866D02*
X126677142Y-117426247D01*
X126677142Y-117426247D02*
X126772380Y-117378628D01*
X126772380Y-117378628D02*
X126962856Y-117331009D01*
X126962856Y-117331009D02*
X127058094Y-117283390D01*
X127058094Y-117283390D02*
X127105713Y-117235771D01*
X127105713Y-117235771D02*
X127153332Y-117140533D01*
X127153332Y-117140533D02*
X127153332Y-117045295D01*
X127153332Y-117045295D02*
X127105713Y-116950057D01*
X127105713Y-116950057D02*
X127058094Y-116902438D01*
X127058094Y-116902438D02*
X126962856Y-116854819D01*
X126962856Y-116854819D02*
X126724761Y-116854819D01*
X126724761Y-116854819D02*
X126581904Y-116902438D01*
X126248570Y-116854819D02*
X126010475Y-117854819D01*
X126010475Y-117854819D02*
X125819999Y-117140533D01*
X125819999Y-117140533D02*
X125629523Y-117854819D01*
X125629523Y-117854819D02*
X125391428Y-116854819D01*
X124581904Y-116854819D02*
X124772380Y-116854819D01*
X124772380Y-116854819D02*
X124867618Y-116902438D01*
X124867618Y-116902438D02*
X124915237Y-116950057D01*
X124915237Y-116950057D02*
X125010475Y-117092914D01*
X125010475Y-117092914D02*
X125058094Y-117283390D01*
X125058094Y-117283390D02*
X125058094Y-117664342D01*
X125058094Y-117664342D02*
X125010475Y-117759580D01*
X125010475Y-117759580D02*
X124962856Y-117807200D01*
X124962856Y-117807200D02*
X124867618Y-117854819D01*
X124867618Y-117854819D02*
X124677142Y-117854819D01*
X124677142Y-117854819D02*
X124581904Y-117807200D01*
X124581904Y-117807200D02*
X124534285Y-117759580D01*
X124534285Y-117759580D02*
X124486666Y-117664342D01*
X124486666Y-117664342D02*
X124486666Y-117426247D01*
X124486666Y-117426247D02*
X124534285Y-117331009D01*
X124534285Y-117331009D02*
X124581904Y-117283390D01*
X124581904Y-117283390D02*
X124677142Y-117235771D01*
X124677142Y-117235771D02*
X124867618Y-117235771D01*
X124867618Y-117235771D02*
X124962856Y-117283390D01*
X124962856Y-117283390D02*
X125010475Y-117331009D01*
X125010475Y-117331009D02*
X125058094Y-117426247D01*
X264229523Y-92627200D02*
X264086666Y-92674819D01*
X264086666Y-92674819D02*
X263848571Y-92674819D01*
X263848571Y-92674819D02*
X263753333Y-92627200D01*
X263753333Y-92627200D02*
X263705714Y-92579580D01*
X263705714Y-92579580D02*
X263658095Y-92484342D01*
X263658095Y-92484342D02*
X263658095Y-92389104D01*
X263658095Y-92389104D02*
X263705714Y-92293866D01*
X263705714Y-92293866D02*
X263753333Y-92246247D01*
X263753333Y-92246247D02*
X263848571Y-92198628D01*
X263848571Y-92198628D02*
X264039047Y-92151009D01*
X264039047Y-92151009D02*
X264134285Y-92103390D01*
X264134285Y-92103390D02*
X264181904Y-92055771D01*
X264181904Y-92055771D02*
X264229523Y-91960533D01*
X264229523Y-91960533D02*
X264229523Y-91865295D01*
X264229523Y-91865295D02*
X264181904Y-91770057D01*
X264181904Y-91770057D02*
X264134285Y-91722438D01*
X264134285Y-91722438D02*
X264039047Y-91674819D01*
X264039047Y-91674819D02*
X263800952Y-91674819D01*
X263800952Y-91674819D02*
X263658095Y-91722438D01*
X263324761Y-91674819D02*
X263086666Y-92674819D01*
X263086666Y-92674819D02*
X262896190Y-91960533D01*
X262896190Y-91960533D02*
X262705714Y-92674819D01*
X262705714Y-92674819D02*
X262467619Y-91674819D01*
X261562857Y-92674819D02*
X262134285Y-92674819D01*
X261848571Y-92674819D02*
X261848571Y-91674819D01*
X261848571Y-91674819D02*
X261943809Y-91817676D01*
X261943809Y-91817676D02*
X262039047Y-91912914D01*
X262039047Y-91912914D02*
X262134285Y-91960533D01*
X261229523Y-91674819D02*
X260610476Y-91674819D01*
X260610476Y-91674819D02*
X260943809Y-92055771D01*
X260943809Y-92055771D02*
X260800952Y-92055771D01*
X260800952Y-92055771D02*
X260705714Y-92103390D01*
X260705714Y-92103390D02*
X260658095Y-92151009D01*
X260658095Y-92151009D02*
X260610476Y-92246247D01*
X260610476Y-92246247D02*
X260610476Y-92484342D01*
X260610476Y-92484342D02*
X260658095Y-92579580D01*
X260658095Y-92579580D02*
X260705714Y-92627200D01*
X260705714Y-92627200D02*
X260800952Y-92674819D01*
X260800952Y-92674819D02*
X261086666Y-92674819D01*
X261086666Y-92674819D02*
X261181904Y-92627200D01*
X261181904Y-92627200D02*
X261229523Y-92579580D01*
X236659523Y-78457200D02*
X236516666Y-78504819D01*
X236516666Y-78504819D02*
X236278571Y-78504819D01*
X236278571Y-78504819D02*
X236183333Y-78457200D01*
X236183333Y-78457200D02*
X236135714Y-78409580D01*
X236135714Y-78409580D02*
X236088095Y-78314342D01*
X236088095Y-78314342D02*
X236088095Y-78219104D01*
X236088095Y-78219104D02*
X236135714Y-78123866D01*
X236135714Y-78123866D02*
X236183333Y-78076247D01*
X236183333Y-78076247D02*
X236278571Y-78028628D01*
X236278571Y-78028628D02*
X236469047Y-77981009D01*
X236469047Y-77981009D02*
X236564285Y-77933390D01*
X236564285Y-77933390D02*
X236611904Y-77885771D01*
X236611904Y-77885771D02*
X236659523Y-77790533D01*
X236659523Y-77790533D02*
X236659523Y-77695295D01*
X236659523Y-77695295D02*
X236611904Y-77600057D01*
X236611904Y-77600057D02*
X236564285Y-77552438D01*
X236564285Y-77552438D02*
X236469047Y-77504819D01*
X236469047Y-77504819D02*
X236230952Y-77504819D01*
X236230952Y-77504819D02*
X236088095Y-77552438D01*
X235754761Y-77504819D02*
X235516666Y-78504819D01*
X235516666Y-78504819D02*
X235326190Y-77790533D01*
X235326190Y-77790533D02*
X235135714Y-78504819D01*
X235135714Y-78504819D02*
X234897619Y-77504819D01*
X233992857Y-78504819D02*
X234564285Y-78504819D01*
X234278571Y-78504819D02*
X234278571Y-77504819D01*
X234278571Y-77504819D02*
X234373809Y-77647676D01*
X234373809Y-77647676D02*
X234469047Y-77742914D01*
X234469047Y-77742914D02*
X234564285Y-77790533D01*
X233611904Y-77600057D02*
X233564285Y-77552438D01*
X233564285Y-77552438D02*
X233469047Y-77504819D01*
X233469047Y-77504819D02*
X233230952Y-77504819D01*
X233230952Y-77504819D02*
X233135714Y-77552438D01*
X233135714Y-77552438D02*
X233088095Y-77600057D01*
X233088095Y-77600057D02*
X233040476Y-77695295D01*
X233040476Y-77695295D02*
X233040476Y-77790533D01*
X233040476Y-77790533D02*
X233088095Y-77933390D01*
X233088095Y-77933390D02*
X233659523Y-78504819D01*
X233659523Y-78504819D02*
X233040476Y-78504819D01*
X143890000Y-136810000D02*
X144890000Y-136810000D01*
X143890000Y-137810000D02*
X143890000Y-136810000D01*
X143890000Y-150810000D02*
X143890000Y-149810000D01*
X144890000Y-150810000D02*
X143890000Y-150810000D01*
X148890000Y-136110000D02*
X149390000Y-135610000D01*
X148890000Y-139610000D02*
X149390000Y-140110000D01*
X149390000Y-135610000D02*
X152390000Y-135610000D01*
X149390000Y-140110000D02*
X151890000Y-140110000D01*
X152390000Y-135610000D02*
X152890000Y-136110000D01*
X152890000Y-137110000D02*
X152890000Y-136110000D01*
X153390000Y-141610000D02*
X153390000Y-142310000D01*
X153390000Y-142310000D02*
X157890000Y-142310000D01*
X156890000Y-136810000D02*
X157890000Y-136810000D01*
X157890000Y-136810000D02*
X157890000Y-137810000D01*
X157890000Y-137610000D02*
X153390000Y-137610000D01*
X157890000Y-138210000D02*
X157890000Y-137610000D01*
X157890000Y-142310000D02*
X157890000Y-141810000D01*
X157890000Y-149810000D02*
X157890000Y-150810000D01*
X157890000Y-150810000D02*
X156890000Y-150810000D01*
X153390000Y-141610000D02*
G75*
G03*
X151890000Y-140110000I-1500000J0D01*
G01*
X152890000Y-137110000D02*
G75*
G03*
X153390000Y-137610000I500000J0D01*
G01*
X198750000Y-83880000D02*
X199750000Y-83880000D01*
X198750000Y-84880000D02*
X198750000Y-83880000D01*
X198750000Y-97880000D02*
X198750000Y-96880000D01*
X199750000Y-97880000D02*
X198750000Y-97880000D01*
X203750000Y-83180000D02*
X204250000Y-82680000D01*
X203750000Y-86680000D02*
X204250000Y-87180000D01*
X204250000Y-82680000D02*
X207250000Y-82680000D01*
X204250000Y-87180000D02*
X206750000Y-87180000D01*
X207250000Y-82680000D02*
X207750000Y-83180000D01*
X207750000Y-84180000D02*
X207750000Y-83180000D01*
X208250000Y-88680000D02*
X208250000Y-89380000D01*
X208250000Y-89380000D02*
X212750000Y-89380000D01*
X211750000Y-83880000D02*
X212750000Y-83880000D01*
X212750000Y-83880000D02*
X212750000Y-84880000D01*
X212750000Y-84680000D02*
X208250000Y-84680000D01*
X212750000Y-85280000D02*
X212750000Y-84680000D01*
X212750000Y-89380000D02*
X212750000Y-88880000D01*
X212750000Y-96880000D02*
X212750000Y-97880000D01*
X212750000Y-97880000D02*
X211750000Y-97880000D01*
X208250000Y-88680000D02*
G75*
G03*
X206750000Y-87180000I-1500000J0D01*
G01*
X207750000Y-84180000D02*
G75*
G03*
X208250000Y-84680000I500000J0D01*
G01*
D12*
X67046000Y-69984000D02*
X92954000Y-69984000D01*
X67046000Y-95892000D02*
X67046000Y-69984000D01*
X67808000Y-79128000D02*
X75428000Y-79128000D01*
X67808000Y-91828000D02*
X75428000Y-91828000D01*
X92192000Y-79128000D02*
X84572000Y-79128000D01*
X92192000Y-91828000D02*
X84572000Y-91828000D01*
X92954000Y-69984000D02*
X92954000Y-95892000D01*
X92954000Y-95892000D02*
X67046000Y-95892000D01*
D11*
X64750000Y-105750000D02*
X65750000Y-105750000D01*
X64750000Y-106750000D02*
X64750000Y-105750000D01*
X64750000Y-119750000D02*
X64750000Y-118750000D01*
X65750000Y-119750000D02*
X64750000Y-119750000D01*
X69750000Y-105050000D02*
X70250000Y-104550000D01*
X69750000Y-108550000D02*
X70250000Y-109050000D01*
X70250000Y-104550000D02*
X73250000Y-104550000D01*
X70250000Y-109050000D02*
X72750000Y-109050000D01*
X73250000Y-104550000D02*
X73750000Y-105050000D01*
X73750000Y-106050000D02*
X73750000Y-105050000D01*
X74250000Y-110550000D02*
X74250000Y-111250000D01*
X74250000Y-111250000D02*
X78750000Y-111250000D01*
X77750000Y-105750000D02*
X78750000Y-105750000D01*
X78750000Y-105750000D02*
X78750000Y-106750000D01*
X78750000Y-106550000D02*
X74250000Y-106550000D01*
X78750000Y-107150000D02*
X78750000Y-106550000D01*
X78750000Y-111250000D02*
X78750000Y-110750000D01*
X78750000Y-118750000D02*
X78750000Y-119750000D01*
X78750000Y-119750000D02*
X77750000Y-119750000D01*
X74250000Y-110550000D02*
G75*
G03*
X72750000Y-109050000I-1500000J0D01*
G01*
X73750000Y-106050000D02*
G75*
G03*
X74250000Y-106550000I500000J0D01*
G01*
X170870000Y-125370000D02*
X171870000Y-125370000D01*
X170870000Y-126370000D02*
X170870000Y-125370000D01*
X170870000Y-139370000D02*
X170870000Y-138370000D01*
X171870000Y-139370000D02*
X170870000Y-139370000D01*
X175870000Y-124670000D02*
X176370000Y-124170000D01*
X175870000Y-128170000D02*
X176370000Y-128670000D01*
X176370000Y-124170000D02*
X179370000Y-124170000D01*
X176370000Y-128670000D02*
X178870000Y-128670000D01*
X179370000Y-124170000D02*
X179870000Y-124670000D01*
X179870000Y-125670000D02*
X179870000Y-124670000D01*
X180370000Y-130170000D02*
X180370000Y-130870000D01*
X180370000Y-130870000D02*
X184870000Y-130870000D01*
X183870000Y-125370000D02*
X184870000Y-125370000D01*
X184870000Y-125370000D02*
X184870000Y-126370000D01*
X184870000Y-126170000D02*
X180370000Y-126170000D01*
X184870000Y-126770000D02*
X184870000Y-126170000D01*
X184870000Y-130870000D02*
X184870000Y-130370000D01*
X184870000Y-138370000D02*
X184870000Y-139370000D01*
X184870000Y-139370000D02*
X183870000Y-139370000D01*
X180370000Y-130170000D02*
G75*
G03*
X178870000Y-128670000I-1500000J0D01*
G01*
X179870000Y-125670000D02*
G75*
G03*
X180370000Y-126170000I500000J0D01*
G01*
X146050000Y-106700000D02*
X147050000Y-106700000D01*
X146050000Y-107700000D02*
X146050000Y-106700000D01*
X146050000Y-120700000D02*
X146050000Y-119700000D01*
X147050000Y-120700000D02*
X146050000Y-120700000D01*
X151050000Y-106000000D02*
X151550000Y-105500000D01*
X151050000Y-109500000D02*
X151550000Y-110000000D01*
X151550000Y-105500000D02*
X154550000Y-105500000D01*
X151550000Y-110000000D02*
X154050000Y-110000000D01*
X154550000Y-105500000D02*
X155050000Y-106000000D01*
X155050000Y-107000000D02*
X155050000Y-106000000D01*
X155550000Y-111500000D02*
X155550000Y-112200000D01*
X155550000Y-112200000D02*
X160050000Y-112200000D01*
X159050000Y-106700000D02*
X160050000Y-106700000D01*
X160050000Y-106700000D02*
X160050000Y-107700000D01*
X160050000Y-107500000D02*
X155550000Y-107500000D01*
X160050000Y-108100000D02*
X160050000Y-107500000D01*
X160050000Y-112200000D02*
X160050000Y-111700000D01*
X160050000Y-119700000D02*
X160050000Y-120700000D01*
X160050000Y-120700000D02*
X159050000Y-120700000D01*
X155550000Y-111500000D02*
G75*
G03*
X154050000Y-110000000I-1500000J0D01*
G01*
X155050000Y-107000000D02*
G75*
G03*
X155550000Y-107500000I500000J0D01*
G01*
X100220000Y-163470000D02*
X101220000Y-163470000D01*
X100220000Y-164470000D02*
X100220000Y-163470000D01*
X100220000Y-177470000D02*
X100220000Y-176470000D01*
X101220000Y-177470000D02*
X100220000Y-177470000D01*
X105220000Y-162770000D02*
X105720000Y-162270000D01*
X105220000Y-166270000D02*
X105720000Y-166770000D01*
X105720000Y-162270000D02*
X108720000Y-162270000D01*
X105720000Y-166770000D02*
X108220000Y-166770000D01*
X108720000Y-162270000D02*
X109220000Y-162770000D01*
X109220000Y-163770000D02*
X109220000Y-162770000D01*
X109720000Y-168270000D02*
X109720000Y-168970000D01*
X109720000Y-168970000D02*
X114220000Y-168970000D01*
X113220000Y-163470000D02*
X114220000Y-163470000D01*
X114220000Y-163470000D02*
X114220000Y-164470000D01*
X114220000Y-164270000D02*
X109720000Y-164270000D01*
X114220000Y-164870000D02*
X114220000Y-164270000D01*
X114220000Y-168970000D02*
X114220000Y-168470000D01*
X114220000Y-176470000D02*
X114220000Y-177470000D01*
X114220000Y-177470000D02*
X113220000Y-177470000D01*
X109720000Y-168270000D02*
G75*
G03*
X108220000Y-166770000I-1500000J0D01*
G01*
X109220000Y-163770000D02*
G75*
G03*
X109720000Y-164270000I500000J0D01*
G01*
X131790000Y-171670000D02*
X132790000Y-171670000D01*
X131790000Y-172670000D02*
X131790000Y-171670000D01*
X131790000Y-185670000D02*
X131790000Y-184670000D01*
X132790000Y-185670000D02*
X131790000Y-185670000D01*
X136790000Y-170970000D02*
X137290000Y-170470000D01*
X136790000Y-174470000D02*
X137290000Y-174970000D01*
X137290000Y-170470000D02*
X140290000Y-170470000D01*
X137290000Y-174970000D02*
X139790000Y-174970000D01*
X140290000Y-170470000D02*
X140790000Y-170970000D01*
X140790000Y-171970000D02*
X140790000Y-170970000D01*
X141290000Y-176470000D02*
X141290000Y-177170000D01*
X141290000Y-177170000D02*
X145790000Y-177170000D01*
X144790000Y-171670000D02*
X145790000Y-171670000D01*
X145790000Y-171670000D02*
X145790000Y-172670000D01*
X145790000Y-172470000D02*
X141290000Y-172470000D01*
X145790000Y-173070000D02*
X145790000Y-172470000D01*
X145790000Y-177170000D02*
X145790000Y-176670000D01*
X145790000Y-184670000D02*
X145790000Y-185670000D01*
X145790000Y-185670000D02*
X144790000Y-185670000D01*
X141290000Y-176470000D02*
G75*
G03*
X139790000Y-174970000I-1500000J0D01*
G01*
X140790000Y-171970000D02*
G75*
G03*
X141290000Y-172470000I500000J0D01*
G01*
X93370000Y-105750000D02*
X94370000Y-105750000D01*
X93370000Y-106750000D02*
X93370000Y-105750000D01*
X93370000Y-119750000D02*
X93370000Y-118750000D01*
X94370000Y-119750000D02*
X93370000Y-119750000D01*
X98370000Y-105050000D02*
X98870000Y-104550000D01*
X98370000Y-108550000D02*
X98870000Y-109050000D01*
X98870000Y-104550000D02*
X101870000Y-104550000D01*
X98870000Y-109050000D02*
X101370000Y-109050000D01*
X101870000Y-104550000D02*
X102370000Y-105050000D01*
X102370000Y-106050000D02*
X102370000Y-105050000D01*
X102870000Y-110550000D02*
X102870000Y-111250000D01*
X102870000Y-111250000D02*
X107370000Y-111250000D01*
X106370000Y-105750000D02*
X107370000Y-105750000D01*
X107370000Y-105750000D02*
X107370000Y-106750000D01*
X107370000Y-106550000D02*
X102870000Y-106550000D01*
X107370000Y-107150000D02*
X107370000Y-106550000D01*
X107370000Y-111250000D02*
X107370000Y-110750000D01*
X107370000Y-118750000D02*
X107370000Y-119750000D01*
X107370000Y-119750000D02*
X106370000Y-119750000D01*
X102870000Y-110550000D02*
G75*
G03*
X101370000Y-109050000I-1500000J0D01*
G01*
X102370000Y-106050000D02*
G75*
G03*
X102870000Y-106550000I500000J0D01*
G01*
X229220000Y-109390000D02*
X230220000Y-109390000D01*
X229220000Y-110390000D02*
X229220000Y-109390000D01*
X229220000Y-123390000D02*
X229220000Y-122390000D01*
X230220000Y-123390000D02*
X229220000Y-123390000D01*
X234220000Y-108690000D02*
X234720000Y-108190000D01*
X234220000Y-112190000D02*
X234720000Y-112690000D01*
X234720000Y-108190000D02*
X237720000Y-108190000D01*
X234720000Y-112690000D02*
X237220000Y-112690000D01*
X237720000Y-108190000D02*
X238220000Y-108690000D01*
X238220000Y-109690000D02*
X238220000Y-108690000D01*
X238720000Y-114190000D02*
X238720000Y-114890000D01*
X238720000Y-114890000D02*
X243220000Y-114890000D01*
X242220000Y-109390000D02*
X243220000Y-109390000D01*
X243220000Y-109390000D02*
X243220000Y-110390000D01*
X243220000Y-110190000D02*
X238720000Y-110190000D01*
X243220000Y-110790000D02*
X243220000Y-110190000D01*
X243220000Y-114890000D02*
X243220000Y-114390000D01*
X243220000Y-122390000D02*
X243220000Y-123390000D01*
X243220000Y-123390000D02*
X242220000Y-123390000D01*
X238720000Y-114190000D02*
G75*
G03*
X237220000Y-112690000I-1500000J0D01*
G01*
X238220000Y-109690000D02*
G75*
G03*
X238720000Y-110190000I500000J0D01*
G01*
X197850000Y-113930000D02*
X198850000Y-113930000D01*
X197850000Y-114930000D02*
X197850000Y-113930000D01*
X197850000Y-127930000D02*
X197850000Y-126930000D01*
X198850000Y-127930000D02*
X197850000Y-127930000D01*
X202850000Y-113230000D02*
X203350000Y-112730000D01*
X202850000Y-116730000D02*
X203350000Y-117230000D01*
X203350000Y-112730000D02*
X206350000Y-112730000D01*
X203350000Y-117230000D02*
X205850000Y-117230000D01*
X206350000Y-112730000D02*
X206850000Y-113230000D01*
X206850000Y-114230000D02*
X206850000Y-113230000D01*
X207350000Y-118730000D02*
X207350000Y-119430000D01*
X207350000Y-119430000D02*
X211850000Y-119430000D01*
X210850000Y-113930000D02*
X211850000Y-113930000D01*
X211850000Y-113930000D02*
X211850000Y-114930000D01*
X211850000Y-114730000D02*
X207350000Y-114730000D01*
X211850000Y-115330000D02*
X211850000Y-114730000D01*
X211850000Y-119430000D02*
X211850000Y-118930000D01*
X211850000Y-126930000D02*
X211850000Y-127930000D01*
X211850000Y-127930000D02*
X210850000Y-127930000D01*
X207350000Y-118730000D02*
G75*
G03*
X205850000Y-117230000I-1500000J0D01*
G01*
X206850000Y-114230000D02*
G75*
G03*
X207350000Y-114730000I500000J0D01*
G01*
X175540000Y-64750000D02*
X176540000Y-64750000D01*
X175540000Y-65750000D02*
X175540000Y-64750000D01*
X175540000Y-78750000D02*
X175540000Y-77750000D01*
X176540000Y-78750000D02*
X175540000Y-78750000D01*
X180540000Y-64050000D02*
X181040000Y-63550000D01*
X180540000Y-67550000D02*
X181040000Y-68050000D01*
X181040000Y-63550000D02*
X184040000Y-63550000D01*
X181040000Y-68050000D02*
X183540000Y-68050000D01*
X184040000Y-63550000D02*
X184540000Y-64050000D01*
X184540000Y-65050000D02*
X184540000Y-64050000D01*
X185040000Y-69550000D02*
X185040000Y-70250000D01*
X185040000Y-70250000D02*
X189540000Y-70250000D01*
X188540000Y-64750000D02*
X189540000Y-64750000D01*
X189540000Y-64750000D02*
X189540000Y-65750000D01*
X189540000Y-65550000D02*
X185040000Y-65550000D01*
X189540000Y-66150000D02*
X189540000Y-65550000D01*
X189540000Y-70250000D02*
X189540000Y-69750000D01*
X189540000Y-77750000D02*
X189540000Y-78750000D01*
X189540000Y-78750000D02*
X188540000Y-78750000D01*
X185040000Y-69550000D02*
G75*
G03*
X183540000Y-68050000I-1500000J0D01*
G01*
X184540000Y-65050000D02*
G75*
G03*
X185040000Y-65550000I500000J0D01*
G01*
X172400000Y-95290000D02*
X173400000Y-95290000D01*
X172400000Y-96290000D02*
X172400000Y-95290000D01*
X172400000Y-109290000D02*
X172400000Y-108290000D01*
X173400000Y-109290000D02*
X172400000Y-109290000D01*
X177400000Y-94590000D02*
X177900000Y-94090000D01*
X177400000Y-98090000D02*
X177900000Y-98590000D01*
X177900000Y-94090000D02*
X180900000Y-94090000D01*
X177900000Y-98590000D02*
X180400000Y-98590000D01*
X180900000Y-94090000D02*
X181400000Y-94590000D01*
X181400000Y-95590000D02*
X181400000Y-94590000D01*
X181900000Y-100090000D02*
X181900000Y-100790000D01*
X181900000Y-100790000D02*
X186400000Y-100790000D01*
X185400000Y-95290000D02*
X186400000Y-95290000D01*
X186400000Y-95290000D02*
X186400000Y-96290000D01*
X186400000Y-96090000D02*
X181900000Y-96090000D01*
X186400000Y-96690000D02*
X186400000Y-96090000D01*
X186400000Y-100790000D02*
X186400000Y-100290000D01*
X186400000Y-108290000D02*
X186400000Y-109290000D01*
X186400000Y-109290000D02*
X185400000Y-109290000D01*
X181900000Y-100090000D02*
G75*
G03*
X180400000Y-98590000I-1500000J0D01*
G01*
X181400000Y-95590000D02*
G75*
G03*
X181900000Y-96090000I500000J0D01*
G01*
X118820000Y-119290000D02*
X119820000Y-119290000D01*
X118820000Y-120290000D02*
X118820000Y-119290000D01*
X118820000Y-133290000D02*
X118820000Y-132290000D01*
X119820000Y-133290000D02*
X118820000Y-133290000D01*
X123820000Y-118590000D02*
X124320000Y-118090000D01*
X123820000Y-122090000D02*
X124320000Y-122590000D01*
X124320000Y-118090000D02*
X127320000Y-118090000D01*
X124320000Y-122590000D02*
X126820000Y-122590000D01*
X127320000Y-118090000D02*
X127820000Y-118590000D01*
X127820000Y-119590000D02*
X127820000Y-118590000D01*
X128320000Y-124090000D02*
X128320000Y-124790000D01*
X128320000Y-124790000D02*
X132820000Y-124790000D01*
X131820000Y-119290000D02*
X132820000Y-119290000D01*
X132820000Y-119290000D02*
X132820000Y-120290000D01*
X132820000Y-120090000D02*
X128320000Y-120090000D01*
X132820000Y-120690000D02*
X132820000Y-120090000D01*
X132820000Y-124790000D02*
X132820000Y-124290000D01*
X132820000Y-132290000D02*
X132820000Y-133290000D01*
X132820000Y-133290000D02*
X131820000Y-133290000D01*
X128320000Y-124090000D02*
G75*
G03*
X126820000Y-122590000I-1500000J0D01*
G01*
X127820000Y-119590000D02*
G75*
G03*
X128320000Y-120090000I500000J0D01*
G01*
X255420000Y-94110000D02*
X256420000Y-94110000D01*
X255420000Y-95110000D02*
X255420000Y-94110000D01*
X255420000Y-108110000D02*
X255420000Y-107110000D01*
X256420000Y-108110000D02*
X255420000Y-108110000D01*
X260420000Y-93410000D02*
X260920000Y-92910000D01*
X260420000Y-96910000D02*
X260920000Y-97410000D01*
X260920000Y-92910000D02*
X263920000Y-92910000D01*
X260920000Y-97410000D02*
X263420000Y-97410000D01*
X263920000Y-92910000D02*
X264420000Y-93410000D01*
X264420000Y-94410000D02*
X264420000Y-93410000D01*
X264920000Y-98910000D02*
X264920000Y-99610000D01*
X264920000Y-99610000D02*
X269420000Y-99610000D01*
X268420000Y-94110000D02*
X269420000Y-94110000D01*
X269420000Y-94110000D02*
X269420000Y-95110000D01*
X269420000Y-94910000D02*
X264920000Y-94910000D01*
X269420000Y-95510000D02*
X269420000Y-94910000D01*
X269420000Y-99610000D02*
X269420000Y-99110000D01*
X269420000Y-107110000D02*
X269420000Y-108110000D01*
X269420000Y-108110000D02*
X268420000Y-108110000D01*
X264920000Y-98910000D02*
G75*
G03*
X263420000Y-97410000I-1500000J0D01*
G01*
X264420000Y-94410000D02*
G75*
G03*
X264920000Y-94910000I500000J0D01*
G01*
X227850000Y-79940000D02*
X228850000Y-79940000D01*
X227850000Y-80940000D02*
X227850000Y-79940000D01*
X227850000Y-93940000D02*
X227850000Y-92940000D01*
X228850000Y-93940000D02*
X227850000Y-93940000D01*
X232850000Y-79240000D02*
X233350000Y-78740000D01*
X232850000Y-82740000D02*
X233350000Y-83240000D01*
X233350000Y-78740000D02*
X236350000Y-78740000D01*
X233350000Y-83240000D02*
X235850000Y-83240000D01*
X236350000Y-78740000D02*
X236850000Y-79240000D01*
X236850000Y-80240000D02*
X236850000Y-79240000D01*
X237350000Y-84740000D02*
X237350000Y-85440000D01*
X237350000Y-85440000D02*
X241850000Y-85440000D01*
X240850000Y-79940000D02*
X241850000Y-79940000D01*
X241850000Y-79940000D02*
X241850000Y-80940000D01*
X241850000Y-80740000D02*
X237350000Y-80740000D01*
X241850000Y-81340000D02*
X241850000Y-80740000D01*
X241850000Y-85440000D02*
X241850000Y-84940000D01*
X241850000Y-92940000D02*
X241850000Y-93940000D01*
X241850000Y-93940000D02*
X240850000Y-93940000D01*
X237350000Y-84740000D02*
G75*
G03*
X235850000Y-83240000I-1500000J0D01*
G01*
X236850000Y-80240000D02*
G75*
G03*
X237350000Y-80740000I500000J0D01*
G01*
%LPC*%
D13*
X145094000Y-56190000D03*
X139314000Y-56190000D03*
D14*
X146524000Y-56720000D03*
D15*
X146524000Y-52540000D03*
D14*
X137884000Y-56720000D03*
D15*
X137884000Y-52540000D03*
D16*
X205200000Y-53750000D03*
X210200000Y-53750000D03*
D17*
X204100000Y-56150000D03*
X211300000Y-56150000D03*
D18*
X145390000Y-143810000D03*
D19*
X145890000Y-140060000D03*
X150890000Y-137860000D03*
D20*
X150890000Y-143810000D03*
D19*
X155890000Y-140060000D03*
D18*
X156390000Y-143810000D03*
D21*
X147615000Y-137860000D03*
D22*
X150890000Y-149710000D03*
X145890000Y-147610000D03*
X155890000Y-147610000D03*
D21*
X159165000Y-140060000D03*
D18*
X200250000Y-90880000D03*
D19*
X200750000Y-87130000D03*
X205750000Y-84930000D03*
D20*
X205750000Y-90880000D03*
D19*
X210750000Y-87130000D03*
D18*
X211250000Y-90880000D03*
D21*
X202475000Y-84930000D03*
D22*
X205750000Y-96780000D03*
X200750000Y-94680000D03*
X210750000Y-94680000D03*
D21*
X214025000Y-87130000D03*
D23*
X279108000Y-193764000D03*
D24*
X76190000Y-71000000D03*
X76190000Y-94876000D03*
X78730000Y-71000000D03*
X78730000Y-94876000D03*
X81270000Y-71000000D03*
X81270000Y-94876000D03*
X83810000Y-71000000D03*
X83810000Y-94876000D03*
D25*
X72250000Y-59750000D03*
X72250000Y-66250000D03*
X67750000Y-59750000D03*
X67750000Y-66250000D03*
X82250000Y-59750000D03*
X82250000Y-66250000D03*
X77750000Y-59750000D03*
X77750000Y-66250000D03*
D18*
X66250000Y-112750000D03*
D19*
X66750000Y-109000000D03*
X71750000Y-106800000D03*
D20*
X71750000Y-112750000D03*
D19*
X76750000Y-109000000D03*
D18*
X77250000Y-112750000D03*
D21*
X68475000Y-106800000D03*
D22*
X71750000Y-118650000D03*
X66750000Y-116550000D03*
X76750000Y-116550000D03*
D21*
X80025000Y-109000000D03*
D23*
X279362000Y-53810000D03*
D25*
X92250000Y-59750000D03*
X92250000Y-66250000D03*
X87750000Y-59750000D03*
X87750000Y-66250000D03*
D18*
X172370000Y-132370000D03*
D19*
X172870000Y-128620000D03*
X177870000Y-126420000D03*
D20*
X177870000Y-132370000D03*
D19*
X182870000Y-128620000D03*
D18*
X183370000Y-132370000D03*
D21*
X174595000Y-126420000D03*
D22*
X177870000Y-138270000D03*
X172870000Y-136170000D03*
X182870000Y-136170000D03*
D21*
X186145000Y-128620000D03*
D18*
X147550000Y-113700000D03*
D19*
X148050000Y-109950000D03*
X153050000Y-107750000D03*
D20*
X153050000Y-113700000D03*
D19*
X158050000Y-109950000D03*
D18*
X158550000Y-113700000D03*
D21*
X149775000Y-107750000D03*
D22*
X153050000Y-119600000D03*
X148050000Y-117500000D03*
X158050000Y-117500000D03*
D21*
X161325000Y-109950000D03*
D18*
X101720000Y-170470000D03*
D19*
X102220000Y-166720000D03*
X107220000Y-164520000D03*
D20*
X107220000Y-170470000D03*
D19*
X112220000Y-166720000D03*
D18*
X112720000Y-170470000D03*
D21*
X103945000Y-164520000D03*
D22*
X107220000Y-176370000D03*
X102220000Y-174270000D03*
X112220000Y-174270000D03*
D21*
X115495000Y-166720000D03*
D18*
X133290000Y-178670000D03*
D19*
X133790000Y-174920000D03*
X138790000Y-172720000D03*
D20*
X138790000Y-178670000D03*
D19*
X143790000Y-174920000D03*
D18*
X144290000Y-178670000D03*
D21*
X135515000Y-172720000D03*
D22*
X138790000Y-184570000D03*
X133790000Y-182470000D03*
X143790000Y-182470000D03*
D21*
X147065000Y-174920000D03*
D18*
X94870000Y-112750000D03*
D19*
X95370000Y-109000000D03*
X100370000Y-106800000D03*
D20*
X100370000Y-112750000D03*
D19*
X105370000Y-109000000D03*
D18*
X105870000Y-112750000D03*
D21*
X97095000Y-106800000D03*
D22*
X100370000Y-118650000D03*
X95370000Y-116550000D03*
X105370000Y-116550000D03*
D21*
X108645000Y-109000000D03*
D16*
X98500000Y-53750000D03*
X103500000Y-53750000D03*
D17*
X97400000Y-56150000D03*
X104600000Y-56150000D03*
D18*
X230720000Y-116390000D03*
D19*
X231220000Y-112640000D03*
X236220000Y-110440000D03*
D20*
X236220000Y-116390000D03*
D19*
X241220000Y-112640000D03*
D18*
X241720000Y-116390000D03*
D21*
X232945000Y-110440000D03*
D22*
X236220000Y-122290000D03*
X231220000Y-120190000D03*
X241220000Y-120190000D03*
D21*
X244495000Y-112640000D03*
D18*
X199350000Y-120930000D03*
D19*
X199850000Y-117180000D03*
X204850000Y-114980000D03*
D20*
X204850000Y-120930000D03*
D19*
X209850000Y-117180000D03*
D18*
X210350000Y-120930000D03*
D21*
X201575000Y-114980000D03*
D22*
X204850000Y-126830000D03*
X199850000Y-124730000D03*
X209850000Y-124730000D03*
D21*
X213125000Y-117180000D03*
D23*
X53810000Y-53810000D03*
D18*
X177040000Y-71750000D03*
D19*
X177540000Y-68000000D03*
X182540000Y-65800000D03*
D20*
X182540000Y-71750000D03*
D19*
X187540000Y-68000000D03*
D18*
X188040000Y-71750000D03*
D21*
X179265000Y-65800000D03*
D22*
X182540000Y-77650000D03*
X177540000Y-75550000D03*
X187540000Y-75550000D03*
D21*
X190815000Y-68000000D03*
D18*
X173900000Y-102290000D03*
D19*
X174400000Y-98540000D03*
X179400000Y-96340000D03*
D20*
X179400000Y-102290000D03*
D19*
X184400000Y-98540000D03*
D18*
X184900000Y-102290000D03*
D21*
X176125000Y-96340000D03*
D22*
X179400000Y-108190000D03*
X174400000Y-106090000D03*
X184400000Y-106090000D03*
D21*
X187675000Y-98540000D03*
D18*
X120320000Y-126290000D03*
D19*
X120820000Y-122540000D03*
X125820000Y-120340000D03*
D20*
X125820000Y-126290000D03*
D19*
X130820000Y-122540000D03*
D18*
X131320000Y-126290000D03*
D21*
X122545000Y-120340000D03*
D22*
X125820000Y-132190000D03*
X120820000Y-130090000D03*
X130820000Y-130090000D03*
D21*
X134095000Y-122540000D03*
D18*
X256920000Y-101110000D03*
D19*
X257420000Y-97360000D03*
X262420000Y-95160000D03*
D20*
X262420000Y-101110000D03*
D19*
X267420000Y-97360000D03*
D18*
X267920000Y-101110000D03*
D21*
X259145000Y-95160000D03*
D22*
X262420000Y-107010000D03*
X257420000Y-104910000D03*
X267420000Y-104910000D03*
D21*
X270695000Y-97360000D03*
D18*
X229350000Y-86940000D03*
D19*
X229850000Y-83190000D03*
X234850000Y-80990000D03*
D20*
X234850000Y-86940000D03*
D19*
X239850000Y-83190000D03*
D18*
X240350000Y-86940000D03*
D21*
X231575000Y-80990000D03*
D22*
X234850000Y-92840000D03*
X229850000Y-90740000D03*
X239850000Y-90740000D03*
D21*
X243125000Y-83190000D03*
%LPD*%
M02*
