999
FreeCAD v0.21 33668 +26 (Git)
  0
SECTION
  2
HEADER
  9
$ACADVER
  1
AC1014
  9
$ACADMAINTVER
 70
     9
  9
$DWGCODEPAGE
  3
ANSI_1252
  9
$TEXTSTYLE
  7
STANDARD
  9
$DIMSTYLE
  2
STANDARD
  9
$DIMTXSTY
  7
STANDARD
  9
$CMLSTYLE
  2
STANDARD
  9
$LUNITS
 70
2
  9
$INSUNITS
 70
4
  9
$PEXTMAX
 10
50
 20
50
 30
50
  9
$PEXTMIN
 10
0
 20
0
 30
0
  9
$HANDSEED
  5
FFFF
  0
ENDSEC
  0
SECTION
  2
CLASSES
  0
CLASS
  1
ACDBDICTIONARYWDFLT
  2
AcDbDictionaryWithDefault
  3
ObjectDBX Classes
 90
        0
280
     0
281
     0
  0
CLASS
  1
XRECORD
  2
AcDbXrecord
  3
ObjectDBX Classes
 90
        0
280
     0
281
     0
  0
CLASS
  1
LWPOLYLINE
  2
AcDbPolyline
  3
ObjectDBX Classes
 90
        0
280
     0
281
     1
  0
ENDSEC
  0
SECTION
  2
TABLES
  0
TABLE
  2
VPORT
  5
20
330
0
100
AcDbSymbolTable
 70
     1
  0
VPORT
  5
21
330
20
100
AcDbSymbolTableRecord
100
AcDbViewportTableRecord
  2
*ACTIVE
 70
     0
  0
ENDTAB
  0
TABLE
  2
LTYPE
  5
22
330
0
100
AcDbSymbolTable
 70
     1
  0
LTYPE
  5
23
330
21
100
AcDbSymbolTableRecord
100
AcDbLinetypeTableRecord
  2
BYBLOCK
 70
     0
  3

 72
    65
 73
     0
 40
0.0
  0
LTYPE
  5
24
330
21
100
AcDbSymbolTableRecord
100
AcDbLinetypeTableRecord
  2
BYLAYER
 70
     0
  3

 72
    65
 73
     0
 40
0.0
  0
LTYPE
  5
25
330
21
100
AcDbSymbolTableRecord
100
AcDbLinetypeTableRecord
  2
CONTINUOUS
 70
     0
  3
Solid line
 72
    65
 73
     0
 40
0.0
  0
ENDTAB
  0
TABLE
  2
LAYER
  5
A4E
330
0
100
AcDbSymbolTable
 70
3
  0
LAYER
  5
A4F
330
A4E
100
AcDbSymbolTableRecord
100
AcDbLayerTableRecord
  2
0
 70
   0
 62
   7
  6
CONTINUOUS
  0
LAYER
  5
A50
330
A4E
100
AcDbSymbolTableRecord
100
AcDbLayerTableRecord
  2
none
 70
    0
 62
    7
  6
CONTINUOUS
  0
LAYER
  5
A51
330
A4E
100
AcDbSymbolTableRecord
100
AcDbLayerTableRecord
  2
Sketch003
 70
    0
 62
    7
  6
CONTINUOUS
  0
ENDTAB
  0
TABLE
  2
STYLE
  5
70
330
0
100
AcDbSymbolTable
 70
     2
  0
STYLE
  5
71
330
70
100
AcDbSymbolTableRecord
100
AcDbTextStyleTableRecord
  2
STANDARD
 70
     0
 40
0.0
 41
1.0
 50
0.0
 71
     0
 42
2.5
  3
arial.ttf
  4

  0
STYLE
  5
72
330
70
100
AcDbSymbolTableRecord
100
AcDbTextStyleTableRecord
  2
ANNOTATIVE
 70
     0
 40
0.0
 41
1.0
 50
0.0
 71
     0
 42
2.5
  3
arial.ttf
  4

  0
ENDTAB
  0
TABLE
  2
VIEW
  5
73
330
0
100
AcDbSymbolTable
 70
     0
  0
ENDTAB
  0
TABLE
  2
UCS
  5
74
330
0
100
AcDbSymbolTable
 70
     0
  0
ENDTAB
  0
TABLE
  2
APPID
  5
75
330
0
100
AcDbSymbolTable
 70
     2
  0
APPID
  5
76
330
75
100
AcDbSymbolTableRecord
100
AcDbRegAppTableRecord
  2
ACAD
 70
     0
  0
APPID
  5
77
330
75
100
AcDbSymbolTableRecord
100
AcDbRegAppTableRecord
  2
ACADANNOTATIVE
 70
     0
  0
ENDTAB
  0
TABLE
  2
DIMSTYLE
  5
78
330
0
100
AcDbSymbolTable
 70
     2
  0
DIMSTYLE
105
79
330
78
100
AcDbSymbolTableRecord
100
AcDbDimStyleTableRecord
  2
STANDARD
 70
     0
  3

  4

  5

  6

  7

 40
0.0
 41
2.5
 42
0.625
 43
3.75
 44
1.25
 45
0.0
 46
0.0
 47
0.0
 48
0.0
140
2.5
141
2.5
142
0.0
143
0.03937007874016
144
1.0
145
0.0
146
1.0
147
0.625
 71
     0
 72
     0
 73
     0
 74
     0
 75
     0
 76
     0
 77
     1
 78
     8
170
     0
171
     3
172
     1
173
     0
174
     0
175
     0
176
     0
177
     0
178
     0
270
     2
271
     2
272
     2
273
     2
274
     3
340
71
275
     0
280
     0
281
     0
282
     0
283
     0
284
     8
285
     0
286
     0
287
     3
288
     0
  0
ENDTAB
  0
TABLE
  2
BLOCK_RECORD
  5
A01
330
0
100
AcDbSymbolTable
  70
5
  0
BLOCK_RECORD
  5
A02
330
A01
100
AcDbSymbolTableRecord
100
AcDbBlockTableRecord
  2
*MODEL_SPACE
  0
BLOCK_RECORD
  5
A03
330
A01
100
AcDbSymbolTableRecord
100
AcDbBlockTableRecord
  2
*PAPER_SPACE
  0
ENDTAB
  0
ENDSEC
  0
SECTION
  2
BLOCKS
  0
BLOCK
  5
A04
330
A02
100
AcDbEntity
  8
0
100
AcDbBlockBegin
  2
*MODEL_SPACE
 70
   0
 10
0
 20
0
 30
0
  3
*MODEL_SPACE
  1
 
  0
ENDBLK
  5
A05
330
A02
100
AcDbEntity
  8
0
100
AcDbBlockEnd
  0
BLOCK
  5
A06
330
A03
100
AcDbEntity
 67
1
  8
0
100
AcDbBlockBegin
  2
*PAPER_SPACE
 70
   0
 10
0
 20
0
 30
0
  3
*PAPER_SPACE
  1
 
  0
ENDBLK
  5
A07
330
A03
100
AcDbEntity
 67
    1
  8
0
100
AcDbBlockEnd
  0
ENDSEC
  0
SECTION
  2
ENTITIES
  0
ARC
  5
A08
330
A02
100
AcDbEntity
  8
Sketch003
100
AcDbCircle
 10
4
 20
-4
 30
7.6
 40
4
100
AcDbArc
 50
90
 51
180
  0
LINE
  5
A09
330
A02
100
AcDbEntity
  8
Sketch003
100
AcDbLine
 10
4
 20
0
 30
7.6
 11
45.05
 21
0
 31
7.6
  0
ARC
  5
A0A
330
A02
100
AcDbEntity
  8
Sketch003
100
AcDbCircle
 10
45.05
 20
-1.25
 30
7.6
 40
1.25
100
AcDbArc
 50
1.11956e-13
 51
90
  0
LINE
  5
A0B
330
A02
100
AcDbEntity
  8
Sketch003
100
AcDbLine
 10
46.3
 20
-1.25
 30
7.6
 11
46.3
 21
-6.75
 31
7.6
  0
ARC
  5
A0C
330
A02
100
AcDbEntity
  8
Sketch003
100
AcDbCircle
 10
47.55
 20
-6.75
 30
7.6
 40
1.25
100
AcDbArc
 50
-180
 51
-90
  0
LINE
  5
A0D
330
A02
100
AcDbEntity
  8
Sketch003
100
AcDbLine
 10
47.55
 20
-8
 30
7.6
 11
54.45
 21
-8
 31
7.6
  0
ARC
  5
A0E
330
A02
100
AcDbEntity
  8
Sketch003
100
AcDbCircle
 10
54.45
 20
-6.75
 30
7.6
 40
1.25
100
AcDbArc
 50
-90
 51
0
  0
LINE
  5
A0F
330
A02
100
AcDbEntity
  8
Sketch003
100
AcDbLine
 10
55.7
 20
-1.25
 30
7.6
 11
55.7
 21
-6.75
 31
7.6
  0
ARC
  5
A10
330
A02
100
AcDbEntity
  8
Sketch003
100
AcDbCircle
 10
56.95
 20
-1.25
 30
7.6
 40
1.25
100
AcDbArc
 50
90
 51
180
  0
LINE
  5
A11
330
A02
100
AcDbEntity
  8
Sketch003
100
AcDbLine
 10
56.95
 20
-3.33e-15
 30
7.6
 11
85.45
 21
-3.33e-15
 31
7.6
  0
ARC
  5
A12
330
A02
100
AcDbEntity
  8
Sketch003
100
AcDbCircle
 10
85.45
 20
-1.25
 30
7.6
 40
1.25
100
AcDbArc
 50
1.11956e-13
 51
90
  0
LINE
  5
A13
330
A02
100
AcDbEntity
  8
Sketch003
100
AcDbLine
 10
86.7
 20
-1.25
 30
7.6
 11
86.7
 21
-6.75
 31
7.6
  0
ARC
  5
A14
330
A02
100
AcDbEntity
  8
Sketch003
100
AcDbCircle
 10
85.45
 20
-6.75
 30
7.6
 40
1.25
100
AcDbArc
 50
-90
 51
-8.14222e-14
  0
LINE
  5
A15
330
A02
100
AcDbEntity
  8
Sketch003
100
AcDbLine
 10
85.45
 20
-8
 30
7.6
 11
70.25
 21
-8
 31
7.6
  0
ARC
  5
A16
330
A02
100
AcDbEntity
  8
Sketch003
100
AcDbCircle
 10
70.25
 20
-9.25
 30
7.6
 40
1.25
100
AcDbArc
 50
90
 51
180
  0
LINE
  5
A17
330
A02
100
AcDbEntity
  8
Sketch003
100
AcDbLine
 10
69
 20
-9.25
 30
7.6
 11
69
 21
-19.5474
 31
7.6
  0
ARC
  5
A18
330
A02
100
AcDbEntity
  8
Sketch003
100
AcDbCircle
 10
70.25
 20
-19.5474
 30
7.6
 40
1.25
100
AcDbArc
 50
180
 51
-140.194
  0
LINE
  5
A19
330
A02
100
AcDbEntity
  8
Sketch003
100
AcDbLine
 10
69.2897
 20
-20.3477
 30
7.6
 11
83.6252
 21
-37.5502
 31
7.6
  0
ARC
  5
A1A
330
A02
100
AcDbEntity
  8
Sketch003
100
AcDbCircle
 10
84.5855
 20
-36.75
 30
7.6
 40
1.25
100
AcDbArc
 50
-140.194
 51
-90
  0
LINE
  5
A1B
330
A02
100
AcDbEntity
  8
Sketch003
100
AcDbLine
 10
84.5855
 20
-38
 30
7.6
 11
90.2552
 21
-38
 31
7.6
  0
ARC
  5
A1C
330
A02
100
AcDbEntity
  8
Sketch003
100
AcDbCircle
 10
90.2552
 20
-36.75
 30
7.6
 40
1.25
100
AcDbArc
 50
-90
 51
-28.4212
  0
LINE
  5
A1D
330
A02
100
AcDbEntity
  8
Sketch003
100
AcDbLine
 10
91.3545
 20
-37.3449
 30
7.6
 11
100.049
 21
-21.2784
 31
7.6
  0
ARC
  5
A1E
330
A02
100
AcDbEntity
  8
Sketch003
100
AcDbCircle
 10
98.95
 20
-20.6835
 30
7.6
 40
1.25
100
AcDbArc
 50
-28.4212
 51
0
  0
LINE
  5
A1F
330
A02
100
AcDbEntity
  8
Sketch003
100
AcDbLine
 10
100.2
 20
-11.72
 30
7.6
 11
100.2
 21
-20.6835
 31
7.6
  0
ARC
  5
A20
330
A02
100
AcDbEntity
  8
Sketch003
100
AcDbCircle
 10
98.95
 20
-11.72
 30
7.6
 40
1.25
100
AcDbArc
 50
0
 51
37.1467
  0
LINE
  5
A21
330
A02
100
AcDbEntity
  8
Sketch003
100
AcDbLine
 10
97.9536
 20
-8.3348
 30
7.6
 11
99.9464
 21
-10.9652
 31
7.6
  0
ARC
  5
A22
330
A02
100
AcDbEntity
  8
Sketch003
100
AcDbCircle
 10
98.95
 20
-7.57998
 30
7.6
 40
1.25
100
AcDbArc
 50
180
 51
-142.853
  0
LINE
  5
A23
330
A02
100
AcDbEntity
  8
Sketch003
100
AcDbLine
 10
97.7
 20
-1.25
 30
7.6
 11
97.7
 21
-7.57998
 31
7.6
  0
ARC
  5
A24
330
A02
100
AcDbEntity
  8
Sketch003
100
AcDbCircle
 10
98.95
 20
-1.25
 30
7.6
 40
1.25
100
AcDbArc
 50
90
 51
180
  0
LINE
  5
A25
330
A02
100
AcDbEntity
  8
Sketch003
100
AcDbLine
 10
98.95
 20
-3.1e-15
 30
7.6
 11
151.75
 21
6.8e-17
 31
7.6
  0
ARC
  5
A26
330
A02
100
AcDbEntity
  8
Sketch003
100
AcDbCircle
 10
151.75
 20
-1.25
 30
7.6
 40
1.25
100
AcDbArc
 50
5.19067e-13
 51
90
  0
LINE
  5
A27
330
A02
100
AcDbEntity
  8
Sketch003
100
AcDbLine
 10
153
 20
-1.25
 30
7.6
 11
153
 21
-6.75
 31
7.6
  0
ARC
  5
A28
330
A02
100
AcDbEntity
  8
Sketch003
100
AcDbCircle
 10
154.25
 20
-6.75
 30
7.6
 40
1.25
100
AcDbArc
 50
-180
 51
-90
  0
LINE
  5
A29
330
A02
100
AcDbEntity
  8
Sketch003
100
AcDbLine
 10
161.15
 20
-8
 30
7.6
 11
154.25
 21
-8
 31
7.6
  0
ARC
  5
A2A
330
A02
100
AcDbEntity
  8
Sketch003
100
AcDbCircle
 10
161.15
 20
-6.75
 30
7.6
 40
1.25
100
AcDbArc
 50
-90
 51
-8.14222e-14
  0
LINE
  5
A2B
330
A02
100
AcDbEntity
  8
Sketch003
100
AcDbLine
 10
162.4
 20
-1.25
 30
7.6
 11
162.4
 21
-6.75
 31
7.6
  0
ARC
  5
A2C
330
A02
100
AcDbEntity
  8
Sketch003
100
AcDbCircle
 10
163.65
 20
-1.25
 30
7.6
 40
1.25
100
AcDbArc
 50
90
 51
180
  0
LINE
  5
A2D
330
A02
100
AcDbEntity
  8
Sketch003
100
AcDbLine
 10
163.65
 20
0
 30
7.6
 11
229.17
 21
0
 31
7.6
  0
ARC
  5
A2E
330
A02
100
AcDbEntity
  8
Sketch003
100
AcDbCircle
 10
229.17
 20
-4
 30
7.6
 40
4
100
AcDbArc
 50
1.145e-13
 51
90
  0
LINE
  5
A2F
330
A02
100
AcDbEntity
  8
Sketch003
100
AcDbLine
 10
233.17
 20
-4
 30
7.6
 11
233.17
 21
-143.67
 31
7.6
  0
ARC
  5
A30
330
A02
100
AcDbEntity
  8
Sketch003
100
AcDbCircle
 10
229.17
 20
-143.67
 30
7.6
 40
4
100
AcDbArc
 50
-90
 51
8.14222e-13
  0
LINE
  5
A31
330
A02
100
AcDbEntity
  8
Sketch003
100
AcDbLine
 10
4
 20
-147.67
 30
7.6
 11
229.17
 21
-147.67
 31
7.6
  0
ARC
  5
A32
330
A02
100
AcDbEntity
  8
Sketch003
100
AcDbCircle
 10
4
 20
-143.67
 30
7.6
 40
4
100
AcDbArc
 50
180
 51
-90
  0
LINE
  5
A33
330
A02
100
AcDbEntity
  8
Sketch003
100
AcDbLine
 10
0
 20
-4
 30
7.6
 11
0
 21
-143.67
 31
7.6
  0
CIRCLE
  5
A34
330
A02
100
AcDbEntity
  8
Sketch003
100
AcDbCircle
 10
7.55
 20
-7.55
 40
1.6
  0
CIRCLE
  5
A35
330
A02
100
AcDbEntity
  8
Sketch003
100
AcDbCircle
 10
105
 20
-7.55
 40
1.6
  0
CIRCLE
  5
A36
330
A02
100
AcDbEntity
  8
Sketch003
100
AcDbCircle
 10
21.75
 20
-62.75
 40
11.75
  0
CIRCLE
  5
A37
330
A02
100
AcDbEntity
  8
Sketch003
100
AcDbCircle
 10
50.37
 20
-62.75
 40
11.75
  0
CIRCLE
  5
A38
330
A02
100
AcDbEntity
  8
Sketch003
100
AcDbCircle
 10
75.82
 20
-76.29
 40
11.75
  0
CIRCLE
  5
A39
330
A02
100
AcDbEntity
  8
Sketch003
100
AcDbCircle
 10
103.05
 20
-63.7
 40
11.75
  0
CIRCLE
  5
A3A
330
A02
100
AcDbEntity
  8
Sketch003
100
AcDbCircle
 10
80.14
 20
-98.58
 40
1.6
  0
CIRCLE
  5
A3B
330
A02
100
AcDbEntity
  8
Sketch003
100
AcDbCircle
 10
100.89
 20
-93.81
 40
11.75
  0
CIRCLE
  5
A3C
330
A02
100
AcDbEntity
  8
Sketch003
100
AcDbCircle
 10
127.87
 20
-82.37
 40
11.75
  0
CIRCLE
  5
A3D
330
A02
100
AcDbEntity
  8
Sketch003
100
AcDbCircle
 10
129.4
 20
-52.29
 40
11.75
  0
CIRCLE
  5
A3E
330
A02
100
AcDbEntity
  8
Sketch003
100
AcDbCircle
 10
57.22
 20
-120.47
 40
11.75
  0
CIRCLE
  5
A3F
330
A02
100
AcDbEntity
  8
Sketch003
100
AcDbCircle
 10
88.79
 20
-128.67
 40
14
  0
CIRCLE
  5
A40
330
A02
100
AcDbEntity
  8
Sketch003
100
AcDbCircle
 10
105
 20
-140.12
 40
1.6
  0
CIRCLE
  5
A41
330
A02
100
AcDbEntity
  8
Sketch003
100
AcDbCircle
 10
7.55
 20
-140.12
 40
1.6
  0
CIRCLE
  5
A42
330
A02
100
AcDbEntity
  8
Sketch003
100
AcDbCircle
 10
154.85
 20
-70.93
 40
11.75
  0
CIRCLE
  5
A43
330
A02
100
AcDbEntity
  8
Sketch003
100
AcDbCircle
 10
186.22
 20
-66.39
 40
11.75
  0
CIRCLE
  5
A44
330
A02
100
AcDbEntity
  8
Sketch003
100
AcDbCircle
 10
212.42
 20
-51.11
 40
11.75
  0
CIRCLE
  5
A45
330
A02
100
AcDbEntity
  8
Sketch003
100
AcDbCircle
 10
184.85
 20
-36.94
 40
11.75
  0
CIRCLE
  5
A46
330
A02
100
AcDbEntity
  8
Sketch003
100
AcDbCircle
 10
155.75
 20
-40.88
 40
11.75
  0
CIRCLE
  5
A47
330
A02
100
AcDbEntity
  8
Sketch003
100
AcDbCircle
 10
132.54
 20
-21.75
 40
11.75
  0
CIRCLE
  5
A48
330
A02
100
AcDbEntity
  8
Sketch003
100
AcDbCircle
 10
225.62
 20
-7.55
 40
1.6
  0
CIRCLE
  5
A49
330
A02
100
AcDbEntity
  8
Sketch003
100
AcDbCircle
 10
225.62
 20
-140.12
 40
1.6
  0
LINE
  5
A4A
330
A02
100
AcDbEntity
  8
Sketch003
100
AcDbLine
 10
16.25
 20
-8.25
 30
7.6
 11
43.75
 21
-8.25
 31
7.6
  0
LINE
  5
A4B
330
A02
100
AcDbEntity
  8
Sketch003
100
AcDbLine
 10
43.75
 20
-8.25
 30
7.6
 11
43.75
 21
-46.626
 31
7.6
  0
LINE
  5
A4C
330
A02
100
AcDbEntity
  8
Sketch003
100
AcDbLine
 10
43.75
 20
-46.626
 30
7.6
 11
16.25
 21
-46.626
 31
7.6
  0
LINE
  5
A4D
330
A02
100
AcDbEntity
  8
Sketch003
100
AcDbLine
 10
16.25
 20
-8.25
 30
7.6
 11
16.25
 21
-46.626
 31
7.6
  0
ENDSEC
  0
SECTION
  2
OBJECTS
  0
DICTIONARY
  5
F000
330
0
100
AcDbDictionary
  3
ACAD_GROUP
350
F001
  0
DICTIONARY
  5
F001
330
F000
100
AcDbDictionary
  0
ENDSEC
  0
EOF