<?xml version="1.0"?>
<!DOCTYPE svg PUBLIC "-//W3C//DTD SVG 1.1//EN" "http://www.w3.org/Graphics/SVG/1.1/DTD/svg11.dtd">
<svg width="237.83339999999998mm" height="152.3333999999996mm" viewBox="0 0 237.83339999999998 152.3333999999996" xmlns="http://www.w3.org/2000/svg" version="1.1">
<g id="Sketch002" transform="translate(2.331700,2.331700) scale(1,-1)">
<path id="Sketch002_w0000"  d="M 4.000000000000001 -1.1447077447598706e-31 A 4 4 0 0 1 0 -4L 2.107647389948397e-12 -143.67000000000002 A 4 4 0 0 1 4 -147.67L 229.17000000000846 -147.6699999999996 A 4 4 0 0 1 233.17 -143.67L 233.16999999999996 -4.0 A 4 4 0 0 1 229.17 0L 86.1 -1.1447077447598706e-31 A 1.5 1.5 0 0 1 84.6 -1.5L 84.6 -32.68000000000003 A 1.5 1.5 0 0 0 83.1 -34.18L 73.89999999999999 -34.18000000000003 A 1.5 1.5 0 0 0 72.4 -32.68L 72.39999999999999 -1.5 A 1.5 1.5 0 0 1 70.9 0L 4.000000000000001 -1.1447077447598706e-31 " stroke="#000000" stroke-width="0.35 px" style="stroke-width:0.35;stroke-miterlimit:4;stroke-dasharray:none;stroke-linecap:square;fill:none;fill-opacity:1;fill-rule: evenodd"/>
<circle cx="7.55" cy="-140.12" r="1.6" stroke="#000000" stroke-width="0.35 px" style="stroke-width:0.35;stroke-miterlimit:4;stroke-dasharray:none;stroke-linecap:square;fill:none"/>
<circle cx="105.0" cy="-7.550000000000001" r="1.6" stroke="#000000" stroke-width="0.35 px" style="stroke-width:0.35;stroke-miterlimit:4;stroke-dasharray:none;stroke-linecap:square;fill:none"/>
<circle cx="225.61999999999995" cy="-7.550000000000001" r="1.6" stroke="#000000" stroke-width="0.35 px" style="stroke-width:0.35;stroke-miterlimit:4;stroke-dasharray:none;stroke-linecap:square;fill:none"/>
<circle cx="105.0" cy="-140.12" r="1.6" stroke="#000000" stroke-width="0.35 px" style="stroke-width:0.35;stroke-miterlimit:4;stroke-dasharray:none;stroke-linecap:square;fill:none"/>
<circle cx="80.14" cy="-98.58" r="1.6" stroke="#000000" stroke-width="0.35 px" style="stroke-width:0.35;stroke-miterlimit:4;stroke-dasharray:none;stroke-linecap:square;fill:none"/>
<circle cx="7.549999999999997" cy="-7.550000000000004" r="1.6" stroke="#000000" stroke-width="0.35 px" style="stroke-width:0.35;stroke-miterlimit:4;stroke-dasharray:none;stroke-linecap:square;fill:none"/>
<circle cx="225.61999999999995" cy="-140.12" r="1.6" stroke="#000000" stroke-width="0.35 px" style="stroke-width:0.35;stroke-miterlimit:4;stroke-dasharray:none;stroke-linecap:square;fill:none"/>
<title>b'PCB sketch'</title>
</g>
</svg>